<svg width="900" height="900" viewBox="0 0 900 900" fill="none" xmlns="http://www.w3.org/2000/svg">
<path fill-rule="evenodd" clip-rule="evenodd" d="M480.731 177.545C478.663 177.427 476.591 177.337 474.517 177.274C480.469 189.343 485.718 201.666 490.263 214.184C494.4 213.899 498.463 213.537 502.421 213.1C510.755 212.178 518.459 210.94 525.297 209.441C512.645 196.991 497.771 186.166 480.731 177.545ZM467.389 172.056L467.389 172.056L467.389 250.76L467.389 225.867V220.958H467.389V214.958L467.389 196.062V177.166L467.389 172.056ZM486.099 214.443C482.34 204.194 478.103 194.079 473.389 184.13L473.389 214.906C477.668 214.831 481.915 214.676 486.099 214.443ZM473.389 220.907C478.381 220.821 483.334 220.628 488.201 220.331C494.278 237.832 498.974 255.699 502.284 273.768C492.753 274.209 483.097 274.469 473.389 274.545V225.867V220.907ZM473.389 280.545C483.446 280.467 493.451 280.193 503.324 279.726C506.386 298.177 508.009 316.819 508.19 335.478H473.389V280.545ZM467.389 335.478V280.569H467.389L467.389 335.478H467.389ZM467.389 339.478L467.389 479.308L467.389 461.893V455.893L467.389 449.582V397.374V391.374L467.389 346.14V339.478H467.389ZM473.389 339.478H508.206C508.182 357.099 506.87 374.725 504.268 392.207C494.078 391.743 483.759 391.472 473.389 391.396L473.389 346.14V339.478ZM512.206 339.478C512.182 357.163 510.876 374.852 508.283 392.4C522.925 393.141 537.28 394.28 551.116 395.805C556.754 396.426 562.282 397.109 567.687 397.85C574.436 379.001 577.891 359.24 578.138 339.478H512.206ZM582.139 339.478C581.896 359.424 578.456 379.37 571.736 398.42C589.777 401.025 606.383 404.296 621.046 408.145C621.676 406.735 622.287 405.316 622.878 403.888C631.336 383.467 635.689 361.581 635.689 339.478L582.139 339.478ZM635.642 335.478H582.145C581.949 314.267 578.142 293.125 570.827 273.131C586.073 270.766 600.145 267.883 612.676 264.547C614.29 264.117 615.876 263.681 617.433 263.238C619.397 267.103 621.214 271.049 622.878 275.068C630.825 294.256 635.149 314.738 635.642 335.478ZM578.144 335.478H512.19C512.011 316.753 510.394 298.045 507.345 279.525C520.558 278.827 533.513 277.784 546.017 276.405C553.136 275.62 560.069 274.73 566.786 273.742C574.126 293.52 577.947 314.464 578.144 335.478ZM473.389 397.396C483.444 397.47 493.448 397.729 503.329 398.171C500.056 417.893 495.132 437.41 488.554 456.513C484.224 456.256 479.83 456.079 475.402 455.981C474.732 455.967 474.06 455.954 473.389 455.943L473.389 449.582V397.396ZM550.459 401.769C536.547 400.236 522.098 399.095 507.352 398.361C504.101 418.104 499.215 437.648 492.69 456.783C496.765 457.074 500.775 457.437 504.69 457.869C505.43 457.95 506.164 458.034 506.895 458.12C514.363 459.002 521.375 460.128 527.77 461.471C544.615 444.324 557.154 424.604 565.51 403.61C560.595 402.947 555.574 402.332 550.459 401.769ZM475.363 461.982C479.097 462.065 482.805 462.206 486.468 462.404C482.62 472.977 478.261 483.414 473.389 493.679L473.389 481.841V461.943C474.047 461.954 474.705 461.967 475.363 461.982ZM500.35 500.233C494.243 500.829 487.925 501.257 481.495 501.512L499.35 489.838C509.67 483.09 519.003 475.604 527.36 467.518C529.949 468.075 532.423 468.667 534.77 469.292C535.318 469.437 535.857 469.585 536.387 469.733C544.342 471.959 550.305 474.456 554.199 476.959C554.373 477.071 554.539 477.18 554.7 477.289C557.112 478.912 558.132 480.171 558.559 480.955C550.096 486.409 541.141 491.106 531.794 494.978C531.458 495.117 531.122 495.255 530.785 495.392C522.951 497.247 513.914 498.761 504.033 499.85C502.814 499.985 501.586 500.112 500.35 500.233ZM497.161 486.49C506.444 480.42 514.91 473.74 522.569 466.554C517.467 465.593 511.984 464.763 506.195 464.079C505.479 463.995 504.758 463.912 504.033 463.832C499.675 463.352 495.195 462.959 490.631 462.655C486.543 474.004 481.872 485.2 476.619 496.2L474.035 501.611L497.161 486.49ZM536.313 463.493C535.027 463.151 533.706 462.818 532.352 462.496C548.96 445.127 561.335 425.269 569.595 404.175C587.507 406.719 603.959 409.918 618.456 413.67C610.315 430.249 599.489 445.397 586.395 458.492C579.345 465.543 571.699 471.936 563.556 477.606C562.42 475.779 560.55 473.985 557.969 472.256C557.797 472.141 557.621 472.026 557.443 471.912C552.851 468.96 546.253 466.262 537.988 463.951C537.437 463.796 536.879 463.644 536.313 463.493ZM611.132 258.749C598.484 262.116 584.185 265.026 568.621 267.4C560.694 247.79 549.322 229.413 534.604 213.322C542.67 211.084 549.099 208.461 553.556 205.59C556.854 203.464 559.026 201.231 560.023 198.956C569.495 205.2 578.334 212.402 586.395 220.464C597.496 231.565 606.966 244.142 614.553 257.816C613.429 258.13 612.289 258.441 611.132 258.749ZM503.08 219.063C513.059 217.96 522.233 216.404 530.201 214.466C545.067 230.324 556.548 248.533 564.545 268.005C558.332 268.903 551.93 269.717 545.36 270.441C532.747 271.832 519.664 272.879 506.314 273.57C503.027 255.478 498.366 237.585 492.337 220.051C495.982 219.781 499.57 219.451 503.08 219.063ZM531.791 207.869C531.166 208.036 530.532 208.201 529.889 208.362C518.583 196.92 505.483 186.766 490.628 178.318C508.955 180.14 526.927 184.114 544.022 190.144C545.08 190.517 546.134 190.898 547.183 191.286C549.641 192.61 552.066 193.994 554.453 195.438C554.637 195.809 554.655 196.024 554.655 196.062C554.655 196.176 554.497 197.845 550.306 200.546C546.363 203.087 540.167 205.633 531.791 207.869Z" fill="#55BC85"/>
<mask id="mask0" mask-type="alpha" maskUnits="userSpaceOnUse" x="410" y="136" width="45" height="170">
<path d="M410.489 142.731C424.945 138.788 439.863 136.794 454.847 136.801L454.767 305.113L410.489 142.731Z" fill="#130947"/>
</mask>
<g mask="url(#mask0)">
<path fill-rule="evenodd" clip-rule="evenodd" d="M286.489 302.309H329.521C329.376 280.039 333.42 257.79 341.521 236.944C330.447 234.968 320.094 232.705 310.622 230.183C308.662 229.661 306.743 229.13 304.868 228.588C302.848 232.545 300.982 236.586 299.277 240.703C291.177 260.26 286.842 281.161 286.489 302.309ZM306.87 224.785C308.449 225.235 310.061 225.68 311.704 226.117C321.299 228.671 331.829 230.962 343.128 232.956C351.786 212.205 364.529 192.958 381.226 176.611C376.583 174.955 372.721 173.146 369.742 171.226C366.157 168.915 363.902 166.478 363.04 163.996C353.225 170.377 344.078 177.781 335.76 186.099C324.299 197.56 314.576 210.595 306.87 224.785ZM384.843 152.016C378.649 154.845 372.642 158.044 366.853 161.59C366.851 161.627 366.85 161.663 366.85 161.698C366.85 162.755 367.682 164.892 372.021 167.689C375.064 169.65 379.299 171.569 384.661 173.342C398.06 160.939 413.846 150.347 431.956 142.224C415.862 143.862 400.041 147.146 384.843 152.016ZM453.618 136.806C454.001 136.805 454.384 136.804 454.767 136.803L454.767 136.802C454.384 136.802 454.001 136.803 453.618 136.806ZM286.466 305.114C286.466 327.217 290.819 349.103 299.277 369.523C299.883 370.987 300.51 372.441 301.156 373.885C313.403 370.654 327.015 367.827 341.695 365.457C334.029 346.091 330.018 325.618 329.561 305.114H286.466ZM302.952 377.764C315.133 374.58 328.693 371.792 343.337 369.455C352.701 391.463 366.873 411.92 386.005 429.204C377.085 431.598 370.002 434.432 365.153 437.548C362.194 439.449 360.103 441.434 358.91 443.458C350.65 437.734 342.9 431.268 335.76 424.128C322.261 410.628 311.173 394.946 302.952 377.764ZM362.414 445.821C363.059 444.592 364.49 442.976 367.428 441.088C371.805 438.275 378.512 435.552 387.365 433.196C388.173 432.981 388.996 432.769 389.833 432.562C395.563 437.447 401.711 442.056 408.28 446.351L442.935 469.009C434.503 468.721 426.239 468.136 418.367 467.268C412.631 466.635 407.169 465.86 402.053 464.956C398.109 463.656 394.209 462.207 390.361 460.613C380.578 456.561 371.223 451.604 362.414 445.821ZM436.81 472.464C441.327 472.819 445.892 473 450.5 473C451.926 473 453.348 472.982 454.767 472.948L454.767 473.425C448.757 473.425 442.763 473.103 436.81 472.464ZM409.815 444.003C403.948 440.167 398.423 436.076 393.236 431.759C400.717 430.077 409.19 428.699 418.367 427.687C421.456 427.347 424.605 427.05 427.801 426.797L447.916 468.914L409.815 444.003ZM417.906 423.505C407.359 424.668 397.672 426.314 389.279 428.365C369.949 411.274 355.641 390.934 346.201 369.006C354.465 367.733 363.063 366.602 371.941 365.623C382.133 364.5 392.611 363.587 403.282 362.89C407.418 379.835 413.315 396.466 420.976 412.508L425.86 422.734C423.172 422.959 420.518 423.217 417.906 423.505ZM430.803 426.574L451 468.862L451 425.762C444.166 425.841 437.395 426.114 430.803 426.574ZM423.508 411.299L428.855 422.496C436.068 421.957 443.499 421.64 451 421.554V361.229C435.857 361.307 420.818 361.805 406.126 362.709C410.211 379.302 416.003 395.586 423.508 411.299ZM398.805 305.114C399.012 323.04 401.122 340.957 405.14 358.555C420.152 357.616 435.524 357.1 451 357.021L451.701 357.018L451.701 305.114H398.805ZM395.983 302.309C395.974 282.844 398.183 263.389 402.603 244.332C394.003 243.717 385.543 242.952 377.28 242.041C365.773 240.772 354.751 239.23 344.342 237.438C336.229 258.111 332.18 280.199 332.326 302.309H395.983ZM396 305.114C396.205 323.099 398.305 341.076 402.305 358.737C391.816 359.433 381.512 360.335 371.48 361.441C362.183 362.465 353.183 363.657 344.54 365.005C336.852 345.8 332.829 325.473 332.367 305.114H396ZM398.788 302.309H451.701L451.701 246.193C436.065 246.108 420.544 245.548 405.437 244.529C400.998 263.517 398.779 282.908 398.788 302.309ZM389.959 179.303C387.947 178.766 386.032 178.205 384.218 177.623C367.452 193.76 354.657 212.841 345.966 233.447C356.013 235.157 366.643 236.635 377.741 237.859C386.173 238.788 394.813 239.565 403.602 240.184C408.32 221.279 415.228 202.797 424.317 185.123C422.939 184.99 421.572 184.849 420.217 184.699C408.902 183.448 398.62 181.614 389.959 179.303ZM391.044 175.237C389.912 174.935 388.817 174.627 387.76 174.313C401.904 161.47 418.693 150.659 438.053 142.651L440.865 141.488C443.05 141.349 445.238 141.24 447.43 141.162L426.424 181.093C424.488 180.918 422.572 180.726 420.68 180.517C409.521 179.283 399.455 177.482 391.044 175.237ZM451.701 141.047C451.35 141.054 450.999 141.061 450.648 141.068L429.458 181.351C436.676 181.929 444.147 182.269 451.701 182.361L451.701 141.047ZM451.701 186.569C443.414 186.469 435.219 186.075 427.332 185.397C418.164 203.032 411.199 221.49 406.445 240.379C421.226 241.361 436.406 241.902 451.701 241.986L451.701 186.569Z" fill="#55BC85"/>
</g>
<mask id="mask1" mask-type="alpha" maskUnits="userSpaceOnUse" x="285" y="122" width="143" height="162">
<path d="M285.862 192.333C307.599 158.531 340.712 133.623 379.214 122.112L427.417 283.373L285.862 192.333Z" fill="#130947"/>
</mask>
<g mask="url(#mask1)">
<path fill-rule="evenodd" clip-rule="evenodd" d="M427.417 115.062C427.036 115.062 426.655 115.063 426.274 115.065C426.655 115.064 427.036 115.063 427.417 115.063L427.417 115.062ZM363.011 127.873C383.078 119.561 404.562 115.213 426.274 115.065C426.272 115.065 426.27 115.065 426.267 115.065C404.557 115.214 383.076 119.562 363.011 127.873ZM357.494 130.275C372.692 125.406 388.512 122.122 404.606 120.484C386.496 128.607 370.71 139.199 357.311 151.602C351.949 149.829 347.714 147.91 344.671 145.948C340.332 143.152 339.5 141.015 339.5 139.958C339.5 139.923 339.501 139.887 339.503 139.85C345.292 136.303 351.3 133.105 357.494 130.275ZM335.691 142.256C336.553 144.738 338.807 147.175 342.392 149.485C345.372 151.406 349.233 153.214 353.877 154.871C337.18 171.218 324.437 190.465 315.779 211.215C304.48 209.222 293.949 206.931 284.355 204.377C282.711 203.939 281.1 203.495 279.521 203.045C287.227 188.855 296.95 175.82 308.411 164.359C316.729 156.04 325.875 148.637 335.691 142.256ZM277.518 206.848C279.394 207.389 281.312 207.921 283.272 208.443C292.745 210.965 303.097 213.228 314.172 215.204C306.07 236.05 302.027 258.298 302.171 280.569H259.14C259.492 259.421 263.828 238.519 271.928 218.963C272.034 218.706 272.141 218.449 272.249 218.192C273.867 214.341 275.624 210.557 277.518 206.848ZM335.064 424.081C335.71 422.852 337.141 421.235 340.078 419.347C344.455 416.535 351.163 413.812 360.016 411.456C360.824 411.24 361.646 411.029 362.483 410.822C368.214 415.706 374.362 420.316 380.93 424.61L415.586 447.269C407.153 446.98 398.89 446.396 391.017 445.528C385.281 444.895 379.82 444.12 374.704 443.216C370.76 441.915 366.859 440.467 363.011 438.873C353.228 434.82 343.874 429.864 335.064 424.081ZM331.561 421.718C332.753 419.693 334.845 417.709 337.804 415.807C342.652 412.692 349.735 409.858 358.656 407.464C339.523 390.179 325.351 369.723 315.987 347.715C301.343 350.051 287.783 352.84 275.602 356.023C283.823 373.206 294.912 388.888 308.41 402.388C315.55 409.528 323.301 415.994 331.561 421.718ZM268.949 340.059C262.449 321.888 259.116 302.714 259.116 283.374H302.211C302.668 303.878 306.679 324.351 314.346 343.717C299.666 346.087 286.053 348.914 273.806 352.145C273.16 350.701 272.534 349.247 271.928 347.783C270.87 345.231 269.877 342.655 268.949 340.059ZM382.465 422.262C376.599 418.427 371.073 414.336 365.886 410.019C373.367 408.337 381.84 406.959 391.017 405.947C394.106 405.606 397.255 405.309 400.451 405.057L420.567 447.174L382.465 422.262ZM390.556 401.764C380.009 402.927 370.322 404.573 361.929 406.625C342.599 389.534 328.292 369.193 318.851 347.266C327.116 345.992 335.713 344.861 344.591 343.883C354.784 342.76 365.262 341.847 375.932 341.15C380.069 358.095 385.965 374.726 393.627 390.768L398.511 400.993C395.823 401.219 393.169 401.476 390.556 401.764ZM403.453 404.834L423.65 447.122L423.65 404.022C416.816 404.101 410.045 404.374 403.453 404.834ZM396.158 389.559L401.506 400.756C408.719 400.216 416.149 399.9 423.65 399.814V339.488C408.507 339.566 393.468 340.064 378.776 340.969C382.861 357.561 388.653 373.846 396.158 389.559ZM371.455 283.374C371.662 301.3 373.772 319.217 377.791 336.814C392.802 335.876 408.174 335.36 423.65 335.281L424.352 335.277L424.352 283.374H371.455ZM368.633 280.569C368.624 261.104 370.833 241.648 375.254 222.592C366.653 221.977 358.193 221.212 349.93 220.301C338.423 219.032 327.402 217.49 316.992 215.698C308.879 236.37 304.83 258.459 304.976 280.569H368.633ZM368.65 283.374C368.856 301.359 370.955 319.336 374.955 336.997C364.467 337.692 354.162 338.595 344.13 339.701C334.833 340.725 325.833 341.917 317.19 343.265C309.503 324.059 305.479 303.733 305.017 283.374H368.65ZM371.438 280.569H424.352L424.352 224.453C408.715 224.368 393.195 223.808 378.088 222.789C373.648 241.776 371.429 261.168 371.438 280.569ZM362.61 157.562C360.598 157.025 358.682 156.465 356.869 155.883C340.102 172.02 327.307 191.101 318.617 211.707C328.663 213.417 339.293 214.894 350.392 216.118C358.823 217.048 367.463 217.824 376.252 218.444C380.97 199.539 387.878 181.057 396.967 163.382C395.59 163.25 394.223 163.109 392.868 162.959C381.552 161.708 371.27 159.874 362.61 157.562ZM363.695 153.497C362.563 153.195 361.468 152.886 360.41 152.572C374.555 139.73 391.343 128.918 410.703 120.911L413.516 119.748C415.7 119.609 417.889 119.5 420.08 119.422L399.074 159.353C397.138 159.178 395.222 158.986 393.33 158.777C382.171 157.543 372.105 155.742 363.695 153.497ZM424.352 119.307C424.001 119.313 423.65 119.32 423.299 119.328L402.108 159.611C409.326 160.189 416.798 160.529 424.352 160.621L424.352 119.307ZM424.352 164.829C416.065 164.729 407.87 164.334 399.983 163.657C390.814 181.292 383.849 199.75 379.095 218.639C393.876 219.621 409.056 220.161 424.352 220.245L424.352 164.829Z" fill="#55BC85"/>
</g>
<mask id="mask2" mask-type="alpha" maskUnits="userSpaceOnUse" x="255" y="221" width="168" height="92">
<path d="M255.69 290.539C258.976 265.94 267.661 242.371 281.124 221.522L422.508 312.827L255.69 290.539Z" fill="#130947"/>
</mask>
<g mask="url(#mask2)">
<path fill-rule="evenodd" clip-rule="evenodd" d="M422.508 144.516C422.127 144.516 421.746 144.517 421.365 144.52C421.746 144.518 422.127 144.518 422.508 144.517L422.508 144.516ZM358.102 157.328C378.169 149.015 399.652 144.667 421.365 144.52C421.363 144.52 421.36 144.52 421.358 144.52C399.647 144.668 378.167 149.016 358.102 157.328ZM352.584 159.73C367.783 154.86 383.603 151.576 399.697 149.938C381.587 158.061 365.801 168.653 352.402 181.056C347.04 179.283 342.805 177.364 339.762 175.403C335.423 172.606 334.591 170.469 334.591 169.412C334.591 169.377 334.592 169.341 334.594 169.304C340.383 165.757 346.39 162.559 352.584 159.73ZM330.782 171.71C331.643 174.192 333.898 176.629 337.483 178.94C340.463 180.86 344.324 182.668 348.967 184.325C332.27 200.672 319.527 219.919 310.869 240.669C299.57 238.676 289.04 236.385 279.445 233.831C277.802 233.393 276.191 232.949 274.612 232.499C282.318 218.309 292.041 205.274 303.501 193.813C311.819 185.494 320.966 178.091 330.782 171.71ZM272.609 236.302C274.485 236.843 276.403 237.375 278.363 237.897C287.835 240.419 298.188 242.682 309.263 244.658C301.161 265.504 297.118 287.753 297.262 310.023H254.231C254.583 288.875 258.918 267.974 267.018 248.417C267.125 248.16 267.232 247.903 267.34 247.646C268.957 243.795 270.715 240.011 272.609 236.302ZM330.155 453.535C330.801 452.306 332.231 450.689 335.169 448.801C339.546 445.989 346.254 443.266 355.106 440.91C355.915 440.695 356.737 440.483 357.574 440.276C363.305 445.16 369.453 449.77 376.021 454.064L410.677 476.723C402.244 476.435 393.98 475.85 386.108 474.982C380.372 474.349 374.91 473.574 369.794 472.67C365.85 471.369 361.95 469.921 358.102 468.327C348.319 464.275 338.965 459.318 330.155 453.535ZM326.651 451.172C327.844 449.148 329.935 447.163 332.894 445.262C337.743 442.146 344.826 439.312 353.746 436.918C334.614 419.634 320.442 399.177 311.078 377.169C296.434 379.505 282.874 382.294 270.693 385.477C278.914 402.66 290.002 418.342 303.501 431.842C310.641 438.982 318.392 445.448 326.651 451.172ZM264.04 369.513C257.54 351.342 254.207 332.168 254.207 312.828H297.302C297.759 333.332 301.77 353.805 309.436 373.171C294.757 375.541 281.144 378.368 268.897 381.599C268.251 380.155 267.624 378.701 267.018 377.237C265.961 374.685 264.968 372.109 264.04 369.513ZM377.556 451.716C371.689 447.881 366.164 443.79 360.977 439.473C368.458 437.791 376.931 436.413 386.108 435.401C389.197 435.06 392.346 434.763 395.542 434.511L415.657 476.628L377.556 451.716ZM385.647 431.219C375.1 432.382 365.413 434.028 357.02 436.079C337.69 418.988 323.383 398.647 313.942 376.72C322.207 375.446 330.804 374.316 339.682 373.337C349.874 372.214 360.353 371.301 371.023 370.604C375.16 387.549 381.056 404.18 388.718 420.222L393.601 430.447C390.914 430.673 388.26 430.931 385.647 431.219ZM398.544 434.288L418.741 476.576L418.741 433.476C411.907 433.555 405.136 433.828 398.544 434.288ZM391.249 419.013L396.596 430.21C403.809 429.671 411.24 429.354 418.741 429.268V368.943C403.598 369.02 388.559 369.518 373.867 370.423C377.952 387.015 383.744 403.3 391.249 419.013ZM366.546 312.828C366.753 330.754 368.863 348.671 372.881 366.268C387.893 365.33 403.265 364.814 418.741 364.735L419.443 364.731L419.442 312.828H366.546ZM363.724 310.023C363.715 290.558 365.924 271.102 370.344 252.046C361.744 251.431 353.284 250.666 345.021 249.755C333.514 248.486 322.492 246.944 312.083 245.152C303.97 265.824 299.921 287.913 300.067 310.023H363.724ZM363.741 312.828C363.946 330.813 366.046 348.79 370.046 366.451C359.557 367.146 349.253 368.049 339.221 369.155C329.924 370.179 320.924 371.371 312.281 372.719C304.593 353.514 300.57 333.187 300.108 312.828H363.741ZM366.529 310.023H419.442L419.443 253.907C403.806 253.822 388.286 253.262 373.179 252.243C368.739 271.231 366.52 290.622 366.529 310.023ZM357.701 187.016C355.689 186.479 353.773 185.919 351.959 185.337C335.193 201.474 322.398 220.555 313.708 241.161C323.754 242.871 334.384 244.348 345.482 245.572C353.914 246.502 362.554 247.279 371.343 247.898C376.061 228.993 382.969 210.511 392.058 192.837C390.68 192.704 389.314 192.563 387.958 192.413C376.643 191.162 366.361 189.328 357.701 187.016ZM358.786 182.951C357.654 182.649 356.559 182.34 355.501 182.026C369.646 169.184 386.434 158.372 405.794 150.365L408.607 149.202C410.791 149.063 412.98 148.954 415.171 148.876L394.165 188.807C392.229 188.632 390.313 188.44 388.421 188.231C377.262 186.997 367.196 185.196 358.786 182.951ZM419.442 148.761C419.091 148.767 418.74 148.774 418.389 148.782L397.199 189.065C404.417 189.643 411.888 189.983 419.443 190.075L419.442 148.761ZM419.443 194.283C411.156 194.183 402.961 193.789 395.074 193.111C385.905 210.746 378.94 229.204 374.186 248.093C388.967 249.075 404.147 249.616 419.443 249.699L419.443 194.283Z" fill="#55BC85"/>
</g>
<mask id="mask3" mask-type="alpha" maskUnits="userSpaceOnUse" x="267" y="321" width="169" height="149">
<path d="M324.732 469.411C304.067 451.249 288.169 428.298 278.43 402.567C268.691 376.836 265.408 349.11 268.868 321.815L435.832 342.983L324.732 469.411Z" fill="#130947"/>
</mask>
<g mask="url(#mask3)">
<path fill-rule="evenodd" clip-rule="evenodd" d="M435.832 174.672C435.451 174.672 435.07 174.673 434.689 174.676C435.07 174.675 435.451 174.674 435.832 174.673L435.832 174.672ZM371.426 187.484C391.493 179.171 412.977 174.823 434.689 174.676C434.687 174.676 434.685 174.676 434.682 174.676C412.972 174.824 391.491 179.172 371.426 187.484ZM365.909 189.886C381.107 185.017 396.927 181.732 413.021 180.095C394.911 188.217 379.126 198.809 365.726 211.212C360.365 209.439 356.129 207.52 353.086 205.559C348.747 202.762 347.915 200.625 347.915 199.568C347.915 199.534 347.916 199.498 347.918 199.46C353.707 195.914 359.715 192.715 365.909 189.886ZM344.106 201.866C344.968 204.348 347.222 206.785 350.807 209.096C353.787 211.016 357.649 212.825 362.292 214.481C345.595 230.828 332.852 250.075 324.194 270.826C312.895 268.832 302.364 266.541 292.77 263.987C291.126 263.55 289.515 263.106 287.936 262.655C295.642 248.465 305.365 235.431 316.826 223.969C325.144 215.651 334.29 208.247 344.106 201.866ZM285.933 266.458C287.809 267 289.727 267.532 291.687 268.053C301.16 270.575 311.512 272.838 322.587 274.814C314.485 295.661 310.442 317.909 310.586 340.179H267.555C267.907 319.031 272.243 298.13 280.343 278.573C280.449 278.316 280.556 278.059 280.664 277.802C282.282 273.951 284.039 270.168 285.933 266.458ZM343.479 483.691C344.125 482.462 345.556 480.846 348.493 478.958C352.87 476.145 359.578 473.423 368.431 471.066C369.239 470.851 370.061 470.64 370.898 470.432C376.629 475.317 382.777 479.926 389.345 484.221L424.001 506.879C415.568 506.591 407.305 506.006 399.432 505.138C393.696 504.506 388.235 503.73 383.119 502.827C379.175 501.526 375.274 500.077 371.426 498.483C361.643 494.431 352.289 489.474 343.479 483.691ZM339.976 481.328C341.168 479.304 343.26 477.32 346.219 475.418C351.067 472.302 358.15 469.468 367.071 467.074C347.938 449.79 333.766 429.333 324.402 407.325C309.758 409.662 296.198 412.45 284.017 415.634C292.239 432.816 303.327 448.498 316.826 461.998C323.965 469.138 331.716 475.604 339.976 481.328ZM277.364 399.67C270.864 381.498 267.532 362.324 267.531 342.984H310.626C311.083 363.488 315.094 383.961 322.761 403.327C308.081 405.697 294.468 408.524 282.221 411.755C281.575 410.311 280.949 408.857 280.343 407.394C279.285 404.841 278.292 402.266 277.364 399.67ZM390.88 481.873C385.014 478.037 379.488 473.946 374.301 469.629C381.782 467.947 390.255 466.569 399.432 465.557C402.521 465.217 405.67 464.92 408.866 464.667L428.982 506.784L390.88 481.873ZM398.971 461.375C388.424 462.538 378.737 464.184 370.344 466.235C351.014 449.144 336.707 428.804 327.267 406.876C335.531 405.603 344.128 404.472 353.006 403.493C363.199 402.37 373.677 401.457 384.347 400.76C388.484 417.705 394.38 434.336 402.042 450.378L406.926 460.604C404.238 460.83 401.584 461.087 398.971 461.375ZM411.868 464.444L432.065 506.732L432.065 463.632C425.231 463.711 418.46 463.984 411.868 464.444ZM404.573 449.169L409.921 460.366C417.134 459.827 424.564 459.51 432.065 459.424V399.099C416.922 399.177 401.883 399.675 387.191 400.579C391.276 417.172 397.068 433.456 404.573 449.169ZM379.87 342.984C380.077 360.91 382.187 378.827 386.206 396.425C401.218 395.486 416.589 394.97 432.065 394.891L432.767 394.888L432.767 342.984H379.87ZM377.048 340.179C377.039 320.714 379.248 301.259 383.669 282.202C375.068 281.587 366.608 280.822 358.346 279.911C346.838 278.642 335.817 277.1 325.407 275.308C317.294 295.981 313.245 318.069 313.391 340.179H377.048ZM377.065 342.984C377.271 360.969 379.37 378.946 383.37 396.607C372.882 397.303 362.577 398.205 352.545 399.311C343.248 400.336 334.248 401.527 325.605 402.876C317.918 383.67 313.894 363.343 313.432 342.984H377.065ZM379.853 340.179H432.767L432.767 284.063C417.131 283.978 401.61 283.418 386.503 282.399C382.063 301.387 379.844 320.778 379.853 340.179ZM371.025 217.173C369.013 216.636 367.097 216.075 365.284 215.493C348.517 231.63 335.722 250.711 327.032 271.317C337.078 273.027 347.708 274.505 358.807 275.729C367.238 276.658 375.878 277.435 384.667 278.055C389.385 259.15 396.293 240.668 405.382 222.993C404.005 222.86 402.638 222.719 401.283 222.569C389.967 221.318 379.685 219.484 371.025 217.173ZM372.11 213.107C370.978 212.805 369.883 212.497 368.825 212.183C382.97 199.34 399.758 188.529 419.118 180.521L421.931 179.358C424.115 179.219 426.304 179.11 428.495 179.032L407.489 218.963C405.553 218.788 403.637 218.596 401.745 218.387C390.586 217.153 380.52 215.352 372.11 213.107ZM432.767 178.918C432.416 178.924 432.065 178.931 431.714 178.939L410.523 219.221C417.741 219.799 425.213 220.139 432.767 220.231L432.767 178.918ZM432.767 224.439C424.48 224.339 416.285 223.945 408.398 223.267C399.229 240.902 392.264 259.36 387.51 278.249C402.291 279.231 417.471 279.772 432.767 279.856L432.767 224.439Z" fill="#55BC85"/>
</g>
<mask id="mask4" mask-type="alpha" maskUnits="userSpaceOnUse" x="345" y="352" width="114" height="169">
<path d="M458.272 520.412C416.598 520.412 376.406 504.949 345.476 477.017L458.272 352.1L458.272 520.412Z" fill="#130947"/>
</mask>
<g mask="url(#mask4)">
<path fill-rule="evenodd" clip-rule="evenodd" d="M458.272 183.79C457.89 183.791 457.508 183.791 457.126 183.793C435.414 183.941 413.933 188.289 393.867 196.601C392.012 197.369 390.172 198.17 388.349 199.003C403.547 194.133 419.368 190.849 435.461 189.211C417.352 197.334 401.566 207.926 388.166 220.329C382.805 218.556 378.57 216.637 375.527 214.676C371.187 211.879 370.356 209.742 370.356 208.685C370.356 208.65 370.357 208.614 370.358 208.577C369.077 209.362 367.806 210.164 366.546 210.983C367.408 213.465 369.662 215.902 373.248 218.213C376.227 220.133 380.089 221.941 384.732 223.598C368.035 239.945 355.292 259.192 346.634 279.942C335.335 277.949 324.804 275.658 315.21 273.104C313.567 272.666 311.955 272.222 310.376 271.772C309.693 273.031 309.025 274.298 308.373 275.575C310.249 276.116 312.168 276.648 314.128 277.17C323.6 279.692 333.953 281.955 345.027 283.931C336.926 304.777 332.882 327.026 333.026 349.296H289.995C289.98 350.23 289.972 351.165 289.972 352.1C289.972 352.101 289.972 352.101 289.972 352.101H333.067C333.523 372.605 337.535 393.078 345.201 412.444C330.521 414.814 316.909 417.641 304.662 420.872C305.244 422.173 305.843 423.466 306.458 424.751C318.639 421.567 332.199 418.779 346.843 416.442C352.333 429.347 359.477 441.719 368.305 453.23L370.216 451.103C361.83 440.095 355.003 428.294 349.707 415.993C357.971 414.72 366.568 413.589 375.447 412.61C385.639 411.487 396.117 410.574 406.788 409.877C406.821 410.014 406.855 410.151 406.889 410.288L411.299 405.38C410.413 405.433 409.529 405.486 408.646 405.542C404.628 387.944 402.518 370.027 402.311 352.101H455.207L455.207 356.512L458.272 353.1L458.272 352.1L458.272 183.79ZM405.559 511.943C410.675 512.847 416.136 513.622 421.873 514.255C429.745 515.123 438.008 515.708 446.441 515.996L411.786 493.337C405.217 489.043 399.069 484.434 393.339 479.549C392.502 479.756 391.679 479.968 390.871 480.183C382.018 482.539 375.31 485.262 370.934 488.075C367.996 489.962 366.565 491.579 365.92 492.808C374.729 498.591 384.084 503.548 393.867 507.6C397.715 509.194 401.615 510.643 405.559 511.943ZM362.416 490.445C363.608 488.421 365.7 486.436 368.659 484.535C373.507 481.419 380.591 478.585 389.511 476.191C381.598 469.042 374.533 461.35 368.305 453.23L346.283 477.741C351.403 482.305 356.791 486.547 362.416 490.445ZM455.207 356.512L455.207 404.004L454.506 404.008C439.94 404.082 425.467 404.544 411.299 405.38L455.207 356.512ZM406.889 410.288L370.216 451.103C376.78 459.719 384.298 467.849 392.785 475.352C401.177 473.301 410.865 471.655 421.412 470.492C424.024 470.204 426.678 469.946 429.366 469.721L424.482 459.495C416.883 443.583 411.02 427.092 406.889 410.288ZM413.321 490.99C407.454 487.154 401.929 483.063 396.741 478.746C404.223 477.064 412.696 475.686 421.873 474.674C424.962 474.334 428.111 474.037 431.307 473.784L451.422 515.901L413.321 490.99ZM434.309 473.561L454.506 515.849L454.506 472.749C447.672 472.828 440.901 473.101 434.309 473.561ZM427.013 458.286L432.361 469.483C439.574 468.944 447.005 468.627 454.506 468.541V408.216C439.362 408.294 424.324 408.792 409.632 409.696C413.716 426.289 419.509 442.573 427.013 458.286ZM399.489 349.296C399.48 329.831 401.689 310.376 406.109 291.319C397.508 290.704 389.049 289.939 380.786 289.028C369.279 287.759 358.257 286.217 347.848 284.425C339.735 305.097 335.686 327.186 335.832 349.296H399.489ZM399.506 352.101C399.711 370.086 401.811 388.063 405.811 405.724C395.322 406.42 385.018 407.322 374.986 408.428C365.688 409.452 356.689 410.644 348.046 411.992C340.358 392.787 336.334 372.46 335.873 352.101H399.506ZM402.294 349.296H455.207L455.207 293.18C439.571 293.095 424.05 292.535 408.943 291.516C404.504 310.504 402.285 329.895 402.294 349.296ZM393.465 226.29C391.453 225.752 389.538 225.192 387.724 224.61C370.957 240.747 358.162 259.828 349.472 280.434C359.519 282.144 370.148 283.622 381.247 284.845C389.679 285.775 398.319 286.552 407.107 287.171C411.826 268.266 418.733 249.784 427.822 232.11C426.445 231.977 425.078 231.836 423.723 231.686C412.407 230.435 402.126 228.601 393.465 226.29ZM394.55 222.224C393.418 221.922 392.323 221.613 391.266 221.3C405.41 208.457 422.199 197.645 441.559 189.638L444.371 188.475C446.556 188.336 448.744 188.227 450.936 188.149L429.93 228.08C427.994 227.905 426.078 227.713 424.185 227.504C413.027 226.27 402.961 224.469 394.55 222.224ZM455.207 188.034C454.856 188.041 454.505 188.048 454.154 188.055L432.963 228.338C440.182 228.916 447.653 229.256 455.207 229.348L455.207 188.034ZM455.207 233.556C446.92 233.456 438.725 233.062 430.838 232.384C421.67 250.019 414.705 268.477 409.951 287.366C424.732 288.348 439.912 288.889 455.207 288.972L455.207 233.556Z" fill="#55BC85"/>
</g>
<path d="M221.19 613.712V593.168H232.902C234.63 593.168 236.294 593.296 237.894 593.552C239.494 593.808 240.902 594.32 242.118 595.088C243.334 595.792 244.294 596.816 244.998 598.16C245.766 599.504 246.15 601.264 246.15 603.44C246.15 605.616 245.766 607.376 244.998 608.72C244.294 610.064 243.334 611.12 242.118 611.888C240.902 612.592 239.494 613.072 237.894 613.328C236.294 613.584 234.63 613.712 232.902 613.712H221.19ZM206.118 581.456V650H221.19V625.424H237.03C241.318 625.424 244.966 624.816 247.974 623.6C250.982 622.32 253.414 620.656 255.27 618.608C257.19 616.56 258.566 614.224 259.398 611.6C260.294 608.912 260.742 606.192 260.742 603.44C260.742 600.624 260.294 597.904 259.398 595.28C258.566 592.656 257.19 590.32 255.27 588.272C253.414 586.224 250.982 584.592 247.974 583.376C244.966 582.096 241.318 581.456 237.03 581.456H206.118ZM292.421 612.464V593.168H308.933C312.389 593.168 314.981 593.936 316.709 595.472C318.437 596.944 319.301 599.344 319.301 602.672C319.301 606.128 318.437 608.624 316.709 610.16C314.981 611.696 312.389 612.464 308.933 612.464H292.421ZM277.349 581.456V650H292.421V623.216H307.493C311.269 623.216 313.989 624.048 315.653 625.712C317.317 627.376 318.405 630 318.917 633.584C319.301 636.336 319.589 639.216 319.781 642.224C319.973 645.232 320.485 647.824 321.317 650H336.389C335.685 649.04 335.141 647.888 334.757 646.544C334.437 645.136 334.181 643.664 333.989 642.128C333.861 640.592 333.765 639.088 333.701 637.616C333.637 636.144 333.573 634.864 333.509 633.776C333.381 632.048 333.125 630.32 332.741 628.592C332.421 626.864 331.877 625.296 331.109 623.888C330.341 622.416 329.349 621.168 328.133 620.144C326.917 619.056 325.381 618.256 323.525 617.744V617.552C327.365 616.016 330.117 613.776 331.781 610.832C333.509 607.888 334.373 604.4 334.373 600.368C334.373 597.744 333.893 595.312 332.933 593.072C332.037 590.768 330.693 588.752 328.901 587.024C327.173 585.296 325.061 583.952 322.565 582.992C320.133 581.968 317.381 581.456 314.309 581.456H277.349ZM365.926 616.016C365.926 613.008 366.246 610.096 366.886 607.28C367.59 604.464 368.678 601.968 370.15 599.792C371.622 597.552 373.542 595.792 375.91 594.512C378.278 593.168 381.158 592.496 384.55 592.496C387.942 592.496 390.822 593.168 393.19 594.512C395.558 595.792 397.478 597.552 398.95 599.792C400.422 601.968 401.478 604.464 402.118 607.28C402.822 610.096 403.174 613.008 403.174 616.016C403.174 618.896 402.822 621.712 402.118 624.464C401.478 627.152 400.422 629.584 398.95 631.76C397.478 633.936 395.558 635.696 393.19 637.04C390.822 638.32 387.942 638.96 384.55 638.96C381.158 638.96 378.278 638.32 375.91 637.04C373.542 635.696 371.622 633.936 370.15 631.76C368.678 629.584 367.59 627.152 366.886 624.464C366.246 621.712 365.926 618.896 365.926 616.016ZM350.854 616.016C350.854 621.008 351.622 625.68 353.158 630.032C354.694 634.32 356.902 638.064 359.782 641.264C362.662 644.464 366.182 646.992 370.342 648.848C374.566 650.64 379.302 651.536 384.55 651.536C389.862 651.536 394.598 650.64 398.758 648.848C402.918 646.992 406.438 644.464 409.318 641.264C412.198 638.064 414.406 634.32 415.942 630.032C417.478 625.68 418.246 621.008 418.246 616.016C418.246 610.896 417.478 606.16 415.942 601.808C414.406 597.392 412.198 593.552 409.318 590.288C406.438 587.024 402.918 584.464 398.758 582.608C394.598 580.752 389.862 579.824 384.55 579.824C379.302 579.824 374.566 580.752 370.342 582.608C366.182 584.464 362.662 587.024 359.782 590.288C356.902 593.552 354.694 597.392 353.158 601.808C351.622 606.16 350.854 610.896 350.854 616.016ZM450.917 594.128V650H465.989V594.128H486.533V581.456H430.373V594.128H450.917ZM501.636 581.456V650H553.668V637.328H516.708V620.528H549.924V608.816H516.708V594.128H552.9V581.456H501.636ZM616.782 604.496H631.374C630.926 600.528 629.838 597.008 628.11 593.936C626.382 590.864 624.174 588.304 621.486 586.256C618.862 584.144 615.854 582.544 612.462 581.456C609.134 580.368 605.582 579.824 601.806 579.824C596.558 579.824 591.822 580.752 587.598 582.608C583.438 584.464 579.918 587.024 577.038 590.288C574.158 593.552 571.95 597.392 570.414 601.808C568.878 606.16 568.11 610.896 568.11 616.016C568.11 621.008 568.878 625.68 570.414 630.032C571.95 634.32 574.158 638.064 577.038 641.264C579.918 644.464 583.438 646.992 587.598 648.848C591.822 650.64 596.558 651.536 601.806 651.536C606.03 651.536 609.902 650.896 613.422 649.616C616.942 648.336 620.014 646.48 622.638 644.048C625.262 641.616 627.374 638.672 628.974 635.216C630.574 631.76 631.566 627.888 631.95 623.6H617.358C616.782 628.208 615.182 631.92 612.558 634.736C609.998 637.552 606.414 638.96 601.806 638.96C598.414 638.96 595.534 638.32 593.166 637.04C590.798 635.696 588.878 633.936 587.406 631.76C585.934 629.584 584.846 627.152 584.142 624.464C583.502 621.712 583.182 618.896 583.182 616.016C583.182 613.008 583.502 610.096 584.142 607.28C584.846 604.464 585.934 601.968 587.406 599.792C588.878 597.552 590.798 595.792 593.166 594.512C595.534 593.168 598.414 592.496 601.806 592.496C603.662 592.496 605.422 592.816 607.086 593.456C608.814 594.032 610.35 594.864 611.694 595.952C613.038 597.04 614.158 598.32 615.054 599.792C615.95 601.2 616.526 602.768 616.782 604.496ZM664.611 594.128V650H679.683V594.128H700.227V581.456H644.067V594.128H664.611ZM244.405 698.456V767H258.517V721.112H258.709L287.221 767H302.293V698.456H288.181V744.44H287.989L259.381 698.456H244.405ZM340.041 740.504L348.969 715.352H349.161L357.801 740.504H340.041ZM341.481 698.456L315.561 767H330.729L336.105 751.736H361.737L366.922 767H382.569L356.937 698.456H341.481ZM402.036 711.128V767H417.108V711.128H437.652V698.456H381.492V711.128H402.036ZM510.931 741.08V698.456H495.859V741.08C495.859 746.2 494.835 749.976 492.787 752.408C490.739 754.776 487.027 755.96 481.651 755.96C478.579 755.96 476.115 755.544 474.259 754.712C472.467 753.816 471.059 752.696 470.035 751.352C469.011 749.944 468.339 748.344 468.019 746.552C467.699 744.76 467.539 742.936 467.539 741.08V698.456H452.467V741.08C452.467 750.424 454.995 757.336 460.051 761.816C465.171 766.296 472.371 768.536 481.651 768.536C490.803 768.536 497.971 766.296 503.155 761.816C508.339 757.272 510.931 750.36 510.931 741.08ZM546.183 729.464V710.168H562.695C566.151 710.168 568.743 710.936 570.471 712.472C572.199 713.944 573.063 716.344 573.063 719.672C573.063 723.128 572.199 725.624 570.471 727.16C568.743 728.696 566.151 729.464 562.695 729.464H546.183ZM531.111 698.456V767H546.183V740.216H561.255C565.031 740.216 567.751 741.048 569.415 742.712C571.079 744.376 572.167 747 572.679 750.584C573.063 753.336 573.351 756.216 573.543 759.224C573.735 762.232 574.247 764.824 575.079 767H590.151C589.447 766.04 588.903 764.888 588.519 763.544C588.199 762.136 587.943 760.664 587.751 759.128C587.623 757.592 587.527 756.088 587.463 754.616C587.399 753.144 587.335 751.864 587.271 750.776C587.143 749.048 586.887 747.32 586.503 745.592C586.183 743.864 585.639 742.296 584.871 740.888C584.103 739.416 583.111 738.168 581.895 737.144C580.679 736.056 579.143 735.256 577.287 734.744V734.552C581.127 733.016 583.879 730.776 585.543 727.832C587.271 724.888 588.135 721.4 588.135 717.368C588.135 714.744 587.655 712.312 586.695 710.072C585.799 707.768 584.455 705.752 582.663 704.024C580.935 702.296 578.823 700.952 576.327 699.992C573.895 698.968 571.143 698.456 568.071 698.456H531.111ZM607.593 698.456V767H659.625V754.328H622.665V737.528H655.881V725.816H622.665V711.128H658.857V698.456H607.593Z" fill="black"/>
</svg>
