<svg width="1927" height="432" viewBox="0 0 1927 432" fill="none" xmlns="http://www.w3.org/2000/svg">
<path fill-rule="evenodd" clip-rule="evenodd" d="M280.731 62.5449C278.663 62.4273 276.591 62.3371 274.517 62.2742C280.469 74.3432 285.718 86.6664 290.263 99.1841C294.4 98.8994 298.463 98.5372 302.421 98.0996C310.755 97.1781 318.459 95.9399 325.297 94.4409C312.645 81.9913 297.771 71.1659 280.731 62.5449ZM267.389 57.0557L267.389 57.0557L267.389 135.76L267.389 110.867V105.958H267.389V99.9584L267.389 81.0623V62.1662L267.389 57.0557ZM286.099 99.4431C282.34 89.1944 278.103 79.0788 273.389 69.1301L273.389 99.9059C277.668 99.831 281.915 99.6761 286.099 99.4431ZM273.389 105.907C278.381 105.821 283.334 105.628 288.201 105.331C294.278 122.832 298.974 140.699 302.284 158.768C292.753 159.209 283.097 159.469 273.389 159.545V110.867V105.907ZM273.389 165.545C283.446 165.467 293.451 165.193 303.324 164.726C306.386 183.177 308.009 201.819 308.19 220.478H273.389V165.545ZM267.389 220.478V165.569H267.389L267.389 220.478H267.389ZM267.389 224.478L267.389 364.308L267.389 346.893V340.893L267.389 334.582V282.374V276.374L267.389 231.14V224.478H267.389ZM273.389 224.478H308.206C308.182 242.099 306.87 259.725 304.268 277.207C294.078 276.743 283.759 276.472 273.389 276.396L273.389 231.14V224.478ZM312.206 224.478C312.182 242.163 310.876 259.852 308.283 277.4C322.925 278.141 337.28 279.28 351.116 280.805C356.754 281.426 362.282 282.109 367.687 282.85C374.436 264.001 377.891 244.24 378.138 224.478H312.206ZM382.139 224.478C381.896 244.424 378.456 264.37 371.736 283.42C389.777 286.025 406.383 289.296 421.046 293.145C421.676 291.735 422.287 290.316 422.878 288.888C431.336 268.467 435.689 246.581 435.689 224.478L382.139 224.478ZM435.642 220.478H382.145C381.949 199.267 378.142 178.125 370.827 158.131C386.073 155.766 400.145 152.883 412.676 149.547C414.29 149.117 415.876 148.681 417.433 148.238C419.397 152.103 421.214 156.049 422.878 160.068C430.825 179.256 435.149 199.738 435.642 220.478ZM378.144 220.478H312.19C312.011 201.753 310.394 183.045 307.345 164.525C320.558 163.827 333.513 162.784 346.017 161.405C353.136 160.62 360.069 159.73 366.786 158.742C374.126 178.52 377.947 199.464 378.144 220.478ZM273.389 282.396C283.444 282.47 293.448 282.729 303.329 283.171C300.056 302.893 295.132 322.41 288.554 341.513C284.224 341.256 279.83 341.079 275.402 340.981C274.732 340.967 274.06 340.954 273.389 340.943L273.389 334.582V282.396ZM350.459 286.769C336.547 285.236 322.098 284.095 307.352 283.361C304.101 303.104 299.215 322.648 292.69 341.783C296.765 342.074 300.775 342.437 304.69 342.869C305.43 342.95 306.164 343.034 306.895 343.12C314.363 344.002 321.375 345.128 327.77 346.471C344.615 329.324 357.154 309.604 365.51 288.61C360.595 287.947 355.574 287.332 350.459 286.769ZM275.363 346.982C279.097 347.065 282.805 347.206 286.468 347.404C282.62 357.977 278.261 368.414 273.389 378.679L273.389 366.841V346.943C274.047 346.954 274.705 346.967 275.363 346.982ZM300.35 385.233C294.243 385.829 287.925 386.257 281.495 386.512L299.35 374.838C309.67 368.09 319.003 360.604 327.36 352.518C329.949 353.075 332.423 353.667 334.77 354.292C335.318 354.437 335.857 354.585 336.387 354.733C344.342 356.959 350.305 359.456 354.199 361.959C354.373 362.071 354.539 362.18 354.7 362.289C357.112 363.912 358.132 365.171 358.559 365.955C350.096 371.409 341.141 376.106 331.794 379.978C331.458 380.117 331.122 380.255 330.785 380.392C322.951 382.247 313.914 383.761 304.033 384.85C302.814 384.985 301.586 385.112 300.35 385.233ZM297.161 371.49C306.444 365.42 314.91 358.74 322.569 351.554C317.467 350.593 311.984 349.763 306.195 349.079C305.479 348.995 304.758 348.912 304.033 348.832C299.675 348.352 295.195 347.959 290.631 347.655C286.543 359.004 281.872 370.2 276.619 381.2L274.035 386.611L297.161 371.49ZM336.313 348.493C335.027 348.151 333.706 347.818 332.352 347.496C348.96 330.127 361.335 310.269 369.595 289.175C387.507 291.719 403.959 294.918 418.456 298.67C410.315 315.249 399.489 330.397 386.395 343.492C379.345 350.543 371.699 356.936 363.556 362.606C362.42 360.779 360.55 358.985 357.969 357.256C357.797 357.141 357.621 357.026 357.443 356.912C352.851 353.96 346.253 351.262 337.988 348.951C337.437 348.796 336.879 348.644 336.313 348.493ZM411.132 143.749C398.484 147.116 384.185 150.026 368.621 152.4C360.694 132.79 349.322 114.413 334.604 98.322C342.67 96.0839 349.099 93.4615 353.556 90.5896C356.854 88.4642 359.026 86.2314 360.023 83.9556C369.495 90.2005 378.334 97.4022 386.395 105.464C397.496 116.565 406.966 129.142 414.553 142.816C413.429 143.13 412.289 143.441 411.132 143.749ZM303.08 104.063C313.059 102.96 322.233 101.404 330.201 99.4658C345.067 115.324 356.548 133.533 364.545 153.005C358.332 153.903 351.93 154.717 345.36 155.441C332.747 156.832 319.664 157.879 306.314 158.57C303.027 140.478 298.366 122.585 292.337 105.051C295.982 104.781 299.57 104.451 303.08 104.063ZM331.791 92.8695C331.166 93.0362 330.532 93.2005 329.889 93.3623C318.583 81.9198 305.483 71.7663 290.628 63.3178C308.955 65.1405 326.927 69.1136 344.022 75.1436C345.08 75.5168 346.134 75.8976 347.183 76.2859C349.641 77.6098 352.066 78.9942 354.453 80.4376C354.637 80.809 354.655 81.0239 354.655 81.0623C354.655 81.1763 354.497 82.8453 350.306 85.5462C346.363 88.0867 340.167 90.6334 331.791 92.8695Z" fill="#55BC85"/>
<mask id="mask0" mask-type="alpha" maskUnits="userSpaceOnUse" x="210" y="21" width="45" height="170">
<path d="M210.489 27.7308C224.945 23.7884 239.863 21.7943 254.847 21.8014L254.767 190.113L210.489 27.7308Z" fill="#130947"/>
</mask>
<g mask="url(#mask0)">
<path fill-rule="evenodd" clip-rule="evenodd" d="M86.4893 187.309H129.521C129.376 165.039 133.42 142.79 141.521 121.944C130.447 119.968 120.094 117.705 110.622 115.183C108.662 114.661 106.743 114.13 104.868 113.588C102.848 117.545 100.982 121.586 99.2771 125.703C91.1771 145.26 86.8418 166.161 86.4893 187.309ZM106.87 109.785C108.449 110.235 110.061 110.68 111.704 111.117C121.299 113.671 131.829 115.962 143.128 117.956C151.786 97.2052 164.529 77.9579 181.226 61.6113C176.583 59.9545 172.721 58.1459 169.742 56.2257C166.157 53.9152 163.902 51.4779 163.04 48.9964C153.225 55.3774 144.078 62.7805 135.76 71.0991C124.299 82.5605 114.576 95.5951 106.87 109.785ZM184.843 37.0158C178.649 39.8452 172.642 43.0435 166.853 46.5901C166.851 46.6274 166.85 46.6635 166.85 46.6984C166.85 47.7548 167.682 49.8923 172.021 52.6887C175.064 54.6498 179.299 56.5692 184.661 58.342C198.06 45.9389 213.846 35.3472 231.956 27.2245C215.862 28.8623 200.041 32.1465 184.843 37.0158ZM253.618 21.8057C254.001 21.8045 254.384 21.8037 254.767 21.8031L254.767 21.8018C254.384 21.8018 254.001 21.8031 253.618 21.8057ZM86.466 190.114C86.4661 212.217 90.8193 234.103 99.2771 254.523C99.8832 255.987 100.51 257.441 101.156 258.885C113.403 255.654 127.015 252.827 141.695 250.457C134.029 231.091 130.018 210.618 129.561 190.114H86.466ZM102.952 262.764C115.133 259.58 128.693 256.792 143.337 254.455C152.701 276.463 166.873 296.92 186.005 314.204C177.085 316.598 170.002 319.432 165.153 322.548C162.194 324.449 160.103 326.434 158.91 328.458C150.65 322.734 142.9 316.268 135.76 309.128C122.261 295.628 111.173 279.946 102.952 262.764ZM162.414 330.821C163.059 329.592 164.49 327.976 167.428 326.088C171.805 323.275 178.512 320.552 187.365 318.196C188.173 317.981 188.996 317.769 189.833 317.562C195.563 322.447 201.711 327.056 208.28 331.351L242.935 354.009C234.503 353.721 226.239 353.136 218.367 352.268C212.631 351.635 207.169 350.86 202.053 349.956C198.109 348.656 194.209 347.207 190.361 345.613C180.578 341.561 171.223 336.604 162.414 330.821ZM236.81 357.464C241.327 357.819 245.892 358 250.5 358C251.926 358 253.348 357.982 254.767 357.948L254.767 358.425C248.757 358.425 242.763 358.103 236.81 357.464ZM209.815 329.003C203.948 325.167 198.423 321.076 193.236 316.759C200.717 315.077 209.19 313.699 218.367 312.687C221.456 312.347 224.605 312.05 227.801 311.797L247.916 353.914L209.815 329.003ZM217.906 308.505C207.359 309.668 197.672 311.314 189.279 313.365C169.949 296.274 155.641 275.934 146.201 254.006C154.465 252.733 163.063 251.602 171.941 250.623C182.133 249.5 192.611 248.587 203.282 247.89C207.418 264.835 213.315 281.466 220.976 297.508L225.86 307.734C223.172 307.959 220.518 308.217 217.906 308.505ZM230.803 311.574L251 353.862L251 310.762C244.166 310.841 237.395 311.114 230.803 311.574ZM223.508 296.299L228.855 307.496C236.068 306.957 243.499 306.64 251 306.554V246.229C235.857 246.307 220.818 246.805 206.126 247.709C210.211 264.302 216.003 280.586 223.508 296.299ZM198.805 190.114C199.012 208.04 201.122 225.957 205.14 243.555C220.152 242.616 235.524 242.1 251 242.021L251.701 242.018L251.701 190.114H198.805ZM195.983 187.309C195.974 167.844 198.183 148.389 202.603 129.332C194.003 128.717 185.543 127.952 177.28 127.041C165.773 125.772 154.751 124.23 144.342 122.438C136.229 143.111 132.18 165.199 132.326 187.309H195.983ZM196 190.114C196.205 208.099 198.305 226.076 202.305 243.737C191.816 244.433 181.512 245.335 171.48 246.441C162.183 247.465 153.183 248.657 144.54 250.005C136.852 230.8 132.829 210.473 132.367 190.114H196ZM198.788 187.309H251.701L251.701 131.193C236.065 131.108 220.544 130.548 205.437 129.529C200.998 148.517 198.779 167.908 198.788 187.309ZM189.959 64.3026C187.947 63.7655 186.032 63.2051 184.218 62.6232C167.452 78.7599 154.657 97.8414 145.966 118.447C156.013 120.157 166.643 121.635 177.741 122.859C186.173 123.788 194.813 124.565 203.602 125.184C208.32 106.279 215.228 87.7975 224.317 70.1227C222.939 69.9904 221.572 69.8492 220.217 69.6994C208.902 68.4482 198.62 66.6144 189.959 64.3026ZM191.044 60.2371C189.912 59.935 188.817 59.6266 187.76 59.3126C201.904 46.4704 218.693 35.6586 238.053 27.6513L240.865 26.488C243.05 26.349 245.238 26.2402 247.43 26.1618L226.424 66.093C224.488 65.9183 222.572 65.7263 220.68 65.5171C209.521 64.2833 199.455 62.4821 191.044 60.2371ZM251.701 26.0474C251.35 26.0536 250.999 26.0607 250.648 26.0684L229.458 66.3512C236.676 66.929 244.147 67.2689 251.701 67.361L251.701 26.0474ZM251.701 71.5691C243.414 71.4693 235.219 71.0747 227.332 70.3971C218.164 88.0323 211.199 106.49 206.445 125.379C221.226 126.361 236.406 126.902 251.701 126.986L251.701 71.5691Z" fill="#55BC85"/>
</g>
<mask id="mask1" mask-type="alpha" maskUnits="userSpaceOnUse" x="85" y="7" width="143" height="162">
<path d="M85.8623 77.3326C107.599 43.5308 140.712 18.6228 179.214 7.11238L227.417 168.373L85.8623 77.3326Z" fill="#130947"/>
</mask>
<g mask="url(#mask1)">
<path fill-rule="evenodd" clip-rule="evenodd" d="M227.417 0.0615234C227.036 0.0615235 226.655 0.0628162 226.274 0.0654011C226.655 0.0642738 227.036 0.0634279 227.417 0.0628643L227.417 0.0615234ZM163.011 12.8735C183.078 4.5608 204.562 0.212797 226.274 0.0654011C226.272 0.0654084 226.27 0.0654158 226.267 0.0654231C204.557 0.213758 183.076 4.56171 163.011 12.8735ZM157.494 15.2755C172.692 10.4062 188.512 7.12199 204.606 5.48423C186.496 13.607 170.71 24.1986 157.311 36.6017C151.949 34.829 147.714 32.9095 144.671 30.9484C140.332 28.152 139.5 26.0145 139.5 24.9581C139.5 24.9232 139.501 24.8872 139.503 24.8499C145.292 21.3033 151.3 18.1049 157.494 15.2755ZM135.691 27.2561C136.553 29.7376 138.807 32.175 142.392 34.4855C145.372 36.4056 149.233 38.2142 153.877 39.8711C137.18 56.2176 124.437 75.465 115.779 96.2153C104.48 94.2216 93.949 91.9311 84.3546 89.3768C82.7112 88.9393 81.0998 88.4952 79.5207 88.0449C87.2269 73.8549 96.9499 60.8203 108.411 49.3588C116.729 41.0403 125.875 33.6371 135.691 27.2561ZM77.5179 91.8478C79.3938 92.3893 81.3122 92.9212 83.2722 93.443C92.7446 95.9648 103.097 98.2278 114.172 100.204C106.07 121.05 102.027 143.298 102.171 165.569H59.1398C59.4922 144.421 63.8275 123.519 71.9275 103.963C72.0341 103.706 72.1413 103.449 72.2491 103.192C73.8666 99.3411 75.6245 95.5573 77.5179 91.8478ZM135.064 309.081C135.71 307.852 137.141 306.235 140.078 304.347C144.455 301.535 151.163 298.812 160.016 296.456C160.824 296.24 161.646 296.029 162.483 295.822C168.214 300.706 174.362 305.316 180.93 309.61L215.586 332.269C207.153 331.98 198.89 331.396 191.017 330.528C185.281 329.895 179.82 329.12 174.704 328.216C170.76 326.915 166.859 325.467 163.011 323.873C153.228 319.82 143.874 314.864 135.064 309.081ZM131.561 306.718C132.753 304.693 134.845 302.709 137.804 300.807C142.652 297.692 149.735 294.858 158.656 292.464C139.523 275.179 125.351 254.723 115.987 232.715C101.343 235.051 87.7834 237.84 75.6022 241.023C83.8235 258.206 94.9116 273.888 108.41 287.388C115.55 294.528 123.301 300.994 131.561 306.718ZM68.9487 225.059C62.4494 206.888 59.1165 187.714 59.1164 168.374H102.211C102.668 188.878 106.679 209.351 114.346 228.717C99.6658 231.087 86.0534 233.914 73.8064 237.145C73.16 235.701 72.5336 234.247 71.9275 232.783C70.8703 230.231 69.8772 227.655 68.9487 225.059ZM182.465 307.262C176.599 303.427 171.073 299.336 165.886 295.019C173.367 293.337 181.84 291.959 191.017 290.947C194.106 290.606 197.255 290.309 200.451 290.057L220.567 332.174L182.465 307.262ZM190.556 286.764C180.009 287.927 170.322 289.573 161.929 291.625C142.599 274.534 128.292 254.193 118.851 232.266C127.116 230.992 135.713 229.861 144.591 228.883C154.784 227.76 165.262 226.847 175.932 226.15C180.069 243.095 185.965 259.726 193.627 275.768L198.511 285.993C195.823 286.219 193.169 286.476 190.556 286.764ZM203.453 289.834L223.65 332.122L223.65 289.022C216.816 289.101 210.045 289.374 203.453 289.834ZM196.158 274.559L201.506 285.756C208.719 285.216 216.149 284.9 223.65 284.814V224.488C208.507 224.566 193.468 225.064 178.776 225.969C182.861 242.561 188.653 258.846 196.158 274.559ZM171.455 168.374C171.662 186.3 173.772 204.217 177.791 221.814C192.802 220.876 208.174 220.36 223.65 220.281L224.352 220.277L224.352 168.374H171.455ZM168.633 165.569C168.624 146.104 170.833 126.648 175.254 107.592C166.653 106.977 158.193 106.212 149.93 105.301C138.423 104.032 127.402 102.49 116.992 100.698C108.879 121.37 104.83 143.459 104.976 165.569H168.633ZM168.65 168.374C168.856 186.359 170.955 204.336 174.955 221.997C164.467 222.692 154.162 223.595 144.13 224.701C134.833 225.725 125.833 226.917 117.19 228.265C109.503 209.059 105.479 188.733 105.017 168.374H168.65ZM171.438 165.569H224.352L224.352 109.453C208.715 109.368 193.195 108.808 178.088 107.789C173.648 126.776 171.429 146.168 171.438 165.569ZM162.61 42.5623C160.598 42.0252 158.682 41.4648 156.869 40.883C140.102 57.0196 127.307 76.1011 118.617 96.7071C128.663 98.4165 139.293 99.8944 150.392 101.118C158.823 102.048 167.463 102.824 176.252 103.444C180.97 84.5392 187.878 66.0572 196.967 48.3825C195.59 48.2501 194.223 48.109 192.868 47.9591C181.552 46.708 171.27 44.8741 162.61 42.5623ZM163.695 38.4969C162.563 38.1947 161.468 37.8863 160.41 37.5724C174.555 24.7301 191.343 13.9183 210.703 5.91108L213.516 4.74776C215.7 4.60875 217.889 4.49995 220.08 4.4215L199.074 44.3528C197.138 44.1781 195.222 43.986 193.33 43.7768C182.171 42.543 172.105 40.7419 163.695 38.4969ZM224.352 4.30715C224.001 4.31338 223.65 4.32039 223.299 4.32818L202.108 44.6109C209.326 45.1887 216.798 45.5286 224.352 45.6208L224.352 4.30715ZM224.352 49.8289C216.065 49.729 207.87 49.3345 199.983 48.6568C190.814 66.2921 183.849 84.7501 179.095 103.639C193.876 104.621 209.056 105.161 224.352 105.245L224.352 49.8289Z" fill="#55BC85"/>
</g>
<mask id="mask2" mask-type="alpha" maskUnits="userSpaceOnUse" x="55" y="106" width="168" height="92">
<path d="M55.6896 175.539C58.9758 150.94 67.6612 127.371 81.1236 106.522L222.508 197.827L55.6896 175.539Z" fill="#130947"/>
</mask>
<g mask="url(#mask2)">
<path fill-rule="evenodd" clip-rule="evenodd" d="M222.508 29.5156C222.127 29.5156 221.746 29.5169 221.365 29.5195C221.746 29.5184 222.127 29.5175 222.508 29.517L222.508 29.5156ZM158.102 42.3276C178.169 34.0149 199.652 29.6669 221.365 29.5195C221.363 29.5195 221.36 29.5195 221.358 29.5195C199.647 29.6679 178.167 34.0158 158.102 42.3276ZM152.584 44.7296C167.783 39.8603 183.603 36.5761 199.697 34.9383C181.587 43.0611 165.801 53.6527 152.402 66.0558C147.04 64.2831 142.805 62.3636 139.762 60.4025C135.423 57.6061 134.591 55.4686 134.591 54.4122C134.591 54.3773 134.592 54.3413 134.594 54.304C140.383 50.7574 146.39 47.559 152.584 44.7296ZM130.782 56.7102C131.643 59.1917 133.898 61.6291 137.483 63.9396C140.463 65.8597 144.324 67.6683 148.967 69.3252C132.27 85.6717 119.527 104.919 110.869 125.669C99.5705 123.676 89.0398 121.385 79.4454 118.831C77.802 118.393 76.1906 117.949 74.6115 117.499C82.3177 103.309 92.0407 90.2744 103.501 78.8129C111.819 70.4944 120.966 63.0912 130.782 56.7102ZM72.6087 121.302C74.4846 121.843 76.403 122.375 78.363 122.897C87.8354 125.419 98.188 127.682 109.263 129.658C101.161 150.504 97.1176 172.753 97.2618 195.023H54.2306C54.583 173.875 58.9184 152.974 67.0184 133.417C67.1249 133.16 67.2321 132.903 67.34 132.646C68.9574 128.795 70.7153 125.011 72.6087 121.302ZM130.155 338.535C130.801 337.306 132.231 335.689 135.169 333.801C139.546 330.989 146.254 328.266 155.106 325.91C155.915 325.695 156.737 325.483 157.574 325.276C163.305 330.16 169.453 334.77 176.021 339.064L210.677 361.723C202.244 361.435 193.98 360.85 186.108 359.982C180.372 359.349 174.91 358.574 169.794 357.67C165.85 356.369 161.95 354.921 158.102 353.327C148.319 349.275 138.965 344.318 130.155 338.535ZM126.651 336.172C127.844 334.148 129.935 332.163 132.894 330.262C137.743 327.146 144.826 324.312 153.746 321.918C134.614 304.634 120.442 284.177 111.078 262.169C96.4343 264.505 82.8742 267.294 70.693 270.477C78.9143 287.66 90.0024 303.342 103.501 316.842C110.641 323.982 118.392 330.448 126.651 336.172ZM64.0395 254.513C57.5402 236.342 54.2073 217.168 54.2072 197.828H97.3021C97.7588 218.332 101.77 238.805 109.436 258.171C94.7566 260.541 81.1442 263.368 68.8972 266.599C68.2509 265.155 67.6245 263.701 67.0183 262.237C65.9611 259.685 64.968 257.109 64.0395 254.513ZM177.556 336.716C171.689 332.881 166.164 328.79 160.977 324.473C168.458 322.791 176.931 321.413 186.108 320.401C189.197 320.06 192.346 319.763 195.542 319.511L215.657 361.628L177.556 336.716ZM185.647 316.219C175.1 317.382 165.413 319.028 157.02 321.079C137.69 303.988 123.383 283.647 113.942 261.72C122.207 260.446 130.804 259.316 139.682 258.337C149.874 257.214 160.353 256.301 171.023 255.604C175.16 272.549 181.056 289.18 188.718 305.222L193.601 315.447C190.914 315.673 188.26 315.931 185.647 316.219ZM198.544 319.288L218.741 361.576L218.741 318.476C211.907 318.555 205.136 318.828 198.544 319.288ZM191.249 304.013L196.596 315.21C203.809 314.671 211.24 314.354 218.741 314.268V253.943C203.598 254.02 188.559 254.518 173.867 255.423C177.952 272.015 183.744 288.3 191.249 304.013ZM166.546 197.828C166.753 215.754 168.863 233.671 172.881 251.268C187.893 250.33 203.265 249.814 218.741 249.735L219.443 249.731L219.442 197.828H166.546ZM163.724 195.023C163.715 175.558 165.924 156.102 170.344 137.046C161.744 136.431 153.284 135.666 145.021 134.755C133.514 133.486 122.492 131.944 112.083 130.152C103.97 150.824 99.9209 172.913 100.067 195.023H163.724ZM163.741 197.828C163.946 215.813 166.046 233.79 170.046 251.451C159.557 252.146 149.253 253.049 139.221 254.155C129.924 255.179 120.924 256.371 112.281 257.719C104.593 238.514 100.57 218.187 100.108 197.828H163.741ZM166.529 195.023H219.442L219.443 138.907C203.806 138.822 188.286 138.262 173.179 137.243C168.739 156.231 166.52 175.622 166.529 195.023ZM157.701 72.0164C155.689 71.4793 153.773 70.9189 151.959 70.3371C135.193 86.4737 122.398 105.555 113.708 126.161C123.754 127.871 134.384 129.348 145.482 130.572C153.914 131.502 162.554 132.279 171.343 132.898C176.061 113.993 182.969 95.5113 192.058 77.8366C190.68 77.7042 189.314 77.5631 187.958 77.4132C176.643 76.1621 166.361 74.3282 157.701 72.0164ZM158.786 67.951C157.654 67.6488 156.559 67.3404 155.501 67.0265C169.646 54.1842 186.434 43.3724 205.794 35.3652L208.607 34.2019C210.791 34.0629 212.98 33.954 215.171 33.8756L194.165 73.8069C192.229 73.6322 190.313 73.4401 188.421 73.2309C177.262 71.9971 167.196 70.196 158.786 67.951ZM219.442 33.7613C219.091 33.7675 218.74 33.7745 218.389 33.7823L197.199 74.065C204.417 74.6428 211.888 74.9827 219.443 75.0749L219.442 33.7613ZM219.443 79.283C211.156 79.1831 202.961 78.7886 195.074 78.1109C185.905 95.7462 178.94 114.204 174.186 133.093C188.967 134.075 204.147 134.616 219.443 134.699L219.443 79.283Z" fill="#55BC85"/>
</g>
<mask id="mask3" mask-type="alpha" maskUnits="userSpaceOnUse" x="67" y="206" width="169" height="149">
<path d="M124.732 354.411C104.067 336.249 88.1694 313.298 78.4304 287.567C68.6914 261.836 65.4082 234.11 68.8681 206.815L235.832 227.983L124.732 354.411Z" fill="#130947"/>
</mask>
<g mask="url(#mask3)">
<path fill-rule="evenodd" clip-rule="evenodd" d="M235.832 59.6719C235.451 59.6719 235.07 59.6732 234.689 59.6758C235.07 59.6746 235.451 59.6738 235.832 59.6732L235.832 59.6719ZM171.426 72.4838C191.493 64.1711 212.977 59.8231 234.689 59.6758C234.687 59.6758 234.685 59.6758 234.682 59.6758C212.972 59.8241 191.491 64.1721 171.426 72.4838ZM165.909 74.8858C181.107 70.0165 196.927 66.7323 213.021 65.0946C194.911 73.2173 179.126 83.809 165.726 96.2121C160.365 94.4393 156.129 92.5199 153.086 90.5588C148.747 87.7624 147.915 85.6249 147.915 84.5685C147.915 84.5336 147.916 84.4975 147.918 84.4603C153.707 80.9136 159.715 77.7152 165.909 74.8858ZM144.106 86.8665C144.968 89.348 147.222 91.7853 150.807 94.0958C153.787 96.016 157.649 97.8246 162.292 99.4814C145.595 115.828 132.852 135.075 124.194 155.826C112.895 153.832 102.364 151.541 92.7696 148.987C91.1262 148.55 89.5148 148.106 87.9358 147.655C95.6419 133.465 105.365 120.431 116.826 108.969C125.144 100.651 134.29 93.2475 144.106 86.8665ZM85.933 151.458C87.8088 152 89.7272 152.532 91.6872 153.053C101.16 155.575 111.512 157.838 122.587 159.814C114.485 180.661 110.442 202.909 110.586 225.179H67.5548C67.9072 204.031 72.2426 183.13 80.3426 163.573C80.4492 163.316 80.5564 163.059 80.6642 162.802C82.2816 158.951 84.0395 155.168 85.933 151.458ZM143.479 368.691C144.125 367.462 145.556 365.846 148.493 363.958C152.87 361.145 159.578 358.423 168.431 356.066C169.239 355.851 170.061 355.64 170.898 355.432C176.629 360.317 182.777 364.926 189.345 369.221L224.001 391.879C215.568 391.591 207.305 391.006 199.432 390.138C193.696 389.506 188.235 388.73 183.119 387.827C179.175 386.526 175.274 385.077 171.426 383.483C161.643 379.431 152.289 374.474 143.479 368.691ZM139.976 366.328C141.168 364.304 143.26 362.32 146.219 360.418C151.067 357.302 158.15 354.468 167.071 352.074C147.938 334.79 133.766 314.333 124.402 292.325C109.758 294.662 96.1984 297.45 84.0172 300.634C92.2385 317.816 103.327 333.498 116.826 346.998C123.965 354.138 131.716 360.604 139.976 366.328ZM77.3638 284.67C70.8645 266.498 67.5315 247.324 67.5314 227.984H110.626C111.083 248.488 115.094 268.961 122.761 288.327C108.081 290.697 94.4684 293.524 82.2214 296.755C81.5751 295.311 80.9487 293.857 80.3425 292.394C79.2853 289.841 78.2922 287.266 77.3638 284.67ZM190.88 366.873C185.014 363.037 179.488 358.946 174.301 354.629C181.782 352.947 190.255 351.569 199.432 350.557C202.521 350.217 205.67 349.92 208.866 349.667L228.982 391.784L190.88 366.873ZM198.971 346.375C188.424 347.538 178.737 349.184 170.344 351.235C151.014 334.144 136.707 313.804 127.267 291.876C135.531 290.603 144.128 289.472 153.006 288.493C163.199 287.37 173.677 286.457 184.347 285.76C188.484 302.705 194.38 319.336 202.042 335.378L206.926 345.604C204.238 345.83 201.584 346.087 198.971 346.375ZM211.868 349.444L232.065 391.732L232.065 348.632C225.231 348.711 218.46 348.984 211.868 349.444ZM204.573 334.169L209.921 345.366C217.134 344.827 224.564 344.51 232.065 344.424V284.099C216.922 284.177 201.883 284.675 187.191 285.579C191.276 302.172 197.068 318.456 204.573 334.169ZM179.87 227.984C180.077 245.91 182.187 263.827 186.206 281.425C201.218 280.486 216.589 279.97 232.065 279.891L232.767 279.888L232.767 227.984H179.87ZM177.048 225.179C177.039 205.714 179.248 186.259 183.669 167.202C175.068 166.587 166.608 165.822 158.346 164.911C146.838 163.642 135.817 162.1 125.407 160.308C117.294 180.981 113.245 203.069 113.391 225.179H177.048ZM177.065 227.984C177.271 245.969 179.37 263.946 183.37 281.607C172.882 282.303 162.577 283.205 152.545 284.311C143.248 285.336 134.248 286.527 125.605 287.876C117.918 268.67 113.894 248.343 113.432 227.984H177.065ZM179.853 225.179H232.767L232.767 169.063C217.131 168.978 201.61 168.418 186.503 167.399C182.063 186.387 179.844 205.778 179.853 225.179ZM171.025 102.173C169.013 101.636 167.097 101.075 165.284 100.493C148.517 116.63 135.722 135.711 127.032 156.317C137.078 158.027 147.708 159.505 158.807 160.729C167.238 161.658 175.878 162.435 184.667 163.055C189.385 144.15 196.293 125.668 205.382 107.993C204.005 107.86 202.638 107.719 201.283 107.569C189.967 106.318 179.685 104.484 171.025 102.173ZM172.11 98.1072C170.978 97.805 169.883 97.4967 168.825 97.1827C182.97 84.3404 199.758 73.5287 219.118 65.5214L221.931 64.3581C224.115 64.2191 226.304 64.1103 228.495 64.0319L207.489 103.963C205.553 103.788 203.637 103.596 201.745 103.387C190.586 102.153 180.52 100.352 172.11 98.1072ZM232.767 63.9175C232.416 63.9237 232.065 63.9307 231.714 63.9385L210.523 104.221C217.741 104.799 225.213 105.139 232.767 105.231L232.767 63.9175ZM232.767 109.439C224.48 109.339 216.285 108.945 208.398 108.267C199.229 125.902 192.264 144.36 187.51 163.249C202.291 164.231 217.471 164.772 232.767 164.856L232.767 109.439Z" fill="#55BC85"/>
</g>
<mask id="mask4" mask-type="alpha" maskUnits="userSpaceOnUse" x="145" y="237" width="114" height="169">
<path d="M258.272 405.412C216.598 405.412 176.406 389.949 145.476 362.017L258.272 237.1L258.272 405.412Z" fill="#130947"/>
</mask>
<g mask="url(#mask4)">
<path fill-rule="evenodd" clip-rule="evenodd" d="M258.272 68.79C257.89 68.7906 257.508 68.7915 257.126 68.7926C235.414 68.9405 213.933 73.2885 193.867 81.6006C192.012 82.369 190.172 83.1699 188.349 84.0027C203.547 79.1334 219.368 75.8492 235.461 74.2114C217.352 82.3341 201.566 92.9258 188.166 105.329C182.805 103.556 178.57 101.637 175.527 99.6756C171.187 96.8792 170.356 94.7417 170.356 93.6853C170.356 93.6504 170.357 93.6143 170.358 93.5771C169.077 94.3622 167.806 95.1643 166.546 95.9833C167.408 98.4648 169.662 100.902 173.248 103.213C176.227 105.133 180.089 106.941 184.732 108.598C168.035 124.945 155.292 144.192 146.634 164.942C135.335 162.949 124.804 160.658 115.21 158.104C113.567 157.666 111.955 157.222 110.376 156.772C109.693 158.031 109.025 159.298 108.373 160.575C110.249 161.116 112.168 161.648 114.128 162.17C123.6 164.692 133.953 166.955 145.027 168.931C136.926 189.777 132.882 212.026 133.026 234.296H89.9952C89.9797 235.23 89.9719 236.165 89.9719 237.1C89.9719 237.101 89.9719 237.101 89.9719 237.101H133.067C133.523 257.605 137.535 278.078 145.201 297.444C130.521 299.814 116.909 302.641 104.662 305.872C105.244 307.173 105.843 308.466 106.458 309.751C118.639 306.567 132.199 303.779 146.843 301.442C152.333 314.347 159.477 326.719 168.305 338.23L170.216 336.103C161.83 325.095 155.003 313.294 149.707 300.993C157.971 299.72 166.568 298.589 175.447 297.61C185.639 296.487 196.117 295.574 206.788 294.877C206.821 295.014 206.855 295.151 206.889 295.288L211.299 290.38C210.413 290.433 209.529 290.486 208.646 290.542C204.628 272.944 202.518 255.027 202.311 237.101H255.207L255.207 241.512L258.272 238.1L258.272 237.1L258.272 68.79ZM205.559 396.943C210.675 397.847 216.136 398.622 221.873 399.255C229.745 400.123 238.008 400.708 246.441 400.996L211.786 378.337C205.217 374.043 199.069 369.434 193.339 364.549C192.502 364.756 191.679 364.968 190.871 365.183C182.018 367.539 175.31 370.262 170.934 373.075C167.996 374.962 166.565 376.579 165.92 377.808C174.729 383.591 184.084 388.548 193.867 392.6C197.715 394.194 201.615 395.643 205.559 396.943ZM162.416 375.445C163.608 373.421 165.7 371.436 168.659 369.535C173.507 366.419 180.591 363.585 189.511 361.191C181.598 354.042 174.533 346.35 168.305 338.23L146.283 362.741C151.403 367.305 156.791 371.547 162.416 375.445ZM255.207 241.512L255.207 289.004L254.506 289.008C239.94 289.082 225.467 289.544 211.299 290.38L255.207 241.512ZM206.889 295.288L170.216 336.103C176.78 344.719 184.298 352.849 192.785 360.352C201.177 358.301 210.865 356.655 221.412 355.492C224.024 355.204 226.678 354.946 229.366 354.721L224.482 344.495C216.883 328.583 211.02 312.092 206.889 295.288ZM213.321 375.99C207.454 372.154 201.929 368.063 196.741 363.746C204.223 362.064 212.696 360.686 221.873 359.674C224.962 359.334 228.111 359.037 231.307 358.784L251.422 400.901L213.321 375.99ZM234.309 358.561L254.506 400.849L254.506 357.749C247.672 357.828 240.901 358.101 234.309 358.561ZM227.013 343.286L232.361 354.483C239.574 353.944 247.005 353.627 254.506 353.541V293.216C239.362 293.294 224.324 293.792 209.632 294.696C213.716 311.289 219.509 327.573 227.013 343.286ZM199.489 234.296C199.48 214.831 201.689 195.376 206.109 176.319C197.508 175.704 189.049 174.939 180.786 174.028C169.279 172.759 158.257 171.217 147.848 169.425C139.735 190.097 135.686 212.186 135.832 234.296H199.489ZM199.506 237.101C199.711 255.086 201.811 273.063 205.811 290.724C195.322 291.42 185.018 292.322 174.986 293.428C165.688 294.452 156.689 295.644 148.046 296.992C140.358 277.787 136.334 257.46 135.873 237.101H199.506ZM202.294 234.296H255.207L255.207 178.18C239.571 178.095 224.05 177.535 208.943 176.516C204.504 195.504 202.285 214.895 202.294 234.296ZM193.465 111.29C191.453 110.752 189.538 110.192 187.724 109.61C170.957 125.747 158.162 144.828 149.472 165.434C159.519 167.144 170.148 168.622 181.247 169.845C189.679 170.775 198.319 171.552 207.107 172.171C211.826 153.266 218.733 134.784 227.822 117.11C226.445 116.977 225.078 116.836 223.723 116.686C212.407 115.435 202.126 113.601 193.465 111.29ZM194.55 107.224C193.418 106.922 192.323 106.613 191.266 106.3C205.41 93.4573 222.199 82.6455 241.559 74.6383L244.371 73.4749C246.556 73.3359 248.744 73.2271 250.936 73.1487L229.93 113.08C227.994 112.905 226.078 112.713 224.185 112.504C213.027 111.27 202.961 109.469 194.55 107.224ZM255.207 73.0343C254.856 73.0406 254.505 73.0476 254.154 73.0554L232.963 113.338C240.182 113.916 247.653 114.256 255.207 114.348L255.207 73.0343ZM255.207 118.556C246.92 118.456 238.725 118.062 230.838 117.384C221.67 135.019 214.705 153.477 209.951 172.366C224.732 173.348 239.912 173.889 255.207 173.972L255.207 118.556Z" fill="#55BC85"/>
</g>
<path d="M501.384 105.396V202.5H575.096V184.548H522.736V160.748H569.792V144.156H522.736V123.348H574.008V105.396H501.384ZM587.532 132.188V202.5H606.844V165.644C606.844 158.481 608.022 153.359 610.38 150.276C612.737 147.103 616.545 145.516 621.804 145.516C626.428 145.516 629.646 146.967 631.46 149.868C633.273 152.679 634.18 156.985 634.18 162.788V202.5H653.492V159.252C653.492 154.9 653.084 150.956 652.268 147.42C651.542 143.793 650.228 140.756 648.324 138.308C646.42 135.769 643.79 133.82 640.436 132.46C637.172 131.009 632.956 130.284 627.788 130.284C623.708 130.284 619.718 131.236 615.82 133.14C611.921 134.953 608.748 137.9 606.3 141.98H605.892V132.188H587.532ZM718.061 167.14C718.061 170.041 717.789 172.852 717.245 175.572C716.701 178.292 715.794 180.74 714.525 182.916C713.255 185.001 711.533 186.679 709.357 187.948C707.271 189.217 704.642 189.852 701.469 189.852C698.477 189.852 695.893 189.217 693.717 187.948C691.631 186.588 689.863 184.865 688.413 182.78C687.053 180.604 686.055 178.156 685.421 175.436C684.786 172.716 684.469 169.996 684.469 167.276C684.469 164.375 684.741 161.609 685.285 158.98C685.919 156.26 686.871 153.857 688.141 151.772C689.501 149.687 691.269 148.009 693.445 146.74C695.621 145.471 698.295 144.836 701.469 144.836C704.642 144.836 707.271 145.471 709.357 146.74C711.442 148.009 713.119 149.687 714.389 151.772C715.749 153.767 716.701 156.124 717.245 158.844C717.789 161.473 718.061 164.239 718.061 167.14ZM718.333 193.524V202.5H736.693V105.396H717.381V140.756H717.109C714.933 137.311 711.941 134.727 708.133 133.004C704.415 131.191 700.471 130.284 696.301 130.284C691.133 130.284 686.599 131.327 682.701 133.412C678.802 135.407 675.538 138.081 672.909 141.436C670.37 144.791 668.421 148.689 667.061 153.132C665.791 157.484 665.157 162.017 665.157 166.732C665.157 171.628 665.791 176.343 667.061 180.876C668.421 185.409 670.37 189.444 672.909 192.98C675.538 196.425 678.847 199.191 682.837 201.276C686.826 203.271 691.45 204.268 696.709 204.268C701.333 204.268 705.458 203.452 709.085 201.82C712.802 200.097 715.794 197.332 718.061 193.524H718.333ZM774.681 151.092V121.988H791.273C793.721 121.988 796.079 122.169 798.345 122.532C800.612 122.895 802.607 123.62 804.329 124.708C806.052 125.705 807.412 127.156 808.409 129.06C809.497 130.964 810.041 133.457 810.041 136.54C810.041 139.623 809.497 142.116 808.409 144.02C807.412 145.924 806.052 147.42 804.329 148.508C802.607 149.505 800.612 150.185 798.345 150.548C796.079 150.911 793.721 151.092 791.273 151.092H774.681ZM753.329 105.396V202.5H774.681V167.684H797.121C803.196 167.684 808.364 166.823 812.625 165.1C816.887 163.287 820.332 160.929 822.961 158.028C825.681 155.127 827.631 151.817 828.809 148.1C830.079 144.292 830.713 140.439 830.713 136.54C830.713 132.551 830.079 128.697 828.809 124.98C827.631 121.263 825.681 117.953 822.961 115.052C820.332 112.151 816.887 109.839 812.625 108.116C808.364 106.303 803.196 105.396 797.121 105.396H753.329ZM841.184 153.812C841.456 149.279 842.59 145.516 844.584 142.524C846.579 139.532 849.118 137.129 852.2 135.316C855.283 133.503 858.728 132.233 862.536 131.508C866.435 130.692 870.334 130.284 874.232 130.284C877.768 130.284 881.35 130.556 884.976 131.1C888.603 131.553 891.912 132.505 894.904 133.956C897.896 135.407 900.344 137.447 902.248 140.076C904.152 142.615 905.104 146.015 905.104 150.276V186.86C905.104 190.033 905.286 193.071 905.648 195.972C906.011 198.873 906.646 201.049 907.552 202.5H887.968C887.606 201.412 887.288 200.324 887.016 199.236C886.835 198.057 886.699 196.879 886.608 195.7C883.526 198.873 879.899 201.095 875.728 202.364C871.558 203.633 867.296 204.268 862.944 204.268C859.59 204.268 856.462 203.86 853.56 203.044C850.659 202.228 848.12 200.959 845.944 199.236C843.768 197.513 842.046 195.337 840.776 192.708C839.598 190.079 839.008 186.951 839.008 183.324C839.008 179.335 839.688 176.071 841.048 173.532C842.499 170.903 844.312 168.817 846.488 167.276C848.755 165.735 851.294 164.601 854.104 163.876C857.006 163.06 859.907 162.425 862.808 161.972C865.71 161.519 868.566 161.156 871.376 160.884C874.187 160.612 876.68 160.204 878.856 159.66C881.032 159.116 882.755 158.345 884.024 157.348C885.294 156.26 885.883 154.719 885.792 152.724C885.792 150.639 885.43 149.007 884.704 147.828C884.07 146.559 883.163 145.607 881.984 144.972C880.896 144.247 879.582 143.793 878.04 143.612C876.59 143.34 875.003 143.204 873.28 143.204C869.472 143.204 866.48 144.02 864.304 145.652C862.128 147.284 860.859 150.004 860.496 153.812H841.184ZM885.792 168.092C884.976 168.817 883.934 169.407 882.664 169.86C881.486 170.223 880.171 170.54 878.72 170.812C877.36 171.084 875.91 171.311 874.368 171.492C872.827 171.673 871.286 171.9 869.744 172.172C868.294 172.444 866.843 172.807 865.392 173.26C864.032 173.713 862.808 174.348 861.72 175.164C860.723 175.889 859.907 176.841 859.272 178.02C858.638 179.199 858.32 180.695 858.32 182.508C858.32 184.231 858.638 185.681 859.272 186.86C859.907 188.039 860.768 188.991 861.856 189.716C862.944 190.351 864.214 190.804 865.664 191.076C867.115 191.348 868.611 191.484 870.152 191.484C873.96 191.484 876.907 190.849 878.992 189.58C881.078 188.311 882.619 186.815 883.616 185.092C884.614 183.279 885.203 181.465 885.384 179.652C885.656 177.839 885.792 176.388 885.792 175.3V168.092ZM920.094 132.188V202.5H939.406V165.644C939.406 158.481 940.585 153.359 942.942 150.276C945.299 147.103 949.107 145.516 954.366 145.516C958.99 145.516 962.209 146.967 964.022 149.868C965.835 152.679 966.742 156.985 966.742 162.788V202.5H986.054V159.252C986.054 154.9 985.646 150.956 984.83 147.42C984.105 143.793 982.79 140.756 980.886 138.308C978.982 135.769 976.353 133.82 972.998 132.46C969.734 131.009 965.518 130.284 960.35 130.284C956.27 130.284 952.281 131.236 948.382 133.14C944.483 134.953 941.31 137.9 938.862 141.98H938.454V132.188H920.094ZM1050.62 167.14C1050.62 170.041 1050.35 172.852 1049.81 175.572C1049.26 178.292 1048.36 180.74 1047.09 182.916C1045.82 185.001 1044.1 186.679 1041.92 187.948C1039.83 189.217 1037.2 189.852 1034.03 189.852C1031.04 189.852 1028.46 189.217 1026.28 187.948C1024.19 186.588 1022.43 184.865 1020.98 182.78C1019.62 180.604 1018.62 178.156 1017.98 175.436C1017.35 172.716 1017.03 169.996 1017.03 167.276C1017.03 164.375 1017.3 161.609 1017.85 158.98C1018.48 156.26 1019.43 153.857 1020.7 151.772C1022.06 149.687 1023.83 148.009 1026.01 146.74C1028.18 145.471 1030.86 144.836 1034.03 144.836C1037.2 144.836 1039.83 145.471 1041.92 146.74C1044 148.009 1045.68 149.687 1046.95 151.772C1048.31 153.767 1049.26 156.124 1049.81 158.844C1050.35 161.473 1050.62 164.239 1050.62 167.14ZM1050.9 193.524V202.5H1069.26V105.396H1049.94V140.756H1049.67C1047.5 137.311 1044.5 134.727 1040.7 133.004C1036.98 131.191 1033.03 130.284 1028.86 130.284C1023.7 130.284 1019.16 131.327 1015.26 133.412C1011.36 135.407 1008.1 138.081 1005.47 141.436C1002.93 144.791 1000.98 148.689 999.623 153.132C998.354 157.484 997.719 162.017 997.719 166.732C997.719 171.628 998.354 176.343 999.623 180.876C1000.98 185.409 1002.93 189.444 1005.47 192.98C1008.1 196.425 1011.41 199.191 1015.4 201.276C1019.39 203.271 1024.01 204.268 1029.27 204.268C1033.9 204.268 1038.02 203.452 1041.65 201.82C1045.36 200.097 1048.36 197.332 1050.62 193.524H1050.9ZM1131.18 159.796H1099.76C1099.85 158.436 1100.13 156.895 1100.58 155.172C1101.12 153.449 1101.99 151.817 1103.16 150.276C1104.43 148.735 1106.07 147.465 1108.06 146.468C1110.15 145.38 1112.73 144.836 1115.81 144.836C1120.53 144.836 1124.02 146.105 1126.28 148.644C1128.64 151.183 1130.27 154.9 1131.18 159.796ZM1099.76 172.036H1150.49C1150.85 166.596 1150.4 161.383 1149.13 156.396C1147.86 151.409 1145.78 146.967 1142.88 143.068C1140.07 139.169 1136.44 136.087 1132 133.82C1127.55 131.463 1122.34 130.284 1116.36 130.284C1111.01 130.284 1106.11 131.236 1101.67 133.14C1097.32 135.044 1093.55 137.673 1090.38 141.028C1087.21 144.292 1084.76 148.191 1083.04 152.724C1081.31 157.257 1080.45 162.153 1080.45 167.412C1080.45 172.852 1081.27 177.839 1082.9 182.372C1084.62 186.905 1087.03 190.804 1090.11 194.068C1093.19 197.332 1096.95 199.871 1101.4 201.684C1105.84 203.407 1110.83 204.268 1116.36 204.268C1124.33 204.268 1131.13 202.455 1136.76 198.828C1142.38 195.201 1146.55 189.172 1149.27 180.74H1132.27C1131.63 182.916 1129.91 185.001 1127.1 186.996C1124.29 188.9 1120.93 189.852 1117.04 189.852C1111.6 189.852 1107.43 188.447 1104.52 185.636C1101.62 182.825 1100.04 178.292 1099.76 172.036ZM1162.49 132.188V202.5H1181.8V161.7C1181.8 158.255 1182.3 155.489 1183.3 153.404C1184.29 151.228 1185.47 149.596 1186.83 148.508C1188.28 147.329 1189.73 146.559 1191.19 146.196C1192.73 145.743 1193.95 145.516 1194.86 145.516C1197.94 145.516 1200.25 146.06 1201.79 147.148C1203.43 148.145 1204.56 149.505 1205.19 151.228C1205.92 152.951 1206.33 154.855 1206.42 156.94C1206.51 158.935 1206.55 160.975 1206.55 163.06V202.5H1225.87V163.332C1225.87 161.156 1226 159.025 1226.27 156.94C1226.64 154.764 1227.27 152.86 1228.18 151.228C1229.17 149.505 1230.49 148.145 1232.12 147.148C1233.84 146.06 1236.07 145.516 1238.79 145.516C1241.51 145.516 1243.64 145.969 1245.18 146.876C1246.81 147.783 1248.03 149.007 1248.85 150.548C1249.67 152.089 1250.16 153.903 1250.35 155.988C1250.53 158.073 1250.62 160.295 1250.62 162.652V202.5H1269.93V155.444C1269.93 150.911 1269.29 147.057 1268.03 143.884C1266.76 140.62 1264.99 137.991 1262.72 135.996C1260.45 134.001 1257.73 132.551 1254.56 131.644C1251.39 130.737 1247.94 130.284 1244.23 130.284C1239.33 130.284 1235.07 131.463 1231.44 133.82C1227.91 136.177 1225.09 138.897 1223.01 141.98C1221.11 137.628 1218.29 134.591 1214.58 132.868C1210.95 131.145 1206.92 130.284 1202.47 130.284C1197.85 130.284 1193.72 131.281 1190.1 133.276C1186.56 135.271 1183.52 138.081 1180.99 141.708H1180.71V132.188H1162.49ZM1305.05 121.308V105.396H1285.74V121.308H1305.05ZM1285.74 132.188V202.5H1305.05V132.188H1285.74ZM1368.13 156.94H1387.03C1386.76 152.407 1385.67 148.508 1383.77 145.244C1381.87 141.889 1379.37 139.124 1376.29 136.948C1373.3 134.681 1369.85 133.004 1365.95 131.916C1362.15 130.828 1358.16 130.284 1353.99 130.284C1348.27 130.284 1343.2 131.236 1338.75 133.14C1334.31 135.044 1330.55 137.719 1327.47 141.164C1324.38 144.519 1322.03 148.553 1320.39 153.268C1318.85 157.892 1318.08 162.924 1318.08 168.364C1318.08 173.623 1318.94 178.473 1320.67 182.916C1322.39 187.268 1324.79 191.031 1327.87 194.204C1330.96 197.377 1334.67 199.871 1339.03 201.684C1343.47 203.407 1348.32 204.268 1353.58 204.268C1362.92 204.268 1370.58 201.82 1376.56 196.924C1382.55 192.028 1386.17 184.911 1387.44 175.572H1368.81C1368.18 179.924 1366.59 183.415 1364.05 186.044C1361.6 188.583 1358.07 189.852 1353.44 189.852C1350.45 189.852 1347.91 189.172 1345.83 187.812C1343.74 186.452 1342.06 184.729 1340.79 182.644C1339.62 180.468 1338.75 178.065 1338.21 175.436C1337.67 172.807 1337.39 170.223 1337.39 167.684C1337.39 165.055 1337.67 162.425 1338.21 159.796C1338.75 157.076 1339.66 154.628 1340.93 152.452C1342.29 150.185 1344.01 148.372 1346.1 147.012C1348.18 145.561 1350.77 144.836 1353.85 144.836C1362.1 144.836 1366.86 148.871 1368.13 156.94ZM1413.31 179.652H1394.95C1395.13 184.367 1396.18 188.311 1398.08 191.484C1400.07 194.567 1402.57 197.06 1405.56 198.964C1408.64 200.868 1412.13 202.228 1416.03 203.044C1419.93 203.86 1423.92 204.268 1428 204.268C1431.99 204.268 1435.89 203.86 1439.7 203.044C1443.59 202.319 1447.04 201.004 1450.03 199.1C1453.02 197.196 1455.43 194.703 1457.24 191.62C1459.14 188.447 1460.1 184.548 1460.1 179.924C1460.1 176.66 1459.46 173.94 1458.19 171.764C1456.92 169.497 1455.25 167.639 1453.16 166.188C1451.07 164.647 1448.67 163.423 1445.95 162.516C1443.32 161.609 1440.6 160.839 1437.79 160.204C1435.07 159.569 1432.4 158.98 1429.77 158.436C1427.14 157.892 1424.78 157.303 1422.7 156.668C1420.7 155.943 1419.07 155.036 1417.8 153.948C1416.53 152.86 1415.9 151.455 1415.9 149.732C1415.9 148.281 1416.26 147.148 1416.98 146.332C1417.71 145.425 1418.57 144.745 1419.57 144.292C1420.66 143.839 1421.83 143.567 1423.1 143.476C1424.37 143.295 1425.55 143.204 1426.64 143.204C1430.09 143.204 1433.08 143.884 1435.62 145.244C1438.15 146.513 1439.56 149.007 1439.83 152.724H1458.19C1457.83 148.372 1456.7 144.791 1454.79 141.98C1452.98 139.079 1450.67 136.767 1447.86 135.044C1445.05 133.321 1441.83 132.097 1438.2 131.372C1434.66 130.647 1430.99 130.284 1427.18 130.284C1423.38 130.284 1419.66 130.647 1416.03 131.372C1412.41 132.007 1409.14 133.185 1406.24 134.908C1403.34 136.54 1400.98 138.807 1399.17 141.708C1397.45 144.609 1396.58 148.327 1396.58 152.86C1396.58 155.943 1397.22 158.572 1398.49 160.748C1399.76 162.833 1401.43 164.601 1403.52 166.052C1405.61 167.412 1407.96 168.545 1410.59 169.452C1413.31 170.268 1416.08 170.993 1418.89 171.628C1425.78 173.079 1431.13 174.529 1434.94 175.98C1438.83 177.431 1440.78 179.607 1440.78 182.508C1440.78 184.231 1440.38 185.681 1439.56 186.86C1438.74 187.948 1437.7 188.855 1436.43 189.58C1435.25 190.215 1433.89 190.713 1432.35 191.076C1430.9 191.348 1429.5 191.484 1428.14 191.484C1426.23 191.484 1424.37 191.257 1422.56 190.804C1420.84 190.351 1419.3 189.671 1417.94 188.764C1416.58 187.767 1415.44 186.543 1414.54 185.092C1413.72 183.551 1413.31 181.737 1413.31 179.652Z" fill="black"/>
<path d="M504.88 310.012V283.148H526.408C530.763 283.148 534.289 284.252 536.988 286.46C539.687 288.668 541.036 292.041 541.036 296.58C541.036 301.119 539.687 304.492 536.988 306.7C534.289 308.908 530.763 310.012 526.408 310.012H504.88ZM498.624 277.812V343.5H504.88V315.348H527.788C530.732 315.348 533.4 314.949 535.792 314.152C538.184 313.293 540.239 312.067 541.956 310.472C543.673 308.816 544.992 306.823 545.912 304.492C546.832 302.161 547.292 299.524 547.292 296.58C547.292 293.636 546.832 290.999 545.912 288.668C544.992 286.337 543.673 284.375 541.956 282.78C540.239 281.124 538.184 279.897 535.792 279.1C533.4 278.241 530.732 277.812 527.788 277.812H498.624ZM578.009 309V283.148H601.377C606.161 283.148 609.719 284.313 612.049 286.644C614.38 288.975 615.545 292.164 615.545 296.212C615.545 298.236 615.147 300.045 614.349 301.64C613.613 303.173 612.601 304.492 611.313 305.596C610.025 306.7 608.523 307.559 606.805 308.172C605.088 308.724 603.279 309 601.377 309H578.009ZM571.753 277.812V343.5H578.009V314.336H601.745C604.689 314.213 606.989 314.704 608.645 315.808C610.363 316.912 611.651 318.384 612.509 320.224C613.429 322.003 614.012 324.057 614.257 326.388C614.564 328.657 614.779 330.957 614.901 333.288C614.963 333.963 615.024 334.76 615.085 335.68C615.147 336.6 615.208 337.551 615.269 338.532C615.392 339.452 615.545 340.372 615.729 341.292C615.975 342.151 616.281 342.887 616.649 343.5H623.549C622.875 342.703 622.323 341.599 621.893 340.188C621.525 338.716 621.249 337.183 621.065 335.588C620.881 333.932 620.759 332.307 620.697 330.712C620.636 329.117 620.575 327.768 620.513 326.664C620.391 324.701 620.115 322.892 619.685 321.236C619.317 319.519 618.673 318.016 617.753 316.728C616.895 315.44 615.76 314.397 614.349 313.6C612.939 312.741 611.16 312.159 609.013 311.852V311.668C613.245 310.809 616.435 308.847 618.581 305.78C620.728 302.713 621.801 299.095 621.801 294.924C621.801 291.98 621.249 289.435 620.145 287.288C619.103 285.08 617.661 283.301 615.821 281.952C614.043 280.541 611.927 279.499 609.473 278.824C607.081 278.149 604.536 277.812 601.837 277.812H571.753ZM651.057 310.656C651.057 307.037 651.517 303.511 652.437 300.076C653.418 296.641 654.89 293.575 656.853 290.876C658.877 288.116 661.453 285.908 664.581 284.252C667.709 282.596 671.45 281.768 675.805 281.768C680.159 281.768 683.87 282.596 686.937 284.252C690.065 285.908 692.61 288.116 694.573 290.876C696.597 293.575 698.069 296.641 698.989 300.076C699.97 303.511 700.461 307.037 700.461 310.656C700.461 314.213 699.97 317.74 698.989 321.236C698.069 324.671 696.597 327.768 694.573 330.528C692.61 333.227 690.065 335.404 686.937 337.06C683.87 338.716 680.159 339.544 675.805 339.544C671.45 339.544 667.709 338.716 664.581 337.06C661.453 335.404 658.877 333.227 656.853 330.528C654.89 327.768 653.418 324.671 652.437 321.236C651.517 317.74 651.057 314.213 651.057 310.656ZM644.801 310.656C644.801 315.195 645.445 319.519 646.733 323.628C648.021 327.737 649.953 331.356 652.529 334.484C655.105 337.612 658.325 340.127 662.189 342.028C666.114 343.868 670.653 344.788 675.805 344.788C680.957 344.788 685.465 343.868 689.329 342.028C693.193 340.127 696.413 337.612 698.989 334.484C701.565 331.356 703.497 327.737 704.785 323.628C706.073 319.519 706.717 315.195 706.717 310.656C706.717 306.117 706.073 301.793 704.785 297.684C703.497 293.575 701.565 289.956 698.989 286.828C696.413 283.639 693.193 281.124 689.329 279.284C685.465 277.383 680.957 276.432 675.805 276.432C670.653 276.432 666.114 277.383 662.189 279.284C658.325 281.124 655.105 283.639 652.529 286.828C649.953 289.956 648.021 293.575 646.733 297.684C645.445 301.793 644.801 306.117 644.801 310.656ZM724.676 277.812V283.148H747.492V343.5H753.748V283.148H776.656V277.812H724.676ZM797.969 277.812V343.5H843.785V338.164H804.225V312.22H840.841V306.884H804.225V283.148H843.325V277.812H797.969ZM915.708 297.684H921.964C921.535 294.249 920.492 291.213 918.836 288.576C917.241 285.939 915.217 283.731 912.764 281.952C910.372 280.112 907.673 278.732 904.668 277.812C901.724 276.892 898.688 276.432 895.56 276.432C890.408 276.432 885.869 277.383 881.944 279.284C878.08 281.124 874.86 283.639 872.284 286.828C869.708 289.956 867.776 293.575 866.488 297.684C865.2 301.793 864.556 306.117 864.556 310.656C864.556 315.195 865.2 319.519 866.488 323.628C867.776 327.737 869.708 331.356 872.284 334.484C874.86 337.612 878.08 340.127 881.944 342.028C885.869 343.868 890.408 344.788 895.56 344.788C899.424 344.788 902.92 344.175 906.048 342.948C909.237 341.721 911.997 339.973 914.328 337.704C916.659 335.435 918.56 332.675 920.032 329.424C921.504 326.173 922.455 322.524 922.884 318.476H916.628C916.321 321.42 915.616 324.18 914.512 326.756C913.408 329.271 911.967 331.479 910.188 333.38C908.409 335.281 906.293 336.784 903.84 337.888C901.387 338.992 898.627 339.544 895.56 339.544C891.205 339.544 887.464 338.716 884.336 337.06C881.208 335.404 878.632 333.227 876.608 330.528C874.645 327.768 873.173 324.671 872.192 321.236C871.272 317.74 870.812 314.213 870.812 310.656C870.812 307.037 871.272 303.511 872.192 300.076C873.173 296.641 874.645 293.575 876.608 290.876C878.632 288.116 881.208 285.908 884.336 284.252C887.464 282.596 891.205 281.768 895.56 281.768C897.952 281.768 900.221 282.136 902.368 282.872C904.576 283.547 906.569 284.559 908.348 285.908C910.188 287.257 911.721 288.944 912.948 290.968C914.236 292.931 915.156 295.169 915.708 297.684ZM940.65 277.812V283.148H963.466V343.5H969.722V283.148H992.63V277.812H940.65ZM1054.64 277.812V343.5H1060.89V287.932H1061.08L1099.35 343.5H1106.34V277.812H1100.08V333.38H1099.9L1061.63 277.812H1054.64ZM1143.98 317.74L1157.13 284.068L1169.83 317.74H1143.98ZM1153.91 277.812L1127.51 343.5H1134.13L1142.05 323.076H1171.95L1179.95 343.5H1186.67L1160.91 277.812H1153.91ZM1194.53 277.812V283.148H1217.35V343.5H1223.61V283.148H1246.51V277.812H1194.53ZM1267.18 277.812V319.856C1267.18 323.229 1267.64 326.449 1268.56 329.516C1269.54 332.521 1271.05 335.159 1273.07 337.428C1275.16 339.697 1277.79 341.507 1280.98 342.856C1284.23 344.144 1288.13 344.788 1292.67 344.788C1297.27 344.788 1301.16 344.144 1304.35 342.856C1307.6 341.507 1310.24 339.697 1312.26 337.428C1314.35 335.159 1315.85 332.521 1316.77 329.516C1317.75 326.449 1318.24 323.229 1318.24 319.856V277.812H1311.99V318.476C1311.99 322.279 1311.56 325.529 1310.7 328.228C1309.84 330.865 1308.58 333.043 1306.93 334.76C1305.27 336.416 1303.25 337.643 1300.85 338.44C1298.46 339.176 1295.73 339.544 1292.67 339.544C1289.66 339.544 1286.96 339.176 1284.57 338.44C1282.18 337.643 1280.15 336.416 1278.5 334.76C1276.84 333.043 1275.59 330.865 1274.73 328.228C1273.87 325.529 1273.44 322.279 1273.44 318.476V277.812H1267.18ZM1352.24 309V283.148H1375.61C1380.4 283.148 1383.95 284.313 1386.28 286.644C1388.61 288.975 1389.78 292.164 1389.78 296.212C1389.78 298.236 1389.38 300.045 1388.58 301.64C1387.85 303.173 1386.84 304.492 1385.55 305.596C1384.26 306.7 1382.76 307.559 1381.04 308.172C1379.32 308.724 1377.51 309 1375.61 309H1352.24ZM1345.99 277.812V343.5H1352.24V314.336H1375.98C1378.92 314.213 1381.22 314.704 1382.88 315.808C1384.6 316.912 1385.88 318.384 1386.74 320.224C1387.66 322.003 1388.25 324.057 1388.49 326.388C1388.8 328.657 1389.01 330.957 1389.14 333.288C1389.2 333.963 1389.26 334.76 1389.32 335.68C1389.38 336.6 1389.44 337.551 1389.5 338.532C1389.63 339.452 1389.78 340.372 1389.96 341.292C1390.21 342.151 1390.52 342.887 1390.88 343.5H1397.78C1397.11 342.703 1396.56 341.599 1396.13 340.188C1395.76 338.716 1395.48 337.183 1395.3 335.588C1395.12 333.932 1394.99 332.307 1394.93 330.712C1394.87 329.117 1394.81 327.768 1394.75 326.664C1394.62 324.701 1394.35 322.892 1393.92 321.236C1393.55 319.519 1392.91 318.016 1391.99 316.728C1391.13 315.44 1389.99 314.397 1388.58 313.6C1387.17 312.741 1385.39 312.159 1383.25 311.852V311.668C1387.48 310.809 1390.67 308.847 1392.82 305.78C1394.96 302.713 1396.04 299.095 1396.04 294.924C1396.04 291.98 1395.48 289.435 1394.38 287.288C1393.34 285.08 1391.9 283.301 1390.06 281.952C1388.28 280.541 1386.16 279.499 1383.71 278.824C1381.32 278.149 1378.77 277.812 1376.07 277.812H1345.99ZM1422.53 277.812V343.5H1468.35V338.164H1428.79V312.22H1465.4V306.884H1428.79V283.148H1467.89V277.812H1422.53Z" fill="black"/>
</svg>
