<svg width="900" height="900" viewBox="0 0 900 900" fill="none" xmlns="http://www.w3.org/2000/svg">
<path fill-rule="evenodd" clip-rule="evenodd" d="M482.731 178.545C480.663 178.427 478.591 178.337 476.517 178.274C482.469 190.343 487.718 202.666 492.263 215.184C496.4 214.899 500.463 214.537 504.421 214.1C512.755 213.178 520.459 211.94 527.297 210.441C514.645 197.991 499.771 187.166 482.731 178.545ZM469.389 173.056L469.389 173.056L469.389 251.76L469.389 226.867V221.958H469.389V215.958L469.389 197.062V178.166L469.389 173.056ZM488.099 215.443C484.34 205.194 480.103 195.079 475.389 185.13L475.389 215.906C479.668 215.831 483.915 215.676 488.099 215.443ZM475.389 221.907C480.381 221.821 485.334 221.628 490.201 221.331C496.278 238.832 500.974 256.699 504.284 274.768C494.753 275.209 485.097 275.469 475.389 275.545V226.867V221.907ZM475.389 281.545C485.446 281.467 495.451 281.193 505.324 280.726C508.386 299.177 510.009 317.819 510.19 336.478H475.389V281.545ZM469.389 336.478V281.569H469.389L469.389 336.478H469.389ZM469.389 340.478L469.389 480.308L469.389 462.893V456.893L469.389 450.582V398.374V392.374L469.389 347.14V340.478H469.389ZM475.389 340.478H510.206C510.182 358.099 508.87 375.725 506.268 393.207C496.078 392.743 485.759 392.472 475.389 392.396L475.389 347.14V340.478ZM514.206 340.478C514.182 358.163 512.876 375.852 510.283 393.4C524.925 394.141 539.28 395.28 553.116 396.805C558.754 397.426 564.281 398.109 569.687 398.85C576.436 380.001 579.891 360.24 580.138 340.478H514.206ZM584.139 340.478C583.896 360.424 580.456 380.37 573.736 399.42C591.777 402.025 608.383 405.296 623.046 409.145C623.676 407.735 624.287 406.316 624.878 404.888C633.336 384.467 637.689 362.581 637.689 340.478L584.139 340.478ZM637.642 336.478H584.145C583.949 315.267 580.142 294.125 572.827 274.131C588.073 271.766 602.145 268.883 614.676 265.547C616.29 265.117 617.876 264.681 619.433 264.238C621.397 268.103 623.214 272.049 624.878 276.068C632.825 295.256 637.149 315.738 637.642 336.478ZM580.144 336.478H514.19C514.011 317.753 512.394 299.045 509.345 280.525C522.558 279.827 535.513 278.784 548.017 277.405C555.136 276.62 562.069 275.73 568.786 274.742C576.126 294.52 579.947 315.464 580.144 336.478ZM475.389 398.396C485.444 398.47 495.448 398.729 505.329 399.171C502.056 418.893 497.132 438.41 490.554 457.513C486.224 457.256 481.83 457.079 477.402 456.981C476.732 456.967 476.06 456.954 475.389 456.943L475.389 450.582V398.396ZM552.459 402.769C538.547 401.236 524.098 400.095 509.352 399.361C506.101 419.104 501.215 438.648 494.69 457.783C498.765 458.074 502.775 458.437 506.69 458.869C507.43 458.95 508.164 459.034 508.895 459.12C516.363 460.002 523.375 461.128 529.77 462.471C546.615 445.324 559.154 425.604 567.51 404.61C562.595 403.947 557.574 403.332 552.459 402.769ZM477.363 462.982C481.097 463.065 484.805 463.206 488.468 463.404C484.62 473.977 480.261 484.414 475.389 494.679L475.389 482.841V462.943C476.047 462.954 476.705 462.967 477.363 462.982ZM502.35 501.233C496.243 501.829 489.925 502.257 483.495 502.512L501.35 490.838C511.67 484.09 521.003 476.604 529.36 468.518C531.949 469.075 534.423 469.667 536.77 470.292C537.318 470.437 537.857 470.585 538.387 470.733C546.342 472.959 552.305 475.456 556.199 477.959C556.373 478.071 556.539 478.18 556.7 478.289C559.112 479.912 560.132 481.171 560.559 481.955C552.096 487.409 543.141 492.106 533.794 495.978C533.458 496.117 533.122 496.255 532.785 496.392C524.951 498.247 515.914 499.761 506.033 500.85C504.814 500.985 503.586 501.112 502.35 501.233ZM499.161 487.49C508.444 481.42 516.91 474.74 524.569 467.554C519.467 466.593 513.984 465.763 508.195 465.079C507.479 464.995 506.758 464.912 506.033 464.832C501.675 464.352 497.195 463.959 492.631 463.655C488.543 475.004 483.872 486.2 478.619 497.2L476.035 502.611L499.161 487.49ZM538.313 464.493C537.027 464.151 535.706 463.818 534.352 463.496C550.96 446.127 563.335 426.269 571.595 405.175C589.507 407.719 605.959 410.918 620.456 414.67C612.315 431.249 601.489 446.397 588.395 459.492C581.345 466.543 573.699 472.936 565.556 478.606C564.42 476.779 562.55 474.985 559.969 473.256C559.797 473.141 559.621 473.026 559.443 472.912C554.851 469.96 548.253 467.262 539.988 464.951C539.437 464.796 538.879 464.644 538.313 464.493ZM613.132 259.749C600.484 263.116 586.185 266.026 570.621 268.4C562.694 248.79 551.322 230.413 536.604 214.322C544.67 212.084 551.099 209.461 555.556 206.59C558.854 204.464 561.026 202.231 562.023 199.956C571.495 206.2 580.334 213.402 588.395 221.464C599.496 232.565 608.966 245.142 616.553 258.816C615.429 259.13 614.289 259.441 613.132 259.749ZM505.08 220.063C515.059 218.96 524.233 217.404 532.201 215.466C547.067 231.324 558.548 249.533 566.545 269.005C560.332 269.903 553.93 270.717 547.36 271.441C534.747 272.832 521.664 273.879 508.314 274.57C505.027 256.478 500.366 238.585 494.337 221.051C497.982 220.781 501.57 220.451 505.08 220.063ZM533.791 208.869C533.166 209.036 532.532 209.201 531.889 209.362C520.583 197.92 507.483 187.766 492.628 179.318C510.955 181.14 528.927 185.114 546.022 191.144C547.08 191.517 548.134 191.898 549.183 192.286C551.641 193.61 554.066 194.994 556.453 196.438C556.637 196.809 556.655 197.024 556.655 197.062C556.655 197.176 556.497 198.845 552.306 201.546C548.363 204.087 542.167 206.633 533.791 208.869Z" fill="#EAB131"/>
<mask id="mask0" mask-type="alpha" maskUnits="userSpaceOnUse" x="412" y="137" width="45" height="170">
<path d="M412.489 143.731C426.945 139.788 441.863 137.794 456.847 137.801L456.767 306.113L412.489 143.731Z" fill="#130947"/>
</mask>
<g mask="url(#mask0)">
<path fill-rule="evenodd" clip-rule="evenodd" d="M288.489 303.309H331.521C331.376 281.039 335.42 258.79 343.521 237.944C332.447 235.968 322.094 233.705 312.622 231.183C310.662 230.661 308.743 230.13 306.868 229.588C304.848 233.545 302.982 237.586 301.277 241.703C293.177 261.26 288.842 282.161 288.489 303.309ZM308.87 225.785C310.449 226.235 312.061 226.68 313.704 227.117C323.299 229.671 333.829 231.962 345.128 233.956C353.786 213.205 366.529 193.958 383.226 177.611C378.583 175.955 374.721 174.146 371.742 172.226C368.157 169.915 365.902 167.478 365.04 164.996C355.225 171.377 346.078 178.781 337.76 187.099C326.299 198.56 316.576 211.595 308.87 225.785ZM386.843 153.016C380.649 155.845 374.642 159.044 368.853 162.59C368.851 162.627 368.85 162.663 368.85 162.698C368.85 163.755 369.682 165.892 374.021 168.689C377.064 170.65 381.299 172.569 386.661 174.342C400.06 161.939 415.846 151.347 433.956 143.224C417.862 144.862 402.041 148.146 386.843 153.016ZM455.618 137.806C456.001 137.805 456.384 137.804 456.767 137.803L456.767 137.802C456.384 137.802 456.001 137.803 455.618 137.806ZM288.466 306.114C288.466 328.217 292.819 350.103 301.277 370.523C301.883 371.987 302.51 373.441 303.156 374.885C315.403 371.654 329.015 368.827 343.695 366.457C336.029 347.091 332.018 326.618 331.561 306.114H288.466ZM304.952 378.764C317.133 375.58 330.693 372.792 345.337 370.455C354.701 392.463 368.873 412.92 388.005 430.204C379.085 432.598 372.002 435.432 367.153 438.548C364.194 440.449 362.103 442.434 360.91 444.458C352.65 438.734 344.9 432.268 337.76 425.128C324.261 411.628 313.173 395.946 304.952 378.764ZM364.414 446.821C365.059 445.592 366.49 443.976 369.428 442.088C373.805 439.275 380.512 436.552 389.365 434.196C390.173 433.981 390.996 433.769 391.833 433.562C397.563 438.447 403.711 443.056 410.28 447.351L444.935 470.009C436.503 469.721 428.239 469.136 420.367 468.268C414.631 467.636 409.169 466.86 404.053 465.956C400.109 464.656 396.209 463.207 392.361 461.613C382.578 457.561 373.223 452.604 364.414 446.821ZM438.81 473.464C443.327 473.819 447.892 474 452.5 474C453.926 474 455.348 473.982 456.767 473.948L456.767 474.425C450.757 474.425 444.763 474.103 438.81 473.464ZM411.815 445.003C405.948 441.167 400.423 437.076 395.236 432.759C402.717 431.077 411.19 429.699 420.367 428.687C423.456 428.347 426.605 428.05 429.801 427.797L449.916 469.914L411.815 445.003ZM419.906 424.505C409.359 425.668 399.672 427.314 391.279 429.365C371.949 412.274 357.641 391.934 348.201 370.006C356.465 368.733 365.063 367.602 373.941 366.623C384.133 365.5 394.611 364.587 405.282 363.89C409.418 380.835 415.315 397.466 422.976 413.508L427.86 423.734C425.172 423.959 422.518 424.217 419.906 424.505ZM432.803 427.574L453 469.862L453 426.762C446.166 426.841 439.395 427.114 432.803 427.574ZM425.508 412.299L430.855 423.496C438.068 422.957 445.499 422.64 453 422.554V362.229C437.857 362.307 422.818 362.805 408.126 363.709C412.211 380.302 418.003 396.586 425.508 412.299ZM400.805 306.114C401.012 324.04 403.122 341.957 407.14 359.555C422.152 358.616 437.524 358.1 453 358.021L453.701 358.018L453.701 306.114H400.805ZM397.983 303.309C397.974 283.844 400.183 264.389 404.603 245.332C396.003 244.717 387.543 243.952 379.28 243.041C367.773 241.772 356.751 240.23 346.342 238.438C338.229 259.111 334.18 281.199 334.326 303.309H397.983ZM398 306.114C398.205 324.099 400.305 342.076 404.305 359.737C393.816 360.433 383.512 361.335 373.48 362.441C364.183 363.465 355.183 364.657 346.54 366.005C338.852 346.8 334.829 326.473 334.367 306.114H398ZM400.788 303.309H453.701L453.701 247.193C438.065 247.108 422.544 246.548 407.437 245.529C402.998 264.517 400.779 283.908 400.788 303.309ZM391.959 180.303C389.947 179.766 388.032 179.205 386.218 178.623C369.452 194.76 356.657 213.841 347.966 234.447C358.013 236.157 368.643 237.635 379.741 238.859C388.173 239.788 396.813 240.565 405.602 241.184C410.32 222.279 417.228 203.797 426.317 186.123C424.939 185.99 423.572 185.849 422.217 185.699C410.902 184.448 400.62 182.614 391.959 180.303ZM393.044 176.237C391.912 175.935 390.817 175.627 389.76 175.313C403.904 162.47 420.693 151.659 440.053 143.651L442.865 142.488C445.05 142.349 447.238 142.24 449.43 142.162L428.424 182.093C426.488 181.918 424.572 181.726 422.68 181.517C411.521 180.283 401.455 178.482 393.044 176.237ZM453.701 142.047C453.35 142.054 452.999 142.061 452.648 142.068L431.458 182.351C438.676 182.929 446.147 183.269 453.701 183.361L453.701 142.047ZM453.701 187.569C445.414 187.469 437.219 187.075 429.332 186.397C420.164 204.032 413.199 222.49 408.445 241.379C423.226 242.361 438.406 242.902 453.701 242.986L453.701 187.569Z" fill="#EAB131"/>
</g>
<mask id="mask1" mask-type="alpha" maskUnits="userSpaceOnUse" x="287" y="123" width="143" height="162">
<path d="M287.862 193.333C309.599 159.531 342.712 134.623 381.214 123.112L429.417 284.373L287.862 193.333Z" fill="#130947"/>
</mask>
<g mask="url(#mask1)">
<path fill-rule="evenodd" clip-rule="evenodd" d="M429.417 116.062C429.036 116.062 428.655 116.063 428.274 116.065C428.655 116.064 429.036 116.063 429.417 116.063L429.417 116.062ZM365.011 128.873C385.078 120.561 406.562 116.213 428.274 116.065C428.272 116.065 428.27 116.065 428.267 116.065C406.557 116.214 385.076 120.562 365.011 128.873ZM359.494 131.275C374.692 126.406 390.512 123.122 406.606 121.484C388.496 129.607 372.71 140.199 359.311 152.602C353.949 150.829 349.714 148.91 346.671 146.948C342.332 144.152 341.5 142.015 341.5 140.958C341.5 140.923 341.501 140.887 341.503 140.85C347.292 137.303 353.3 134.105 359.494 131.275ZM337.691 143.256C338.553 145.738 340.807 148.175 344.392 150.485C347.372 152.406 351.233 154.214 355.877 155.871C339.18 172.218 326.437 191.465 317.779 212.215C306.48 210.222 295.949 207.931 286.355 205.377C284.711 204.939 283.1 204.495 281.521 204.045C289.227 189.855 298.95 176.82 310.411 165.359C318.729 157.04 327.875 149.637 337.691 143.256ZM279.518 207.848C281.394 208.389 283.312 208.921 285.272 209.443C294.745 211.965 305.097 214.228 316.172 216.204C308.07 237.05 304.027 259.298 304.171 281.569H261.14C261.492 260.421 265.828 239.519 273.928 219.963C274.034 219.706 274.141 219.449 274.249 219.192C275.867 215.341 277.624 211.557 279.518 207.848ZM337.064 425.081C337.71 423.852 339.141 422.235 342.078 420.347C346.455 417.535 353.163 414.812 362.016 412.456C362.824 412.24 363.646 412.029 364.483 411.822C370.214 416.706 376.362 421.316 382.93 425.61L417.586 448.269C409.153 447.98 400.89 447.396 393.017 446.528C387.281 445.895 381.82 445.12 376.704 444.216C372.76 442.915 368.859 441.467 365.011 439.873C355.228 435.82 345.874 430.864 337.064 425.081ZM333.561 422.718C334.753 420.693 336.845 418.709 339.804 416.807C344.652 413.692 351.735 410.857 360.656 408.464C341.523 391.179 327.351 370.723 317.987 348.715C303.343 351.051 289.783 353.84 277.602 357.023C285.823 374.205 296.912 389.888 310.41 403.387C317.55 410.528 325.301 416.994 333.561 422.718ZM270.949 341.059C264.449 322.888 261.116 303.714 261.116 284.374H304.211C304.668 304.878 308.679 325.351 316.346 344.717C301.666 347.087 288.053 349.914 275.806 353.145C275.16 351.701 274.534 350.247 273.928 348.783C272.87 346.231 271.877 343.655 270.949 341.059ZM384.465 423.262C378.599 419.427 373.073 415.336 367.886 411.019C375.367 409.337 383.84 407.959 393.017 406.947C396.106 406.606 399.255 406.309 402.451 406.057L422.567 448.174L384.465 423.262ZM392.556 402.764C382.009 403.927 372.322 405.573 363.929 407.625C344.599 390.534 330.292 370.193 320.851 348.266C329.116 346.992 337.713 345.861 346.591 344.883C356.784 343.76 367.262 342.847 377.932 342.15C382.069 359.095 387.965 375.726 395.627 391.768L400.511 401.993C397.823 402.219 395.169 402.476 392.556 402.764ZM405.453 405.834L425.65 448.122L425.65 405.022C418.816 405.101 412.045 405.374 405.453 405.834ZM398.158 390.559L403.506 401.756C410.719 401.216 418.149 400.9 425.65 400.813V340.488C410.507 340.566 395.468 341.064 380.776 341.969C384.861 358.561 390.653 374.846 398.158 390.559ZM373.455 284.374C373.662 302.3 375.772 320.217 379.791 337.814C394.802 336.876 410.174 336.36 425.65 336.281L426.352 336.277L426.352 284.374H373.455ZM370.633 281.569C370.624 262.104 372.833 242.648 377.254 223.592C368.653 222.977 360.193 222.212 351.93 221.301C340.423 220.032 329.402 218.49 318.992 216.698C310.879 237.37 306.83 259.459 306.976 281.569H370.633ZM370.65 284.374C370.856 302.359 372.955 320.336 376.955 337.997C366.467 338.692 356.162 339.595 346.13 340.701C336.833 341.725 327.833 342.917 319.19 344.265C311.503 325.059 307.479 304.733 307.017 284.374H370.65ZM373.438 281.569H426.352L426.352 225.453C410.715 225.368 395.195 224.808 380.088 223.789C375.648 242.776 373.429 262.168 373.438 281.569ZM364.61 158.562C362.598 158.025 360.682 157.465 358.869 156.883C342.102 173.02 329.307 192.101 320.617 212.707C330.663 214.417 341.293 215.894 352.392 217.118C360.823 218.048 369.463 218.824 378.252 219.444C382.97 200.539 389.878 182.057 398.967 164.382C397.59 164.25 396.223 164.109 394.868 163.959C383.552 162.708 373.27 160.874 364.61 158.562ZM365.695 154.497C364.563 154.195 363.468 153.886 362.41 153.572C376.555 140.73 393.343 129.918 412.703 121.911L415.516 120.748C417.7 120.609 419.889 120.5 422.08 120.422L401.074 160.353C399.138 160.178 397.222 159.986 395.33 159.777C384.171 158.543 374.105 156.742 365.695 154.497ZM426.352 120.307C426.001 120.313 425.65 120.32 425.299 120.328L404.108 160.611C411.326 161.189 418.798 161.529 426.352 161.621L426.352 120.307ZM426.352 165.829C418.065 165.729 409.87 165.334 401.983 164.657C392.814 182.292 385.849 200.75 381.095 219.639C395.876 220.621 411.056 221.161 426.352 221.245L426.352 165.829Z" fill="#EAB131"/>
</g>
<mask id="mask2" mask-type="alpha" maskUnits="userSpaceOnUse" x="257" y="222" width="168" height="92">
<path d="M257.69 291.539C260.976 266.94 269.661 243.371 283.124 222.522L424.508 313.827L257.69 291.539Z" fill="#130947"/>
</mask>
<g mask="url(#mask2)">
<path fill-rule="evenodd" clip-rule="evenodd" d="M424.508 145.516C424.127 145.516 423.746 145.517 423.365 145.52C423.746 145.518 424.127 145.518 424.508 145.517L424.508 145.516ZM360.102 158.328C380.169 150.015 401.652 145.667 423.365 145.52C423.363 145.52 423.36 145.52 423.358 145.52C401.647 145.668 380.167 150.016 360.102 158.328ZM354.584 160.73C369.783 155.86 385.603 152.576 401.697 150.938C383.587 159.061 367.801 169.653 354.402 182.056C349.04 180.283 344.805 178.364 341.762 176.403C337.423 173.606 336.591 171.469 336.591 170.412C336.591 170.377 336.592 170.341 336.594 170.304C342.383 166.757 348.39 163.559 354.584 160.73ZM332.782 172.71C333.643 175.192 335.898 177.629 339.483 179.94C342.463 181.86 346.324 183.668 350.967 185.325C334.27 201.672 321.527 220.919 312.869 241.669C301.57 239.676 291.04 237.385 281.445 234.831C279.802 234.393 278.191 233.949 276.612 233.499C284.318 219.309 294.041 206.274 305.501 194.813C313.819 186.494 322.966 179.091 332.782 172.71ZM274.609 237.302C276.485 237.843 278.403 238.375 280.363 238.897C289.835 241.419 300.188 243.682 311.263 245.658C303.161 266.504 299.118 288.753 299.262 311.023H256.231C256.583 289.875 260.918 268.974 269.018 249.417C269.125 249.16 269.232 248.903 269.34 248.646C270.957 244.795 272.715 241.011 274.609 237.302ZM332.155 454.535C332.801 453.306 334.231 451.689 337.169 449.801C341.546 446.989 348.254 444.266 357.106 441.91C357.915 441.695 358.737 441.483 359.574 441.276C365.305 446.16 371.453 450.77 378.021 455.064L412.677 477.723C404.244 477.435 395.98 476.85 388.108 475.982C382.372 475.349 376.91 474.574 371.794 473.67C367.85 472.369 363.95 470.921 360.102 469.327C350.319 465.275 340.965 460.318 332.155 454.535ZM328.651 452.172C329.844 450.148 331.935 448.163 334.894 446.262C339.743 443.146 346.826 440.312 355.746 437.918C336.614 420.634 322.442 400.177 313.078 378.169C298.434 380.505 284.874 383.294 272.693 386.477C280.914 403.66 292.002 419.342 305.501 432.842C312.641 439.982 320.392 446.448 328.651 452.172ZM266.04 370.513C259.54 352.342 256.207 333.168 256.207 313.828H299.302C299.759 334.332 303.77 354.805 311.436 374.171C296.757 376.541 283.144 379.368 270.897 382.599C270.251 381.155 269.624 379.701 269.018 378.237C267.961 375.685 266.968 373.109 266.04 370.513ZM379.556 452.716C373.689 448.881 368.164 444.79 362.977 440.473C370.458 438.791 378.931 437.413 388.108 436.401C391.197 436.06 394.346 435.763 397.542 435.511L417.657 477.628L379.556 452.716ZM387.647 432.219C377.1 433.382 367.413 435.028 359.02 437.079C339.69 419.988 325.383 399.647 315.942 377.72C324.207 376.446 332.804 375.316 341.682 374.337C351.874 373.214 362.353 372.301 373.023 371.604C377.16 388.549 383.056 405.18 390.718 421.222L395.601 431.447C392.914 431.673 390.26 431.931 387.647 432.219ZM400.544 435.288L420.741 477.576L420.741 434.476C413.907 434.555 407.136 434.828 400.544 435.288ZM393.249 420.013L398.596 431.21C405.809 430.67 413.24 430.354 420.741 430.268V369.943C405.598 370.02 390.559 370.518 375.867 371.423C379.952 388.015 385.744 404.3 393.249 420.013ZM368.546 313.828C368.753 331.754 370.863 349.671 374.881 367.268C389.893 366.33 405.265 365.814 420.741 365.735L421.443 365.731L421.442 313.828H368.546ZM365.724 311.023C365.715 291.558 367.924 272.102 372.344 253.046C363.744 252.431 355.284 251.666 347.021 250.755C335.514 249.486 324.492 247.944 314.083 246.152C305.97 266.824 301.921 288.913 302.067 311.023H365.724ZM365.741 313.828C365.946 331.813 368.046 349.79 372.046 367.451C361.557 368.146 351.253 369.049 341.221 370.155C331.924 371.179 322.924 372.371 314.281 373.719C306.593 354.514 302.57 334.187 302.108 313.828H365.741ZM368.529 311.023H421.442L421.443 254.907C405.806 254.822 390.286 254.262 375.179 253.243C370.739 272.231 368.52 291.622 368.529 311.023ZM359.701 188.016C357.689 187.479 355.773 186.919 353.959 186.337C337.193 202.474 324.398 221.555 315.708 242.161C325.754 243.871 336.384 245.348 347.482 246.572C355.914 247.502 364.554 248.279 373.343 248.898C378.061 229.993 384.969 211.511 394.058 193.837C392.68 193.704 391.314 193.563 389.958 193.413C378.643 192.162 368.361 190.328 359.701 188.016ZM360.786 183.951C359.654 183.649 358.559 183.34 357.501 183.026C371.646 170.184 388.434 159.372 407.794 151.365L410.607 150.202C412.791 150.063 414.98 149.954 417.171 149.876L396.165 189.807C394.229 189.632 392.313 189.44 390.421 189.231C379.262 187.997 369.196 186.196 360.786 183.951ZM421.442 149.761C421.091 149.767 420.74 149.774 420.389 149.782L399.199 190.065C406.417 190.643 413.888 190.983 421.443 191.075L421.442 149.761ZM421.443 195.283C413.156 195.183 404.961 194.789 397.074 194.111C387.905 211.746 380.94 230.204 376.186 249.093C390.967 250.075 406.147 250.616 421.443 250.699L421.443 195.283Z" fill="#EAB131"/>
</g>
<mask id="mask3" mask-type="alpha" maskUnits="userSpaceOnUse" x="269" y="322" width="169" height="149">
<path d="M326.732 470.411C306.067 452.249 290.169 429.298 280.43 403.567C270.691 377.836 267.408 350.11 270.868 322.815L437.832 343.983L326.732 470.411Z" fill="#130947"/>
</mask>
<g mask="url(#mask3)">
<path fill-rule="evenodd" clip-rule="evenodd" d="M437.832 175.672C437.451 175.672 437.07 175.673 436.689 175.676C437.07 175.675 437.451 175.674 437.832 175.673L437.832 175.672ZM373.426 188.484C393.493 180.171 414.977 175.823 436.689 175.676C436.687 175.676 436.685 175.676 436.682 175.676C414.972 175.824 393.491 180.172 373.426 188.484ZM367.909 190.886C383.107 186.017 398.927 182.732 415.021 181.095C396.911 189.217 381.126 199.809 367.726 212.212C362.365 210.439 358.129 208.52 355.086 206.559C350.747 203.762 349.915 201.625 349.915 200.568C349.915 200.534 349.916 200.498 349.918 200.46C355.707 196.914 361.715 193.715 367.909 190.886ZM346.106 202.866C346.968 205.348 349.222 207.785 352.807 210.096C355.787 212.016 359.649 213.825 364.292 215.481C347.595 231.828 334.852 251.075 326.194 271.826C314.895 269.832 304.364 267.541 294.77 264.987C293.126 264.55 291.515 264.106 289.936 263.655C297.642 249.465 307.365 236.431 318.826 224.969C327.144 216.651 336.29 209.247 346.106 202.866ZM287.933 267.458C289.809 268 291.727 268.532 293.687 269.053C303.16 271.575 313.512 273.838 324.587 275.814C316.485 296.661 312.442 318.909 312.586 341.179H269.555C269.907 320.031 274.243 299.13 282.343 279.573C282.449 279.316 282.556 279.059 282.664 278.802C284.282 274.951 286.039 271.168 287.933 267.458ZM345.479 484.691C346.125 483.462 347.556 481.846 350.493 479.958C354.87 477.145 361.578 474.423 370.431 472.066C371.239 471.851 372.061 471.64 372.898 471.432C378.629 476.317 384.777 480.926 391.345 485.221L426.001 507.879C417.568 507.591 409.305 507.006 401.432 506.138C395.696 505.506 390.235 504.73 385.119 503.826C381.175 502.526 377.274 501.077 373.426 499.483C363.643 495.431 354.289 490.474 345.479 484.691ZM341.976 482.328C343.168 480.304 345.26 478.32 348.219 476.418C353.067 473.302 360.15 470.468 369.071 468.074C349.938 450.79 335.766 430.333 326.402 408.325C311.758 410.662 298.198 413.45 286.017 416.634C294.239 433.816 305.327 449.498 318.826 462.998C325.965 470.138 333.716 476.604 341.976 482.328ZM279.364 400.67C272.864 382.498 269.532 363.324 269.531 343.984H312.626C313.083 364.488 317.094 384.961 324.761 404.327C310.081 406.697 296.468 409.524 284.221 412.755C283.575 411.311 282.949 409.857 282.343 408.394C281.285 405.841 280.292 403.266 279.364 400.67ZM392.88 482.873C387.014 479.037 381.488 474.946 376.301 470.629C383.782 468.947 392.255 467.569 401.432 466.557C404.521 466.217 407.67 465.92 410.866 465.667L430.982 507.784L392.88 482.873ZM400.971 462.375C390.424 463.538 380.737 465.184 372.344 467.235C353.014 450.144 338.707 429.804 329.267 407.876C337.531 406.603 346.128 405.472 355.006 404.493C365.199 403.37 375.677 402.457 386.347 401.76C390.484 418.705 396.38 435.336 404.042 451.378L408.926 461.604C406.238 461.83 403.584 462.087 400.971 462.375ZM413.868 465.444L434.065 507.732L434.065 464.632C427.231 464.711 420.46 464.984 413.868 465.444ZM406.573 450.169L411.921 461.366C419.134 460.827 426.564 460.51 434.065 460.424V400.099C418.922 400.177 403.883 400.675 389.191 401.579C393.276 418.172 399.068 434.456 406.573 450.169ZM381.87 343.984C382.077 361.91 384.187 379.827 388.206 397.425C403.218 396.486 418.589 395.97 434.065 395.891L434.767 395.888L434.767 343.984H381.87ZM379.048 341.179C379.039 321.714 381.248 302.259 385.669 283.202C377.068 282.587 368.608 281.822 360.346 280.911C348.838 279.642 337.817 278.1 327.407 276.308C319.294 296.981 315.245 319.069 315.391 341.179H379.048ZM379.065 343.984C379.271 361.969 381.37 379.946 385.37 397.607C374.882 398.303 364.577 399.205 354.545 400.311C345.248 401.336 336.248 402.527 327.605 403.876C319.918 384.67 315.894 364.343 315.432 343.984H379.065ZM381.853 341.179H434.767L434.767 285.064C419.131 284.978 403.61 284.418 388.503 283.399C384.063 302.387 381.844 321.778 381.853 341.179ZM373.025 218.173C371.013 217.636 369.097 217.075 367.284 216.493C350.517 232.63 337.722 251.711 329.032 272.317C339.078 274.027 349.708 275.505 360.807 276.729C369.238 277.658 377.878 278.435 386.667 279.055C391.385 260.15 398.293 241.668 407.382 223.993C406.005 223.86 404.638 223.719 403.283 223.569C391.967 222.318 381.685 220.484 373.025 218.173ZM374.11 214.107C372.978 213.805 371.883 213.497 370.825 213.183C384.97 200.34 401.758 189.529 421.118 181.521L423.931 180.358C426.115 180.219 428.304 180.11 430.495 180.032L409.489 219.963C407.553 219.788 405.637 219.596 403.745 219.387C392.586 218.153 382.52 216.352 374.11 214.107ZM434.767 179.918C434.416 179.924 434.065 179.931 433.714 179.939L412.523 220.221C419.741 220.799 427.213 221.139 434.767 221.231L434.767 179.918ZM434.767 225.439C426.48 225.339 418.285 224.945 410.398 224.267C401.229 241.902 394.264 260.36 389.51 279.249C404.291 280.231 419.471 280.772 434.767 280.856L434.767 225.439Z" fill="#EAB131"/>
</g>
<mask id="mask4" mask-type="alpha" maskUnits="userSpaceOnUse" x="347" y="353" width="114" height="169">
<path d="M460.272 521.412C418.598 521.412 378.406 505.949 347.476 478.017L460.272 353.1L460.272 521.412Z" fill="#130947"/>
</mask>
<g mask="url(#mask4)">
<path fill-rule="evenodd" clip-rule="evenodd" d="M460.272 184.79C459.89 184.791 459.508 184.791 459.126 184.793C437.414 184.941 415.933 189.289 395.867 197.601C394.012 198.369 392.172 199.17 390.349 200.003C405.547 195.133 421.368 191.849 437.461 190.211C419.352 198.334 403.566 208.926 390.166 221.329C384.805 219.556 380.57 217.637 377.527 215.676C373.187 212.879 372.356 210.742 372.356 209.685C372.356 209.65 372.357 209.614 372.358 209.577C371.077 210.362 369.806 211.164 368.546 211.983C369.408 214.465 371.662 216.902 375.248 219.213C378.227 221.133 382.089 222.941 386.732 224.598C370.035 240.945 357.292 260.192 348.634 280.942C337.335 278.949 326.804 276.658 317.21 274.104C315.567 273.666 313.955 273.222 312.376 272.772C311.693 274.031 311.025 275.298 310.373 276.575C312.249 277.116 314.168 277.648 316.128 278.17C325.6 280.692 335.953 282.955 347.027 284.931C338.926 305.777 334.882 328.026 335.026 350.296H291.995C291.98 351.23 291.972 352.165 291.972 353.1C291.972 353.101 291.972 353.101 291.972 353.101H335.067C335.523 373.605 339.535 394.078 347.201 413.444C332.521 415.814 318.909 418.641 306.662 421.872C307.244 423.173 307.843 424.466 308.458 425.751C320.639 422.567 334.199 419.779 348.843 417.442C354.333 430.347 361.477 442.719 370.305 454.23L372.216 452.103C363.83 441.095 357.003 429.294 351.707 416.993C359.971 415.72 368.568 414.589 377.447 413.61C387.639 412.487 398.117 411.574 408.788 410.877C408.821 411.014 408.855 411.151 408.889 411.288L413.299 406.38C412.413 406.433 411.529 406.486 410.646 406.542C406.628 388.944 404.518 371.027 404.311 353.101H457.207L457.207 357.512L460.272 354.1L460.272 353.1L460.272 184.79ZM407.559 512.943C412.675 513.847 418.136 514.622 423.873 515.255C431.745 516.123 440.008 516.708 448.441 516.996L413.786 494.337C407.217 490.043 401.069 485.434 395.338 480.549C394.502 480.756 393.679 480.968 392.871 481.183C384.018 483.539 377.31 486.262 372.934 489.075C369.996 490.962 368.565 492.579 367.92 493.808C376.729 499.591 386.084 504.548 395.867 508.6C399.715 510.194 403.615 511.643 407.559 512.943ZM364.416 491.445C365.608 489.421 367.7 487.436 370.659 485.535C375.507 482.419 382.591 479.585 391.511 477.191C383.598 470.042 376.533 462.35 370.305 454.23L348.283 478.741C353.403 483.305 358.791 487.547 364.416 491.445ZM457.207 357.512L457.207 405.004L456.506 405.008C441.94 405.082 427.467 405.544 413.299 406.38L457.207 357.512ZM408.889 411.288L372.216 452.103C378.78 460.719 386.298 468.849 394.785 476.352C403.177 474.301 412.865 472.655 423.412 471.492C426.024 471.204 428.678 470.946 431.366 470.721L426.482 460.495C418.883 444.583 413.02 428.092 408.889 411.288ZM415.321 491.99C409.454 488.154 403.929 484.063 398.741 479.746C406.223 478.064 414.696 476.686 423.873 475.674C426.962 475.334 430.111 475.037 433.307 474.784L453.422 516.901L415.321 491.99ZM436.309 474.561L456.506 516.849L456.506 473.749C449.672 473.828 442.901 474.101 436.309 474.561ZM429.013 459.286L434.361 470.483C441.574 469.944 449.005 469.627 456.506 469.541V409.216C441.362 409.294 426.324 409.792 411.632 410.696C415.717 427.289 421.509 443.573 429.013 459.286ZM401.489 350.296C401.48 330.831 403.689 311.376 408.109 292.319C399.508 291.704 391.049 290.939 382.786 290.028C371.279 288.759 360.257 287.217 349.848 285.425C341.735 306.097 337.686 328.186 337.832 350.296H401.489ZM401.506 353.101C401.711 371.086 403.811 389.063 407.811 406.724C397.322 407.42 387.018 408.322 376.986 409.428C367.688 410.452 358.689 411.644 350.046 412.992C342.358 393.787 338.334 373.46 337.873 353.101H401.506ZM404.294 350.296H457.207L457.207 294.18C441.571 294.095 426.05 293.535 410.943 292.516C406.504 311.504 404.285 330.895 404.294 350.296ZM395.465 227.29C393.453 226.752 391.538 226.192 389.724 225.61C372.957 241.747 360.162 260.828 351.472 281.434C361.519 283.144 372.148 284.622 383.247 285.845C391.679 286.775 400.319 287.552 409.107 288.171C413.826 269.266 420.733 250.784 429.822 233.11C428.445 232.977 427.078 232.836 425.723 232.686C414.407 231.435 404.126 229.601 395.465 227.29ZM396.55 223.224C395.418 222.922 394.323 222.613 393.266 222.3C407.41 209.457 424.199 198.645 443.559 190.638L446.371 189.475C448.556 189.336 450.744 189.227 452.936 189.149L431.93 229.08C429.994 228.905 428.078 228.713 426.185 228.504C415.027 227.27 404.961 225.469 396.55 223.224ZM457.207 189.034C456.856 189.041 456.505 189.048 456.154 189.055L434.963 229.338C442.182 229.916 449.653 230.256 457.207 230.348L457.207 189.034ZM457.207 234.556C448.92 234.456 440.725 234.062 432.838 233.384C423.67 251.019 416.705 269.477 411.951 288.366C426.732 289.348 441.912 289.889 457.207 289.972L457.207 234.556Z" fill="#EAB131"/>
</g>
<path d="M250.071 611.464V592.168H266.583C270.039 592.168 272.631 592.936 274.359 594.472C276.087 595.944 276.951 598.344 276.951 601.672C276.951 605.128 276.087 607.624 274.359 609.16C272.631 610.696 270.039 611.464 266.583 611.464H250.071ZM234.999 580.456V649H250.071V622.216H265.143C268.919 622.216 271.639 623.048 273.303 624.712C274.967 626.376 276.055 629 276.567 632.584C276.951 635.336 277.239 638.216 277.431 641.224C277.623 644.232 278.135 646.824 278.967 649H294.039C293.335 648.04 292.791 646.888 292.407 645.544C292.087 644.136 291.831 642.664 291.639 641.128C291.511 639.592 291.415 638.088 291.351 636.616C291.287 635.144 291.223 633.864 291.159 632.776C291.031 631.048 290.775 629.32 290.391 627.592C290.071 625.864 289.527 624.296 288.759 622.888C287.991 621.416 286.999 620.168 285.783 619.144C284.567 618.056 283.031 617.256 281.175 616.744V616.552C285.015 615.016 287.767 612.776 289.431 609.832C291.159 606.888 292.023 603.4 292.023 599.368C292.023 596.744 291.543 594.312 290.583 592.072C289.687 589.768 288.343 587.752 286.551 586.024C284.823 584.296 282.711 582.952 280.215 581.992C277.783 580.968 275.031 580.456 271.959 580.456H234.999ZM311.48 580.456V649H363.512V636.328H326.552V619.528H359.768V607.816H326.552V593.128H362.744V580.456H311.48ZM396.002 636.328V593.128H406.754C410.466 593.128 413.57 593.672 416.066 594.76C418.626 595.784 420.674 597.288 422.21 599.272C423.746 601.256 424.834 603.656 425.474 606.472C426.178 609.224 426.53 612.328 426.53 615.784C426.53 619.56 426.05 622.76 425.09 625.384C424.13 628.008 422.85 630.152 421.25 631.816C419.65 633.416 417.826 634.568 415.778 635.272C413.73 635.976 411.618 636.328 409.442 636.328H396.002ZM380.93 580.456V649H410.498C415.746 649 420.29 648.136 424.13 646.408C428.034 644.616 431.266 642.184 433.826 639.112C436.45 636.04 438.402 632.392 439.682 628.168C440.962 623.944 441.602 619.336 441.602 614.344C441.602 608.648 440.802 603.688 439.202 599.464C437.666 595.24 435.49 591.72 432.674 588.904C429.922 586.088 426.626 583.976 422.786 582.568C419.01 581.16 414.914 580.456 410.498 580.456H380.93ZM517.463 623.08V580.456H502.391V623.08C502.391 628.2 501.367 631.976 499.319 634.408C497.271 636.776 493.559 637.96 488.183 637.96C485.111 637.96 482.647 637.544 480.791 636.712C478.999 635.816 477.591 634.696 476.567 633.352C475.543 631.944 474.871 630.344 474.551 628.552C474.231 626.76 474.071 624.936 474.071 623.08V580.456H458.999V623.08C458.999 632.424 461.527 639.336 466.583 643.816C471.703 648.296 478.903 650.536 488.183 650.536C497.335 650.536 504.503 648.296 509.687 643.816C514.871 639.272 517.463 632.36 517.463 623.08ZM583.339 603.496H597.931C597.483 599.528 596.395 596.008 594.667 592.936C592.939 589.864 590.731 587.304 588.043 585.256C585.419 583.144 582.411 581.544 579.019 580.456C575.691 579.368 572.139 578.824 568.363 578.824C563.115 578.824 558.379 579.752 554.155 581.608C549.995 583.464 546.475 586.024 543.595 589.288C540.715 592.552 538.507 596.392 536.971 600.808C535.435 605.16 534.667 609.896 534.667 615.016C534.667 620.008 535.435 624.68 536.971 629.032C538.507 633.32 540.715 637.064 543.595 640.264C546.475 643.464 549.995 645.992 554.155 647.848C558.379 649.64 563.115 650.536 568.363 650.536C572.587 650.536 576.459 649.896 579.979 648.616C583.499 647.336 586.571 645.48 589.195 643.048C591.819 640.616 593.931 637.672 595.531 634.216C597.131 630.76 598.123 626.888 598.507 622.6H583.915C583.339 627.208 581.739 630.92 579.115 633.736C576.555 636.552 572.971 637.96 568.363 637.96C564.971 637.96 562.091 637.32 559.723 636.04C557.355 634.696 555.435 632.936 553.963 630.76C552.491 628.584 551.403 626.152 550.699 623.464C550.059 620.712 549.739 617.896 549.739 615.016C549.739 612.008 550.059 609.096 550.699 606.28C551.403 603.464 552.491 600.968 553.963 598.792C555.435 596.552 557.355 594.792 559.723 593.512C562.091 592.168 564.971 591.496 568.363 591.496C570.219 591.496 571.979 591.816 573.643 592.456C575.371 593.032 576.907 593.864 578.251 594.952C579.595 596.04 580.715 597.32 581.611 598.792C582.507 600.2 583.083 601.768 583.339 603.496ZM615.999 580.456V649H668.031V636.328H631.071V619.528H664.287V607.816H631.071V593.128H667.263V580.456H615.999ZM239.43 753.328V710.128H250.182C253.894 710.128 256.998 710.672 259.494 711.76C262.054 712.784 264.102 714.288 265.638 716.272C267.174 718.256 268.262 720.656 268.902 723.472C269.606 726.224 269.958 729.328 269.958 732.784C269.958 736.56 269.478 739.76 268.518 742.384C267.558 745.008 266.278 747.152 264.678 748.816C263.078 750.416 261.254 751.568 259.206 752.272C257.158 752.976 255.046 753.328 252.87 753.328H239.43ZM224.358 697.456V766H253.926C259.174 766 263.718 765.136 267.558 763.408C271.462 761.616 274.694 759.184 277.254 756.112C279.878 753.04 281.83 749.392 283.11 745.168C284.39 740.944 285.03 736.336 285.03 731.344C285.03 725.648 284.23 720.688 282.63 716.464C281.094 712.24 278.918 708.72 276.102 705.904C273.35 703.088 270.054 700.976 266.214 699.568C262.438 698.16 258.342 697.456 253.926 697.456H224.358ZM302.715 697.456V766H354.747V753.328H317.787V736.528H351.003V724.816H317.787V710.128H353.979V697.456H302.715ZM372.165 697.456V766H386.277V717.904H386.469L403.269 766H414.885L431.685 717.424H431.877V766H445.989V697.456H424.773L409.605 744.592H409.413L393.381 697.456H372.165ZM483.738 739.504L492.666 714.352H492.858L501.498 739.504H483.738ZM485.178 697.456L459.258 766H474.426L479.802 750.736H505.434L510.618 766H526.266L500.634 697.456H485.178ZM539.377 697.456V766H553.489V720.112H553.681L582.193 766H597.265V697.456H583.153V743.44H582.961L554.353 697.456H539.377ZM632.805 753.328V710.128H643.557C647.269 710.128 650.373 710.672 652.869 711.76C655.429 712.784 657.477 714.288 659.013 716.272C660.549 718.256 661.637 720.656 662.277 723.472C662.981 726.224 663.333 729.328 663.333 732.784C663.333 736.56 662.853 739.76 661.893 742.384C660.933 745.008 659.653 747.152 658.053 748.816C656.453 750.416 654.629 751.568 652.581 752.272C650.533 752.976 648.421 753.328 646.245 753.328H632.805ZM617.733 697.456V766H647.301C652.549 766 657.093 765.136 660.933 763.408C664.837 761.616 668.069 759.184 670.629 756.112C673.253 753.04 675.205 749.392 676.485 745.168C677.765 740.944 678.405 736.336 678.405 731.344C678.405 725.648 677.605 720.688 676.005 716.464C674.469 712.24 672.293 708.72 669.477 705.904C666.725 703.088 663.429 700.976 659.589 699.568C655.813 698.16 651.717 697.456 647.301 697.456H617.733Z" fill="white"/>
</svg>
