<svg width="900" height="900" viewBox="0 0 900 900" fill="none" xmlns="http://www.w3.org/2000/svg">
<path fill-rule="evenodd" clip-rule="evenodd" d="M484.731 177.545C482.663 177.427 480.591 177.337 478.517 177.274C484.469 189.343 489.718 201.666 494.263 214.184C498.4 213.899 502.463 213.537 506.421 213.1C514.755 212.178 522.459 210.94 529.297 209.441C516.645 196.991 501.771 186.166 484.731 177.545ZM471.389 172.056L471.389 172.056L471.389 250.76L471.389 225.867V220.958H471.389V214.958L471.389 196.062V177.166L471.389 172.056ZM490.099 214.443C486.34 204.194 482.103 194.079 477.389 184.13L477.389 214.906C481.668 214.831 485.915 214.676 490.099 214.443ZM477.389 220.907C482.381 220.821 487.334 220.628 492.201 220.331C498.278 237.832 502.974 255.699 506.284 273.768C496.753 274.209 487.097 274.469 477.389 274.545V225.867V220.907ZM477.389 280.545C487.446 280.467 497.451 280.193 507.324 279.726C510.386 298.177 512.009 316.819 512.19 335.478H477.389V280.545ZM471.389 335.478V280.569H471.389L471.389 335.478H471.389ZM471.389 339.478L471.389 479.308L471.389 461.893V455.893L471.389 449.582V397.374V391.374L471.389 346.14V339.478H471.389ZM477.389 339.478H512.206C512.182 357.099 510.87 374.725 508.268 392.207C498.078 391.743 487.759 391.472 477.389 391.396L477.389 346.14V339.478ZM516.206 339.478C516.182 357.163 514.876 374.852 512.283 392.4C526.925 393.141 541.28 394.28 555.116 395.805C560.754 396.426 566.281 397.109 571.687 397.85C578.436 379.001 581.891 359.24 582.138 339.478H516.206ZM586.139 339.478C585.896 359.424 582.456 379.37 575.736 398.42C593.777 401.025 610.383 404.296 625.046 408.145C625.676 406.735 626.287 405.316 626.878 403.888C635.336 383.467 639.689 361.581 639.689 339.478L586.139 339.478ZM639.642 335.478H586.145C585.949 314.267 582.142 293.125 574.827 273.131C590.073 270.766 604.145 267.883 616.676 264.547C618.29 264.117 619.876 263.681 621.433 263.238C623.397 267.103 625.214 271.049 626.878 275.068C634.825 294.256 639.149 314.738 639.642 335.478ZM582.144 335.478H516.19C516.011 316.753 514.394 298.045 511.345 279.525C524.558 278.827 537.513 277.784 550.017 276.405C557.136 275.62 564.069 274.73 570.786 273.742C578.126 293.52 581.947 314.464 582.144 335.478ZM477.389 397.396C487.444 397.47 497.448 397.729 507.329 398.171C504.056 417.893 499.132 437.41 492.554 456.513C488.224 456.256 483.83 456.079 479.402 455.981C478.732 455.967 478.06 455.954 477.389 455.943L477.389 449.582V397.396ZM554.459 401.769C540.547 400.236 526.098 399.095 511.352 398.361C508.101 418.104 503.215 437.648 496.69 456.783C500.765 457.074 504.775 457.437 508.69 457.869C509.43 457.95 510.164 458.034 510.895 458.12C518.363 459.002 525.375 460.128 531.77 461.471C548.615 444.324 561.154 424.604 569.51 403.61C564.595 402.947 559.574 402.332 554.459 401.769ZM479.363 461.982C483.097 462.065 486.805 462.206 490.468 462.404C486.62 472.977 482.261 483.414 477.389 493.679L477.389 481.841V461.943C478.047 461.954 478.705 461.967 479.363 461.982ZM504.35 500.233C498.243 500.829 491.925 501.257 485.495 501.512L503.35 489.838C513.67 483.09 523.003 475.604 531.36 467.518C533.949 468.075 536.423 468.667 538.77 469.292C539.318 469.437 539.857 469.585 540.387 469.733C548.342 471.959 554.305 474.456 558.199 476.959C558.373 477.071 558.539 477.18 558.7 477.289C561.112 478.912 562.132 480.171 562.559 480.955C554.096 486.409 545.141 491.106 535.794 494.978C535.458 495.117 535.122 495.255 534.785 495.392C526.951 497.247 517.914 498.761 508.033 499.85C506.814 499.985 505.586 500.112 504.35 500.233ZM501.161 486.49C510.444 480.42 518.91 473.74 526.569 466.554C521.467 465.593 515.984 464.763 510.195 464.079C509.479 463.995 508.758 463.912 508.033 463.832C503.675 463.352 499.195 462.959 494.631 462.655C490.543 474.004 485.872 485.2 480.619 496.2L478.035 501.611L501.161 486.49ZM540.313 463.493C539.027 463.151 537.706 462.818 536.352 462.496C552.96 445.127 565.335 425.269 573.595 404.175C591.507 406.719 607.959 409.918 622.456 413.67C614.315 430.249 603.489 445.397 590.395 458.492C583.345 465.543 575.699 471.936 567.556 477.606C566.42 475.779 564.55 473.985 561.969 472.256C561.797 472.141 561.621 472.026 561.443 471.912C556.851 468.96 550.253 466.262 541.988 463.951C541.437 463.796 540.879 463.644 540.313 463.493ZM615.132 258.749C602.484 262.116 588.185 265.026 572.621 267.4C564.694 247.79 553.322 229.413 538.604 213.322C546.67 211.084 553.099 208.461 557.556 205.59C560.854 203.464 563.026 201.231 564.023 198.956C573.495 205.2 582.334 212.402 590.395 220.464C601.496 231.565 610.966 244.142 618.553 257.816C617.429 258.13 616.289 258.441 615.132 258.749ZM507.08 219.063C517.059 217.96 526.233 216.404 534.201 214.466C549.067 230.324 560.548 248.533 568.545 268.005C562.332 268.903 555.93 269.717 549.36 270.441C536.747 271.832 523.664 272.879 510.314 273.57C507.027 255.478 502.366 237.585 496.337 220.051C499.982 219.781 503.57 219.451 507.08 219.063ZM535.791 207.869C535.166 208.036 534.532 208.201 533.889 208.362C522.583 196.92 509.483 186.766 494.628 178.318C512.955 180.14 530.927 184.114 548.022 190.144C549.08 190.517 550.134 190.898 551.183 191.286C553.641 192.61 556.066 193.994 558.453 195.438C558.637 195.809 558.655 196.024 558.655 196.062C558.655 196.176 558.497 197.845 554.306 200.546C550.363 203.087 544.167 205.633 535.791 207.869Z" fill="#5C95A9"/>
<mask id="mask0" mask-type="alpha" maskUnits="userSpaceOnUse" x="414" y="136" width="45" height="170">
<path d="M414.489 142.731C428.945 138.788 443.863 136.794 458.847 136.801L458.767 305.113L414.489 142.731Z" fill="#130947"/>
</mask>
<g mask="url(#mask0)">
<path fill-rule="evenodd" clip-rule="evenodd" d="M290.489 302.309H333.521C333.376 280.039 337.42 257.79 345.521 236.944C334.447 234.968 324.094 232.705 314.622 230.183C312.662 229.661 310.743 229.13 308.868 228.588C306.848 232.545 304.982 236.586 303.277 240.703C295.177 260.26 290.842 281.161 290.489 302.309ZM310.87 224.785C312.449 225.235 314.061 225.68 315.704 226.117C325.299 228.671 335.829 230.962 347.128 232.956C355.786 212.205 368.529 192.958 385.226 176.611C380.583 174.955 376.721 173.146 373.742 171.226C370.157 168.915 367.902 166.478 367.04 163.996C357.225 170.377 348.078 177.781 339.76 186.099C328.299 197.56 318.576 210.595 310.87 224.785ZM388.843 152.016C382.649 154.845 376.642 158.044 370.853 161.59C370.851 161.627 370.85 161.663 370.85 161.698C370.85 162.755 371.682 164.892 376.021 167.689C379.064 169.65 383.299 171.569 388.661 173.342C402.06 160.939 417.846 150.347 435.956 142.224C419.862 143.862 404.041 147.146 388.843 152.016ZM457.618 136.806C458.001 136.805 458.384 136.804 458.767 136.803L458.767 136.802C458.384 136.802 458.001 136.803 457.618 136.806ZM290.466 305.114C290.466 327.217 294.819 349.103 303.277 369.523C303.883 370.987 304.51 372.441 305.156 373.885C317.403 370.654 331.015 367.827 345.695 365.457C338.029 346.091 334.018 325.618 333.561 305.114H290.466ZM306.952 377.764C319.133 374.58 332.693 371.792 347.337 369.455C356.701 391.463 370.873 411.92 390.005 429.204C381.085 431.598 374.002 434.432 369.153 437.548C366.194 439.449 364.103 441.434 362.91 443.458C354.65 437.734 346.9 431.268 339.76 424.128C326.261 410.628 315.173 394.946 306.952 377.764ZM366.414 445.821C367.059 444.592 368.49 442.976 371.428 441.088C375.805 438.275 382.512 435.552 391.365 433.196C392.173 432.981 392.996 432.769 393.833 432.562C399.563 437.447 405.711 442.056 412.28 446.351L446.935 469.009C438.503 468.721 430.239 468.136 422.367 467.268C416.631 466.636 411.169 465.86 406.053 464.956C402.109 463.656 398.209 462.207 394.361 460.613C384.578 456.561 375.223 451.604 366.414 445.821ZM440.81 472.464C445.327 472.819 449.892 473 454.5 473C455.926 473 457.348 472.982 458.767 472.948L458.767 473.425C452.757 473.425 446.763 473.103 440.81 472.464ZM413.815 444.003C407.948 440.167 402.423 436.076 397.236 431.759C404.717 430.077 413.19 428.699 422.367 427.687C425.456 427.347 428.605 427.05 431.801 426.797L451.916 468.914L413.815 444.003ZM421.906 423.505C411.359 424.668 401.672 426.314 393.279 428.365C373.949 411.274 359.641 390.934 350.201 369.006C358.465 367.733 367.063 366.602 375.941 365.623C386.133 364.5 396.611 363.587 407.282 362.89C411.418 379.835 417.315 396.466 424.976 412.508L429.86 422.734C427.172 422.959 424.518 423.217 421.906 423.505ZM434.803 426.574L455 468.862L455 425.762C448.166 425.841 441.395 426.114 434.803 426.574ZM427.508 411.299L432.855 422.496C440.068 421.957 447.499 421.64 455 421.554V361.229C439.857 361.307 424.818 361.805 410.126 362.709C414.211 379.302 420.003 395.586 427.508 411.299ZM402.805 305.114C403.012 323.04 405.122 340.957 409.14 358.555C424.152 357.616 439.524 357.1 455 357.021L455.701 357.018L455.701 305.114H402.805ZM399.983 302.309C399.974 282.844 402.183 263.389 406.603 244.332C398.003 243.717 389.543 242.952 381.28 242.041C369.773 240.772 358.751 239.23 348.342 237.438C340.229 258.111 336.18 280.199 336.326 302.309H399.983ZM400 305.114C400.205 323.099 402.305 341.076 406.305 358.737C395.816 359.433 385.512 360.335 375.48 361.441C366.183 362.465 357.183 363.657 348.54 365.005C340.852 345.8 336.829 325.473 336.367 305.114H400ZM402.788 302.309H455.701L455.701 246.193C440.065 246.108 424.544 245.548 409.437 244.529C404.998 263.517 402.779 282.908 402.788 302.309ZM393.959 179.303C391.947 178.766 390.032 178.205 388.218 177.623C371.452 193.76 358.657 212.841 349.966 233.447C360.013 235.157 370.643 236.635 381.741 237.859C390.173 238.788 398.813 239.565 407.602 240.184C412.32 221.279 419.228 202.797 428.317 185.123C426.939 184.99 425.572 184.849 424.217 184.699C412.902 183.448 402.62 181.614 393.959 179.303ZM395.044 175.237C393.912 174.935 392.817 174.627 391.76 174.313C405.904 161.47 422.693 150.659 442.053 142.651L444.865 141.488C447.05 141.349 449.238 141.24 451.43 141.162L430.424 181.093C428.488 180.918 426.572 180.726 424.68 180.517C413.521 179.283 403.455 177.482 395.044 175.237ZM455.701 141.047C455.35 141.054 454.999 141.061 454.648 141.068L433.458 181.351C440.676 181.929 448.147 182.269 455.701 182.361L455.701 141.047ZM455.701 186.569C447.414 186.469 439.219 186.075 431.332 185.397C422.164 203.032 415.199 221.49 410.445 240.379C425.226 241.361 440.406 241.902 455.701 241.986L455.701 186.569Z" fill="#5C95A9"/>
</g>
<mask id="mask1" mask-type="alpha" maskUnits="userSpaceOnUse" x="289" y="122" width="143" height="162">
<path d="M289.862 192.333C311.599 158.531 344.712 133.623 383.214 122.112L431.417 283.373L289.862 192.333Z" fill="#130947"/>
</mask>
<g mask="url(#mask1)">
<path fill-rule="evenodd" clip-rule="evenodd" d="M431.417 115.062C431.036 115.062 430.655 115.063 430.274 115.065C430.655 115.064 431.036 115.063 431.417 115.063L431.417 115.062ZM367.011 127.873C387.078 119.561 408.562 115.213 430.274 115.065C430.272 115.065 430.27 115.065 430.267 115.065C408.557 115.214 387.076 119.562 367.011 127.873ZM361.494 130.275C376.692 125.406 392.512 122.122 408.606 120.484C390.496 128.607 374.71 139.199 361.311 151.602C355.949 149.829 351.714 147.91 348.671 145.948C344.332 143.152 343.5 141.015 343.5 139.958C343.5 139.923 343.501 139.887 343.503 139.85C349.292 136.303 355.3 133.105 361.494 130.275ZM339.691 142.256C340.553 144.738 342.807 147.175 346.392 149.485C349.372 151.406 353.233 153.214 357.877 154.871C341.18 171.218 328.437 190.465 319.779 211.215C308.48 209.222 297.949 206.931 288.355 204.377C286.711 203.939 285.1 203.495 283.521 203.045C291.227 188.855 300.95 175.82 312.411 164.359C320.729 156.04 329.875 148.637 339.691 142.256ZM281.518 206.848C283.394 207.389 285.312 207.921 287.272 208.443C296.745 210.965 307.097 213.228 318.172 215.204C310.07 236.05 306.027 258.298 306.171 280.569H263.14C263.492 259.421 267.828 238.519 275.928 218.963C276.034 218.706 276.141 218.449 276.249 218.192C277.867 214.341 279.624 210.557 281.518 206.848ZM339.064 424.081C339.71 422.852 341.141 421.235 344.078 419.347C348.455 416.535 355.163 413.812 364.016 411.456C364.824 411.24 365.646 411.029 366.483 410.822C372.214 415.706 378.362 420.316 384.93 424.61L419.586 447.269C411.153 446.98 402.89 446.396 395.017 445.528C389.281 444.895 383.82 444.12 378.704 443.216C374.76 441.915 370.859 440.467 367.011 438.873C357.228 434.82 347.874 429.864 339.064 424.081ZM335.561 421.718C336.753 419.693 338.845 417.709 341.804 415.807C346.652 412.692 353.735 409.857 362.656 407.464C343.523 390.179 329.351 369.723 319.987 347.715C305.343 350.051 291.783 352.84 279.602 356.023C287.823 373.205 298.912 388.888 312.41 402.387C319.55 409.528 327.301 415.994 335.561 421.718ZM272.949 340.059C266.449 321.888 263.116 302.714 263.116 283.374H306.211C306.668 303.878 310.679 324.351 318.346 343.717C303.666 346.087 290.053 348.914 277.806 352.145C277.16 350.701 276.534 349.247 275.928 347.783C274.87 345.231 273.877 342.655 272.949 340.059ZM386.465 422.262C380.599 418.427 375.073 414.336 369.886 410.019C377.367 408.337 385.84 406.959 395.017 405.947C398.106 405.606 401.255 405.309 404.451 405.057L424.567 447.174L386.465 422.262ZM394.556 401.764C384.009 402.927 374.322 404.573 365.929 406.625C346.599 389.534 332.292 369.193 322.851 347.266C331.116 345.992 339.713 344.861 348.591 343.883C358.784 342.76 369.262 341.847 379.932 341.15C384.069 358.095 389.965 374.726 397.627 390.768L402.511 400.993C399.823 401.219 397.169 401.476 394.556 401.764ZM407.453 404.834L427.65 447.122L427.65 404.022C420.816 404.101 414.045 404.374 407.453 404.834ZM400.158 389.559L405.506 400.756C412.719 400.216 420.149 399.9 427.65 399.813V339.488C412.507 339.566 397.468 340.064 382.776 340.969C386.861 357.561 392.653 373.846 400.158 389.559ZM375.455 283.374C375.662 301.3 377.772 319.217 381.791 336.814C396.802 335.876 412.174 335.36 427.65 335.281L428.352 335.277L428.352 283.374H375.455ZM372.633 280.569C372.624 261.104 374.833 241.648 379.254 222.592C370.653 221.977 362.193 221.212 353.93 220.301C342.423 219.032 331.402 217.49 320.992 215.698C312.879 236.37 308.83 258.459 308.976 280.569H372.633ZM372.65 283.374C372.856 301.359 374.955 319.336 378.955 336.997C368.467 337.692 358.162 338.595 348.13 339.701C338.833 340.725 329.833 341.917 321.19 343.265C313.503 324.059 309.479 303.733 309.017 283.374H372.65ZM375.438 280.569H428.352L428.352 224.453C412.715 224.368 397.195 223.808 382.088 222.789C377.648 241.776 375.429 261.168 375.438 280.569ZM366.61 157.562C364.598 157.025 362.682 156.465 360.869 155.883C344.102 172.02 331.307 191.101 322.617 211.707C332.663 213.417 343.293 214.894 354.392 216.118C362.823 217.048 371.463 217.824 380.252 218.444C384.97 199.539 391.878 181.057 400.967 163.382C399.59 163.25 398.223 163.109 396.868 162.959C385.552 161.708 375.27 159.874 366.61 157.562ZM367.695 153.497C366.563 153.195 365.468 152.886 364.41 152.572C378.555 139.73 395.343 128.918 414.703 120.911L417.516 119.748C419.7 119.609 421.889 119.5 424.08 119.422L403.074 159.353C401.138 159.178 399.222 158.986 397.33 158.777C386.171 157.543 376.105 155.742 367.695 153.497ZM428.352 119.307C428.001 119.313 427.65 119.32 427.299 119.328L406.108 159.611C413.326 160.189 420.798 160.529 428.352 160.621L428.352 119.307ZM428.352 164.829C420.065 164.729 411.87 164.334 403.983 163.657C394.814 181.292 387.849 199.75 383.095 218.639C397.876 219.621 413.056 220.161 428.352 220.245L428.352 164.829Z" fill="#5C95A9"/>
</g>
<mask id="mask2" mask-type="alpha" maskUnits="userSpaceOnUse" x="259" y="221" width="168" height="92">
<path d="M259.69 290.539C262.976 265.94 271.661 242.371 285.124 221.522L426.508 312.827L259.69 290.539Z" fill="#130947"/>
</mask>
<g mask="url(#mask2)">
<path fill-rule="evenodd" clip-rule="evenodd" d="M426.508 144.516C426.127 144.516 425.746 144.517 425.365 144.52C425.746 144.518 426.127 144.518 426.508 144.517L426.508 144.516ZM362.102 157.328C382.169 149.015 403.652 144.667 425.365 144.52C425.363 144.52 425.36 144.52 425.358 144.52C403.647 144.668 382.167 149.016 362.102 157.328ZM356.584 159.73C371.783 154.86 387.603 151.576 403.697 149.938C385.587 158.061 369.801 168.653 356.402 181.056C351.04 179.283 346.805 177.364 343.762 175.403C339.423 172.606 338.591 170.469 338.591 169.412C338.591 169.377 338.592 169.341 338.594 169.304C344.383 165.757 350.39 162.559 356.584 159.73ZM334.782 171.71C335.643 174.192 337.898 176.629 341.483 178.94C344.463 180.86 348.324 182.668 352.967 184.325C336.27 200.672 323.527 219.919 314.869 240.669C303.57 238.676 293.04 236.385 283.445 233.831C281.802 233.393 280.191 232.949 278.612 232.499C286.318 218.309 296.041 205.274 307.501 193.813C315.819 185.494 324.966 178.091 334.782 171.71ZM276.609 236.302C278.485 236.843 280.403 237.375 282.363 237.897C291.835 240.419 302.188 242.682 313.263 244.658C305.161 265.504 301.118 287.753 301.262 310.023H258.231C258.583 288.875 262.918 267.974 271.018 248.417C271.125 248.16 271.232 247.903 271.34 247.646C272.957 243.795 274.715 240.011 276.609 236.302ZM334.155 453.535C334.801 452.306 336.231 450.689 339.169 448.801C343.546 445.989 350.254 443.266 359.106 440.91C359.915 440.695 360.737 440.483 361.574 440.276C367.305 445.16 373.453 449.77 380.021 454.064L414.677 476.723C406.244 476.435 397.98 475.85 390.108 474.982C384.372 474.349 378.91 473.574 373.794 472.67C369.85 471.369 365.95 469.921 362.102 468.327C352.319 464.275 342.965 459.318 334.155 453.535ZM330.651 451.172C331.844 449.148 333.935 447.163 336.894 445.262C341.743 442.146 348.826 439.312 357.746 436.918C338.614 419.634 324.442 399.177 315.078 377.169C300.434 379.505 286.874 382.294 274.693 385.477C282.914 402.66 294.002 418.342 307.501 431.842C314.641 438.982 322.392 445.448 330.651 451.172ZM268.04 369.513C261.54 351.342 258.207 332.168 258.207 312.828H301.302C301.759 333.332 305.77 353.805 313.436 373.171C298.757 375.541 285.144 378.368 272.897 381.599C272.251 380.155 271.624 378.701 271.018 377.237C269.961 374.685 268.968 372.109 268.04 369.513ZM381.556 451.716C375.689 447.881 370.164 443.79 364.977 439.473C372.458 437.791 380.931 436.413 390.108 435.401C393.197 435.06 396.346 434.763 399.542 434.511L419.657 476.628L381.556 451.716ZM389.647 431.219C379.1 432.382 369.413 434.028 361.02 436.079C341.69 418.988 327.383 398.647 317.942 376.72C326.207 375.446 334.804 374.316 343.682 373.337C353.874 372.214 364.353 371.301 375.023 370.604C379.16 387.549 385.056 404.18 392.718 420.222L397.601 430.447C394.914 430.673 392.26 430.931 389.647 431.219ZM402.544 434.288L422.741 476.576L422.741 433.476C415.907 433.555 409.136 433.828 402.544 434.288ZM395.249 419.013L400.596 430.21C407.809 429.67 415.24 429.354 422.741 429.268V368.943C407.598 369.02 392.559 369.518 377.867 370.423C381.952 387.015 387.744 403.3 395.249 419.013ZM370.546 312.828C370.753 330.754 372.863 348.671 376.881 366.268C391.893 365.33 407.265 364.814 422.741 364.735L423.443 364.731L423.442 312.828H370.546ZM367.724 310.023C367.715 290.558 369.924 271.102 374.344 252.046C365.744 251.431 357.284 250.666 349.021 249.755C337.514 248.486 326.492 246.944 316.083 245.152C307.97 265.824 303.921 287.913 304.067 310.023H367.724ZM367.741 312.828C367.946 330.813 370.046 348.79 374.046 366.451C363.557 367.146 353.253 368.049 343.221 369.155C333.924 370.179 324.924 371.371 316.281 372.719C308.593 353.514 304.57 333.187 304.108 312.828H367.741ZM370.529 310.023H423.442L423.443 253.907C407.806 253.822 392.286 253.262 377.179 252.243C372.739 271.231 370.52 290.622 370.529 310.023ZM361.701 187.016C359.689 186.479 357.773 185.919 355.959 185.337C339.193 201.474 326.398 220.555 317.708 241.161C327.754 242.871 338.384 244.348 349.482 245.572C357.914 246.502 366.554 247.279 375.343 247.898C380.061 228.993 386.969 210.511 396.058 192.837C394.68 192.704 393.314 192.563 391.958 192.413C380.643 191.162 370.361 189.328 361.701 187.016ZM362.786 182.951C361.654 182.649 360.559 182.34 359.501 182.026C373.646 169.184 390.434 158.372 409.794 150.365L412.607 149.202C414.791 149.063 416.98 148.954 419.171 148.876L398.165 188.807C396.229 188.632 394.313 188.44 392.421 188.231C381.262 186.997 371.196 185.196 362.786 182.951ZM423.442 148.761C423.091 148.767 422.74 148.774 422.389 148.782L401.199 189.065C408.417 189.643 415.888 189.983 423.443 190.075L423.442 148.761ZM423.443 194.283C415.156 194.183 406.961 193.789 399.074 193.111C389.905 210.746 382.94 229.204 378.186 248.093C392.967 249.075 408.147 249.616 423.443 249.699L423.443 194.283Z" fill="#5C95A9"/>
</g>
<mask id="mask3" mask-type="alpha" maskUnits="userSpaceOnUse" x="271" y="321" width="169" height="149">
<path d="M328.732 469.411C308.067 451.249 292.169 428.298 282.43 402.567C272.691 376.836 269.408 349.11 272.868 321.815L439.832 342.983L328.732 469.411Z" fill="#130947"/>
</mask>
<g mask="url(#mask3)">
<path fill-rule="evenodd" clip-rule="evenodd" d="M439.832 174.672C439.451 174.672 439.07 174.673 438.689 174.676C439.07 174.675 439.451 174.674 439.832 174.673L439.832 174.672ZM375.426 187.484C395.493 179.171 416.977 174.823 438.689 174.676C438.687 174.676 438.685 174.676 438.682 174.676C416.972 174.824 395.491 179.172 375.426 187.484ZM369.909 189.886C385.107 185.017 400.927 181.732 417.021 180.095C398.911 188.217 383.126 198.809 369.726 211.212C364.365 209.439 360.129 207.52 357.086 205.559C352.747 202.762 351.915 200.625 351.915 199.568C351.915 199.534 351.916 199.498 351.918 199.46C357.707 195.914 363.715 192.715 369.909 189.886ZM348.106 201.866C348.968 204.348 351.222 206.785 354.807 209.096C357.787 211.016 361.649 212.825 366.292 214.481C349.595 230.828 336.852 250.075 328.194 270.826C316.895 268.832 306.364 266.541 296.77 263.987C295.126 263.55 293.515 263.106 291.936 262.655C299.642 248.465 309.365 235.431 320.826 223.969C329.144 215.651 338.29 208.247 348.106 201.866ZM289.933 266.458C291.809 267 293.727 267.532 295.687 268.053C305.16 270.575 315.512 272.838 326.587 274.814C318.485 295.661 314.442 317.909 314.586 340.179H271.555C271.907 319.031 276.243 298.13 284.343 278.573C284.449 278.316 284.556 278.059 284.664 277.802C286.282 273.951 288.039 270.168 289.933 266.458ZM347.479 483.691C348.125 482.462 349.556 480.846 352.493 478.958C356.87 476.145 363.578 473.423 372.431 471.066C373.239 470.851 374.061 470.64 374.898 470.432C380.629 475.317 386.777 479.926 393.345 484.221L428.001 506.879C419.568 506.591 411.305 506.006 403.432 505.138C397.696 504.506 392.235 503.73 387.119 502.826C383.175 501.526 379.274 500.077 375.426 498.483C365.643 494.431 356.289 489.474 347.479 483.691ZM343.976 481.328C345.168 479.304 347.26 477.32 350.219 475.418C355.067 472.302 362.15 469.468 371.071 467.074C351.938 449.79 337.766 429.333 328.402 407.325C313.758 409.662 300.198 412.45 288.017 415.634C296.239 432.816 307.327 448.498 320.826 461.998C327.965 469.138 335.716 475.604 343.976 481.328ZM281.364 399.67C274.864 381.498 271.532 362.324 271.531 342.984H314.626C315.083 363.488 319.094 383.961 326.761 403.327C312.081 405.697 298.468 408.524 286.221 411.755C285.575 410.311 284.949 408.857 284.343 407.394C283.285 404.841 282.292 402.266 281.364 399.67ZM394.88 481.873C389.014 478.037 383.488 473.946 378.301 469.629C385.782 467.947 394.255 466.569 403.432 465.557C406.521 465.217 409.67 464.92 412.866 464.667L432.982 506.784L394.88 481.873ZM402.971 461.375C392.424 462.538 382.737 464.184 374.344 466.235C355.014 449.144 340.707 428.804 331.267 406.876C339.531 405.603 348.128 404.472 357.006 403.493C367.199 402.37 377.677 401.457 388.347 400.76C392.484 417.705 398.38 434.336 406.042 450.378L410.926 460.604C408.238 460.83 405.584 461.087 402.971 461.375ZM415.868 464.444L436.065 506.732L436.065 463.632C429.231 463.711 422.46 463.984 415.868 464.444ZM408.573 449.169L413.921 460.366C421.134 459.827 428.564 459.51 436.065 459.424V399.099C420.922 399.177 405.883 399.675 391.191 400.579C395.276 417.172 401.068 433.456 408.573 449.169ZM383.87 342.984C384.077 360.91 386.187 378.827 390.206 396.425C405.218 395.486 420.589 394.97 436.065 394.891L436.767 394.888L436.767 342.984H383.87ZM381.048 340.179C381.039 320.714 383.248 301.259 387.669 282.202C379.068 281.587 370.608 280.822 362.346 279.911C350.838 278.642 339.817 277.1 329.407 275.308C321.294 295.981 317.245 318.069 317.391 340.179H381.048ZM381.065 342.984C381.271 360.969 383.37 378.946 387.37 396.607C376.882 397.303 366.577 398.205 356.545 399.311C347.248 400.336 338.248 401.527 329.605 402.876C321.918 383.67 317.894 363.343 317.432 342.984H381.065ZM383.853 340.179H436.767L436.767 284.064C421.131 283.978 405.61 283.418 390.503 282.399C386.063 301.387 383.844 320.778 383.853 340.179ZM375.025 217.173C373.013 216.636 371.097 216.075 369.284 215.493C352.517 231.63 339.722 250.711 331.032 271.317C341.078 273.027 351.708 274.505 362.807 275.729C371.238 276.658 379.878 277.435 388.667 278.055C393.385 259.15 400.293 240.668 409.382 222.993C408.005 222.86 406.638 222.719 405.283 222.569C393.967 221.318 383.685 219.484 375.025 217.173ZM376.11 213.107C374.978 212.805 373.883 212.497 372.825 212.183C386.97 199.34 403.758 188.529 423.118 180.521L425.931 179.358C428.115 179.219 430.304 179.11 432.495 179.032L411.489 218.963C409.553 218.788 407.637 218.596 405.745 218.387C394.586 217.153 384.52 215.352 376.11 213.107ZM436.767 178.918C436.416 178.924 436.065 178.931 435.714 178.939L414.523 219.221C421.741 219.799 429.213 220.139 436.767 220.231L436.767 178.918ZM436.767 224.439C428.48 224.339 420.285 223.945 412.398 223.267C403.229 240.902 396.264 259.36 391.51 278.249C406.291 279.231 421.471 279.772 436.767 279.856L436.767 224.439Z" fill="#5C95A9"/>
</g>
<mask id="mask4" mask-type="alpha" maskUnits="userSpaceOnUse" x="349" y="352" width="114" height="169">
<path d="M462.272 520.412C420.598 520.412 380.406 504.949 349.476 477.017L462.272 352.1L462.272 520.412Z" fill="#130947"/>
</mask>
<g mask="url(#mask4)">
<path fill-rule="evenodd" clip-rule="evenodd" d="M462.272 183.79C461.89 183.791 461.508 183.791 461.126 183.793C439.414 183.941 417.933 188.289 397.867 196.601C396.012 197.369 394.172 198.17 392.349 199.003C407.547 194.133 423.368 190.849 439.461 189.211C421.352 197.334 405.566 207.926 392.166 220.329C386.805 218.556 382.57 216.637 379.527 214.676C375.187 211.879 374.356 209.742 374.356 208.685C374.356 208.65 374.357 208.614 374.358 208.577C373.077 209.362 371.806 210.164 370.546 210.983C371.408 213.465 373.662 215.902 377.248 218.213C380.227 220.133 384.089 221.941 388.732 223.598C372.035 239.945 359.292 259.192 350.634 279.942C339.335 277.949 328.804 275.658 319.21 273.104C317.567 272.666 315.955 272.222 314.376 271.772C313.693 273.031 313.025 274.298 312.373 275.575C314.249 276.116 316.168 276.648 318.128 277.17C327.6 279.692 337.953 281.955 349.027 283.931C340.926 304.777 336.882 327.026 337.026 349.296H293.995C293.98 350.23 293.972 351.165 293.972 352.1C293.972 352.101 293.972 352.101 293.972 352.101H337.067C337.523 372.605 341.535 393.078 349.201 412.444C334.521 414.814 320.909 417.641 308.662 420.872C309.244 422.173 309.843 423.466 310.458 424.751C322.639 421.567 336.199 418.779 350.843 416.442C356.333 429.347 363.477 441.719 372.305 453.23L374.216 451.103C365.83 440.095 359.003 428.294 353.707 415.993C361.971 414.72 370.568 413.589 379.447 412.61C389.639 411.487 400.117 410.574 410.788 409.877C410.821 410.014 410.855 410.151 410.889 410.288L415.299 405.38C414.413 405.433 413.529 405.486 412.646 405.542C408.628 387.944 406.518 370.027 406.311 352.101H459.207L459.207 356.512L462.272 353.1L462.272 352.1L462.272 183.79ZM409.559 511.943C414.675 512.847 420.136 513.622 425.873 514.255C433.745 515.123 442.008 515.708 450.441 515.996L415.786 493.337C409.217 489.043 403.069 484.434 397.338 479.549C396.502 479.756 395.679 479.968 394.871 480.183C386.018 482.539 379.31 485.262 374.934 488.075C371.996 489.962 370.565 491.579 369.92 492.808C378.729 498.591 388.084 503.548 397.867 507.6C401.715 509.194 405.615 510.643 409.559 511.943ZM366.416 490.445C367.608 488.421 369.7 486.436 372.659 484.535C377.507 481.419 384.591 478.585 393.511 476.191C385.598 469.042 378.533 461.35 372.305 453.23L350.283 477.741C355.403 482.305 360.791 486.547 366.416 490.445ZM459.207 356.512L459.207 404.004L458.506 404.008C443.94 404.082 429.467 404.544 415.299 405.38L459.207 356.512ZM410.889 410.288L374.216 451.103C380.78 459.719 388.298 467.849 396.785 475.352C405.177 473.301 414.865 471.655 425.412 470.492C428.024 470.204 430.678 469.946 433.366 469.721L428.482 459.495C420.883 443.583 415.02 427.092 410.889 410.288ZM417.321 490.99C411.454 487.154 405.929 483.063 400.741 478.746C408.223 477.064 416.696 475.686 425.873 474.674C428.962 474.334 432.111 474.037 435.307 473.784L455.422 515.901L417.321 490.99ZM438.309 473.561L458.506 515.849L458.506 472.749C451.672 472.828 444.901 473.101 438.309 473.561ZM431.013 458.286L436.361 469.483C443.574 468.944 451.005 468.627 458.506 468.541V408.216C443.362 408.294 428.324 408.792 413.632 409.696C417.717 426.289 423.509 442.573 431.013 458.286ZM403.489 349.296C403.48 329.831 405.689 310.376 410.109 291.319C401.508 290.704 393.049 289.939 384.786 289.028C373.279 287.759 362.257 286.217 351.848 284.425C343.735 305.097 339.686 327.186 339.832 349.296H403.489ZM403.506 352.101C403.711 370.086 405.811 388.063 409.811 405.724C399.322 406.42 389.018 407.322 378.986 408.428C369.688 409.452 360.689 410.644 352.046 411.992C344.358 392.787 340.334 372.46 339.873 352.101H403.506ZM406.294 349.296H459.207L459.207 293.18C443.571 293.095 428.05 292.535 412.943 291.516C408.504 310.504 406.285 329.895 406.294 349.296ZM397.465 226.29C395.453 225.752 393.538 225.192 391.724 224.61C374.957 240.747 362.162 259.828 353.472 280.434C363.519 282.144 374.148 283.622 385.247 284.845C393.679 285.775 402.319 286.552 411.107 287.171C415.826 268.266 422.733 249.784 431.822 232.11C430.445 231.977 429.078 231.836 427.723 231.686C416.407 230.435 406.126 228.601 397.465 226.29ZM398.55 222.224C397.418 221.922 396.323 221.613 395.266 221.3C409.41 208.457 426.199 197.645 445.559 189.638L448.371 188.475C450.556 188.336 452.744 188.227 454.936 188.149L433.93 228.08C431.994 227.905 430.078 227.713 428.185 227.504C417.027 226.27 406.961 224.469 398.55 222.224ZM459.207 188.034C458.856 188.041 458.505 188.048 458.154 188.055L436.963 228.338C444.182 228.916 451.653 229.256 459.207 229.348L459.207 188.034ZM459.207 233.556C450.92 233.456 442.725 233.062 434.838 232.384C425.67 250.019 418.705 268.477 413.951 287.366C428.732 288.348 443.912 288.889 459.207 288.972L459.207 233.556Z" fill="#5C95A9"/>
</g>
<path d="M241.93 609.464V590.168H258.442C261.898 590.168 264.49 590.936 266.218 592.472C267.946 593.944 268.81 596.344 268.81 599.672C268.81 603.128 267.946 605.624 266.218 607.16C264.49 608.696 261.898 609.464 258.442 609.464H241.93ZM226.858 578.456V647H241.93V620.216H257.002C260.778 620.216 263.498 621.048 265.162 622.712C266.826 624.376 267.914 627 268.426 630.584C268.81 633.336 269.098 636.216 269.29 639.224C269.482 642.232 269.994 644.824 270.826 647H285.898C285.194 646.04 284.65 644.888 284.266 643.544C283.946 642.136 283.69 640.664 283.498 639.128C283.37 637.592 283.274 636.088 283.21 634.616C283.146 633.144 283.082 631.864 283.018 630.776C282.89 629.048 282.634 627.32 282.25 625.592C281.93 623.864 281.386 622.296 280.618 620.888C279.85 619.416 278.858 618.168 277.642 617.144C276.426 616.056 274.89 615.256 273.034 614.744V614.552C276.874 613.016 279.626 610.776 281.29 607.832C283.018 604.888 283.882 601.4 283.882 597.368C283.882 594.744 283.402 592.312 282.442 590.072C281.546 587.768 280.202 585.752 278.41 584.024C276.682 582.296 274.57 580.952 272.074 579.992C269.642 578.968 266.89 578.456 263.818 578.456H226.858ZM303.34 578.456V647H355.372V634.328H318.412V617.528H351.628V605.816H318.412V591.128H354.604V578.456H303.34ZM372.79 578.456V647H387.862V618.68H416.566V606.968H387.862V591.128H420.982V578.456H372.79ZM448.992 613.016C448.992 610.008 449.312 607.096 449.952 604.28C450.656 601.464 451.744 598.968 453.216 596.792C454.688 594.552 456.608 592.792 458.976 591.512C461.344 590.168 464.224 589.496 467.616 589.496C471.008 589.496 473.888 590.168 476.256 591.512C478.624 592.792 480.544 594.552 482.016 596.792C483.488 598.968 484.544 601.464 485.184 604.28C485.888 607.096 486.24 610.008 486.24 613.016C486.24 615.896 485.888 618.712 485.184 621.464C484.544 624.152 483.488 626.584 482.016 628.76C480.544 630.936 478.624 632.696 476.256 634.04C473.888 635.32 471.008 635.96 467.616 635.96C464.224 635.96 461.344 635.32 458.976 634.04C456.608 632.696 454.688 630.936 453.216 628.76C451.744 626.584 450.656 624.152 449.952 621.464C449.312 618.712 448.992 615.896 448.992 613.016ZM433.92 613.016C433.92 618.008 434.688 622.68 436.224 627.032C437.76 631.32 439.968 635.064 442.848 638.264C445.728 641.464 449.248 643.992 453.408 645.848C457.632 647.64 462.368 648.536 467.616 648.536C472.928 648.536 477.664 647.64 481.824 645.848C485.984 643.992 489.504 641.464 492.384 638.264C495.264 635.064 497.472 631.32 499.008 627.032C500.544 622.68 501.312 618.008 501.312 613.016C501.312 607.896 500.544 603.16 499.008 598.808C497.472 594.392 495.264 590.552 492.384 587.288C489.504 584.024 485.984 581.464 481.824 579.608C477.664 577.752 472.928 576.824 467.616 576.824C462.368 576.824 457.632 577.752 453.408 579.608C449.248 581.464 445.728 584.024 442.848 587.288C439.968 590.552 437.76 594.392 436.224 598.808C434.688 603.16 433.92 607.896 433.92 613.016ZM533.887 609.464V590.168H550.399C553.855 590.168 556.447 590.936 558.175 592.472C559.903 593.944 560.767 596.344 560.767 599.672C560.767 603.128 559.903 605.624 558.175 607.16C556.447 608.696 553.855 609.464 550.399 609.464H533.887ZM518.815 578.456V647H533.887V620.216H548.959C552.735 620.216 555.455 621.048 557.119 622.712C558.783 624.376 559.871 627 560.383 630.584C560.767 633.336 561.055 636.216 561.247 639.224C561.439 642.232 561.951 644.824 562.783 647H577.855C577.151 646.04 576.607 644.888 576.223 643.544C575.903 642.136 575.647 640.664 575.455 639.128C575.327 637.592 575.231 636.088 575.167 634.616C575.103 633.144 575.039 631.864 574.975 630.776C574.847 629.048 574.591 627.32 574.207 625.592C573.887 623.864 573.343 622.296 572.575 620.888C571.807 619.416 570.815 618.168 569.599 617.144C568.383 616.056 566.847 615.256 564.991 614.744V614.552C568.831 613.016 571.583 610.776 573.247 607.832C574.975 604.888 575.839 601.4 575.839 597.368C575.839 594.744 575.359 592.312 574.399 590.072C573.503 587.768 572.159 585.752 570.367 584.024C568.639 582.296 566.527 580.952 564.031 579.992C561.599 578.968 558.847 578.456 555.775 578.456H518.815ZM595.296 578.456V647H609.408V598.904H609.6L626.4 647H638.016L654.816 598.424H655.008V647H669.12V578.456H647.904L632.736 625.592H632.544L616.512 578.456H595.296ZM225.833 695.456V764H240.905V735.68H269.609V723.968H240.905V708.128H274.025V695.456H225.833ZM296.689 737.504L305.617 712.352H305.809L314.449 737.504H296.689ZM298.129 695.456L272.209 764H287.377L292.753 748.736H318.385L323.569 764H339.217L313.585 695.456H298.129ZM362.12 726.464V707.168H378.632C382.088 707.168 384.68 707.936 386.408 709.472C388.136 710.944 389 713.344 389 716.672C389 720.128 388.136 722.624 386.408 724.16C384.68 725.696 382.088 726.464 378.632 726.464H362.12ZM347.048 695.456V764H362.12V737.216H377.192C380.968 737.216 383.688 738.048 385.352 739.712C387.016 741.376 388.104 744 388.616 747.584C389 750.336 389.288 753.216 389.48 756.224C389.672 759.232 390.184 761.824 391.016 764H406.088C405.384 763.04 404.84 761.888 404.456 760.544C404.136 759.136 403.88 757.664 403.688 756.128C403.56 754.592 403.464 753.088 403.4 751.616C403.336 750.144 403.272 748.864 403.208 747.776C403.08 746.048 402.824 744.32 402.44 742.592C402.12 740.864 401.576 739.296 400.808 737.888C400.04 736.416 399.048 735.168 397.832 734.144C396.616 733.056 395.08 732.256 393.224 731.744V731.552C397.064 730.016 399.816 727.776 401.48 724.832C403.208 721.888 404.072 718.4 404.072 714.368C404.072 711.744 403.592 709.312 402.632 707.072C401.736 704.768 400.392 702.752 398.6 701.024C396.872 699.296 394.76 697.952 392.264 696.992C389.832 695.968 387.08 695.456 384.008 695.456H347.048ZM418.249 695.456V764H432.361V715.904H432.553L449.353 764H460.969L477.769 715.424H477.961V764H492.073V695.456H470.857L455.689 742.592H455.497L439.465 695.456H418.249ZM507.263 695.456V764H522.335V695.456H507.263ZM537.495 695.456V764H551.607V718.112H551.799L580.311 764H595.383V695.456H581.271V741.44H581.079L552.471 695.456H537.495ZM660.108 756.224L661.644 764H671.244V726.944H642.444V738.176H657.612C657.164 742.976 655.564 746.656 652.812 749.216C650.124 751.712 646.284 752.96 641.292 752.96C637.9 752.96 635.02 752.32 632.652 751.04C630.284 749.696 628.364 747.936 626.892 745.76C625.42 743.584 624.332 741.152 623.628 738.464C622.988 735.712 622.668 732.896 622.668 730.016C622.668 727.008 622.988 724.096 623.628 721.28C624.332 718.464 625.42 715.968 626.892 713.792C628.364 711.552 630.284 709.792 632.652 708.512C635.02 707.168 637.9 706.496 641.292 706.496C644.94 706.496 648.044 707.456 650.604 709.376C653.164 711.296 654.892 714.176 655.788 718.016H670.188C669.804 714.112 668.748 710.656 667.02 707.648C665.292 704.64 663.084 702.112 660.396 700.064C657.772 698.016 654.796 696.48 651.468 695.456C648.204 694.368 644.812 693.824 641.292 693.824C636.044 693.824 631.308 694.752 627.084 696.608C622.924 698.464 619.404 701.024 616.524 704.288C613.644 707.552 611.436 711.392 609.9 715.808C608.364 720.16 607.596 724.896 607.596 730.016C607.596 735.008 608.364 739.68 609.9 744.032C611.436 748.32 613.644 752.064 616.524 755.264C619.404 758.464 622.924 760.992 627.084 762.848C631.308 764.64 636.044 765.536 641.292 765.536C644.62 765.536 647.916 764.864 651.18 763.52C654.444 762.112 657.42 759.68 660.108 756.224Z" fill="white"/>
</svg>
