<svg width="900" height="900" viewBox="0 0 900 900" fill="none" xmlns="http://www.w3.org/2000/svg">
<path fill-rule="evenodd" clip-rule="evenodd" d="M484.731 178.545C482.663 178.427 480.591 178.337 478.517 178.274C484.469 190.343 489.718 202.666 494.263 215.184C498.4 214.899 502.463 214.537 506.421 214.1C514.755 213.178 522.459 211.94 529.297 210.441C516.645 197.991 501.771 187.166 484.731 178.545ZM471.389 173.056L471.389 173.056L471.389 251.76L471.389 226.867V221.958H471.389V215.958L471.389 197.062V178.166L471.389 173.056ZM490.099 215.443C486.34 205.194 482.103 195.079 477.389 185.13L477.389 215.906C481.668 215.831 485.915 215.676 490.099 215.443ZM477.389 221.907C482.381 221.821 487.334 221.628 492.201 221.331C498.278 238.832 502.974 256.699 506.284 274.768C496.753 275.209 487.097 275.469 477.389 275.545V226.867V221.907ZM477.389 281.545C487.446 281.467 497.451 281.193 507.324 280.726C510.386 299.177 512.009 317.819 512.19 336.478H477.389V281.545ZM471.389 336.478V281.569H471.389L471.389 336.478H471.389ZM471.389 340.478L471.389 480.308L471.389 462.893V456.893L471.389 450.582V398.374V392.374L471.389 347.14V340.478H471.389ZM477.389 340.478H512.206C512.182 358.099 510.87 375.725 508.268 393.207C498.078 392.743 487.759 392.472 477.389 392.396L477.389 347.14V340.478ZM516.206 340.478C516.182 358.163 514.876 375.852 512.283 393.4C526.925 394.141 541.28 395.28 555.116 396.805C560.754 397.426 566.281 398.109 571.687 398.85C578.436 380.001 581.891 360.24 582.138 340.478H516.206ZM586.139 340.478C585.896 360.424 582.456 380.37 575.736 399.42C593.777 402.025 610.383 405.296 625.046 409.145C625.676 407.735 626.287 406.316 626.878 404.888C635.336 384.467 639.689 362.581 639.689 340.478L586.139 340.478ZM639.642 336.478H586.145C585.949 315.267 582.142 294.125 574.827 274.131C590.073 271.766 604.145 268.883 616.676 265.547C618.29 265.117 619.876 264.681 621.433 264.238C623.397 268.103 625.214 272.049 626.878 276.068C634.825 295.256 639.149 315.738 639.642 336.478ZM582.144 336.478H516.19C516.011 317.753 514.394 299.045 511.345 280.525C524.558 279.827 537.513 278.784 550.017 277.405C557.136 276.62 564.069 275.73 570.786 274.742C578.126 294.52 581.947 315.464 582.144 336.478ZM477.389 398.396C487.444 398.47 497.448 398.729 507.329 399.171C504.056 418.893 499.132 438.41 492.554 457.513C488.224 457.256 483.83 457.079 479.402 456.981C478.732 456.967 478.06 456.954 477.389 456.943L477.389 450.582V398.396ZM554.459 402.769C540.547 401.236 526.098 400.095 511.352 399.361C508.101 419.104 503.215 438.648 496.69 457.783C500.765 458.074 504.775 458.437 508.69 458.869C509.43 458.95 510.164 459.034 510.895 459.12C518.363 460.002 525.375 461.128 531.77 462.471C548.615 445.324 561.154 425.604 569.51 404.61C564.595 403.947 559.574 403.332 554.459 402.769ZM479.363 462.982C483.097 463.065 486.805 463.206 490.468 463.404C486.62 473.977 482.261 484.414 477.389 494.679L477.389 482.841V462.943C478.047 462.954 478.705 462.967 479.363 462.982ZM504.35 501.233C498.243 501.829 491.925 502.257 485.495 502.512L503.35 490.838C513.67 484.09 523.003 476.604 531.36 468.518C533.949 469.075 536.423 469.667 538.77 470.292C539.318 470.437 539.857 470.585 540.387 470.733C548.342 472.959 554.305 475.456 558.199 477.959C558.373 478.071 558.539 478.18 558.7 478.289C561.112 479.912 562.132 481.171 562.559 481.955C554.096 487.409 545.141 492.106 535.794 495.978C535.458 496.117 535.122 496.255 534.785 496.392C526.951 498.247 517.914 499.761 508.033 500.85C506.814 500.985 505.586 501.112 504.35 501.233ZM501.161 487.49C510.444 481.42 518.91 474.74 526.569 467.554C521.467 466.593 515.984 465.763 510.195 465.079C509.479 464.995 508.758 464.912 508.033 464.832C503.675 464.352 499.195 463.959 494.631 463.655C490.543 475.004 485.872 486.2 480.619 497.2L478.035 502.611L501.161 487.49ZM540.313 464.493C539.027 464.151 537.706 463.818 536.352 463.496C552.96 446.127 565.335 426.269 573.595 405.175C591.507 407.719 607.959 410.918 622.456 414.67C614.315 431.249 603.489 446.397 590.395 459.492C583.345 466.543 575.699 472.936 567.556 478.606C566.42 476.779 564.55 474.985 561.969 473.256C561.797 473.141 561.621 473.026 561.443 472.912C556.851 469.96 550.253 467.262 541.988 464.951C541.437 464.796 540.879 464.644 540.313 464.493ZM615.132 259.749C602.484 263.116 588.185 266.026 572.621 268.4C564.694 248.79 553.322 230.413 538.604 214.322C546.67 212.084 553.099 209.461 557.556 206.59C560.854 204.464 563.026 202.231 564.023 199.956C573.495 206.2 582.334 213.402 590.395 221.464C601.496 232.565 610.966 245.142 618.553 258.816C617.429 259.13 616.289 259.441 615.132 259.749ZM507.08 220.063C517.059 218.96 526.233 217.404 534.201 215.466C549.067 231.324 560.548 249.533 568.545 269.005C562.332 269.903 555.93 270.717 549.36 271.441C536.747 272.832 523.664 273.879 510.314 274.57C507.027 256.478 502.366 238.585 496.337 221.051C499.982 220.781 503.57 220.451 507.08 220.063ZM535.791 208.869C535.166 209.036 534.532 209.201 533.889 209.362C522.583 197.92 509.483 187.766 494.628 179.318C512.955 181.14 530.927 185.114 548.022 191.144C549.08 191.517 550.134 191.898 551.183 192.286C553.641 193.61 556.066 194.994 558.453 196.438C558.637 196.809 558.655 197.024 558.655 197.062C558.655 197.176 558.497 198.845 554.306 201.546C550.363 204.087 544.167 206.633 535.791 208.869Z" fill="#CA3B2C"/>
<mask id="mask0" mask-type="alpha" maskUnits="userSpaceOnUse" x="414" y="137" width="45" height="170">
<path d="M414.489 143.731C428.945 139.788 443.863 137.794 458.847 137.801L458.767 306.113L414.489 143.731Z" fill="#130947"/>
</mask>
<g mask="url(#mask0)">
<path fill-rule="evenodd" clip-rule="evenodd" d="M290.489 303.309H333.521C333.376 281.039 337.42 258.79 345.521 237.944C334.447 235.968 324.094 233.705 314.622 231.183C312.662 230.661 310.743 230.13 308.868 229.588C306.848 233.545 304.982 237.586 303.277 241.703C295.177 261.26 290.842 282.161 290.489 303.309ZM310.87 225.785C312.449 226.235 314.061 226.68 315.704 227.117C325.299 229.671 335.829 231.962 347.128 233.956C355.786 213.205 368.529 193.958 385.226 177.611C380.583 175.955 376.721 174.146 373.742 172.226C370.157 169.915 367.902 167.478 367.04 164.996C357.225 171.377 348.078 178.781 339.76 187.099C328.299 198.56 318.576 211.595 310.87 225.785ZM388.843 153.016C382.649 155.845 376.642 159.044 370.853 162.59C370.851 162.627 370.85 162.663 370.85 162.698C370.85 163.755 371.682 165.892 376.021 168.689C379.064 170.65 383.299 172.569 388.661 174.342C402.06 161.939 417.846 151.347 435.956 143.224C419.862 144.862 404.041 148.146 388.843 153.016ZM457.618 137.806C458.001 137.805 458.384 137.804 458.767 137.803L458.767 137.802C458.384 137.802 458.001 137.803 457.618 137.806ZM290.466 306.114C290.466 328.217 294.819 350.103 303.277 370.523C303.883 371.987 304.51 373.441 305.156 374.885C317.403 371.654 331.015 368.827 345.695 366.457C338.029 347.091 334.018 326.618 333.561 306.114H290.466ZM306.952 378.764C319.133 375.58 332.693 372.792 347.337 370.455C356.701 392.463 370.873 412.92 390.005 430.204C381.085 432.598 374.002 435.432 369.153 438.548C366.194 440.449 364.103 442.434 362.91 444.458C354.65 438.734 346.9 432.268 339.76 425.128C326.261 411.628 315.173 395.946 306.952 378.764ZM366.414 446.821C367.059 445.592 368.49 443.976 371.428 442.088C375.805 439.275 382.512 436.552 391.365 434.196C392.173 433.981 392.996 433.769 393.833 433.562C399.563 438.447 405.711 443.056 412.28 447.351L446.935 470.009C438.503 469.721 430.239 469.136 422.367 468.268C416.631 467.636 411.169 466.86 406.053 465.956C402.109 464.656 398.209 463.207 394.361 461.613C384.578 457.561 375.223 452.604 366.414 446.821ZM440.81 473.464C445.327 473.819 449.892 474 454.5 474C455.926 474 457.348 473.982 458.767 473.948L458.767 474.425C452.757 474.425 446.763 474.103 440.81 473.464ZM413.815 445.003C407.948 441.167 402.423 437.076 397.236 432.759C404.717 431.077 413.19 429.699 422.367 428.687C425.456 428.347 428.605 428.05 431.801 427.797L451.916 469.914L413.815 445.003ZM421.906 424.505C411.359 425.668 401.672 427.314 393.279 429.365C373.949 412.274 359.641 391.934 350.201 370.006C358.465 368.733 367.063 367.602 375.941 366.623C386.133 365.5 396.611 364.587 407.282 363.89C411.418 380.835 417.315 397.466 424.976 413.508L429.86 423.734C427.172 423.959 424.518 424.217 421.906 424.505ZM434.803 427.574L455 469.862L455 426.762C448.166 426.841 441.395 427.114 434.803 427.574ZM427.508 412.299L432.855 423.496C440.068 422.957 447.499 422.64 455 422.554V362.229C439.857 362.307 424.818 362.805 410.126 363.709C414.211 380.302 420.003 396.586 427.508 412.299ZM402.805 306.114C403.012 324.04 405.122 341.957 409.14 359.555C424.152 358.616 439.524 358.1 455 358.021L455.701 358.018L455.701 306.114H402.805ZM399.983 303.309C399.974 283.844 402.183 264.389 406.603 245.332C398.003 244.717 389.543 243.952 381.28 243.041C369.773 241.772 358.751 240.23 348.342 238.438C340.229 259.111 336.18 281.199 336.326 303.309H399.983ZM400 306.114C400.205 324.099 402.305 342.076 406.305 359.737C395.816 360.433 385.512 361.335 375.48 362.441C366.183 363.465 357.183 364.657 348.54 366.005C340.852 346.8 336.829 326.473 336.367 306.114H400ZM402.788 303.309H455.701L455.701 247.193C440.065 247.108 424.544 246.548 409.437 245.529C404.998 264.517 402.779 283.908 402.788 303.309ZM393.959 180.303C391.947 179.766 390.032 179.205 388.218 178.623C371.452 194.76 358.657 213.841 349.966 234.447C360.013 236.157 370.643 237.635 381.741 238.859C390.173 239.788 398.813 240.565 407.602 241.184C412.32 222.279 419.228 203.797 428.317 186.123C426.939 185.99 425.572 185.849 424.217 185.699C412.902 184.448 402.62 182.614 393.959 180.303ZM395.044 176.237C393.912 175.935 392.817 175.627 391.76 175.313C405.904 162.47 422.693 151.659 442.053 143.651L444.865 142.488C447.05 142.349 449.238 142.24 451.43 142.162L430.424 182.093C428.488 181.918 426.572 181.726 424.68 181.517C413.521 180.283 403.455 178.482 395.044 176.237ZM455.701 142.047C455.35 142.054 454.999 142.061 454.648 142.068L433.458 182.351C440.676 182.929 448.147 183.269 455.701 183.361L455.701 142.047ZM455.701 187.569C447.414 187.469 439.219 187.075 431.332 186.397C422.164 204.032 415.199 222.49 410.445 241.379C425.226 242.361 440.406 242.902 455.701 242.986L455.701 187.569Z" fill="#CA3B2C"/>
</g>
<mask id="mask1" mask-type="alpha" maskUnits="userSpaceOnUse" x="289" y="123" width="143" height="162">
<path d="M289.862 193.333C311.599 159.531 344.712 134.623 383.214 123.112L431.417 284.373L289.862 193.333Z" fill="#130947"/>
</mask>
<g mask="url(#mask1)">
<path fill-rule="evenodd" clip-rule="evenodd" d="M431.417 116.062C431.036 116.062 430.655 116.063 430.274 116.065C430.655 116.064 431.036 116.063 431.417 116.063L431.417 116.062ZM367.011 128.873C387.078 120.561 408.562 116.213 430.274 116.065C430.272 116.065 430.27 116.065 430.267 116.065C408.557 116.214 387.076 120.562 367.011 128.873ZM361.494 131.275C376.692 126.406 392.512 123.122 408.606 121.484C390.496 129.607 374.71 140.199 361.311 152.602C355.949 150.829 351.714 148.91 348.671 146.948C344.332 144.152 343.5 142.015 343.5 140.958C343.5 140.923 343.501 140.887 343.503 140.85C349.292 137.303 355.3 134.105 361.494 131.275ZM339.691 143.256C340.553 145.738 342.807 148.175 346.392 150.485C349.372 152.406 353.233 154.214 357.877 155.871C341.18 172.218 328.437 191.465 319.779 212.215C308.48 210.222 297.949 207.931 288.355 205.377C286.711 204.939 285.1 204.495 283.521 204.045C291.227 189.855 300.95 176.82 312.411 165.359C320.729 157.04 329.875 149.637 339.691 143.256ZM281.518 207.848C283.394 208.389 285.312 208.921 287.272 209.443C296.745 211.965 307.097 214.228 318.172 216.204C310.07 237.05 306.027 259.298 306.171 281.569H263.14C263.492 260.421 267.828 239.519 275.928 219.963C276.034 219.706 276.141 219.449 276.249 219.192C277.867 215.341 279.624 211.557 281.518 207.848ZM339.064 425.081C339.71 423.852 341.141 422.235 344.078 420.347C348.455 417.535 355.163 414.812 364.016 412.456C364.824 412.24 365.646 412.029 366.483 411.822C372.214 416.706 378.362 421.316 384.93 425.61L419.586 448.269C411.153 447.98 402.89 447.396 395.017 446.528C389.281 445.895 383.82 445.12 378.704 444.216C374.76 442.915 370.859 441.467 367.011 439.873C357.228 435.82 347.874 430.864 339.064 425.081ZM335.561 422.718C336.753 420.693 338.845 418.709 341.804 416.807C346.652 413.692 353.735 410.857 362.656 408.464C343.523 391.179 329.351 370.723 319.987 348.715C305.343 351.051 291.783 353.84 279.602 357.023C287.823 374.205 298.912 389.888 312.41 403.387C319.55 410.528 327.301 416.994 335.561 422.718ZM272.949 341.059C266.449 322.888 263.116 303.714 263.116 284.374H306.211C306.668 304.878 310.679 325.351 318.346 344.717C303.666 347.087 290.053 349.914 277.806 353.145C277.16 351.701 276.534 350.247 275.928 348.783C274.87 346.231 273.877 343.655 272.949 341.059ZM386.465 423.262C380.599 419.427 375.073 415.336 369.886 411.019C377.367 409.337 385.84 407.959 395.017 406.947C398.106 406.606 401.255 406.309 404.451 406.057L424.567 448.174L386.465 423.262ZM394.556 402.764C384.009 403.927 374.322 405.573 365.929 407.625C346.599 390.534 332.292 370.193 322.851 348.266C331.116 346.992 339.713 345.861 348.591 344.883C358.784 343.76 369.262 342.847 379.932 342.15C384.069 359.095 389.965 375.726 397.627 391.768L402.511 401.993C399.823 402.219 397.169 402.476 394.556 402.764ZM407.453 405.834L427.65 448.122L427.65 405.022C420.816 405.101 414.045 405.374 407.453 405.834ZM400.158 390.559L405.506 401.756C412.719 401.216 420.149 400.9 427.65 400.813V340.488C412.507 340.566 397.468 341.064 382.776 341.969C386.861 358.561 392.653 374.846 400.158 390.559ZM375.455 284.374C375.662 302.3 377.772 320.217 381.791 337.814C396.802 336.876 412.174 336.36 427.65 336.281L428.352 336.277L428.352 284.374H375.455ZM372.633 281.569C372.624 262.104 374.833 242.648 379.254 223.592C370.653 222.977 362.193 222.212 353.93 221.301C342.423 220.032 331.402 218.49 320.992 216.698C312.879 237.37 308.83 259.459 308.976 281.569H372.633ZM372.65 284.374C372.856 302.359 374.955 320.336 378.955 337.997C368.467 338.692 358.162 339.595 348.13 340.701C338.833 341.725 329.833 342.917 321.19 344.265C313.503 325.059 309.479 304.733 309.017 284.374H372.65ZM375.438 281.569H428.352L428.352 225.453C412.715 225.368 397.195 224.808 382.088 223.789C377.648 242.776 375.429 262.168 375.438 281.569ZM366.61 158.562C364.598 158.025 362.682 157.465 360.869 156.883C344.102 173.02 331.307 192.101 322.617 212.707C332.663 214.417 343.293 215.894 354.392 217.118C362.823 218.048 371.463 218.824 380.252 219.444C384.97 200.539 391.878 182.057 400.967 164.382C399.59 164.25 398.223 164.109 396.868 163.959C385.552 162.708 375.27 160.874 366.61 158.562ZM367.695 154.497C366.563 154.195 365.468 153.886 364.41 153.572C378.555 140.73 395.343 129.918 414.703 121.911L417.516 120.748C419.7 120.609 421.889 120.5 424.08 120.422L403.074 160.353C401.138 160.178 399.222 159.986 397.33 159.777C386.171 158.543 376.105 156.742 367.695 154.497ZM428.352 120.307C428.001 120.313 427.65 120.32 427.299 120.328L406.108 160.611C413.326 161.189 420.798 161.529 428.352 161.621L428.352 120.307ZM428.352 165.829C420.065 165.729 411.87 165.334 403.983 164.657C394.814 182.292 387.849 200.75 383.095 219.639C397.876 220.621 413.056 221.161 428.352 221.245L428.352 165.829Z" fill="#CA3B2C"/>
</g>
<mask id="mask2" mask-type="alpha" maskUnits="userSpaceOnUse" x="259" y="222" width="168" height="92">
<path d="M259.69 291.539C262.976 266.94 271.661 243.371 285.124 222.522L426.508 313.827L259.69 291.539Z" fill="#130947"/>
</mask>
<g mask="url(#mask2)">
<path fill-rule="evenodd" clip-rule="evenodd" d="M426.508 145.516C426.127 145.516 425.746 145.517 425.365 145.52C425.746 145.518 426.127 145.518 426.508 145.517L426.508 145.516ZM362.102 158.328C382.169 150.015 403.652 145.667 425.365 145.52C425.363 145.52 425.36 145.52 425.358 145.52C403.647 145.668 382.167 150.016 362.102 158.328ZM356.584 160.73C371.783 155.86 387.603 152.576 403.697 150.938C385.587 159.061 369.801 169.653 356.402 182.056C351.04 180.283 346.805 178.364 343.762 176.403C339.423 173.606 338.591 171.469 338.591 170.412C338.591 170.377 338.592 170.341 338.594 170.304C344.383 166.757 350.39 163.559 356.584 160.73ZM334.782 172.71C335.643 175.192 337.898 177.629 341.483 179.94C344.463 181.86 348.324 183.668 352.967 185.325C336.27 201.672 323.527 220.919 314.869 241.669C303.57 239.676 293.04 237.385 283.445 234.831C281.802 234.393 280.191 233.949 278.612 233.499C286.318 219.309 296.041 206.274 307.501 194.813C315.819 186.494 324.966 179.091 334.782 172.71ZM276.609 237.302C278.485 237.843 280.403 238.375 282.363 238.897C291.835 241.419 302.188 243.682 313.263 245.658C305.161 266.504 301.118 288.753 301.262 311.023H258.231C258.583 289.875 262.918 268.974 271.018 249.417C271.125 249.16 271.232 248.903 271.34 248.646C272.957 244.795 274.715 241.011 276.609 237.302ZM334.155 454.535C334.801 453.306 336.231 451.689 339.169 449.801C343.546 446.989 350.254 444.266 359.106 441.91C359.915 441.695 360.737 441.483 361.574 441.276C367.305 446.16 373.453 450.77 380.021 455.064L414.677 477.723C406.244 477.435 397.98 476.85 390.108 475.982C384.372 475.349 378.91 474.574 373.794 473.67C369.85 472.369 365.95 470.921 362.102 469.327C352.319 465.275 342.965 460.318 334.155 454.535ZM330.651 452.172C331.844 450.148 333.935 448.163 336.894 446.262C341.743 443.146 348.826 440.312 357.746 437.918C338.614 420.634 324.442 400.177 315.078 378.169C300.434 380.505 286.874 383.294 274.693 386.477C282.914 403.66 294.002 419.342 307.501 432.842C314.641 439.982 322.392 446.448 330.651 452.172ZM268.04 370.513C261.54 352.342 258.207 333.168 258.207 313.828H301.302C301.759 334.332 305.77 354.805 313.436 374.171C298.757 376.541 285.144 379.368 272.897 382.599C272.251 381.155 271.624 379.701 271.018 378.237C269.961 375.685 268.968 373.109 268.04 370.513ZM381.556 452.716C375.689 448.881 370.164 444.79 364.977 440.473C372.458 438.791 380.931 437.413 390.108 436.401C393.197 436.06 396.346 435.763 399.542 435.511L419.657 477.628L381.556 452.716ZM389.647 432.219C379.1 433.382 369.413 435.028 361.02 437.079C341.69 419.988 327.383 399.647 317.942 377.72C326.207 376.446 334.804 375.316 343.682 374.337C353.874 373.214 364.353 372.301 375.023 371.604C379.16 388.549 385.056 405.18 392.718 421.222L397.601 431.447C394.914 431.673 392.26 431.931 389.647 432.219ZM402.544 435.288L422.741 477.576L422.741 434.476C415.907 434.555 409.136 434.828 402.544 435.288ZM395.249 420.013L400.596 431.21C407.809 430.67 415.24 430.354 422.741 430.268V369.943C407.598 370.02 392.559 370.518 377.867 371.423C381.952 388.015 387.744 404.3 395.249 420.013ZM370.546 313.828C370.753 331.754 372.863 349.671 376.881 367.268C391.893 366.33 407.265 365.814 422.741 365.735L423.443 365.731L423.442 313.828H370.546ZM367.724 311.023C367.715 291.558 369.924 272.102 374.344 253.046C365.744 252.431 357.284 251.666 349.021 250.755C337.514 249.486 326.492 247.944 316.083 246.152C307.97 266.824 303.921 288.913 304.067 311.023H367.724ZM367.741 313.828C367.946 331.813 370.046 349.79 374.046 367.451C363.557 368.146 353.253 369.049 343.221 370.155C333.924 371.179 324.924 372.371 316.281 373.719C308.593 354.514 304.57 334.187 304.108 313.828H367.741ZM370.529 311.023H423.442L423.443 254.907C407.806 254.822 392.286 254.262 377.179 253.243C372.739 272.231 370.52 291.622 370.529 311.023ZM361.701 188.016C359.689 187.479 357.773 186.919 355.959 186.337C339.193 202.474 326.398 221.555 317.708 242.161C327.754 243.871 338.384 245.348 349.482 246.572C357.914 247.502 366.554 248.279 375.343 248.898C380.061 229.993 386.969 211.511 396.058 193.837C394.68 193.704 393.314 193.563 391.958 193.413C380.643 192.162 370.361 190.328 361.701 188.016ZM362.786 183.951C361.654 183.649 360.559 183.34 359.501 183.026C373.646 170.184 390.434 159.372 409.794 151.365L412.607 150.202C414.791 150.063 416.98 149.954 419.171 149.876L398.165 189.807C396.229 189.632 394.313 189.44 392.421 189.231C381.262 187.997 371.196 186.196 362.786 183.951ZM423.442 149.761C423.091 149.767 422.74 149.774 422.389 149.782L401.199 190.065C408.417 190.643 415.888 190.983 423.443 191.075L423.442 149.761ZM423.443 195.283C415.156 195.183 406.961 194.789 399.074 194.111C389.905 211.746 382.94 230.204 378.186 249.093C392.967 250.075 408.147 250.616 423.443 250.699L423.443 195.283Z" fill="#CA3B2C"/>
</g>
<mask id="mask3" mask-type="alpha" maskUnits="userSpaceOnUse" x="271" y="322" width="169" height="149">
<path d="M328.732 470.411C308.067 452.249 292.169 429.298 282.43 403.567C272.691 377.836 269.408 350.11 272.868 322.815L439.832 343.983L328.732 470.411Z" fill="#130947"/>
</mask>
<g mask="url(#mask3)">
<path fill-rule="evenodd" clip-rule="evenodd" d="M439.832 175.672C439.451 175.672 439.07 175.673 438.689 175.676C439.07 175.675 439.451 175.674 439.832 175.673L439.832 175.672ZM375.426 188.484C395.493 180.171 416.977 175.823 438.689 175.676C438.687 175.676 438.685 175.676 438.682 175.676C416.972 175.824 395.491 180.172 375.426 188.484ZM369.909 190.886C385.107 186.017 400.927 182.732 417.021 181.095C398.911 189.217 383.126 199.809 369.726 212.212C364.365 210.439 360.129 208.52 357.086 206.559C352.747 203.762 351.915 201.625 351.915 200.568C351.915 200.534 351.916 200.498 351.918 200.46C357.707 196.914 363.715 193.715 369.909 190.886ZM348.106 202.866C348.968 205.348 351.222 207.785 354.807 210.096C357.787 212.016 361.649 213.825 366.292 215.481C349.595 231.828 336.852 251.075 328.194 271.826C316.895 269.832 306.364 267.541 296.77 264.987C295.126 264.55 293.515 264.106 291.936 263.655C299.642 249.465 309.365 236.431 320.826 224.969C329.144 216.651 338.29 209.247 348.106 202.866ZM289.933 267.458C291.809 268 293.727 268.532 295.687 269.053C305.16 271.575 315.512 273.838 326.587 275.814C318.485 296.661 314.442 318.909 314.586 341.179H271.555C271.907 320.031 276.243 299.13 284.343 279.573C284.449 279.316 284.556 279.059 284.664 278.802C286.282 274.951 288.039 271.168 289.933 267.458ZM347.479 484.691C348.125 483.462 349.556 481.846 352.493 479.958C356.87 477.145 363.578 474.423 372.431 472.066C373.239 471.851 374.061 471.64 374.898 471.432C380.629 476.317 386.777 480.926 393.345 485.221L428.001 507.879C419.568 507.591 411.305 507.006 403.432 506.138C397.696 505.506 392.235 504.73 387.119 503.826C383.175 502.526 379.274 501.077 375.426 499.483C365.643 495.431 356.289 490.474 347.479 484.691ZM343.976 482.328C345.168 480.304 347.26 478.32 350.219 476.418C355.067 473.302 362.15 470.468 371.071 468.074C351.938 450.79 337.766 430.333 328.402 408.325C313.758 410.662 300.198 413.45 288.017 416.634C296.239 433.816 307.327 449.498 320.826 462.998C327.965 470.138 335.716 476.604 343.976 482.328ZM281.364 400.67C274.864 382.498 271.532 363.324 271.531 343.984H314.626C315.083 364.488 319.094 384.961 326.761 404.327C312.081 406.697 298.468 409.524 286.221 412.755C285.575 411.311 284.949 409.857 284.343 408.394C283.285 405.841 282.292 403.266 281.364 400.67ZM394.88 482.873C389.014 479.037 383.488 474.946 378.301 470.629C385.782 468.947 394.255 467.569 403.432 466.557C406.521 466.217 409.67 465.92 412.866 465.667L432.982 507.784L394.88 482.873ZM402.971 462.375C392.424 463.538 382.737 465.184 374.344 467.235C355.014 450.144 340.707 429.804 331.267 407.876C339.531 406.603 348.128 405.472 357.006 404.493C367.199 403.37 377.677 402.457 388.347 401.76C392.484 418.705 398.38 435.336 406.042 451.378L410.926 461.604C408.238 461.83 405.584 462.087 402.971 462.375ZM415.868 465.444L436.065 507.732L436.065 464.632C429.231 464.711 422.46 464.984 415.868 465.444ZM408.573 450.169L413.921 461.366C421.134 460.827 428.564 460.51 436.065 460.424V400.099C420.922 400.177 405.883 400.675 391.191 401.579C395.276 418.172 401.068 434.456 408.573 450.169ZM383.87 343.984C384.077 361.91 386.187 379.827 390.206 397.425C405.218 396.486 420.589 395.97 436.065 395.891L436.767 395.888L436.767 343.984H383.87ZM381.048 341.179C381.039 321.714 383.248 302.259 387.669 283.202C379.068 282.587 370.608 281.822 362.346 280.911C350.838 279.642 339.817 278.1 329.407 276.308C321.294 296.981 317.245 319.069 317.391 341.179H381.048ZM381.065 343.984C381.271 361.969 383.37 379.946 387.37 397.607C376.882 398.303 366.577 399.205 356.545 400.311C347.248 401.336 338.248 402.527 329.605 403.876C321.918 384.67 317.894 364.343 317.432 343.984H381.065ZM383.853 341.179H436.767L436.767 285.064C421.131 284.978 405.61 284.418 390.503 283.399C386.063 302.387 383.844 321.778 383.853 341.179ZM375.025 218.173C373.013 217.636 371.097 217.075 369.284 216.493C352.517 232.63 339.722 251.711 331.032 272.317C341.078 274.027 351.708 275.505 362.807 276.729C371.238 277.658 379.878 278.435 388.667 279.055C393.385 260.15 400.293 241.668 409.382 223.993C408.005 223.86 406.638 223.719 405.283 223.569C393.967 222.318 383.685 220.484 375.025 218.173ZM376.11 214.107C374.978 213.805 373.883 213.497 372.825 213.183C386.97 200.34 403.758 189.529 423.118 181.521L425.931 180.358C428.115 180.219 430.304 180.11 432.495 180.032L411.489 219.963C409.553 219.788 407.637 219.596 405.745 219.387C394.586 218.153 384.52 216.352 376.11 214.107ZM436.767 179.918C436.416 179.924 436.065 179.931 435.714 179.939L414.523 220.221C421.741 220.799 429.213 221.139 436.767 221.231L436.767 179.918ZM436.767 225.439C428.48 225.339 420.285 224.945 412.398 224.267C403.229 241.902 396.264 260.36 391.51 279.249C406.291 280.231 421.471 280.772 436.767 280.856L436.767 225.439Z" fill="#CA3B2C"/>
</g>
<mask id="mask4" mask-type="alpha" maskUnits="userSpaceOnUse" x="349" y="353" width="114" height="169">
<path d="M462.272 521.412C420.598 521.412 380.406 505.949 349.476 478.017L462.272 353.1L462.272 521.412Z" fill="#130947"/>
</mask>
<g mask="url(#mask4)">
<path fill-rule="evenodd" clip-rule="evenodd" d="M462.272 184.79C461.89 184.791 461.508 184.791 461.126 184.793C439.414 184.941 417.933 189.289 397.867 197.601C396.012 198.369 394.172 199.17 392.349 200.003C407.547 195.133 423.368 191.849 439.461 190.211C421.352 198.334 405.566 208.926 392.166 221.329C386.805 219.556 382.57 217.637 379.527 215.676C375.187 212.879 374.356 210.742 374.356 209.685C374.356 209.65 374.357 209.614 374.358 209.577C373.077 210.362 371.806 211.164 370.546 211.983C371.408 214.465 373.662 216.902 377.248 219.213C380.227 221.133 384.089 222.941 388.732 224.598C372.035 240.945 359.292 260.192 350.634 280.942C339.335 278.949 328.804 276.658 319.21 274.104C317.567 273.666 315.955 273.222 314.376 272.772C313.693 274.031 313.025 275.298 312.373 276.575C314.249 277.116 316.168 277.648 318.128 278.17C327.6 280.692 337.953 282.955 349.027 284.931C340.926 305.777 336.882 328.026 337.026 350.296H293.995C293.98 351.23 293.972 352.165 293.972 353.1C293.972 353.101 293.972 353.101 293.972 353.101H337.067C337.523 373.605 341.535 394.078 349.201 413.444C334.521 415.814 320.909 418.641 308.662 421.872C309.244 423.173 309.843 424.466 310.458 425.751C322.639 422.567 336.199 419.779 350.843 417.442C356.333 430.347 363.477 442.719 372.305 454.23L374.216 452.103C365.83 441.095 359.003 429.294 353.707 416.993C361.971 415.72 370.568 414.589 379.447 413.61C389.639 412.487 400.117 411.574 410.788 410.877C410.821 411.014 410.855 411.151 410.889 411.288L415.299 406.38C414.413 406.433 413.529 406.486 412.646 406.542C408.628 388.944 406.518 371.027 406.311 353.101H459.207L459.207 357.512L462.272 354.1L462.272 353.1L462.272 184.79ZM409.559 512.943C414.675 513.847 420.136 514.622 425.873 515.255C433.745 516.123 442.008 516.708 450.441 516.996L415.786 494.337C409.217 490.043 403.069 485.434 397.338 480.549C396.502 480.756 395.679 480.968 394.871 481.183C386.018 483.539 379.31 486.262 374.934 489.075C371.996 490.962 370.565 492.579 369.92 493.808C378.729 499.591 388.084 504.548 397.867 508.6C401.715 510.194 405.615 511.643 409.559 512.943ZM366.416 491.445C367.608 489.421 369.7 487.436 372.659 485.535C377.507 482.419 384.591 479.585 393.511 477.191C385.598 470.042 378.533 462.35 372.305 454.23L350.283 478.741C355.403 483.305 360.791 487.547 366.416 491.445ZM459.207 357.512L459.207 405.004L458.506 405.008C443.94 405.082 429.467 405.544 415.299 406.38L459.207 357.512ZM410.889 411.288L374.216 452.103C380.78 460.719 388.298 468.849 396.785 476.352C405.177 474.301 414.865 472.655 425.412 471.492C428.024 471.204 430.678 470.946 433.366 470.721L428.482 460.495C420.883 444.583 415.02 428.092 410.889 411.288ZM417.321 491.99C411.454 488.154 405.929 484.063 400.741 479.746C408.223 478.064 416.696 476.686 425.873 475.674C428.962 475.334 432.111 475.037 435.307 474.784L455.422 516.901L417.321 491.99ZM438.309 474.561L458.506 516.849L458.506 473.749C451.672 473.828 444.901 474.101 438.309 474.561ZM431.013 459.286L436.361 470.483C443.574 469.944 451.005 469.627 458.506 469.541V409.216C443.362 409.294 428.324 409.792 413.632 410.696C417.717 427.289 423.509 443.573 431.013 459.286ZM403.489 350.296C403.48 330.831 405.689 311.376 410.109 292.319C401.508 291.704 393.049 290.939 384.786 290.028C373.279 288.759 362.257 287.217 351.848 285.425C343.735 306.097 339.686 328.186 339.832 350.296H403.489ZM403.506 353.101C403.711 371.086 405.811 389.063 409.811 406.724C399.322 407.42 389.018 408.322 378.986 409.428C369.688 410.452 360.689 411.644 352.046 412.992C344.358 393.787 340.334 373.46 339.873 353.101H403.506ZM406.294 350.296H459.207L459.207 294.18C443.571 294.095 428.05 293.535 412.943 292.516C408.504 311.504 406.285 330.895 406.294 350.296ZM397.465 227.29C395.453 226.752 393.538 226.192 391.724 225.61C374.957 241.747 362.162 260.828 353.472 281.434C363.519 283.144 374.148 284.622 385.247 285.845C393.679 286.775 402.319 287.552 411.107 288.171C415.826 269.266 422.733 250.784 431.822 233.11C430.445 232.977 429.078 232.836 427.723 232.686C416.407 231.435 406.126 229.601 397.465 227.29ZM398.55 223.224C397.418 222.922 396.323 222.613 395.266 222.3C409.41 209.457 426.199 198.645 445.559 190.638L448.371 189.475C450.556 189.336 452.744 189.227 454.936 189.149L433.93 229.08C431.994 228.905 430.078 228.713 428.185 228.504C417.027 227.27 406.961 225.469 398.55 223.224ZM459.207 189.034C458.856 189.041 458.505 189.048 458.154 189.055L436.963 229.338C444.182 229.916 451.653 230.256 459.207 230.348L459.207 189.034ZM459.207 234.556C450.92 234.456 442.725 234.062 434.838 233.384C425.67 251.019 418.705 269.477 413.951 288.366C428.732 289.348 443.912 289.889 459.207 289.972L459.207 234.556Z" fill="#CA3B2C"/>
</g>
<path d="M311.074 626.248H296.482C296.418 630.472 297.186 634.12 298.786 637.192C300.386 640.264 302.53 642.792 305.218 644.776C307.97 646.76 311.106 648.2 314.626 649.096C318.21 650.056 321.89 650.536 325.666 650.536C330.338 650.536 334.434 649.992 337.954 648.904C341.538 647.816 344.514 646.312 346.882 644.392C349.314 642.408 351.138 640.072 352.354 637.384C353.57 634.696 354.178 631.784 354.178 628.648C354.178 624.808 353.346 621.672 351.682 619.24C350.082 616.744 348.162 614.76 345.922 613.288C343.682 611.816 341.41 610.76 339.106 610.12C336.866 609.416 335.106 608.936 333.826 608.68C329.538 607.592 326.05 606.696 323.362 605.992C320.738 605.288 318.658 604.584 317.122 603.88C315.65 603.176 314.658 602.408 314.146 601.576C313.634 600.744 313.378 599.656 313.378 598.312C313.378 596.84 313.698 595.624 314.338 594.664C314.978 593.704 315.778 592.904 316.738 592.264C317.762 591.624 318.882 591.176 320.098 590.92C321.314 590.664 322.53 590.536 323.746 590.536C325.602 590.536 327.298 590.696 328.834 591.016C330.434 591.336 331.842 591.88 333.058 592.648C334.274 593.416 335.234 594.472 335.938 595.816C336.706 597.16 337.154 598.856 337.282 600.904H351.874C351.874 596.936 351.106 593.576 349.57 590.824C348.098 588.008 346.082 585.704 343.522 583.912C340.962 582.12 338.018 580.84 334.69 580.072C331.426 579.24 328.002 578.824 324.418 578.824C321.346 578.824 318.274 579.24 315.202 580.072C312.13 580.904 309.378 582.184 306.946 583.912C304.514 585.64 302.53 587.816 300.994 590.44C299.522 593 298.786 596.04 298.786 599.56C298.786 602.696 299.362 605.384 300.514 607.624C301.73 609.8 303.298 611.624 305.218 613.096C307.138 614.568 309.314 615.784 311.746 616.744C314.178 617.64 316.674 618.408 319.234 619.048C321.73 619.752 324.194 620.392 326.626 620.968C329.058 621.544 331.234 622.216 333.154 622.984C335.074 623.752 336.61 624.712 337.762 625.864C338.978 627.016 339.586 628.52 339.586 630.376C339.586 632.104 339.138 633.544 338.242 634.696C337.346 635.784 336.226 636.648 334.882 637.288C333.538 637.928 332.098 638.376 330.562 638.632C329.026 638.824 327.586 638.92 326.242 638.92C324.258 638.92 322.338 638.696 320.482 638.248C318.626 637.736 316.994 637 315.586 636.04C314.242 635.016 313.154 633.704 312.322 632.104C311.49 630.504 311.074 628.552 311.074 626.248ZM385.514 593.128V649H400.586V593.128H421.13V580.456H364.97V593.128H385.514ZM448.329 615.016C448.329 612.008 448.649 609.096 449.289 606.28C449.993 603.464 451.081 600.968 452.553 598.792C454.025 596.552 455.945 594.792 458.313 593.512C460.681 592.168 463.561 591.496 466.953 591.496C470.345 591.496 473.225 592.168 475.593 593.512C477.961 594.792 479.881 596.552 481.353 598.792C482.825 600.968 483.881 603.464 484.521 606.28C485.225 609.096 485.577 612.008 485.577 615.016C485.577 617.896 485.225 620.712 484.521 623.464C483.881 626.152 482.825 628.584 481.353 630.76C479.881 632.936 477.961 634.696 475.593 636.04C473.225 637.32 470.345 637.96 466.953 637.96C463.561 637.96 460.681 637.32 458.313 636.04C455.945 634.696 454.025 632.936 452.553 630.76C451.081 628.584 449.993 626.152 449.289 623.464C448.649 620.712 448.329 617.896 448.329 615.016ZM433.257 615.016C433.257 620.008 434.025 624.68 435.561 629.032C437.097 633.32 439.305 637.064 442.185 640.264C445.065 643.464 448.585 645.992 452.745 647.848C456.969 649.64 461.705 650.536 466.953 650.536C472.265 650.536 477.001 649.64 481.161 647.848C485.321 645.992 488.841 643.464 491.721 640.264C494.601 637.064 496.809 633.32 498.345 629.032C499.881 624.68 500.649 620.008 500.649 615.016C500.649 609.896 499.881 605.16 498.345 600.808C496.809 596.392 494.601 592.552 491.721 589.288C488.841 586.024 485.321 583.464 481.161 581.608C477.001 579.752 472.265 578.824 466.953 578.824C461.705 578.824 456.969 579.752 452.745 581.608C448.585 583.464 445.065 586.024 442.185 589.288C439.305 592.552 437.097 596.392 435.561 600.808C434.025 605.16 433.257 609.896 433.257 615.016ZM533.224 612.712V592.168H544.936C546.664 592.168 548.328 592.296 549.928 592.552C551.528 592.808 552.936 593.32 554.152 594.088C555.368 594.792 556.328 595.816 557.032 597.16C557.8 598.504 558.184 600.264 558.184 602.44C558.184 604.616 557.8 606.376 557.032 607.72C556.328 609.064 555.368 610.12 554.152 610.888C552.936 611.592 551.528 612.072 549.928 612.328C548.328 612.584 546.664 612.712 544.936 612.712H533.224ZM518.152 580.456V649H533.224V624.424H549.064C553.352 624.424 557 623.816 560.008 622.6C563.016 621.32 565.448 619.656 567.304 617.608C569.224 615.56 570.6 613.224 571.432 610.6C572.328 607.912 572.776 605.192 572.776 602.44C572.776 599.624 572.328 596.904 571.432 594.28C570.6 591.656 569.224 589.32 567.304 587.272C565.448 585.224 563.016 583.592 560.008 582.376C557 581.096 553.352 580.456 549.064 580.456H518.152ZM229.137 696.456H185.361V707.784H200.337V765H214.161V707.784H229.137V696.456ZM238.014 696.456V765H251.838V736.008H259.23C262.11 736.008 264.158 736.776 265.374 738.312C266.59 739.848 267.262 741.96 267.39 744.648L267.774 757.8C267.838 759.144 267.966 760.456 268.158 761.736C268.35 762.952 268.798 764.04 269.502 765H284.478V764.424C283.198 763.72 282.366 762.408 281.982 760.488C281.726 758.568 281.534 755.784 281.406 752.136C281.342 750.28 281.278 748.616 281.214 747.144C281.15 745.608 281.054 744.2 280.926 742.92C280.542 739.08 279.55 736.296 277.95 734.568C276.35 732.84 273.822 731.72 270.366 731.208V731.016C274.27 730.184 277.15 728.328 279.006 725.448C280.862 722.504 281.79 718.728 281.79 714.12C281.79 708.168 280.19 703.752 276.99 700.872C273.79 697.928 269.31 696.456 263.55 696.456H238.014ZM251.838 726.408V706.632H258.366C264.766 706.632 267.966 709.8 267.966 716.136C267.966 719.848 267.07 722.504 265.278 724.104C263.486 725.64 260.926 726.408 257.598 726.408H251.838ZM322.846 739.176L316.222 708.36H316.03L309.406 739.176H322.846ZM324.67 696.456L342.814 765H328.414L325.246 750.504H307.006L303.838 765H289.438L307.582 696.456H324.67ZM350.462 696.456V765H364.286V735.24H387.326V723.912H364.286V707.784H388.766V696.456H350.462ZM397.779 696.456V765H411.603V735.24H434.643V723.912H411.603V707.784H436.083V696.456H397.779ZM445.769 765H459.593V696.456H445.769V765ZM502.007 719.592H515.831C515.831 717.096 515.639 714.44 515.255 711.624C514.935 708.744 514.071 706.088 512.663 703.656C511.255 701.16 509.111 699.112 506.231 697.512C503.415 695.912 499.543 695.112 494.615 695.112C489.431 695.112 485.303 696.008 482.231 697.8C479.159 699.528 476.791 701.96 475.127 705.096C473.527 708.232 472.471 712.008 471.959 716.424C471.511 720.776 471.287 725.544 471.287 730.728C471.287 735.976 471.511 740.776 471.959 745.128C472.471 749.48 473.527 753.224 475.127 756.36C476.791 759.496 479.159 761.896 482.231 763.56C485.303 765.224 489.431 766.056 494.615 766.056C499.159 766.056 502.839 765.352 505.655 763.944C508.535 762.536 510.743 760.584 512.279 758.088C513.879 755.592 514.967 752.68 515.543 749.352C516.119 746.024 516.407 742.504 516.407 738.792H502.583C502.583 742.504 502.359 745.512 501.911 747.816C501.463 750.056 500.855 751.816 500.087 753.096C499.319 754.312 498.391 755.144 497.303 755.592C496.279 755.976 495.159 756.168 493.943 756.168C492.471 756.168 491.159 755.88 490.007 755.304C488.919 754.664 487.991 753.48 487.223 751.752C486.519 749.96 485.975 747.464 485.591 744.264C485.271 741.064 485.111 736.872 485.111 731.688C485.111 726.824 485.239 722.728 485.495 719.4C485.751 716.008 486.199 713.288 486.839 711.24C487.479 709.128 488.343 707.624 489.431 706.728C490.583 705.768 492.023 705.288 493.751 705.288C496.887 705.288 499.031 706.44 500.183 708.744C501.399 710.984 502.007 714.6 502.007 719.592ZM540.993 696.456H527.169V765H540.993V744.648L546.081 736.872L560.193 765H575.745L555.009 725.832L573.633 696.456H558.657L541.185 723.912H540.993V696.456ZM582.284 765H596.108V696.456H582.284V765ZM625.178 696.456H609.242V765H621.914V717H622.106L639.002 765H654.746V696.456H642.074V743.4H641.882L625.178 696.456ZM697.679 716.808H710.927C710.927 709.832 709.263 704.488 705.935 700.776C702.607 697 697.167 695.112 689.615 695.112C685.199 695.112 681.519 695.848 678.575 697.32C675.631 698.792 673.263 701 671.471 703.944C669.679 706.824 668.399 710.44 667.631 714.792C666.927 719.144 666.575 724.2 666.575 729.96C666.575 735.912 666.831 741.16 667.343 745.704C667.855 750.184 668.847 753.96 670.319 757.032C671.855 760.104 673.935 762.376 676.559 763.848C679.247 765.32 682.703 766.056 686.927 766.056C690.191 766.056 692.975 765.512 695.279 764.424C697.647 763.272 699.663 761.352 701.327 758.664H701.519V765H711.695V728.04H689.327V738.216H698.447V745.224C698.447 747.08 698.159 748.712 697.583 750.12C697.007 751.464 696.271 752.584 695.375 753.48C694.543 754.376 693.615 755.048 692.591 755.496C691.631 755.944 690.735 756.168 689.903 756.168C687.919 756.168 686.287 755.56 685.007 754.344C683.791 753.064 682.831 751.272 682.127 748.968C681.487 746.6 681.039 743.752 680.783 740.424C680.527 737.096 680.399 733.384 680.399 729.288C680.399 720.712 681.135 714.568 682.607 710.856C684.079 707.144 686.479 705.288 689.807 705.288C691.215 705.288 692.399 705.672 693.359 706.44C694.383 707.144 695.215 708.072 695.855 709.224C696.495 710.312 696.943 711.528 697.199 712.872C697.519 714.216 697.679 715.528 697.679 716.808Z" fill="white"/>
</svg>
