<svg width="393" height="432" viewBox="0 0 393 432" fill="none" xmlns="http://www.w3.org/2000/svg">
<path fill-rule="evenodd" clip-rule="evenodd" d="M231.518 62.5454C229.45 62.4278 227.378 62.3376 225.304 62.2747C231.256 74.3437 236.505 86.6669 241.05 99.1846C245.187 98.8998 249.25 98.5377 253.208 98.1001C261.542 97.1786 269.246 95.9404 276.084 94.4414C263.432 81.9917 248.558 71.1663 231.518 62.5454ZM218.176 57.0562L218.176 57.0562L218.176 135.761L218.176 110.868V105.959H218.176V99.9589L218.176 81.0628V62.1667L218.176 57.0562ZM236.886 99.4436C233.128 89.1948 228.89 79.0793 224.176 69.1306L224.176 99.9064C228.455 99.8315 232.703 99.6766 236.886 99.4436ZM224.176 105.907C229.168 105.821 234.122 105.628 238.988 105.331C245.065 122.832 249.761 140.699 253.071 158.768C243.54 159.209 233.884 159.47 224.176 159.546V110.868V105.907ZM224.176 165.546C234.233 165.468 244.238 165.193 254.111 164.726C257.173 183.178 258.796 201.82 258.977 220.478H224.176V165.546ZM218.176 220.478V165.569H218.176L218.176 220.478H218.176ZM218.176 224.478L218.176 364.309L218.176 346.894V340.894L218.176 334.582V282.374V276.374L218.176 231.141V224.478H218.176ZM224.176 224.478H258.993C258.969 242.1 257.657 259.725 255.055 277.207C244.865 276.744 234.546 276.472 224.176 276.396L224.176 231.141V224.478ZM262.993 224.478C262.969 242.164 261.663 259.853 259.07 277.4C273.712 278.141 288.067 279.28 301.903 280.805C307.541 281.426 313.069 282.109 318.474 282.851C325.223 264.001 328.678 244.24 328.925 224.478H262.993ZM332.926 224.478C332.683 244.424 329.243 264.371 322.523 283.421C340.564 286.025 357.17 289.297 371.833 293.145C372.463 291.736 373.074 290.317 373.665 288.888C382.123 268.468 386.476 246.581 386.476 224.478L332.926 224.478ZM386.429 220.478H332.932C332.736 199.268 328.929 178.126 321.614 158.132C336.86 155.767 350.932 152.884 363.463 149.548C365.077 149.118 366.663 148.681 368.22 148.238C370.184 152.104 372.001 156.05 373.665 160.068C381.613 179.256 385.936 199.738 386.429 220.478ZM328.931 220.478H262.977C262.798 201.753 261.181 183.045 258.132 164.525C271.345 163.828 284.3 162.784 296.805 161.405C303.923 160.62 310.856 159.731 317.573 158.743C324.913 178.52 328.734 199.465 328.931 220.478ZM224.176 282.396C234.231 282.47 244.235 282.73 254.116 283.171C250.843 302.893 245.919 322.411 239.341 341.513C235.011 341.257 230.617 341.079 226.189 340.982C225.519 340.967 224.848 340.954 224.176 340.943L224.176 334.582V282.396ZM301.246 286.769C287.334 285.236 272.885 284.096 258.139 283.361C254.888 303.105 250.002 322.648 243.477 341.783C247.553 342.075 251.562 342.437 255.478 342.869C256.217 342.951 256.952 343.034 257.682 343.121C265.151 344.002 272.162 345.129 278.557 346.472C295.402 329.325 307.942 309.604 316.298 288.61C311.382 287.947 306.361 287.333 301.246 286.769ZM226.15 346.982C229.884 347.065 233.592 347.206 237.255 347.404C233.407 357.977 229.048 368.414 224.176 378.68L224.176 366.842V346.944C224.835 346.955 225.493 346.968 226.15 346.982ZM251.137 385.234C245.031 385.829 238.712 386.258 232.282 386.512L250.137 374.838C260.457 368.091 269.79 360.605 278.147 352.519C280.736 353.075 283.21 353.667 285.557 354.292C286.105 354.438 286.644 354.585 287.174 354.733C295.129 356.959 301.092 359.457 304.986 361.96C305.16 362.071 305.327 362.181 305.487 362.289C307.899 363.913 308.919 365.171 309.346 365.955C300.883 371.409 291.928 376.106 282.582 379.978C282.246 380.117 281.909 380.255 281.572 380.392C273.738 382.247 264.701 383.761 254.82 384.851C253.601 384.985 252.374 385.113 251.137 385.234ZM247.948 371.49C257.232 365.421 265.698 358.741 273.356 351.555C268.254 350.594 262.771 349.763 256.982 349.08C256.266 348.995 255.545 348.913 254.82 348.833C250.462 348.352 245.982 347.959 241.418 347.655C237.33 359.004 232.66 370.201 227.406 381.201L224.822 386.611L247.948 371.49ZM287.1 348.494C285.814 348.151 284.493 347.819 283.14 347.497C299.747 330.128 312.122 310.269 320.382 289.176C338.294 291.72 354.746 294.918 369.243 298.671C361.102 315.25 350.276 330.398 337.182 343.493C330.132 350.543 322.486 356.936 314.343 362.607C313.207 360.779 311.337 358.985 308.756 357.257C308.584 357.142 308.408 357.027 308.23 356.912C303.638 353.961 297.04 351.262 288.775 348.951C288.224 348.797 287.666 348.645 287.1 348.494ZM361.919 143.75C349.272 147.117 334.972 150.027 319.408 152.401C311.481 132.791 300.109 114.413 285.391 98.3225C293.457 96.0843 299.887 93.462 304.343 90.5901C307.641 88.4647 309.813 86.2319 310.81 83.9561C320.282 90.201 329.121 97.4026 337.182 105.464C348.283 116.565 357.753 129.143 365.34 142.816C364.216 143.131 363.076 143.442 361.919 143.75ZM253.867 104.064C263.846 102.96 273.02 101.404 280.988 99.4663C295.854 115.325 307.336 133.533 315.332 153.006C309.119 153.904 302.717 154.717 296.147 155.442C283.534 156.832 270.451 157.879 257.101 158.571C253.814 140.479 249.153 122.585 243.124 105.052C246.769 104.782 250.357 104.452 253.867 104.064ZM282.578 92.87C281.953 93.0367 281.319 93.201 280.676 93.3628C269.37 81.9203 256.27 71.7668 241.415 63.3183C259.742 65.141 277.714 69.114 294.809 75.1441C295.867 75.5173 296.921 75.8981 297.97 76.2864C300.429 77.6103 302.853 78.9947 305.24 80.4381C305.424 80.8095 305.442 81.0244 305.442 81.0628C305.442 81.1768 305.284 82.8458 301.093 85.5467C297.151 88.0872 290.955 90.6339 282.578 92.87Z" fill="#5C95A9"/>
<mask id="mask0" mask-type="alpha" maskUnits="userSpaceOnUse" x="161" y="21" width="45" height="170">
<path d="M161.276 27.7318C175.732 23.7894 190.65 21.7953 205.634 21.8024L205.554 190.114L161.276 27.7318Z" fill="#130947"/>
</mask>
<g mask="url(#mask0)">
<path fill-rule="evenodd" clip-rule="evenodd" d="M37.2765 187.31H80.3077C80.1635 165.04 84.2069 142.791 92.3085 121.945C81.2339 119.969 70.8813 117.706 61.4089 115.184C59.4489 114.662 57.5305 114.131 55.6546 113.589C53.6349 117.546 51.7695 121.587 50.0642 125.704C41.9642 145.261 37.6289 166.162 37.2765 187.31ZM57.6574 109.786C59.2365 110.236 60.8479 110.681 62.4913 111.118C72.0858 113.672 82.6164 115.963 93.9153 117.957C102.573 97.2062 115.316 77.9589 132.013 61.6123C127.37 59.9555 123.508 58.1469 120.529 56.2267C116.944 53.9162 114.689 51.4789 113.828 48.9973C104.012 55.3783 94.8653 62.7815 86.5472 71.1C75.0865 82.5615 65.3636 95.5961 57.6574 109.786ZM135.63 37.0168C129.436 39.8462 123.429 43.0445 117.64 46.5911C117.638 46.6284 117.637 46.6645 117.637 46.6994C117.637 47.7557 118.469 49.8933 122.808 52.6897C125.851 54.6508 130.086 56.5702 135.448 58.343C148.847 45.9399 164.633 35.3482 182.743 27.2255C166.649 28.8632 150.829 32.1475 135.63 37.0168ZM204.405 21.8067C204.788 21.8055 205.171 21.8047 205.554 21.8041L205.554 21.8027C205.171 21.8027 204.788 21.804 204.405 21.8067ZM37.2531 190.115C37.2532 212.218 41.6064 234.104 50.0642 254.524C50.6703 255.988 51.2967 257.442 51.9431 258.886C64.1901 255.655 77.8025 252.828 92.4823 250.458C84.8158 231.092 80.8047 210.619 80.348 190.115H37.2531ZM53.7389 262.765C65.9201 259.581 79.4802 256.793 94.1239 254.456C103.488 276.464 117.66 296.921 136.792 314.205C127.872 316.599 120.789 319.433 115.94 322.549C112.981 324.45 110.89 326.435 109.697 328.459C101.437 322.735 93.687 316.269 86.5472 309.129C73.0483 295.629 61.9602 279.947 53.7389 262.765ZM113.201 330.822C113.846 329.593 115.277 327.977 118.215 326.089C122.592 323.276 129.3 320.553 138.152 318.197C138.96 317.982 139.783 317.77 140.62 317.563C146.351 322.448 152.498 327.057 159.067 331.352L193.723 354.01C185.29 353.722 177.026 353.137 169.154 352.269C163.418 351.636 157.956 350.861 152.84 349.957C148.896 348.657 144.996 347.208 141.148 345.614C131.365 341.562 122.011 336.605 113.201 330.822ZM187.597 357.465C192.114 357.82 196.679 358.001 201.287 358.001C202.713 358.001 204.136 357.983 205.554 357.949L205.554 358.426C199.544 358.426 193.55 358.104 187.597 357.465ZM160.602 329.004C154.735 325.168 149.21 321.077 144.023 316.76C151.504 315.078 159.977 313.7 169.154 312.688C172.243 312.348 175.392 312.051 178.588 311.798L198.703 353.915L160.602 329.004ZM168.693 308.506C158.146 309.669 148.459 311.315 140.066 313.366C120.736 296.275 106.429 275.935 96.9882 254.007C105.253 252.734 113.85 251.603 122.728 250.624C132.92 249.501 143.399 248.588 154.069 247.891C158.205 264.836 164.102 281.467 171.764 297.509L176.647 307.735C173.96 307.96 171.306 308.218 168.693 308.506ZM181.59 311.575L201.787 353.863L201.787 310.763C194.953 310.842 188.182 311.115 181.59 311.575ZM174.295 296.3L179.642 307.497C186.855 306.958 194.286 306.641 201.787 306.555V246.23C186.644 246.308 171.605 246.806 156.913 247.71C160.998 264.303 166.79 280.587 174.295 296.3ZM149.592 190.115C149.799 208.041 151.909 225.958 155.927 243.556C170.939 242.617 186.311 242.101 201.787 242.022L202.488 242.019L202.488 190.115H149.592ZM146.77 187.31C146.761 167.845 148.97 148.39 153.39 129.333C144.79 128.718 136.33 127.953 128.067 127.042C116.56 125.773 105.538 124.231 95.1292 122.439C87.0158 143.111 82.9669 165.2 83.1131 187.31H146.77ZM146.787 190.115C146.992 208.1 149.092 226.077 153.092 243.738C142.603 244.434 132.299 245.336 122.267 246.442C112.97 247.466 103.97 248.658 95.3268 250.006C87.6393 230.801 83.6158 210.474 83.1542 190.115H146.787ZM149.575 187.31H202.488L202.488 131.194C186.852 131.109 171.332 130.549 156.224 129.53C151.785 148.518 149.566 167.909 149.575 187.31ZM140.747 64.3036C138.734 63.7665 136.819 63.2061 135.005 62.6242C118.239 78.7609 105.444 97.8423 96.7536 118.448C106.8 120.158 117.43 121.636 128.528 122.86C136.96 123.789 145.6 124.566 154.389 125.185C159.107 106.28 166.015 87.7985 175.104 70.1237C173.726 69.9913 172.36 69.8502 171.004 69.7004C159.689 68.4492 149.407 66.6154 140.747 64.3036ZM141.832 60.2381C140.7 59.9359 139.605 59.6276 138.547 59.3136C152.691 46.4713 169.48 35.6596 188.84 27.6523L191.653 26.489C193.837 26.35 196.025 26.2412 198.217 26.1627L177.211 66.094C175.275 65.9193 173.359 65.7273 171.467 65.5181C160.308 64.2843 150.242 62.4831 141.832 60.2381ZM202.488 26.0484C202.137 26.0546 201.786 26.0616 201.435 26.0694L180.245 66.3522C187.463 66.9299 194.934 67.2698 202.488 67.362L202.488 26.0484ZM202.488 71.5701C194.202 71.4702 186.006 71.0757 178.12 70.3981C168.951 88.0333 161.986 106.491 157.232 125.38C172.013 126.362 187.193 126.903 202.488 126.987L202.488 71.5701Z" fill="#5C95A9"/>
</g>
<mask id="mask1" mask-type="alpha" maskUnits="userSpaceOnUse" x="36" y="7" width="143" height="162">
<path d="M36.6494 77.3335C58.3859 43.5318 91.499 18.6238 130.001 7.11335L178.204 168.374L36.6494 77.3335Z" fill="#130947"/>
</mask>
<g mask="url(#mask1)">
<path fill-rule="evenodd" clip-rule="evenodd" d="M178.204 0.0620117C177.823 0.0620118 177.442 0.0633045 177.062 0.0658894C177.442 0.0647621 177.823 0.0639162 178.204 0.0633526L178.204 0.0620117ZM113.798 12.874C133.866 4.56128 155.349 0.213285 177.062 0.0658894C177.059 0.0658967 177.057 0.065904 177.054 0.0659114C155.344 0.214247 133.863 4.5622 113.798 12.874ZM108.281 15.276C123.479 10.4067 139.299 7.12247 155.393 5.48471C137.283 13.6075 121.498 24.1991 108.098 36.6022C102.737 34.8294 98.5015 32.91 95.4584 30.9489C91.1191 28.1525 90.2873 26.015 90.2873 24.9586C90.2873 24.9237 90.2882 24.8876 90.2901 24.8504C96.0794 21.3038 102.087 18.1054 108.281 15.276ZM86.4779 27.2566C87.3397 29.7381 89.594 32.1755 93.1793 34.4859C96.1589 36.4061 100.021 38.2147 104.664 39.8716C87.9668 56.2181 75.2237 75.4655 66.5656 96.2158C55.2668 94.2221 44.7361 91.9316 35.1417 89.3773C33.4983 88.9398 31.8869 88.4957 30.3078 88.0454C38.014 73.8554 47.737 60.8207 59.1976 49.3593C67.5157 41.0408 76.6623 33.6376 86.4779 27.2566ZM28.305 91.8483C30.1809 92.3898 32.0993 92.9217 34.0593 93.4435C43.5317 95.9653 53.8843 98.2283 64.9589 100.204C56.8573 121.051 52.8139 143.299 52.958 165.569H9.92688C10.2793 144.421 14.6146 123.52 22.7146 103.964C22.8212 103.706 22.9284 103.449 23.0363 103.192C24.6537 99.3416 26.4116 95.5578 28.305 91.8483ZM85.8512 309.081C86.4968 307.852 87.9277 306.236 90.8654 304.348C95.242 301.535 101.95 298.813 110.803 296.456C111.611 296.241 112.433 296.03 113.27 295.823C119.001 300.707 125.149 305.316 131.718 309.611L166.373 332.269C157.94 331.981 149.677 331.396 141.804 330.528C136.068 329.896 130.607 329.12 125.491 328.217C121.547 326.916 117.646 325.467 113.798 323.873C104.015 319.821 94.6609 314.864 85.8512 309.081ZM82.3477 306.718C83.5401 304.694 85.6317 302.71 88.5908 300.808C93.4391 297.692 100.522 294.858 109.443 292.464C90.3104 275.18 76.1382 254.724 66.7743 232.715C52.1305 235.052 38.5705 237.841 26.3893 241.024C34.6106 258.206 45.6987 273.888 59.1976 287.388C66.3374 294.528 74.0878 300.994 82.3477 306.718ZM19.7358 225.06C13.2365 206.888 9.90358 187.714 9.90352 168.374H52.9984C53.455 188.878 57.4662 209.351 65.1327 228.717C50.4529 231.087 36.8405 233.914 24.5935 237.145C23.9471 235.701 23.3208 234.247 22.7146 232.784C21.6574 230.231 20.6643 227.656 19.7358 225.06ZM133.252 307.263C127.386 303.427 121.86 299.336 116.673 295.02C124.154 293.337 132.627 291.959 141.804 290.947C144.893 290.607 148.042 290.31 151.238 290.057L171.354 332.174L133.252 307.263ZM141.343 286.765C130.796 287.928 121.109 289.574 112.716 291.626C93.3863 274.535 79.0789 254.194 69.6386 232.266C77.903 230.993 86.5 229.862 95.3783 228.884C105.571 227.76 116.049 226.848 126.72 226.15C130.856 243.096 136.752 259.726 144.414 275.768L149.298 285.994C146.61 286.22 143.956 286.477 141.343 286.765ZM154.24 289.834L174.438 332.123L174.438 289.022C167.603 289.102 160.833 289.374 154.24 289.834ZM146.945 274.559L152.293 285.756C159.506 285.217 166.936 284.9 174.438 284.814V224.489C159.294 224.567 144.255 225.065 129.563 225.97C133.648 242.562 139.44 258.846 146.945 274.559ZM122.242 168.374C122.449 186.3 124.559 204.217 128.578 221.815C143.59 220.876 158.961 220.36 174.438 220.281L175.139 220.278L175.139 168.374H122.242ZM119.421 165.569C119.411 146.104 121.621 126.649 126.041 107.592C117.44 106.977 108.98 106.212 100.718 105.301C89.2105 104.032 78.1887 102.491 67.7796 100.699C59.6662 121.371 55.6172 143.459 55.7635 165.569H119.421ZM119.437 168.374C119.643 186.359 121.742 204.336 125.743 221.997C115.254 222.693 104.95 223.596 94.9175 224.701C85.6201 225.726 76.6202 226.917 67.9772 228.266C60.2896 209.06 56.2661 188.733 55.8045 168.374H119.437ZM122.226 165.569H175.139L175.139 109.454C159.503 109.368 143.982 108.808 128.875 107.789C124.435 126.777 122.216 146.168 122.226 165.569ZM113.397 42.5628C111.385 42.0257 109.469 41.4653 107.656 40.8835C90.889 57.0201 78.0941 76.1016 69.404 96.7076C79.4505 98.417 90.0801 99.8949 101.179 101.119C109.61 102.049 118.25 102.825 127.039 103.445C131.758 84.5397 138.665 66.0577 147.754 48.3829C146.377 48.2506 145.01 48.1095 143.655 47.9596C132.339 46.7085 122.058 44.8746 113.397 42.5628ZM114.482 38.4974C113.35 38.1952 112.255 37.8868 111.197 37.5728C125.342 24.7306 142.13 13.9188 161.49 5.91157L164.303 4.74825C166.487 4.60924 168.676 4.50044 170.867 4.42199L149.861 44.3532C147.925 44.1786 146.009 43.9865 144.117 43.7773C132.958 42.5435 122.892 40.7424 114.482 38.4974ZM175.139 4.30764C174.788 4.31387 174.437 4.32088 174.086 4.32867L152.895 44.6114C160.114 45.1892 167.585 45.5291 175.139 45.6213L175.139 4.30764ZM175.139 49.8294C166.852 49.7295 158.657 49.335 150.77 48.6573C141.601 66.2925 134.636 84.7506 129.882 103.639C144.663 104.621 159.843 105.162 175.139 105.246L175.139 49.8294Z" fill="#5C95A9"/>
</g>
<mask id="mask2" mask-type="alpha" maskUnits="userSpaceOnUse" x="6" y="106" width="168" height="92">
<path d="M6.47673 175.541C9.7629 150.941 18.4483 127.372 31.9108 106.523L173.295 197.828L6.47673 175.541Z" fill="#130947"/>
</mask>
<g mask="url(#mask2)">
<path fill-rule="evenodd" clip-rule="evenodd" d="M173.295 29.5171C172.914 29.5171 172.533 29.5184 172.152 29.521C172.533 29.5198 172.914 29.519 173.295 29.5184L173.295 29.5171ZM108.889 42.329C128.956 34.0164 150.439 29.6684 172.152 29.521C172.15 29.521 172.147 29.521 172.145 29.521C150.435 29.6693 128.954 34.0173 108.889 42.329ZM103.372 44.7311C118.57 39.8617 134.39 36.5776 150.484 34.9398C132.374 43.0625 116.588 53.6542 103.189 66.0573C97.8274 64.2845 93.5923 62.3651 90.5492 60.404C86.2099 57.6076 85.3781 55.4701 85.3781 54.4137C85.3781 54.3788 85.379 54.3427 85.3809 54.3055C91.1702 50.7588 97.1775 47.5604 103.372 44.7311ZM81.5687 56.7117C82.4305 59.1932 84.6848 61.6306 88.2701 63.941C91.2497 65.8612 95.1114 67.6698 99.7545 69.3266C83.0576 85.6732 70.3146 104.921 61.6565 125.671C50.3576 123.677 39.827 121.387 30.2325 118.832C28.5891 118.395 26.9777 117.951 25.3987 117.5C33.1048 103.31 42.8278 90.2758 54.2885 78.8144C62.6065 70.4958 71.7531 63.0927 81.5687 56.7117ZM23.3959 121.303C25.2717 121.845 27.1901 122.377 29.1501 122.899C38.6225 125.42 48.9751 127.683 60.0497 129.659C51.9481 150.506 47.9047 172.754 48.0489 195.024H5.0177C5.3701 173.876 9.70546 152.975 17.8055 133.419C17.912 133.161 18.0192 132.904 18.1271 132.648C19.7445 128.797 21.5024 125.013 23.3959 121.303ZM80.942 338.536C81.5876 337.308 83.0186 335.691 85.9563 333.803C90.3328 330.99 97.0407 328.268 105.894 325.911C106.702 325.696 107.524 325.485 108.361 325.278C114.092 330.162 120.24 334.771 126.808 339.066L161.464 361.724C153.031 361.436 144.767 360.851 136.895 359.983C131.159 359.351 125.698 358.575 120.582 357.672C116.638 356.371 112.737 354.923 108.889 353.328C99.1062 349.276 89.7517 344.319 80.942 338.536ZM77.4386 336.173C78.6309 334.149 80.7225 332.165 83.6816 330.263C88.5299 327.147 95.613 324.313 104.534 321.919C85.4012 304.635 71.229 284.179 61.8652 262.17C47.2214 264.507 33.6613 267.296 21.4801 270.479C29.7014 287.661 40.7896 303.343 54.2884 316.843C61.4283 323.983 69.1786 330.449 77.4386 336.173ZM14.8266 254.515C8.32735 236.343 4.9944 217.169 4.99434 197.829H48.0892C48.5459 218.333 52.557 238.807 60.2235 258.172C45.5437 260.542 31.9313 263.369 19.6843 266.6C19.038 265.156 18.4116 263.702 17.8054 262.239C16.7482 259.686 15.7551 257.111 14.8266 254.515ZM128.343 336.718C122.477 332.882 116.951 328.791 111.764 324.475C119.245 322.793 127.718 321.414 136.895 320.402C139.984 320.062 143.133 319.765 146.329 319.512L166.444 361.629L128.343 336.718ZM136.434 316.22C125.887 317.383 116.2 319.029 107.807 321.081C88.4771 303.99 74.1698 283.649 64.7294 261.721C72.9938 260.448 81.5909 259.317 90.4691 258.339C100.661 257.215 111.14 256.303 121.81 255.605C125.947 272.551 131.843 289.182 139.505 305.224L144.388 315.449C141.701 315.675 139.047 315.932 136.434 316.22ZM149.331 319.289L169.528 361.578L169.528 318.477C162.694 318.557 155.923 318.83 149.331 319.289ZM142.036 304.015L147.383 315.211C154.596 314.672 162.027 314.355 169.528 314.269V253.944C154.385 254.022 139.346 254.52 124.654 255.425C128.739 272.017 134.531 288.301 142.036 304.015ZM117.333 197.829C117.54 215.755 119.65 233.672 123.668 251.27C138.68 250.331 154.052 249.815 169.528 249.736L170.23 249.733L170.23 197.829H117.333ZM114.511 195.024C114.502 175.56 116.711 156.104 121.131 137.047C112.531 136.432 104.071 135.667 95.8084 134.756C84.3013 133.487 73.2796 131.946 62.8704 130.154C54.757 150.826 50.7081 172.914 50.8543 195.024H114.511ZM114.528 197.829C114.734 215.814 116.833 233.791 120.833 251.453C110.345 252.148 100.04 253.051 90.0083 254.156C80.7109 255.181 71.7111 256.372 63.068 257.721C55.3805 238.515 51.3569 218.188 50.8953 197.829H114.528ZM117.316 195.024H170.23L170.23 138.909C154.593 138.823 139.073 138.263 123.966 137.244C119.526 156.232 117.307 175.624 117.316 195.024ZM108.488 72.0179C106.476 71.4808 104.56 70.9204 102.746 70.3385C85.9799 86.4752 73.1849 105.557 64.4948 126.163C74.5413 127.872 85.1709 129.35 96.2696 130.574C104.701 131.504 113.341 132.28 122.13 132.9C126.848 113.995 133.756 95.5128 142.845 77.838C141.468 77.7057 140.101 77.5645 138.746 77.4147C127.43 76.1636 117.148 74.3297 108.488 72.0179ZM109.573 67.9524C108.441 67.6503 107.346 67.3419 106.288 67.0279C120.433 54.1857 137.221 43.3739 156.581 35.3666L159.394 34.2033C161.578 34.0643 163.767 33.9555 165.958 33.8771L144.952 73.8083C143.016 73.6336 141.1 73.4416 139.208 73.2324C128.049 71.9986 117.983 70.1974 109.573 67.9524ZM170.23 33.7627C169.879 33.7689 169.528 33.776 169.177 33.7837L147.986 74.0665C155.204 74.6443 162.675 74.9842 170.23 75.0763L170.23 33.7627ZM170.23 79.2844C161.943 79.1846 153.748 78.7901 145.861 78.1124C136.692 95.7476 129.727 114.206 124.973 133.094C139.754 134.076 154.934 134.617 170.23 134.701L170.23 79.2844Z" fill="#5C95A9"/>
</g>
<mask id="mask3" mask-type="alpha" maskUnits="userSpaceOnUse" x="18" y="206" width="169" height="149">
<path d="M75.5189 354.411C54.8542 336.25 38.9565 313.299 29.2175 287.568C19.4785 261.837 16.1953 234.111 19.6552 206.816L186.619 227.984L75.5189 354.411Z" fill="#130947"/>
</mask>
<g mask="url(#mask3)">
<path fill-rule="evenodd" clip-rule="evenodd" d="M186.619 59.6724C186.238 59.6724 185.857 59.6737 185.477 59.6762C185.857 59.6751 186.238 59.6743 186.619 59.6737L186.619 59.6724ZM122.213 72.4843C142.281 64.1716 163.764 59.8236 185.477 59.6762C185.474 59.6762 185.472 59.6763 185.469 59.6763C163.759 59.8246 142.278 64.1726 122.213 72.4843ZM116.696 74.8863C131.894 70.017 147.714 66.7328 163.808 65.0951C145.698 73.2178 129.913 83.8095 116.513 96.2126C111.152 94.4398 106.917 92.5204 103.873 90.5593C99.5341 87.7629 98.7023 85.6253 98.7023 84.569C98.7023 84.5341 98.7032 84.498 98.7051 84.4608C104.494 80.9141 110.502 77.7157 116.696 74.8863ZM94.893 86.867C95.7547 89.3485 98.0091 91.7858 101.594 94.0963C104.574 96.0165 108.436 97.8251 113.079 99.4819C96.3818 115.828 83.6388 135.076 74.9807 155.826C63.6818 153.832 53.1512 151.542 43.5567 148.988C41.9133 148.55 40.3019 148.106 38.7229 147.656C46.429 133.466 56.152 120.431 67.6127 108.97C75.9307 100.651 85.0774 93.248 94.893 86.867ZM36.7201 151.459C38.5959 152 40.5143 152.532 42.4743 153.054C51.9467 155.576 62.2993 157.839 73.3739 159.815C65.2723 180.661 61.229 202.909 61.3731 225.179H18.3419C18.6943 204.031 23.0297 183.13 31.1297 163.574C31.2363 163.317 31.3435 163.06 31.4513 162.803C33.0687 158.952 34.8266 155.168 36.7201 151.459ZM94.2662 368.692C94.9118 367.463 96.3428 365.846 99.2805 363.958C103.657 361.145 110.365 358.423 119.218 356.066C120.026 355.851 120.848 355.64 121.685 355.433C127.416 360.317 133.564 364.926 140.133 369.221L174.788 391.88C166.355 391.591 158.092 391.007 150.22 390.139C144.483 389.506 139.022 388.73 133.906 387.827C129.962 386.526 126.061 385.078 122.213 383.484C112.43 379.431 103.076 374.475 94.2662 368.692ZM90.7628 366.328C91.9551 364.304 94.0467 362.32 97.0058 360.418C101.854 357.302 108.937 354.468 117.858 352.074C98.7254 334.79 84.5532 314.334 75.1894 292.326C60.5456 294.662 46.9855 297.451 34.8043 300.634C43.0256 317.816 54.1138 333.499 67.6126 346.998C74.7525 354.139 82.5029 360.605 90.7628 366.328ZM28.1509 284.67C21.6516 266.499 18.3186 247.325 18.3186 227.985H61.4134C61.8701 248.488 65.8812 268.962 73.5478 288.327C58.8679 290.698 45.2555 293.525 33.0085 296.755C32.3622 295.311 31.7358 293.858 31.1297 292.394C30.0724 289.842 29.0793 287.266 28.1509 284.67ZM141.667 366.873C135.801 363.037 130.275 358.947 125.088 354.63C132.569 352.948 141.042 351.57 150.219 350.558C153.308 350.217 156.457 349.92 159.653 349.668L179.769 391.785L141.667 366.873ZM149.758 346.375C139.211 347.538 129.524 349.184 121.131 351.236C101.801 334.145 87.494 313.804 78.0536 291.876C86.318 290.603 94.9151 289.472 103.793 288.494C113.986 287.371 124.464 286.458 135.135 285.76C139.271 302.706 145.167 319.337 152.829 335.379L157.713 345.604C155.025 345.83 152.371 346.087 149.758 346.375ZM162.655 349.444L182.853 391.733L182.853 348.632C176.018 348.712 169.248 348.985 162.655 349.444ZM155.36 334.17L160.708 345.366C167.921 344.827 175.351 344.511 182.853 344.424V284.099C167.709 284.177 152.67 284.675 137.978 285.58C142.063 302.172 147.855 318.457 155.36 334.17ZM130.657 227.985C130.865 245.91 132.974 263.828 136.993 281.425C152.005 280.486 167.376 279.971 182.853 279.891L183.554 279.888L183.554 227.985H130.657ZM127.836 225.179C127.826 205.715 130.036 186.259 134.456 167.202C125.855 166.587 117.396 165.823 109.133 164.912C97.6255 163.643 86.6038 162.101 76.1946 160.309C68.0812 180.981 64.0323 203.07 64.1785 225.179H127.836ZM127.852 227.985C128.058 245.97 130.158 263.947 134.158 281.608C123.669 282.303 113.365 283.206 103.333 284.311C94.0351 285.336 85.0353 286.528 76.3922 287.876C68.7047 268.67 64.6812 248.343 64.2196 227.985H127.852ZM130.641 225.179H183.554L183.554 169.064C167.918 168.979 152.397 168.419 137.29 167.399C132.85 186.387 130.631 205.779 130.641 225.179ZM121.812 102.173C119.8 101.636 117.885 101.076 116.071 100.494C99.3041 116.63 86.5091 135.712 77.819 156.318C87.8655 158.027 98.4952 159.505 109.594 160.729C118.025 161.659 126.666 162.435 135.454 163.055C140.173 144.15 147.08 125.668 156.169 107.993C154.792 107.861 153.425 107.72 152.07 107.57C140.754 106.319 130.473 104.485 121.812 102.173ZM122.897 98.1077C121.765 97.8055 120.67 97.4972 119.612 97.1832C133.757 84.3409 150.545 73.5292 169.905 65.5219L172.718 64.3586C174.903 64.2196 177.091 64.1108 179.282 64.0323L158.276 103.964C156.34 103.789 154.424 103.597 152.532 103.388C141.374 102.154 131.307 100.353 122.897 98.1077ZM183.554 63.918C183.203 63.9242 182.852 63.9312 182.501 63.939L161.31 104.222C168.529 104.8 176 105.139 183.554 105.232L183.554 63.918ZM183.554 109.44C175.267 109.34 167.072 108.945 159.185 108.268C150.016 125.903 143.051 144.361 138.297 163.25C153.078 164.232 168.258 164.772 183.554 164.856L183.554 109.44Z" fill="#5C95A9"/>
</g>
<mask id="mask4" mask-type="alpha" maskUnits="userSpaceOnUse" x="96" y="237" width="114" height="169">
<path d="M209.059 405.413C167.385 405.413 127.193 389.95 96.2631 362.018L209.059 237.101L209.059 405.413Z" fill="#130947"/>
</mask>
<g mask="url(#mask4)">
<path fill-rule="evenodd" clip-rule="evenodd" d="M209.06 68.7905C208.677 68.7911 208.295 68.7919 207.913 68.7931C186.201 68.941 164.72 73.289 144.654 81.6011C142.799 82.3695 140.959 83.1704 139.136 84.0032C154.334 79.1339 170.155 75.8497 186.249 74.2119C168.139 82.3346 152.353 92.9263 138.953 105.329C133.592 103.557 129.357 101.637 126.314 99.6761C121.975 96.8797 121.143 94.7422 121.143 93.6858C121.143 93.6509 121.144 93.6148 121.146 93.5776C119.864 94.3626 118.593 95.1648 117.333 95.9838C118.195 98.4653 120.449 100.903 124.035 103.213C127.014 105.133 130.876 106.942 135.519 108.599C118.822 124.945 106.079 144.193 97.4211 164.943C86.1222 162.949 75.5916 160.659 65.9971 158.104C64.3538 157.667 62.7423 157.223 61.1633 156.773C60.4798 158.031 59.8121 159.299 59.1605 160.575C61.0363 161.117 62.9547 161.649 64.9148 162.171C74.3871 164.692 84.7398 166.955 95.8143 168.931C87.7128 189.778 83.6694 212.026 83.8135 234.296H40.7823C40.7668 235.231 40.759 236.166 40.759 237.101C40.759 237.101 40.759 237.101 40.759 237.101H83.8538C84.3105 257.605 88.3217 278.079 95.9882 297.444C81.3084 299.814 67.6959 302.641 55.4489 305.872C56.0314 307.173 56.6301 308.466 57.2448 309.751C69.426 306.568 82.986 303.779 97.6298 301.442C103.121 314.348 110.265 326.719 119.093 338.23L121.003 336.104C112.617 325.095 105.79 313.294 100.494 300.993C108.758 299.72 117.356 298.589 126.234 297.611C136.426 296.488 146.904 295.575 157.575 294.877C157.608 295.014 157.642 295.152 157.676 295.289L162.086 290.381C161.2 290.433 160.316 290.487 159.433 290.542C155.415 272.944 153.305 255.027 153.098 237.101H205.994L205.994 241.512L209.059 238.101L209.059 237.101L209.06 68.7905ZM156.346 396.944C161.462 397.847 166.923 398.623 172.66 399.255C180.532 400.124 188.796 400.708 197.228 400.996L162.573 378.338C156.004 374.043 149.856 369.434 144.126 364.55C143.289 364.757 142.466 364.968 141.658 365.183C132.805 367.54 126.097 370.262 121.721 373.075C118.783 374.963 117.352 376.58 116.707 377.809C125.516 383.591 134.871 388.548 144.654 392.601C148.502 394.195 152.402 395.643 156.346 396.944ZM113.203 375.445C114.396 373.421 116.487 371.437 119.446 369.535C124.295 366.419 131.378 363.585 140.298 361.191C132.385 354.042 125.32 346.35 119.093 338.23L97.0697 362.741C102.19 367.306 107.578 371.547 113.203 375.445ZM205.994 241.512L205.994 289.005L205.293 289.008C190.727 289.083 176.254 289.544 162.086 290.381L205.994 241.512ZM157.676 295.289L121.003 336.104C127.567 344.719 135.085 352.849 143.572 360.353C151.965 358.301 161.652 356.655 172.199 355.492C174.811 355.204 177.465 354.947 180.153 354.721L175.269 344.496C167.67 328.584 161.807 312.092 157.676 295.289ZM164.108 375.99C158.241 372.154 152.716 368.063 147.528 363.747C155.01 362.065 163.483 360.687 172.66 359.675C175.749 359.334 178.898 359.037 182.094 358.784L202.209 400.901L164.108 375.99ZM185.096 358.561L205.293 400.85L205.293 357.749C198.459 357.829 191.688 358.102 185.096 358.561ZM177.801 343.287L183.148 354.483C190.361 353.944 197.792 353.627 205.293 353.541V293.216C190.149 293.294 175.111 293.792 160.419 294.697C164.504 311.289 170.296 327.573 177.801 343.287ZM150.276 234.296C150.267 214.832 152.476 195.376 156.896 176.319C148.295 175.704 139.836 174.94 131.573 174.028C120.066 172.759 109.044 171.218 98.635 169.426C90.5216 190.098 86.4727 212.186 86.6189 234.296H150.276ZM150.293 237.101C150.498 255.087 152.598 273.064 156.598 290.725C146.109 291.42 135.805 292.323 125.773 293.428C116.476 294.453 107.476 295.645 98.8326 296.993C91.1451 277.787 87.1216 257.46 86.66 237.101H150.293ZM153.081 234.296H205.994L205.994 178.181C190.358 178.096 174.837 177.535 159.73 176.516C155.291 195.504 153.072 214.896 153.081 234.296ZM144.252 111.29C142.24 110.753 140.325 110.192 138.511 109.611C121.745 125.747 108.95 144.829 100.259 165.435C110.306 167.144 120.936 168.622 132.034 169.846C140.466 170.776 149.106 171.552 157.895 172.172C162.613 153.267 169.52 134.785 178.61 117.11C177.232 116.978 175.865 116.837 174.51 116.687C163.195 115.436 152.913 113.602 144.252 111.29ZM145.337 107.225C144.205 106.922 143.11 106.614 142.053 106.3C156.197 93.4578 172.986 82.646 192.346 74.6387L195.158 73.4754C197.343 73.3364 199.531 73.2276 201.723 73.1492L180.717 113.08C178.781 112.906 176.865 112.714 174.973 112.504C163.814 111.271 153.748 109.47 145.337 107.225ZM205.994 73.0348C205.643 73.041 205.292 73.0481 204.941 73.0558L183.75 113.339C190.969 113.916 198.44 114.256 205.994 114.348L205.994 73.0348ZM205.994 118.557C197.707 118.457 189.512 118.062 181.625 117.385C172.457 135.02 165.492 153.478 160.738 172.366C175.519 173.348 190.699 173.889 205.994 173.973L205.994 118.557Z" fill="#5C95A9"/>
</g>
</svg>
