<svg width="372" height="384" viewBox="0 0 372 384" fill="none" xmlns="http://www.w3.org/2000/svg">
<g clip-path="url(#clip0)">
<path d="M74.9948 20.7397C55.8617 33.2384 39.5595 49.6069 27.1387 68.7906" stroke="black" stroke-width="4" stroke-miterlimit="10" stroke-linecap="square"/>
<path d="M74.9951 20.7395C88.2609 12.0666 102.727 5.38648 117.932 0.912598" stroke="black" stroke-width="4" stroke-miterlimit="10" stroke-linecap="square"/>
<path d="M118.311 94.7051C115.888 104.171 113.98 113.762 112.596 123.435" stroke="black" stroke-width="4" stroke-linecap="round" stroke-linejoin="round"/>
<path d="M118.311 94.7052C122.12 79.9099 126.979 65.405 132.851 51.3008" stroke="black" stroke-width="4" stroke-linecap="round" stroke-linejoin="round"/>
<path d="M107.398 30.333C114.043 31.8967 120.876 33.2545 127.854 34.334" stroke="black" stroke-width="4" stroke-linecap="round" stroke-linejoin="round"/>
<path d="M74.9951 20.7397C85.6113 24.5315 96.4288 27.7342 107.398 30.3332" stroke="black" stroke-width="4" stroke-linecap="round" stroke-linejoin="round"/>
<path d="M65.7129 87.0645C81.3886 90.0972 99.2011 92.874 118.31 94.7047" stroke="black" stroke-width="4" stroke-linecap="round" stroke-linejoin="round"/>
<path d="M118.311 94.7051C127.37 95.5732 136.718 96.2298 146.267 96.5971" stroke="black" stroke-width="4" stroke-linecap="round" stroke-linejoin="round"/>
<path d="M50.9668 84.0264C55.63 85.0503 60.5454 86.0649 65.7132 87.0702" stroke="black" stroke-width="4" stroke-linecap="round" stroke-linejoin="round"/>
<path d="M107.398 30.3331C112.332 25.8305 117.501 21.5935 122.885 17.6401" stroke="black" stroke-width="4" stroke-linecap="round" stroke-linejoin="round"/>
<path d="M63.5654 92.0785C64.2629 90.3794 64.9789 88.71 65.7134 87.0703" stroke="black" stroke-width="4" stroke-linecap="round" stroke-linejoin="round"/>
<path d="M107.398 30.333C91.9227 44.4617 76.4752 63.1312 65.7354 87.0926" stroke="black" stroke-width="4" stroke-linecap="round" stroke-linejoin="round"/>
<path d="M127.832 34.334L132.851 51.2951" stroke="black" stroke-width="4" stroke-miterlimit="10" stroke-linecap="square"/>
<path d="M122.885 17.6401L127.832 34.3341" stroke="black" stroke-width="4" stroke-miterlimit="10" stroke-linecap="square"/>
<path d="M117.932 0.912598L122.884 17.64" stroke="black" stroke-width="4" stroke-miterlimit="10" stroke-linecap="square"/>
<path d="M132.851 51.2949L164.041 156.334L27.1553 68.7902" stroke="black" stroke-width="4" stroke-miterlimit="10" stroke-linecap="square"/>
<path d="M110.982 152.472C109.759 161.097 109.015 169.784 108.756 178.492" stroke="black" stroke-width="4" stroke-miterlimit="10" stroke-linecap="round"/>
<path d="M20.5898 105.929C28.3804 108.083 38.113 110.565 49.3369 113.03" stroke="black" stroke-width="4" stroke-miterlimit="10" stroke-linecap="round"/>
<path d="M61.9514 121.087C55.4705 137.026 51.5274 153.881 50.2656 171.041" stroke="black" stroke-width="4" stroke-miterlimit="10" stroke-linecap="round"/>
<path d="M191.831 20.8511C182.634 33.8569 174.597 47.6453 167.813 62.0574" stroke="black" stroke-width="4" stroke-linecap="square" stroke-linejoin="round"/>
<path d="M167.814 62.0571C165.549 66.8706 163.257 72.0235 161.003 77.4657" stroke="black" stroke-width="4" stroke-miterlimit="10" stroke-linecap="round"/>
<path d="M191.658 63.3426C183.693 63.3347 175.733 62.9056 167.813 62.0571" stroke="black" stroke-width="4" stroke-miterlimit="10" stroke-linecap="round"/>
<path d="M155.978 60.5049C159.877 61.1096 163.822 61.6271 167.814 62.0574" stroke="black" stroke-width="4" stroke-miterlimit="10" stroke-linecap="round"/>
<path d="M191.658 123.101C185.852 123.101 180.102 122.99 174.407 122.768" stroke="black" stroke-width="4" stroke-miterlimit="10" stroke-linecap="round"/>
<path d="M191.619 20.6675C187.245 22.4649 170.423 29.5709 151.036 43.8054" stroke="black" stroke-width="4" stroke-linecap="round" stroke-linejoin="round"/>
<path d="M208.241 372.922C208.241 372.922 234.273 358.921 261.284 332.895" stroke="black" stroke-width="4" stroke-miterlimit="10" stroke-linecap="round"/>
<path d="M349.934 129.902C337.072 107.231 318.98 87.962 297.164 73.6987" stroke="black" stroke-width="4" stroke-linecap="square" stroke-linejoin="round"/>
<path d="M300.219 344.453C273.144 363.047 241.058 372.977 208.213 372.927V47.2998H209.326C240.535 47.4659 271.032 56.6404 297.153 73.7208" stroke="black" stroke-width="4" stroke-miterlimit="10" stroke-linecap="square"/>
<path d="M355.381 279.847C343.008 305.867 323.978 328.155 300.219 344.453" stroke="black" stroke-width="4" stroke-linecap="square" stroke-linejoin="round"/>
<path d="M371.03 209.232C370.927 181.412 363.662 154.088 349.935 129.891" stroke="black" stroke-width="4" stroke-linecap="square" stroke-linejoin="round"/>
<path d="M371.03 209.231C371.03 209.521 371.03 209.788 371.03 210.1C371.065 234.223 365.719 258.051 355.382 279.847" stroke="black" stroke-width="4" stroke-linecap="square" stroke-linejoin="round"/>
<path d="M261.907 209.232C261.907 209.087 261.907 208.948 261.907 208.803C261.907 187.39 258.691 166.706 253.844 147.675" stroke="black" stroke-width="4" stroke-linecap="square" stroke-linejoin="round"/>
<path d="M208.219 47.2998C217.508 60.4214 225.632 74.3305 232.497 88.8679" stroke="black" stroke-width="4" stroke-linecap="round" stroke-linejoin="round"/>
<path d="M233.126 328.098C220.566 355.365 208.229 372.916 208.229 372.916" stroke="black" stroke-width="4" stroke-linecap="round" stroke-linejoin="round"/>
<path d="M254.945 265.646C259.141 247.889 261.868 228.841 261.907 209.243" stroke="black" stroke-width="4" stroke-linecap="square" stroke-linejoin="round"/>
<path d="M253.849 147.686C248.601 127.453 241.452 107.761 232.497 88.873" stroke="black" stroke-width="4" stroke-linecap="square" stroke-linejoin="round"/>
<path d="M233.126 328.098C241.106 310.781 249.336 289.368 254.945 265.646" stroke="black" stroke-width="4" stroke-linecap="square" stroke-linejoin="round"/>
<path d="M232.498 88.873C224.585 89.7139 216.633 90.1392 208.675 90.1474H208.241" stroke="black" stroke-width="4" stroke-linecap="square" stroke-linejoin="round"/>
<path d="M264.784 83.314C254.153 85.8434 243.373 87.7019 232.509 88.8786" stroke="black" stroke-width="4" stroke-linecap="square" stroke-linejoin="round"/>
<path d="M297.153 73.7207C286.544 77.5117 275.734 80.7144 264.772 83.3142" stroke="black" stroke-width="4" stroke-linecap="round" stroke-linejoin="round"/>
<path d="M208.213 326.607C216.538 326.652 224.855 327.15 233.126 328.098" stroke="black" stroke-width="4" stroke-linecap="square" stroke-linejoin="round"/>
<path d="M300.219 344.453C287.498 339.761 274.487 335.898 261.267 332.889" stroke="black" stroke-width="4" stroke-linecap="round" stroke-linejoin="round"/>
<path d="M233.126 328.098C242.591 329.188 251.991 330.789 261.283 332.895" stroke="black" stroke-width="4" stroke-linecap="square" stroke-linejoin="round"/>
<path d="M306.446 140.052C290.765 143.079 272.958 145.856 253.849 147.686" stroke="black" stroke-width="4" stroke-linecap="square" stroke-linejoin="round"/>
<path d="M253.849 147.687C239.381 149.072 224.217 149.912 208.647 149.912H208.213" stroke="black" stroke-width="4" stroke-linecap="square" stroke-linejoin="round"/>
<path d="M349.934 129.901C338.894 132.951 324.014 136.657 306.446 140.051" stroke="black" stroke-width="4" stroke-linecap="round" stroke-linejoin="round"/>
<path d="M355.381 279.847C344.141 277.476 327.258 274.243 306.674 271.294" stroke="black" stroke-width="4" stroke-linecap="round" stroke-linejoin="round"/>
<path d="M208.213 263.815C224.306 263.849 240.021 264.539 254.956 265.646" stroke="black" stroke-width="4" stroke-linecap="square" stroke-linejoin="round"/>
<path d="M306.674 271.294C291.232 269.068 273.715 267.043 254.923 265.646" stroke="black" stroke-width="4" stroke-linecap="square" stroke-linejoin="round"/>
<path d="M306.674 271.294C295.116 296.101 278.011 316.796 261.283 332.895" stroke="black" stroke-width="4" stroke-linecap="square" stroke-linejoin="round"/>
<path d="M320.808 209.231C320.808 232.047 315.277 252.814 306.674 271.283" stroke="black" stroke-width="4" stroke-linecap="square" stroke-linejoin="round"/>
<path d="M264.784 83.3143C239.837 60.5493 213.734 49.5535 208.225 47.2998" stroke="black" stroke-width="4" stroke-linecap="round" stroke-linejoin="round"/>
<path d="M320.809 209.232C320.809 182.427 315.183 159.495 306.446 140.041" stroke="black" stroke-width="4" stroke-linecap="square" stroke-linejoin="round"/>
<path d="M264.783 83.314C280.259 97.4482 295.706 116.118 306.446 140.074" stroke="black" stroke-width="4" stroke-linecap="square" stroke-linejoin="round"/>
<path d="M261.906 209.243H208.213" stroke="black" stroke-width="4" stroke-linecap="square" stroke-linejoin="round"/>
<path d="M261.906 209.243H320.808" stroke="black" stroke-width="4" stroke-linecap="square" stroke-linejoin="round"/>
<path d="M370.807 209.243H320.809" stroke="black" stroke-width="4" stroke-linecap="round" stroke-linejoin="round"/>
<path d="M12.7314 213.605C12.7654 206.746 13.23 199.895 14.1226 193.094L175.604 213.588L64.2825 333.323C49.3456 319.344 37.1668 302.684 28.3793 284.21" stroke="black" stroke-width="4" stroke-miterlimit="10" stroke-linecap="square"/>
<path d="M12.7316 213.605C12.7316 213.894 12.7316 214.161 12.7316 214.473C12.6976 238.593 18.0433 262.417 28.3795 284.209" stroke="black" stroke-width="4" stroke-miterlimit="10" stroke-linecap="round"/>
<path d="M121.95 206.8C121.889 208.92 121.85 211.04 121.85 213.171V213.605" stroke="black" stroke-width="4" stroke-miterlimit="10" stroke-linecap="round"/>
<path d="M121.866 213.605C121.994 230.927 123.956 248.186 127.72 265.095" stroke="black" stroke-width="4" stroke-miterlimit="10" stroke-linecap="round"/>
<path d="M28.3799 284.21C39.6205 281.839 56.5093 278.6 77.093 275.657" stroke="black" stroke-width="4" stroke-miterlimit="10" stroke-linecap="round"/>
<path d="M77.0869 275.657C90.8316 273.692 106.229 271.856 122.689 270.493" stroke="black" stroke-width="4" stroke-miterlimit="10" stroke-linecap="round"/>
<path d="M92.7459 302.718C86.7614 294.164 81.5225 285.113 77.0869 275.663" stroke="black" stroke-width="4" stroke-miterlimit="10" stroke-linecap="round"/>
<path d="M62.9531 213.605C62.9531 236.42 68.4844 257.187 77.0874 275.657" stroke="black" stroke-width="4" stroke-miterlimit="10" stroke-linecap="round"/>
<path d="M62.9531 213.605C62.9531 208.738 63.1386 203.995 63.5096 199.376" stroke="black" stroke-width="4" stroke-miterlimit="10" stroke-linecap="round"/>
<path d="M121.85 213.605H175.526" stroke="black" stroke-width="4" stroke-miterlimit="10" stroke-linecap="round"/>
<path d="M62.9531 213.605H121.85" stroke="black" stroke-width="4" stroke-miterlimit="10" stroke-linecap="round"/>
<path d="M12.7314 213.605H62.9526" stroke="black" stroke-width="4" stroke-miterlimit="10" stroke-linecap="round"/>
<path d="M102.095 354.764C95.2961 350.096 88.8599 344.921 82.8408 339.283L194.09 219.565L194.162 383.233" stroke="black" stroke-width="4" stroke-miterlimit="10" stroke-linecap="square"/>
<path d="M102.095 354.764C129.17 373.358 161.256 383.288 194.101 383.239" stroke="black" stroke-width="4" stroke-miterlimit="10" stroke-linecap="round"/>
<path d="M169.166 338.404C181.731 365.671 194.068 383.222 194.068 383.222" stroke="black" stroke-width="4" stroke-miterlimit="10" stroke-linecap="round"/>
<path d="M147.369 275.952C146.985 274.327 146.618 272.685 146.256 271.038" stroke="black" stroke-width="4" stroke-miterlimit="10" stroke-linecap="round"/>
<path d="M147.369 275.952C152.978 299.674 161.208 321.081 169.166 338.404" stroke="black" stroke-width="4" stroke-miterlimit="10" stroke-linecap="round"/>
<path d="M194.101 336.913C185.769 336.954 177.444 337.452 169.166 338.404" stroke="black" stroke-width="4" stroke-miterlimit="10" stroke-linecap="round"/>
<path d="M102.095 354.764C114.816 350.072 127.827 346.21 141.047 343.201" stroke="black" stroke-width="4" stroke-miterlimit="10" stroke-linecap="round"/>
<path d="M141.031 343.201C150.316 341.096 159.708 339.495 169.166 338.404" stroke="black" stroke-width="4" stroke-miterlimit="10" stroke-linecap="round"/>
<path d="M194.102 274.115C178.009 274.154 162.294 274.844 147.358 275.952" stroke="black" stroke-width="4" stroke-miterlimit="10" stroke-linecap="round"/>
<path d="M141.242 276.436C143.268 276.269 145.308 276.107 147.363 275.952" stroke="black" stroke-width="4" stroke-miterlimit="10" stroke-linecap="round"/>
<path d="M111.293 308.655C120.052 321.113 130.01 332.684 141.025 343.201" stroke="black" stroke-width="4" stroke-miterlimit="10" stroke-linecap="round"/>
<path d="M194.101 383.238C194.101 383.238 168.064 369.215 141.031 343.173" stroke="black" stroke-width="4" stroke-miterlimit="10" stroke-linecap="round"/>
<path d="M191.052 20.4834H192.093V182.471L146.084 27.0831C160.666 22.7986 175.776 20.5771 190.974 20.4834H191.052Z" stroke="black" stroke-width="4" stroke-miterlimit="10" stroke-linecap="square"/>
<path d="M20.5826 106.006C22.1519 103.246 23.799 100.536 25.524 97.876L162.365 185.38L0.900391 164.847C3.60026 144.146 10.2841 124.165 20.5826 106.006" stroke="black" stroke-width="4" stroke-miterlimit="10"/>
</g>
<defs>
<clipPath id="clip0">
<rect width="371.786" height="383.89" fill="white"/>
</clipPath>
</defs>
</svg>
