<svg width="393" height="432" viewBox="0 0 393 432" fill="none" xmlns="http://www.w3.org/2000/svg">
<path fill-rule="evenodd" clip-rule="evenodd" d="M231.517 62.5454C229.449 62.4278 227.377 62.3376 225.303 62.2747C231.255 74.3437 236.504 86.6669 241.049 99.1846C245.186 98.8998 249.249 98.5377 253.207 98.1001C261.541 97.1786 269.245 95.9404 276.083 94.4414C263.431 81.9917 248.557 71.1663 231.517 62.5454ZM218.175 57.0562L218.175 57.0562L218.175 135.761L218.175 110.868V105.959H218.175V99.9589L218.175 81.0628V62.1667L218.175 57.0562ZM236.885 99.4436C233.127 89.1948 228.889 79.0793 224.175 69.1306L224.175 99.9064C228.454 99.8315 232.702 99.6766 236.885 99.4436ZM224.175 105.907C229.167 105.821 234.121 105.628 238.987 105.331C245.064 122.832 249.76 140.699 253.07 158.768C243.539 159.209 233.883 159.47 224.175 159.546V110.868V105.907ZM224.175 165.546C234.232 165.468 244.237 165.193 254.11 164.726C257.172 183.178 258.795 201.82 258.976 220.478H224.175V165.546ZM218.175 220.478V165.569H218.175L218.175 220.478H218.175ZM218.175 224.478L218.175 364.309L218.175 346.894V340.894L218.175 334.582V282.374V276.374L218.175 231.141V224.478H218.175ZM224.175 224.478H258.992C258.968 242.1 257.656 259.725 255.054 277.207C244.864 276.744 234.545 276.472 224.175 276.396L224.175 231.141V224.478ZM262.992 224.478C262.968 242.164 261.662 259.853 259.069 277.4C273.711 278.141 288.066 279.28 301.902 280.805C307.54 281.426 313.068 282.109 318.473 282.851C325.222 264.001 328.677 244.24 328.924 224.478H262.992ZM332.925 224.478C332.682 244.424 329.242 264.371 322.522 283.421C340.563 286.025 357.169 289.297 371.832 293.145C372.462 291.736 373.073 290.317 373.664 288.888C382.122 268.468 386.475 246.581 386.475 224.478L332.925 224.478ZM386.428 220.478H332.931C332.735 199.268 328.928 178.126 321.613 158.132C336.859 155.767 350.931 152.884 363.462 149.548C365.076 149.118 366.662 148.681 368.219 148.238C370.183 152.104 372 156.05 373.664 160.068C381.612 179.256 385.935 199.738 386.428 220.478ZM328.93 220.478H262.976C262.797 201.753 261.18 183.045 258.131 164.525C271.344 163.828 284.299 162.784 296.804 161.405C303.922 160.62 310.855 159.731 317.572 158.743C324.912 178.52 328.733 199.465 328.93 220.478ZM224.175 282.396C234.23 282.47 244.234 282.73 254.115 283.171C250.842 302.893 245.918 322.411 239.34 341.513C235.01 341.257 230.616 341.079 226.188 340.982C225.518 340.967 224.847 340.954 224.175 340.943L224.175 334.582V282.396ZM301.245 286.769C287.333 285.236 272.884 284.096 258.138 283.361C254.887 303.105 250.001 322.648 243.476 341.783C247.552 342.075 251.561 342.437 255.477 342.869C256.216 342.951 256.951 343.034 257.681 343.121C265.15 344.002 272.161 345.129 278.556 346.472C295.401 329.325 307.941 309.604 316.297 288.61C311.381 287.947 306.36 287.333 301.245 286.769ZM226.149 346.982C229.883 347.065 233.591 347.206 237.254 347.404C233.406 357.977 229.047 368.414 224.175 378.68L224.175 366.842V346.944C224.834 346.955 225.492 346.968 226.149 346.982ZM251.136 385.234C245.03 385.829 238.711 386.258 232.281 386.512L250.136 374.838C260.456 368.091 269.789 360.605 278.146 352.519C280.735 353.075 283.209 353.667 285.556 354.292C286.104 354.438 286.643 354.585 287.173 354.733C295.128 356.959 301.091 359.457 304.985 361.96C305.159 362.071 305.326 362.181 305.486 362.289C307.898 363.913 308.918 365.171 309.345 365.955C300.882 371.409 291.927 376.106 282.581 379.978C282.245 380.117 281.908 380.255 281.571 380.392C273.737 382.247 264.7 383.761 254.819 384.851C253.6 384.985 252.373 385.113 251.136 385.234ZM247.947 371.49C257.231 365.421 265.697 358.741 273.355 351.555C268.253 350.594 262.77 349.763 256.981 349.08C256.265 348.995 255.544 348.913 254.819 348.833C250.461 348.352 245.981 347.959 241.417 347.655C237.329 359.004 232.659 370.201 227.405 381.201L224.821 386.611L247.947 371.49ZM287.099 348.494C285.813 348.151 284.492 347.819 283.139 347.497C299.746 330.128 312.121 310.269 320.381 289.176C338.293 291.72 354.745 294.918 369.242 298.671C361.101 315.25 350.275 330.398 337.181 343.493C330.131 350.543 322.485 356.936 314.342 362.607C313.206 360.779 311.336 358.985 308.755 357.257C308.583 357.142 308.408 357.027 308.229 356.912C303.637 353.961 297.039 351.262 288.775 348.951C288.224 348.797 287.665 348.645 287.099 348.494ZM361.918 143.75C349.271 147.117 334.971 150.027 319.407 152.401C311.48 132.791 300.108 114.413 285.39 98.3225C293.456 96.0843 299.886 93.462 304.342 90.5901C307.64 88.4647 309.812 86.2319 310.809 83.9561C320.281 90.201 329.12 97.4026 337.181 105.464C348.282 116.565 357.752 129.143 365.339 142.816C364.215 143.131 363.075 143.442 361.918 143.75ZM253.866 104.064C263.845 102.96 273.02 101.404 280.987 99.4663C295.853 115.325 307.335 133.533 315.331 153.006C309.118 153.904 302.716 154.717 296.146 155.442C283.533 156.832 270.45 157.879 257.1 158.571C253.813 140.479 249.152 122.585 243.123 105.052C246.768 104.782 250.356 104.452 253.866 104.064ZM282.577 92.87C281.952 93.0367 281.318 93.201 280.675 93.3628C269.369 81.9203 256.269 71.7668 241.414 63.3183C259.741 65.141 277.713 69.114 294.808 75.1441C295.866 75.5173 296.92 75.8981 297.969 76.2864C300.428 77.6103 302.852 78.9947 305.239 80.4381C305.423 80.8095 305.441 81.0244 305.441 81.0628C305.441 81.1768 305.283 82.8458 301.092 85.5467C297.15 88.0872 290.954 90.6339 282.577 92.87Z" fill="#EAB131"/>
<mask id="mask0" mask-type="alpha" maskUnits="userSpaceOnUse" x="161" y="21" width="45" height="170">
<path d="M161.275 27.7318C175.731 23.7894 190.649 21.7953 205.633 21.8024L205.553 190.114L161.275 27.7318Z" fill="#130947"/>
</mask>
<g mask="url(#mask0)">
<path fill-rule="evenodd" clip-rule="evenodd" d="M37.2755 187.31H80.3067C80.1625 165.04 84.2059 142.791 92.3075 121.945C81.2329 119.969 70.8803 117.706 61.408 115.184C59.4479 114.662 57.5295 114.131 55.6536 113.589C53.6339 117.546 51.7685 121.587 50.0633 125.704C41.9633 145.261 37.6279 166.162 37.2755 187.31ZM57.6564 109.786C59.2355 110.236 60.8469 110.681 62.4903 111.118C72.0848 113.672 82.6154 115.963 93.9143 117.957C102.572 97.2062 115.315 77.9589 132.012 61.6123C127.369 59.9555 123.507 58.1469 120.528 56.2267C116.943 53.9162 114.688 51.4789 113.827 48.9973C104.011 55.3783 94.8643 62.7815 86.5463 71.1C75.0856 82.5615 65.3626 95.5961 57.6564 109.786ZM135.629 37.0168C129.435 39.8462 123.428 43.0445 117.639 46.5911C117.637 46.6284 117.636 46.6645 117.636 46.6994C117.636 47.7557 118.468 49.8933 122.807 52.6897C125.85 54.6508 130.085 56.5702 135.447 58.343C148.846 45.9399 164.632 35.3482 182.742 27.2255C166.648 28.8632 150.828 32.1475 135.629 37.0168ZM204.404 21.8067C204.787 21.8055 205.17 21.8047 205.553 21.8041L205.553 21.8027C205.17 21.8027 204.787 21.804 204.404 21.8067ZM37.2521 190.115C37.2522 212.218 41.6054 234.104 50.0632 254.524C50.6694 255.988 51.2958 257.442 51.9421 258.886C64.1891 255.655 77.8015 252.828 92.4814 250.458C84.8148 231.092 80.8037 210.619 80.347 190.115H37.2521ZM53.7379 262.765C65.9191 259.581 79.4792 256.793 94.123 254.456C103.487 276.464 117.659 296.921 136.791 314.205C127.871 316.599 120.788 319.433 115.939 322.549C112.98 324.45 110.889 326.435 109.696 328.459C101.436 322.735 93.6861 316.269 86.5462 309.129C73.0473 295.629 61.9592 279.947 53.7379 262.765ZM113.2 330.822C113.845 329.593 115.276 327.977 118.214 326.089C122.591 323.276 129.299 320.553 138.151 318.197C138.959 317.982 139.782 317.77 140.619 317.563C146.35 322.448 152.498 327.057 159.066 331.352L193.722 354.01C185.289 353.722 177.025 353.137 169.153 352.269C163.417 351.636 157.955 350.861 152.839 349.957C148.895 348.657 144.995 347.208 141.147 345.614C131.364 341.562 122.01 336.605 113.2 330.822ZM187.596 357.465C192.113 357.82 196.678 358.001 201.286 358.001C202.712 358.001 204.135 357.983 205.553 357.949L205.553 358.426C199.543 358.426 193.549 358.104 187.596 357.465ZM160.601 329.004C154.734 325.168 149.209 321.077 144.022 316.76C151.503 315.078 159.976 313.7 169.153 312.688C172.242 312.348 175.391 312.051 178.587 311.798L198.702 353.915L160.601 329.004ZM168.692 308.506C158.145 309.669 148.458 311.315 140.065 313.366C120.735 296.275 106.428 275.935 96.9872 254.007C105.252 252.734 113.849 251.603 122.727 250.624C132.919 249.501 143.398 248.588 154.068 247.891C158.204 264.836 164.101 281.467 171.763 297.509L176.646 307.735C173.959 307.96 171.305 308.218 168.692 308.506ZM181.589 311.575L201.786 353.863L201.786 310.763C194.952 310.842 188.181 311.115 181.589 311.575ZM174.294 296.3L179.641 307.497C186.854 306.958 194.285 306.641 201.786 306.555V246.23C186.643 246.308 171.604 246.806 156.912 247.71C160.997 264.303 166.789 280.587 174.294 296.3ZM149.591 190.115C149.798 208.041 151.908 225.958 155.926 243.556C170.938 242.617 186.31 242.101 201.786 242.022L202.487 242.019L202.487 190.115H149.591ZM146.769 187.31C146.76 167.845 148.969 148.39 153.389 129.333C144.789 128.718 136.329 127.953 128.066 127.042C116.559 125.773 105.537 124.231 95.1282 122.439C87.0148 143.111 82.9659 165.2 83.1121 187.31H146.769ZM146.786 190.115C146.991 208.1 149.091 226.077 153.091 243.738C142.602 244.434 132.298 245.336 122.266 246.442C112.969 247.466 103.969 248.658 95.3258 250.006C87.6383 230.801 83.6148 210.474 83.1532 190.115H146.786ZM149.574 187.31H202.487L202.487 131.194C186.851 131.109 171.331 130.549 156.224 129.53C151.784 148.518 149.565 167.909 149.574 187.31ZM140.746 64.3036C138.734 63.7665 136.818 63.2061 135.004 62.6242C118.238 78.7609 105.443 97.8423 96.7526 118.448C106.799 120.158 117.429 121.636 128.527 122.86C136.959 123.789 145.599 124.566 154.388 125.185C159.106 106.28 166.014 87.7985 175.103 70.1237C173.725 69.9913 172.359 69.8502 171.003 69.7004C159.688 68.4492 149.406 66.6154 140.746 64.3036ZM141.831 60.2381C140.699 59.9359 139.604 59.6276 138.546 59.3136C152.69 46.4713 169.479 35.6596 188.839 27.6523L191.652 26.489C193.836 26.35 196.025 26.2412 198.216 26.1627L177.21 66.094C175.274 65.9193 173.358 65.7273 171.466 65.5181C160.307 64.2843 150.241 62.4831 141.831 60.2381ZM202.487 26.0484C202.136 26.0546 201.785 26.0616 201.434 26.0694L180.244 66.3522C187.462 66.9299 194.933 67.2698 202.487 67.362L202.487 26.0484ZM202.487 71.5701C194.201 71.4702 186.005 71.0757 178.119 70.3981C168.95 88.0333 161.985 106.491 157.231 125.38C172.012 126.362 187.192 126.903 202.487 126.987L202.487 71.5701Z" fill="#EAB131"/>
</g>
<mask id="mask1" mask-type="alpha" maskUnits="userSpaceOnUse" x="36" y="7" width="143" height="162">
<path d="M36.6484 77.3335C58.3849 43.5318 91.498 18.6238 130 7.11335L178.203 168.374L36.6484 77.3335Z" fill="#130947"/>
</mask>
<g mask="url(#mask1)">
<path fill-rule="evenodd" clip-rule="evenodd" d="M178.203 0.0620117C177.822 0.0620118 177.441 0.0633045 177.061 0.0658894C177.441 0.0647621 177.822 0.0639162 178.203 0.0633526L178.203 0.0620117ZM113.797 12.874C133.865 4.56128 155.348 0.213285 177.061 0.0658894C177.058 0.0658967 177.056 0.065904 177.053 0.0659114C155.343 0.214247 133.862 4.5622 113.797 12.874ZM108.28 15.276C123.478 10.4067 139.298 7.12247 155.392 5.48471C137.282 13.6075 121.497 24.1991 108.097 36.6022C102.736 34.8294 98.5005 32.91 95.4574 30.9489C91.1181 28.1525 90.2863 26.015 90.2863 24.9586C90.2863 24.9237 90.2872 24.8876 90.2891 24.8504C96.0784 21.3038 102.086 18.1054 108.28 15.276ZM86.4769 27.2566C87.3387 29.7381 89.593 32.1755 93.1783 34.4859C96.1579 36.4061 100.02 38.2147 104.663 39.8716C87.9658 56.2181 75.2228 75.4655 66.5647 96.2158C55.2658 94.2221 44.7352 91.9316 35.1407 89.3773C33.4973 88.9398 31.8859 88.4957 30.3069 88.0454C38.013 73.8554 47.736 60.8207 59.1967 49.3593C67.5147 41.0408 76.6613 33.6376 86.4769 27.2566ZM28.3041 91.8483C30.1799 92.3898 32.0983 92.9217 34.0583 93.4435C43.5307 95.9653 53.8833 98.2283 64.9579 100.204C56.8563 121.051 52.8129 143.299 52.9571 165.569H9.9259C10.2783 144.421 14.6137 123.52 22.7137 103.964C22.8203 103.706 22.9274 103.449 23.0353 103.192C24.6527 99.3416 26.4106 95.5578 28.3041 91.8483ZM85.8502 309.081C86.4958 307.852 87.9268 306.236 90.8645 304.348C95.241 301.535 101.949 298.813 110.802 296.456C111.61 296.241 112.432 296.03 113.269 295.823C119 300.707 125.148 305.316 131.717 309.611L166.372 332.269C157.939 331.981 149.676 331.396 141.803 330.528C136.067 329.896 130.606 329.12 125.49 328.217C121.546 326.916 117.645 325.467 113.797 323.873C104.014 319.821 94.6599 314.864 85.8502 309.081ZM82.3468 306.718C83.5391 304.694 85.6307 302.71 88.5898 300.808C93.4381 297.692 100.521 294.858 109.442 292.464C90.3094 275.18 76.1372 254.724 66.7734 232.715C52.1296 235.052 38.5695 237.841 26.3883 241.024C34.6096 258.206 45.6978 273.888 59.1966 287.388C66.3365 294.528 74.0868 300.994 82.3468 306.718ZM19.7348 225.06C13.2355 206.888 9.9026 187.714 9.90254 168.374H52.9974C53.4541 188.878 57.4652 209.351 65.1317 228.717C50.4519 231.087 36.8395 233.914 24.5925 237.145C23.9462 235.701 23.3198 234.247 22.7136 232.784C21.6564 230.231 20.6633 227.656 19.7348 225.06ZM133.251 307.263C127.385 303.427 121.859 299.336 116.672 295.02C124.153 293.337 132.626 291.959 141.803 290.947C144.892 290.607 148.041 290.31 151.237 290.057L171.353 332.174L133.251 307.263ZM141.342 286.765C130.795 287.928 121.108 289.574 112.715 291.626C93.3853 274.535 79.078 254.194 69.6376 232.266C77.902 230.993 86.4991 229.862 95.3773 228.884C105.57 227.76 116.048 226.848 126.719 226.15C130.855 243.096 136.751 259.726 144.413 275.768L149.297 285.994C146.609 286.22 143.955 286.477 141.342 286.765ZM154.239 289.834L174.437 332.123L174.437 289.022C167.602 289.102 160.832 289.374 154.239 289.834ZM146.944 274.559L152.292 285.756C159.505 285.217 166.935 284.9 174.437 284.814V224.489C159.293 224.567 144.254 225.065 129.562 225.97C133.647 242.562 139.439 258.846 146.944 274.559ZM122.241 168.374C122.448 186.3 124.558 204.217 128.577 221.815C143.589 220.876 158.96 220.36 174.437 220.281L175.138 220.278L175.138 168.374H122.241ZM119.42 165.569C119.41 146.104 121.62 126.649 126.04 107.592C117.439 106.977 108.98 106.212 100.717 105.301C89.2095 104.032 78.1878 102.491 67.7786 100.699C59.6652 121.371 55.6163 143.459 55.7625 165.569H119.42ZM119.436 168.374C119.642 186.359 121.742 204.336 125.742 221.997C115.253 222.693 104.949 223.596 94.9165 224.701C85.6191 225.726 76.6193 226.917 67.9762 228.266C60.2887 209.06 56.2652 188.733 55.8035 168.374H119.436ZM122.225 165.569H175.138L175.138 109.454C159.502 109.368 143.981 108.808 128.874 107.789C124.434 126.777 122.215 146.168 122.225 165.569ZM113.396 42.5628C111.384 42.0257 109.469 41.4653 107.655 40.8835C90.8881 57.0201 78.0931 76.1016 69.403 96.7076C79.4495 98.417 90.0791 99.8949 101.178 101.119C109.609 102.049 118.25 102.825 127.038 103.445C131.757 84.5397 138.664 66.0577 147.753 48.3829C146.376 48.2506 145.009 48.1095 143.654 47.9596C132.338 46.7085 122.057 44.8746 113.396 42.5628ZM114.481 38.4974C113.349 38.1952 112.254 37.8868 111.196 37.5728C125.341 24.7306 142.129 13.9188 161.489 5.91157L164.302 4.74825C166.487 4.60924 168.675 4.50044 170.866 4.42199L149.86 44.3532C147.924 44.1786 146.008 43.9865 144.116 43.7773C132.958 42.5435 122.891 40.7424 114.481 38.4974ZM175.138 4.30764C174.787 4.31387 174.436 4.32088 174.085 4.32867L152.894 44.6114C160.113 45.1892 167.584 45.5291 175.138 45.6213L175.138 4.30764ZM175.138 49.8294C166.851 49.7295 158.656 49.335 150.769 48.6573C141.6 66.2925 134.635 84.7506 129.881 103.639C144.662 104.621 159.842 105.162 175.138 105.246L175.138 49.8294Z" fill="#EAB131"/>
</g>
<mask id="mask2" mask-type="alpha" maskUnits="userSpaceOnUse" x="6" y="106" width="168" height="92">
<path d="M6.47673 175.541C9.7629 150.941 18.4483 127.372 31.9108 106.523L173.295 197.828L6.47673 175.541Z" fill="#130947"/>
</mask>
<g mask="url(#mask2)">
<path fill-rule="evenodd" clip-rule="evenodd" d="M173.294 29.5171C172.913 29.5171 172.532 29.5184 172.151 29.521C172.532 29.5198 172.913 29.519 173.294 29.5184L173.294 29.5171ZM108.888 42.329C128.955 34.0164 150.438 29.6684 172.151 29.521C172.149 29.521 172.146 29.521 172.144 29.521C150.434 29.6693 128.953 34.0173 108.888 42.329ZM103.371 44.7311C118.569 39.8617 134.389 36.5776 150.483 34.9398C132.373 43.0625 116.587 53.6542 103.188 66.0573C97.8264 64.2845 93.5913 62.3651 90.5482 60.404C86.2089 57.6076 85.3771 55.4701 85.3771 54.4137C85.3771 54.3788 85.378 54.3427 85.3799 54.3055C91.1692 50.7588 97.1765 47.5604 103.371 44.7311ZM81.5678 56.7117C82.4295 59.1932 84.6839 61.6306 88.2691 63.941C91.2487 65.8612 95.1104 67.6698 99.7535 69.3266C83.0566 85.6732 70.3136 104.921 61.6555 125.671C50.3566 123.677 39.826 121.387 30.2315 118.832C28.5881 118.395 26.9767 117.951 25.3977 117.5C33.1038 103.31 42.8268 90.2758 54.2875 78.8144C62.6055 70.4958 71.7522 63.0927 81.5678 56.7117ZM23.3949 121.303C25.2707 121.845 27.1891 122.377 29.1492 122.899C38.6215 125.42 48.9741 127.683 60.0487 129.659C51.9471 150.506 47.9038 172.754 48.0479 195.024H5.01672C5.36913 173.876 9.70448 152.975 17.8045 133.419C17.9111 133.161 18.0183 132.904 18.1261 132.648C19.7435 128.797 21.5014 125.013 23.3949 121.303ZM80.941 338.536C81.5867 337.308 83.0176 335.691 85.9553 333.803C90.3318 330.99 97.0397 328.268 105.893 325.911C106.701 325.696 107.523 325.485 108.36 325.278C114.091 330.162 120.239 334.771 126.807 339.066L161.463 361.724C153.03 361.436 144.766 360.851 136.894 359.983C131.158 359.351 125.697 358.575 120.581 357.672C116.637 356.371 112.736 354.923 108.888 353.328C99.1053 349.276 89.7508 344.319 80.941 338.536ZM77.4376 336.173C78.63 334.149 80.7215 332.165 83.6806 330.263C88.5289 327.147 95.6121 324.313 104.533 321.919C85.4002 304.635 71.228 284.179 61.8642 262.17C47.2204 264.507 33.6604 267.296 21.4791 270.479C29.7004 287.661 40.7886 303.343 54.2874 316.843C61.4273 323.983 69.1777 330.449 77.4376 336.173ZM14.8257 254.515C8.32637 236.343 4.99342 217.169 4.99336 197.829H48.0882C48.5449 218.333 52.556 238.807 60.2226 258.172C45.5427 260.542 31.9303 263.369 19.6833 266.6C19.037 265.156 18.4106 263.702 17.8045 262.239C16.7472 259.686 15.7541 257.111 14.8257 254.515ZM128.342 336.718C122.476 332.882 116.95 328.791 111.763 324.475C119.244 322.793 127.717 321.414 136.894 320.402C139.983 320.062 143.132 319.765 146.328 319.512L166.444 361.629L128.342 336.718ZM136.433 316.22C125.886 317.383 116.199 319.029 107.806 321.081C88.4761 303.99 74.1688 283.649 64.7284 261.721C72.9928 260.448 81.5899 259.317 90.4681 258.339C100.66 257.215 111.139 256.303 121.809 255.605C125.946 272.551 131.842 289.182 139.504 305.224L144.387 315.449C141.7 315.675 139.046 315.932 136.433 316.22ZM149.33 319.289L169.527 361.578L169.527 318.477C162.693 318.557 155.922 318.83 149.33 319.289ZM142.035 304.015L147.382 315.211C154.595 314.672 162.026 314.355 169.527 314.269V253.944C154.384 254.022 139.345 254.52 124.653 255.425C128.738 272.017 134.53 288.301 142.035 304.015ZM117.332 197.829C117.539 215.755 119.649 233.672 123.668 251.27C138.679 250.331 154.051 249.815 169.527 249.736L170.229 249.733L170.229 197.829H117.332ZM114.51 195.024C114.501 175.56 116.71 156.104 121.13 137.047C112.53 136.432 104.07 135.667 95.8074 134.756C84.3003 133.487 73.2786 131.946 62.8694 130.154C54.756 150.826 50.7071 172.914 50.8533 195.024H114.51ZM114.527 197.829C114.733 215.814 116.832 233.791 120.832 251.453C110.344 252.148 100.039 253.051 90.0073 254.156C80.7099 255.181 71.7101 256.372 63.067 257.721C55.3795 238.515 51.356 218.188 50.8944 197.829H114.527ZM117.315 195.024H170.229L170.229 138.909C154.592 138.823 139.072 138.263 123.965 137.244C119.525 156.232 117.306 175.624 117.315 195.024ZM108.487 72.0179C106.475 71.4808 104.559 70.9204 102.746 70.3385C85.9789 86.4752 73.1839 105.557 64.4938 126.163C74.5403 127.872 85.17 129.35 96.2686 130.574C104.7 131.504 113.34 132.28 122.129 132.9C126.847 113.995 133.755 95.5128 142.844 77.838C141.467 77.7057 140.1 77.5645 138.745 77.4147C127.429 76.1636 117.147 74.3297 108.487 72.0179ZM109.572 67.9524C108.44 67.6503 107.345 67.3419 106.287 67.0279C120.432 54.1857 137.22 43.3739 156.58 35.3666L159.393 34.2033C161.577 34.0643 163.766 33.9555 165.957 33.8771L144.951 73.8083C143.015 73.6336 141.099 73.4416 139.207 73.2324C128.048 71.9986 117.982 70.1974 109.572 67.9524ZM170.229 33.7627C169.878 33.7689 169.527 33.776 169.176 33.7837L147.985 74.0665C155.203 74.6443 162.674 74.9842 170.229 75.0763L170.229 33.7627ZM170.229 79.2844C161.942 79.1846 153.747 78.7901 145.86 78.1124C136.691 95.7476 129.726 114.206 124.972 133.094C139.753 134.076 154.933 134.617 170.229 134.701L170.229 79.2844Z" fill="#EAB131"/>
</g>
<mask id="mask3" mask-type="alpha" maskUnits="userSpaceOnUse" x="18" y="206" width="169" height="149">
<path d="M75.5189 354.411C54.8542 336.25 38.9565 313.299 29.2175 287.568C19.4785 261.837 16.1953 234.111 19.6552 206.816L186.619 227.984L75.5189 354.411Z" fill="#130947"/>
</mask>
<g mask="url(#mask3)">
<path fill-rule="evenodd" clip-rule="evenodd" d="M186.618 59.6724C186.237 59.6724 185.856 59.6737 185.476 59.6762C185.856 59.6751 186.237 59.6743 186.618 59.6737L186.618 59.6724ZM122.212 72.4843C142.28 64.1716 163.763 59.8236 185.476 59.6762C185.473 59.6762 185.471 59.6763 185.468 59.6763C163.758 59.8246 142.277 64.1726 122.212 72.4843ZM116.695 74.8863C131.893 70.017 147.713 66.7328 163.807 65.0951C145.697 73.2178 129.912 83.8095 116.512 96.2126C111.151 94.4398 106.916 92.5204 103.872 90.5593C99.5331 87.7629 98.7013 85.6253 98.7013 84.569C98.7013 84.5341 98.7022 84.498 98.7042 84.4608C104.493 80.9141 110.501 77.7157 116.695 74.8863ZM94.892 86.867C95.7538 89.3485 98.0081 91.7858 101.593 94.0963C104.573 96.0165 108.435 97.8251 113.078 99.4819C96.3808 115.828 83.6378 135.076 74.9797 155.826C63.6808 153.832 53.1502 151.542 43.5557 148.988C41.9124 148.55 40.3009 148.106 38.7219 147.656C46.4281 133.466 56.151 120.431 67.6117 108.97C75.9297 100.651 85.0764 93.248 94.892 86.867ZM36.7191 151.459C38.5949 152 40.5133 152.532 42.4734 153.054C51.9457 155.576 62.2984 157.839 73.3729 159.815C65.2713 180.661 61.228 202.909 61.3721 225.179H18.3409C18.6933 204.031 23.0287 183.13 31.1287 163.574C31.2353 163.317 31.3425 163.06 31.4503 162.803C33.0678 158.952 34.8256 155.168 36.7191 151.459ZM94.2652 368.692C94.9109 367.463 96.3418 365.846 99.2795 363.958C103.656 361.145 110.364 358.423 119.217 356.066C120.025 355.851 120.847 355.64 121.684 355.433C127.415 360.317 133.563 364.926 140.132 369.221L174.787 391.88C166.354 391.591 158.091 391.007 150.219 390.139C144.482 389.506 139.021 388.73 133.905 387.827C129.961 386.526 126.06 385.078 122.212 383.484C112.429 379.431 103.075 374.475 94.2652 368.692ZM90.7618 366.328C91.9542 364.304 94.0458 362.32 97.0048 360.418C101.853 357.302 108.936 354.468 117.857 352.074C98.7244 334.79 84.5522 314.334 75.1884 292.326C60.5446 294.662 46.9846 297.451 34.8033 300.634C43.0246 317.816 54.1128 333.499 67.6116 346.998C74.7515 354.139 82.5019 360.605 90.7618 366.328ZM28.1499 284.67C21.6506 266.499 18.3176 247.325 18.3176 227.985H61.4124C61.8691 248.488 65.8802 268.962 73.5468 288.327C58.867 290.698 45.2545 293.525 33.0076 296.755C32.3612 295.311 31.7348 293.858 31.1287 292.394C30.0715 289.842 29.0784 287.266 28.1499 284.67ZM141.667 366.873C135.8 363.037 130.274 358.947 125.087 354.63C132.568 352.948 141.041 351.57 150.218 350.558C153.307 350.217 156.457 349.92 159.652 349.668L179.768 391.785L141.667 366.873ZM149.757 346.375C139.211 347.538 129.523 349.184 121.13 351.236C101.8 334.145 87.493 313.804 78.0527 291.876C86.317 290.603 94.9141 289.472 103.792 288.494C113.985 287.371 124.463 286.458 135.134 285.76C139.27 302.706 145.166 319.337 152.828 335.379L157.712 345.604C155.024 345.83 152.37 346.087 149.757 346.375ZM162.654 349.444L182.852 391.733L182.852 348.632C176.017 348.712 169.247 348.985 162.654 349.444ZM155.359 334.17L160.707 345.366C167.92 344.827 175.35 344.511 182.852 344.424V284.099C167.708 284.177 152.669 284.675 137.977 285.58C142.062 302.172 147.854 318.457 155.359 334.17ZM130.656 227.985C130.864 245.91 132.973 263.828 136.992 281.425C152.004 280.486 167.375 279.971 182.852 279.891L183.553 279.888L183.553 227.985H130.656ZM127.835 225.179C127.825 205.715 130.035 186.259 134.455 167.202C125.854 166.587 117.395 165.823 109.132 164.912C97.6245 163.643 86.6028 162.101 76.1936 160.309C68.0802 180.981 64.0313 203.07 64.1775 225.179H127.835ZM127.851 227.985C128.057 245.97 130.157 263.947 134.157 281.608C123.668 282.303 113.364 283.206 103.332 284.311C94.0341 285.336 85.0343 286.528 76.3912 287.876C68.7037 268.67 64.6802 248.343 64.2186 227.985H127.851ZM130.64 225.179H183.553L183.553 169.064C167.917 168.979 152.396 168.419 137.289 167.399C132.849 186.387 130.63 205.779 130.64 225.179ZM121.811 102.173C119.799 101.636 117.884 101.076 116.07 100.494C99.3031 116.63 86.5082 135.712 77.818 156.318C87.8645 158.027 98.4942 159.505 109.593 160.729C118.024 161.659 126.665 162.435 135.453 163.055C140.172 144.15 147.079 125.668 156.168 107.993C154.791 107.861 153.424 107.72 152.069 107.57C140.753 106.319 130.472 104.485 121.811 102.173ZM122.896 98.1077C121.764 97.8055 120.669 97.4972 119.611 97.1832C133.756 84.3409 150.544 73.5292 169.904 65.5219L172.717 64.3586C174.902 64.2196 177.09 64.1108 179.281 64.0323L158.275 103.964C156.339 103.789 154.423 103.597 152.531 103.388C141.373 102.154 131.306 100.353 122.896 98.1077ZM183.553 63.918C183.202 63.9242 182.851 63.9312 182.5 63.939L161.309 104.222C168.528 104.8 175.999 105.139 183.553 105.232L183.553 63.918ZM183.553 109.44C175.266 109.34 167.071 108.945 159.184 108.268C150.015 125.903 143.05 144.361 138.296 163.25C153.077 164.232 168.257 164.772 183.553 164.856L183.553 109.44Z" fill="#EAB131"/>
</g>
<mask id="mask4" mask-type="alpha" maskUnits="userSpaceOnUse" x="96" y="237" width="114" height="169">
<path d="M209.058 405.413C167.384 405.413 127.192 389.95 96.2621 362.018L209.058 237.101L209.058 405.413Z" fill="#130947"/>
</mask>
<g mask="url(#mask4)">
<path fill-rule="evenodd" clip-rule="evenodd" d="M209.059 68.7905C208.676 68.7911 208.294 68.7919 207.912 68.7931C186.2 68.941 164.719 73.289 144.653 81.6011C142.798 82.3695 140.958 83.1704 139.135 84.0032C154.334 79.1339 170.154 75.8497 186.248 74.2119C168.138 82.3346 152.352 92.9263 138.953 105.329C133.591 103.557 129.356 101.637 126.313 99.6761C121.974 96.8797 121.142 94.7422 121.142 93.6858C121.142 93.6509 121.143 93.6148 121.145 93.5776C119.863 94.3626 118.592 95.1648 117.332 95.9838C118.194 98.4653 120.449 100.903 124.034 103.213C127.013 105.133 130.875 106.942 135.518 108.599C118.821 124.945 106.078 144.193 97.4201 164.943C86.1213 162.949 75.5906 160.659 65.9962 158.104C64.3528 157.667 62.7414 157.223 61.1623 156.773C60.4788 158.031 59.8111 159.299 59.1595 160.575C61.0354 161.117 62.9538 161.649 64.9138 162.171C74.3862 164.692 84.7388 166.955 95.8134 168.931C87.7118 189.778 83.6684 212.026 83.8125 234.296H40.7814C40.7658 235.231 40.758 236.166 40.758 237.101C40.758 237.101 40.758 237.101 40.758 237.101H83.8529C84.3095 257.605 88.3207 278.079 95.9872 297.444C81.3074 299.814 67.6949 302.641 55.448 305.872C56.0304 307.173 56.6291 308.466 57.2438 309.751C69.425 306.568 82.985 303.779 97.6288 301.442C103.12 314.348 110.264 326.719 119.092 338.23L121.002 336.104C112.616 325.095 105.789 313.294 100.493 300.993C108.757 299.72 117.355 298.589 126.233 297.611C136.425 296.488 146.903 295.575 157.574 294.877C157.608 295.014 157.641 295.152 157.675 295.289L162.085 290.381C161.199 290.433 160.315 290.487 159.432 290.542C155.414 272.944 153.304 255.027 153.097 237.101H205.993L205.993 241.512L209.059 238.101L209.059 237.101L209.059 68.7905ZM156.345 396.944C161.461 397.847 166.923 398.623 172.659 399.255C180.531 400.124 188.795 400.708 197.227 400.996L162.572 378.338C156.003 374.043 149.855 369.434 144.125 364.55C143.288 364.757 142.465 364.968 141.657 365.183C132.804 367.54 126.096 370.262 121.72 373.075C118.782 374.963 117.351 376.58 116.706 377.809C125.515 383.591 134.87 388.548 144.653 392.601C148.501 394.195 152.401 395.643 156.345 396.944ZM113.202 375.445C114.395 373.421 116.486 371.437 119.445 369.535C124.294 366.419 131.377 363.585 140.297 361.191C132.384 354.042 125.319 346.35 119.092 338.23L97.0687 362.741C102.189 367.306 107.577 371.547 113.202 375.445ZM205.993 241.512L205.993 289.005L205.292 289.008C190.726 289.083 176.253 289.544 162.085 290.381L205.993 241.512ZM157.675 295.289L121.002 336.104C127.566 344.719 135.084 352.849 143.571 360.353C151.964 358.301 161.651 356.655 172.198 355.492C174.81 355.204 177.464 354.947 180.152 354.721L175.268 344.496C167.669 328.584 161.806 312.092 157.675 295.289ZM164.107 375.99C158.24 372.154 152.715 368.063 147.527 363.747C155.009 362.065 163.482 360.687 172.659 359.675C175.748 359.334 178.897 359.037 182.093 358.784L202.208 400.901L164.107 375.99ZM185.095 358.561L205.292 400.85L205.292 357.749C198.458 357.829 191.687 358.102 185.095 358.561ZM177.8 343.287L183.147 354.483C190.36 353.944 197.791 353.627 205.292 353.541V293.216C190.148 293.294 175.11 293.792 160.418 294.697C164.503 311.289 170.295 327.573 177.8 343.287ZM150.275 234.296C150.266 214.832 152.475 195.376 156.895 176.319C148.295 175.704 139.835 174.94 131.572 174.028C120.065 172.759 109.043 171.218 98.6341 169.426C90.5207 190.098 86.4717 212.186 86.6179 234.296H150.275ZM150.292 237.101C150.497 255.087 152.597 273.064 156.597 290.725C146.108 291.42 135.804 292.323 125.772 293.428C116.475 294.453 107.475 295.645 98.8316 296.993C91.1441 277.787 87.1206 257.46 86.659 237.101H150.292ZM153.08 234.296H205.993L205.993 178.181C190.357 178.096 174.836 177.535 159.729 176.516C155.29 195.504 153.071 214.896 153.08 234.296ZM144.251 111.29C142.239 110.753 140.324 110.192 138.51 109.611C121.744 125.747 108.949 144.829 100.258 165.435C110.305 167.144 120.935 168.622 132.033 169.846C140.465 170.776 149.105 171.552 157.894 172.172C162.612 153.267 169.519 134.785 178.609 117.11C177.231 116.978 175.864 116.837 174.509 116.687C163.194 115.436 152.912 113.602 144.251 111.29ZM145.336 107.225C144.204 106.922 143.109 106.614 142.052 106.3C156.196 93.4578 172.985 82.646 192.345 74.6387L195.157 73.4754C197.342 73.3364 199.53 73.2276 201.722 73.1492L180.716 113.08C178.78 112.906 176.864 112.714 174.972 112.504C163.813 111.271 153.747 109.47 145.336 107.225ZM205.993 73.0348C205.642 73.041 205.291 73.0481 204.94 73.0558L183.75 113.339C190.968 113.916 198.439 114.256 205.993 114.348L205.993 73.0348ZM205.993 118.557C197.706 118.457 189.511 118.062 181.624 117.385C172.456 135.02 165.491 153.478 160.737 172.366C175.518 173.348 190.698 173.889 205.993 173.973L205.993 118.557Z" fill="#EAB131"/>
</g>
</svg>
