<svg width="359" height="389" viewBox="0 0 359 389" fill="none" xmlns="http://www.w3.org/2000/svg">
<g clip-path="url(#clip0)">
<path fill-rule="evenodd" clip-rule="evenodd" d="M26.5087 70.2544C46.9398 37.2208 78.0292 12.932 114.136 1.79492L158.533 158.444L26.5087 70.2544ZM19.8745 107.761C21.3893 104.978 22.9793 102.245 24.6445 99.5629L156.739 187.803L0.875 167.097C3.48122 146.222 9.93321 126.073 19.8745 107.761ZM168.481 124.77L185.541 184.936L185.547 184.947V21.6315H184.542H184.462C169.796 21.728 155.216 23.9681 141.145 28.2867L145.926 45.1547L150.701 61.989L155.535 79.087L168.481 124.77ZM358.611 211.842V212.717C358.613 234.28 354.549 255.631 346.651 275.553C338.753 295.474 327.176 313.576 312.58 328.823C297.985 344.069 280.657 356.164 261.587 364.414C242.517 372.665 222.078 376.91 201.437 376.908V48.5211H202.441H202.511C232.645 48.6859 262.092 57.9439 287.308 75.1811C309.097 90.0102 327.019 110.261 339.464 134.114C351.91 157.967 358.489 184.676 358.611 211.842ZM123.155 268.226L169.351 216.309L169.325 216.337L117.585 209.469L61.1827 201.983L13.5201 195.659C12.6592 202.504 12.2071 209.399 12.1664 216.303V217.179C12.149 239.654 16.5594 261.892 25.1233 282.509C33.6872 303.127 46.2212 321.683 61.9454 337.022L89.416 306.159L118.321 273.669L123.155 268.226ZM187.271 222.481L187.266 222.498V387.57C155.558 387.618 124.584 377.598 98.4512 358.839C91.889 354.135 85.676 348.921 79.8653 343.239L107.336 312.377L136.241 279.83L141.075 274.387L187.271 222.481Z" fill="white"/>
<path d="M72.3934 21.8564C53.924 34.4601 38.1872 50.9663 26.1973 70.3112" stroke="black" stroke-width="1.70385" stroke-miterlimit="10" stroke-linecap="square"/>
<path d="M72.3936 21.8568C85.1992 13.111 99.1637 6.37476 113.841 1.86328" stroke="black" stroke-width="1.70385" stroke-miterlimit="10" stroke-linecap="square"/>
<path d="M114.207 96.4434C111.868 105.989 110.026 115.661 108.69 125.415" stroke="black" stroke-width="1.70385" stroke-linecap="round" stroke-linejoin="round"/>
<path d="M114.206 96.444C117.883 81.5244 122.574 66.8976 128.242 52.6748" stroke="black" stroke-width="1.70385" stroke-linecap="round" stroke-linejoin="round"/>
<path d="M103.673 31.5303C110.087 33.1071 116.683 34.4763 123.419 35.5649" stroke="black" stroke-width="1.70385" stroke-linecap="round" stroke-linejoin="round"/>
<path d="M72.3936 21.8564C82.6415 25.6801 93.0838 28.9097 103.673 31.5306" stroke="black" stroke-width="1.70385" stroke-linecap="round" stroke-linejoin="round"/>
<path d="M63.4336 88.7393C78.5655 91.7975 95.7602 94.5976 114.206 96.4438" stroke="black" stroke-width="1.70385" stroke-linecap="round" stroke-linejoin="round"/>
<path d="M114.206 96.4434C122.951 97.3187 131.975 97.9809 141.193 98.3513" stroke="black" stroke-width="1.70385" stroke-linecap="round" stroke-linejoin="round"/>
<path d="M49.1992 85.6748C53.7007 86.7073 58.4456 87.7305 63.4341 88.7443" stroke="black" stroke-width="1.70385" stroke-linecap="round" stroke-linejoin="round"/>
<path d="M103.673 31.5301C108.435 26.9897 113.425 22.7171 118.622 18.7305" stroke="black" stroke-width="1.70385" stroke-linecap="round" stroke-linejoin="round"/>
<path d="M61.3604 93.7954C62.0336 92.082 62.7247 90.3986 63.4338 88.7451" stroke="black" stroke-width="1.70385" stroke-linecap="round" stroke-linejoin="round"/>
<path d="M103.673 31.5303C88.734 45.7777 73.8224 64.6041 63.4551 88.7669" stroke="black" stroke-width="1.70385" stroke-linecap="round" stroke-linejoin="round"/>
<path d="M123.397 35.5654L128.243 52.6691" stroke="black" stroke-width="1.70385" stroke-miterlimit="10" stroke-linecap="square"/>
<path d="M118.622 18.7305L123.397 35.5648" stroke="black" stroke-width="1.70385" stroke-miterlimit="10" stroke-linecap="square"/>
<path d="M113.842 1.86328L118.623 18.7313" stroke="black" stroke-width="1.70385" stroke-miterlimit="10" stroke-linecap="square"/>
<path d="M128.243 52.668L158.351 158.589L26.2139 70.3103" stroke="black" stroke-width="1.70385" stroke-miterlimit="10" stroke-linecap="square"/>
<path d="M107.132 154.696C105.951 163.394 105.234 172.154 104.983 180.935" stroke="black" stroke-width="1.70385" stroke-miterlimit="10" stroke-linecap="round"/>
<path d="M19.875 107.762C27.3953 109.933 36.7903 112.436 47.6249 114.922" stroke="black" stroke-width="1.70385" stroke-miterlimit="10" stroke-linecap="round"/>
<path d="M59.8019 123.048C53.5458 139.12 49.7395 156.118 48.5215 173.422" stroke="black" stroke-width="1.70385" stroke-miterlimit="10" stroke-linecap="round"/>
<path d="M185.176 21.9688C176.299 35.0839 168.541 48.9882 161.992 63.5214" stroke="black" stroke-width="1.70385" stroke-linecap="square" stroke-linejoin="round"/>
<path d="M161.993 63.5215C159.807 68.3754 157.593 73.5716 155.418 79.0596" stroke="black" stroke-width="1.70385" stroke-miterlimit="10" stroke-linecap="round"/>
<path d="M185.01 64.8177C177.321 64.8097 169.637 64.3771 161.992 63.5215" stroke="black" stroke-width="1.70385" stroke-miterlimit="10" stroke-linecap="round"/>
<path d="M150.566 61.9561C154.33 62.5658 158.139 63.0877 161.992 63.5216" stroke="black" stroke-width="1.70385" stroke-miterlimit="10" stroke-linecap="round"/>
<path d="M185.01 125.079C179.406 125.079 173.855 124.967 168.358 124.742" stroke="black" stroke-width="1.70385" stroke-miterlimit="10" stroke-linecap="round"/>
<path d="M184.973 21.7832C180.751 23.5957 164.513 30.7615 145.798 45.1156" stroke="black" stroke-width="1.70385" stroke-linecap="round" stroke-linejoin="round"/>
<path d="M201.018 376.998C201.018 376.998 226.146 362.879 252.22 336.635" stroke="black" stroke-width="1.70385" stroke-miterlimit="10" stroke-linecap="round"/>
<path d="M337.795 131.936C325.379 109.075 307.915 89.6439 286.855 75.2607" stroke="black" stroke-width="1.70385" stroke-linecap="square" stroke-linejoin="round"/>
<path d="M289.806 348.29C263.67 367.041 232.697 377.054 200.991 377.004V48.6396H202.066C232.192 48.8071 261.631 58.0587 286.846 75.2827" stroke="black" stroke-width="1.70385" stroke-miterlimit="10" stroke-linecap="square"/>
<path d="M343.055 283.142C331.111 309.38 312.741 331.855 289.806 348.29" stroke="black" stroke-width="1.70385" stroke-linecap="square" stroke-linejoin="round"/>
<path d="M358.16 211.932C358.06 183.878 351.047 156.324 337.796 131.924" stroke="black" stroke-width="1.70385" stroke-linecap="square" stroke-linejoin="round"/>
<path d="M358.16 211.933C358.16 212.224 358.16 212.494 358.16 212.808C358.194 237.134 353.034 261.162 343.055 283.142" stroke="black" stroke-width="1.70385" stroke-linecap="square" stroke-linejoin="round"/>
<path d="M252.822 211.932C252.822 211.786 252.822 211.646 252.822 211.5C252.822 189.907 249.717 169.05 245.038 149.858" stroke="black" stroke-width="1.70385" stroke-linecap="square" stroke-linejoin="round"/>
<path d="M200.996 48.6396C209.963 61.8716 217.805 75.8975 224.433 90.5571" stroke="black" stroke-width="1.70385" stroke-linecap="round" stroke-linejoin="round"/>
<path d="M225.04 331.799C212.916 359.295 201.007 376.993 201.007 376.993" stroke="black" stroke-width="1.70385" stroke-linecap="round" stroke-linejoin="round"/>
<path d="M246.102 268.821C250.152 250.915 252.784 231.707 252.822 211.943" stroke="black" stroke-width="1.70385" stroke-linecap="square" stroke-linejoin="round"/>
<path d="M245.044 149.87C239.978 129.466 233.077 109.609 224.433 90.5625" stroke="black" stroke-width="1.70385" stroke-linecap="square" stroke-linejoin="round"/>
<path d="M225.039 331.798C232.742 314.336 240.687 292.743 246.101 268.821" stroke="black" stroke-width="1.70385" stroke-linecap="square" stroke-linejoin="round"/>
<path d="M224.433 90.5625C216.794 91.4104 209.118 91.8393 201.437 91.8475H201.018" stroke="black" stroke-width="1.70385" stroke-linecap="square" stroke-linejoin="round"/>
<path d="M255.599 84.957C245.337 87.5077 234.931 89.3819 224.443 90.5685" stroke="black" stroke-width="1.70385" stroke-linecap="square" stroke-linejoin="round"/>
<path d="M286.846 75.2822C276.605 79.1051 266.169 82.3347 255.588 84.9563" stroke="black" stroke-width="1.70385" stroke-linecap="round" stroke-linejoin="round"/>
<path d="M200.991 330.294C209.028 330.339 217.056 330.842 225.04 331.798" stroke="black" stroke-width="1.70385" stroke-linecap="square" stroke-linejoin="round"/>
<path d="M289.806 348.29C277.526 343.559 264.966 339.664 252.204 336.63" stroke="black" stroke-width="1.70385" stroke-linecap="round" stroke-linejoin="round"/>
<path d="M225.039 331.799C234.176 332.898 243.25 334.512 252.22 336.636" stroke="black" stroke-width="1.70385" stroke-linecap="square" stroke-linejoin="round"/>
<path d="M295.817 142.171C280.679 145.224 263.49 148.024 245.044 149.87" stroke="black" stroke-width="1.70385" stroke-linecap="square" stroke-linejoin="round"/>
<path d="M245.044 149.87C231.078 151.267 216.44 152.115 201.41 152.115H200.991" stroke="black" stroke-width="1.70385" stroke-linecap="square" stroke-linejoin="round"/>
<path d="M337.795 131.936C327.137 135.011 312.774 138.748 295.815 142.171" stroke="black" stroke-width="1.70385" stroke-linecap="round" stroke-linejoin="round"/>
<path d="M343.055 283.141C332.204 280.751 315.907 277.491 296.037 274.517" stroke="black" stroke-width="1.70385" stroke-linecap="round" stroke-linejoin="round"/>
<path d="M200.991 266.975C216.526 267.008 231.696 267.704 246.113 268.821" stroke="black" stroke-width="1.70385" stroke-linecap="square" stroke-linejoin="round"/>
<path d="M296.036 274.517C281.13 272.272 264.22 270.23 246.08 268.821" stroke="black" stroke-width="1.70385" stroke-linecap="square" stroke-linejoin="round"/>
<path d="M296.036 274.517C284.879 299.532 268.367 320.401 252.22 336.635" stroke="black" stroke-width="1.70385" stroke-linecap="square" stroke-linejoin="round"/>
<path d="M309.681 211.933C309.681 234.939 304.342 255.881 296.037 274.506" stroke="black" stroke-width="1.70385" stroke-linecap="square" stroke-linejoin="round"/>
<path d="M255.599 84.9569C231.518 62.0005 206.32 50.9123 201.002 48.6396" stroke="black" stroke-width="1.70385" stroke-linecap="round" stroke-linejoin="round"/>
<path d="M309.68 211.933C309.68 184.902 304.249 161.778 295.815 142.16" stroke="black" stroke-width="1.70385" stroke-linecap="square" stroke-linejoin="round"/>
<path d="M255.6 84.957C270.538 99.2101 285.45 118.036 295.817 142.194" stroke="black" stroke-width="1.70385" stroke-linecap="square" stroke-linejoin="round"/>
<path d="M252.822 211.943H200.991" stroke="black" stroke-width="1.70385" stroke-linecap="square" stroke-linejoin="round"/>
<path d="M252.821 211.943H309.68" stroke="black" stroke-width="1.70385" stroke-linecap="square" stroke-linejoin="round"/>
<path d="M357.945 211.943H309.681" stroke="black" stroke-width="1.70385" stroke-linecap="round" stroke-linejoin="round"/>
<path d="M12.29 216.343C12.3228 209.426 12.7713 202.518 13.633 195.659L169.513 216.326L62.0529 337.067C47.6342 322.971 35.8778 306.171 27.3951 287.541" stroke="black" stroke-width="1.70385" stroke-miterlimit="10" stroke-linecap="square"/>
<path d="M12.2902 216.343C12.2902 216.635 12.2902 216.904 12.2902 217.218C12.2574 241.541 17.4176 265.565 27.3953 287.541" stroke="black" stroke-width="1.70385" stroke-miterlimit="10" stroke-linecap="round"/>
<path d="M117.72 209.48C117.661 211.618 117.623 213.756 117.623 215.906V216.343" stroke="black" stroke-width="1.70385" stroke-miterlimit="10" stroke-linecap="round"/>
<path d="M117.64 216.343C117.763 233.81 119.657 251.215 123.291 268.265" stroke="black" stroke-width="1.70385" stroke-miterlimit="10" stroke-linecap="round"/>
<path d="M27.3955 287.541C38.2462 285.15 54.5492 281.884 74.4189 278.916" stroke="black" stroke-width="1.70385" stroke-miterlimit="10" stroke-linecap="round"/>
<path d="M74.4131 278.916C87.681 276.936 102.544 275.084 118.434 273.709" stroke="black" stroke-width="1.70385" stroke-miterlimit="10" stroke-linecap="round"/>
<path d="M89.5289 306.205C83.752 297.579 78.6948 288.451 74.4131 278.922" stroke="black" stroke-width="1.70385" stroke-miterlimit="10" stroke-linecap="round"/>
<path d="M60.7686 216.343C60.7686 239.35 66.108 260.292 74.4125 278.916" stroke="black" stroke-width="1.70385" stroke-miterlimit="10" stroke-linecap="round"/>
<path d="M60.7686 216.343C60.7686 211.434 60.9476 206.652 61.3057 201.994" stroke="black" stroke-width="1.70385" stroke-miterlimit="10" stroke-linecap="round"/>
<path d="M117.623 216.343H169.438" stroke="black" stroke-width="1.70385" stroke-miterlimit="10" stroke-linecap="round"/>
<path d="M60.7686 216.343H117.622" stroke="black" stroke-width="1.70385" stroke-miterlimit="10" stroke-linecap="round"/>
<path d="M12.29 216.343H60.7691" stroke="black" stroke-width="1.70385" stroke-miterlimit="10" stroke-linecap="round"/>
<path d="M98.5537 358.688C91.9911 353.98 85.7781 348.762 79.9678 343.077L187.358 222.353L187.428 387.396" stroke="black" stroke-width="1.70385" stroke-miterlimit="10" stroke-linecap="square"/>
<path d="M98.5537 358.688C124.69 377.439 155.662 387.452 187.368 387.402" stroke="black" stroke-width="1.70385" stroke-miterlimit="10" stroke-linecap="round"/>
<path d="M163.298 342.19C175.427 369.686 187.336 387.385 187.336 387.385" stroke="black" stroke-width="1.70385" stroke-miterlimit="10" stroke-linecap="round"/>
<path d="M142.257 279.214C141.886 277.575 141.532 275.92 141.183 274.259" stroke="black" stroke-width="1.70385" stroke-miterlimit="10" stroke-linecap="round"/>
<path d="M142.257 279.214C147.671 303.135 155.616 324.723 163.298 342.191" stroke="black" stroke-width="1.70385" stroke-miterlimit="10" stroke-linecap="round"/>
<path d="M187.368 340.688C179.325 340.73 171.289 341.232 163.298 342.191" stroke="black" stroke-width="1.70385" stroke-miterlimit="10" stroke-linecap="round"/>
<path d="M98.5537 358.689C110.833 353.958 123.393 350.063 136.155 347.028" stroke="black" stroke-width="1.70385" stroke-miterlimit="10" stroke-linecap="round"/>
<path d="M136.139 347.027C145.102 344.905 154.168 343.29 163.298 342.19" stroke="black" stroke-width="1.70385" stroke-miterlimit="10" stroke-linecap="round"/>
<path d="M187.368 277.361C171.833 277.401 156.664 278.096 142.246 279.213" stroke="black" stroke-width="1.70385" stroke-miterlimit="10" stroke-linecap="round"/>
<path d="M136.343 279.702C138.298 279.534 140.268 279.371 142.252 279.214" stroke="black" stroke-width="1.70385" stroke-miterlimit="10" stroke-linecap="round"/>
<path d="M107.433 312.192C115.888 324.755 125.501 336.423 136.133 347.028" stroke="black" stroke-width="1.70385" stroke-miterlimit="10" stroke-linecap="round"/>
<path d="M187.368 387.402C187.368 387.402 162.234 373.262 136.139 347" stroke="black" stroke-width="1.70385" stroke-miterlimit="10" stroke-linecap="round"/>
<path d="M184.425 21.5986H185.429V184.948L141.017 28.2538C155.093 23.9333 169.679 21.6931 184.35 21.5986H184.425Z" stroke="black" stroke-width="1.70385" stroke-miterlimit="10" stroke-linecap="square"/>
<mask id="path-84-outside-1" maskUnits="userSpaceOnUse" x="-1.13086" y="96.6406" width="165" height="94" fill="black">
<rect fill="white" x="-1.13086" y="96.6406" width="165" height="94"/>
<path d="M19.8686 107.839C21.3834 105.056 22.9735 102.323 24.6387 99.6406L156.733 187.88L0.869141 167.174C3.47536 146.3 9.92735 126.15 19.8686 107.839Z"/>
</mask>
<path d="M24.6387 99.6406L25.5851 98.2238L24.1203 97.2453L23.1911 98.7419L24.6387 99.6406ZM156.733 187.88L156.508 189.569L163.773 190.535L157.679 186.464L156.733 187.88ZM0.869141 167.174L-0.821587 166.963L-1.03102 168.641L0.644758 168.863L0.869141 167.174ZM21.3652 108.653C22.8645 105.899 24.4382 103.194 26.0862 100.539L23.1911 98.7419C21.5087 101.452 19.9024 104.213 18.3721 107.024L21.3652 108.653ZM23.6922 101.057L155.786 189.297L157.679 186.464L25.5851 98.2238L23.6922 101.057ZM156.957 186.191L1.09352 165.485L0.644758 168.863L156.508 189.569L156.957 186.191ZM2.55987 167.385C5.14002 146.72 11.5272 126.775 21.3661 108.652L18.3712 107.026C8.32753 125.526 1.81071 145.88 -0.821587 166.963L2.55987 167.385Z" fill="black" mask="url(#path-84-outside-1)"/>
</g>
<defs>
<clipPath id="clip0">
<rect width="358.89" height="387.116" fill="white" transform="translate(0 0.942383)"/>
</clipPath>
</defs>
</svg>
