<svg width="650" height="748" viewBox="0 0 650 748" fill="none" xmlns="http://www.w3.org/2000/svg">
<path fill-rule="evenodd" clip-rule="evenodd" d="M357.731 121.545C355.663 121.427 353.591 121.337 351.517 121.274C357.469 133.343 362.718 145.666 367.263 158.184C371.4 157.899 375.463 157.537 379.421 157.1C387.755 156.178 395.459 154.94 402.297 153.441C389.645 140.991 374.771 130.166 357.731 121.545ZM344.389 116.056L344.389 116.056L344.389 194.76L344.389 169.867V164.958H344.389V158.958L344.389 140.062V121.166L344.389 116.056ZM363.099 158.443C359.34 148.194 355.103 138.079 350.389 128.13L350.389 158.906C354.668 158.831 358.915 158.676 363.099 158.443ZM350.389 164.907C355.381 164.821 360.334 164.628 365.201 164.331C371.278 181.832 375.974 199.699 379.284 217.768C369.753 218.209 360.097 218.469 350.389 218.545V169.867V164.907ZM350.389 224.545C360.446 224.467 370.451 224.193 380.324 223.726C383.386 242.177 385.009 260.819 385.19 279.478H350.389V224.545ZM344.389 279.478V224.569H344.389L344.389 279.478H344.389ZM344.389 283.478L344.389 423.308L344.389 405.893V399.893L344.389 393.582V341.374V335.374L344.389 290.14V283.478H344.389ZM350.389 283.478H385.206C385.182 301.099 383.87 318.725 381.268 336.207C371.078 335.743 360.759 335.472 350.389 335.396L350.389 290.14V283.478ZM389.206 283.478C389.182 301.163 387.876 318.852 385.283 336.4C399.925 337.141 414.28 338.28 428.116 339.805C433.754 340.426 439.282 341.109 444.687 341.85C451.436 323.001 454.891 303.24 455.138 283.478H389.206ZM459.139 283.478C458.896 303.424 455.456 323.37 448.736 342.42C466.777 345.025 483.383 348.296 498.046 352.145C498.676 350.735 499.287 349.316 499.878 347.888C508.336 327.467 512.689 305.581 512.689 283.478L459.139 283.478ZM512.642 279.478H459.145C458.949 258.267 455.142 237.125 447.827 217.131C463.073 214.766 477.145 211.883 489.676 208.547C491.29 208.117 492.876 207.681 494.433 207.238C496.397 211.103 498.214 215.049 499.878 219.068C507.825 238.256 512.149 258.738 512.642 279.478ZM455.144 279.478H389.19C389.011 260.753 387.394 242.045 384.345 223.525C397.558 222.827 410.513 221.784 423.017 220.405C430.136 219.62 437.069 218.73 443.786 217.742C451.126 237.52 454.947 258.464 455.144 279.478ZM350.389 341.396C360.444 341.47 370.448 341.729 380.329 342.171C377.056 361.893 372.132 381.41 365.554 400.513C361.224 400.256 356.83 400.079 352.402 399.981C351.732 399.967 351.06 399.954 350.389 399.943L350.389 393.582V341.396ZM427.459 345.769C413.547 344.236 399.098 343.095 384.352 342.361C381.101 362.104 376.215 381.648 369.69 400.783C373.765 401.074 377.775 401.437 381.69 401.869C382.43 401.95 383.164 402.034 383.895 402.12C391.363 403.002 398.375 404.128 404.77 405.471C421.615 388.324 434.154 368.604 442.51 347.61C437.595 346.947 432.574 346.332 427.459 345.769ZM352.363 405.982C356.097 406.065 359.805 406.206 363.468 406.404C359.62 416.977 355.261 427.414 350.389 437.679L350.389 425.841V405.943C351.047 405.954 351.705 405.967 352.363 405.982ZM377.35 444.233C371.243 444.829 364.925 445.257 358.495 445.512L376.35 433.838C386.67 427.09 396.003 419.604 404.36 411.518C406.949 412.075 409.423 412.667 411.77 413.292C412.318 413.437 412.857 413.585 413.387 413.733C421.342 415.959 427.305 418.456 431.199 420.959C431.373 421.071 431.539 421.18 431.7 421.289C434.112 422.912 435.132 424.171 435.559 424.955C427.096 430.409 418.141 435.106 408.794 438.978C408.458 439.117 408.122 439.255 407.785 439.392C399.951 441.247 390.914 442.761 381.033 443.85C379.814 443.985 378.586 444.112 377.35 444.233ZM374.161 430.49C383.444 424.42 391.91 417.74 399.569 410.554C394.467 409.593 388.984 408.763 383.195 408.079C382.479 407.995 381.758 407.912 381.033 407.832C376.675 407.352 372.195 406.959 367.631 406.655C363.543 418.004 358.872 429.2 353.619 440.2L351.035 445.611L374.161 430.49ZM413.313 407.493C412.027 407.151 410.706 406.818 409.352 406.496C425.96 389.127 438.335 369.269 446.595 348.175C464.507 350.719 480.959 353.918 495.456 357.67C487.315 374.249 476.489 389.397 463.395 402.492C456.345 409.543 448.699 415.936 440.556 421.606C439.42 419.779 437.55 417.985 434.969 416.256C434.797 416.141 434.621 416.026 434.443 415.912C429.851 412.96 423.253 410.262 414.988 407.951C414.437 407.796 413.879 407.644 413.313 407.493ZM488.132 202.749C475.484 206.116 461.185 209.026 445.621 211.4C437.694 191.79 426.322 173.413 411.604 157.322C419.67 155.084 426.099 152.461 430.556 149.59C433.854 147.464 436.026 145.231 437.023 142.956C446.495 149.2 455.334 156.402 463.395 164.464C474.496 175.565 483.966 188.142 491.553 201.816C490.429 202.13 489.289 202.441 488.132 202.749ZM380.08 163.063C390.059 161.96 399.233 160.404 407.201 158.466C422.067 174.324 433.548 192.533 441.545 212.005C435.332 212.903 428.93 213.717 422.36 214.441C409.747 215.832 396.664 216.879 383.314 217.57C380.027 199.478 375.366 181.585 369.337 164.051C372.982 163.781 376.57 163.451 380.08 163.063ZM408.791 151.869C408.166 152.036 407.532 152.201 406.889 152.362C395.583 140.92 382.483 130.766 367.628 122.318C385.955 124.14 403.927 128.114 421.022 134.144C422.08 134.517 423.134 134.898 424.183 135.286C426.641 136.61 429.066 137.994 431.453 139.438C431.637 139.809 431.655 140.024 431.655 140.062C431.655 140.176 431.497 141.845 427.306 144.546C423.363 147.087 417.167 149.633 408.791 151.869Z" fill="white"/>
<mask id="mask0" mask-type="alpha" maskUnits="userSpaceOnUse" x="287" y="80" width="45" height="170">
<path d="M287.489 86.7308C301.945 82.7884 316.863 80.7943 331.847 80.8014L331.767 249.113L287.489 86.7308Z" fill="#130947"/>
</mask>
<g mask="url(#mask0)">
<path fill-rule="evenodd" clip-rule="evenodd" d="M163.489 246.309H206.521C206.376 224.039 210.42 201.79 218.521 180.944C207.447 178.968 197.094 176.705 187.622 174.183C185.662 173.661 183.743 173.13 181.868 172.588C179.848 176.545 177.982 180.586 176.277 184.703C168.177 204.26 163.842 225.161 163.489 246.309ZM183.87 168.785C185.449 169.235 187.061 169.68 188.704 170.117C198.299 172.671 208.829 174.962 220.128 176.956C228.786 156.205 241.529 136.958 258.226 120.611C253.583 118.955 249.721 117.146 246.742 115.226C243.157 112.915 240.902 110.478 240.04 107.996C230.225 114.377 221.078 121.781 212.76 130.099C201.299 141.56 191.576 154.595 183.87 168.785ZM261.843 96.0158C255.649 98.8452 249.642 102.044 243.853 105.59C243.851 105.627 243.85 105.663 243.85 105.698C243.85 106.755 244.682 108.892 249.021 111.689C252.064 113.65 256.299 115.569 261.661 117.342C275.06 104.939 290.846 94.3472 308.956 86.2245C292.862 87.8623 277.041 91.1465 261.843 96.0158ZM330.618 80.8057C331.001 80.8045 331.384 80.8037 331.767 80.8031L331.767 80.8018C331.384 80.8018 331.001 80.8031 330.618 80.8057ZM163.466 249.114C163.466 271.217 167.819 293.103 176.277 313.523C176.883 314.987 177.51 316.441 178.156 317.885C190.403 314.654 204.015 311.827 218.695 309.457C211.029 290.091 207.018 269.618 206.561 249.114H163.466ZM179.952 321.764C192.133 318.58 205.693 315.792 220.337 313.455C229.701 335.463 243.873 355.92 263.005 373.204C254.085 375.598 247.002 378.432 242.153 381.548C239.194 383.449 237.103 385.434 235.91 387.458C227.65 381.734 219.9 375.268 212.76 368.128C199.261 354.628 188.173 338.946 179.952 321.764ZM239.414 389.821C240.059 388.592 241.49 386.976 244.428 385.088C248.805 382.275 255.512 379.552 264.365 377.196C265.173 376.981 265.996 376.769 266.833 376.562C272.563 381.447 278.711 386.056 285.28 390.351L319.935 413.009C311.503 412.721 303.239 412.136 295.367 411.268C289.631 410.635 284.169 409.86 279.053 408.956C275.109 407.656 271.209 406.207 267.361 404.613C257.578 400.561 248.223 395.604 239.414 389.821ZM313.81 416.464C318.327 416.819 322.892 417 327.5 417C328.926 417 330.348 416.982 331.767 416.948L331.767 417.425C325.757 417.425 319.763 417.103 313.81 416.464ZM286.815 388.003C280.948 384.167 275.423 380.076 270.236 375.759C277.717 374.077 286.19 372.699 295.367 371.687C298.456 371.347 301.605 371.05 304.801 370.797L324.916 412.914L286.815 388.003ZM294.906 367.505C284.359 368.668 274.672 370.314 266.279 372.365C246.949 355.274 232.641 334.934 223.201 313.006C231.465 311.733 240.063 310.602 248.941 309.623C259.133 308.5 269.611 307.587 280.282 306.89C284.418 323.835 290.315 340.466 297.976 356.508L302.86 366.734C300.172 366.959 297.518 367.217 294.906 367.505ZM307.803 370.574L328 412.862L328 369.762C321.166 369.841 314.395 370.114 307.803 370.574ZM300.508 355.299L305.855 366.496C313.068 365.957 320.499 365.64 328 365.554V305.229C312.857 305.307 297.818 305.805 283.126 306.709C287.211 323.302 293.003 339.586 300.508 355.299ZM275.805 249.114C276.012 267.04 278.122 284.957 282.14 302.555C297.152 301.616 312.524 301.1 328 301.021L328.701 301.018L328.701 249.114H275.805ZM272.983 246.309C272.974 226.844 275.183 207.389 279.603 188.332C271.003 187.717 262.543 186.952 254.28 186.041C242.773 184.772 231.751 183.23 221.342 181.438C213.229 202.111 209.18 224.199 209.326 246.309H272.983ZM273 249.114C273.205 267.099 275.305 285.076 279.305 302.737C268.816 303.433 258.512 304.335 248.48 305.441C239.183 306.465 230.183 307.657 221.54 309.005C213.852 289.8 209.829 269.473 209.367 249.114H273ZM275.788 246.309H328.701L328.701 190.193C313.065 190.108 297.544 189.548 282.437 188.529C277.998 207.517 275.779 226.908 275.788 246.309ZM266.959 123.303C264.947 122.766 263.032 122.205 261.218 121.623C244.452 137.76 231.657 156.841 222.966 177.447C233.013 179.157 243.643 180.635 254.741 181.859C263.173 182.788 271.813 183.565 280.602 184.184C285.32 165.279 292.228 146.797 301.317 129.123C299.939 128.99 298.572 128.849 297.217 128.699C285.902 127.448 275.62 125.614 266.959 123.303ZM268.044 119.237C266.912 118.935 265.817 118.627 264.76 118.313C278.904 105.47 295.693 94.6586 315.053 86.6513L317.865 85.488C320.05 85.349 322.238 85.2402 324.43 85.1618L303.424 125.093C301.488 124.918 299.572 124.726 297.68 124.517C286.521 123.283 276.455 121.482 268.044 119.237ZM328.701 85.0474C328.35 85.0536 327.999 85.0607 327.648 85.0684L306.458 125.351C313.676 125.929 321.147 126.269 328.701 126.361L328.701 85.0474ZM328.701 130.569C320.414 130.469 312.219 130.075 304.332 129.397C295.164 147.032 288.199 165.49 283.445 184.379C298.226 185.361 313.406 185.902 328.701 185.986L328.701 130.569Z" fill="white"/>
</g>
<mask id="mask1" mask-type="alpha" maskUnits="userSpaceOnUse" x="162" y="66" width="143" height="162">
<path d="M162.862 136.333C184.599 102.531 217.712 77.6228 256.214 66.1124L304.417 227.373L162.862 136.333Z" fill="#130947"/>
</mask>
<g mask="url(#mask1)">
<path fill-rule="evenodd" clip-rule="evenodd" d="M304.417 59.0615C304.036 59.0615 303.655 59.0628 303.274 59.0654C303.655 59.0643 304.036 59.0634 304.417 59.0629L304.417 59.0615ZM240.011 71.8735C260.078 63.5608 281.562 59.2128 303.274 59.0654C303.272 59.0654 303.27 59.0654 303.267 59.0654C281.557 59.2138 260.076 63.5617 240.011 71.8735ZM234.494 74.2755C249.692 69.4062 265.512 66.122 281.606 64.4842C263.496 72.607 247.71 83.1986 234.311 95.6017C228.949 93.829 224.714 91.9095 221.671 89.9484C217.332 87.152 216.5 85.0145 216.5 83.9581C216.5 83.9232 216.501 83.8872 216.503 83.8499C222.292 80.3033 228.3 77.1049 234.494 74.2755ZM212.691 86.2561C213.553 88.7376 215.807 91.175 219.392 93.4855C222.372 95.4056 226.233 97.2142 230.877 98.8711C214.18 115.218 201.437 134.465 192.779 155.215C181.48 153.222 170.949 150.931 161.355 148.377C159.711 147.939 158.1 147.495 156.521 147.045C164.227 132.855 173.95 119.82 185.411 108.359C193.729 100.04 202.875 92.6371 212.691 86.2561ZM154.518 150.848C156.394 151.389 158.312 151.921 160.272 152.443C169.745 154.965 180.097 157.228 191.172 159.204C183.07 180.05 179.027 202.298 179.171 224.569H136.14C136.492 203.421 140.828 182.519 148.928 162.963C149.034 162.706 149.141 162.449 149.249 162.192C150.867 158.341 152.624 154.557 154.518 150.848ZM212.064 368.081C212.71 366.852 214.141 365.235 217.078 363.347C221.455 360.535 228.163 357.812 237.016 355.456C237.824 355.24 238.646 355.029 239.483 354.822C245.214 359.706 251.362 364.316 257.93 368.61L292.586 391.269C284.153 390.98 275.89 390.396 268.017 389.528C262.281 388.895 256.82 388.12 251.704 387.216C247.76 385.915 243.859 384.467 240.011 382.873C230.228 378.82 220.874 373.864 212.064 368.081ZM208.561 365.718C209.753 363.693 211.845 361.709 214.804 359.807C219.652 356.692 226.735 353.858 235.656 351.464C216.523 334.179 202.351 313.723 192.987 291.715C178.343 294.051 164.783 296.84 152.602 300.023C160.823 317.206 171.912 332.888 185.41 346.388C192.55 353.528 200.301 359.994 208.561 365.718ZM145.949 284.059C139.449 265.888 136.116 246.714 136.116 227.374H179.211C179.668 247.878 183.679 268.351 191.346 287.717C176.666 290.087 163.053 292.914 150.806 296.145C150.16 294.701 149.534 293.247 148.928 291.783C147.87 289.231 146.877 286.655 145.949 284.059ZM259.465 366.262C253.599 362.427 248.073 358.336 242.886 354.019C250.367 352.337 258.84 350.959 268.017 349.947C271.106 349.606 274.255 349.309 277.451 349.057L297.567 391.174L259.465 366.262ZM267.556 345.764C257.009 346.927 247.322 348.573 238.929 350.625C219.599 333.534 205.292 313.193 195.851 291.266C204.116 289.992 212.713 288.861 221.591 287.883C231.784 286.76 242.262 285.847 252.932 285.15C257.069 302.095 262.965 318.726 270.627 334.768L275.511 344.993C272.823 345.219 270.169 345.476 267.556 345.764ZM280.453 348.834L300.65 391.122L300.65 348.022C293.816 348.101 287.045 348.374 280.453 348.834ZM273.158 333.559L278.506 344.756C285.719 344.216 293.149 343.9 300.65 343.814V283.488C285.507 283.566 270.468 284.064 255.776 284.969C259.861 301.561 265.653 317.846 273.158 333.559ZM248.455 227.374C248.662 245.3 250.772 263.217 254.791 280.814C269.802 279.876 285.174 279.36 300.65 279.281L301.352 279.277L301.352 227.374H248.455ZM245.633 224.569C245.624 205.104 247.833 185.648 252.254 166.592C243.653 165.977 235.193 165.212 226.93 164.301C215.423 163.032 204.402 161.49 193.992 159.698C185.879 180.37 181.83 202.459 181.976 224.569H245.633ZM245.65 227.374C245.856 245.359 247.955 263.336 251.955 280.997C241.467 281.692 231.162 282.595 221.13 283.701C211.833 284.725 202.833 285.917 194.19 287.265C186.503 268.059 182.479 247.733 182.017 227.374H245.65ZM248.438 224.569H301.352L301.352 168.453C285.715 168.368 270.195 167.808 255.088 166.789C250.648 185.776 248.429 205.168 248.438 224.569ZM239.61 101.562C237.598 101.025 235.682 100.465 233.869 99.883C217.102 116.02 204.307 135.101 195.617 155.707C205.663 157.417 216.293 158.894 227.392 160.118C235.823 161.048 244.463 161.824 253.252 162.444C257.97 143.539 264.878 125.057 273.967 107.382C272.59 107.25 271.223 107.109 269.868 106.959C258.552 105.708 248.27 103.874 239.61 101.562ZM240.695 97.4969C239.563 97.1947 238.468 96.8863 237.41 96.5724C251.555 83.7301 268.343 72.9183 287.703 64.9111L290.516 63.7478C292.7 63.6088 294.889 63.4999 297.08 63.4215L276.074 103.353C274.138 103.178 272.222 102.986 270.33 102.777C259.171 101.543 249.105 99.7419 240.695 97.4969ZM301.352 63.3072C301.001 63.3134 300.65 63.3204 300.299 63.3282L279.108 103.611C286.326 104.189 293.798 104.529 301.352 104.621L301.352 63.3072ZM301.352 108.829C293.065 108.729 284.87 108.334 276.983 107.657C267.814 125.292 260.849 143.75 256.095 162.639C270.876 163.621 286.056 164.161 301.352 164.245L301.352 108.829Z" fill="white"/>
</g>
<mask id="mask2" mask-type="alpha" maskUnits="userSpaceOnUse" x="132" y="165" width="168" height="92">
<path d="M132.69 234.539C135.976 209.94 144.661 186.371 158.124 165.522L299.508 256.827L132.69 234.539Z" fill="#130947"/>
</mask>
<g mask="url(#mask2)">
<path fill-rule="evenodd" clip-rule="evenodd" d="M299.508 88.5156C299.127 88.5156 298.746 88.5169 298.365 88.5195C298.746 88.5184 299.127 88.5175 299.508 88.517L299.508 88.5156ZM235.102 101.328C255.169 93.0149 276.652 88.6669 298.365 88.5195C298.363 88.5195 298.36 88.5195 298.358 88.5195C276.647 88.6679 255.167 93.0158 235.102 101.328ZM229.584 103.73C244.783 98.8603 260.603 95.5761 276.697 93.9383C258.587 102.061 242.801 112.653 229.402 125.056C224.04 123.283 219.805 121.364 216.762 119.403C212.423 116.606 211.591 114.469 211.591 113.412C211.591 113.377 211.592 113.341 211.594 113.304C217.383 109.757 223.39 106.559 229.584 103.73ZM207.782 115.71C208.643 118.192 210.898 120.629 214.483 122.94C217.463 124.86 221.324 126.668 225.967 128.325C209.27 144.672 196.527 163.919 187.869 184.669C176.57 182.676 166.04 180.385 156.445 177.831C154.802 177.393 153.191 176.949 151.612 176.499C159.318 162.309 169.041 149.274 180.501 137.813C188.819 129.494 197.966 122.091 207.782 115.71ZM149.609 180.302C151.485 180.843 153.403 181.375 155.363 181.897C164.835 184.419 175.188 186.682 186.263 188.658C178.161 209.504 174.118 231.753 174.262 254.023H131.231C131.583 232.875 135.918 211.974 144.018 192.417C144.125 192.16 144.232 191.903 144.34 191.646C145.957 187.795 147.715 184.011 149.609 180.302ZM207.155 397.535C207.801 396.306 209.231 394.689 212.169 392.801C216.546 389.989 223.254 387.266 232.106 384.91C232.915 384.695 233.737 384.483 234.574 384.276C240.305 389.16 246.453 393.77 253.021 398.064L287.677 420.723C279.244 420.435 270.98 419.85 263.108 418.982C257.372 418.349 251.91 417.574 246.794 416.67C242.85 415.369 238.95 413.921 235.102 412.327C225.319 408.275 215.965 403.318 207.155 397.535ZM203.651 395.172C204.844 393.148 206.935 391.163 209.894 389.262C214.743 386.146 221.826 383.312 230.746 380.918C211.614 363.634 197.442 343.177 188.078 321.169C173.434 323.505 159.874 326.294 147.693 329.477C155.914 346.66 167.002 362.342 180.501 375.842C187.641 382.982 195.392 389.448 203.651 395.172ZM141.04 313.513C134.54 295.342 131.207 276.168 131.207 256.828H174.302C174.759 277.332 178.77 297.805 186.436 317.171C171.757 319.541 158.144 322.368 145.897 325.599C145.251 324.155 144.624 322.701 144.018 321.237C142.961 318.685 141.968 316.109 141.04 313.513ZM254.556 395.716C248.689 391.881 243.164 387.79 237.977 383.473C245.458 381.791 253.931 380.413 263.108 379.401C266.197 379.06 269.346 378.763 272.542 378.511L292.657 420.628L254.556 395.716ZM262.647 375.219C252.1 376.382 242.413 378.028 234.02 380.079C214.69 362.988 200.383 342.647 190.942 320.72C199.207 319.446 207.804 318.316 216.682 317.337C226.874 316.214 237.353 315.301 248.023 314.604C252.16 331.549 258.056 348.18 265.718 364.222L270.601 374.447C267.914 374.673 265.26 374.931 262.647 375.219ZM275.544 378.288L295.741 420.576L295.741 377.476C288.907 377.555 282.136 377.828 275.544 378.288ZM268.249 363.013L273.596 374.21C280.809 373.671 288.24 373.354 295.741 373.268V312.943C280.598 313.02 265.559 313.518 250.867 314.423C254.952 331.015 260.744 347.3 268.249 363.013ZM243.546 256.828C243.753 274.754 245.863 292.671 249.881 310.268C264.893 309.33 280.265 308.814 295.741 308.735L296.443 308.731L296.442 256.828H243.546ZM240.724 254.023C240.715 234.558 242.924 215.102 247.344 196.046C238.744 195.431 230.284 194.666 222.021 193.755C210.514 192.486 199.492 190.944 189.083 189.152C180.97 209.824 176.921 231.913 177.067 254.023H240.724ZM240.741 256.828C240.946 274.813 243.046 292.79 247.046 310.451C236.557 311.146 226.253 312.049 216.221 313.155C206.924 314.179 197.924 315.371 189.281 316.719C181.593 297.514 177.57 277.187 177.108 256.828H240.741ZM243.529 254.023H296.442L296.443 197.907C280.806 197.822 265.286 197.262 250.179 196.243C245.739 215.231 243.52 234.622 243.529 254.023ZM234.701 131.016C232.689 130.479 230.773 129.919 228.959 129.337C212.193 145.474 199.398 164.555 190.708 185.161C200.754 186.871 211.384 188.348 222.482 189.572C230.914 190.502 239.554 191.279 248.343 191.898C253.061 172.993 259.969 154.511 269.058 136.837C267.68 136.704 266.314 136.563 264.958 136.413C253.643 135.162 243.361 133.328 234.701 131.016ZM235.786 126.951C234.654 126.649 233.559 126.34 232.501 126.026C246.646 113.184 263.434 102.372 282.794 94.3652L285.607 93.2019C287.791 93.0629 289.98 92.954 292.171 92.8756L271.165 132.807C269.229 132.632 267.313 132.44 265.421 132.231C254.262 130.997 244.196 129.196 235.786 126.951ZM296.442 92.7613C296.091 92.7675 295.74 92.7745 295.389 92.7823L274.199 133.065C281.417 133.643 288.888 133.983 296.443 134.075L296.442 92.7613ZM296.443 138.283C288.156 138.183 279.961 137.789 272.074 137.111C262.905 154.746 255.94 173.204 251.186 192.093C265.967 193.075 281.147 193.616 296.443 193.699L296.443 138.283Z" fill="white"/>
</g>
<mask id="mask3" mask-type="alpha" maskUnits="userSpaceOnUse" x="144" y="265" width="169" height="149">
<path d="M201.732 413.411C181.067 395.249 165.169 372.298 155.43 346.567C145.691 320.836 142.408 293.11 145.868 265.815L312.832 286.983L201.732 413.411Z" fill="#130947"/>
</mask>
<g mask="url(#mask3)">
<path fill-rule="evenodd" clip-rule="evenodd" d="M312.832 118.672C312.451 118.672 312.07 118.673 311.689 118.676C312.07 118.675 312.451 118.674 312.832 118.673L312.832 118.672ZM248.426 131.484C268.493 123.171 289.977 118.823 311.689 118.676C311.687 118.676 311.685 118.676 311.682 118.676C289.972 118.824 268.491 123.172 248.426 131.484ZM242.909 133.886C258.107 129.017 273.927 125.732 290.021 124.095C271.911 132.217 256.126 142.809 242.726 155.212C237.365 153.439 233.129 151.52 230.086 149.559C225.747 146.762 224.915 144.625 224.915 143.568C224.915 143.534 224.916 143.498 224.918 143.46C230.707 139.914 236.715 136.715 242.909 133.886ZM221.106 145.866C221.968 148.348 224.222 150.785 227.807 153.096C230.787 155.016 234.649 156.825 239.292 158.481C222.595 174.828 209.852 194.075 201.194 214.826C189.895 212.832 179.364 210.541 169.77 207.987C168.126 207.55 166.515 207.106 164.936 206.655C172.642 192.465 182.365 179.431 193.826 167.969C202.144 159.651 211.29 152.247 221.106 145.866ZM162.933 210.458C164.809 211 166.727 211.532 168.687 212.053C178.16 214.575 188.512 216.838 199.587 218.814C191.485 239.661 187.442 261.909 187.586 284.179H144.555C144.907 263.031 149.243 242.13 157.343 222.573C157.449 222.316 157.556 222.059 157.664 221.802C159.282 217.951 161.039 214.168 162.933 210.458ZM220.479 427.691C221.125 426.462 222.556 424.846 225.493 422.958C229.87 420.145 236.578 417.423 245.431 415.066C246.239 414.851 247.061 414.64 247.898 414.432C253.629 419.317 259.777 423.926 266.345 428.221L301.001 450.879C292.568 450.591 284.305 450.006 276.432 449.138C270.696 448.506 265.235 447.73 260.119 446.827C256.175 445.526 252.274 444.077 248.426 442.483C238.643 438.431 229.289 433.474 220.479 427.691ZM216.976 425.328C218.168 423.304 220.26 421.32 223.219 419.418C228.067 416.302 235.15 413.468 244.071 411.074C224.938 393.79 210.766 373.333 201.402 351.325C186.758 353.662 173.198 356.45 161.017 359.634C169.239 376.816 180.327 392.498 193.826 405.998C200.965 413.138 208.716 419.604 216.976 425.328ZM154.364 343.67C147.864 325.498 144.532 306.324 144.531 286.984H187.626C188.083 307.488 192.094 327.961 199.761 347.327C185.081 349.697 171.468 352.524 159.221 355.755C158.575 354.311 157.949 352.857 157.343 351.394C156.285 348.841 155.292 346.266 154.364 343.67ZM267.88 425.873C262.014 422.037 256.488 417.946 251.301 413.629C258.782 411.947 267.255 410.569 276.432 409.557C279.521 409.217 282.67 408.92 285.866 408.667L305.982 450.784L267.88 425.873ZM275.971 405.375C265.424 406.538 255.737 408.184 247.344 410.235C228.014 393.144 213.707 372.804 204.267 350.876C212.531 349.603 221.128 348.472 230.006 347.493C240.199 346.37 250.677 345.457 261.347 344.76C265.484 361.705 271.38 378.336 279.042 394.378L283.926 404.604C281.238 404.83 278.584 405.087 275.971 405.375ZM288.868 408.444L309.065 450.732L309.065 407.632C302.231 407.711 295.46 407.984 288.868 408.444ZM281.573 393.169L286.921 404.366C294.134 403.827 301.564 403.51 309.065 403.424V343.099C293.922 343.177 278.883 343.675 264.191 344.579C268.276 361.172 274.068 377.456 281.573 393.169ZM256.87 286.984C257.077 304.91 259.187 322.827 263.206 340.425C278.218 339.486 293.589 338.97 309.065 338.891L309.767 338.888L309.767 286.984H256.87ZM254.048 284.179C254.039 264.714 256.248 245.259 260.669 226.202C252.068 225.587 243.608 224.822 235.346 223.911C223.838 222.642 212.817 221.1 202.407 219.308C194.294 239.981 190.245 262.069 190.391 284.179H254.048ZM254.065 286.984C254.271 304.969 256.37 322.946 260.37 340.607C249.882 341.303 239.577 342.205 229.545 343.311C220.248 344.336 211.248 345.527 202.605 346.876C194.918 327.67 190.894 307.343 190.432 286.984H254.065ZM256.853 284.179H309.767L309.767 228.063C294.131 227.978 278.61 227.418 263.503 226.399C259.063 245.387 256.844 264.778 256.853 284.179ZM248.025 161.173C246.013 160.636 244.097 160.075 242.284 159.493C225.517 175.63 212.722 194.711 204.032 215.317C214.078 217.027 224.708 218.505 235.807 219.729C244.238 220.658 252.878 221.435 261.667 222.055C266.385 203.15 273.293 184.668 282.382 166.993C281.005 166.86 279.638 166.719 278.283 166.569C266.967 165.318 256.685 163.484 248.025 161.173ZM249.11 157.107C247.978 156.805 246.883 156.497 245.825 156.183C259.97 143.34 276.758 132.529 296.118 124.521L298.931 123.358C301.115 123.219 303.304 123.11 305.495 123.032L284.489 162.963C282.553 162.788 280.637 162.596 278.745 162.387C267.586 161.153 257.52 159.352 249.11 157.107ZM309.767 122.918C309.416 122.924 309.065 122.931 308.714 122.939L287.523 163.221C294.741 163.799 302.213 164.139 309.767 164.231L309.767 122.918ZM309.767 168.439C301.48 168.339 293.285 167.945 285.398 167.267C276.229 184.902 269.264 203.36 264.51 222.249C279.291 223.231 294.471 223.772 309.767 223.856L309.767 168.439Z" fill="white"/>
</g>
<mask id="mask4" mask-type="alpha" maskUnits="userSpaceOnUse" x="222" y="296" width="114" height="169">
<path d="M335.272 464.412C293.598 464.412 253.406 448.949 222.476 421.017L335.272 296.1L335.272 464.412Z" fill="#130947"/>
</mask>
<g mask="url(#mask4)">
<path fill-rule="evenodd" clip-rule="evenodd" d="M335.272 127.79C334.89 127.791 334.508 127.791 334.126 127.793C312.414 127.941 290.933 132.289 270.867 140.601C269.012 141.369 267.172 142.17 265.349 143.003C280.547 138.133 296.368 134.849 312.461 133.211C294.352 141.334 278.566 151.926 265.166 164.329C259.805 162.556 255.57 160.637 252.527 158.676C248.187 155.879 247.356 153.742 247.356 152.685C247.356 152.65 247.357 152.614 247.358 152.577C246.077 153.362 244.806 154.164 243.546 154.983C244.408 157.465 246.662 159.902 250.248 162.213C253.227 164.133 257.089 165.941 261.732 167.598C245.035 183.945 232.292 203.192 223.634 223.942C212.335 221.949 201.804 219.658 192.21 217.104C190.567 216.666 188.955 216.222 187.376 215.772C186.693 217.031 186.025 218.298 185.373 219.575C187.249 220.116 189.168 220.648 191.128 221.17C200.6 223.692 210.953 225.955 222.027 227.931C213.926 248.777 209.882 271.026 210.026 293.296H166.995C166.98 294.23 166.972 295.165 166.972 296.1C166.972 296.101 166.972 296.101 166.972 296.101H210.067C210.523 316.605 214.535 337.078 222.201 356.444C207.521 358.814 193.909 361.641 181.662 364.872C182.244 366.173 182.843 367.466 183.458 368.751C195.639 365.567 209.199 362.779 223.843 360.442C229.333 373.347 236.477 385.719 245.305 397.23L247.216 395.103C238.83 384.095 232.003 372.294 226.707 359.993C234.971 358.72 243.568 357.589 252.447 356.61C262.639 355.487 273.117 354.574 283.788 353.877C283.821 354.014 283.855 354.151 283.889 354.288L288.299 349.38C287.413 349.433 286.529 349.486 285.646 349.542C281.628 331.944 279.518 314.027 279.311 296.101H332.207L332.207 300.512L335.272 297.1L335.272 296.1L335.272 127.79ZM282.559 455.943C287.675 456.847 293.136 457.622 298.873 458.255C306.745 459.123 315.008 459.708 323.441 459.996L288.786 437.337C282.217 433.043 276.069 428.434 270.339 423.549C269.502 423.756 268.679 423.968 267.871 424.183C259.018 426.539 252.31 429.262 247.934 432.075C244.996 433.962 243.565 435.579 242.92 436.808C251.729 442.591 261.084 447.548 270.867 451.6C274.715 453.194 278.615 454.643 282.559 455.943ZM239.416 434.445C240.608 432.421 242.7 430.436 245.659 428.535C250.507 425.419 257.591 422.585 266.511 420.191C258.598 413.042 251.533 405.35 245.305 397.23L223.283 421.741C228.403 426.305 233.791 430.547 239.416 434.445ZM332.207 300.512L332.207 348.004L331.506 348.008C316.94 348.082 302.467 348.544 288.299 349.38L332.207 300.512ZM283.889 354.288L247.216 395.103C253.78 403.719 261.298 411.849 269.785 419.352C278.177 417.301 287.865 415.655 298.412 414.492C301.024 414.204 303.678 413.946 306.366 413.721L301.482 403.495C293.883 387.583 288.02 371.092 283.889 354.288ZM290.321 434.99C284.454 431.154 278.929 427.063 273.741 422.746C281.223 421.064 289.696 419.686 298.873 418.674C301.962 418.334 305.111 418.037 308.307 417.784L328.422 459.901L290.321 434.99ZM311.309 417.561L331.506 459.849L331.506 416.749C324.672 416.828 317.901 417.101 311.309 417.561ZM304.013 402.286L309.361 413.483C316.574 412.944 324.005 412.627 331.506 412.541V352.216C316.362 352.294 301.324 352.792 286.632 353.696C290.716 370.289 296.509 386.573 304.013 402.286ZM276.489 293.296C276.48 273.831 278.689 254.376 283.109 235.319C274.508 234.704 266.049 233.939 257.786 233.028C246.279 231.759 235.257 230.217 224.848 228.425C216.735 249.097 212.686 271.186 212.832 293.296H276.489ZM276.506 296.101C276.711 314.086 278.811 332.063 282.811 349.724C272.322 350.42 262.018 351.322 251.986 352.428C242.688 353.452 233.689 354.644 225.046 355.992C217.358 336.787 213.334 316.46 212.873 296.101H276.506ZM279.294 293.296H332.207L332.207 237.18C316.571 237.095 301.05 236.535 285.943 235.516C281.504 254.504 279.285 273.895 279.294 293.296ZM270.465 170.29C268.453 169.752 266.538 169.192 264.724 168.61C247.957 184.747 235.162 203.828 226.472 224.434C236.519 226.144 247.148 227.622 258.247 228.845C266.679 229.775 275.319 230.552 284.107 231.171C288.826 212.266 295.733 193.784 304.822 176.11C303.445 175.977 302.078 175.836 300.723 175.686C289.407 174.435 279.126 172.601 270.465 170.29ZM271.55 166.224C270.418 165.922 269.323 165.613 268.266 165.3C282.41 152.457 299.199 141.645 318.559 133.638L321.371 132.475C323.556 132.336 325.744 132.227 327.936 132.149L306.93 172.08C304.994 171.905 303.078 171.713 301.185 171.504C290.027 170.27 279.961 168.469 271.55 166.224ZM332.207 132.034C331.856 132.041 331.505 132.048 331.154 132.055L309.963 172.338C317.182 172.916 324.653 173.256 332.207 173.348L332.207 132.034ZM332.207 177.556C323.92 177.456 315.725 177.062 307.838 176.384C298.67 194.019 291.705 212.477 286.951 231.366C301.732 232.348 316.912 232.889 332.207 232.972L332.207 177.556Z" fill="white"/>
</g>
<path d="M152.695 493.33V604H236.705V583.54H177.03V556.415H230.66V537.505H177.03V513.79H235.465V493.33H152.695ZM267.153 493.33V604H289.938V529.91H290.248L336.283 604H360.618V493.33H337.833V567.575H337.523L291.333 493.33H267.153ZM420.326 583.54V513.79H437.686C443.679 513.79 448.691 514.668 452.721 516.425C456.854 518.078 460.161 520.507 462.641 523.71C465.121 526.913 466.877 530.788 467.911 535.335C469.047 539.778 469.616 544.79 469.616 550.37C469.616 556.467 468.841 561.633 467.291 565.87C465.741 570.107 463.674 573.568 461.091 576.255C458.507 578.838 455.562 580.698 452.256 581.835C448.949 582.972 445.539 583.54 442.026 583.54H420.326ZM395.991 493.33V604H443.731C452.204 604 459.541 602.605 465.741 599.815C472.044 596.922 477.262 592.995 481.396 588.035C485.632 583.075 488.784 577.185 490.851 570.365C492.917 563.545 493.951 556.105 493.951 548.045C493.951 538.848 492.659 530.84 490.076 524.02C487.596 517.2 484.082 511.517 479.536 506.97C475.092 502.423 469.771 499.013 463.571 496.74C457.474 494.467 450.861 493.33 443.731 493.33H395.991Z" fill="white"/>
<path d="M150.957 632.444H167.967C170.703 632.444 172.935 632.84 174.663 633.632C176.391 634.424 177.723 635.414 178.659 636.602C179.595 637.79 180.225 639.086 180.549 640.49C180.909 641.894 181.089 643.19 181.089 644.378C181.089 645.566 180.909 646.862 180.549 648.266C180.225 649.634 179.595 650.912 178.659 652.1C177.723 653.288 176.391 654.278 174.663 655.07C172.935 655.826 170.703 656.204 167.967 656.204H157.707V671H150.957V632.444ZM157.707 650.696H167.589C168.345 650.696 169.119 650.588 169.911 650.372C170.703 650.156 171.423 649.814 172.071 649.346C172.755 648.842 173.295 648.194 173.691 647.402C174.123 646.574 174.339 645.548 174.339 644.324C174.339 643.064 174.159 642.02 173.799 641.192C173.439 640.364 172.953 639.716 172.341 639.248C171.729 638.744 171.027 638.402 170.235 638.222C169.443 638.042 168.597 637.952 167.697 637.952H157.707V650.696ZM197.33 632.444H204.512L219.362 671H212.126L208.508 660.794H193.118L189.5 671H182.534L197.33 632.444ZM194.954 655.664H206.726L200.948 639.086H200.786L194.954 655.664ZM226.814 632.444H233.942L251.546 660.848H251.654V632.444H258.08V671H250.952L233.402 642.65H233.24V671H226.814V632.444ZM270.105 632.444H286.089C289.041 632.444 291.597 632.948 293.757 633.956C295.917 634.964 297.681 636.35 299.049 638.114C300.417 639.842 301.425 641.876 302.073 644.216C302.757 646.556 303.099 649.058 303.099 651.722C303.099 654.386 302.757 656.888 302.073 659.228C301.425 661.568 300.417 663.62 299.049 665.384C297.681 667.112 295.917 668.48 293.757 669.488C291.597 670.496 289.041 671 286.089 671H270.105V632.444ZM276.855 665.492H283.497C286.125 665.492 288.267 665.15 289.923 664.466C291.615 663.746 292.929 662.774 293.865 661.55C294.837 660.29 295.485 658.832 295.809 657.176C296.169 655.484 296.349 653.666 296.349 651.722C296.349 649.778 296.169 647.978 295.809 646.322C295.485 644.63 294.837 643.172 293.865 641.948C292.929 640.688 291.615 639.716 289.923 639.032C288.267 638.312 286.125 637.952 283.497 637.952H276.855V665.492ZM313.125 632.444H340.881V638.276H319.875V648.374H339.315V653.882H319.875V665.168H341.259V671H313.125V632.444ZM351.081 632.444H360.585L371.223 662.63H371.331L381.699 632.444H391.095V671H384.669V641.246H384.561L373.869 671H368.307L357.615 641.246H357.507V671H351.081V632.444ZM403.227 632.444H409.977V671H403.227V632.444ZM448.335 644.702C448.047 643.586 447.651 642.56 447.147 641.624C446.643 640.688 445.995 639.878 445.203 639.194C444.411 638.51 443.475 637.988 442.395 637.628C441.351 637.232 440.127 637.034 438.723 637.034C436.671 637.034 434.889 637.448 433.377 638.276C431.901 639.104 430.695 640.22 429.759 641.624C428.823 642.992 428.121 644.558 427.653 646.322C427.221 648.086 427.005 649.886 427.005 651.722C427.005 653.558 427.221 655.358 427.653 657.122C428.121 658.886 428.823 660.47 429.759 661.874C430.695 663.242 431.901 664.34 433.377 665.168C434.889 665.996 436.671 666.41 438.723 666.41C440.235 666.41 441.567 666.158 442.719 665.654C443.871 665.114 444.861 664.394 445.689 663.494C446.517 662.558 447.165 661.478 447.633 660.254C448.101 659.03 448.407 657.716 448.551 656.312H455.139C454.995 658.616 454.491 660.722 453.627 662.63C452.799 664.538 451.665 666.194 450.225 667.598C448.785 668.966 447.093 670.028 445.149 670.784C443.205 671.54 441.063 671.918 438.723 671.918C435.843 671.918 433.251 671.396 430.947 670.352C428.679 669.272 426.753 667.814 425.169 665.978C423.585 664.142 422.361 662 421.497 659.552C420.669 657.104 420.255 654.494 420.255 651.722C420.255 648.986 420.669 646.394 421.497 643.946C422.361 641.498 423.585 639.356 425.169 637.52C426.753 635.684 428.679 634.226 430.947 633.146C433.251 632.066 435.843 631.526 438.723 631.526C440.883 631.526 442.917 631.832 444.825 632.444C446.733 633.02 448.407 633.884 449.847 635.036C451.323 636.152 452.511 637.52 453.411 639.14C454.311 640.76 454.869 642.614 455.085 644.702H448.335ZM469.755 658.148C469.755 659.624 470.007 660.884 470.511 661.928C471.015 662.972 471.717 663.836 472.617 664.52C473.517 665.168 474.543 665.654 475.695 665.978C476.883 666.266 478.161 666.41 479.529 666.41C481.005 666.41 482.265 666.248 483.309 665.924C484.353 665.564 485.199 665.114 485.847 664.574C486.495 664.034 486.963 663.422 487.251 662.738C487.539 662.018 487.683 661.298 487.683 660.578C487.683 659.102 487.341 658.022 486.657 657.338C486.009 656.618 485.289 656.114 484.497 655.826C483.129 655.322 481.527 654.854 479.691 654.422C477.891 653.954 475.659 653.36 472.995 652.64C471.339 652.208 469.953 651.65 468.837 650.966C467.757 650.246 466.893 649.454 466.245 648.59C465.597 647.726 465.129 646.808 464.841 645.836C464.589 644.864 464.463 643.874 464.463 642.866C464.463 640.922 464.859 639.248 465.651 637.844C466.479 636.404 467.559 635.216 468.891 634.28C470.223 633.344 471.735 632.66 473.427 632.228C475.119 631.76 476.829 631.526 478.557 631.526C480.573 631.526 482.463 631.796 484.227 632.336C486.027 632.84 487.593 633.614 488.925 634.658C490.293 635.702 491.373 636.998 492.165 638.546C492.957 640.058 493.353 641.822 493.353 643.838H486.603C486.423 641.354 485.577 639.608 484.065 638.6C482.553 637.556 480.627 637.034 478.287 637.034C477.495 637.034 476.685 637.124 475.857 637.304C475.029 637.448 474.273 637.718 473.589 638.114C472.905 638.474 472.329 638.978 471.861 639.626C471.429 640.274 471.213 641.084 471.213 642.056C471.213 643.424 471.627 644.504 472.455 645.296C473.319 646.052 474.435 646.628 475.803 647.024C475.947 647.06 476.505 647.222 477.477 647.51C478.485 647.762 479.601 648.05 480.825 648.374C482.049 648.698 483.237 649.022 484.389 649.346C485.577 649.634 486.423 649.85 486.927 649.994C488.187 650.39 489.285 650.93 490.221 651.614C491.157 652.298 491.931 653.09 492.543 653.99C493.191 654.854 493.659 655.79 493.947 656.798C494.271 657.806 494.433 658.814 494.433 659.822C494.433 661.982 493.983 663.836 493.083 665.384C492.219 666.896 491.067 668.138 489.627 669.11C488.187 670.082 486.549 670.784 484.713 671.216C482.877 671.684 481.005 671.918 479.097 671.918C476.901 671.918 474.831 671.648 472.887 671.108C470.943 670.568 469.251 669.74 467.811 668.624C466.371 667.508 465.219 666.086 464.355 664.358C463.491 662.594 463.041 660.524 463.005 658.148H469.755Z" fill="white"/>
</svg>
