<svg width="1959" height="433" viewBox="0 0 1959 433" fill="none" xmlns="http://www.w3.org/2000/svg">
<g clip-path="url(#clip0)">
<path fill-rule="evenodd" clip-rule="evenodd" d="M280.732 63.4346C278.663 63.317 276.592 63.2267 274.517 63.1638C280.469 75.2329 285.718 87.5561 290.263 100.074C294.4 99.789 298.464 99.4269 302.421 98.9893C310.756 98.0678 318.459 96.8296 325.297 95.3306C312.645 82.8809 297.772 72.0555 280.732 63.4346ZM267.389 57.9454L267.389 57.9453L267.389 136.65L267.389 111.757V106.848H267.389V100.848L267.389 81.9519V63.0558L267.389 57.9454ZM286.1 100.333C282.341 90.084 278.104 79.9685 273.389 70.0198L273.389 100.796C277.669 100.721 281.916 100.566 286.1 100.333ZM273.389 106.796C278.382 106.711 283.335 106.518 288.201 106.22C294.279 123.721 298.974 141.588 302.284 159.657C292.753 160.098 283.097 160.359 273.389 160.435V111.757V106.796ZM273.389 166.435C283.447 166.357 293.451 166.082 303.324 165.615C306.386 184.067 308.01 202.709 308.19 221.368H273.389V166.435ZM267.389 221.368V166.458H267.389L267.389 221.368H267.389ZM267.389 225.368L267.389 365.198L267.389 347.783V341.783L267.389 335.471V283.264V277.264L267.389 232.03V225.368H267.389ZM273.389 225.368H308.207C308.182 242.989 306.871 260.614 304.269 278.096C294.078 277.633 283.759 277.361 273.389 277.286L273.389 232.03V225.368ZM312.207 225.368C312.183 243.053 310.876 260.742 308.284 278.289C322.926 279.031 337.28 280.17 351.117 281.694C356.754 282.316 362.282 282.998 367.687 283.74C374.436 264.891 377.892 245.129 378.138 225.368H312.207ZM382.139 225.368C381.896 245.313 378.457 265.26 371.736 284.31C389.778 286.915 406.384 290.186 421.046 294.035C421.676 292.625 422.287 291.206 422.879 289.778C431.336 269.357 435.69 247.471 435.69 225.368L382.139 225.368ZM435.642 221.368H382.145C381.949 200.157 378.143 179.015 370.827 159.021C386.073 156.656 400.145 153.773 412.676 150.437C414.29 150.007 415.876 149.571 417.433 149.127C419.397 152.993 421.214 156.939 422.879 160.957C430.826 180.145 435.149 200.628 435.642 221.368ZM378.145 221.368H312.19C312.011 202.643 310.395 183.934 307.345 165.414C320.558 164.717 333.513 163.674 346.018 162.295C353.137 161.51 360.069 160.62 366.786 159.632C374.127 179.41 377.947 200.354 378.145 221.368ZM273.389 283.286C283.445 283.36 293.449 283.619 303.33 284.06C300.056 303.782 295.133 323.3 288.554 342.402C284.224 342.146 279.83 341.968 275.402 341.871C274.732 341.856 274.061 341.843 273.389 341.832L273.389 335.471V283.286ZM350.46 287.658C336.547 286.125 322.099 284.985 307.353 284.25C304.102 303.994 299.216 323.537 292.69 342.672C296.766 342.964 300.775 343.326 304.691 343.758C305.43 343.84 306.165 343.924 306.895 344.01C314.364 344.891 321.376 346.018 327.77 347.361C344.615 330.214 357.155 310.493 365.511 289.499C360.595 288.836 355.575 288.222 350.46 287.658ZM275.363 347.872C279.097 347.954 282.806 348.096 286.468 348.294C282.621 358.866 278.261 369.303 273.389 379.569L273.389 367.731V347.833C274.048 347.844 274.706 347.857 275.363 347.872ZM300.35 386.123C294.244 386.718 287.926 387.147 281.496 387.401L299.351 375.728C309.671 368.98 319.003 361.494 327.36 353.408C329.95 353.965 332.424 354.556 334.77 355.181C335.318 355.327 335.858 355.474 336.388 355.623C344.343 357.848 350.305 360.346 354.2 362.849C354.373 362.96 354.54 363.07 354.701 363.178C357.113 364.802 358.132 366.061 358.56 366.844C350.097 372.299 341.141 376.996 331.795 380.867C331.459 381.006 331.123 381.145 330.786 381.281C322.951 383.136 313.914 384.651 304.033 385.74C302.815 385.874 301.587 386.002 300.35 386.123ZM297.162 372.38C306.445 366.31 314.911 359.63 322.569 352.444C317.468 351.483 311.985 350.652 306.195 349.969C305.479 349.884 304.758 349.802 304.033 349.722C299.675 349.242 295.195 348.848 290.631 348.545C286.543 359.893 281.873 371.09 276.619 382.09L274.035 387.5L297.162 372.38ZM336.314 349.383C335.027 349.041 333.706 348.708 332.353 348.386C348.96 331.017 361.335 311.158 369.595 290.065C387.507 292.609 403.959 295.807 418.456 299.56C410.315 316.139 399.49 331.287 386.396 344.382C379.345 351.433 371.7 357.826 363.556 363.496C362.42 361.668 360.55 359.875 357.969 358.146C357.797 358.031 357.622 357.916 357.443 357.801C352.851 354.85 346.254 352.151 337.989 349.84C337.438 349.686 336.879 349.534 336.314 349.383ZM411.133 144.639C398.485 148.006 384.185 150.916 368.621 153.29C360.695 133.68 349.323 115.302 334.604 99.2117C342.67 96.9735 349.1 94.3511 353.556 91.4793C356.854 89.3538 359.026 87.121 360.024 84.8452C369.496 91.0901 378.335 98.2918 386.396 106.353C397.496 117.455 406.967 130.032 414.553 143.706C413.43 144.02 412.289 144.331 411.133 144.639ZM303.081 104.953C313.059 103.85 322.234 102.293 330.202 100.355C345.067 116.214 356.549 134.422 364.545 153.895C358.333 154.793 351.93 155.606 345.36 156.331C332.748 157.722 319.665 158.768 306.314 159.46C303.027 141.368 298.367 123.474 292.337 105.941C295.983 105.671 299.571 105.341 303.081 104.953ZM331.791 93.7591C331.167 93.9259 330.532 94.0902 329.889 94.252C318.584 82.8094 305.484 72.656 290.628 64.2075C308.956 66.0301 326.927 70.0032 344.022 76.0332C345.08 76.4065 346.134 76.7873 347.183 77.1755C349.642 78.4995 352.066 79.8839 354.454 81.3272C354.638 81.6986 354.656 81.9135 354.656 81.9519C354.656 82.0659 354.497 83.735 350.306 86.4358C346.364 88.9763 340.168 91.5231 331.791 93.7591Z" fill="white"/>
<mask id="mask0" mask-type="alpha" maskUnits="userSpaceOnUse" x="210" y="22" width="45" height="170">
<path d="M210.488 28.6205C224.944 24.6781 239.862 22.6839 254.846 22.6911L254.766 191.003L210.488 28.6205Z" fill="#130947"/>
</mask>
<g mask="url(#mask0)">
<path fill-rule="evenodd" clip-rule="evenodd" d="M86.4889 188.198H129.52C129.376 165.928 133.419 143.68 141.521 122.834C130.446 120.858 120.094 118.595 110.621 116.073C108.661 115.551 106.743 115.019 104.867 114.478C102.847 118.434 100.982 122.476 99.2766 126.593C91.1766 146.149 86.8413 167.05 86.4889 188.198ZM106.87 110.675C108.449 111.125 110.06 111.569 111.704 112.007C121.298 114.561 131.829 116.852 143.128 118.845C151.786 98.0949 164.529 78.8475 181.226 62.501C176.583 60.8442 172.721 59.0355 169.741 57.1154C166.156 54.8049 163.902 52.3675 163.04 49.886C153.224 56.267 144.078 63.6702 135.76 71.9887C124.299 83.4501 114.576 96.4848 106.87 110.675ZM184.842 37.9055C178.648 40.7348 172.641 43.9332 166.852 47.4798C166.85 47.517 166.849 47.5531 166.849 47.588C166.849 48.6444 167.681 50.7819 172.02 53.5783C175.063 55.5394 179.299 57.4589 184.66 59.2316C198.06 46.8285 213.845 36.2369 231.955 28.1141C215.861 29.7519 200.041 33.0361 184.842 37.9055ZM253.617 22.6953C254 22.6942 254.383 22.6933 254.766 22.6928L254.766 22.6914C254.383 22.6914 254 22.6927 253.617 22.6953ZM86.4655 191.004C86.4656 213.106 90.8188 234.993 99.2766 255.413C99.8828 256.877 100.509 258.33 101.155 259.774C113.402 256.544 127.015 253.717 141.695 251.347C134.028 231.981 130.017 211.508 129.56 191.004H86.4655ZM102.951 263.653C115.133 260.47 128.693 257.681 143.336 255.345C152.7 277.353 166.872 297.809 186.005 315.093C177.084 317.487 170.001 320.321 165.153 323.437C162.194 325.339 160.102 327.323 158.91 329.347C150.65 323.624 142.899 317.158 135.76 310.017C122.261 296.518 111.173 280.835 102.951 263.653ZM162.413 331.711C163.059 330.482 164.49 328.865 167.427 326.977C171.804 324.165 178.512 321.442 187.365 319.085C188.173 318.87 188.995 318.659 189.832 318.452C195.563 323.336 201.711 327.945 208.28 332.24L242.935 354.899C234.502 354.61 226.239 354.026 218.367 353.158C212.63 352.525 207.169 351.75 202.053 350.846C198.109 349.545 194.208 348.097 190.36 346.503C180.577 342.45 171.223 337.494 162.413 331.711ZM236.809 358.354C241.326 358.709 245.892 358.889 250.499 358.889C251.926 358.889 253.348 358.872 254.766 358.838L254.766 359.315C248.756 359.315 242.762 358.993 236.809 358.354ZM209.814 329.892C203.948 326.056 198.422 321.966 193.235 317.649C200.716 315.967 209.189 314.589 218.366 313.577C221.455 313.236 224.604 312.939 227.8 312.687L247.916 354.804L209.814 329.892ZM217.905 309.394C207.358 310.557 197.671 312.203 189.278 314.255C169.948 297.164 155.641 276.823 146.201 254.896C154.465 253.622 163.062 252.491 171.94 251.513C182.133 250.39 192.611 249.477 203.282 248.779C207.418 265.725 213.314 282.356 220.976 298.398L225.86 308.623C223.172 308.849 220.518 309.106 217.905 309.394ZM230.802 312.464L251 354.752L251 311.651C244.165 311.731 237.395 312.004 230.802 312.464ZM223.507 297.189L228.855 308.385C236.068 307.846 243.498 307.53 251 307.443V247.118C235.856 247.196 220.817 247.694 206.125 248.599C210.21 265.191 216.002 281.476 223.507 297.189ZM198.804 191.004C199.011 208.929 201.121 226.847 205.14 244.444C220.152 243.505 235.523 242.99 251 242.91L251.701 242.907L251.701 191.004H198.804ZM195.983 188.198C195.973 168.734 198.183 149.278 202.603 130.222C194.002 129.606 185.543 128.842 177.28 127.931C165.772 126.662 154.751 125.12 144.342 123.328C136.228 144 132.179 166.089 132.325 188.198H195.983ZM195.999 191.004C196.205 208.989 198.305 226.966 202.305 244.627C191.816 245.322 181.512 246.225 171.479 247.331C162.182 248.355 153.182 249.547 144.539 250.895C136.852 231.689 132.828 211.362 132.367 191.004H195.999ZM198.788 188.198H251.701L251.701 132.083C236.065 131.998 220.544 131.438 205.437 130.419C200.997 149.406 198.778 168.798 198.788 188.198ZM189.959 65.1922C187.947 64.6552 186.032 64.0947 184.218 63.5129C167.451 79.6496 154.656 98.731 145.966 119.337C156.012 121.046 166.642 122.524 177.741 123.748C186.172 124.678 194.813 125.454 203.601 126.074C208.32 107.169 215.227 88.6871 224.316 71.0124C222.939 70.88 221.572 70.7389 220.217 70.589C208.901 69.3379 198.62 67.5041 189.959 65.1922ZM191.044 61.1268C189.912 60.8246 188.817 60.5162 187.759 60.2023C201.904 47.36 218.692 36.5482 238.052 28.541L240.865 27.3777C243.05 27.2387 245.238 27.1299 247.429 27.0514L226.423 66.9827C224.487 66.808 222.571 66.6159 220.679 66.4067C209.521 65.1729 199.454 63.3718 191.044 61.1268ZM251.701 26.9371C251.35 26.9433 250.999 26.9503 250.648 26.9581L229.457 67.2408C236.676 67.8186 244.147 68.1585 251.701 68.2507L251.701 26.9371ZM251.701 72.4588C243.414 72.3589 235.219 71.9644 227.332 71.2868C218.163 88.922 211.198 107.38 206.444 126.269C221.225 127.251 236.405 127.791 251.701 127.875L251.701 72.4588Z" fill="white"/>
</g>
<mask id="mask1" mask-type="alpha" maskUnits="userSpaceOnUse" x="85" y="8" width="143" height="162">
<path d="M85.8623 78.2222C107.599 44.4204 140.712 19.5125 179.214 8.00203L227.417 169.263L85.8623 78.2222Z" fill="#130947"/>
</mask>
<g mask="url(#mask1)">
<path fill-rule="evenodd" clip-rule="evenodd" d="M227.417 0.951172C227.037 0.951172 226.656 0.952465 226.275 0.95505C226.656 0.953922 227.037 0.953076 227.417 0.952513L227.417 0.951172ZM163.012 13.7631C183.079 5.45044 204.562 1.10245 226.275 0.95505C226.272 0.955057 226.27 0.955064 226.268 0.955072C204.557 1.10341 183.077 5.45136 163.012 13.7631ZM157.494 16.1651C172.693 11.2958 188.513 8.01163 204.606 6.37387C186.497 14.4966 170.711 25.0883 157.311 37.4914C151.95 35.7186 147.715 33.7992 144.672 31.8381C140.332 29.0417 139.501 26.9042 139.501 25.8478C139.501 25.8129 139.502 25.7768 139.503 25.7396C145.293 22.1929 151.3 18.9945 157.494 16.1651ZM135.691 28.1458C136.553 30.6273 138.807 33.0646 142.393 35.3751C145.372 37.2953 149.234 39.1039 153.877 40.7607C137.18 57.1073 124.437 76.3546 115.779 97.105C104.48 95.1113 93.9495 92.8208 84.3551 90.2665C82.7117 89.8289 81.1003 89.3849 79.5212 88.9345C87.2274 74.7445 96.9503 61.7099 108.411 50.2485C116.729 41.9299 125.876 34.5268 135.691 28.1458ZM77.5184 92.7375C79.3943 93.279 81.3127 93.8108 83.2727 94.3326C92.7451 96.8545 103.098 99.1174 114.172 101.093C106.071 121.94 102.027 144.188 102.171 166.458H59.1403C59.4927 145.31 63.828 124.409 71.928 104.853C72.0346 104.595 72.1418 104.338 72.2496 104.082C73.8671 100.231 75.6249 96.4469 77.5184 92.7375ZM135.065 309.97C135.71 308.742 137.141 307.125 140.079 305.237C144.455 302.424 151.163 299.702 160.016 297.345C160.824 297.13 161.647 296.919 162.484 296.712C168.214 301.596 174.362 306.205 180.931 310.5L215.586 333.158C207.153 332.87 198.89 332.285 191.018 331.417C185.281 330.785 179.82 330.009 174.704 329.106C170.76 327.805 166.86 326.357 163.012 324.763C153.229 320.71 143.874 315.753 135.065 309.97ZM131.561 307.607C132.753 305.583 134.845 303.599 137.804 301.697C142.652 298.581 149.736 295.747 158.656 293.353C139.524 276.069 125.352 255.613 115.988 233.604C101.344 235.941 87.7839 238.73 75.6027 241.913C83.824 259.095 94.9121 274.777 108.411 288.277C115.551 295.417 123.301 301.883 131.561 307.607ZM68.9492 225.949C62.4499 207.778 59.117 188.603 59.1169 169.263H102.212C102.668 189.767 106.68 210.241 114.346 229.606C99.6663 231.976 86.0538 234.803 73.8069 238.034C73.1605 236.59 72.5341 235.136 71.928 233.673C70.8708 231.12 69.8777 228.545 68.9492 225.949ZM182.466 308.152C176.599 304.316 171.074 300.225 165.886 295.909C173.368 294.227 181.841 292.849 191.018 291.837C194.107 291.496 197.256 291.199 200.452 290.946L220.567 333.063L182.466 308.152ZM190.557 287.654C180.01 288.817 170.322 290.463 161.93 292.515C142.6 275.424 128.292 255.083 118.852 233.155C127.116 231.882 135.713 230.751 144.592 229.773C154.784 228.65 165.262 227.737 175.933 227.039C180.069 243.985 185.966 260.616 193.627 276.658L198.511 286.883C195.823 287.109 193.169 287.366 190.557 287.654ZM203.454 290.723L223.651 333.012L223.651 289.911C216.817 289.991 210.046 290.264 203.454 290.723ZM196.158 275.449L201.506 286.645C208.719 286.106 216.15 285.789 223.651 285.703V225.378C208.507 225.456 193.469 225.954 178.777 226.859C182.862 243.451 188.654 259.735 196.158 275.449ZM171.456 169.263C171.663 187.189 173.773 205.106 177.791 222.704C192.803 221.765 208.175 221.249 223.651 221.17L224.352 221.167L224.352 169.263H171.456ZM168.634 166.458C168.625 146.994 170.834 127.538 175.254 108.481C166.653 107.866 158.194 107.102 149.931 106.19C138.424 104.921 127.402 103.38 116.993 101.588C108.88 122.26 104.831 144.348 104.977 166.458H168.634ZM168.651 169.263C168.856 187.249 170.956 205.225 174.956 222.887C164.467 223.582 154.163 224.485 144.131 225.59C134.833 226.615 125.834 227.807 117.191 229.155C109.503 209.949 105.48 189.622 105.018 169.263H168.651ZM171.439 166.458H224.352L224.352 110.343C208.716 110.258 193.195 109.697 178.088 108.678C173.649 127.666 171.43 147.058 171.439 166.458ZM162.61 43.452C160.598 42.9149 158.683 42.3545 156.869 41.7726C140.102 57.9093 127.307 76.9908 118.617 97.5968C128.664 99.3062 139.293 100.784 150.392 102.008C158.824 102.938 167.464 103.714 176.252 104.334C180.971 85.4288 187.878 66.9469 196.967 49.2721C195.59 49.1397 194.223 48.9986 192.868 48.8488C181.553 47.5976 171.271 45.7638 162.61 43.452ZM163.695 39.3865C162.563 39.0843 161.468 38.776 160.411 38.462C174.555 25.6197 191.344 14.808 210.704 6.80073L213.516 5.63741C215.701 5.4984 217.889 5.3896 220.081 5.31115L199.075 45.2424C197.139 45.0677 195.223 44.8757 193.33 44.6665C182.172 43.4327 172.106 41.6315 163.695 39.3865ZM224.352 5.1968C224.001 5.20303 223.65 5.21004 223.299 5.21783L202.108 45.5006C209.327 46.0783 216.798 46.4183 224.352 46.5104L224.352 5.1968ZM224.352 50.7185C216.065 50.6186 207.87 50.2241 199.983 49.5465C190.815 67.1817 183.85 85.6398 179.096 104.528C193.877 105.51 209.057 106.051 224.352 106.135L224.352 50.7185Z" fill="white"/>
</g>
<mask id="mask2" mask-type="alpha" maskUnits="userSpaceOnUse" x="55" y="107" width="168" height="92">
<path d="M55.6901 176.429C58.9763 151.829 67.6617 128.261 81.1241 107.412L222.509 198.717L55.6901 176.429Z" fill="#130947"/>
</mask>
<g mask="url(#mask2)">
<path fill-rule="evenodd" clip-rule="evenodd" d="M222.509 30.4053C222.128 30.4053 221.747 30.4066 221.366 30.4092C221.747 30.408 222.128 30.4072 222.509 30.4066L222.509 30.4053ZM158.103 43.2172C178.17 34.9045 199.653 30.5565 221.366 30.4092C221.364 30.4092 221.361 30.4092 221.359 30.4092C199.648 30.5575 178.168 34.9055 158.103 43.2172ZM152.585 45.6192C167.784 40.7499 183.604 37.4657 199.698 35.828C181.588 43.9507 165.802 54.5424 152.403 66.9455C147.041 65.1727 142.806 63.2533 139.763 61.2922C135.424 58.4958 134.592 56.3583 134.592 55.3019C134.592 55.267 134.593 55.2309 134.595 55.1937C140.384 51.647 146.391 48.4486 152.585 45.6192ZM130.783 57.5999C131.644 60.0814 133.899 62.5187 137.484 64.8292C140.464 66.7494 144.325 68.558 148.968 70.2148C132.271 86.5614 119.528 105.809 110.87 126.559C99.5715 124.565 89.0408 122.275 79.4464 119.721C77.803 119.283 76.1916 118.839 74.6125 118.389C82.3187 104.199 92.0417 91.164 103.502 79.7026C111.82 71.384 120.967 63.9809 130.783 57.5999ZM72.6097 122.192C74.4856 122.733 76.404 123.265 78.364 123.787C87.8364 126.309 98.189 128.572 109.264 130.547C101.162 151.394 97.1186 173.642 97.2627 195.912H54.2316C54.584 174.764 58.9193 153.863 67.0193 134.307C67.1259 134.049 67.2331 133.792 67.3409 133.536C68.9584 129.685 70.7162 125.901 72.6097 122.192ZM130.156 339.425C130.801 338.196 132.232 336.579 135.17 334.691C139.547 331.878 146.255 329.156 155.107 326.799C155.915 326.584 156.738 326.373 157.575 326.166C163.306 331.05 169.454 335.659 176.022 339.954L210.678 362.612C202.245 362.324 193.981 361.74 186.109 360.872C180.373 360.239 174.911 359.463 169.795 358.56C165.851 357.259 161.951 355.811 158.103 354.217C148.32 350.164 138.966 345.208 130.156 339.425ZM126.652 337.061C127.845 335.037 129.936 333.053 132.895 331.151C137.744 328.035 144.827 325.201 153.747 322.807C134.615 305.523 120.443 285.067 111.079 263.059C96.4352 265.395 82.8752 268.184 70.694 271.367C78.9153 288.549 90.0034 304.232 103.502 317.731C110.642 324.872 118.393 331.337 126.652 337.061ZM64.0405 255.403C57.5412 237.232 54.2083 218.057 54.2082 198.717H97.303C97.7597 219.221 101.771 239.695 109.437 259.06C94.7576 261.431 81.1452 264.258 68.8982 267.488C68.2518 266.044 67.6254 264.59 67.0193 263.127C65.9621 260.574 64.969 257.999 64.0405 255.403ZM177.557 337.606C171.69 333.77 166.165 329.68 160.978 325.363C168.459 323.681 176.932 322.303 186.109 321.291C189.198 320.95 192.347 320.653 195.543 320.401L215.658 362.517L177.557 337.606ZM185.648 317.108C175.101 318.271 165.414 319.917 157.021 321.969C137.691 304.878 123.384 284.537 113.943 262.609C122.208 261.336 130.805 260.205 139.683 259.227C149.875 258.104 160.354 257.191 171.024 256.493C175.161 273.439 181.057 290.07 188.719 306.112L193.602 316.337C190.915 316.563 188.261 316.82 185.648 317.108ZM198.545 320.177L218.742 362.466L218.742 319.365C211.908 319.445 205.137 319.718 198.545 320.177ZM191.25 304.903L196.597 316.099C203.81 315.56 211.241 315.244 218.742 315.157V254.832C203.599 254.91 188.56 255.408 173.868 256.313C177.953 272.905 183.745 289.189 191.25 304.903ZM166.547 198.717C166.754 216.643 168.864 234.561 172.882 252.158C187.894 251.219 203.266 250.704 218.742 250.624L219.443 250.621L219.443 198.717H166.547ZM163.725 195.912C163.716 176.448 165.925 156.992 170.345 137.935C161.745 137.32 153.285 136.556 145.022 135.644C133.515 134.376 122.493 132.834 112.084 131.042C103.971 151.714 99.9219 173.802 100.068 195.912H163.725ZM163.742 198.717C163.947 216.703 166.047 234.68 170.047 252.341C159.558 253.036 149.254 253.939 139.222 255.044C129.925 256.069 120.925 257.261 112.282 258.609C104.594 239.403 100.571 219.076 100.109 198.717H163.742ZM166.53 195.912H219.443L219.444 139.797C203.807 139.712 188.287 139.152 173.18 138.132C168.74 157.12 166.521 176.512 166.53 195.912ZM157.702 72.9061C155.69 72.369 153.774 71.8086 151.96 71.2267C135.194 87.3634 122.399 106.445 113.709 127.051C123.755 128.76 134.385 130.238 145.483 131.462C153.915 132.392 162.555 133.168 171.344 133.788C176.062 114.883 182.97 96.401 192.059 78.7262C190.681 78.5938 189.315 78.4527 187.959 78.3029C176.644 77.0517 166.362 75.2179 157.702 72.9061ZM158.787 68.8406C157.655 68.5384 156.56 68.2301 155.502 67.9161C169.647 55.0738 186.435 44.2621 205.795 36.2548L208.608 35.0915C210.792 34.9525 212.981 34.8437 215.172 34.7653L194.166 74.6965C192.23 74.5218 190.314 74.3298 188.422 74.1206C177.263 72.8868 167.197 71.0856 158.787 68.8406ZM219.443 34.6509C219.092 34.6571 218.741 34.6641 218.39 34.6719L197.2 74.9547C204.418 75.5324 211.889 75.8724 219.443 75.9645L219.443 34.6509ZM219.444 80.1726C211.157 80.0727 202.962 79.6782 195.075 79.0006C185.906 96.6358 178.941 115.094 174.187 133.983C188.968 134.964 204.148 135.505 219.444 135.589L219.444 80.1726Z" fill="white"/>
</g>
<mask id="mask3" mask-type="alpha" maskUnits="userSpaceOnUse" x="67" y="207" width="169" height="149">
<path d="M124.732 355.3C104.067 337.138 88.1694 314.187 78.4304 288.456C68.6914 262.725 65.4082 234.999 68.8681 207.705L235.832 228.873L124.732 355.3Z" fill="#130947"/>
</mask>
<g mask="url(#mask3)">
<path fill-rule="evenodd" clip-rule="evenodd" d="M235.833 60.5615C235.452 60.5615 235.071 60.5628 234.69 60.5654C235.071 60.5643 235.452 60.5634 235.833 60.5629L235.833 60.5615ZM171.427 73.3735C191.494 65.0608 212.977 60.7128 234.69 60.5654C234.688 60.5654 234.685 60.5654 234.683 60.5654C212.972 60.7138 191.492 65.0617 171.427 73.3735ZM165.909 75.7755C181.108 70.9062 196.928 67.622 213.021 65.9842C194.912 74.107 179.126 84.6986 165.726 97.1017C160.365 95.329 156.13 93.4095 153.087 91.4484C148.748 88.652 147.916 86.5145 147.916 85.4581C147.916 85.4232 147.917 85.3872 147.919 85.3499C153.708 81.8033 159.715 78.6049 165.909 75.7755ZM144.106 87.7561C144.968 90.2376 147.222 92.675 150.808 94.9855C153.787 96.9056 157.649 98.7142 162.292 100.371C145.595 116.718 132.852 135.965 124.194 156.715C112.895 154.722 102.365 152.431 92.7701 149.877C91.1267 149.439 89.5153 148.995 87.9362 148.545C95.6424 134.355 105.365 121.32 116.826 109.859C125.144 101.54 134.291 94.1371 144.106 87.7561ZM85.9335 152.348C87.8093 152.889 89.7277 153.421 91.6877 153.943C101.16 156.465 111.513 158.728 122.587 160.704C114.486 181.55 110.442 203.798 110.586 226.069H67.5553C67.9077 204.921 72.2431 184.019 80.3431 164.463C80.4496 164.206 80.5568 163.949 80.6647 163.692C82.2821 159.841 84.04 156.057 85.9335 152.348ZM143.48 369.581C144.125 368.352 145.556 366.735 148.494 364.847C152.87 362.035 159.578 359.312 168.431 356.956C169.239 356.74 170.062 356.529 170.899 356.322C176.629 361.206 182.777 365.816 189.346 370.11L224.001 392.769C215.569 392.48 207.305 391.896 199.433 391.028C193.696 390.395 188.235 389.62 183.119 388.716C179.175 387.415 175.275 385.967 171.427 384.373C161.644 380.32 152.289 375.364 143.48 369.581ZM139.976 367.218C141.169 365.193 143.26 363.209 146.219 361.307C151.067 358.192 158.151 355.358 167.071 352.964C147.939 335.679 133.767 315.223 124.403 293.215C109.759 295.551 96.1989 298.34 84.0177 301.523C92.239 318.706 103.327 334.388 116.826 347.888C123.966 355.028 131.716 361.494 139.976 367.218ZM77.3642 285.559C70.8649 267.388 67.532 248.214 67.5319 228.874H110.627C111.083 249.378 115.095 269.851 122.761 289.217C108.081 291.587 94.4689 294.414 82.2219 297.645C81.5756 296.201 80.9492 294.747 80.343 293.283C79.2858 290.731 78.2927 288.155 77.3642 285.559ZM190.881 367.762C185.014 363.927 179.489 359.836 174.301 355.519C181.783 353.837 190.256 352.459 199.433 351.447C202.522 351.106 205.671 350.809 208.867 350.557L228.982 392.674L190.881 367.762ZM198.972 347.264C188.425 348.427 178.737 350.073 170.345 352.125C151.015 335.034 136.707 314.693 127.267 292.766C135.531 291.492 144.128 290.361 153.007 289.383C163.199 288.26 173.677 287.347 184.348 286.65C188.484 303.595 194.381 320.226 202.042 336.268L206.926 346.493C204.238 346.719 201.584 346.976 198.972 347.264ZM211.869 350.334L232.066 392.622L232.066 349.522C225.232 349.601 218.461 349.874 211.869 350.334ZM204.573 335.059L209.921 346.256C217.134 345.716 224.565 345.4 232.066 345.314V284.988C216.922 285.066 201.884 285.564 187.192 286.469C191.277 303.061 197.069 319.346 204.573 335.059ZM179.871 228.874C180.078 246.8 182.188 264.717 186.206 282.314C201.218 281.376 216.59 280.86 232.066 280.781L232.767 280.777L232.767 228.874H179.871ZM177.049 226.069C177.04 206.604 179.249 187.148 183.669 168.092C175.068 167.477 166.609 166.712 158.346 165.801C146.839 164.532 135.817 162.99 125.408 161.198C117.295 181.87 113.246 203.959 113.392 226.069H177.049ZM177.066 228.874C177.271 246.859 179.371 264.836 183.371 282.497C172.882 283.192 162.578 284.095 152.546 285.201C143.248 286.225 134.249 287.417 125.606 288.765C117.918 269.559 113.895 249.233 113.433 228.874H177.066ZM179.854 226.069H232.767L232.767 169.953C217.131 169.868 201.61 169.308 186.503 168.289C182.064 187.276 179.845 206.668 179.854 226.069ZM171.025 103.062C169.013 102.525 167.098 101.965 165.284 101.383C148.517 117.52 135.723 136.601 127.032 157.207C137.079 158.917 147.709 160.394 158.807 161.618C167.239 162.548 175.879 163.324 184.668 163.944C189.386 145.039 196.293 126.557 205.382 108.882C204.005 108.75 202.638 108.609 201.283 108.459C189.968 107.208 179.686 105.374 171.025 103.062ZM172.11 98.9969C170.978 98.6947 169.883 98.3863 168.826 98.0724C182.97 85.2301 199.759 74.4183 219.119 66.4111L221.931 65.2478C224.116 65.1088 226.304 64.9999 228.496 64.9215L207.49 104.853C205.554 104.678 203.638 104.486 201.746 104.277C190.587 103.043 180.521 101.242 172.11 98.9969ZM232.767 64.8072C232.416 64.8134 232.065 64.8204 231.714 64.8282L210.523 105.111C217.742 105.689 225.213 106.029 232.767 106.121L232.767 64.8072ZM232.767 110.329C224.48 110.229 216.285 109.834 208.398 109.157C199.23 126.792 192.265 145.25 187.511 164.139C202.292 165.121 217.472 165.661 232.767 165.745L232.767 110.329Z" fill="white"/>
</g>
<mask id="mask4" mask-type="alpha" maskUnits="userSpaceOnUse" x="145" y="237" width="114" height="170">
<path d="M258.272 406.302C216.598 406.302 176.406 390.839 145.476 362.907L258.272 237.99L258.272 406.302Z" fill="#130947"/>
</mask>
<g mask="url(#mask4)">
<path fill-rule="evenodd" clip-rule="evenodd" d="M258.272 69.6797C257.89 69.6803 257.508 69.6811 257.126 69.6822C235.414 69.8302 213.933 74.1782 193.867 82.4903C192.012 83.2586 190.172 84.0595 188.349 84.8924C203.547 80.023 219.368 76.7388 235.461 75.101C217.352 83.2238 201.566 93.8154 188.166 106.219C182.805 104.446 178.57 102.526 175.527 100.565C171.187 97.7689 170.356 95.6313 170.356 94.5749C170.356 94.54 170.357 94.504 170.358 94.4667C169.077 95.2518 167.806 96.054 166.546 96.8729C167.408 99.3545 169.662 101.792 173.248 104.102C176.227 106.022 180.089 107.831 184.732 109.488C168.035 125.834 155.292 145.082 146.634 165.832C135.335 163.838 124.804 161.548 115.21 158.994C113.567 158.556 111.955 158.112 110.376 157.662C109.693 158.92 109.025 160.188 108.373 161.465C110.249 162.006 112.168 162.538 114.128 163.06C123.6 165.582 133.953 167.845 145.027 169.821C136.926 190.667 132.882 212.915 133.026 235.185H89.9952C89.9797 236.12 89.9719 237.055 89.9719 237.99C89.9719 237.99 89.9719 237.99 89.9719 237.991H133.067C133.523 258.494 137.535 278.968 145.201 298.333C130.521 300.704 116.909 303.531 104.662 306.761C105.244 308.062 105.843 309.356 106.458 310.64C118.639 307.457 132.199 304.668 146.843 302.332C152.333 315.237 159.477 327.608 168.305 339.12L170.216 336.993C161.83 325.985 155.003 314.183 149.707 301.882C157.971 300.609 166.568 299.478 175.447 298.5C185.639 297.377 196.117 296.464 206.788 295.766C206.821 295.904 206.855 296.041 206.889 296.178L211.299 291.27C210.413 291.322 209.529 291.376 208.646 291.431C204.628 273.834 202.518 255.916 202.311 237.991H255.207L255.207 242.402L258.272 238.99L258.272 237.99L258.272 69.6797ZM205.559 397.833C210.675 398.737 216.136 399.512 221.873 400.145C229.745 401.013 238.008 401.597 246.441 401.886L211.786 379.227C205.217 374.932 199.069 370.323 193.339 365.439C192.502 365.646 191.679 365.857 190.871 366.072C182.018 368.429 175.31 371.151 170.934 373.964C167.996 375.852 166.565 377.469 165.92 378.698C174.729 384.481 184.084 389.437 193.867 393.49C197.715 395.084 201.615 396.532 205.559 397.833ZM162.416 376.334C163.608 374.31 165.7 372.326 168.659 370.424C173.507 367.308 180.591 364.474 189.511 362.08C181.598 354.931 174.533 347.24 168.305 339.12L146.283 363.63C151.403 368.195 156.791 372.437 162.416 376.334ZM255.207 242.402L255.207 289.894L254.506 289.897C239.94 289.972 225.467 290.433 211.299 291.27L255.207 242.402ZM206.889 296.178L170.216 336.993C176.78 345.608 184.298 353.738 192.785 361.242C201.177 359.19 210.865 357.544 221.412 356.381C224.024 356.093 226.678 355.836 229.366 355.61L224.482 345.385C216.883 329.473 211.02 312.981 206.889 296.178ZM213.321 376.879C207.454 373.043 201.929 368.953 196.741 364.636C204.223 362.954 212.696 361.576 221.873 360.564C224.962 360.223 228.111 359.926 231.307 359.674L251.422 401.791L213.321 376.879ZM234.309 359.45L254.506 401.739L254.506 358.638C247.672 358.718 240.901 358.991 234.309 359.45ZM227.013 344.176L232.361 355.372C239.574 354.833 247.005 354.517 254.506 354.43V294.105C239.362 294.183 224.324 294.681 209.632 295.586C213.716 312.178 219.509 328.463 227.013 344.176ZM199.489 235.185C199.48 215.721 201.689 196.265 206.109 177.208C197.508 176.593 189.049 175.829 180.786 174.918C169.279 173.649 158.257 172.107 147.848 170.315C139.735 190.987 135.686 213.076 135.832 235.185H199.489ZM199.506 237.991C199.711 255.976 201.811 273.953 205.811 291.614C195.322 292.309 185.018 293.212 174.986 294.317C165.688 295.342 156.689 296.534 148.046 297.882C140.358 278.676 136.334 258.349 135.873 237.991H199.506ZM202.294 235.185H255.207L255.207 179.07C239.571 178.985 224.05 178.425 208.943 177.405C204.504 196.393 202.285 215.785 202.294 235.185ZM193.465 112.179C191.453 111.642 189.538 111.082 187.724 110.5C170.957 126.636 158.162 145.718 149.472 166.324C159.519 168.033 170.148 169.511 181.247 170.735C189.679 171.665 198.319 172.441 207.107 173.061C211.826 154.156 218.733 135.674 227.822 117.999C226.445 117.867 225.078 117.726 223.723 117.576C212.407 116.325 202.126 114.491 193.465 112.179ZM194.55 108.114C193.418 107.812 192.323 107.503 191.266 107.189C205.41 94.3469 222.199 83.5351 241.559 75.5279L244.371 74.3646C246.556 74.2256 248.744 74.1168 250.936 74.0383L229.93 113.97C227.994 113.795 226.078 113.603 224.185 113.394C213.027 112.16 202.961 110.359 194.55 108.114ZM255.207 73.924C254.856 73.9302 254.505 73.9372 254.154 73.945L232.963 114.228C240.182 114.806 247.653 115.145 255.207 115.238L255.207 73.924ZM255.207 119.446C246.92 119.346 238.725 118.951 230.838 118.274C221.67 135.909 214.705 154.367 209.951 173.256C224.732 174.238 239.912 174.778 255.207 174.862L255.207 119.446Z" fill="white"/>
</g>
<path d="M500.084 240.202V305.89H506.34V240.202H500.084ZM518.823 258.418V305.89H524.619V278.198C524.68 275.867 525.048 273.72 525.723 271.758C526.459 269.734 527.44 268.016 528.667 266.606C529.955 265.134 531.488 263.999 533.267 263.202C535.107 262.343 537.192 261.914 539.523 261.914C541.853 261.914 543.785 262.282 545.319 263.018C546.913 263.754 548.171 264.766 549.091 266.054C550.011 267.342 550.655 268.875 551.023 270.654C551.391 272.371 551.575 274.242 551.575 276.266V305.89H557.371V275.346C557.371 272.524 557.095 269.979 556.543 267.71C555.991 265.44 555.04 263.539 553.691 262.006C552.341 260.411 550.532 259.184 548.263 258.326C546.055 257.467 543.295 257.038 539.983 257.038C536.609 257.038 533.512 257.927 530.691 259.706C527.869 261.423 525.907 263.723 524.803 266.606H524.619V258.418H518.823ZM562.993 258.418L581.301 305.89H587.465L605.221 258.418H599.241L584.521 300.094H584.337L569.433 258.418H562.993ZM645.047 278.842H614.319C614.564 276.695 615.055 274.61 615.791 272.586C616.588 270.5 617.631 268.691 618.919 267.158C620.207 265.563 621.771 264.306 623.611 263.386C625.451 262.404 627.567 261.914 629.959 261.914C632.289 261.914 634.375 262.404 636.215 263.386C638.055 264.306 639.619 265.563 640.907 267.158C642.195 268.691 643.176 270.47 643.851 272.494C644.587 274.518 644.985 276.634 645.047 278.842ZM614.319 283.718H650.843C650.965 280.406 650.659 277.155 649.923 273.966C649.187 270.715 647.96 267.863 646.243 265.41C644.587 262.895 642.409 260.871 639.711 259.338C637.012 257.804 633.761 257.038 629.959 257.038C626.217 257.038 622.967 257.774 620.207 259.246C617.508 260.656 615.3 262.558 613.583 264.95C611.865 267.28 610.577 269.948 609.719 272.954C608.921 275.959 608.523 279.026 608.523 282.154C608.523 285.527 608.921 288.747 609.719 291.814C610.577 294.819 611.865 297.487 613.583 299.818C615.3 302.087 617.508 303.896 620.207 305.246C622.967 306.534 626.217 307.178 629.959 307.178C635.969 307.178 640.6 305.706 643.851 302.762C647.163 299.818 649.432 295.647 650.659 290.25H644.863C643.943 293.93 642.287 296.874 639.895 299.082C637.503 301.29 634.191 302.394 629.959 302.394C627.199 302.394 624.837 301.811 622.875 300.646C620.912 299.48 619.287 298.008 617.999 296.23C616.711 294.451 615.76 292.458 615.147 290.25C614.595 287.98 614.319 285.803 614.319 283.718ZM687.05 272.31H692.846C692.723 269.734 692.202 267.495 691.282 265.594C690.362 263.692 689.104 262.098 687.51 260.81C685.976 259.522 684.167 258.571 682.082 257.958C680.058 257.344 677.85 257.038 675.458 257.038C673.372 257.038 671.256 257.283 669.11 257.774C667.024 258.264 665.123 259.031 663.406 260.074C661.688 261.116 660.278 262.496 659.174 264.214C658.131 265.931 657.61 267.986 657.61 270.378C657.61 272.402 657.947 274.119 658.622 275.53C659.296 276.879 660.216 278.044 661.382 279.026C662.608 279.946 664.019 280.743 665.614 281.418C667.208 282.031 668.956 282.583 670.858 283.074L678.31 284.73C679.598 285.036 680.855 285.404 682.082 285.834C683.37 286.263 684.504 286.815 685.486 287.49C686.467 288.103 687.234 288.9 687.786 289.882C688.399 290.802 688.706 291.967 688.706 293.378C688.706 295.034 688.276 296.444 687.418 297.61C686.62 298.714 685.578 299.634 684.29 300.37C683.002 301.106 681.591 301.627 680.058 301.934C678.586 302.24 677.144 302.394 675.734 302.394C671.87 302.394 668.619 301.412 665.982 299.45C663.406 297.426 661.995 294.451 661.75 290.526H655.954C656.444 296.352 658.407 300.584 661.842 303.222C665.338 305.859 669.876 307.178 675.458 307.178C677.666 307.178 679.904 306.932 682.174 306.442C684.443 305.951 686.467 305.154 688.246 304.05C690.086 302.884 691.588 301.412 692.754 299.634C693.919 297.794 694.502 295.586 694.502 293.01C694.502 290.924 694.103 289.115 693.306 287.582C692.508 286.048 691.466 284.76 690.178 283.718C688.951 282.675 687.51 281.847 685.854 281.234C684.259 280.559 682.634 280.099 680.978 279.854L673.25 278.106C672.268 277.86 671.195 277.554 670.03 277.186C668.864 276.756 667.791 276.235 666.81 275.622C665.828 275.008 665 274.272 664.326 273.414C663.712 272.494 663.406 271.39 663.406 270.102C663.406 268.568 663.743 267.28 664.418 266.238C665.092 265.195 665.982 264.367 667.086 263.754C668.19 263.079 669.386 262.619 670.674 262.374C672.023 262.067 673.342 261.914 674.63 261.914C676.286 261.914 677.85 262.128 679.322 262.558C680.794 262.926 682.082 263.539 683.186 264.398C684.351 265.256 685.271 266.36 685.946 267.71C686.62 268.998 686.988 270.531 687.05 272.31ZM712.115 258.418V244.158H706.319V258.418H698.039V263.294H706.319V295.77C706.257 299.818 706.993 302.608 708.527 304.142C710.06 305.614 712.759 306.35 716.623 306.35C717.481 306.35 718.34 306.319 719.199 306.258C720.057 306.196 720.916 306.166 721.775 306.166V301.29C720.119 301.474 718.463 301.566 716.807 301.566C714.721 301.443 713.403 300.86 712.851 299.818C712.36 298.714 712.115 297.211 712.115 295.31V263.294H721.775V258.418H712.115ZM730.229 240.202V249.494H736.025V240.202H730.229ZM730.229 258.418V305.89H736.025V258.418H730.229ZM747.026 258.418V305.89H752.822V278.198C752.883 275.867 753.251 273.72 753.926 271.758C754.662 269.734 755.643 268.016 756.87 266.606C758.158 265.134 759.691 263.999 761.47 263.202C763.31 262.343 765.395 261.914 767.726 261.914C770.056 261.914 771.988 262.282 773.522 263.018C775.116 263.754 776.374 264.766 777.294 266.054C778.214 267.342 778.858 268.875 779.226 270.654C779.594 272.371 779.778 274.242 779.778 276.266V305.89H785.574V275.346C785.574 272.524 785.298 269.979 784.746 267.71C784.194 265.44 783.243 263.539 781.894 262.006C780.544 260.411 778.735 259.184 776.466 258.326C774.258 257.467 771.498 257.038 768.186 257.038C764.812 257.038 761.715 257.927 758.894 259.706C756.072 261.423 754.11 263.723 753.006 266.606H752.822V258.418H747.026ZM836.644 302.026V258.418H830.848V266.606H830.664C830.112 265.318 829.314 264.091 828.272 262.926C827.29 261.76 826.156 260.748 824.868 259.89C823.58 258.97 822.138 258.264 820.544 257.774C819.01 257.283 817.354 257.038 815.576 257.038C812.141 257.038 809.074 257.682 806.376 258.97C803.738 260.196 801.5 261.914 799.66 264.122C797.881 266.268 796.501 268.814 795.52 271.758C794.6 274.64 794.14 277.707 794.14 280.958C794.14 284.331 794.538 287.52 795.336 290.526C796.133 293.47 797.39 296.046 799.108 298.254C800.886 300.462 803.125 302.21 805.824 303.498C808.522 304.724 811.773 305.338 815.576 305.338C819.072 305.338 822.108 304.448 824.684 302.67C827.321 300.891 829.314 298.53 830.664 295.586H830.848V302.026C830.848 307.791 829.652 312.207 827.26 315.274C824.868 318.34 820.973 319.874 815.576 319.874C813.981 319.874 812.417 319.69 810.884 319.322C809.35 319.015 807.94 318.494 806.652 317.758C805.425 317.022 804.352 316.04 803.432 314.814C802.573 313.648 801.99 312.176 801.684 310.398H795.888C796.072 312.912 796.746 315.059 797.912 316.838C799.138 318.678 800.641 320.18 802.42 321.346C804.26 322.511 806.314 323.37 808.584 323.922C810.853 324.474 813.184 324.75 815.576 324.75C819.44 324.75 822.69 324.228 825.328 323.186C828.026 322.143 830.204 320.64 831.86 318.678C833.516 316.715 834.712 314.323 835.448 311.502C836.245 308.68 836.644 305.522 836.644 302.026ZM815.576 300.462C812.877 300.462 810.546 299.94 808.584 298.898C806.621 297.794 804.996 296.383 803.708 294.666C802.42 292.887 801.469 290.863 800.856 288.594C800.242 286.324 799.936 283.994 799.936 281.602C799.936 279.148 800.212 276.756 800.764 274.426C801.377 272.034 802.328 269.918 803.616 268.078C804.904 266.238 806.529 264.766 808.492 263.662C810.454 262.496 812.816 261.914 815.576 261.914C818.336 261.914 820.666 262.496 822.568 263.662C824.53 264.827 826.125 266.36 827.352 268.262C828.578 270.163 829.468 272.279 830.02 274.61C830.572 276.94 830.848 279.271 830.848 281.602C830.848 283.994 830.51 286.324 829.836 288.594C829.222 290.863 828.272 292.887 826.984 294.666C825.696 296.383 824.101 297.794 822.2 298.898C820.298 299.94 818.09 300.462 815.576 300.462ZM873.35 240.202V249.494H879.146V240.202H873.35ZM873.35 258.418V305.89H879.146V258.418H873.35ZM890.147 258.418V305.89H895.943V278.198C896.004 275.867 896.372 273.72 897.047 271.758C897.783 269.734 898.764 268.016 899.991 266.606C901.279 265.134 902.812 263.999 904.591 263.202C906.431 262.343 908.516 261.914 910.847 261.914C913.177 261.914 915.109 262.282 916.643 263.018C918.237 263.754 919.495 264.766 920.415 266.054C921.335 267.342 921.979 268.875 922.347 270.654C922.715 272.371 922.899 274.242 922.899 276.266V305.89H928.695V275.346C928.695 272.524 928.419 269.979 927.867 267.71C927.315 265.44 926.364 263.539 925.015 262.006C923.665 260.411 921.856 259.184 919.587 258.326C917.379 257.467 914.619 257.038 911.307 257.038C907.933 257.038 904.836 257.927 902.015 259.706C899.193 261.423 897.231 263.723 896.127 266.606H895.943V258.418H890.147ZM972.618 272.402V245.538H994.146C998.501 245.538 1002.03 246.642 1004.73 248.85C1007.42 251.058 1008.77 254.431 1008.77 258.97C1008.77 263.508 1007.42 266.882 1004.73 269.09C1002.03 271.298 998.501 272.402 994.146 272.402H972.618ZM966.362 240.202V305.89H972.618V277.738H995.526C998.47 277.738 1001.14 277.339 1003.53 276.542C1005.92 275.683 1007.98 274.456 1009.69 272.862C1011.41 271.206 1012.73 269.212 1013.65 266.882C1014.57 264.551 1015.03 261.914 1015.03 258.97C1015.03 256.026 1014.57 253.388 1013.65 251.058C1012.73 248.727 1011.41 246.764 1009.69 245.17C1007.98 243.514 1005.92 242.287 1003.53 241.49C1001.14 240.631 998.47 240.202 995.526 240.202H966.362ZM1023.3 240.202V305.89H1029.1V240.202H1023.3ZM1039.64 272.954H1045.43C1045.55 269.09 1046.78 266.299 1049.11 264.582C1051.44 262.803 1054.45 261.914 1058.13 261.914C1059.85 261.914 1061.44 262.067 1062.91 262.374C1064.45 262.619 1065.76 263.11 1066.87 263.846C1068.03 264.582 1068.92 265.594 1069.54 266.882C1070.21 268.108 1070.55 269.703 1070.55 271.666C1070.55 272.954 1070.36 273.996 1070 274.794C1069.69 275.591 1069.23 276.235 1068.62 276.726C1068 277.155 1067.24 277.462 1066.32 277.646C1065.4 277.83 1064.32 277.983 1063.1 278.106C1059.97 278.474 1056.87 278.872 1053.8 279.302C1050.8 279.67 1048.07 280.344 1045.62 281.326C1043.22 282.307 1041.29 283.748 1039.82 285.65C1038.35 287.49 1037.61 290.066 1037.61 293.378C1037.61 295.77 1038.01 297.855 1038.81 299.634C1039.67 301.351 1040.8 302.792 1042.21 303.958C1043.68 305.062 1045.37 305.859 1047.27 306.35C1049.23 306.902 1051.32 307.178 1053.53 307.178C1055.86 307.178 1057.85 306.963 1059.51 306.534C1061.23 306.104 1062.73 305.491 1064.02 304.694C1065.37 303.896 1066.56 302.915 1067.6 301.75C1068.71 300.523 1069.78 299.143 1070.82 297.61H1071.01C1071.01 298.836 1071.07 299.971 1071.19 301.014C1071.38 301.995 1071.71 302.854 1072.2 303.59C1072.69 304.326 1073.37 304.908 1074.23 305.338C1075.15 305.706 1076.34 305.89 1077.82 305.89C1078.61 305.89 1079.26 305.859 1079.75 305.798C1080.3 305.736 1080.91 305.644 1081.59 305.522V300.646C1081.04 300.891 1080.42 301.014 1079.75 301.014C1077.48 301.014 1076.34 299.848 1076.34 297.518V272.31C1076.34 269.12 1075.82 266.544 1074.78 264.582C1073.74 262.558 1072.39 260.994 1070.73 259.89C1069.08 258.786 1067.21 258.05 1065.12 257.682C1063.03 257.252 1060.95 257.038 1058.86 257.038C1056.1 257.038 1053.59 257.344 1051.32 257.958C1049.05 258.571 1047.06 259.522 1045.34 260.81C1043.68 262.098 1042.37 263.754 1041.38 265.778C1040.4 267.802 1039.82 270.194 1039.64 272.954ZM1070.55 279.946V287.49C1070.55 289.82 1070.09 291.906 1069.17 293.746C1068.31 295.586 1067.11 297.15 1065.58 298.438C1064.11 299.726 1062.36 300.707 1060.34 301.382C1058.31 302.056 1056.2 302.394 1053.99 302.394C1052.64 302.394 1051.32 302.179 1050.03 301.75C1048.74 301.32 1047.61 300.707 1046.63 299.91C1045.65 299.051 1044.85 298.07 1044.24 296.966C1043.68 295.8 1043.41 294.482 1043.41 293.01C1043.41 290.679 1044.08 288.9 1045.43 287.674C1046.84 286.386 1048.62 285.404 1050.77 284.73C1052.91 284.055 1055.28 283.564 1057.85 283.258C1060.49 282.89 1063.03 282.491 1065.49 282.062C1066.29 281.939 1067.21 281.724 1068.25 281.418C1069.29 281.111 1070 280.62 1070.36 279.946H1070.55ZM1087.8 258.418V305.89H1093.6V278.198C1093.66 275.867 1094.03 273.72 1094.7 271.758C1095.44 269.734 1096.42 268.016 1097.65 266.606C1098.94 265.134 1100.47 263.999 1102.25 263.202C1104.09 262.343 1106.17 261.914 1108.5 261.914C1110.83 261.914 1112.77 262.282 1114.3 263.018C1115.89 263.754 1117.15 264.766 1118.07 266.054C1118.99 267.342 1119.64 268.875 1120 270.654C1120.37 272.371 1120.56 274.242 1120.56 276.266V305.89H1126.35V275.346C1126.35 272.524 1126.08 269.979 1125.52 267.71C1124.97 265.44 1124.02 263.539 1122.67 262.006C1121.32 260.411 1119.51 259.184 1117.24 258.326C1115.04 257.467 1112.28 257.038 1108.96 257.038C1105.59 257.038 1102.49 257.927 1099.67 259.706C1096.85 261.423 1094.89 263.723 1093.78 266.606H1093.6V258.418H1087.8ZM1171.44 278.842H1140.71C1140.96 276.695 1141.45 274.61 1142.19 272.586C1142.98 270.5 1144.03 268.691 1145.31 267.158C1146.6 265.563 1148.17 264.306 1150.01 263.386C1151.85 262.404 1153.96 261.914 1156.35 261.914C1158.68 261.914 1160.77 262.404 1162.61 263.386C1164.45 264.306 1166.01 265.563 1167.3 267.158C1168.59 268.691 1169.57 270.47 1170.25 272.494C1170.98 274.518 1171.38 276.634 1171.44 278.842ZM1140.71 283.718H1177.24C1177.36 280.406 1177.05 277.155 1176.32 273.966C1175.58 270.715 1174.35 267.863 1172.64 265.41C1170.98 262.895 1168.8 260.871 1166.11 259.338C1163.41 257.804 1160.16 257.038 1156.35 257.038C1152.61 257.038 1149.36 257.774 1146.6 259.246C1143.9 260.656 1141.69 262.558 1139.98 264.95C1138.26 267.28 1136.97 269.948 1136.11 272.954C1135.32 275.959 1134.92 279.026 1134.92 282.154C1134.92 285.527 1135.32 288.747 1136.11 291.814C1136.97 294.819 1138.26 297.487 1139.98 299.818C1141.69 302.087 1143.9 303.896 1146.6 305.246C1149.36 306.534 1152.61 307.178 1156.35 307.178C1162.36 307.178 1166.99 305.706 1170.25 302.762C1173.56 299.818 1175.83 295.647 1177.05 290.25H1171.26C1170.34 293.93 1168.68 296.874 1166.29 299.082C1163.9 301.29 1160.59 302.394 1156.35 302.394C1153.59 302.394 1151.23 301.811 1149.27 300.646C1147.31 299.48 1145.68 298.008 1144.39 296.23C1143.11 294.451 1142.15 292.458 1141.54 290.25C1140.99 287.98 1140.71 285.803 1140.71 283.718ZM1194.22 258.418V244.158H1188.42V258.418H1180.14V263.294H1188.42V295.77C1188.36 299.818 1189.09 302.608 1190.63 304.142C1192.16 305.614 1194.86 306.35 1198.72 306.35C1199.58 306.35 1200.44 306.319 1201.3 306.258C1202.16 306.196 1203.02 306.166 1203.88 306.166V301.29C1202.22 301.474 1200.56 301.566 1198.91 301.566C1196.82 301.443 1195.5 300.86 1194.95 299.818C1194.46 298.714 1194.22 297.211 1194.22 295.31V263.294H1203.88V258.418H1194.22ZM1211.69 272.954H1217.48C1217.61 269.09 1218.83 266.299 1221.16 264.582C1223.49 262.803 1226.5 261.914 1230.18 261.914C1231.9 261.914 1233.49 262.067 1234.96 262.374C1236.5 262.619 1237.81 263.11 1238.92 263.846C1240.08 264.582 1240.97 265.594 1241.59 266.882C1242.26 268.108 1242.6 269.703 1242.6 271.666C1242.6 272.954 1242.41 273.996 1242.05 274.794C1241.74 275.591 1241.28 276.235 1240.67 276.726C1240.05 277.155 1239.29 277.462 1238.37 277.646C1237.45 277.83 1236.37 277.983 1235.15 278.106C1232.02 278.474 1228.92 278.872 1225.85 279.302C1222.85 279.67 1220.12 280.344 1217.67 281.326C1215.27 282.307 1213.34 283.748 1211.87 285.65C1210.4 287.49 1209.66 290.066 1209.66 293.378C1209.66 295.77 1210.06 297.855 1210.86 299.634C1211.72 301.351 1212.85 302.792 1214.26 303.958C1215.73 305.062 1217.42 305.859 1219.32 306.35C1221.29 306.902 1223.37 307.178 1225.58 307.178C1227.91 307.178 1229.9 306.963 1231.56 306.534C1233.28 306.104 1234.78 305.491 1236.07 304.694C1237.42 303.896 1238.61 302.915 1239.65 301.75C1240.76 300.523 1241.83 299.143 1242.87 297.61H1243.06C1243.06 298.836 1243.12 299.971 1243.24 301.014C1243.43 301.995 1243.76 302.854 1244.25 303.59C1244.75 304.326 1245.42 304.908 1246.28 305.338C1247.2 305.706 1248.39 305.89 1249.87 305.89C1250.66 305.89 1251.31 305.859 1251.8 305.798C1252.35 305.736 1252.96 305.644 1253.64 305.522V300.646C1253.09 300.891 1252.47 301.014 1251.8 301.014C1249.53 301.014 1248.39 299.848 1248.39 297.518V272.31C1248.39 269.12 1247.87 266.544 1246.83 264.582C1245.79 262.558 1244.44 260.994 1242.78 259.89C1241.13 258.786 1239.26 258.05 1237.17 257.682C1235.09 257.252 1233 257.038 1230.91 257.038C1228.15 257.038 1225.64 257.344 1223.37 257.958C1221.1 258.571 1219.11 259.522 1217.39 260.81C1215.73 262.098 1214.42 263.754 1213.43 265.778C1212.45 267.802 1211.87 270.194 1211.69 272.954ZM1242.6 279.946V287.49C1242.6 289.82 1242.14 291.906 1241.22 293.746C1240.36 295.586 1239.16 297.15 1237.63 298.438C1236.16 299.726 1234.41 300.707 1232.39 301.382C1230.36 302.056 1228.25 302.394 1226.04 302.394C1224.69 302.394 1223.37 302.179 1222.08 301.75C1220.79 301.32 1219.66 300.707 1218.68 299.91C1217.7 299.051 1216.9 298.07 1216.29 296.966C1215.73 295.8 1215.46 294.482 1215.46 293.01C1215.46 290.679 1216.13 288.9 1217.48 287.674C1218.89 286.386 1220.67 285.404 1222.82 284.73C1224.97 284.055 1227.33 283.564 1229.9 283.258C1232.54 282.89 1235.09 282.491 1237.54 282.062C1238.34 281.939 1239.26 281.724 1240.3 281.418C1241.34 281.111 1242.05 280.62 1242.41 279.946H1242.6ZM1259.95 258.418V305.89H1265.74V280.59C1265.74 278.075 1266.17 275.775 1267.03 273.69C1267.89 271.543 1269.08 269.703 1270.62 268.17C1272.21 266.636 1274.08 265.471 1276.23 264.674C1278.38 263.815 1280.77 263.447 1283.41 263.57V257.774C1279.11 257.59 1275.4 258.54 1272.27 260.626C1269.21 262.711 1266.94 265.686 1265.47 269.55H1265.28V258.418H1259.95ZM1283.63 258.418L1302.58 305.706L1300.56 311.042C1300.07 312.146 1299.61 313.158 1299.18 314.078C1298.75 314.998 1298.23 315.764 1297.61 316.378C1297 317.052 1296.26 317.574 1295.41 317.942C1294.61 318.31 1293.57 318.494 1292.28 318.494C1291.6 318.494 1290.93 318.432 1290.25 318.31C1289.64 318.248 1289 318.156 1288.32 318.034V322.91C1288.81 323.094 1289.36 323.186 1289.98 323.186C1290.65 323.247 1291.57 323.308 1292.74 323.37C1294.58 323.37 1296.08 323.186 1297.25 322.818C1298.47 322.511 1299.51 321.959 1300.37 321.162C1301.29 320.426 1302.12 319.383 1302.86 318.034C1303.59 316.746 1304.39 315.09 1305.25 313.066L1325.86 258.418H1320.06L1305.43 298.898L1289.79 258.418H1283.63ZM1358.26 240.202V305.89H1364.52V274.058H1403.52V305.89H1409.78V240.202H1403.52V268.722H1364.52V240.202H1358.26ZM1456.07 278.842H1425.34C1425.58 276.695 1426.07 274.61 1426.81 272.586C1427.61 270.5 1428.65 268.691 1429.94 267.158C1431.23 265.563 1432.79 264.306 1434.63 263.386C1436.47 262.404 1438.59 261.914 1440.98 261.914C1443.31 261.914 1445.39 262.404 1447.23 263.386C1449.07 264.306 1450.64 265.563 1451.93 267.158C1453.21 268.691 1454.2 270.47 1454.87 272.494C1455.61 274.518 1456 276.634 1456.07 278.842ZM1425.34 283.718H1461.86C1461.98 280.406 1461.68 277.155 1460.94 273.966C1460.21 270.715 1458.98 267.863 1457.26 265.41C1455.61 262.895 1453.43 260.871 1450.73 259.338C1448.03 257.804 1444.78 257.038 1440.98 257.038C1437.24 257.038 1433.99 257.774 1431.23 259.246C1428.53 260.656 1426.32 262.558 1424.6 264.95C1422.88 267.28 1421.6 269.948 1420.74 272.954C1419.94 275.959 1419.54 279.026 1419.54 282.154C1419.54 285.527 1419.94 288.747 1420.74 291.814C1421.6 294.819 1422.88 297.487 1424.6 299.818C1426.32 302.087 1428.53 303.896 1431.23 305.246C1433.99 306.534 1437.24 307.178 1440.98 307.178C1446.99 307.178 1451.62 305.706 1454.87 302.762C1458.18 299.818 1460.45 295.647 1461.68 290.25H1455.88C1454.96 293.93 1453.31 296.874 1450.91 299.082C1448.52 301.29 1445.21 302.394 1440.98 302.394C1438.22 302.394 1435.86 301.811 1433.89 300.646C1431.93 299.48 1430.31 298.008 1429.02 296.23C1427.73 294.451 1426.78 292.458 1426.17 290.25C1425.61 287.98 1425.34 285.803 1425.34 283.718ZM1469.09 272.954H1474.89C1475.01 269.09 1476.23 266.299 1478.57 264.582C1480.9 262.803 1483.9 261.914 1487.58 261.914C1489.3 261.914 1490.89 262.067 1492.37 262.374C1493.9 262.619 1495.22 263.11 1496.32 263.846C1497.49 264.582 1498.38 265.594 1498.99 266.882C1499.66 268.108 1500 269.703 1500 271.666C1500 272.954 1499.82 273.996 1499.45 274.794C1499.14 275.591 1498.68 276.235 1498.07 276.726C1497.46 277.155 1496.69 277.462 1495.77 277.646C1494.85 277.83 1493.78 277.983 1492.55 278.106C1489.42 278.474 1486.32 278.872 1483.26 279.302C1480.25 279.67 1477.52 280.344 1475.07 281.326C1472.68 282.307 1470.75 283.748 1469.27 285.65C1467.8 287.49 1467.07 290.066 1467.07 293.378C1467.07 295.77 1467.46 297.855 1468.26 299.634C1469.12 301.351 1470.25 302.792 1471.67 303.958C1473.14 305.062 1474.82 305.859 1476.73 306.35C1478.69 306.902 1480.77 307.178 1482.98 307.178C1485.31 307.178 1487.31 306.963 1488.96 306.534C1490.68 306.104 1492.18 305.491 1493.47 304.694C1494.82 303.896 1496.01 302.915 1497.06 301.75C1498.16 300.523 1499.23 299.143 1500.28 297.61H1500.46C1500.46 298.836 1500.52 299.971 1500.65 301.014C1500.83 301.995 1501.17 302.854 1501.66 303.59C1502.15 304.326 1502.82 304.908 1503.68 305.338C1504.6 305.706 1505.8 305.89 1507.27 305.89C1508.07 305.89 1508.71 305.859 1509.2 305.798C1509.75 305.736 1510.37 305.644 1511.04 305.522V300.646C1510.49 300.891 1509.88 301.014 1509.2 301.014C1506.93 301.014 1505.8 299.848 1505.8 297.518V272.31C1505.8 269.12 1505.28 266.544 1504.23 264.582C1503.19 262.558 1501.84 260.994 1500.19 259.89C1498.53 258.786 1496.66 258.05 1494.57 257.682C1492.49 257.252 1490.4 257.038 1488.32 257.038C1485.56 257.038 1483.04 257.344 1480.77 257.958C1478.5 258.571 1476.51 259.522 1474.79 260.81C1473.14 262.098 1471.82 263.754 1470.84 265.778C1469.86 267.802 1469.27 270.194 1469.09 272.954ZM1500 279.946V287.49C1500 289.82 1499.54 291.906 1498.62 293.746C1497.76 295.586 1496.57 297.15 1495.03 298.438C1493.56 299.726 1491.81 300.707 1489.79 301.382C1487.77 302.056 1485.65 302.394 1483.44 302.394C1482.09 302.394 1480.77 302.179 1479.49 301.75C1478.2 301.32 1477.06 300.707 1476.08 299.91C1475.1 299.051 1474.3 298.07 1473.69 296.966C1473.14 295.8 1472.86 294.482 1472.86 293.01C1472.86 290.679 1473.54 288.9 1474.89 287.674C1476.3 286.386 1478.07 285.404 1480.22 284.73C1482.37 284.055 1484.73 283.564 1487.31 283.258C1489.94 282.89 1492.49 282.491 1494.94 282.062C1495.74 281.939 1496.66 281.724 1497.7 281.418C1498.74 281.111 1499.45 280.62 1499.82 279.946H1500ZM1517.44 240.202V305.89H1523.24V240.202H1517.44ZM1543.53 258.418V244.158H1537.73V258.418H1529.45V263.294H1537.73V295.77C1537.67 299.818 1538.41 302.608 1539.94 304.142C1541.47 305.614 1544.17 306.35 1548.04 306.35C1548.9 306.35 1549.75 306.319 1550.61 306.258C1551.47 306.196 1552.33 306.166 1553.19 306.166V301.29C1551.53 301.474 1549.88 301.566 1548.22 301.566C1546.14 301.443 1544.82 300.86 1544.26 299.818C1543.77 298.714 1543.53 297.211 1543.53 295.31V263.294H1553.19V258.418H1543.53ZM1561.46 240.202V305.89H1567.26V278.198C1567.32 275.867 1567.68 273.72 1568.36 271.758C1569.1 269.734 1570.08 268.016 1571.3 266.606C1572.59 265.134 1574.12 263.999 1575.9 263.202C1577.74 262.343 1579.83 261.914 1582.16 261.914C1584.49 261.914 1586.42 262.282 1587.96 263.018C1589.55 263.754 1590.81 264.766 1591.73 266.054C1592.65 267.342 1593.29 268.875 1593.66 270.654C1594.03 272.371 1594.21 274.242 1594.21 276.266V305.89H1600.01V275.346C1600.01 272.524 1599.73 269.979 1599.18 267.71C1598.63 265.44 1597.68 263.539 1596.33 262.006C1594.98 260.411 1593.17 259.184 1590.9 258.326C1588.69 257.467 1585.93 257.038 1582.62 257.038C1579.25 257.038 1576.15 257.927 1573.33 259.706C1570.51 261.423 1568.54 263.723 1567.44 266.606H1567.26V240.202H1561.46Z" fill="white"/>
<path d="M501.384 111.786V208.89H575.096V190.938H522.736V167.138H569.792V150.546H522.736V129.738H574.008V111.786H501.384ZM587.532 138.578V208.89H606.844V172.034C606.844 164.871 608.022 159.748 610.38 156.666C612.737 153.492 616.545 151.906 621.804 151.906C626.428 151.906 629.646 153.356 631.46 156.258C633.273 159.068 634.18 163.375 634.18 169.178V208.89H653.492V165.642C653.492 161.29 653.084 157.346 652.268 153.81C651.542 150.183 650.228 147.146 648.324 144.698C646.42 142.159 643.79 140.21 640.436 138.85C637.172 137.399 632.956 136.674 627.788 136.674C623.708 136.674 619.718 137.626 615.82 139.53C611.921 141.343 608.748 144.29 606.3 148.37H605.892V138.578H587.532ZM718.061 173.53C718.061 176.431 717.789 179.242 717.245 181.962C716.701 184.682 715.794 187.13 714.525 189.306C713.255 191.391 711.533 193.068 709.357 194.338C707.271 195.607 704.642 196.242 701.469 196.242C698.477 196.242 695.893 195.607 693.717 194.338C691.631 192.978 689.863 191.255 688.413 189.17C687.053 186.994 686.055 184.546 685.421 181.826C684.786 179.106 684.469 176.386 684.469 173.666C684.469 170.764 684.741 167.999 685.285 165.37C685.919 162.65 686.871 160.247 688.141 158.162C689.501 156.076 691.269 154.399 693.445 153.13C695.621 151.86 698.295 151.226 701.469 151.226C704.642 151.226 707.271 151.86 709.357 153.13C711.442 154.399 713.119 156.076 714.389 158.162C715.749 160.156 716.701 162.514 717.245 165.234C717.789 167.863 718.061 170.628 718.061 173.53ZM718.333 199.914V208.89H736.693V111.786H717.381V147.146H717.109C714.933 143.7 711.941 141.116 708.133 139.394C704.415 137.58 700.471 136.674 696.301 136.674C691.133 136.674 686.599 137.716 682.701 139.802C678.802 141.796 675.538 144.471 672.909 147.826C670.37 151.18 668.421 155.079 667.061 159.522C665.791 163.874 665.157 168.407 665.157 173.122C665.157 178.018 665.791 182.732 667.061 187.266C668.421 191.799 670.37 195.834 672.909 199.37C675.538 202.815 678.847 205.58 682.837 207.666C686.826 209.66 691.45 210.658 696.709 210.658C701.333 210.658 705.458 209.842 709.085 208.21C712.802 206.487 715.794 203.722 718.061 199.914H718.333ZM774.681 157.482V128.378H791.273C793.721 128.378 796.079 128.559 798.345 128.922C800.612 129.284 802.607 130.01 804.329 131.098C806.052 132.095 807.412 133.546 808.409 135.45C809.497 137.354 810.041 139.847 810.041 142.93C810.041 146.012 809.497 148.506 808.409 150.41C807.412 152.314 806.052 153.81 804.329 154.898C802.607 155.895 800.612 156.575 798.345 156.938C796.079 157.3 793.721 157.482 791.273 157.482H774.681ZM753.329 111.786V208.89H774.681V174.074H797.121C803.196 174.074 808.364 173.212 812.625 171.49C816.887 169.676 820.332 167.319 822.961 164.418C825.681 161.516 827.631 158.207 828.809 154.49C830.079 150.682 830.713 146.828 830.713 142.93C830.713 138.94 830.079 135.087 828.809 131.37C827.631 127.652 825.681 124.343 822.961 121.442C820.332 118.54 816.887 116.228 812.625 114.506C808.364 112.692 803.196 111.786 797.121 111.786H753.329ZM841.184 160.202C841.456 155.668 842.59 151.906 844.584 148.914C846.579 145.922 849.118 143.519 852.2 141.706C855.283 139.892 858.728 138.623 862.536 137.898C866.435 137.082 870.334 136.674 874.232 136.674C877.768 136.674 881.35 136.946 884.976 137.49C888.603 137.943 891.912 138.895 894.904 140.346C897.896 141.796 900.344 143.836 902.248 146.466C904.152 149.004 905.104 152.404 905.104 156.666V193.25C905.104 196.423 905.286 199.46 905.648 202.362C906.011 205.263 906.646 207.439 907.552 208.89H887.968C887.606 207.802 887.288 206.714 887.016 205.626C886.835 204.447 886.699 203.268 886.608 202.09C883.526 205.263 879.899 207.484 875.728 208.754C871.558 210.023 867.296 210.658 862.944 210.658C859.59 210.658 856.462 210.25 853.56 209.434C850.659 208.618 848.12 207.348 845.944 205.626C843.768 203.903 842.046 201.727 840.776 199.098C839.598 196.468 839.008 193.34 839.008 189.714C839.008 185.724 839.688 182.46 841.048 179.922C842.499 177.292 844.312 175.207 846.488 173.666C848.755 172.124 851.294 170.991 854.104 170.266C857.006 169.45 859.907 168.815 862.808 168.362C865.71 167.908 868.566 167.546 871.376 167.274C874.187 167.002 876.68 166.594 878.856 166.05C881.032 165.506 882.755 164.735 884.024 163.738C885.294 162.65 885.883 161.108 885.792 159.114C885.792 157.028 885.43 155.396 884.704 154.218C884.07 152.948 883.163 151.996 881.984 151.362C880.896 150.636 879.582 150.183 878.04 150.002C876.59 149.73 875.003 149.594 873.28 149.594C869.472 149.594 866.48 150.41 864.304 152.042C862.128 153.674 860.859 156.394 860.496 160.202H841.184ZM885.792 174.482C884.976 175.207 883.934 175.796 882.664 176.25C881.486 176.612 880.171 176.93 878.72 177.202C877.36 177.474 875.91 177.7 874.368 177.882C872.827 178.063 871.286 178.29 869.744 178.562C868.294 178.834 866.843 179.196 865.392 179.65C864.032 180.103 862.808 180.738 861.72 181.554C860.723 182.279 859.907 183.231 859.272 184.41C858.638 185.588 858.32 187.084 858.32 188.898C858.32 190.62 858.638 192.071 859.272 193.25C859.907 194.428 860.768 195.38 861.856 196.106C862.944 196.74 864.214 197.194 865.664 197.466C867.115 197.738 868.611 197.874 870.152 197.874C873.96 197.874 876.907 197.239 878.992 195.97C881.078 194.7 882.619 193.204 883.616 191.482C884.614 189.668 885.203 187.855 885.384 186.042C885.656 184.228 885.792 182.778 885.792 181.69V174.482ZM920.094 138.578V208.89H939.406V172.034C939.406 164.871 940.585 159.748 942.942 156.666C945.299 153.492 949.107 151.906 954.366 151.906C958.99 151.906 962.209 153.356 964.022 156.258C965.835 159.068 966.742 163.375 966.742 169.178V208.89H986.054V165.642C986.054 161.29 985.646 157.346 984.83 153.81C984.105 150.183 982.79 147.146 980.886 144.698C978.982 142.159 976.353 140.21 972.998 138.85C969.734 137.399 965.518 136.674 960.35 136.674C956.27 136.674 952.281 137.626 948.382 139.53C944.483 141.343 941.31 144.29 938.862 148.37H938.454V138.578H920.094ZM1050.62 173.53C1050.62 176.431 1050.35 179.242 1049.81 181.962C1049.26 184.682 1048.36 187.13 1047.09 189.306C1045.82 191.391 1044.1 193.068 1041.92 194.338C1039.83 195.607 1037.2 196.242 1034.03 196.242C1031.04 196.242 1028.46 195.607 1026.28 194.338C1024.19 192.978 1022.43 191.255 1020.98 189.17C1019.62 186.994 1018.62 184.546 1017.98 181.826C1017.35 179.106 1017.03 176.386 1017.03 173.666C1017.03 170.764 1017.3 167.999 1017.85 165.37C1018.48 162.65 1019.43 160.247 1020.7 158.162C1022.06 156.076 1023.83 154.399 1026.01 153.13C1028.18 151.86 1030.86 151.226 1034.03 151.226C1037.2 151.226 1039.83 151.86 1041.92 153.13C1044 154.399 1045.68 156.076 1046.95 158.162C1048.31 160.156 1049.26 162.514 1049.81 165.234C1050.35 167.863 1050.62 170.628 1050.62 173.53ZM1050.9 199.914V208.89H1069.26V111.786H1049.94V147.146H1049.67C1047.5 143.7 1044.5 141.116 1040.7 139.394C1036.98 137.58 1033.03 136.674 1028.86 136.674C1023.7 136.674 1019.16 137.716 1015.26 139.802C1011.36 141.796 1008.1 144.471 1005.47 147.826C1002.93 151.18 1000.98 155.079 999.623 159.522C998.354 163.874 997.719 168.407 997.719 173.122C997.719 178.018 998.354 182.732 999.623 187.266C1000.98 191.799 1002.93 195.834 1005.47 199.37C1008.1 202.815 1011.41 205.58 1015.4 207.666C1019.39 209.66 1024.01 210.658 1029.27 210.658C1033.9 210.658 1038.02 209.842 1041.65 208.21C1045.36 206.487 1048.36 203.722 1050.62 199.914H1050.9ZM1131.18 166.186H1099.76C1099.85 164.826 1100.13 163.284 1100.58 161.562C1101.12 159.839 1101.99 158.207 1103.16 156.666C1104.43 155.124 1106.07 153.855 1108.06 152.858C1110.15 151.77 1112.73 151.226 1115.81 151.226C1120.53 151.226 1124.02 152.495 1126.28 155.034C1128.64 157.572 1130.27 161.29 1131.18 166.186ZM1099.76 178.426H1150.49C1150.85 172.986 1150.4 167.772 1149.13 162.786C1147.86 157.799 1145.78 153.356 1142.88 149.458C1140.07 145.559 1136.44 142.476 1132 140.21C1127.55 137.852 1122.34 136.674 1116.36 136.674C1111.01 136.674 1106.11 137.626 1101.67 139.53C1097.32 141.434 1093.55 144.063 1090.38 147.418C1087.21 150.682 1084.76 154.58 1083.04 159.114C1081.31 163.647 1080.45 168.543 1080.45 173.802C1080.45 179.242 1081.27 184.228 1082.9 188.762C1084.62 193.295 1087.03 197.194 1090.11 200.458C1093.19 203.722 1096.95 206.26 1101.4 208.074C1105.84 209.796 1110.83 210.658 1116.36 210.658C1124.33 210.658 1131.13 208.844 1136.76 205.218C1142.38 201.591 1146.55 195.562 1149.27 187.13H1132.27C1131.63 189.306 1129.91 191.391 1127.1 193.386C1124.29 195.29 1120.93 196.242 1117.04 196.242C1111.6 196.242 1107.43 194.836 1104.52 192.026C1101.62 189.215 1100.04 184.682 1099.76 178.426ZM1162.49 138.578V208.89H1181.8V168.09C1181.8 164.644 1182.3 161.879 1183.3 159.794C1184.29 157.618 1185.47 155.986 1186.83 154.898C1188.28 153.719 1189.73 152.948 1191.19 152.586C1192.73 152.132 1193.95 151.906 1194.86 151.906C1197.94 151.906 1200.25 152.45 1201.79 153.538C1203.43 154.535 1204.56 155.895 1205.19 157.618C1205.92 159.34 1206.33 161.244 1206.42 163.33C1206.51 165.324 1206.55 167.364 1206.55 169.45V208.89H1225.87V169.722C1225.87 167.546 1226 165.415 1226.27 163.33C1226.64 161.154 1227.27 159.25 1228.18 157.618C1229.17 155.895 1230.49 154.535 1232.12 153.538C1233.84 152.45 1236.07 151.906 1238.79 151.906C1241.51 151.906 1243.64 152.359 1245.18 153.266C1246.81 154.172 1248.03 155.396 1248.85 156.938C1249.67 158.479 1250.16 160.292 1250.35 162.378C1250.53 164.463 1250.62 166.684 1250.62 169.042V208.89H1269.93V161.834C1269.93 157.3 1269.29 153.447 1268.03 150.274C1266.76 147.01 1264.99 144.38 1262.72 142.386C1260.45 140.391 1257.73 138.94 1254.56 138.034C1251.39 137.127 1247.94 136.674 1244.23 136.674C1239.33 136.674 1235.07 137.852 1231.44 140.21C1227.91 142.567 1225.09 145.287 1223.01 148.37C1221.11 144.018 1218.29 140.98 1214.58 139.258C1210.95 137.535 1206.92 136.674 1202.47 136.674C1197.85 136.674 1193.72 137.671 1190.1 139.666C1186.56 141.66 1183.52 144.471 1180.99 148.098H1180.71V138.578H1162.49ZM1305.05 127.698V111.786H1285.74V127.698H1305.05ZM1285.74 138.578V208.89H1305.05V138.578H1285.74ZM1368.13 163.33H1387.03C1386.76 158.796 1385.67 154.898 1383.77 151.634C1381.87 148.279 1379.37 145.514 1376.29 143.338C1373.3 141.071 1369.85 139.394 1365.95 138.306C1362.15 137.218 1358.16 136.674 1353.99 136.674C1348.27 136.674 1343.2 137.626 1338.75 139.53C1334.31 141.434 1330.55 144.108 1327.47 147.554C1324.38 150.908 1322.03 154.943 1320.39 159.658C1318.85 164.282 1318.08 169.314 1318.08 174.754C1318.08 180.012 1318.94 184.863 1320.67 189.306C1322.39 193.658 1324.79 197.42 1327.87 200.594C1330.96 203.767 1334.67 206.26 1339.03 208.074C1343.47 209.796 1348.32 210.658 1353.58 210.658C1362.92 210.658 1370.58 208.21 1376.56 203.314C1382.55 198.418 1386.17 191.3 1387.44 181.962H1368.81C1368.18 186.314 1366.59 189.804 1364.05 192.434C1361.6 194.972 1358.07 196.242 1353.44 196.242C1350.45 196.242 1347.91 195.562 1345.83 194.202C1343.74 192.842 1342.06 191.119 1340.79 189.034C1339.62 186.858 1338.75 184.455 1338.21 181.826C1337.67 179.196 1337.39 176.612 1337.39 174.074C1337.39 171.444 1337.67 168.815 1338.21 166.186C1338.75 163.466 1339.66 161.018 1340.93 158.842C1342.29 156.575 1344.01 154.762 1346.1 153.402C1348.18 151.951 1350.77 151.226 1353.85 151.226C1362.1 151.226 1366.86 155.26 1368.13 163.33ZM1413.31 186.042H1394.95C1395.13 190.756 1396.18 194.7 1398.08 197.874C1400.07 200.956 1402.57 203.45 1405.56 205.354C1408.64 207.258 1412.13 208.618 1416.03 209.434C1419.93 210.25 1423.92 210.658 1428 210.658C1431.99 210.658 1435.89 210.25 1439.7 209.434C1443.59 208.708 1447.04 207.394 1450.03 205.49C1453.02 203.586 1455.43 201.092 1457.24 198.01C1459.14 194.836 1460.1 190.938 1460.1 186.314C1460.1 183.05 1459.46 180.33 1458.19 178.154C1456.92 175.887 1455.25 174.028 1453.16 172.578C1451.07 171.036 1448.67 169.812 1445.95 168.906C1443.32 167.999 1440.6 167.228 1437.79 166.594C1435.07 165.959 1432.4 165.37 1429.77 164.826C1427.14 164.282 1424.78 163.692 1422.7 163.058C1420.7 162.332 1419.07 161.426 1417.8 160.338C1416.53 159.25 1415.9 157.844 1415.9 156.122C1415.9 154.671 1416.26 153.538 1416.98 152.722C1417.71 151.815 1418.57 151.135 1419.57 150.682C1420.66 150.228 1421.83 149.956 1423.1 149.866C1424.37 149.684 1425.55 149.594 1426.64 149.594C1430.09 149.594 1433.08 150.274 1435.62 151.634C1438.15 152.903 1439.56 155.396 1439.83 159.114H1458.19C1457.83 154.762 1456.7 151.18 1454.79 148.37C1452.98 145.468 1450.67 143.156 1447.86 141.434C1445.05 139.711 1441.83 138.487 1438.2 137.762C1434.66 137.036 1430.99 136.674 1427.18 136.674C1423.38 136.674 1419.66 137.036 1416.03 137.762C1412.41 138.396 1409.14 139.575 1406.24 141.298C1403.34 142.93 1400.98 145.196 1399.17 148.098C1397.45 150.999 1396.58 154.716 1396.58 159.25C1396.58 162.332 1397.22 164.962 1398.49 167.138C1399.76 169.223 1401.43 170.991 1403.52 172.442C1405.61 173.802 1407.96 174.935 1410.59 175.842C1413.31 176.658 1416.08 177.383 1418.89 178.018C1425.78 179.468 1431.13 180.919 1434.94 182.37C1438.83 183.82 1440.78 185.996 1440.78 188.898C1440.78 190.62 1440.38 192.071 1439.56 193.25C1438.74 194.338 1437.7 195.244 1436.43 195.97C1435.25 196.604 1433.89 197.103 1432.35 197.466C1430.9 197.738 1429.5 197.874 1428.14 197.874C1426.23 197.874 1424.37 197.647 1422.56 197.194C1420.84 196.74 1419.3 196.06 1417.94 195.154C1416.58 194.156 1415.44 192.932 1414.54 191.482C1413.72 189.94 1413.31 188.127 1413.31 186.042Z" fill="white"/>
</g>
<defs>
<clipPath id="clip0">
<rect width="1959" height="432" fill="white" transform="translate(0 0.889648)"/>
</clipPath>
</defs>
</svg>
