<svg width="1959" height="433" viewBox="0 0 1959 433" fill="none" xmlns="http://www.w3.org/2000/svg">
<g clip-path="url(#clip0)">
<path fill-rule="evenodd" clip-rule="evenodd" d="M280.732 63.3242C278.663 63.2066 276.592 63.1164 274.517 63.0535C280.469 75.1225 285.718 87.4457 290.263 99.9634C294.4 99.6786 298.464 99.3165 302.421 98.8789C310.756 97.9574 318.459 96.7192 325.297 95.2202C312.645 82.7705 297.772 71.9452 280.732 63.3242ZM267.389 57.835L267.389 57.835L267.389 136.54L267.389 111.647V106.738H267.389V100.738L267.389 81.8416V62.9455L267.389 57.835ZM286.1 100.222C282.341 89.9736 278.104 79.8581 273.389 69.9094L273.389 100.685C277.669 100.61 281.916 100.455 286.1 100.222ZM273.389 106.686C278.382 106.6 283.335 106.407 288.201 106.11C294.279 123.611 298.974 141.478 302.284 159.547C292.753 159.988 283.097 160.248 273.389 160.325V111.647V106.686ZM273.389 166.325C283.447 166.247 293.451 165.972 303.324 165.505C306.386 183.956 308.01 202.599 308.19 221.257H273.389V166.325ZM267.389 221.257V166.348H267.389L267.389 221.257H267.389ZM267.389 225.257L267.389 365.087L267.389 347.673V341.673L267.389 335.361V283.153V277.153L267.389 231.919V225.257H267.389ZM273.389 225.257H308.207C308.182 242.879 306.871 260.504 304.269 277.986C294.078 277.523 283.759 277.251 273.389 277.175L273.389 231.919V225.257ZM312.207 225.257C312.183 242.942 310.876 260.631 308.284 278.179C322.926 278.92 337.28 280.059 351.117 281.584C356.754 282.205 362.282 282.888 367.687 283.63C374.436 264.78 377.892 245.019 378.138 225.257H312.207ZM382.139 225.257C381.896 245.203 378.457 265.149 371.736 284.2C389.778 286.804 406.384 290.076 421.046 293.924C421.676 292.515 422.287 291.096 422.879 289.667C431.336 269.247 435.69 247.36 435.69 225.257L382.139 225.257ZM435.642 221.257H382.145C381.949 200.047 378.143 178.905 370.827 158.911C386.073 156.546 400.145 153.663 412.676 150.326C414.29 149.897 415.876 149.46 417.433 149.017C419.397 152.883 421.214 156.829 422.879 160.847C430.826 180.035 435.149 200.517 435.642 221.257ZM378.145 221.257H312.19C312.011 202.532 310.395 183.824 307.345 165.304C320.558 164.606 333.513 163.563 346.018 162.184C353.137 161.399 360.069 160.51 366.786 159.521C374.127 179.299 377.947 200.243 378.145 221.257ZM273.389 283.175C283.445 283.249 293.449 283.509 303.33 283.95C300.056 303.672 295.133 323.19 288.554 342.292C284.224 342.035 279.83 341.858 275.402 341.761C274.732 341.746 274.061 341.733 273.389 341.722L273.389 335.361V283.175ZM350.46 287.548C336.547 286.015 322.099 284.874 307.353 284.14C304.102 303.884 299.216 323.427 292.69 342.562C296.766 342.854 300.775 343.216 304.691 343.648C305.43 343.729 306.165 343.813 306.895 343.9C314.364 344.781 321.376 345.908 327.77 347.251C344.615 330.104 357.155 310.383 365.511 289.389C360.595 288.726 355.575 288.112 350.46 287.548ZM275.363 347.761C279.097 347.844 282.806 347.985 286.468 348.183C282.621 358.756 278.261 369.193 273.389 379.459L273.389 367.621V347.723C274.048 347.734 274.706 347.747 275.363 347.761ZM300.35 386.012C294.244 386.608 287.926 387.036 281.496 387.291L299.351 375.617C309.671 368.87 319.003 361.384 327.36 353.298C329.95 353.854 332.424 354.446 334.77 355.071C335.318 355.217 335.858 355.364 336.388 355.512C344.343 357.738 350.305 360.235 354.2 362.738C354.373 362.85 354.54 362.96 354.701 363.068C357.113 364.691 358.132 365.95 358.56 366.734C350.097 372.188 341.141 376.885 331.795 380.757C331.459 380.896 331.123 381.034 330.786 381.171C322.951 383.026 313.914 384.54 304.033 385.63C302.815 385.764 301.587 385.892 300.35 386.012ZM297.162 372.269C306.445 366.2 314.911 359.519 322.569 352.333C317.468 351.373 311.985 350.542 306.195 349.858C305.479 349.774 304.758 349.692 304.033 349.612C299.675 349.131 295.195 348.738 290.631 348.434C286.543 359.783 281.873 370.98 276.619 381.98L274.035 387.39L297.162 372.269ZM336.314 349.273C335.027 348.93 333.706 348.598 332.353 348.276C348.96 330.907 361.335 311.048 369.595 289.954C387.507 292.499 403.959 295.697 418.456 299.45C410.315 316.028 399.49 331.177 386.396 344.272C379.345 351.322 371.7 357.715 363.556 363.386C362.42 361.558 360.55 359.764 357.969 358.036C357.797 357.921 357.622 357.806 357.443 357.691C352.851 354.74 346.254 352.041 337.989 349.73C337.438 349.576 336.879 349.423 336.314 349.273ZM411.133 144.528C398.485 147.896 384.185 150.806 368.621 153.179C360.695 133.57 349.323 115.192 334.604 99.1013C342.67 96.8632 349.1 94.2408 353.556 91.3689C356.854 89.2435 359.026 87.0107 360.024 84.7349C369.496 90.9798 378.335 98.1815 386.396 106.243C397.496 117.344 406.967 129.922 414.553 143.595C413.43 143.909 412.289 144.22 411.133 144.528ZM303.081 104.843C313.059 103.739 322.234 102.183 330.202 100.245C345.067 116.104 356.549 134.312 364.545 153.785C358.333 154.682 351.93 155.496 345.36 156.22C332.748 157.611 319.665 158.658 306.314 159.35C303.027 141.258 298.367 123.364 292.337 105.83C295.983 105.56 299.571 105.231 303.081 104.843ZM331.791 93.6488C331.167 93.8155 330.532 93.9798 329.889 94.1416C318.584 82.6991 305.484 72.5456 290.628 64.0971C308.956 65.9198 326.927 69.8928 344.022 75.9229C345.08 76.2961 346.134 76.6769 347.183 77.0652C349.642 78.3891 352.066 79.7735 354.454 81.2169C354.638 81.5883 354.656 81.8032 354.656 81.8416C354.656 81.9556 354.497 83.6246 350.306 86.3255C346.364 88.866 340.168 91.4127 331.791 93.6488Z" fill="white"/>
<mask id="mask0" mask-type="alpha" maskUnits="userSpaceOnUse" x="210" y="22" width="45" height="169">
<path d="M210.488 28.5101C224.944 24.5677 239.862 22.5736 254.846 22.5807L254.766 190.892L210.488 28.5101Z" fill="#130947"/>
</mask>
<g mask="url(#mask0)">
<path fill-rule="evenodd" clip-rule="evenodd" d="M86.4889 188.088H129.52C129.376 165.818 133.419 143.57 141.521 122.723C130.446 120.747 120.094 118.484 110.621 115.963C108.661 115.441 106.743 114.909 104.867 114.367C102.847 118.324 100.982 122.365 99.2766 126.483C91.1766 146.039 86.8413 166.94 86.4889 188.088ZM106.87 110.564C108.449 111.015 110.06 111.459 111.704 111.896C121.298 114.451 131.829 116.741 143.128 118.735C151.786 97.9845 164.529 78.7372 181.226 62.3906C176.583 60.7338 172.721 58.9252 169.741 57.005C166.156 54.6945 163.902 52.2572 163.04 49.7757C153.224 56.1567 144.078 63.5598 135.76 71.8784C124.299 83.3398 114.576 96.3744 106.87 110.564ZM184.842 37.7951C178.648 40.6245 172.641 43.8228 166.852 47.3694C166.85 47.4067 166.849 47.4428 166.849 47.4777C166.849 48.5341 167.681 50.6716 172.02 53.468C175.063 55.4291 179.299 57.3485 184.66 59.1213C198.06 46.7182 213.845 36.1265 231.955 28.0038C215.861 29.6416 200.041 32.9258 184.842 37.7951ZM253.617 22.585C254 22.5838 254.383 22.583 254.766 22.5824L254.766 22.5811C254.383 22.5811 254 22.5824 253.617 22.585ZM86.4655 190.893C86.4656 212.996 90.8188 234.882 99.2766 255.303C99.8828 256.766 100.509 258.22 101.155 259.664C113.402 256.433 127.015 253.606 141.695 251.236C134.028 231.871 130.017 211.397 129.56 190.893H86.4655ZM102.951 263.543C115.133 260.36 128.693 257.571 143.336 255.234C152.7 277.243 166.872 297.699 186.005 314.983C177.084 317.377 170.001 320.211 165.153 323.327C162.194 325.229 160.102 327.213 158.91 329.237C150.65 323.513 142.899 317.047 135.76 309.907C122.261 296.407 111.173 280.725 102.951 263.543ZM162.413 331.6C163.059 330.371 164.49 328.755 167.427 326.867C171.804 324.054 178.512 321.332 187.365 318.975C188.173 318.76 188.995 318.549 189.832 318.342C195.563 323.226 201.711 327.835 208.28 332.13L242.935 354.788C234.502 354.5 226.239 353.915 218.367 353.047C212.63 352.415 207.169 351.639 202.053 350.736C198.109 349.435 194.208 347.987 190.36 346.392C180.577 342.34 171.223 337.383 162.413 331.6ZM236.809 358.244C241.326 358.598 245.892 358.779 250.499 358.779C251.926 358.779 253.348 358.762 254.766 358.727L254.766 359.204C248.756 359.204 242.762 358.882 236.809 358.244ZM209.814 329.782C203.948 325.946 198.422 321.855 193.235 317.539C200.716 315.856 209.189 314.478 218.366 313.466C221.455 313.126 224.604 312.829 227.8 312.576L247.916 354.693L209.814 329.782ZM217.905 309.284C207.358 310.447 197.671 312.093 189.278 314.145C169.948 297.054 155.641 276.713 146.201 254.785C154.465 253.512 163.062 252.381 171.94 251.403C182.133 250.279 192.611 249.367 203.282 248.669C207.418 265.615 213.314 282.245 220.976 298.288L225.86 308.513C223.172 308.739 220.518 308.996 217.905 309.284ZM230.802 312.353L251 354.642L251 311.541C244.165 311.621 237.395 311.894 230.802 312.353ZM223.507 297.078L228.855 308.275C236.068 307.736 243.498 307.419 251 307.333V247.008C235.856 247.086 220.817 247.584 206.125 248.489C210.21 265.081 216.002 281.365 223.507 297.078ZM198.804 190.893C199.011 208.819 201.121 226.736 205.14 244.334C220.152 243.395 235.523 242.879 251 242.8L251.701 242.797L251.701 190.893H198.804ZM195.983 188.088C195.973 168.624 198.183 149.168 202.603 130.111C194.002 129.496 185.543 128.731 177.28 127.82C165.772 126.551 154.751 125.01 144.342 123.218C136.228 143.89 132.179 165.978 132.325 188.088H195.983ZM195.999 190.893C196.205 208.878 198.305 226.855 202.305 244.517C191.816 245.212 181.512 246.115 171.479 247.22C162.182 248.245 153.182 249.436 144.539 250.785C136.852 231.579 132.828 211.252 132.367 190.893H195.999ZM198.788 188.088H251.701L251.701 131.973C236.065 131.887 220.544 131.327 205.437 130.308C200.997 149.296 198.778 168.688 198.788 188.088ZM189.959 65.0819C187.947 64.5448 186.032 63.9844 184.218 63.4025C167.451 79.5392 154.656 98.6207 145.966 119.227C156.012 120.936 166.642 122.414 177.741 123.638C186.172 124.568 194.813 125.344 203.601 125.964C208.32 107.059 215.227 88.5768 224.316 70.902C222.939 70.7696 221.572 70.6285 220.217 70.4787C208.901 69.2275 198.62 67.3937 189.959 65.0819ZM191.044 61.0164C189.912 60.7143 188.817 60.4059 187.759 60.0919C201.904 47.2496 218.692 36.4379 238.052 28.4306L240.865 27.2673C243.05 27.1283 245.238 27.0195 247.429 26.9411L226.423 66.8723C224.487 66.6976 222.571 66.5056 220.679 66.2964C209.521 65.0626 199.454 63.2614 191.044 61.0164ZM251.701 26.8267C251.35 26.8329 250.999 26.8399 250.648 26.8477L229.457 67.1305C236.676 67.7082 244.147 68.0482 251.701 68.1403L251.701 26.8267ZM251.701 72.3484C243.414 72.2486 235.219 71.854 227.332 71.1764C218.163 88.8116 211.198 107.27 206.444 126.158C221.225 127.14 236.405 127.681 251.701 127.765L251.701 72.3484Z" fill="white"/>
</g>
<mask id="mask1" mask-type="alpha" maskUnits="userSpaceOnUse" x="85" y="7" width="143" height="163">
<path d="M85.8623 78.1119C107.599 44.3101 140.712 19.4021 179.214 7.89167L227.417 169.152L85.8623 78.1119Z" fill="#130947"/>
</mask>
<g mask="url(#mask1)">
<path fill-rule="evenodd" clip-rule="evenodd" d="M227.417 0.84082C227.037 0.84082 226.656 0.842113 226.275 0.844698C226.656 0.843571 227.037 0.842725 227.417 0.842161L227.417 0.84082ZM163.012 13.6528C183.079 5.34009 204.562 0.992094 226.275 0.844698C226.272 0.844705 226.27 0.844713 226.268 0.84472C204.557 0.993055 183.077 5.34101 163.012 13.6528ZM157.494 16.0548C172.693 11.1855 188.513 7.90128 204.606 6.26352C186.497 14.3863 170.711 24.9779 157.311 37.381C151.95 35.6083 147.715 33.6888 144.672 31.7277C140.332 28.9313 139.501 26.7938 139.501 25.7374C139.501 25.7025 139.502 25.6665 139.503 25.6292C145.293 22.0826 151.3 18.8842 157.494 16.0548ZM135.691 28.0354C136.553 30.5169 138.807 32.9543 142.393 35.2648C145.372 37.1849 149.234 38.9935 153.877 40.6504C137.18 56.9969 124.437 76.2443 115.779 96.9946C104.48 95.0009 93.9495 92.7104 84.3551 90.1561C82.7117 89.7186 81.1003 89.2745 79.5212 88.8242C87.2274 74.6342 96.9503 61.5995 108.411 50.1381C116.729 41.8196 125.876 34.4164 135.691 28.0354ZM77.5184 92.6271C79.3943 93.1686 81.3127 93.7005 83.2727 94.2223C92.7451 96.7441 103.098 99.0071 114.172 100.983C106.071 121.83 102.027 144.078 102.171 166.348H59.1403C59.4927 145.2 63.828 124.299 71.928 104.742C72.0346 104.485 72.1418 104.228 72.2496 103.971C73.8671 100.12 75.6249 96.3366 77.5184 92.6271ZM135.065 309.86C135.71 308.631 137.141 307.015 140.079 305.127C144.455 302.314 151.163 299.592 160.016 297.235C160.824 297.02 161.647 296.809 162.484 296.601C168.214 301.486 174.362 306.095 180.931 310.39L215.586 333.048C207.153 332.76 198.89 332.175 191.018 331.307C185.281 330.675 179.82 329.899 174.704 328.995C170.76 327.695 166.86 326.246 163.012 324.652C153.229 320.6 143.874 315.643 135.065 309.86ZM131.561 307.497C132.753 305.473 134.845 303.489 137.804 301.587C142.652 298.471 149.736 295.637 158.656 293.243C139.524 275.959 125.352 255.502 115.988 233.494C101.344 235.831 87.7839 238.619 75.6027 241.803C83.824 258.985 94.9121 274.667 108.411 288.167C115.551 295.307 123.301 301.773 131.561 307.497ZM68.9492 225.839C62.4499 207.667 59.117 188.493 59.1169 169.153H102.212C102.668 189.657 106.68 210.13 114.346 229.496C99.6663 231.866 86.0538 234.693 73.8069 237.924C73.1605 236.48 72.5341 235.026 71.928 233.563C70.8708 231.01 69.8777 228.435 68.9492 225.839ZM182.466 308.042C176.599 304.206 171.074 300.115 165.886 295.798C173.368 294.116 181.841 292.738 191.018 291.726C194.107 291.386 197.256 291.089 200.452 290.836L220.567 332.953L182.466 308.042ZM190.557 287.544C180.01 288.707 170.322 290.353 161.93 292.404C142.6 275.313 128.292 254.973 118.852 233.045C127.116 231.772 135.713 230.641 144.592 229.662C154.784 228.539 165.262 227.626 175.933 226.929C180.069 243.874 185.966 260.505 193.627 276.547L198.511 286.773C195.823 286.999 193.169 287.256 190.557 287.544ZM203.454 290.613L223.651 332.901L223.651 289.801C216.817 289.88 210.046 290.153 203.454 290.613ZM196.158 275.338L201.506 286.535C208.719 285.996 216.15 285.679 223.651 285.593V225.268C208.507 225.346 193.469 225.844 178.777 226.748C182.862 243.341 188.654 259.625 196.158 275.338ZM171.456 169.153C171.663 187.079 173.773 204.996 177.791 222.594C192.803 221.655 208.175 221.139 223.651 221.06L224.352 221.057L224.352 169.153H171.456ZM168.634 166.348C168.625 146.883 170.834 127.428 175.254 108.371C166.653 107.756 158.194 106.991 149.931 106.08C138.424 104.811 127.402 103.269 116.993 101.477C108.88 122.15 104.831 144.238 104.977 166.348H168.634ZM168.651 169.153C168.856 187.138 170.956 205.115 174.956 222.776C164.467 223.472 154.163 224.374 144.131 225.48C134.833 226.504 125.834 227.696 117.191 229.044C109.503 209.839 105.48 189.512 105.018 169.153H168.651ZM171.439 166.348H224.352L224.352 110.232C208.716 110.147 193.195 109.587 178.088 108.568C173.649 127.556 171.43 146.947 171.439 166.348ZM162.61 43.3416C160.598 42.8045 158.683 42.2441 156.869 41.6623C140.102 57.7989 127.307 76.8804 118.617 97.4864C128.664 99.1958 139.293 100.674 150.392 101.898C158.824 102.827 167.464 103.604 176.252 104.223C180.971 85.3185 187.878 66.8365 196.967 49.1618C195.59 49.0294 194.223 48.8883 192.868 48.7384C181.553 47.4873 171.271 45.6534 162.61 43.3416ZM163.695 39.2762C162.563 38.974 161.468 38.6656 160.411 38.3517C174.555 25.5094 191.344 14.6976 210.704 6.69038L213.516 5.52706C215.701 5.38805 217.889 5.27924 220.081 5.2008L199.075 45.1321C197.139 44.9574 195.223 44.7653 193.33 44.5561C182.172 43.3223 172.106 41.5212 163.695 39.2762ZM224.352 5.08645C224.001 5.09268 223.65 5.09969 223.299 5.10748L202.108 45.3902C209.327 45.968 216.798 46.3079 224.352 46.4001L224.352 5.08645ZM224.352 50.6082C216.065 50.5083 207.87 50.1138 199.983 49.4361C190.815 67.0714 183.85 85.5294 179.096 104.418C193.877 105.4 209.057 105.941 224.352 106.025L224.352 50.6082Z" fill="white"/>
</g>
<mask id="mask2" mask-type="alpha" maskUnits="userSpaceOnUse" x="55" y="107" width="168" height="92">
<path d="M55.6901 176.319C58.9763 151.719 67.6617 128.15 81.1241 107.301L222.509 198.606L55.6901 176.319Z" fill="#130947"/>
</mask>
<g mask="url(#mask2)">
<path fill-rule="evenodd" clip-rule="evenodd" d="M222.509 30.2949C222.128 30.2949 221.747 30.2962 221.366 30.2988C221.747 30.2977 222.128 30.2968 222.509 30.2963L222.509 30.2949ZM158.103 43.1069C178.17 34.7942 199.653 30.4462 221.366 30.2988C221.364 30.2988 221.361 30.2988 221.359 30.2988C199.648 30.4472 178.168 34.7951 158.103 43.1069ZM152.585 45.5089C167.784 40.6396 183.604 37.3554 199.698 35.7176C181.588 43.8404 165.802 54.432 152.403 66.8351C147.041 65.0624 142.806 63.1429 139.763 61.1818C135.424 58.3854 134.592 56.2479 134.592 55.1915C134.592 55.1566 134.593 55.1206 134.595 55.0833C140.384 51.5367 146.391 48.3383 152.585 45.5089ZM130.783 57.4895C131.644 59.971 133.899 62.4084 137.484 64.7189C140.464 66.639 144.325 68.4476 148.968 70.1045C132.271 86.451 119.528 105.698 110.87 126.449C99.5715 124.455 89.0408 122.165 79.4464 119.61C77.803 119.173 76.1916 118.729 74.6125 118.278C82.3187 104.088 92.0417 91.0536 103.502 79.5922C111.82 71.2737 120.967 63.8705 130.783 57.4895ZM72.6097 122.081C74.4856 122.623 76.404 123.155 78.364 123.676C87.8364 126.198 98.189 128.461 109.264 130.437C101.162 151.284 97.1186 173.532 97.2627 195.802H54.2316C54.584 174.654 58.9193 153.753 67.0193 134.196C67.1259 133.939 67.2331 133.682 67.3409 133.425C68.9584 129.574 70.7162 125.791 72.6097 122.081ZM130.156 339.314C130.801 338.085 132.232 336.469 135.17 334.581C139.547 331.768 146.255 329.046 155.107 326.689C155.915 326.474 156.738 326.263 157.575 326.055C163.306 330.94 169.454 335.549 176.022 339.844L210.678 362.502C202.245 362.214 193.981 361.629 186.109 360.761C180.373 360.129 174.911 359.353 169.795 358.45C165.851 357.149 161.951 355.7 158.103 354.106C148.32 350.054 138.966 345.097 130.156 339.314ZM126.652 336.951C127.845 334.927 129.936 332.943 132.895 331.041C137.744 327.925 144.827 325.091 153.747 322.697C134.615 305.413 120.443 284.956 111.079 262.948C96.4352 265.285 82.8752 268.073 70.694 271.257C78.9153 288.439 90.0034 304.121 103.502 317.621C110.642 324.761 118.393 331.227 126.652 336.951ZM64.0405 255.293C57.5412 237.121 54.2083 217.947 54.2082 198.607H97.303C97.7597 219.111 101.771 239.584 109.437 258.95C94.7576 261.32 81.1452 264.147 68.8982 267.378C68.2518 265.934 67.6254 264.48 67.0193 263.017C65.9621 260.464 64.969 257.889 64.0405 255.293ZM177.557 337.496C171.69 333.66 166.165 329.569 160.978 325.252C168.459 323.57 176.932 322.192 186.109 321.18C189.198 320.84 192.347 320.543 195.543 320.29L215.658 362.407L177.557 337.496ZM185.648 316.998C175.101 318.161 165.414 319.807 157.021 321.858C137.691 304.767 123.384 284.427 113.943 262.499C122.208 261.226 130.805 260.095 139.683 259.117C149.875 257.993 160.354 257.08 171.024 256.383C175.161 273.329 181.057 289.959 188.719 306.001L193.602 316.227C190.915 316.453 188.261 316.71 185.648 316.998ZM198.545 320.067L218.742 362.356L218.742 319.255C211.908 319.335 205.137 319.607 198.545 320.067ZM191.25 304.792L196.597 315.989C203.81 315.45 211.241 315.133 218.742 315.047V254.722C203.599 254.8 188.56 255.298 173.868 256.202C177.953 272.795 183.745 289.079 191.25 304.792ZM166.547 198.607C166.754 216.533 168.864 234.45 172.882 252.048C187.894 251.109 203.266 250.593 218.742 250.514L219.443 250.511L219.443 198.607H166.547ZM163.725 195.802C163.716 176.337 165.925 156.882 170.345 137.825C161.745 137.21 153.285 136.445 145.022 135.534C133.515 134.265 122.493 132.723 112.084 130.931C103.971 151.604 99.9219 173.692 100.068 195.802H163.725ZM163.742 198.607C163.947 216.592 166.047 234.569 170.047 252.23C159.558 252.926 149.254 253.829 139.222 254.934C129.925 255.959 120.925 257.15 112.282 258.499C104.594 239.293 100.571 218.966 100.109 198.607H163.742ZM166.53 195.802H219.443L219.444 139.687C203.807 139.601 188.287 139.041 173.18 138.022C168.74 157.01 166.521 176.401 166.53 195.802ZM157.702 72.7957C155.69 72.2586 153.774 71.6982 151.96 71.1164C135.194 87.253 122.399 106.335 113.709 126.941C123.755 128.65 134.385 130.128 145.483 131.352C153.915 132.281 162.555 133.058 171.344 133.678C176.062 114.773 182.97 96.2906 192.059 78.6159C190.681 78.4835 189.315 78.3424 187.959 78.1925C176.644 76.9414 166.362 75.1075 157.702 72.7957ZM158.787 68.7303C157.655 68.4281 156.56 68.1197 155.502 67.8058C169.647 54.9635 186.435 44.1517 205.795 36.1445L208.608 34.9812C210.792 34.8421 212.981 34.7333 215.172 34.6549L194.166 74.5862C192.23 74.4115 190.314 74.2194 188.422 74.0102C177.263 72.7764 167.197 70.9753 158.787 68.7303ZM219.443 34.5405C219.092 34.5468 218.741 34.5538 218.39 34.5616L197.2 74.8443C204.418 75.4221 211.889 75.762 219.443 75.8542L219.443 34.5405ZM219.444 80.0623C211.157 79.9624 202.962 79.5679 195.075 78.8902C185.906 96.5255 178.941 114.984 174.187 133.872C188.968 134.854 204.148 135.395 219.444 135.479L219.444 80.0623Z" fill="white"/>
</g>
<mask id="mask3" mask-type="alpha" maskUnits="userSpaceOnUse" x="67" y="207" width="169" height="149">
<path d="M124.732 355.19C104.067 337.028 88.1694 314.077 78.4304 288.346C68.6914 262.615 65.4082 234.889 68.8681 207.595L235.832 228.763L124.732 355.19Z" fill="#130947"/>
</mask>
<g mask="url(#mask3)">
<path fill-rule="evenodd" clip-rule="evenodd" d="M235.833 60.4512C235.452 60.4512 235.071 60.4525 234.69 60.455C235.071 60.4539 235.452 60.4531 235.833 60.4525L235.833 60.4512ZM171.427 73.2631C191.494 64.9504 212.977 60.6024 234.69 60.455C234.688 60.4551 234.685 60.4551 234.683 60.4551C212.972 60.6034 191.492 64.9514 171.427 73.2631ZM165.909 75.6651C181.108 70.7958 196.928 67.5116 213.021 65.8739C194.912 73.9966 179.126 84.5883 165.726 96.9914C160.365 95.2186 156.13 93.2992 153.087 91.3381C148.748 88.5417 147.916 86.4042 147.916 85.3478C147.916 85.3129 147.917 85.2768 147.919 85.2396C153.708 81.6929 159.715 78.4945 165.909 75.6651ZM144.106 87.6458C144.968 90.1273 147.222 92.5646 150.808 94.8751C153.787 96.7953 157.649 98.6039 162.292 100.261C145.595 116.607 132.852 135.855 124.194 156.605C112.895 154.611 102.365 152.321 92.7701 149.766C91.1267 149.329 89.5153 148.885 87.9362 148.435C95.6424 134.245 105.365 121.21 116.826 109.748C125.144 101.43 134.291 94.0268 144.106 87.6458ZM85.9335 152.237C87.8093 152.779 89.7277 153.311 91.6877 153.833C101.16 156.354 111.513 158.617 122.587 160.593C114.486 181.44 110.442 203.688 110.586 225.958H67.5553C67.9077 204.81 72.2431 183.909 80.3431 164.353C80.4496 164.095 80.5568 163.838 80.6647 163.582C82.2821 159.731 84.04 155.947 85.9335 152.237ZM143.48 369.47C144.125 368.242 145.556 366.625 148.494 364.737C152.87 361.924 159.578 359.202 168.431 356.845C169.239 356.63 170.062 356.419 170.899 356.212C176.629 361.096 182.777 365.705 189.346 370L224.001 392.658C215.569 392.37 207.305 391.785 199.433 390.917C193.696 390.285 188.235 389.509 183.119 388.606C179.175 387.305 175.275 385.857 171.427 384.263C161.644 380.21 152.289 375.253 143.48 369.47ZM139.976 367.107C141.169 365.083 143.26 363.099 146.219 361.197C151.067 358.081 158.151 355.247 167.071 352.853C147.939 335.569 133.767 315.113 124.403 293.104C109.759 295.441 96.1989 298.23 84.0177 301.413C92.239 318.595 103.327 334.277 116.826 347.777C123.966 354.917 131.716 361.383 139.976 367.107ZM77.3642 285.449C70.8649 267.278 67.532 248.103 67.5319 228.763H110.627C111.083 249.267 115.095 269.741 122.761 289.106C108.081 291.476 94.4689 294.303 82.2219 297.534C81.5756 296.09 80.9492 294.636 80.343 293.173C79.2858 290.62 78.2927 288.045 77.3642 285.449ZM190.881 367.652C185.014 363.816 179.489 359.725 174.301 355.409C181.783 353.727 190.256 352.349 199.433 351.337C202.522 350.996 205.671 350.699 208.867 350.446L228.982 392.563L190.881 367.652ZM198.972 347.154C188.425 348.317 178.737 349.963 170.345 352.015C151.015 334.924 136.707 314.583 127.267 292.655C135.531 291.382 144.128 290.251 153.007 289.273C163.199 288.15 173.677 287.237 184.348 286.539C188.484 303.485 194.381 320.116 202.042 336.158L206.926 346.383C204.238 346.609 201.584 346.866 198.972 347.154ZM211.869 350.223L232.066 392.512L232.066 349.411C225.232 349.491 218.461 349.764 211.869 350.223ZM204.573 334.949L209.921 346.145C217.134 345.606 224.565 345.289 232.066 345.203V284.878C216.922 284.956 201.884 285.454 187.192 286.359C191.277 302.951 197.069 319.235 204.573 334.949ZM179.871 228.763C180.078 246.689 182.188 264.606 186.206 282.204C201.218 281.265 216.59 280.749 232.066 280.67L232.767 280.667L232.767 228.763H179.871ZM177.049 225.958C177.04 206.494 179.249 187.038 183.669 167.981C175.068 167.366 166.609 166.602 158.346 165.69C146.839 164.421 135.817 162.88 125.408 161.088C117.295 181.76 113.246 203.848 113.392 225.958H177.049ZM177.066 228.763C177.271 246.749 179.371 264.725 183.371 282.387C172.882 283.082 162.578 283.985 152.546 285.09C143.248 286.115 134.249 287.307 125.606 288.655C117.918 269.449 113.895 249.122 113.433 228.763H177.066ZM179.854 225.958H232.767L232.767 169.843C217.131 169.758 201.61 169.197 186.503 168.178C182.064 187.166 179.845 206.558 179.854 225.958ZM171.025 102.952C169.013 102.415 167.098 101.854 165.284 101.273C148.517 117.409 135.723 136.491 127.032 157.097C137.079 158.806 147.709 160.284 158.807 161.508C167.239 162.438 175.879 163.214 184.668 163.834C189.386 144.929 196.293 126.447 205.382 108.772C204.005 108.64 202.638 108.499 201.283 108.349C189.968 107.098 179.686 105.264 171.025 102.952ZM172.11 98.8865C170.978 98.5843 169.883 98.276 168.826 97.962C182.97 85.1197 199.759 74.308 219.119 66.3007L221.931 65.1374C224.116 64.9984 226.304 64.8896 228.496 64.8112L207.49 104.742C205.554 104.568 203.638 104.376 201.746 104.166C190.587 102.933 180.521 101.132 172.11 98.8865ZM232.767 64.6968C232.416 64.703 232.065 64.71 231.714 64.7178L210.523 105.001C217.742 105.578 225.213 105.918 232.767 106.01L232.767 64.6968ZM232.767 110.219C224.48 110.119 216.285 109.724 208.398 109.046C199.23 126.682 192.265 145.14 187.511 164.028C202.292 165.01 217.472 165.551 232.767 165.635L232.767 110.219Z" fill="white"/>
</g>
<mask id="mask4" mask-type="alpha" maskUnits="userSpaceOnUse" x="145" y="237" width="114" height="170">
<path d="M258.272 406.191C216.598 406.191 176.406 390.729 145.476 362.797L258.272 237.88L258.272 406.191Z" fill="#130947"/>
</mask>
<g mask="url(#mask4)">
<path fill-rule="evenodd" clip-rule="evenodd" d="M258.272 69.5693C257.89 69.5699 257.508 69.5708 257.126 69.5719C235.414 69.7198 213.933 74.0678 193.867 82.3799C192.012 83.1483 190.172 83.9492 188.349 84.782C203.547 79.9127 219.368 76.6285 235.461 74.9907C217.352 83.1134 201.566 93.7051 188.166 106.108C182.805 104.335 178.57 102.416 175.527 100.455C171.187 97.6585 170.356 95.521 170.356 94.4646C170.356 94.4297 170.357 94.3936 170.358 94.3564C169.077 95.1415 167.806 95.9436 166.546 96.7626C167.408 99.2441 169.662 101.681 173.248 103.992C176.227 105.912 180.089 107.721 184.732 109.378C168.035 125.724 155.292 144.971 146.634 165.722C135.335 163.728 124.804 161.438 115.21 158.883C113.567 158.446 111.955 158.002 110.376 157.551C109.693 158.81 109.025 160.078 108.373 161.354C110.249 161.896 112.168 162.428 114.128 162.949C123.6 165.471 133.953 167.734 145.027 169.71C136.926 190.557 132.882 212.805 133.026 235.075H89.9952C89.9797 236.009 89.9719 236.944 89.9719 237.88C89.9719 237.88 89.9719 237.88 89.9719 237.88H133.067C133.523 258.384 137.535 278.857 145.201 298.223C130.521 300.593 116.909 303.42 104.662 306.651C105.244 307.952 105.843 309.245 106.458 310.53C118.639 307.347 132.199 304.558 146.843 302.221C152.333 315.126 159.477 327.498 168.305 339.009L170.216 336.883C161.83 325.874 155.003 314.073 149.707 301.772C157.971 300.499 166.568 299.368 175.447 298.39C185.639 297.266 196.117 296.354 206.788 295.656C206.821 295.793 206.855 295.93 206.889 296.068L211.299 291.16C210.413 291.212 209.529 291.266 208.646 291.321C204.628 273.723 202.518 255.806 202.311 237.88H255.207L255.207 242.291L258.272 238.88L258.272 237.88L258.272 69.5693ZM205.559 397.723C210.675 398.626 216.136 399.402 221.873 400.034C229.745 400.902 238.008 401.487 246.441 401.775L211.786 379.117C205.217 374.822 199.069 370.213 193.339 365.329C192.502 365.536 191.679 365.747 190.871 365.962C182.018 368.319 175.31 371.041 170.934 373.854C167.996 375.742 166.565 377.358 165.92 378.587C174.729 384.37 184.084 389.327 193.867 393.379C197.715 394.973 201.615 396.422 205.559 397.723ZM162.416 376.224C163.608 374.2 165.7 372.216 168.659 370.314C173.507 367.198 180.591 364.364 189.511 361.97C181.598 354.821 174.533 347.129 168.305 339.009L146.283 363.52C151.403 368.084 156.791 372.326 162.416 376.224ZM255.207 242.291L255.207 289.784L254.506 289.787C239.94 289.862 225.467 290.323 211.299 291.16L255.207 242.291ZM206.889 296.068L170.216 336.883C176.78 345.498 184.298 353.628 192.785 361.132C201.177 359.08 210.865 357.434 221.412 356.271C224.024 355.983 226.678 355.726 229.366 355.5L224.482 345.274C216.883 329.362 211.02 312.871 206.889 296.068ZM213.321 376.769C207.454 372.933 201.929 368.842 196.741 364.526C204.223 362.843 212.696 361.465 221.873 360.453C224.962 360.113 228.111 359.816 231.307 359.563L251.422 401.68L213.321 376.769ZM234.309 359.34L254.506 401.629L254.506 358.528C247.672 358.608 240.901 358.88 234.309 359.34ZM227.013 344.065L232.361 355.262C239.574 354.723 247.005 354.406 254.506 354.32V293.995C239.362 294.073 224.324 294.571 209.632 295.476C213.716 312.068 219.509 328.352 227.013 344.065ZM199.489 235.075C199.48 215.61 201.689 196.155 206.109 177.098C197.508 176.483 189.049 175.718 180.786 174.807C169.279 173.538 158.257 171.996 147.848 170.205C139.735 190.877 135.686 212.965 135.832 235.075H199.489ZM199.506 237.88C199.711 255.865 201.811 273.842 205.811 291.503C195.322 292.199 185.018 293.102 174.986 294.207C165.688 295.232 156.689 296.423 148.046 297.772C140.358 278.566 136.334 258.239 135.873 237.88H199.506ZM202.294 235.075H255.207L255.207 178.96C239.571 178.874 224.05 178.314 208.943 177.295C204.504 196.283 202.285 215.674 202.294 235.075ZM193.465 112.069C191.453 111.532 189.538 110.971 187.724 110.389C170.957 126.526 158.162 145.608 149.472 166.214C159.519 167.923 170.148 169.401 181.247 170.625C189.679 171.555 198.319 172.331 207.107 172.951C211.826 154.046 218.733 135.564 227.822 117.889C226.445 117.757 225.078 117.615 223.723 117.466C212.407 116.214 202.126 114.381 193.465 112.069ZM194.55 108.003C193.418 107.701 192.323 107.393 191.266 107.079C205.41 94.2366 222.199 83.4248 241.559 75.4176L244.371 74.2542C246.556 74.1152 248.744 74.0064 250.936 73.928L229.93 113.859C227.994 113.685 226.078 113.493 224.185 113.283C213.027 112.05 202.961 110.248 194.55 108.003ZM255.207 73.8136C254.856 73.8199 254.505 73.8269 254.154 73.8347L232.963 114.117C240.182 114.695 247.653 115.035 255.207 115.127L255.207 73.8136ZM255.207 119.335C246.92 119.235 238.725 118.841 230.838 118.163C221.67 135.799 214.705 154.257 209.951 173.145C224.732 174.127 239.912 174.668 255.207 174.752L255.207 119.335Z" fill="white"/>
</g>
<path d="M500.084 240.091V305.779H506.34V240.091H500.084ZM527.563 258.307V305.779H533.359V278.087C533.42 275.757 533.788 273.61 534.463 271.647C535.199 269.623 536.18 267.906 537.407 266.495C538.695 265.023 540.228 263.889 542.007 263.091C543.847 262.233 545.932 261.803 548.263 261.803C550.593 261.803 552.525 262.171 554.059 262.907C555.653 263.643 556.911 264.655 557.831 265.943C558.751 267.231 559.395 268.765 559.763 270.543C560.131 272.261 560.315 274.131 560.315 276.155V305.779H566.111V275.235C566.111 272.414 565.835 269.869 565.283 267.599C564.731 265.33 563.78 263.429 562.431 261.895C561.081 260.301 559.272 259.074 557.003 258.215C554.795 257.357 552.035 256.927 548.723 256.927C545.349 256.927 542.252 257.817 539.431 259.595C536.609 261.313 534.647 263.613 533.543 266.495H533.359V258.307H527.563ZM580.473 258.307L598.781 305.779H604.945L622.701 258.307H616.721L602.001 299.983H601.817L586.913 258.307H580.473ZM671.267 278.731H640.539C640.784 276.585 641.275 274.499 642.011 272.475C642.808 270.39 643.851 268.581 645.139 267.047C646.427 265.453 647.991 264.195 649.831 263.275C651.671 262.294 653.787 261.803 656.179 261.803C658.509 261.803 660.595 262.294 662.435 263.275C664.275 264.195 665.839 265.453 667.127 267.047C668.415 268.581 669.396 270.359 670.071 272.383C670.807 274.407 671.205 276.523 671.267 278.731ZM640.539 283.607H677.063C677.185 280.295 676.879 277.045 676.143 273.855C675.407 270.605 674.18 267.753 672.463 265.299C670.807 262.785 668.629 260.761 665.931 259.227C663.232 257.694 659.981 256.927 656.179 256.927C652.437 256.927 649.187 257.663 646.427 259.135C643.728 260.546 641.52 262.447 639.803 264.839C638.085 267.17 636.797 269.838 635.939 272.843C635.141 275.849 634.743 278.915 634.743 282.043C634.743 285.417 635.141 288.637 635.939 291.703C636.797 294.709 638.085 297.377 639.803 299.707C641.52 301.977 643.728 303.786 646.427 305.135C649.187 306.423 652.437 307.067 656.179 307.067C662.189 307.067 666.82 305.595 670.071 302.651C673.383 299.707 675.652 295.537 676.879 290.139H671.083C670.163 293.819 668.507 296.763 666.115 298.971C663.723 301.179 660.411 302.283 656.179 302.283C653.419 302.283 651.057 301.701 649.095 300.535C647.132 299.37 645.507 297.898 644.219 296.119C642.931 294.341 641.98 292.347 641.367 290.139C640.815 287.87 640.539 285.693 640.539 283.607ZM722.01 272.199H727.806C727.683 269.623 727.162 267.385 726.242 265.483C725.322 263.582 724.064 261.987 722.47 260.699C720.936 259.411 719.127 258.461 717.042 257.847C715.018 257.234 712.81 256.927 710.418 256.927C708.332 256.927 706.216 257.173 704.07 257.663C701.984 258.154 700.083 258.921 698.366 259.963C696.648 261.006 695.238 262.386 694.134 264.103C693.091 265.821 692.57 267.875 692.57 270.267C692.57 272.291 692.907 274.009 693.582 275.419C694.256 276.769 695.176 277.934 696.342 278.915C697.568 279.835 698.979 280.633 700.574 281.307C702.168 281.921 703.916 282.473 705.818 282.963L713.27 284.619C714.558 284.926 715.815 285.294 717.042 285.723C718.33 286.153 719.464 286.705 720.446 287.379C721.427 287.993 722.194 288.79 722.746 289.771C723.359 290.691 723.666 291.857 723.666 293.267C723.666 294.923 723.236 296.334 722.378 297.499C721.58 298.603 720.538 299.523 719.25 300.259C717.962 300.995 716.551 301.517 715.018 301.823C713.546 302.13 712.104 302.283 710.694 302.283C706.83 302.283 703.579 301.302 700.942 299.339C698.366 297.315 696.955 294.341 696.71 290.415H690.914C691.404 296.242 693.367 300.474 696.802 303.111C700.298 305.749 704.836 307.067 710.418 307.067C712.626 307.067 714.864 306.822 717.134 306.331C719.403 305.841 721.427 305.043 723.206 303.939C725.046 302.774 726.548 301.302 727.714 299.523C728.879 297.683 729.462 295.475 729.462 292.899C729.462 290.814 729.063 289.005 728.266 287.471C727.468 285.938 726.426 284.65 725.138 283.607C723.911 282.565 722.47 281.737 720.814 281.123C719.219 280.449 717.594 279.989 715.938 279.743L708.21 277.995C707.228 277.75 706.155 277.443 704.99 277.075C703.824 276.646 702.751 276.125 701.77 275.511C700.788 274.898 699.96 274.162 699.286 273.303C698.672 272.383 698.366 271.279 698.366 269.991C698.366 268.458 698.703 267.17 699.378 266.127C700.052 265.085 700.942 264.257 702.046 263.643C703.15 262.969 704.346 262.509 705.634 262.263C706.983 261.957 708.302 261.803 709.59 261.803C711.246 261.803 712.81 262.018 714.282 262.447C715.754 262.815 717.042 263.429 718.146 264.287C719.311 265.146 720.231 266.25 720.906 267.599C721.58 268.887 721.948 270.421 722.01 272.199ZM755.815 258.307V244.047H750.019V258.307H741.739V263.183H750.019V295.659C749.957 299.707 750.693 302.498 752.227 304.031C753.76 305.503 756.459 306.239 760.323 306.239C761.181 306.239 762.04 306.209 762.899 306.147C763.757 306.086 764.616 306.055 765.475 306.055V301.179C763.819 301.363 762.163 301.455 760.507 301.455C758.421 301.333 757.103 300.75 756.551 299.707C756.06 298.603 755.815 297.101 755.815 295.199V263.183H765.475V258.307H755.815ZM782.669 240.091V249.383H788.465V240.091H782.669ZM782.669 258.307V305.779H788.465V258.307H782.669ZM808.206 258.307V305.779H814.002V278.087C814.063 275.757 814.431 273.61 815.106 271.647C815.842 269.623 816.823 267.906 818.05 266.495C819.338 265.023 820.871 263.889 822.65 263.091C824.49 262.233 826.575 261.803 828.906 261.803C831.236 261.803 833.168 262.171 834.702 262.907C836.296 263.643 837.554 264.655 838.474 265.943C839.394 267.231 840.038 268.765 840.406 270.543C840.774 272.261 840.958 274.131 840.958 276.155V305.779H846.754V275.235C846.754 272.414 846.478 269.869 845.926 267.599C845.374 265.33 844.423 263.429 843.074 261.895C841.724 260.301 839.915 259.074 837.646 258.215C835.438 257.357 832.678 256.927 829.366 256.927C825.992 256.927 822.895 257.817 820.074 259.595C817.252 261.313 815.29 263.613 814.186 266.495H814.002V258.307H808.206ZM906.564 301.915V258.307H900.768V266.495H900.584C900.032 265.207 899.234 263.981 898.192 262.815C897.21 261.65 896.076 260.638 894.788 259.779C893.5 258.859 892.058 258.154 890.464 257.663C888.93 257.173 887.274 256.927 885.496 256.927C882.061 256.927 878.994 257.571 876.296 258.859C873.658 260.086 871.42 261.803 869.58 264.011C867.801 266.158 866.421 268.703 865.44 271.647C864.52 274.53 864.06 277.597 864.06 280.847C864.06 284.221 864.458 287.41 865.256 290.415C866.053 293.359 867.31 295.935 869.028 298.143C870.806 300.351 873.045 302.099 875.744 303.387C878.442 304.614 881.693 305.227 885.496 305.227C888.992 305.227 892.028 304.338 894.604 302.559C897.241 300.781 899.234 298.419 900.584 295.475H900.768V301.915C900.768 307.681 899.572 312.097 897.18 315.163C894.788 318.23 890.893 319.763 885.496 319.763C883.901 319.763 882.337 319.579 880.804 319.211C879.27 318.905 877.86 318.383 876.572 317.647C875.345 316.911 874.272 315.93 873.352 314.703C872.493 313.538 871.91 312.066 871.604 310.287H865.808C865.992 312.802 866.666 314.949 867.832 316.727C869.058 318.567 870.561 320.07 872.34 321.235C874.18 322.401 876.234 323.259 878.504 323.811C880.773 324.363 883.104 324.639 885.496 324.639C889.36 324.639 892.61 324.118 895.248 323.075C897.946 322.033 900.124 320.53 901.78 318.567C903.436 316.605 904.632 314.213 905.368 311.391C906.165 308.57 906.564 305.411 906.564 301.915ZM885.496 300.351C882.797 300.351 880.466 299.83 878.504 298.787C876.541 297.683 874.916 296.273 873.628 294.555C872.34 292.777 871.389 290.753 870.776 288.483C870.162 286.214 869.856 283.883 869.856 281.491C869.856 279.038 870.132 276.646 870.684 274.315C871.297 271.923 872.248 269.807 873.536 267.967C874.824 266.127 876.449 264.655 878.412 263.551C880.374 262.386 882.736 261.803 885.496 261.803C888.256 261.803 890.586 262.386 892.488 263.551C894.45 264.717 896.045 266.25 897.272 268.151C898.498 270.053 899.388 272.169 899.94 274.499C900.492 276.83 900.768 279.161 900.768 281.491C900.768 283.883 900.43 286.214 899.756 288.483C899.142 290.753 898.192 292.777 896.904 294.555C895.616 296.273 894.021 297.683 892.12 298.787C890.218 299.83 888.01 300.351 885.496 300.351ZM960.75 240.091V249.383H966.546V240.091H960.75ZM960.75 258.307V305.779H966.546V258.307H960.75ZM986.287 258.307V305.779H992.083V278.087C992.144 275.757 992.512 273.61 993.187 271.647C993.923 269.623 994.904 267.906 996.131 266.495C997.419 265.023 998.952 263.889 1000.73 263.091C1002.57 262.233 1004.66 261.803 1006.99 261.803C1009.32 261.803 1011.25 262.171 1012.78 262.907C1014.38 263.643 1015.63 264.655 1016.55 265.943C1017.47 267.231 1018.12 268.765 1018.49 270.543C1018.85 272.261 1019.04 274.131 1019.04 276.155V305.779H1024.83V275.235C1024.83 272.414 1024.56 269.869 1024.01 267.599C1023.45 265.33 1022.5 263.429 1021.15 261.895C1019.81 260.301 1018 259.074 1015.73 258.215C1013.52 257.357 1010.76 256.927 1007.45 256.927C1004.07 256.927 1000.98 257.817 998.155 259.595C995.333 261.313 993.371 263.613 992.267 266.495H992.083V258.307H986.287ZM1086.24 272.291V245.427H1107.77C1112.12 245.427 1115.65 246.531 1118.35 248.739C1121.04 250.947 1122.39 254.321 1122.39 258.859C1122.39 263.398 1121.04 266.771 1118.35 268.979C1115.65 271.187 1112.12 272.291 1107.77 272.291H1086.24ZM1079.98 240.091V305.779H1086.24V277.627H1109.15C1112.09 277.627 1114.76 277.229 1117.15 276.431C1119.54 275.573 1121.6 274.346 1123.31 272.751C1125.03 271.095 1126.35 269.102 1127.27 266.771C1128.19 264.441 1128.65 261.803 1128.65 258.859C1128.65 255.915 1128.19 253.278 1127.27 250.947C1126.35 248.617 1125.03 246.654 1123.31 245.059C1121.6 243.403 1119.54 242.177 1117.15 241.379C1114.76 240.521 1112.09 240.091 1109.15 240.091H1079.98ZM1145.66 240.091V305.779H1151.46V240.091H1145.66ZM1170.74 272.843H1176.53C1176.65 268.979 1177.88 266.189 1180.21 264.471C1182.54 262.693 1185.55 261.803 1189.23 261.803C1190.95 261.803 1192.54 261.957 1194.01 262.263C1195.55 262.509 1196.86 262.999 1197.97 263.735C1199.13 264.471 1200.02 265.483 1200.64 266.771C1201.31 267.998 1201.65 269.593 1201.65 271.555C1201.65 272.843 1201.46 273.886 1201.1 274.683C1200.79 275.481 1200.33 276.125 1199.72 276.615C1199.1 277.045 1198.34 277.351 1197.42 277.535C1196.5 277.719 1195.42 277.873 1194.2 277.995C1191.07 278.363 1187.97 278.762 1184.9 279.191C1181.9 279.559 1179.17 280.234 1176.72 281.215C1174.32 282.197 1172.39 283.638 1170.92 285.539C1169.45 287.379 1168.71 289.955 1168.71 293.267C1168.71 295.659 1169.11 297.745 1169.91 299.523C1170.77 301.241 1171.9 302.682 1173.31 303.847C1174.78 304.951 1176.47 305.749 1178.37 306.239C1180.33 306.791 1182.42 307.067 1184.63 307.067C1186.96 307.067 1188.95 306.853 1190.61 306.423C1192.33 305.994 1193.83 305.381 1195.12 304.583C1196.47 303.786 1197.66 302.805 1198.7 301.639C1199.81 300.413 1200.88 299.033 1201.92 297.499H1202.11C1202.11 298.726 1202.17 299.861 1202.29 300.903C1202.48 301.885 1202.81 302.743 1203.3 303.479C1203.79 304.215 1204.47 304.798 1205.33 305.227C1206.25 305.595 1207.44 305.779 1208.92 305.779C1209.71 305.779 1210.36 305.749 1210.85 305.687C1211.4 305.626 1212.01 305.534 1212.69 305.411V300.535C1212.14 300.781 1211.52 300.903 1210.85 300.903C1208.58 300.903 1207.44 299.738 1207.44 297.407V272.199C1207.44 269.01 1206.92 266.434 1205.88 264.471C1204.84 262.447 1203.49 260.883 1201.83 259.779C1200.18 258.675 1198.31 257.939 1196.22 257.571C1194.13 257.142 1192.05 256.927 1189.96 256.927C1187.2 256.927 1184.69 257.234 1182.42 257.847C1180.15 258.461 1178.16 259.411 1176.44 260.699C1174.78 261.987 1173.47 263.643 1172.48 265.667C1171.5 267.691 1170.92 270.083 1170.74 272.843ZM1201.65 279.835V287.379C1201.65 289.71 1201.19 291.795 1200.27 293.635C1199.41 295.475 1198.21 297.039 1196.68 298.327C1195.21 299.615 1193.46 300.597 1191.44 301.271C1189.41 301.946 1187.3 302.283 1185.09 302.283C1183.74 302.283 1182.42 302.069 1181.13 301.639C1179.84 301.21 1178.71 300.597 1177.73 299.799C1176.75 298.941 1175.95 297.959 1175.34 296.855C1174.78 295.69 1174.51 294.371 1174.51 292.899C1174.51 290.569 1175.18 288.79 1176.53 287.563C1177.94 286.275 1179.72 285.294 1181.87 284.619C1184.01 283.945 1186.38 283.454 1188.95 283.147C1191.59 282.779 1194.13 282.381 1196.59 281.951C1197.39 281.829 1198.31 281.614 1199.35 281.307C1200.39 281.001 1201.1 280.51 1201.46 279.835H1201.65ZM1227.64 258.307V305.779H1233.44V278.087C1233.5 275.757 1233.87 273.61 1234.54 271.647C1235.28 269.623 1236.26 267.906 1237.49 266.495C1238.77 265.023 1240.31 263.889 1242.09 263.091C1243.93 262.233 1246.01 261.803 1248.34 261.803C1250.67 261.803 1252.61 262.171 1254.14 262.907C1255.73 263.643 1256.99 264.655 1257.91 265.943C1258.83 267.231 1259.47 268.765 1259.84 270.543C1260.21 272.261 1260.39 274.131 1260.39 276.155V305.779H1266.19V275.235C1266.19 272.414 1265.91 269.869 1265.36 267.599C1264.81 265.33 1263.86 263.429 1262.51 261.895C1261.16 260.301 1259.35 259.074 1257.08 258.215C1254.87 257.357 1252.11 256.927 1248.8 256.927C1245.43 256.927 1242.33 257.817 1239.51 259.595C1236.69 261.313 1234.73 263.613 1233.62 266.495H1233.44V258.307H1227.64ZM1320.02 278.731H1289.29C1289.54 276.585 1290.03 274.499 1290.77 272.475C1291.56 270.39 1292.61 268.581 1293.89 267.047C1295.18 265.453 1296.75 264.195 1298.59 263.275C1300.43 262.294 1302.54 261.803 1304.93 261.803C1307.26 261.803 1309.35 262.294 1311.19 263.275C1313.03 264.195 1314.59 265.453 1315.88 267.047C1317.17 268.581 1318.15 270.359 1318.83 272.383C1319.56 274.407 1319.96 276.523 1320.02 278.731ZM1289.29 283.607H1325.82C1325.94 280.295 1325.63 277.045 1324.9 273.855C1324.16 270.605 1322.93 267.753 1321.22 265.299C1319.56 262.785 1317.38 260.761 1314.69 259.227C1311.99 257.694 1308.74 256.927 1304.93 256.927C1301.19 256.927 1297.94 257.663 1295.18 259.135C1292.48 260.546 1290.27 262.447 1288.56 264.839C1286.84 267.17 1285.55 269.838 1284.69 272.843C1283.9 275.849 1283.5 278.915 1283.5 282.043C1283.5 285.417 1283.9 288.637 1284.69 291.703C1285.55 294.709 1286.84 297.377 1288.56 299.707C1290.27 301.977 1292.48 303.786 1295.18 305.135C1297.94 306.423 1301.19 307.067 1304.93 307.067C1310.94 307.067 1315.57 305.595 1318.83 302.651C1322.14 299.707 1324.41 295.537 1325.63 290.139H1319.84C1318.92 293.819 1317.26 296.763 1314.87 298.971C1312.48 301.179 1309.17 302.283 1304.93 302.283C1302.17 302.283 1299.81 301.701 1297.85 300.535C1295.89 299.37 1294.26 297.898 1292.97 296.119C1291.69 294.341 1290.73 292.347 1290.12 290.139C1289.57 287.87 1289.29 285.693 1289.29 283.607ZM1351.54 258.307V244.047H1345.74V258.307H1337.46V263.183H1345.74V295.659C1345.68 299.707 1346.41 302.498 1347.95 304.031C1349.48 305.503 1352.18 306.239 1356.04 306.239C1356.9 306.239 1357.76 306.209 1358.62 306.147C1359.48 306.086 1360.34 306.055 1361.2 306.055V301.179C1359.54 301.363 1357.88 301.455 1356.23 301.455C1354.14 301.333 1352.82 300.75 1352.27 299.707C1351.78 298.603 1351.54 297.101 1351.54 295.199V263.183H1361.2V258.307H1351.54ZM1377.75 272.843H1383.54C1383.67 268.979 1384.89 266.189 1387.22 264.471C1389.55 262.693 1392.56 261.803 1396.24 261.803C1397.96 261.803 1399.55 261.957 1401.02 262.263C1402.56 262.509 1403.87 262.999 1404.98 263.735C1406.14 264.471 1407.03 265.483 1407.65 266.771C1408.32 267.998 1408.66 269.593 1408.66 271.555C1408.66 272.843 1408.47 273.886 1408.11 274.683C1407.8 275.481 1407.34 276.125 1406.73 276.615C1406.11 277.045 1405.35 277.351 1404.43 277.535C1403.51 277.719 1402.43 277.873 1401.21 277.995C1398.08 278.363 1394.98 278.762 1391.91 279.191C1388.91 279.559 1386.18 280.234 1383.73 281.215C1381.33 282.197 1379.4 283.638 1377.93 285.539C1376.46 287.379 1375.72 289.955 1375.72 293.267C1375.72 295.659 1376.12 297.745 1376.92 299.523C1377.78 301.241 1378.91 302.682 1380.32 303.847C1381.79 304.951 1383.48 305.749 1385.38 306.239C1387.35 306.791 1389.43 307.067 1391.64 307.067C1393.97 307.067 1395.96 306.853 1397.62 306.423C1399.34 305.994 1400.84 305.381 1402.13 304.583C1403.48 303.786 1404.67 302.805 1405.71 301.639C1406.82 300.413 1407.89 299.033 1408.93 297.499H1409.12C1409.12 298.726 1409.18 299.861 1409.3 300.903C1409.49 301.885 1409.82 302.743 1410.31 303.479C1410.81 304.215 1411.48 304.798 1412.34 305.227C1413.26 305.595 1414.45 305.779 1415.93 305.779C1416.72 305.779 1417.37 305.749 1417.86 305.687C1418.41 305.626 1419.02 305.534 1419.7 305.411V300.535C1419.15 300.781 1418.53 300.903 1417.86 300.903C1415.59 300.903 1414.45 299.738 1414.45 297.407V272.199C1414.45 269.01 1413.93 266.434 1412.89 264.471C1411.85 262.447 1410.5 260.883 1408.84 259.779C1407.19 258.675 1405.32 257.939 1403.23 257.571C1401.15 257.142 1399.06 256.927 1396.97 256.927C1394.21 256.927 1391.7 257.234 1389.43 257.847C1387.16 258.461 1385.17 259.411 1383.45 260.699C1381.79 261.987 1380.48 263.643 1379.49 265.667C1378.51 267.691 1377.93 270.083 1377.75 272.843ZM1408.66 279.835V287.379C1408.66 289.71 1408.2 291.795 1407.28 293.635C1406.42 295.475 1405.22 297.039 1403.69 298.327C1402.22 299.615 1400.47 300.597 1398.45 301.271C1396.42 301.946 1394.31 302.283 1392.1 302.283C1390.75 302.283 1389.43 302.069 1388.14 301.639C1386.85 301.21 1385.72 300.597 1384.74 299.799C1383.76 298.941 1382.96 297.959 1382.35 296.855C1381.79 295.69 1381.52 294.371 1381.52 292.899C1381.52 290.569 1382.19 288.79 1383.54 287.563C1384.95 286.275 1386.73 285.294 1388.88 284.619C1391.03 283.945 1393.39 283.454 1395.96 283.147C1398.6 282.779 1401.15 282.381 1403.6 281.951C1404.4 281.829 1405.32 281.614 1406.36 281.307C1407.4 281.001 1408.11 280.51 1408.47 279.835H1408.66ZM1434.75 258.307V305.779H1440.54V280.479C1440.54 277.965 1440.97 275.665 1441.83 273.579C1442.69 271.433 1443.88 269.593 1445.42 268.059C1447.01 266.526 1448.88 265.361 1451.03 264.563C1453.18 263.705 1455.57 263.337 1458.21 263.459V257.663C1453.91 257.479 1450.2 258.43 1447.07 260.515C1444.01 262.601 1441.74 265.575 1440.27 269.439H1440.08V258.307H1434.75ZM1467.17 258.307L1486.12 305.595L1484.1 310.931C1483.61 312.035 1483.15 313.047 1482.72 313.967C1482.29 314.887 1481.77 315.654 1481.15 316.267C1480.54 316.942 1479.8 317.463 1478.95 317.831C1478.15 318.199 1477.11 318.383 1475.82 318.383C1475.14 318.383 1474.47 318.322 1473.79 318.199C1473.18 318.138 1472.54 318.046 1471.86 317.923V322.799C1472.35 322.983 1472.9 323.075 1473.52 323.075C1474.19 323.137 1475.11 323.198 1476.28 323.259C1478.12 323.259 1479.62 323.075 1480.79 322.707C1482.01 322.401 1483.05 321.849 1483.91 321.051C1484.83 320.315 1485.66 319.273 1486.4 317.923C1487.13 316.635 1487.93 314.979 1488.79 312.955L1509.4 258.307H1503.6L1488.97 298.787L1473.33 258.307H1467.17ZM1559.28 240.091V305.779H1565.54V273.947H1604.54V305.779H1610.8V240.091H1604.54V268.611H1565.54V240.091H1559.28ZM1665.83 278.731H1635.1C1635.34 276.585 1635.83 274.499 1636.57 272.475C1637.37 270.39 1638.41 268.581 1639.7 267.047C1640.99 265.453 1642.55 264.195 1644.39 263.275C1646.23 262.294 1648.35 261.803 1650.74 261.803C1653.07 261.803 1655.15 262.294 1656.99 263.275C1658.83 264.195 1660.4 265.453 1661.69 267.047C1662.97 268.581 1663.96 270.359 1664.63 272.383C1665.37 274.407 1665.76 276.523 1665.83 278.731ZM1635.1 283.607H1671.62C1671.74 280.295 1671.44 277.045 1670.7 273.855C1669.97 270.605 1668.74 267.753 1667.02 265.299C1665.37 262.785 1663.19 260.761 1660.49 259.227C1657.79 257.694 1654.54 256.927 1650.74 256.927C1647 256.927 1643.75 257.663 1640.99 259.135C1638.29 260.546 1636.08 262.447 1634.36 264.839C1632.64 267.17 1631.36 269.838 1630.5 272.843C1629.7 275.849 1629.3 278.915 1629.3 282.043C1629.3 285.417 1629.7 288.637 1630.5 291.703C1631.36 294.709 1632.64 297.377 1634.36 299.707C1636.08 301.977 1638.29 303.786 1640.99 305.135C1643.75 306.423 1647 307.067 1650.74 307.067C1656.75 307.067 1661.38 305.595 1664.63 302.651C1667.94 299.707 1670.21 295.537 1671.44 290.139H1665.64C1664.72 293.819 1663.07 296.763 1660.67 298.971C1658.28 301.179 1654.97 302.283 1650.74 302.283C1647.98 302.283 1645.62 301.701 1643.65 300.535C1641.69 299.37 1640.07 297.898 1638.78 296.119C1637.49 294.341 1636.54 292.347 1635.93 290.139C1635.37 287.87 1635.1 285.693 1635.1 283.607ZM1687.59 272.843H1693.39C1693.51 268.979 1694.73 266.189 1697.07 264.471C1699.4 262.693 1702.4 261.803 1706.08 261.803C1707.8 261.803 1709.39 261.957 1710.87 262.263C1712.4 262.509 1713.72 262.999 1714.82 263.735C1715.99 264.471 1716.88 265.483 1717.49 266.771C1718.16 267.998 1718.5 269.593 1718.5 271.555C1718.5 272.843 1718.32 273.886 1717.95 274.683C1717.64 275.481 1717.18 276.125 1716.57 276.615C1715.96 277.045 1715.19 277.351 1714.27 277.535C1713.35 277.719 1712.28 277.873 1711.05 277.995C1707.92 278.363 1704.82 278.762 1701.76 279.191C1698.75 279.559 1696.02 280.234 1693.57 281.215C1691.18 282.197 1689.25 283.638 1687.77 285.539C1686.3 287.379 1685.57 289.955 1685.57 293.267C1685.57 295.659 1685.96 297.745 1686.76 299.523C1687.62 301.241 1688.75 302.682 1690.17 303.847C1691.64 304.951 1693.32 305.749 1695.23 306.239C1697.19 306.791 1699.27 307.067 1701.48 307.067C1703.81 307.067 1705.81 306.853 1707.46 306.423C1709.18 305.994 1710.68 305.381 1711.97 304.583C1713.32 303.786 1714.51 302.805 1715.56 301.639C1716.66 300.413 1717.73 299.033 1718.78 297.499H1718.96C1718.96 298.726 1719.02 299.861 1719.15 300.903C1719.33 301.885 1719.67 302.743 1720.16 303.479C1720.65 304.215 1721.32 304.798 1722.18 305.227C1723.1 305.595 1724.3 305.779 1725.77 305.779C1726.57 305.779 1727.21 305.749 1727.7 305.687C1728.25 305.626 1728.87 305.534 1729.54 305.411V300.535C1728.99 300.781 1728.38 300.903 1727.7 300.903C1725.43 300.903 1724.3 299.738 1724.3 297.407V272.199C1724.3 269.01 1723.78 266.434 1722.73 264.471C1721.69 262.447 1720.34 260.883 1718.69 259.779C1717.03 258.675 1715.16 257.939 1713.07 257.571C1710.99 257.142 1708.9 256.927 1706.82 256.927C1704.06 256.927 1701.54 257.234 1699.27 257.847C1697 258.461 1695.01 259.411 1693.29 260.699C1691.64 261.987 1690.32 263.643 1689.34 265.667C1688.36 267.691 1687.77 270.083 1687.59 272.843ZM1718.5 279.835V287.379C1718.5 289.71 1718.04 291.795 1717.12 293.635C1716.26 295.475 1715.07 297.039 1713.53 298.327C1712.06 299.615 1710.31 300.597 1708.29 301.271C1706.27 301.946 1704.15 302.283 1701.94 302.283C1700.59 302.283 1699.27 302.069 1697.99 301.639C1696.7 301.21 1695.56 300.597 1694.58 299.799C1693.6 298.941 1692.8 297.959 1692.19 296.855C1691.64 295.69 1691.36 294.371 1691.36 292.899C1691.36 290.569 1692.04 288.79 1693.39 287.563C1694.8 286.275 1696.57 285.294 1698.72 284.619C1700.87 283.945 1703.23 283.454 1705.81 283.147C1708.44 282.779 1710.99 282.381 1713.44 281.951C1714.24 281.829 1715.16 281.614 1716.2 281.307C1717.24 281.001 1717.95 280.51 1718.32 279.835H1718.5ZM1744.68 240.091V305.779H1750.48V240.091H1744.68ZM1779.51 258.307V244.047H1773.71V258.307H1765.43V263.183H1773.71V295.659C1773.65 299.707 1774.39 302.498 1775.92 304.031C1777.45 305.503 1780.15 306.239 1784.02 306.239C1784.88 306.239 1785.73 306.209 1786.59 306.147C1787.45 306.086 1788.31 306.055 1789.17 306.055V301.179C1787.51 301.363 1785.86 301.455 1784.2 301.455C1782.12 301.333 1780.8 300.75 1780.24 299.707C1779.75 298.603 1779.51 297.101 1779.51 295.199V263.183H1789.17V258.307H1779.51ZM1806.18 240.091V305.779H1811.98V278.087C1812.04 275.757 1812.4 273.61 1813.08 271.647C1813.82 269.623 1814.8 267.906 1816.02 266.495C1817.31 265.023 1818.84 263.889 1820.62 263.091C1822.46 262.233 1824.55 261.803 1826.88 261.803C1829.21 261.803 1831.14 262.171 1832.68 262.907C1834.27 263.643 1835.53 264.655 1836.45 265.943C1837.37 267.231 1838.01 268.765 1838.38 270.543C1838.75 272.261 1838.93 274.131 1838.93 276.155V305.779H1844.73V275.235C1844.73 272.414 1844.45 269.869 1843.9 267.599C1843.35 265.33 1842.4 263.429 1841.05 261.895C1839.7 260.301 1837.89 259.074 1835.62 258.215C1833.41 257.357 1830.65 256.927 1827.34 256.927C1823.97 256.927 1820.87 257.817 1818.05 259.595C1815.23 261.313 1813.26 263.613 1812.16 266.495H1811.98V240.091H1806.18Z" fill="white"/>
<path d="M501.384 111.675V208.779H575.096V190.827H522.736V167.027H569.792V150.435H522.736V129.627H574.008V111.675H501.384ZM587.532 138.467V208.779H606.844V171.923C606.844 164.761 608.022 159.638 610.38 156.555C612.737 153.382 616.545 151.795 621.804 151.795C626.428 151.795 629.646 153.246 631.46 156.147C633.273 158.958 634.18 163.265 634.18 169.067V208.779H653.492V165.531C653.492 161.179 653.084 157.235 652.268 153.699C651.542 150.073 650.228 147.035 648.324 144.587C646.42 142.049 643.79 140.099 640.436 138.739C637.172 137.289 632.956 136.563 627.788 136.563C623.708 136.563 619.718 137.515 615.82 139.419C611.921 141.233 608.748 144.179 606.3 148.259H605.892V138.467H587.532ZM718.061 173.419C718.061 176.321 717.789 179.131 717.245 181.851C716.701 184.571 715.794 187.019 714.525 189.195C713.255 191.281 711.533 192.958 709.357 194.227C707.271 195.497 704.642 196.131 701.469 196.131C698.477 196.131 695.893 195.497 693.717 194.227C691.631 192.867 689.863 191.145 688.413 189.059C687.053 186.883 686.055 184.435 685.421 181.715C684.786 178.995 684.469 176.275 684.469 173.555C684.469 170.654 684.741 167.889 685.285 165.259C685.919 162.539 686.871 160.137 688.141 158.051C689.501 155.966 691.269 154.289 693.445 153.019C695.621 151.75 698.295 151.115 701.469 151.115C704.642 151.115 707.271 151.75 709.357 153.019C711.442 154.289 713.119 155.966 714.389 158.051C715.749 160.046 716.701 162.403 717.245 165.123C717.789 167.753 718.061 170.518 718.061 173.419ZM718.333 199.803V208.779H736.693V111.675H717.381V147.035H717.109C714.933 143.59 711.941 141.006 708.133 139.283C704.415 137.47 700.471 136.563 696.301 136.563C691.133 136.563 686.599 137.606 682.701 139.691C678.802 141.686 675.538 144.361 672.909 147.715C670.37 151.07 668.421 154.969 667.061 159.411C665.791 163.763 665.157 168.297 665.157 173.011C665.157 177.907 665.791 182.622 667.061 187.155C668.421 191.689 670.37 195.723 672.909 199.259C675.538 202.705 678.847 205.47 682.837 207.555C686.826 209.55 691.45 210.547 696.709 210.547C701.333 210.547 705.458 209.731 709.085 208.099C712.802 206.377 715.794 203.611 718.061 199.803H718.333ZM774.681 157.371V128.267H791.273C793.721 128.267 796.079 128.449 798.345 128.811C800.612 129.174 802.607 129.899 804.329 130.987C806.052 131.985 807.412 133.435 808.409 135.339C809.497 137.243 810.041 139.737 810.041 142.819C810.041 145.902 809.497 148.395 808.409 150.299C807.412 152.203 806.052 153.699 804.329 154.787C802.607 155.785 800.612 156.465 798.345 156.827C796.079 157.19 793.721 157.371 791.273 157.371H774.681ZM753.329 111.675V208.779H774.681V173.963H797.121C803.196 173.963 808.364 173.102 812.625 171.379C816.887 169.566 820.332 167.209 822.961 164.307C825.681 161.406 827.631 158.097 828.809 154.379C830.079 150.571 830.713 146.718 830.713 142.819C830.713 138.83 830.079 134.977 828.809 131.259C827.631 127.542 825.681 124.233 822.961 121.331C820.332 118.43 816.887 116.118 812.625 114.395C808.364 112.582 803.196 111.675 797.121 111.675H753.329ZM841.184 160.091C841.456 155.558 842.59 151.795 844.584 148.803C846.579 145.811 849.118 143.409 852.2 141.595C855.283 139.782 858.728 138.513 862.536 137.787C866.435 136.971 870.334 136.563 874.232 136.563C877.768 136.563 881.35 136.835 884.976 137.379C888.603 137.833 891.912 138.785 894.904 140.235C897.896 141.686 900.344 143.726 902.248 146.355C904.152 148.894 905.104 152.294 905.104 156.555V193.139C905.104 196.313 905.286 199.35 905.648 202.251C906.011 205.153 906.646 207.329 907.552 208.779H887.968C887.606 207.691 887.288 206.603 887.016 205.515C886.835 204.337 886.699 203.158 886.608 201.979C883.526 205.153 879.899 207.374 875.728 208.643C871.558 209.913 867.296 210.547 862.944 210.547C859.59 210.547 856.462 210.139 853.56 209.323C850.659 208.507 848.12 207.238 845.944 205.515C843.768 203.793 842.046 201.617 840.776 198.987C839.598 196.358 839.008 193.23 839.008 189.603C839.008 185.614 839.688 182.35 841.048 179.811C842.499 177.182 844.312 175.097 846.488 173.555C848.755 172.014 851.294 170.881 854.104 170.155C857.006 169.339 859.907 168.705 862.808 168.251C865.71 167.798 868.566 167.435 871.376 167.163C874.187 166.891 876.68 166.483 878.856 165.939C881.032 165.395 882.755 164.625 884.024 163.627C885.294 162.539 885.883 160.998 885.792 159.003C885.792 156.918 885.43 155.286 884.704 154.107C884.07 152.838 883.163 151.886 881.984 151.251C880.896 150.526 879.582 150.073 878.04 149.891C876.59 149.619 875.003 149.483 873.28 149.483C869.472 149.483 866.48 150.299 864.304 151.931C862.128 153.563 860.859 156.283 860.496 160.091H841.184ZM885.792 174.371C884.976 175.097 883.934 175.686 882.664 176.139C881.486 176.502 880.171 176.819 878.72 177.091C877.36 177.363 875.91 177.59 874.368 177.771C872.827 177.953 871.286 178.179 869.744 178.451C868.294 178.723 866.843 179.086 865.392 179.539C864.032 179.993 862.808 180.627 861.72 181.443C860.723 182.169 859.907 183.121 859.272 184.299C858.638 185.478 858.32 186.974 858.32 188.787C858.32 190.51 858.638 191.961 859.272 193.139C859.907 194.318 860.768 195.27 861.856 195.995C862.944 196.63 864.214 197.083 865.664 197.355C867.115 197.627 868.611 197.763 870.152 197.763C873.96 197.763 876.907 197.129 878.992 195.859C881.078 194.59 882.619 193.094 883.616 191.371C884.614 189.558 885.203 187.745 885.384 185.931C885.656 184.118 885.792 182.667 885.792 181.579V174.371ZM920.094 138.467V208.779H939.406V171.923C939.406 164.761 940.585 159.638 942.942 156.555C945.299 153.382 949.107 151.795 954.366 151.795C958.99 151.795 962.209 153.246 964.022 156.147C965.835 158.958 966.742 163.265 966.742 169.067V208.779H986.054V165.531C986.054 161.179 985.646 157.235 984.83 153.699C984.105 150.073 982.79 147.035 980.886 144.587C978.982 142.049 976.353 140.099 972.998 138.739C969.734 137.289 965.518 136.563 960.35 136.563C956.27 136.563 952.281 137.515 948.382 139.419C944.483 141.233 941.31 144.179 938.862 148.259H938.454V138.467H920.094ZM1050.62 173.419C1050.62 176.321 1050.35 179.131 1049.81 181.851C1049.26 184.571 1048.36 187.019 1047.09 189.195C1045.82 191.281 1044.1 192.958 1041.92 194.227C1039.83 195.497 1037.2 196.131 1034.03 196.131C1031.04 196.131 1028.46 195.497 1026.28 194.227C1024.19 192.867 1022.43 191.145 1020.98 189.059C1019.62 186.883 1018.62 184.435 1017.98 181.715C1017.35 178.995 1017.03 176.275 1017.03 173.555C1017.03 170.654 1017.3 167.889 1017.85 165.259C1018.48 162.539 1019.43 160.137 1020.7 158.051C1022.06 155.966 1023.83 154.289 1026.01 153.019C1028.18 151.75 1030.86 151.115 1034.03 151.115C1037.2 151.115 1039.83 151.75 1041.92 153.019C1044 154.289 1045.68 155.966 1046.95 158.051C1048.31 160.046 1049.26 162.403 1049.81 165.123C1050.35 167.753 1050.62 170.518 1050.62 173.419ZM1050.9 199.803V208.779H1069.26V111.675H1049.94V147.035H1049.67C1047.5 143.59 1044.5 141.006 1040.7 139.283C1036.98 137.47 1033.03 136.563 1028.86 136.563C1023.7 136.563 1019.16 137.606 1015.26 139.691C1011.36 141.686 1008.1 144.361 1005.47 147.715C1002.93 151.07 1000.98 154.969 999.623 159.411C998.354 163.763 997.719 168.297 997.719 173.011C997.719 177.907 998.354 182.622 999.623 187.155C1000.98 191.689 1002.93 195.723 1005.47 199.259C1008.1 202.705 1011.41 205.47 1015.4 207.555C1019.39 209.55 1024.01 210.547 1029.27 210.547C1033.9 210.547 1038.02 209.731 1041.65 208.099C1045.36 206.377 1048.36 203.611 1050.62 199.803H1050.9ZM1131.18 166.075H1099.76C1099.85 164.715 1100.13 163.174 1100.58 161.451C1101.12 159.729 1101.99 158.097 1103.16 156.555C1104.43 155.014 1106.07 153.745 1108.06 152.747C1110.15 151.659 1112.73 151.115 1115.81 151.115C1120.53 151.115 1124.02 152.385 1126.28 154.923C1128.64 157.462 1130.27 161.179 1131.18 166.075ZM1099.76 178.315H1150.49C1150.85 172.875 1150.4 167.662 1149.13 162.675C1147.86 157.689 1145.78 153.246 1142.88 149.347C1140.07 145.449 1136.44 142.366 1132 140.099C1127.55 137.742 1122.34 136.563 1116.36 136.563C1111.01 136.563 1106.11 137.515 1101.67 139.419C1097.32 141.323 1093.55 143.953 1090.38 147.307C1087.21 150.571 1084.76 154.47 1083.04 159.003C1081.31 163.537 1080.45 168.433 1080.45 173.691C1080.45 179.131 1081.27 184.118 1082.9 188.651C1084.62 193.185 1087.03 197.083 1090.11 200.347C1093.19 203.611 1096.95 206.15 1101.4 207.963C1105.84 209.686 1110.83 210.547 1116.36 210.547C1124.33 210.547 1131.13 208.734 1136.76 205.107C1142.38 201.481 1146.55 195.451 1149.27 187.019H1132.27C1131.63 189.195 1129.91 191.281 1127.1 193.275C1124.29 195.179 1120.93 196.131 1117.04 196.131C1111.6 196.131 1107.43 194.726 1104.52 191.915C1101.62 189.105 1100.04 184.571 1099.76 178.315ZM1162.49 138.467V208.779H1181.8V167.979C1181.8 164.534 1182.3 161.769 1183.3 159.683C1184.29 157.507 1185.47 155.875 1186.83 154.787C1188.28 153.609 1189.73 152.838 1191.19 152.475C1192.73 152.022 1193.95 151.795 1194.86 151.795C1197.94 151.795 1200.25 152.339 1201.79 153.427C1203.43 154.425 1204.56 155.785 1205.19 157.507C1205.92 159.23 1206.33 161.134 1206.42 163.219C1206.51 165.214 1206.55 167.254 1206.55 169.339V208.779H1225.87V169.611C1225.87 167.435 1226 165.305 1226.27 163.219C1226.64 161.043 1227.27 159.139 1228.18 157.507C1229.17 155.785 1230.49 154.425 1232.12 153.427C1233.84 152.339 1236.07 151.795 1238.79 151.795C1241.51 151.795 1243.64 152.249 1245.18 153.155C1246.81 154.062 1248.03 155.286 1248.85 156.827C1249.67 158.369 1250.16 160.182 1250.35 162.267C1250.53 164.353 1250.62 166.574 1250.62 168.931V208.779H1269.93V161.723C1269.93 157.19 1269.29 153.337 1268.03 150.163C1266.76 146.899 1264.99 144.27 1262.72 142.275C1260.45 140.281 1257.73 138.83 1254.56 137.923C1251.39 137.017 1247.94 136.563 1244.23 136.563C1239.33 136.563 1235.07 137.742 1231.44 140.099C1227.91 142.457 1225.09 145.177 1223.01 148.259C1221.11 143.907 1218.29 140.87 1214.58 139.147C1210.95 137.425 1206.92 136.563 1202.47 136.563C1197.85 136.563 1193.72 137.561 1190.1 139.555C1186.56 141.55 1183.52 144.361 1180.99 147.987H1180.71V138.467H1162.49ZM1305.05 127.587V111.675H1285.74V127.587H1305.05ZM1285.74 138.467V208.779H1305.05V138.467H1285.74ZM1368.13 163.219H1387.03C1386.76 158.686 1385.67 154.787 1383.77 151.523C1381.87 148.169 1379.37 145.403 1376.29 143.227C1373.3 140.961 1369.85 139.283 1365.95 138.195C1362.15 137.107 1358.16 136.563 1353.99 136.563C1348.27 136.563 1343.2 137.515 1338.75 139.419C1334.31 141.323 1330.55 143.998 1327.47 147.443C1324.38 150.798 1322.03 154.833 1320.39 159.547C1318.85 164.171 1318.08 169.203 1318.08 174.643C1318.08 179.902 1318.94 184.753 1320.67 189.195C1322.39 193.547 1324.79 197.31 1327.87 200.483C1330.96 203.657 1334.67 206.15 1339.03 207.963C1343.47 209.686 1348.32 210.547 1353.58 210.547C1362.92 210.547 1370.58 208.099 1376.56 203.203C1382.55 198.307 1386.17 191.19 1387.44 181.851H1368.81C1368.18 186.203 1366.59 189.694 1364.05 192.323C1361.6 194.862 1358.07 196.131 1353.44 196.131C1350.45 196.131 1347.91 195.451 1345.83 194.091C1343.74 192.731 1342.06 191.009 1340.79 188.923C1339.62 186.747 1338.75 184.345 1338.21 181.715C1337.67 179.086 1337.39 176.502 1337.39 173.963C1337.39 171.334 1337.67 168.705 1338.21 166.075C1338.75 163.355 1339.66 160.907 1340.93 158.731C1342.29 156.465 1344.01 154.651 1346.1 153.291C1348.18 151.841 1350.77 151.115 1353.85 151.115C1362.1 151.115 1366.86 155.15 1368.13 163.219ZM1413.31 185.931H1394.95C1395.13 190.646 1396.18 194.59 1398.08 197.763C1400.07 200.846 1402.57 203.339 1405.56 205.243C1408.64 207.147 1412.13 208.507 1416.03 209.323C1419.93 210.139 1423.92 210.547 1428 210.547C1431.99 210.547 1435.89 210.139 1439.7 209.323C1443.59 208.598 1447.04 207.283 1450.03 205.379C1453.02 203.475 1455.43 200.982 1457.24 197.899C1459.14 194.726 1460.1 190.827 1460.1 186.203C1460.1 182.939 1459.46 180.219 1458.19 178.043C1456.92 175.777 1455.25 173.918 1453.16 172.467C1451.07 170.926 1448.67 169.702 1445.95 168.795C1443.32 167.889 1440.6 167.118 1437.79 166.483C1435.07 165.849 1432.4 165.259 1429.77 164.715C1427.14 164.171 1424.78 163.582 1422.7 162.947C1420.7 162.222 1419.07 161.315 1417.8 160.227C1416.53 159.139 1415.9 157.734 1415.9 156.011C1415.9 154.561 1416.26 153.427 1416.98 152.611C1417.71 151.705 1418.57 151.025 1419.57 150.571C1420.66 150.118 1421.83 149.846 1423.1 149.755C1424.37 149.574 1425.55 149.483 1426.64 149.483C1430.09 149.483 1433.08 150.163 1435.62 151.523C1438.15 152.793 1439.56 155.286 1439.83 159.003H1458.19C1457.83 154.651 1456.7 151.07 1454.79 148.259C1452.98 145.358 1450.67 143.046 1447.86 141.323C1445.05 139.601 1441.83 138.377 1438.2 137.651C1434.66 136.926 1430.99 136.563 1427.18 136.563C1423.38 136.563 1419.66 136.926 1416.03 137.651C1412.41 138.286 1409.14 139.465 1406.24 141.187C1403.34 142.819 1400.98 145.086 1399.17 147.987C1397.45 150.889 1396.58 154.606 1396.58 159.139C1396.58 162.222 1397.22 164.851 1398.49 167.027C1399.76 169.113 1401.43 170.881 1403.52 172.331C1405.61 173.691 1407.96 174.825 1410.59 175.731C1413.31 176.547 1416.08 177.273 1418.89 177.907C1425.78 179.358 1431.13 180.809 1434.94 182.259C1438.83 183.71 1440.78 185.886 1440.78 188.787C1440.78 190.51 1440.38 191.961 1439.56 193.139C1438.74 194.227 1437.7 195.134 1436.43 195.859C1435.25 196.494 1433.89 196.993 1432.35 197.355C1430.9 197.627 1429.5 197.763 1428.14 197.763C1426.23 197.763 1424.37 197.537 1422.56 197.083C1420.84 196.63 1419.3 195.95 1417.94 195.043C1416.58 194.046 1415.44 192.822 1414.54 191.371C1413.72 189.83 1413.31 188.017 1413.31 185.931ZM1472.21 187.835V208.779H1493.57V187.835H1472.21ZM1511.29 111.675V208.779H1585V190.827H1532.64V167.027H1579.7V150.435H1532.64V129.627H1583.91V111.675H1511.29ZM1596.62 160.091C1596.89 155.558 1598.03 151.795 1600.02 148.803C1602.02 145.811 1604.56 143.409 1607.64 141.595C1610.72 139.782 1614.17 138.513 1617.97 137.787C1621.87 136.971 1625.77 136.563 1629.67 136.563C1633.21 136.563 1636.79 136.835 1640.41 137.379C1644.04 137.833 1647.35 138.785 1650.34 140.235C1653.33 141.686 1655.78 143.726 1657.69 146.355C1659.59 148.894 1660.54 152.294 1660.54 156.555V193.139C1660.54 196.313 1660.72 199.35 1661.09 202.251C1661.45 205.153 1662.08 207.329 1662.99 208.779H1643.41C1643.04 207.691 1642.73 206.603 1642.45 205.515C1642.27 204.337 1642.14 203.158 1642.05 201.979C1638.96 205.153 1635.34 207.374 1631.17 208.643C1627 209.913 1622.73 210.547 1618.38 210.547C1615.03 210.547 1611.9 210.139 1609 209.323C1606.1 208.507 1603.56 207.238 1601.38 205.515C1599.21 203.793 1597.48 201.617 1596.21 198.987C1595.04 196.358 1594.45 193.23 1594.45 189.603C1594.45 185.614 1595.13 182.35 1596.49 179.811C1597.94 177.182 1599.75 175.097 1601.93 173.555C1604.19 172.014 1606.73 170.881 1609.54 170.155C1612.44 169.339 1615.34 168.705 1618.25 168.251C1621.15 167.798 1624 167.435 1626.81 167.163C1629.62 166.891 1632.12 166.483 1634.29 165.939C1636.47 165.395 1638.19 164.625 1639.46 163.627C1640.73 162.539 1641.32 160.998 1641.23 159.003C1641.23 156.918 1640.87 155.286 1640.14 154.107C1639.51 152.838 1638.6 151.886 1637.42 151.251C1636.33 150.526 1635.02 150.073 1633.48 149.891C1632.03 149.619 1630.44 149.483 1628.72 149.483C1624.91 149.483 1621.92 150.299 1619.74 151.931C1617.57 153.563 1616.3 156.283 1615.93 160.091H1596.62ZM1641.23 174.371C1640.41 175.097 1639.37 175.686 1638.1 176.139C1636.92 176.502 1635.61 176.819 1634.16 177.091C1632.8 177.363 1631.35 177.59 1629.81 177.771C1628.26 177.953 1626.72 178.179 1625.18 178.451C1623.73 178.723 1622.28 179.086 1620.83 179.539C1619.47 179.993 1618.25 180.627 1617.16 181.443C1616.16 182.169 1615.34 183.121 1614.71 184.299C1614.08 185.478 1613.76 186.974 1613.76 188.787C1613.76 190.51 1614.08 191.961 1614.71 193.139C1615.34 194.318 1616.21 195.27 1617.29 195.995C1618.38 196.63 1619.65 197.083 1621.1 197.355C1622.55 197.627 1624.05 197.763 1625.59 197.763C1629.4 197.763 1632.34 197.129 1634.43 195.859C1636.52 194.59 1638.06 193.094 1639.05 191.371C1640.05 189.558 1640.64 187.745 1640.82 185.931C1641.09 184.118 1641.23 182.667 1641.23 181.579V174.371ZM1675.53 138.467V208.779H1694.84V177.091C1694.84 173.918 1695.16 170.971 1695.8 168.251C1696.43 165.531 1697.47 163.174 1698.92 161.179C1700.46 159.094 1702.46 157.462 1704.91 156.283C1707.36 155.105 1710.35 154.515 1713.88 154.515C1715.06 154.515 1716.29 154.606 1717.56 154.787C1718.82 154.878 1719.91 155.014 1720.82 155.195V137.243C1719.28 136.79 1717.87 136.563 1716.6 136.563C1714.16 136.563 1711.8 136.926 1709.53 137.651C1707.26 138.377 1705.13 139.419 1703.14 140.779C1701.14 142.049 1699.38 143.635 1697.84 145.539C1696.29 147.353 1695.07 149.347 1694.16 151.523H1693.89V138.467H1675.53ZM1752.87 138.467V117.387H1733.56V138.467H1721.86V151.387H1733.56V192.867C1733.56 196.403 1734.15 199.259 1735.33 201.435C1736.51 203.611 1738.09 205.289 1740.09 206.467C1742.17 207.646 1744.53 208.417 1747.16 208.779C1749.88 209.233 1752.73 209.459 1755.73 209.459C1757.63 209.459 1759.58 209.414 1761.57 209.323C1763.57 209.233 1765.38 209.051 1767.01 208.779V193.819C1766.11 194.001 1765.16 194.137 1764.16 194.227C1763.16 194.318 1762.12 194.363 1761.03 194.363C1757.77 194.363 1755.59 193.819 1754.5 192.731C1753.41 191.643 1752.87 189.467 1752.87 186.203V151.387H1767.01V138.467H1752.87ZM1776.2 111.675V208.779H1795.52V171.923C1795.52 164.761 1796.69 159.638 1799.05 156.555C1801.41 153.382 1805.22 151.795 1810.48 151.795C1815.1 151.795 1818.32 153.246 1820.13 156.147C1821.94 158.958 1822.85 163.265 1822.85 169.067V208.779H1842.16V165.531C1842.16 161.179 1841.76 157.235 1840.94 153.699C1840.21 150.073 1838.9 147.035 1837 144.587C1835.09 142.049 1832.46 140.099 1829.11 138.739C1825.84 137.289 1821.63 136.563 1816.46 136.563C1812.83 136.563 1809.12 137.515 1805.31 139.419C1801.5 141.233 1798.37 144.179 1795.92 148.259H1795.52V111.675H1776.2Z" fill="white"/>
</g>
<defs>
<clipPath id="clip0">
<rect width="1959" height="432" fill="white" transform="translate(0 0.779297)"/>
</clipPath>
</defs>
</svg>
