<svg width="1518" height="433" viewBox="0 0 1518 433" fill="none" xmlns="http://www.w3.org/2000/svg">
<path fill-rule="evenodd" clip-rule="evenodd" d="M280.731 63.4346C278.663 63.317 276.591 63.2267 274.517 63.1638C280.469 75.2329 285.718 87.5561 290.263 100.074C294.4 99.789 298.463 99.4269 302.421 98.9893C310.755 98.0678 318.459 96.8296 325.297 95.3306C312.645 82.8809 297.771 72.0555 280.731 63.4346ZM267.389 57.9454L267.389 57.9453L267.389 136.65L267.389 111.757V106.848H267.389V100.848L267.389 81.9519V63.0558L267.389 57.9454ZM286.099 100.333C282.34 90.084 278.103 79.9685 273.389 70.0198L273.389 100.796C277.668 100.721 281.915 100.566 286.099 100.333ZM273.389 106.796C278.381 106.711 283.334 106.518 288.201 106.22C294.278 123.721 298.974 141.588 302.284 159.657C292.753 160.098 283.097 160.359 273.389 160.435V111.757V106.796ZM273.389 166.435C283.446 166.357 293.451 166.082 303.324 165.615C306.386 184.067 308.009 202.709 308.19 221.368H273.389V166.435ZM267.389 221.368V166.458H267.389L267.389 221.368H267.389ZM267.389 225.368L267.389 365.198L267.389 347.783V341.783L267.389 335.471V283.264V277.264L267.389 232.03V225.368H267.389ZM273.389 225.368H308.206C308.182 242.989 306.87 260.614 304.268 278.096C294.078 277.633 283.759 277.361 273.389 277.286L273.389 232.03V225.368ZM312.206 225.368C312.182 243.053 310.876 260.742 308.283 278.289C322.925 279.031 337.28 280.17 351.116 281.694C356.754 282.316 362.282 282.998 367.687 283.74C374.436 264.891 377.891 245.129 378.138 225.368H312.206ZM382.139 225.368C381.896 245.313 378.456 265.26 371.736 284.31C389.777 286.915 406.383 290.186 421.046 294.035C421.676 292.625 422.287 291.206 422.878 289.778C431.336 269.357 435.689 247.471 435.689 225.368L382.139 225.368ZM435.642 221.368H382.145C381.949 200.157 378.142 179.015 370.827 159.021C386.073 156.656 400.145 153.773 412.676 150.437C414.29 150.007 415.876 149.571 417.433 149.127C419.397 152.993 421.214 156.939 422.878 160.957C430.825 180.145 435.149 200.628 435.642 221.368ZM378.144 221.368H312.19C312.011 202.643 310.394 183.934 307.345 165.414C320.558 164.717 333.513 163.674 346.017 162.295C353.136 161.51 360.069 160.62 366.786 159.632C374.126 179.41 377.947 200.354 378.144 221.368ZM273.389 283.286C283.444 283.36 293.448 283.619 303.329 284.06C300.056 303.782 295.132 323.3 288.554 342.402C284.224 342.146 279.83 341.968 275.402 341.871C274.732 341.856 274.06 341.843 273.389 341.832L273.389 335.471V283.286ZM350.459 287.658C336.547 286.125 322.098 284.985 307.352 284.25C304.101 303.994 299.215 323.537 292.69 342.672C296.765 342.964 300.775 343.326 304.69 343.758C305.43 343.84 306.164 343.924 306.895 344.01C314.363 344.891 321.375 346.018 327.77 347.361C344.615 330.214 357.154 310.493 365.51 289.499C360.595 288.836 355.574 288.222 350.459 287.658ZM275.363 347.872C279.097 347.954 282.805 348.096 286.468 348.294C282.62 358.866 278.261 369.303 273.389 379.569L273.389 367.731V347.833C274.047 347.844 274.705 347.857 275.363 347.872ZM300.35 386.123C294.243 386.718 287.925 387.147 281.495 387.401L299.35 375.728C309.67 368.98 319.003 361.494 327.36 353.408C329.949 353.965 332.423 354.556 334.77 355.181C335.318 355.327 335.857 355.474 336.387 355.623C344.342 357.848 350.305 360.346 354.199 362.849C354.373 362.96 354.539 363.07 354.7 363.178C357.112 364.802 358.132 366.061 358.559 366.844C350.096 372.299 341.141 376.996 331.794 380.867C331.458 381.006 331.122 381.145 330.785 381.281C322.951 383.136 313.914 384.651 304.033 385.74C302.814 385.874 301.586 386.002 300.35 386.123ZM297.161 372.38C306.444 366.31 314.91 359.63 322.569 352.444C317.467 351.483 311.984 350.652 306.195 349.969C305.479 349.884 304.758 349.802 304.033 349.722C299.675 349.242 295.195 348.848 290.631 348.545C286.543 359.893 281.872 371.09 276.619 382.09L274.035 387.5L297.161 372.38ZM336.313 349.383C335.027 349.041 333.706 348.708 332.352 348.386C348.96 331.017 361.335 311.158 369.595 290.065C387.507 292.609 403.959 295.807 418.456 299.56C410.315 316.139 399.489 331.287 386.395 344.382C379.345 351.433 371.699 357.826 363.556 363.496C362.42 361.668 360.55 359.875 357.969 358.146C357.797 358.031 357.621 357.916 357.443 357.801C352.851 354.85 346.253 352.151 337.988 349.84C337.437 349.686 336.879 349.534 336.313 349.383ZM411.132 144.639C398.484 148.006 384.185 150.916 368.621 153.29C360.694 133.68 349.322 115.302 334.604 99.2117C342.67 96.9735 349.099 94.3511 353.556 91.4793C356.854 89.3538 359.026 87.121 360.023 84.8452C369.495 91.0901 378.334 98.2918 386.395 106.353C397.496 117.455 406.966 130.032 414.553 143.706C413.429 144.02 412.289 144.331 411.132 144.639ZM303.08 104.953C313.059 103.85 322.233 102.293 330.201 100.355C345.067 116.214 356.548 134.422 364.545 153.895C358.332 154.793 351.93 155.606 345.36 156.331C332.747 157.722 319.664 158.768 306.314 159.46C303.027 141.368 298.366 123.474 292.337 105.941C295.982 105.671 299.57 105.341 303.08 104.953ZM331.791 93.7591C331.166 93.9259 330.532 94.0902 329.889 94.252C318.583 82.8094 305.483 72.656 290.628 64.2075C308.955 66.0301 326.927 70.0032 344.022 76.0332C345.08 76.4065 346.134 76.7873 347.183 77.1755C349.641 78.4995 352.066 79.8839 354.453 81.3272C354.637 81.6986 354.655 81.9135 354.655 81.9519C354.655 82.0659 354.497 83.735 350.306 86.4358C346.363 88.9763 340.167 91.5231 331.791 93.7591Z" fill="white"/>
<mask id="mask0" mask-type="alpha" maskUnits="userSpaceOnUse" x="210" y="22" width="45" height="170">
<path d="M210.489 28.6205C224.945 24.6781 239.863 22.6839 254.847 22.6911L254.767 191.003L210.489 28.6205Z" fill="#130947"/>
</mask>
<g mask="url(#mask0)">
<path fill-rule="evenodd" clip-rule="evenodd" d="M86.4893 188.198H129.521C129.376 165.928 133.42 143.68 141.521 122.834C130.447 120.858 120.094 118.595 110.622 116.073C108.662 115.551 106.743 115.019 104.868 114.478C102.848 118.434 100.982 122.476 99.2771 126.593C91.1771 146.149 86.8418 167.05 86.4893 188.198ZM106.87 110.675C108.449 111.125 110.061 111.569 111.704 112.007C121.299 114.561 131.829 116.852 143.128 118.845C151.786 98.0949 164.529 78.8475 181.226 62.501C176.583 60.8442 172.721 59.0355 169.742 57.1154C166.157 54.8049 163.902 52.3675 163.04 49.886C153.225 56.267 144.078 63.6702 135.76 71.9887C124.299 83.4501 114.576 96.4848 106.87 110.675ZM184.843 37.9055C178.649 40.7348 172.642 43.9332 166.853 47.4798C166.851 47.517 166.85 47.5531 166.85 47.588C166.85 48.6444 167.682 50.7819 172.021 53.5783C175.064 55.5394 179.299 57.4589 184.661 59.2316C198.06 46.8285 213.846 36.2369 231.956 28.1141C215.862 29.7519 200.041 33.0361 184.843 37.9055ZM253.618 22.6953C254.001 22.6942 254.384 22.6933 254.767 22.6928L254.767 22.6914C254.384 22.6914 254.001 22.6927 253.618 22.6953ZM86.466 191.004C86.4661 213.106 90.8193 234.993 99.2771 255.413C99.8832 256.877 100.51 258.33 101.156 259.774C113.403 256.544 127.015 253.717 141.695 251.347C134.029 231.981 130.018 211.508 129.561 191.004H86.466ZM102.952 263.653C115.133 260.47 128.693 257.681 143.337 255.345C152.701 277.353 166.873 297.809 186.005 315.093C177.085 317.487 170.002 320.321 165.153 323.437C162.194 325.339 160.103 327.323 158.91 329.347C150.65 323.624 142.9 317.158 135.76 310.017C122.261 296.518 111.173 280.835 102.952 263.653ZM162.414 331.711C163.059 330.482 164.49 328.865 167.428 326.977C171.805 324.165 178.512 321.442 187.365 319.085C188.173 318.87 188.996 318.659 189.833 318.452C195.563 323.336 201.711 327.945 208.28 332.24L242.935 354.899C234.503 354.61 226.239 354.026 218.367 353.158C212.631 352.525 207.169 351.75 202.053 350.846C198.109 349.545 194.209 348.097 190.361 346.503C180.578 342.45 171.223 337.494 162.414 331.711ZM236.81 358.354C241.327 358.709 245.892 358.889 250.5 358.889C251.926 358.889 253.348 358.872 254.767 358.838L254.767 359.315C248.757 359.315 242.763 358.993 236.81 358.354ZM209.815 329.892C203.948 326.056 198.423 321.966 193.236 317.649C200.717 315.967 209.19 314.589 218.367 313.577C221.456 313.236 224.605 312.939 227.801 312.687L247.916 354.804L209.815 329.892ZM217.906 309.394C207.359 310.557 197.672 312.203 189.279 314.255C169.949 297.164 155.641 276.823 146.201 254.896C154.465 253.622 163.063 252.491 171.941 251.513C182.133 250.39 192.611 249.477 203.282 248.779C207.418 265.725 213.315 282.356 220.976 298.398L225.86 308.623C223.172 308.849 220.518 309.106 217.906 309.394ZM230.803 312.464L251 354.752L251 311.651C244.166 311.731 237.395 312.004 230.803 312.464ZM223.508 297.189L228.855 308.385C236.068 307.846 243.499 307.53 251 307.443V247.118C235.857 247.196 220.818 247.694 206.126 248.599C210.211 265.191 216.003 281.476 223.508 297.189ZM198.805 191.004C199.012 208.929 201.122 226.847 205.14 244.444C220.152 243.505 235.524 242.99 251 242.91L251.701 242.907L251.701 191.004H198.805ZM195.983 188.198C195.974 168.734 198.183 149.278 202.603 130.222C194.003 129.606 185.543 128.842 177.28 127.931C165.773 126.662 154.751 125.12 144.342 123.328C136.229 144 132.18 166.089 132.326 188.198H195.983ZM196 191.004C196.205 208.989 198.305 226.966 202.305 244.627C191.816 245.322 181.512 246.225 171.48 247.331C162.183 248.355 153.183 249.547 144.54 250.895C136.852 231.689 132.829 211.362 132.367 191.004H196ZM198.788 188.198H251.701L251.701 132.083C236.065 131.998 220.544 131.438 205.437 130.419C200.998 149.406 198.779 168.798 198.788 188.198ZM189.959 65.1922C187.947 64.6552 186.032 64.0947 184.218 63.5129C167.452 79.6496 154.657 98.731 145.966 119.337C156.013 121.046 166.643 122.524 177.741 123.748C186.173 124.678 194.813 125.454 203.602 126.074C208.32 107.169 215.228 88.6871 224.317 71.0124C222.939 70.88 221.572 70.7389 220.217 70.589C208.902 69.3379 198.62 67.5041 189.959 65.1922ZM191.044 61.1268C189.912 60.8246 188.817 60.5162 187.76 60.2023C201.904 47.36 218.693 36.5482 238.053 28.541L240.865 27.3777C243.05 27.2387 245.238 27.1299 247.43 27.0514L226.424 66.9827C224.488 66.808 222.572 66.6159 220.68 66.4067C209.521 65.1729 199.455 63.3718 191.044 61.1268ZM251.701 26.9371C251.35 26.9433 250.999 26.9503 250.648 26.9581L229.458 67.2408C236.676 67.8186 244.147 68.1585 251.701 68.2507L251.701 26.9371ZM251.701 72.4588C243.414 72.3589 235.219 71.9644 227.332 71.2868C218.164 88.922 211.199 107.38 206.445 126.269C221.226 127.251 236.406 127.791 251.701 127.875L251.701 72.4588Z" fill="white"/>
</g>
<mask id="mask1" mask-type="alpha" maskUnits="userSpaceOnUse" x="85" y="8" width="143" height="162">
<path d="M85.8623 78.2232C107.599 44.4214 140.712 19.5134 179.214 8.003L227.417 169.264L85.8623 78.2232Z" fill="#130947"/>
</mask>
<g mask="url(#mask1)">
<path fill-rule="evenodd" clip-rule="evenodd" d="M227.417 0.95166C227.036 0.95166 226.655 0.952953 226.274 0.955538C226.655 0.954411 227.036 0.953565 227.417 0.953001L227.417 0.95166ZM163.011 13.7636C183.078 5.45093 204.562 1.10293 226.274 0.955538C226.272 0.955545 226.27 0.955552 226.267 0.95556C204.557 1.10389 183.076 5.45185 163.011 13.7636ZM157.494 16.1656C172.692 11.2963 188.512 8.01212 204.606 6.37436C186.496 14.4971 170.71 25.0888 157.311 37.4919C151.949 35.7191 147.714 33.7997 144.671 31.8386C140.332 29.0422 139.5 26.9046 139.5 25.8483C139.5 25.8134 139.501 25.7773 139.503 25.7401C145.292 22.1934 151.3 18.995 157.494 16.1656ZM135.691 28.1463C136.553 30.6278 138.807 33.0651 142.392 35.3756C145.372 37.2958 149.233 39.1044 153.877 40.7612C137.18 57.1078 124.437 76.3551 115.779 97.1054C104.48 95.1117 93.949 92.8213 84.3546 90.267C82.7112 89.8294 81.0998 89.3854 79.5207 88.935C87.2269 74.745 96.9499 61.7104 108.411 50.249C116.729 41.9304 125.875 34.5273 135.691 28.1463ZM77.5179 92.7379C79.3938 93.2795 81.3122 93.8113 83.2722 94.3331C92.7446 96.8549 103.097 99.1179 114.172 101.094C106.07 121.94 102.027 144.189 102.171 166.459H59.1398C59.4922 145.311 63.8275 124.41 71.9275 104.853C72.0341 104.596 72.1413 104.339 72.2491 104.082C73.8666 100.231 75.6245 96.4474 77.5179 92.7379ZM135.064 309.971C135.71 308.742 137.141 307.125 140.078 305.237C144.455 302.425 151.163 299.702 160.016 297.346C160.824 297.131 161.646 296.919 162.483 296.712C168.214 301.596 174.362 306.206 180.93 310.5L215.586 333.159C207.153 332.871 198.89 332.286 191.017 331.418C185.281 330.785 179.82 330.01 174.704 329.106C170.76 327.805 166.859 326.357 163.011 324.763C153.228 320.711 143.874 315.754 135.064 309.971ZM131.561 307.608C132.753 305.584 134.845 303.599 137.804 301.698C142.652 298.582 149.735 295.748 158.656 293.354C139.523 276.07 125.351 255.613 115.987 233.605C101.343 235.942 87.7834 238.73 75.6022 241.914C83.8235 259.096 94.9116 274.778 108.41 288.278C115.55 295.418 123.301 301.884 131.561 307.608ZM68.9487 225.949C62.4494 207.778 59.1165 188.604 59.1164 169.264H102.211C102.668 189.768 106.679 210.241 114.346 229.607C99.6658 231.977 86.0534 234.804 73.8064 238.035C73.16 236.591 72.5336 235.137 71.9275 233.673C70.8703 231.121 69.8772 228.545 68.9487 225.949ZM182.465 308.152C176.599 304.317 171.073 300.226 165.886 295.909C173.367 294.227 181.84 292.849 191.017 291.837C194.106 291.496 197.255 291.2 200.451 290.947L220.567 333.064L182.465 308.152ZM190.556 287.655C180.009 288.818 170.322 290.464 161.929 292.515C142.599 275.424 128.292 255.083 118.851 233.156C127.116 231.882 135.713 230.752 144.591 229.773C154.784 228.65 165.262 227.737 175.932 227.04C180.069 243.985 185.965 260.616 193.627 276.658L198.511 286.883C195.823 287.109 193.169 287.367 190.556 287.655ZM203.453 290.724L223.65 333.012L223.65 289.912C216.816 289.991 210.045 290.264 203.453 290.724ZM196.158 275.449L201.506 286.646C208.719 286.107 216.149 285.79 223.65 285.704V225.379C208.507 225.456 193.468 225.954 178.776 226.859C182.861 243.452 188.653 259.736 196.158 275.449ZM171.455 169.264C171.662 187.19 173.772 205.107 177.791 222.705C192.802 221.766 208.174 221.25 223.65 221.171L224.352 221.167L224.352 169.264H171.455ZM168.633 166.459C168.624 146.994 170.833 127.539 175.254 108.482C166.653 107.867 158.193 107.102 149.93 106.191C138.423 104.922 127.402 103.38 116.992 101.588C108.879 122.26 104.83 144.349 104.976 166.459H168.633ZM168.65 169.264C168.856 187.249 170.955 205.226 174.955 222.887C164.467 223.582 154.162 224.485 144.13 225.591C134.833 226.615 125.833 227.807 117.19 229.155C109.503 209.95 105.479 189.623 105.017 169.264H168.65ZM171.438 166.459H224.352L224.352 110.343C208.715 110.258 193.195 109.698 178.088 108.679C173.648 127.667 171.429 147.058 171.438 166.459ZM162.61 43.4525C160.598 42.9154 158.682 42.3549 156.869 41.7731C140.102 57.9098 127.307 76.9912 118.617 97.5973C128.663 99.3067 139.293 100.785 150.392 102.008C158.823 102.938 167.463 103.715 176.252 104.334C180.97 85.4293 187.878 66.9474 196.967 49.2726C195.59 49.1402 194.223 48.9991 192.868 48.8493C181.552 47.5981 171.27 45.7643 162.61 43.4525ZM163.695 39.387C162.563 39.0848 161.468 38.7765 160.41 38.4625C174.555 25.6202 191.343 14.8085 210.703 6.80122L213.516 5.6379C215.7 5.49889 217.889 5.39008 220.08 5.31164L199.074 45.2429C197.138 45.0682 195.222 44.8762 193.33 44.667C182.171 43.4332 172.105 41.632 163.695 39.387ZM224.352 5.19729C224.001 5.20352 223.65 5.21053 223.299 5.21832L202.108 45.5011C209.326 46.0788 216.798 46.4187 224.352 46.5109L224.352 5.19729ZM224.352 50.719C216.065 50.6191 207.87 50.2246 199.983 49.547C190.814 67.1822 183.849 85.6402 179.095 104.529C193.876 105.511 209.056 106.052 224.352 106.135L224.352 50.719Z" fill="white"/>
</g>
<mask id="mask2" mask-type="alpha" maskUnits="userSpaceOnUse" x="55" y="107" width="168" height="92">
<path d="M55.6896 176.43C58.9758 151.83 67.6612 128.262 81.1236 107.412L222.508 198.718L55.6896 176.43Z" fill="#130947"/>
</mask>
<g mask="url(#mask2)">
<path fill-rule="evenodd" clip-rule="evenodd" d="M222.508 30.4062C222.127 30.4063 221.746 30.4075 221.365 30.4101C221.746 30.409 222.127 30.4082 222.508 30.4076L222.508 30.4062ZM158.102 43.2182C178.169 34.9055 199.652 30.5575 221.365 30.4101C221.363 30.4101 221.36 30.4101 221.358 30.4101C199.647 30.5585 178.167 34.9064 158.102 43.2182ZM152.584 45.6202C167.783 40.7509 183.603 37.4667 199.697 35.829C181.587 43.9517 165.801 54.5433 152.402 66.9464C147.04 65.1737 142.805 63.2543 139.762 61.2932C135.423 58.4968 134.591 56.3592 134.591 55.3029C134.591 55.268 134.592 55.2319 134.594 55.1946C140.383 51.648 146.39 48.4496 152.584 45.6202ZM130.782 57.6009C131.643 60.0824 133.898 62.5197 137.483 64.8302C140.463 66.7503 144.324 68.559 148.967 70.2158C132.27 86.5624 119.527 105.81 110.869 126.56C99.5705 124.566 89.0398 122.276 79.4454 119.722C77.802 119.284 76.1906 118.84 74.6115 118.39C82.3177 104.2 92.0407 91.165 103.501 79.7036C111.819 71.385 120.966 63.9819 130.782 57.6009ZM72.6087 122.193C74.4846 122.734 76.403 123.266 78.363 123.788C87.8354 126.31 98.188 128.572 109.263 130.548C101.161 151.395 97.1176 173.643 97.2618 195.913H54.2306C54.583 174.765 58.9184 153.864 67.0184 134.308C67.1249 134.05 67.2321 133.793 67.34 133.537C68.9574 129.686 70.7153 125.902 72.6087 122.193ZM130.155 339.426C130.801 338.197 132.231 336.58 135.169 334.692C139.546 331.879 146.254 329.157 155.106 326.8C155.915 326.585 156.737 326.374 157.574 326.167C163.305 331.051 169.453 335.66 176.021 339.955L210.677 362.613C202.244 362.325 193.98 361.741 186.108 360.873C180.372 360.24 174.91 359.464 169.794 358.561C165.85 357.26 161.95 355.812 158.102 354.218C148.319 350.165 138.965 345.209 130.155 339.426ZM126.651 337.062C127.844 335.038 129.935 333.054 132.894 331.152C137.743 328.036 144.826 325.202 153.746 322.808C134.614 305.524 120.442 285.068 111.078 263.06C96.4343 265.396 82.8742 268.185 70.693 271.368C78.9143 288.55 90.0024 304.232 103.501 317.732C110.641 324.873 118.392 331.338 126.651 337.062ZM64.0395 255.404C57.5402 237.233 54.2073 218.058 54.2072 198.718H97.3021C97.7588 219.222 101.77 239.696 109.436 259.061C94.7566 261.432 81.1442 264.258 68.8972 267.489C68.2509 266.045 67.6245 264.591 67.0183 263.128C65.9611 260.575 64.968 258 64.0395 255.404ZM177.556 337.607C171.689 333.771 166.164 329.681 160.977 325.364C168.458 323.682 176.931 322.304 186.108 321.292C189.197 320.951 192.346 320.654 195.542 320.402L215.657 362.518L177.556 337.607ZM185.647 317.109C175.1 318.272 165.413 319.918 157.02 321.97C137.69 304.879 123.383 284.538 113.942 262.61C122.207 261.337 130.804 260.206 139.682 259.228C149.874 258.105 160.353 257.192 171.023 256.494C175.16 273.44 181.056 290.071 188.718 306.113L193.601 316.338C190.914 316.564 188.26 316.821 185.647 317.109ZM198.544 320.178L218.741 362.467L218.741 319.366C211.907 319.446 205.136 319.719 198.544 320.178ZM191.249 304.904L196.596 316.1C203.809 315.561 211.24 315.245 218.741 315.158V254.833C203.598 254.911 188.559 255.409 173.867 256.314C177.952 272.906 183.744 289.19 191.249 304.904ZM166.546 198.718C166.753 216.644 168.863 234.562 172.881 252.159C187.893 251.22 203.265 250.704 218.741 250.625L219.443 250.622L219.442 198.718H166.546ZM163.724 195.913C163.715 176.449 165.924 156.993 170.344 137.936C161.744 137.321 153.284 136.557 145.021 135.645C133.514 134.377 122.492 132.835 112.083 131.043C103.97 151.715 99.9209 173.803 100.067 195.913H163.724ZM163.741 198.718C163.946 216.704 166.046 234.681 170.046 252.342C159.557 253.037 149.253 253.94 139.221 255.045C129.924 256.07 120.924 257.262 112.281 258.61C104.593 239.404 100.57 219.077 100.108 198.718H163.741ZM166.529 195.913H219.442L219.443 139.798C203.806 139.713 188.286 139.153 173.179 138.133C168.739 157.121 166.52 176.513 166.529 195.913ZM157.701 72.9071C155.689 72.37 153.773 71.8095 151.959 71.2277C135.193 87.3644 122.398 106.446 113.708 127.052C123.754 128.761 134.384 130.239 145.482 131.463C153.914 132.393 162.554 133.169 171.343 133.789C176.061 114.884 182.969 96.4019 192.058 78.7272C190.68 78.5948 189.314 78.4537 187.958 78.3039C176.643 77.0527 166.361 75.2189 157.701 72.9071ZM158.786 68.8416C157.654 68.5394 156.559 68.231 155.501 67.9171C169.646 55.0748 186.434 44.263 205.794 36.2558L208.607 35.0925C210.791 34.9535 212.98 34.8447 215.171 34.7662L194.165 74.6975C192.229 74.5228 190.313 74.3308 188.421 74.1215C177.262 72.8878 167.196 71.0866 158.786 68.8416ZM219.442 34.6519C219.091 34.6581 218.74 34.6651 218.389 34.6729L197.199 74.9557C204.417 75.5334 211.888 75.8733 219.443 75.9655L219.442 34.6519ZM219.443 80.1736C211.156 80.0737 202.961 79.6792 195.074 79.0016C185.905 96.6368 178.94 115.095 174.186 133.984C188.967 134.965 204.147 135.506 219.443 135.59L219.443 80.1736Z" fill="white"/>
</g>
<mask id="mask3" mask-type="alpha" maskUnits="userSpaceOnUse" x="67" y="207" width="169" height="149">
<path d="M124.732 355.301C104.067 337.139 88.1694 314.188 78.4304 288.457C68.6914 262.726 65.4082 235 68.8681 207.706L235.832 228.874L124.732 355.301Z" fill="#130947"/>
</mask>
<g mask="url(#mask3)">
<path fill-rule="evenodd" clip-rule="evenodd" d="M235.832 60.5625C235.451 60.5625 235.07 60.5638 234.689 60.5664C235.07 60.5653 235.451 60.5644 235.832 60.5638L235.832 60.5625ZM171.426 73.3744C191.493 65.0618 212.977 60.7138 234.689 60.5664C234.687 60.5664 234.685 60.5664 234.682 60.5664C212.972 60.7147 191.491 65.0627 171.426 73.3744ZM165.909 75.7765C181.107 70.9072 196.927 67.623 213.021 65.9852C194.911 74.1079 179.126 84.6996 165.726 97.1027C160.365 95.3299 156.129 93.4105 153.086 91.4494C148.747 88.653 147.915 86.5155 147.915 85.4591C147.915 85.4242 147.916 85.3881 147.918 85.3509C153.707 81.8043 159.715 78.6058 165.909 75.7765ZM144.106 87.7571C144.968 90.2386 147.222 92.676 150.807 94.9864C153.787 96.9066 157.649 98.7152 162.292 100.372C145.595 116.719 132.852 135.966 124.194 156.716C112.895 154.723 102.364 152.432 92.7696 149.878C91.1262 149.44 89.5148 148.996 87.9358 148.546C95.6419 134.356 105.365 121.321 116.826 109.86C125.144 101.541 134.29 94.1381 144.106 87.7571ZM85.933 152.349C87.8088 152.89 89.7272 153.422 91.6872 153.944C101.16 156.466 111.512 158.729 122.587 160.705C114.485 181.551 110.442 203.799 110.586 226.069H67.5548C67.9072 204.921 72.2426 184.02 80.3426 164.464C80.4492 164.207 80.5564 163.95 80.6642 163.693C82.2816 159.842 84.0395 156.058 85.933 152.349ZM143.479 369.582C144.125 368.353 145.556 366.736 148.493 364.848C152.87 362.036 159.578 359.313 168.431 356.957C169.239 356.741 170.061 356.53 170.898 356.323C176.629 361.207 182.777 365.817 189.345 370.111L224.001 392.77C215.568 392.481 207.305 391.897 199.432 391.029C193.696 390.396 188.235 389.621 183.119 388.717C179.175 387.416 175.274 385.968 171.426 384.374C161.643 380.321 152.289 375.365 143.479 369.582ZM139.976 367.219C141.168 365.194 143.26 363.21 146.219 361.308C151.067 358.193 158.15 355.358 167.071 352.965C147.938 335.68 133.766 315.224 124.402 293.216C109.758 295.552 96.1984 298.341 84.0172 301.524C92.2385 318.706 103.327 334.389 116.826 347.888C123.965 355.029 131.716 361.495 139.976 367.219ZM77.3638 285.56C70.8645 267.389 67.5315 248.215 67.5314 228.875H110.626C111.083 249.379 115.094 269.852 122.761 289.218C108.081 291.588 94.4684 294.415 82.2214 297.645C81.5751 296.202 80.9487 294.748 80.3425 293.284C79.2853 290.732 78.2922 288.156 77.3638 285.56ZM190.88 367.763C185.014 363.928 179.488 359.837 174.301 355.52C181.782 353.838 190.255 352.46 199.432 351.448C202.521 351.107 205.67 350.81 208.866 350.558L228.982 392.675L190.88 367.763ZM198.971 347.265C188.424 348.428 178.737 350.074 170.344 352.126C151.014 335.035 136.707 314.694 127.267 292.767C135.531 291.493 144.128 290.362 153.006 289.384C163.199 288.261 173.677 287.348 184.347 286.651C188.484 303.596 194.38 320.227 202.042 336.269L206.926 346.494C204.238 346.72 201.584 346.977 198.971 347.265ZM211.868 350.335L232.065 392.623L232.065 349.523C225.231 349.602 218.46 349.875 211.868 350.335ZM204.573 335.06L209.921 346.257C217.134 345.717 224.564 345.401 232.065 345.314V284.989C216.922 285.067 201.883 285.565 187.191 286.47C191.276 303.062 197.068 319.347 204.573 335.06ZM179.87 228.875C180.077 246.8 182.187 264.718 186.206 282.315C201.218 281.377 216.589 280.861 232.065 280.782L232.767 280.778L232.767 228.875H179.87ZM177.048 226.069C177.039 206.605 179.248 187.149 183.669 168.093C175.068 167.478 166.608 166.713 158.346 165.802C146.838 164.533 135.817 162.991 125.407 161.199C117.294 181.871 113.245 203.96 113.391 226.069H177.048ZM177.065 228.875C177.271 246.86 179.37 264.837 183.37 282.498C172.882 283.193 162.577 284.096 152.545 285.202C143.248 286.226 134.248 287.418 125.605 288.766C117.918 269.56 113.894 249.234 113.432 228.875H177.065ZM179.853 226.069H232.767L232.767 169.954C217.131 169.869 201.61 169.309 186.503 168.29C182.063 187.277 179.844 206.669 179.853 226.069ZM171.025 103.063C169.013 102.526 167.097 101.966 165.284 101.384C148.517 117.521 135.722 136.602 127.032 157.208C137.078 158.918 147.708 160.395 158.807 161.619C167.238 162.549 175.878 163.325 184.667 163.945C189.385 145.04 196.293 126.558 205.382 108.883C204.005 108.751 202.638 108.61 201.283 108.46C189.967 107.209 179.685 105.375 171.025 103.063ZM172.11 98.9978C170.978 98.6957 169.883 98.3873 168.825 98.0733C182.97 85.2311 199.758 74.4193 219.118 66.4121L221.931 65.2487C224.115 65.1097 226.304 65.0009 228.495 64.9225L207.489 104.854C205.553 104.679 203.637 104.487 201.745 104.278C190.586 103.044 180.52 101.243 172.11 98.9978ZM232.767 64.8081C232.416 64.8144 232.065 64.8214 231.714 64.8292L210.523 105.112C217.741 105.69 225.213 106.03 232.767 106.122L232.767 64.8081ZM232.767 110.33C224.48 110.23 216.285 109.835 208.398 109.158C199.229 126.793 192.264 145.251 187.51 164.14C202.291 165.122 217.471 165.662 232.767 165.746L232.767 110.33Z" fill="white"/>
</g>
<mask id="mask4" mask-type="alpha" maskUnits="userSpaceOnUse" x="145" y="237" width="114" height="170">
<path d="M258.272 406.302C216.598 406.302 176.406 390.839 145.476 362.907L258.272 237.99L258.272 406.302Z" fill="#130947"/>
</mask>
<g mask="url(#mask4)">
<path fill-rule="evenodd" clip-rule="evenodd" d="M258.272 69.6797C257.89 69.6803 257.508 69.6811 257.126 69.6822C235.414 69.8302 213.933 74.1782 193.867 82.4903C192.012 83.2586 190.172 84.0595 188.349 84.8924C203.547 80.023 219.368 76.7388 235.461 75.101C217.352 83.2238 201.566 93.8154 188.166 106.219C182.805 104.446 178.57 102.526 175.527 100.565C171.187 97.7689 170.356 95.6313 170.356 94.5749C170.356 94.54 170.357 94.504 170.358 94.4667C169.077 95.2518 167.806 96.054 166.546 96.8729C167.408 99.3545 169.662 101.792 173.248 104.102C176.227 106.022 180.089 107.831 184.732 109.488C168.035 125.834 155.292 145.082 146.634 165.832C135.335 163.838 124.804 161.548 115.21 158.994C113.567 158.556 111.955 158.112 110.376 157.662C109.693 158.92 109.025 160.188 108.373 161.465C110.249 162.006 112.168 162.538 114.128 163.06C123.6 165.582 133.953 167.845 145.027 169.821C136.926 190.667 132.882 212.915 133.026 235.185H89.9952C89.9797 236.12 89.9719 237.055 89.9719 237.99C89.9719 237.99 89.9719 237.99 89.9719 237.991H133.067C133.523 258.494 137.535 278.968 145.201 298.333C130.521 300.704 116.909 303.531 104.662 306.761C105.244 308.062 105.843 309.356 106.458 310.64C118.639 307.457 132.199 304.668 146.843 302.332C152.333 315.237 159.477 327.608 168.305 339.12L170.216 336.993C161.83 325.985 155.003 314.183 149.707 301.882C157.971 300.609 166.568 299.478 175.447 298.5C185.639 297.377 196.117 296.464 206.788 295.766C206.821 295.904 206.855 296.041 206.889 296.178L211.299 291.27C210.413 291.322 209.529 291.376 208.646 291.431C204.628 273.834 202.518 255.916 202.311 237.991H255.207L255.207 242.402L258.272 238.99L258.272 237.99L258.272 69.6797ZM205.559 397.833C210.675 398.737 216.136 399.512 221.873 400.145C229.745 401.013 238.008 401.597 246.441 401.886L211.786 379.227C205.217 374.932 199.069 370.323 193.339 365.439C192.502 365.646 191.679 365.857 190.871 366.072C182.018 368.429 175.31 371.151 170.934 373.964C167.996 375.852 166.565 377.469 165.92 378.698C174.729 384.481 184.084 389.437 193.867 393.49C197.715 395.084 201.615 396.532 205.559 397.833ZM162.416 376.334C163.608 374.31 165.7 372.326 168.659 370.424C173.507 367.308 180.591 364.474 189.511 362.08C181.598 354.931 174.533 347.24 168.305 339.12L146.283 363.63C151.403 368.195 156.791 372.437 162.416 376.334ZM255.207 242.402L255.207 289.894L254.506 289.897C239.94 289.972 225.467 290.433 211.299 291.27L255.207 242.402ZM206.889 296.178L170.216 336.993C176.78 345.608 184.298 353.738 192.785 361.242C201.177 359.19 210.865 357.544 221.412 356.381C224.024 356.093 226.678 355.836 229.366 355.61L224.482 345.385C216.883 329.473 211.02 312.981 206.889 296.178ZM213.321 376.879C207.454 373.043 201.929 368.953 196.741 364.636C204.223 362.954 212.696 361.576 221.873 360.564C224.962 360.223 228.111 359.926 231.307 359.674L251.422 401.791L213.321 376.879ZM234.309 359.45L254.506 401.739L254.506 358.638C247.672 358.718 240.901 358.991 234.309 359.45ZM227.013 344.176L232.361 355.372C239.574 354.833 247.005 354.517 254.506 354.43V294.105C239.362 294.183 224.324 294.681 209.632 295.586C213.716 312.178 219.509 328.463 227.013 344.176ZM199.489 235.185C199.48 215.721 201.689 196.265 206.109 177.208C197.508 176.593 189.049 175.829 180.786 174.918C169.279 173.649 158.257 172.107 147.848 170.315C139.735 190.987 135.686 213.076 135.832 235.185H199.489ZM199.506 237.991C199.711 255.976 201.811 273.953 205.811 291.614C195.322 292.309 185.018 293.212 174.986 294.317C165.688 295.342 156.689 296.534 148.046 297.882C140.358 278.676 136.334 258.349 135.873 237.991H199.506ZM202.294 235.185H255.207L255.207 179.07C239.571 178.985 224.05 178.425 208.943 177.405C204.504 196.393 202.285 215.785 202.294 235.185ZM193.465 112.179C191.453 111.642 189.538 111.082 187.724 110.5C170.957 126.636 158.162 145.718 149.472 166.324C159.519 168.033 170.148 169.511 181.247 170.735C189.679 171.665 198.319 172.441 207.107 173.061C211.826 154.156 218.733 135.674 227.822 117.999C226.445 117.867 225.078 117.726 223.723 117.576C212.407 116.325 202.126 114.491 193.465 112.179ZM194.55 108.114C193.418 107.812 192.323 107.503 191.266 107.189C205.41 94.3469 222.199 83.5351 241.559 75.5279L244.371 74.3646C246.556 74.2256 248.744 74.1168 250.936 74.0383L229.93 113.97C227.994 113.795 226.078 113.603 224.185 113.394C213.027 112.16 202.961 110.359 194.55 108.114ZM255.207 73.924C254.856 73.9302 254.505 73.9372 254.154 73.945L232.963 114.228C240.182 114.806 247.653 115.145 255.207 115.238L255.207 73.924ZM255.207 119.446C246.92 119.346 238.725 118.951 230.838 118.274C221.67 135.909 214.705 154.367 209.951 173.256C224.732 174.238 239.912 174.778 255.207 174.862L255.207 119.446Z" fill="white"/>
</g>
<path d="M501.384 106.286V203.39H575.096V185.438H522.736V161.638H569.792V145.046H522.736V124.238H574.008V106.286H501.384ZM587.532 133.078V203.39H606.844V166.534C606.844 159.371 608.022 154.248 610.38 151.166C612.737 147.992 616.545 146.406 621.804 146.406C626.428 146.406 629.646 147.856 631.46 150.758C633.273 153.568 634.18 157.875 634.18 163.678V203.39H653.492V160.142C653.492 155.79 653.084 151.846 652.268 148.31C651.542 144.683 650.228 141.646 648.324 139.198C646.42 136.659 643.79 134.71 640.436 133.35C637.172 131.899 632.956 131.174 627.788 131.174C623.708 131.174 619.718 132.126 615.82 134.03C611.921 135.843 608.748 138.79 606.3 142.87H605.892V133.078H587.532ZM718.061 168.03C718.061 170.931 717.789 173.742 717.245 176.462C716.701 179.182 715.794 181.63 714.525 183.806C713.255 185.891 711.533 187.568 709.357 188.838C707.271 190.107 704.642 190.742 701.469 190.742C698.477 190.742 695.893 190.107 693.717 188.838C691.631 187.478 689.863 185.755 688.413 183.67C687.053 181.494 686.055 179.046 685.421 176.326C684.786 173.606 684.469 170.886 684.469 168.166C684.469 165.264 684.741 162.499 685.285 159.87C685.919 157.15 686.871 154.747 688.141 152.662C689.501 150.576 691.269 148.899 693.445 147.63C695.621 146.36 698.295 145.726 701.469 145.726C704.642 145.726 707.271 146.36 709.357 147.63C711.442 148.899 713.119 150.576 714.389 152.662C715.749 154.656 716.701 157.014 717.245 159.734C717.789 162.363 718.061 165.128 718.061 168.03ZM718.333 194.414V203.39H736.693V106.286H717.381V141.646H717.109C714.933 138.2 711.941 135.616 708.133 133.894C704.415 132.08 700.471 131.174 696.301 131.174C691.133 131.174 686.599 132.216 682.701 134.302C678.802 136.296 675.538 138.971 672.909 142.326C670.37 145.68 668.421 149.579 667.061 154.022C665.791 158.374 665.157 162.907 665.157 167.622C665.157 172.518 665.791 177.232 667.061 181.766C668.421 186.299 670.37 190.334 672.909 193.87C675.538 197.315 678.847 200.08 682.837 202.166C686.826 204.16 691.45 205.158 696.709 205.158C701.333 205.158 705.458 204.342 709.085 202.71C712.802 200.987 715.794 198.222 718.061 194.414H718.333ZM774.681 151.982V122.878H791.273C793.721 122.878 796.079 123.059 798.345 123.422C800.612 123.784 802.607 124.51 804.329 125.598C806.052 126.595 807.412 128.046 808.409 129.95C809.497 131.854 810.041 134.347 810.041 137.43C810.041 140.512 809.497 143.006 808.409 144.91C807.412 146.814 806.052 148.31 804.329 149.398C802.607 150.395 800.612 151.075 798.345 151.438C796.079 151.8 793.721 151.982 791.273 151.982H774.681ZM753.329 106.286V203.39H774.681V168.574H797.121C803.196 168.574 808.364 167.712 812.625 165.99C816.887 164.176 820.332 161.819 822.961 158.918C825.681 156.016 827.631 152.707 828.809 148.99C830.079 145.182 830.713 141.328 830.713 137.43C830.713 133.44 830.079 129.587 828.809 125.87C827.631 122.152 825.681 118.843 822.961 115.942C820.332 113.04 816.887 110.728 812.625 109.006C808.364 107.192 803.196 106.286 797.121 106.286H753.329ZM841.184 154.702C841.456 150.168 842.59 146.406 844.584 143.414C846.579 140.422 849.118 138.019 852.2 136.206C855.283 134.392 858.728 133.123 862.536 132.398C866.435 131.582 870.334 131.174 874.232 131.174C877.768 131.174 881.35 131.446 884.976 131.99C888.603 132.443 891.912 133.395 894.904 134.846C897.896 136.296 900.344 138.336 902.248 140.966C904.152 143.504 905.104 146.904 905.104 151.166V187.75C905.104 190.923 905.286 193.96 905.648 196.862C906.011 199.763 906.646 201.939 907.552 203.39H887.968C887.606 202.302 887.288 201.214 887.016 200.126C886.835 198.947 886.699 197.768 886.608 196.59C883.526 199.763 879.899 201.984 875.728 203.254C871.558 204.523 867.296 205.158 862.944 205.158C859.59 205.158 856.462 204.75 853.56 203.934C850.659 203.118 848.12 201.848 845.944 200.126C843.768 198.403 842.046 196.227 840.776 193.598C839.598 190.968 839.008 187.84 839.008 184.214C839.008 180.224 839.688 176.96 841.048 174.422C842.499 171.792 844.312 169.707 846.488 168.166C848.755 166.624 851.294 165.491 854.104 164.766C857.006 163.95 859.907 163.315 862.808 162.862C865.71 162.408 868.566 162.046 871.376 161.774C874.187 161.502 876.68 161.094 878.856 160.55C881.032 160.006 882.755 159.235 884.024 158.238C885.294 157.15 885.883 155.608 885.792 153.614C885.792 151.528 885.43 149.896 884.704 148.718C884.07 147.448 883.163 146.496 881.984 145.862C880.896 145.136 879.582 144.683 878.04 144.502C876.59 144.23 875.003 144.094 873.28 144.094C869.472 144.094 866.48 144.91 864.304 146.542C862.128 148.174 860.859 150.894 860.496 154.702H841.184ZM885.792 168.982C884.976 169.707 883.934 170.296 882.664 170.75C881.486 171.112 880.171 171.43 878.72 171.702C877.36 171.974 875.91 172.2 874.368 172.382C872.827 172.563 871.286 172.79 869.744 173.062C868.294 173.334 866.843 173.696 865.392 174.15C864.032 174.603 862.808 175.238 861.72 176.054C860.723 176.779 859.907 177.731 859.272 178.91C858.638 180.088 858.32 181.584 858.32 183.398C858.32 185.12 858.638 186.571 859.272 187.75C859.907 188.928 860.768 189.88 861.856 190.606C862.944 191.24 864.214 191.694 865.664 191.966C867.115 192.238 868.611 192.374 870.152 192.374C873.96 192.374 876.907 191.739 878.992 190.47C881.078 189.2 882.619 187.704 883.616 185.982C884.614 184.168 885.203 182.355 885.384 180.542C885.656 178.728 885.792 177.278 885.792 176.19V168.982ZM920.094 133.078V203.39H939.406V166.534C939.406 159.371 940.585 154.248 942.942 151.166C945.299 147.992 949.107 146.406 954.366 146.406C958.99 146.406 962.209 147.856 964.022 150.758C965.835 153.568 966.742 157.875 966.742 163.678V203.39H986.054V160.142C986.054 155.79 985.646 151.846 984.83 148.31C984.105 144.683 982.79 141.646 980.886 139.198C978.982 136.659 976.353 134.71 972.998 133.35C969.734 131.899 965.518 131.174 960.35 131.174C956.27 131.174 952.281 132.126 948.382 134.03C944.483 135.843 941.31 138.79 938.862 142.87H938.454V133.078H920.094ZM1050.62 168.03C1050.62 170.931 1050.35 173.742 1049.81 176.462C1049.26 179.182 1048.36 181.63 1047.09 183.806C1045.82 185.891 1044.1 187.568 1041.92 188.838C1039.83 190.107 1037.2 190.742 1034.03 190.742C1031.04 190.742 1028.46 190.107 1026.28 188.838C1024.19 187.478 1022.43 185.755 1020.98 183.67C1019.62 181.494 1018.62 179.046 1017.98 176.326C1017.35 173.606 1017.03 170.886 1017.03 168.166C1017.03 165.264 1017.3 162.499 1017.85 159.87C1018.48 157.15 1019.43 154.747 1020.7 152.662C1022.06 150.576 1023.83 148.899 1026.01 147.63C1028.18 146.36 1030.86 145.726 1034.03 145.726C1037.2 145.726 1039.83 146.36 1041.92 147.63C1044 148.899 1045.68 150.576 1046.95 152.662C1048.31 154.656 1049.26 157.014 1049.81 159.734C1050.35 162.363 1050.62 165.128 1050.62 168.03ZM1050.9 194.414V203.39H1069.26V106.286H1049.94V141.646H1049.67C1047.5 138.2 1044.5 135.616 1040.7 133.894C1036.98 132.08 1033.03 131.174 1028.86 131.174C1023.7 131.174 1019.16 132.216 1015.26 134.302C1011.36 136.296 1008.1 138.971 1005.47 142.326C1002.93 145.68 1000.98 149.579 999.623 154.022C998.354 158.374 997.719 162.907 997.719 167.622C997.719 172.518 998.354 177.232 999.623 181.766C1000.98 186.299 1002.93 190.334 1005.47 193.87C1008.1 197.315 1011.41 200.08 1015.4 202.166C1019.39 204.16 1024.01 205.158 1029.27 205.158C1033.9 205.158 1038.02 204.342 1041.65 202.71C1045.36 200.987 1048.36 198.222 1050.62 194.414H1050.9ZM1131.18 160.686H1099.76C1099.85 159.326 1100.13 157.784 1100.58 156.062C1101.12 154.339 1101.99 152.707 1103.16 151.166C1104.43 149.624 1106.07 148.355 1108.06 147.358C1110.15 146.27 1112.73 145.726 1115.81 145.726C1120.53 145.726 1124.02 146.995 1126.28 149.534C1128.64 152.072 1130.27 155.79 1131.18 160.686ZM1099.76 172.926H1150.49C1150.85 167.486 1150.4 162.272 1149.13 157.286C1147.86 152.299 1145.78 147.856 1142.88 143.958C1140.07 140.059 1136.44 136.976 1132 134.71C1127.55 132.352 1122.34 131.174 1116.36 131.174C1111.01 131.174 1106.11 132.126 1101.67 134.03C1097.32 135.934 1093.55 138.563 1090.38 141.918C1087.21 145.182 1084.76 149.08 1083.04 153.614C1081.31 158.147 1080.45 163.043 1080.45 168.302C1080.45 173.742 1081.27 178.728 1082.9 183.262C1084.62 187.795 1087.03 191.694 1090.11 194.958C1093.19 198.222 1096.95 200.76 1101.4 202.574C1105.84 204.296 1110.83 205.158 1116.36 205.158C1124.33 205.158 1131.13 203.344 1136.76 199.718C1142.38 196.091 1146.55 190.062 1149.27 181.63H1132.27C1131.63 183.806 1129.91 185.891 1127.1 187.886C1124.29 189.79 1120.93 190.742 1117.04 190.742C1111.6 190.742 1107.43 189.336 1104.52 186.526C1101.62 183.715 1100.04 179.182 1099.76 172.926ZM1162.49 133.078V203.39H1181.8V162.59C1181.8 159.144 1182.3 156.379 1183.3 154.294C1184.29 152.118 1185.47 150.486 1186.83 149.398C1188.28 148.219 1189.73 147.448 1191.19 147.086C1192.73 146.632 1193.95 146.406 1194.86 146.406C1197.94 146.406 1200.25 146.95 1201.79 148.038C1203.43 149.035 1204.56 150.395 1205.19 152.118C1205.92 153.84 1206.33 155.744 1206.42 157.83C1206.51 159.824 1206.55 161.864 1206.55 163.95V203.39H1225.87V164.222C1225.87 162.046 1226 159.915 1226.27 157.83C1226.64 155.654 1227.27 153.75 1228.18 152.118C1229.17 150.395 1230.49 149.035 1232.12 148.038C1233.84 146.95 1236.07 146.406 1238.79 146.406C1241.51 146.406 1243.64 146.859 1245.18 147.766C1246.81 148.672 1248.03 149.896 1248.85 151.438C1249.67 152.979 1250.16 154.792 1250.35 156.878C1250.53 158.963 1250.62 161.184 1250.62 163.542V203.39H1269.93V156.334C1269.93 151.8 1269.29 147.947 1268.03 144.774C1266.76 141.51 1264.99 138.88 1262.72 136.886C1260.45 134.891 1257.73 133.44 1254.56 132.534C1251.39 131.627 1247.94 131.174 1244.23 131.174C1239.33 131.174 1235.07 132.352 1231.44 134.71C1227.91 137.067 1225.09 139.787 1223.01 142.87C1221.11 138.518 1218.29 135.48 1214.58 133.758C1210.95 132.035 1206.92 131.174 1202.47 131.174C1197.85 131.174 1193.72 132.171 1190.1 134.166C1186.56 136.16 1183.52 138.971 1180.99 142.598H1180.71V133.078H1162.49ZM1305.05 122.198V106.286H1285.74V122.198H1305.05ZM1285.74 133.078V203.39H1305.05V133.078H1285.74ZM1368.13 157.83H1387.03C1386.76 153.296 1385.67 149.398 1383.77 146.134C1381.87 142.779 1379.37 140.014 1376.29 137.838C1373.3 135.571 1369.85 133.894 1365.95 132.806C1362.15 131.718 1358.16 131.174 1353.99 131.174C1348.27 131.174 1343.2 132.126 1338.75 134.03C1334.31 135.934 1330.55 138.608 1327.47 142.054C1324.38 145.408 1322.03 149.443 1320.39 154.158C1318.85 158.782 1318.08 163.814 1318.08 169.254C1318.08 174.512 1318.94 179.363 1320.67 183.806C1322.39 188.158 1324.79 191.92 1327.87 195.094C1330.96 198.267 1334.67 200.76 1339.03 202.574C1343.47 204.296 1348.32 205.158 1353.58 205.158C1362.92 205.158 1370.58 202.71 1376.56 197.814C1382.55 192.918 1386.17 185.8 1387.44 176.462H1368.81C1368.18 180.814 1366.59 184.304 1364.05 186.934C1361.6 189.472 1358.07 190.742 1353.44 190.742C1350.45 190.742 1347.91 190.062 1345.83 188.702C1343.74 187.342 1342.06 185.619 1340.79 183.534C1339.62 181.358 1338.75 178.955 1338.21 176.326C1337.67 173.696 1337.39 171.112 1337.39 168.574C1337.39 165.944 1337.67 163.315 1338.21 160.686C1338.75 157.966 1339.66 155.518 1340.93 153.342C1342.29 151.075 1344.01 149.262 1346.1 147.902C1348.18 146.451 1350.77 145.726 1353.85 145.726C1362.1 145.726 1366.86 149.76 1368.13 157.83ZM1413.31 180.542H1394.95C1395.13 185.256 1396.18 189.2 1398.08 192.374C1400.07 195.456 1402.57 197.95 1405.56 199.854C1408.64 201.758 1412.13 203.118 1416.03 203.934C1419.93 204.75 1423.92 205.158 1428 205.158C1431.99 205.158 1435.89 204.75 1439.7 203.934C1443.59 203.208 1447.04 201.894 1450.03 199.99C1453.02 198.086 1455.43 195.592 1457.24 192.51C1459.14 189.336 1460.1 185.438 1460.1 180.814C1460.1 177.55 1459.46 174.83 1458.19 172.654C1456.92 170.387 1455.25 168.528 1453.16 167.078C1451.07 165.536 1448.67 164.312 1445.95 163.406C1443.32 162.499 1440.6 161.728 1437.79 161.094C1435.07 160.459 1432.4 159.87 1429.77 159.326C1427.14 158.782 1424.78 158.192 1422.7 157.558C1420.7 156.832 1419.07 155.926 1417.8 154.838C1416.53 153.75 1415.9 152.344 1415.9 150.622C1415.9 149.171 1416.26 148.038 1416.98 147.222C1417.71 146.315 1418.57 145.635 1419.57 145.182C1420.66 144.728 1421.83 144.456 1423.1 144.366C1424.37 144.184 1425.55 144.094 1426.64 144.094C1430.09 144.094 1433.08 144.774 1435.62 146.134C1438.15 147.403 1439.56 149.896 1439.83 153.614H1458.19C1457.83 149.262 1456.7 145.68 1454.79 142.87C1452.98 139.968 1450.67 137.656 1447.86 135.934C1445.05 134.211 1441.83 132.987 1438.2 132.262C1434.66 131.536 1430.99 131.174 1427.18 131.174C1423.38 131.174 1419.66 131.536 1416.03 132.262C1412.41 132.896 1409.14 134.075 1406.24 135.798C1403.34 137.43 1400.98 139.696 1399.17 142.598C1397.45 145.499 1396.58 149.216 1396.58 153.75C1396.58 156.832 1397.22 159.462 1398.49 161.638C1399.76 163.723 1401.43 165.491 1403.52 166.942C1405.61 168.302 1407.96 169.435 1410.59 170.342C1413.31 171.158 1416.08 171.883 1418.89 172.518C1425.78 173.968 1431.13 175.419 1434.94 176.87C1438.83 178.32 1440.78 180.496 1440.78 183.398C1440.78 185.12 1440.38 186.571 1439.56 187.75C1438.74 188.838 1437.7 189.744 1436.43 190.47C1435.25 191.104 1433.89 191.603 1432.35 191.966C1430.9 192.238 1429.5 192.374 1428.14 192.374C1426.23 192.374 1424.37 192.147 1422.56 191.694C1420.84 191.24 1419.3 190.56 1417.94 189.654C1416.58 188.656 1415.44 187.432 1414.54 185.982C1413.72 184.44 1413.31 182.627 1413.31 180.542Z" fill="black"/>
<path d="M507.916 318.63L521.072 284.958L533.768 318.63H507.916ZM517.852 278.702L491.448 344.39H498.072L505.984 323.966H535.884L543.888 344.39H550.604L524.844 278.702H517.852ZM567.153 278.702V344.39H610.209V339.054H573.409V278.702H567.153ZM627.147 278.702V344.39H670.203V339.054H633.403V278.702H627.147ZM687.601 278.702V344.39H693.857V278.702H687.601ZM727.408 318.63L740.564 284.958L753.26 318.63H727.408ZM737.344 278.702L710.94 344.39H717.564L725.476 323.966H755.376L763.38 344.39H770.096L744.336 278.702H737.344ZM786.553 278.702V344.39H792.809V288.822H792.993L831.265 344.39H838.257V278.702H832.001V334.27H831.817L793.545 278.702H786.553ZM910.026 298.574H916.282C915.853 295.139 914.81 292.103 913.154 289.466C911.56 286.828 909.536 284.62 907.082 282.842C904.69 281.002 901.992 279.622 898.986 278.702C896.042 277.782 893.006 277.322 889.878 277.322C884.726 277.322 880.188 278.272 876.262 280.174C872.398 282.014 869.178 284.528 866.602 287.718C864.026 290.846 862.094 294.464 860.806 298.574C859.518 302.683 858.874 307.007 858.874 311.546C858.874 316.084 859.518 320.408 860.806 324.518C862.094 328.627 864.026 332.246 866.602 335.374C869.178 338.502 872.398 341.016 876.262 342.918C880.188 344.758 884.726 345.678 889.878 345.678C893.742 345.678 897.238 345.064 900.366 343.838C903.556 342.611 906.316 340.863 908.646 338.594C910.977 336.324 912.878 333.564 914.35 330.314C915.822 327.063 916.773 323.414 917.202 319.366H910.946C910.64 322.31 909.934 325.07 908.83 327.646C907.726 330.16 906.285 332.368 904.506 334.27C902.728 336.171 900.612 337.674 898.158 338.778C895.705 339.882 892.945 340.434 889.878 340.434C885.524 340.434 881.782 339.606 878.654 337.95C875.526 336.294 872.95 334.116 870.926 331.418C868.964 328.658 867.492 325.56 866.51 322.126C865.59 318.63 865.13 315.103 865.13 311.546C865.13 307.927 865.59 304.4 866.51 300.966C867.492 297.531 868.964 294.464 870.926 291.766C872.95 289.006 875.526 286.798 878.654 285.142C881.782 283.486 885.524 282.658 889.878 282.658C892.27 282.658 894.54 283.026 896.686 283.762C898.894 284.436 900.888 285.448 902.666 286.798C904.506 288.147 906.04 289.834 907.266 291.858C908.554 293.82 909.474 296.059 910.026 298.574ZM937.36 278.702V344.39H983.176V339.054H943.616V313.11H980.232V307.774H943.616V284.038H982.716V278.702H937.36ZM1047.68 278.702L1069.48 336.294L1092.11 278.702H1101.31V344.39H1095.06V287.626H1094.87L1072.42 344.39H1066.54L1044.92 287.626H1044.73V344.39H1038.48V278.702H1047.68ZM1124.8 278.702V344.39H1170.61V339.054H1131.05V313.11H1167.67V307.774H1131.05V284.038H1170.15V278.702H1124.8ZM1198.93 278.702L1220.73 336.294L1243.37 278.702H1252.57V344.39H1246.31V287.626H1246.13L1223.68 344.39H1217.79L1196.17 287.626H1195.99V344.39H1189.73V278.702H1198.93ZM1282.31 307.498V284.038H1303.84C1313.71 284.038 1318.65 288.147 1318.65 296.366C1318.65 297.899 1318.34 299.34 1317.73 300.69C1317.12 302.039 1316.2 303.235 1314.97 304.278C1313.74 305.259 1312.21 306.056 1310.37 306.67C1308.53 307.222 1306.35 307.498 1303.84 307.498H1282.31ZM1276.05 278.702V344.39H1303.84C1307.39 344.39 1310.43 344.083 1312.94 343.47C1315.52 342.795 1317.67 341.967 1319.38 340.986C1321.16 339.943 1322.57 338.747 1323.62 337.398C1324.66 336.048 1325.46 334.699 1326.01 333.35C1326.56 331.939 1326.93 330.59 1327.11 329.302C1327.3 327.952 1327.39 326.756 1327.39 325.714C1327.39 321.42 1326.13 317.832 1323.62 314.95C1321.1 312.006 1317.73 310.258 1313.5 309.706V309.522C1315.21 309.154 1316.75 308.51 1318.1 307.59C1319.51 306.67 1320.7 305.566 1321.68 304.278C1322.73 302.928 1323.52 301.456 1324.08 299.862C1324.63 298.206 1324.9 296.519 1324.9 294.802C1324.9 291.735 1324.32 289.19 1323.16 287.166C1321.99 285.08 1320.43 283.424 1318.46 282.198C1316.56 280.91 1314.32 280.02 1311.75 279.53C1309.23 278.978 1306.6 278.702 1303.84 278.702H1276.05ZM1282.31 339.054V312.834H1303.84C1309.42 312.834 1313.68 313.907 1316.62 316.054C1319.63 318.139 1321.13 321.298 1321.13 325.53C1321.13 328.167 1320.67 330.375 1319.75 332.154C1318.83 333.871 1317.58 335.251 1315.98 336.294C1314.39 337.336 1312.55 338.072 1310.46 338.502C1308.38 338.87 1306.17 339.054 1303.84 339.054H1282.31ZM1348 278.702V344.39H1393.81V339.054H1354.25V313.11H1390.87V307.774H1354.25V284.038H1393.35V278.702H1348ZM1419.37 309.89V284.038H1442.74C1447.52 284.038 1451.08 285.203 1453.41 287.534C1455.74 289.864 1456.9 293.054 1456.9 297.102C1456.9 299.126 1456.5 300.935 1455.71 302.53C1454.97 304.063 1453.96 305.382 1452.67 306.486C1451.38 307.59 1449.88 308.448 1448.16 309.062C1446.45 309.614 1444.64 309.89 1442.74 309.89H1419.37ZM1413.11 278.702V344.39H1419.37V315.226H1443.1C1446.05 315.103 1448.35 315.594 1450 316.698C1451.72 317.802 1453.01 319.274 1453.87 321.114C1454.79 322.892 1455.37 324.947 1455.62 327.278C1455.92 329.547 1456.14 331.847 1456.26 334.178C1456.32 334.852 1456.38 335.65 1456.44 336.57C1456.5 337.49 1456.57 338.44 1456.63 339.422C1456.75 340.342 1456.9 341.262 1457.09 342.182C1457.33 343.04 1457.64 343.776 1458.01 344.39H1464.91C1464.23 343.592 1463.68 342.488 1463.25 341.078C1462.88 339.606 1462.61 338.072 1462.42 336.478C1462.24 334.822 1462.12 333.196 1462.06 331.602C1461.99 330.007 1461.93 328.658 1461.87 327.554C1461.75 325.591 1461.47 323.782 1461.04 322.126C1460.68 320.408 1460.03 318.906 1459.11 317.618C1458.25 316.33 1457.12 315.287 1455.71 314.49C1454.3 313.631 1452.52 313.048 1450.37 312.742V312.558C1454.6 311.699 1457.79 309.736 1459.94 306.67C1462.09 303.603 1463.16 299.984 1463.16 295.814C1463.16 292.87 1462.61 290.324 1461.5 288.178C1460.46 285.97 1459.02 284.191 1457.18 282.842C1455.4 281.431 1453.28 280.388 1450.83 279.714C1448.44 279.039 1445.89 278.702 1443.2 278.702H1413.11Z" fill="black"/>
</svg>
