<svg width="1939" height="385" viewBox="0 0 1939 385" fill="none" xmlns="http://www.w3.org/2000/svg">
<g clip-path="url(#clip0)">
<g clip-path="url(#clip1)">
<path d="M125.102 21.6289C105.969 34.1275 89.6664 50.4961 77.2456 69.6798" stroke="black" stroke-width="4" stroke-miterlimit="10" stroke-linecap="square"/>
<path d="M125.102 21.6296C138.368 12.9567 152.834 6.27661 168.039 1.80273" stroke="black" stroke-width="4" stroke-miterlimit="10" stroke-linecap="square"/>
<path d="M168.417 95.5947C165.994 105.061 164.086 114.652 162.702 124.325" stroke="black" stroke-width="4" stroke-linecap="round" stroke-linejoin="round"/>
<path d="M168.417 95.5948C172.226 80.7996 177.085 66.2947 182.957 52.1904" stroke="black" stroke-width="4" stroke-linecap="round" stroke-linejoin="round"/>
<path d="M157.505 31.2227C164.149 32.7863 170.983 34.1441 177.961 35.2237" stroke="black" stroke-width="4" stroke-linecap="round" stroke-linejoin="round"/>
<path d="M125.102 21.6289C135.718 25.4207 146.536 28.6234 157.505 31.2224" stroke="black" stroke-width="4" stroke-linecap="round" stroke-linejoin="round"/>
<path d="M115.82 87.9541C131.495 90.9868 149.308 93.7636 168.417 95.5944" stroke="black" stroke-width="4" stroke-linecap="round" stroke-linejoin="round"/>
<path d="M168.417 95.5947C177.476 96.4628 186.825 97.1194 196.374 97.4867" stroke="black" stroke-width="4" stroke-linecap="round" stroke-linejoin="round"/>
<path d="M101.074 84.916C105.737 85.9399 110.652 86.9545 115.82 87.9599" stroke="black" stroke-width="4" stroke-linecap="round" stroke-linejoin="round"/>
<path d="M157.505 31.2223C162.438 26.7197 167.608 22.4827 172.991 18.5293" stroke="black" stroke-width="4" stroke-linecap="round" stroke-linejoin="round"/>
<path d="M113.672 92.9682C114.37 91.2691 115.086 89.5997 115.82 87.96" stroke="black" stroke-width="4" stroke-linecap="round" stroke-linejoin="round"/>
<path d="M157.505 31.2227C142.03 45.3513 126.582 64.0208 115.842 87.9823" stroke="black" stroke-width="4" stroke-linecap="round" stroke-linejoin="round"/>
<path d="M177.938 35.2236L182.958 52.1847" stroke="black" stroke-width="4" stroke-miterlimit="10" stroke-linecap="square"/>
<path d="M172.991 18.5293L177.938 35.2233" stroke="black" stroke-width="4" stroke-miterlimit="10" stroke-linecap="square"/>
<path d="M168.039 1.80273L172.992 18.5301" stroke="black" stroke-width="4" stroke-miterlimit="10" stroke-linecap="square"/>
<path d="M182.957 52.1846L214.147 157.223L77.2622 69.6799" stroke="black" stroke-width="4" stroke-miterlimit="10" stroke-linecap="square"/>
<path d="M161.089 153.361C159.866 161.987 159.122 170.674 158.863 179.382" stroke="black" stroke-width="4" stroke-miterlimit="10" stroke-linecap="round"/>
<path d="M70.6963 106.818C78.4868 108.972 88.2194 111.454 99.4434 113.919" stroke="black" stroke-width="4" stroke-miterlimit="10" stroke-linecap="round"/>
<path d="M112.058 121.977C105.577 137.915 101.634 154.771 100.373 171.931" stroke="black" stroke-width="4" stroke-miterlimit="10" stroke-linecap="round"/>
<path d="M241.938 21.7402C232.741 34.7461 224.704 48.5345 217.92 62.9466" stroke="black" stroke-width="4" stroke-linecap="square" stroke-linejoin="round"/>
<path d="M217.921 62.9473C215.656 67.7607 213.363 72.9136 211.109 78.3558" stroke="black" stroke-width="4" stroke-miterlimit="10" stroke-linecap="round"/>
<path d="M241.765 64.2327C233.8 64.2248 225.84 63.7957 217.92 62.9473" stroke="black" stroke-width="4" stroke-miterlimit="10" stroke-linecap="round"/>
<path d="M206.084 61.3945C209.983 61.9992 213.929 62.5167 217.921 62.9471" stroke="black" stroke-width="4" stroke-miterlimit="10" stroke-linecap="round"/>
<path d="M241.765 123.991C235.959 123.991 230.209 123.88 224.515 123.657" stroke="black" stroke-width="4" stroke-miterlimit="10" stroke-linecap="round"/>
<path d="M241.726 21.5566C237.352 23.354 220.53 30.4601 201.143 44.6945" stroke="black" stroke-width="4" stroke-linecap="round" stroke-linejoin="round"/>
<path d="M258.348 373.812C258.348 373.812 284.38 359.811 311.391 333.785" stroke="black" stroke-width="4" stroke-miterlimit="10" stroke-linecap="round"/>
<path d="M400.041 130.791C387.179 108.121 369.087 88.8512 347.271 74.5879" stroke="black" stroke-width="4" stroke-linecap="square" stroke-linejoin="round"/>
<path d="M350.326 345.343C323.251 363.937 291.165 373.867 258.32 373.817V48.1895H259.433C290.642 48.3555 321.139 57.53 347.26 74.6105" stroke="black" stroke-width="4" stroke-miterlimit="10" stroke-linecap="square"/>
<path d="M405.489 280.736C393.115 306.756 374.085 329.044 350.326 345.342" stroke="black" stroke-width="4" stroke-linecap="square" stroke-linejoin="round"/>
<path d="M421.137 210.121C421.033 182.302 413.768 154.977 400.041 130.78" stroke="black" stroke-width="4" stroke-linecap="square" stroke-linejoin="round"/>
<path d="M421.137 210.121C421.137 210.41 421.137 210.678 421.137 210.989C421.172 235.113 415.826 258.94 405.489 280.737" stroke="black" stroke-width="4" stroke-linecap="square" stroke-linejoin="round"/>
<path d="M312.013 210.121C312.013 209.976 312.013 209.837 312.013 209.692C312.013 188.279 308.797 167.596 303.95 148.564" stroke="black" stroke-width="4" stroke-linecap="square" stroke-linejoin="round"/>
<path d="M258.326 48.1895C267.615 61.3111 275.739 75.2201 282.604 89.7575" stroke="black" stroke-width="4" stroke-linecap="round" stroke-linejoin="round"/>
<path d="M283.233 328.988C270.674 356.255 258.337 373.806 258.337 373.806" stroke="black" stroke-width="4" stroke-linecap="round" stroke-linejoin="round"/>
<path d="M305.052 266.535C309.248 248.778 311.975 229.731 312.014 210.132" stroke="black" stroke-width="4" stroke-linecap="square" stroke-linejoin="round"/>
<path d="M303.956 148.576C298.708 128.342 291.559 108.65 282.604 89.7627" stroke="black" stroke-width="4" stroke-linecap="square" stroke-linejoin="round"/>
<path d="M283.233 328.988C291.213 311.671 299.443 290.258 305.052 266.536" stroke="black" stroke-width="4" stroke-linecap="square" stroke-linejoin="round"/>
<path d="M282.605 89.7627C274.691 90.6035 266.74 91.0289 258.782 91.037H258.348" stroke="black" stroke-width="4" stroke-linecap="square" stroke-linejoin="round"/>
<path d="M314.89 84.2041C304.259 86.7335 293.48 88.5921 282.615 89.7688" stroke="black" stroke-width="4" stroke-linecap="square" stroke-linejoin="round"/>
<path d="M347.26 74.6104C336.651 78.4013 325.841 81.604 314.879 84.2038" stroke="black" stroke-width="4" stroke-linecap="round" stroke-linejoin="round"/>
<path d="M258.32 327.497C266.645 327.542 274.962 328.04 283.233 328.988" stroke="black" stroke-width="4" stroke-linecap="square" stroke-linejoin="round"/>
<path d="M350.326 345.343C337.605 340.651 324.594 336.788 311.374 333.779" stroke="black" stroke-width="4" stroke-linecap="round" stroke-linejoin="round"/>
<path d="M283.233 328.988C292.698 330.078 302.098 331.679 311.39 333.785" stroke="black" stroke-width="4" stroke-linecap="square" stroke-linejoin="round"/>
<path d="M356.553 140.941C340.872 143.969 323.065 146.745 303.956 148.576" stroke="black" stroke-width="4" stroke-linecap="square" stroke-linejoin="round"/>
<path d="M303.956 148.576C289.488 149.962 274.324 150.802 258.754 150.802H258.32" stroke="black" stroke-width="4" stroke-linecap="square" stroke-linejoin="round"/>
<path d="M400.041 130.791C389.001 133.84 374.121 137.547 356.553 140.941" stroke="black" stroke-width="4" stroke-linecap="round" stroke-linejoin="round"/>
<path d="M405.489 280.736C394.248 278.366 377.365 275.133 356.781 272.184" stroke="black" stroke-width="4" stroke-linecap="round" stroke-linejoin="round"/>
<path d="M258.32 264.705C274.413 264.738 290.127 265.428 305.063 266.536" stroke="black" stroke-width="4" stroke-linecap="square" stroke-linejoin="round"/>
<path d="M356.781 272.184C341.339 269.958 323.822 267.933 305.03 266.536" stroke="black" stroke-width="4" stroke-linecap="square" stroke-linejoin="round"/>
<path d="M356.781 272.184C345.223 296.991 328.118 317.686 311.39 333.784" stroke="black" stroke-width="4" stroke-linecap="square" stroke-linejoin="round"/>
<path d="M370.916 210.121C370.916 232.936 365.384 253.704 356.781 272.173" stroke="black" stroke-width="4" stroke-linecap="square" stroke-linejoin="round"/>
<path d="M314.89 84.204C289.944 61.4389 263.84 50.4431 258.331 48.1895" stroke="black" stroke-width="4" stroke-linecap="round" stroke-linejoin="round"/>
<path d="M370.916 210.121C370.916 183.316 365.29 160.384 356.553 140.93" stroke="black" stroke-width="4" stroke-linecap="square" stroke-linejoin="round"/>
<path d="M314.891 84.2041C330.366 98.3384 345.813 117.008 356.553 140.964" stroke="black" stroke-width="4" stroke-linecap="square" stroke-linejoin="round"/>
<path d="M312.013 210.132H258.32" stroke="black" stroke-width="4" stroke-linecap="square" stroke-linejoin="round"/>
<path d="M312.014 210.132H370.916" stroke="black" stroke-width="4" stroke-linecap="square" stroke-linejoin="round"/>
<path d="M420.914 210.132H370.916" stroke="black" stroke-width="4" stroke-linecap="round" stroke-linejoin="round"/>
<path d="M62.8389 214.495C62.8728 207.635 63.3374 200.785 64.23 193.983L225.711 214.478L114.39 334.213C99.4531 320.234 87.2743 303.574 78.4867 285.099" stroke="black" stroke-width="4" stroke-miterlimit="10" stroke-linecap="square"/>
<path d="M62.839 214.495C62.839 214.784 62.839 215.052 62.839 215.363C62.805 239.483 68.1507 263.307 78.4869 285.1" stroke="black" stroke-width="4" stroke-miterlimit="10" stroke-linecap="round"/>
<path d="M172.057 207.689C171.995 209.81 171.957 211.93 171.957 214.061V214.495" stroke="black" stroke-width="4" stroke-miterlimit="10" stroke-linecap="round"/>
<path d="M171.973 214.495C172.101 231.817 174.063 249.077 177.827 265.985" stroke="black" stroke-width="4" stroke-miterlimit="10" stroke-linecap="round"/>
<path d="M78.4868 285.099C89.7274 282.728 106.616 279.49 127.2 276.546" stroke="black" stroke-width="4" stroke-miterlimit="10" stroke-linecap="round"/>
<path d="M127.194 276.547C140.939 274.582 156.336 272.746 172.797 271.383" stroke="black" stroke-width="4" stroke-miterlimit="10" stroke-linecap="round"/>
<path d="M142.853 303.607C136.869 295.054 131.63 286.002 127.194 276.552" stroke="black" stroke-width="4" stroke-miterlimit="10" stroke-linecap="round"/>
<path d="M113.06 214.495C113.06 237.31 118.591 258.078 127.194 276.547" stroke="black" stroke-width="4" stroke-miterlimit="10" stroke-linecap="round"/>
<path d="M113.06 214.494C113.06 209.627 113.246 204.884 113.617 200.266" stroke="black" stroke-width="4" stroke-miterlimit="10" stroke-linecap="round"/>
<path d="M171.957 214.495H225.633" stroke="black" stroke-width="4" stroke-miterlimit="10" stroke-linecap="round"/>
<path d="M113.06 214.495H171.956" stroke="black" stroke-width="4" stroke-miterlimit="10" stroke-linecap="round"/>
<path d="M62.8389 214.495H113.06" stroke="black" stroke-width="4" stroke-miterlimit="10" stroke-linecap="round"/>
<path d="M152.202 355.654C145.404 350.986 138.967 345.811 132.948 340.173L244.197 220.455L244.269 384.123" stroke="black" stroke-width="4" stroke-miterlimit="10" stroke-linecap="square"/>
<path d="M152.202 355.654C179.277 374.249 211.363 384.179 244.208 384.129" stroke="black" stroke-width="4" stroke-miterlimit="10" stroke-linecap="round"/>
<path d="M219.273 339.294C231.838 366.561 244.175 384.112 244.175 384.112" stroke="black" stroke-width="4" stroke-miterlimit="10" stroke-linecap="round"/>
<path d="M197.476 276.841C197.092 275.216 196.725 273.575 196.363 271.928" stroke="black" stroke-width="4" stroke-miterlimit="10" stroke-linecap="round"/>
<path d="M197.476 276.842C203.085 300.564 211.315 321.971 219.273 339.294" stroke="black" stroke-width="4" stroke-miterlimit="10" stroke-linecap="round"/>
<path d="M244.208 337.803C235.875 337.845 227.551 338.342 219.273 339.294" stroke="black" stroke-width="4" stroke-miterlimit="10" stroke-linecap="round"/>
<path d="M152.202 355.654C164.923 350.962 177.934 347.1 191.155 344.091" stroke="black" stroke-width="4" stroke-miterlimit="10" stroke-linecap="round"/>
<path d="M191.138 344.091C200.423 341.986 209.815 340.385 219.273 339.294" stroke="black" stroke-width="4" stroke-miterlimit="10" stroke-linecap="round"/>
<path d="M244.208 275.005C228.115 275.044 212.4 275.734 197.465 276.841" stroke="black" stroke-width="4" stroke-miterlimit="10" stroke-linecap="round"/>
<path d="M191.349 277.326C193.375 277.159 195.415 276.998 197.47 276.842" stroke="black" stroke-width="4" stroke-miterlimit="10" stroke-linecap="round"/>
<path d="M161.4 309.545C170.159 322.003 180.117 333.573 191.132 344.09" stroke="black" stroke-width="4" stroke-miterlimit="10" stroke-linecap="round"/>
<path d="M244.208 384.128C244.208 384.128 218.171 370.105 191.138 344.062" stroke="black" stroke-width="4" stroke-miterlimit="10" stroke-linecap="round"/>
<path d="M241.158 21.373H242.199V183.36L196.19 27.9727C210.772 23.6882 225.883 21.4668 241.081 21.373H241.158Z" stroke="black" stroke-width="4" stroke-miterlimit="10" stroke-linecap="square"/>
<path d="M70.6896 106.896C72.2588 104.136 73.9059 101.426 75.631 98.7656L212.472 186.27L51.0073 165.736C53.7072 145.036 60.391 125.054 70.6896 106.896" stroke="black" stroke-width="4" stroke-miterlimit="10"/>
</g>
<path d="M479.978 216.146V281.834H486.234V216.146H479.978ZM507.456 234.362V281.834H513.252V254.142C513.313 251.811 513.681 249.665 514.356 247.702C515.092 245.678 516.073 243.961 517.3 242.55C518.588 241.078 520.121 239.943 521.9 239.146C523.74 238.287 525.825 237.858 528.156 237.858C530.487 237.858 532.419 238.226 533.952 238.962C535.547 239.698 536.804 240.71 537.724 241.998C538.644 243.286 539.288 244.819 539.656 246.598C540.024 248.315 540.208 250.186 540.208 252.21V281.834H546.004V251.29C546.004 248.469 545.728 245.923 545.176 243.654C544.624 241.385 543.673 239.483 542.324 237.95C540.975 236.355 539.165 235.129 536.896 234.27C534.688 233.411 531.928 232.982 528.616 232.982C525.243 232.982 522.145 233.871 519.324 235.65C516.503 237.367 514.54 239.667 513.436 242.55H513.252V234.362H507.456ZM560.366 234.362L578.674 281.834H584.838L602.594 234.362H596.614L581.894 276.038H581.71L566.806 234.362H560.366ZM651.16 254.786H620.432C620.677 252.639 621.168 250.554 621.904 248.53C622.701 246.445 623.744 244.635 625.032 243.102C626.32 241.507 627.884 240.25 629.724 239.33C631.564 238.349 633.68 237.858 636.072 237.858C638.403 237.858 640.488 238.349 642.328 239.33C644.168 240.25 645.732 241.507 647.02 243.102C648.308 244.635 649.289 246.414 649.964 248.438C650.7 250.462 651.099 252.578 651.16 254.786ZM620.432 259.662H656.956C657.079 256.35 656.772 253.099 656.036 249.91C655.3 246.659 654.073 243.807 652.356 241.354C650.7 238.839 648.523 236.815 645.824 235.282C643.125 233.749 639.875 232.982 636.072 232.982C632.331 232.982 629.08 233.718 626.32 235.19C623.621 236.601 621.413 238.502 619.696 240.894C617.979 243.225 616.691 245.893 615.832 248.898C615.035 251.903 614.636 254.97 614.636 258.098C614.636 261.471 615.035 264.691 615.832 267.758C616.691 270.763 617.979 273.431 619.696 275.762C621.413 278.031 623.621 279.841 626.32 281.19C629.08 282.478 632.331 283.122 636.072 283.122C642.083 283.122 646.713 281.65 649.964 278.706C653.276 275.762 655.545 271.591 656.772 266.194H650.976C650.056 269.874 648.4 272.818 646.008 275.026C643.616 277.234 640.304 278.338 636.072 278.338C633.312 278.338 630.951 277.755 628.988 276.59C627.025 275.425 625.4 273.953 624.112 272.174C622.824 270.395 621.873 268.402 621.26 266.194C620.708 263.925 620.432 261.747 620.432 259.662ZM701.903 248.254H707.699C707.576 245.678 707.055 243.439 706.135 241.538C705.215 239.637 703.958 238.042 702.363 236.754C700.83 235.466 699.02 234.515 696.935 233.902C694.911 233.289 692.703 232.982 690.311 232.982C688.226 232.982 686.11 233.227 683.963 233.718C681.878 234.209 679.976 234.975 678.259 236.018C676.542 237.061 675.131 238.441 674.027 240.158C672.984 241.875 672.463 243.93 672.463 246.322C672.463 248.346 672.8 250.063 673.475 251.474C674.15 252.823 675.07 253.989 676.235 254.97C677.462 255.89 678.872 256.687 680.467 257.362C682.062 257.975 683.81 258.527 685.711 259.018L693.163 260.674C694.451 260.981 695.708 261.349 696.935 261.778C698.223 262.207 699.358 262.759 700.339 263.434C701.32 264.047 702.087 264.845 702.639 265.826C703.252 266.746 703.559 267.911 703.559 269.322C703.559 270.978 703.13 272.389 702.271 273.554C701.474 274.658 700.431 275.578 699.143 276.314C697.855 277.05 696.444 277.571 694.911 277.878C693.439 278.185 691.998 278.338 690.587 278.338C686.723 278.338 683.472 277.357 680.835 275.394C678.259 273.37 676.848 270.395 676.603 266.47H670.807C671.298 272.297 673.26 276.529 676.695 279.166C680.191 281.803 684.73 283.122 690.311 283.122C692.519 283.122 694.758 282.877 697.027 282.386C699.296 281.895 701.32 281.098 703.099 279.994C704.939 278.829 706.442 277.357 707.607 275.578C708.772 273.738 709.355 271.53 709.355 268.954C709.355 266.869 708.956 265.059 708.159 263.526C707.362 261.993 706.319 260.705 705.031 259.662C703.804 258.619 702.363 257.791 700.707 257.178C699.112 256.503 697.487 256.043 695.831 255.798L688.103 254.05C687.122 253.805 686.048 253.498 684.883 253.13C683.718 252.701 682.644 252.179 681.663 251.566C680.682 250.953 679.854 250.217 679.179 249.358C678.566 248.438 678.259 247.334 678.259 246.046C678.259 244.513 678.596 243.225 679.271 242.182C679.946 241.139 680.835 240.311 681.939 239.698C683.043 239.023 684.239 238.563 685.527 238.318C686.876 238.011 688.195 237.858 689.483 237.858C691.139 237.858 692.703 238.073 694.175 238.502C695.647 238.87 696.935 239.483 698.039 240.342C699.204 241.201 700.124 242.305 700.799 243.654C701.474 244.942 701.842 246.475 701.903 248.254ZM735.708 234.362V220.102H729.912V234.362H721.632V239.238H729.912V271.714C729.851 275.762 730.587 278.553 732.12 280.086C733.653 281.558 736.352 282.294 740.216 282.294C741.075 282.294 741.933 282.263 742.792 282.202C743.651 282.141 744.509 282.11 745.368 282.11V277.234C743.712 277.418 742.056 277.51 740.4 277.51C738.315 277.387 736.996 276.805 736.444 275.762C735.953 274.658 735.708 273.155 735.708 271.254V239.238H745.368V234.362H735.708ZM762.563 216.146V225.438H768.359V216.146H762.563ZM762.563 234.362V281.834H768.359V234.362H762.563ZM788.099 234.362V281.834H793.895V254.142C793.957 251.811 794.325 249.665 794.999 247.702C795.735 245.678 796.717 243.961 797.943 242.55C799.231 241.078 800.765 239.943 802.543 239.146C804.383 238.287 806.469 237.858 808.799 237.858C811.13 237.858 813.062 238.226 814.595 238.962C816.19 239.698 817.447 240.71 818.367 241.998C819.287 243.286 819.931 244.819 820.299 246.598C820.667 248.315 820.851 250.186 820.851 252.21V281.834H826.647V251.29C826.647 248.469 826.371 245.923 825.819 243.654C825.267 241.385 824.317 239.483 822.967 237.95C821.618 236.355 819.809 235.129 817.539 234.27C815.331 233.411 812.571 232.982 809.259 232.982C805.886 232.982 802.789 233.871 799.967 235.65C797.146 237.367 795.183 239.667 794.079 242.55H793.895V234.362H788.099ZM886.457 277.97V234.362H880.661V242.55H880.477C879.925 241.262 879.128 240.035 878.085 238.87C877.104 237.705 875.969 236.693 874.681 235.834C873.393 234.914 871.952 234.209 870.357 233.718C868.824 233.227 867.168 232.982 865.389 232.982C861.955 232.982 858.888 233.626 856.189 234.914C853.552 236.141 851.313 237.858 849.473 240.066C847.695 242.213 846.315 244.758 845.333 247.702C844.413 250.585 843.953 253.651 843.953 256.902C843.953 260.275 844.352 263.465 845.149 266.47C845.947 269.414 847.204 271.99 848.921 274.198C850.7 276.406 852.939 278.154 855.637 279.442C858.336 280.669 861.587 281.282 865.389 281.282C868.885 281.282 871.921 280.393 874.497 278.614C877.135 276.835 879.128 274.474 880.477 271.53H880.661V277.97C880.661 283.735 879.465 288.151 877.073 291.218C874.681 294.285 870.787 295.818 865.389 295.818C863.795 295.818 862.231 295.634 860.697 295.266C859.164 294.959 857.753 294.438 856.465 293.702C855.239 292.966 854.165 291.985 853.245 290.758C852.387 289.593 851.804 288.121 851.497 286.342H845.701C845.885 288.857 846.56 291.003 847.725 292.782C848.952 294.622 850.455 296.125 852.233 297.29C854.073 298.455 856.128 299.314 858.397 299.866C860.667 300.418 862.997 300.694 865.389 300.694C869.253 300.694 872.504 300.173 875.141 299.13C877.84 298.087 880.017 296.585 881.673 294.622C883.329 292.659 884.525 290.267 885.261 287.446C886.059 284.625 886.457 281.466 886.457 277.97ZM865.389 276.406C862.691 276.406 860.36 275.885 858.397 274.842C856.435 273.738 854.809 272.327 853.521 270.61C852.233 268.831 851.283 266.807 850.669 264.538C850.056 262.269 849.749 259.938 849.749 257.546C849.749 255.093 850.025 252.701 850.577 250.37C851.191 247.978 852.141 245.862 853.429 244.022C854.717 242.182 856.343 240.71 858.305 239.606C860.268 238.441 862.629 237.858 865.389 237.858C868.149 237.858 870.48 238.441 872.381 239.606C874.344 240.771 875.939 242.305 877.165 244.206C878.392 246.107 879.281 248.223 879.833 250.554C880.385 252.885 880.661 255.215 880.661 257.546C880.661 259.938 880.324 262.269 879.649 264.538C879.036 266.807 878.085 268.831 876.797 270.61C875.509 272.327 873.915 273.738 872.013 274.842C870.112 275.885 867.904 276.406 865.389 276.406ZM940.644 216.146V225.438H946.44V216.146H940.644ZM940.644 234.362V281.834H946.44V234.362H940.644ZM966.18 234.362V281.834H971.976V254.142C972.038 251.811 972.406 249.665 973.08 247.702C973.816 245.678 974.798 243.961 976.024 242.55C977.312 241.078 978.846 239.943 980.624 239.146C982.464 238.287 984.55 237.858 986.88 237.858C989.211 237.858 991.143 238.226 992.676 238.962C994.271 239.698 995.528 240.71 996.448 241.998C997.368 243.286 998.012 244.819 998.38 246.598C998.748 248.315 998.932 250.186 998.932 252.21V281.834H1004.73V251.29C1004.73 248.469 1004.45 245.923 1003.9 243.654C1003.35 241.385 1002.4 239.483 1001.05 237.95C999.699 236.355 997.89 235.129 995.62 234.27C993.412 233.411 990.652 232.982 987.34 232.982C983.967 232.982 980.87 233.871 978.048 235.65C975.227 237.367 973.264 239.667 972.16 242.55H971.976V234.362H966.18ZM1066.13 248.346V221.482H1087.66C1092.01 221.482 1095.54 222.586 1098.24 224.794C1100.94 227.002 1102.29 230.375 1102.29 234.914C1102.29 239.453 1100.94 242.826 1098.24 245.034C1095.54 247.242 1092.01 248.346 1087.66 248.346H1066.13ZM1059.88 216.146V281.834H1066.13V253.682H1089.04C1091.98 253.682 1094.65 253.283 1097.04 252.486C1099.44 251.627 1101.49 250.401 1103.21 248.806C1104.93 247.15 1106.24 245.157 1107.16 242.826C1108.08 240.495 1108.54 237.858 1108.54 234.914C1108.54 231.97 1108.08 229.333 1107.16 227.002C1106.24 224.671 1104.93 222.709 1103.21 221.114C1101.49 219.458 1099.44 218.231 1097.04 217.434C1094.65 216.575 1091.98 216.146 1089.04 216.146H1059.88ZM1125.55 216.146V281.834H1131.35V216.146H1125.55ZM1150.63 248.898H1156.43C1156.55 245.034 1157.77 242.243 1160.11 240.526C1162.44 238.747 1165.44 237.858 1169.12 237.858C1170.84 237.858 1172.43 238.011 1173.91 238.318C1175.44 238.563 1176.76 239.054 1177.86 239.79C1179.03 240.526 1179.92 241.538 1180.53 242.826C1181.2 244.053 1181.54 245.647 1181.54 247.61C1181.54 248.898 1181.36 249.941 1180.99 250.738C1180.68 251.535 1180.22 252.179 1179.61 252.67C1179 253.099 1178.23 253.406 1177.31 253.59C1176.39 253.774 1175.32 253.927 1174.09 254.05C1170.96 254.418 1167.86 254.817 1164.8 255.246C1161.79 255.614 1159.06 256.289 1156.61 257.27C1154.22 258.251 1152.29 259.693 1150.81 261.594C1149.34 263.434 1148.61 266.01 1148.61 269.322C1148.61 271.714 1149 273.799 1149.8 275.578C1150.66 277.295 1151.79 278.737 1153.21 279.902C1154.68 281.006 1156.36 281.803 1158.27 282.294C1160.23 282.846 1162.31 283.122 1164.52 283.122C1166.85 283.122 1168.85 282.907 1170.5 282.478C1172.22 282.049 1173.72 281.435 1175.01 280.638C1176.36 279.841 1177.55 278.859 1178.6 277.694C1179.7 276.467 1180.77 275.087 1181.82 273.554H1182C1182 274.781 1182.06 275.915 1182.19 276.958C1182.37 277.939 1182.71 278.798 1183.2 279.534C1183.69 280.27 1184.36 280.853 1185.22 281.282C1186.14 281.65 1187.34 281.834 1188.81 281.834C1189.61 281.834 1190.25 281.803 1190.74 281.742C1191.29 281.681 1191.91 281.589 1192.58 281.466V276.59C1192.03 276.835 1191.42 276.958 1190.74 276.958C1188.47 276.958 1187.34 275.793 1187.34 273.462V248.254C1187.34 245.065 1186.82 242.489 1185.77 240.526C1184.73 238.502 1183.38 236.938 1181.73 235.834C1180.07 234.73 1178.2 233.994 1176.11 233.626C1174.03 233.197 1171.94 232.982 1169.86 232.982C1167.1 232.982 1164.58 233.289 1162.31 233.902C1160.04 234.515 1158.05 235.466 1156.33 236.754C1154.68 238.042 1153.36 239.698 1152.38 241.722C1151.4 243.746 1150.81 246.138 1150.63 248.898ZM1181.54 255.89V263.434C1181.54 265.765 1181.08 267.85 1180.16 269.69C1179.3 271.53 1178.11 273.094 1176.57 274.382C1175.1 275.67 1173.35 276.651 1171.33 277.326C1169.31 278.001 1167.19 278.338 1164.98 278.338C1163.63 278.338 1162.31 278.123 1161.03 277.694C1159.74 277.265 1158.6 276.651 1157.62 275.854C1156.64 274.995 1155.84 274.014 1155.23 272.91C1154.68 271.745 1154.4 270.426 1154.4 268.954C1154.4 266.623 1155.08 264.845 1156.43 263.618C1157.84 262.33 1159.61 261.349 1161.76 260.674C1163.91 259.999 1166.27 259.509 1168.85 259.202C1171.48 258.834 1174.03 258.435 1176.48 258.006C1177.28 257.883 1178.2 257.669 1179.24 257.362C1180.28 257.055 1180.99 256.565 1181.36 255.89H1181.54ZM1207.54 234.362V281.834H1213.33V254.142C1213.39 251.811 1213.76 249.665 1214.44 247.702C1215.17 245.678 1216.15 243.961 1217.38 242.55C1218.67 241.078 1220.2 239.943 1221.98 239.146C1223.82 238.287 1225.91 237.858 1228.24 237.858C1230.57 237.858 1232.5 238.226 1234.03 238.962C1235.63 239.698 1236.88 240.71 1237.8 241.998C1238.72 243.286 1239.37 244.819 1239.74 246.598C1240.1 248.315 1240.29 250.186 1240.29 252.21V281.834H1246.08V251.29C1246.08 248.469 1245.81 245.923 1245.26 243.654C1244.7 241.385 1243.75 239.483 1242.4 237.95C1241.06 236.355 1239.25 235.129 1236.98 234.27C1234.77 233.411 1232.01 232.982 1228.7 232.982C1225.32 232.982 1222.23 233.871 1219.4 235.65C1216.58 237.367 1214.62 239.667 1213.52 242.55H1213.33V234.362H1207.54ZM1299.91 254.786H1269.19C1269.43 252.639 1269.92 250.554 1270.66 248.53C1271.46 246.445 1272.5 244.635 1273.79 243.102C1275.07 241.507 1276.64 240.25 1278.48 239.33C1280.32 238.349 1282.43 237.858 1284.83 237.858C1287.16 237.858 1289.24 238.349 1291.08 239.33C1292.92 240.25 1294.49 241.507 1295.77 243.102C1297.06 244.635 1298.04 246.414 1298.72 248.438C1299.45 250.462 1299.85 252.578 1299.91 254.786ZM1269.19 259.662H1305.71C1305.83 256.35 1305.53 253.099 1304.79 249.91C1304.05 246.659 1302.83 243.807 1301.11 241.354C1299.45 238.839 1297.28 236.815 1294.58 235.282C1291.88 233.749 1288.63 232.982 1284.83 232.982C1281.09 232.982 1277.83 233.718 1275.07 235.19C1272.38 236.601 1270.17 238.502 1268.45 240.894C1266.73 243.225 1265.45 245.893 1264.59 248.898C1263.79 251.903 1263.39 254.97 1263.39 258.098C1263.39 261.471 1263.79 264.691 1264.59 267.758C1265.45 270.763 1266.73 273.431 1268.45 275.762C1270.17 278.031 1272.38 279.841 1275.07 281.19C1277.83 282.478 1281.09 283.122 1284.83 283.122C1290.84 283.122 1295.47 281.65 1298.72 278.706C1302.03 275.762 1304.3 271.591 1305.53 266.194H1299.73C1298.81 269.874 1297.15 272.818 1294.76 275.026C1292.37 277.234 1289.06 278.338 1284.83 278.338C1282.07 278.338 1279.71 277.755 1277.74 276.59C1275.78 275.425 1274.15 273.953 1272.87 272.174C1271.58 270.395 1270.63 268.402 1270.01 266.194C1269.46 263.925 1269.19 261.747 1269.19 259.662ZM1331.43 234.362V220.102H1325.63V234.362H1317.35V239.238H1325.63V271.714C1325.57 275.762 1326.31 278.553 1327.84 280.086C1329.37 281.558 1332.07 282.294 1335.94 282.294C1336.8 282.294 1337.65 282.263 1338.51 282.202C1339.37 282.141 1340.23 282.11 1341.09 282.11V277.234C1339.43 277.418 1337.78 277.51 1336.12 277.51C1334.04 277.387 1332.72 276.805 1332.17 275.762C1331.67 274.658 1331.43 273.155 1331.43 271.254V239.238H1341.09V234.362H1331.43ZM1357.64 248.898H1363.44C1363.56 245.034 1364.79 242.243 1367.12 240.526C1369.45 238.747 1372.45 237.858 1376.13 237.858C1377.85 237.858 1379.44 238.011 1380.92 238.318C1382.45 238.563 1383.77 239.054 1384.87 239.79C1386.04 240.526 1386.93 241.538 1387.54 242.826C1388.21 244.053 1388.55 245.647 1388.55 247.61C1388.55 248.898 1388.37 249.941 1388 250.738C1387.69 251.535 1387.23 252.179 1386.62 252.67C1386.01 253.099 1385.24 253.406 1384.32 253.59C1383.4 253.774 1382.33 253.927 1381.1 254.05C1377.97 254.418 1374.87 254.817 1371.81 255.246C1368.8 255.614 1366.07 256.289 1363.62 257.27C1361.23 258.251 1359.3 259.693 1357.82 261.594C1356.35 263.434 1355.62 266.01 1355.62 269.322C1355.62 271.714 1356.01 273.799 1356.81 275.578C1357.67 277.295 1358.81 278.737 1360.22 279.902C1361.69 281.006 1363.37 281.803 1365.28 282.294C1367.24 282.846 1369.32 283.122 1371.53 283.122C1373.86 283.122 1375.86 282.907 1377.51 282.478C1379.23 282.049 1380.73 281.435 1382.02 280.638C1383.37 279.841 1384.57 278.859 1385.61 277.694C1386.71 276.467 1387.79 275.087 1388.83 273.554H1389.01C1389.01 274.781 1389.07 275.915 1389.2 276.958C1389.38 277.939 1389.72 278.798 1390.21 279.534C1390.7 280.27 1391.37 280.853 1392.23 281.282C1393.15 281.65 1394.35 281.834 1395.82 281.834C1396.62 281.834 1397.26 281.803 1397.75 281.742C1398.3 281.681 1398.92 281.589 1399.59 281.466V276.59C1399.04 276.835 1398.43 276.958 1397.75 276.958C1395.48 276.958 1394.35 275.793 1394.35 273.462V248.254C1394.35 245.065 1393.83 242.489 1392.78 240.526C1391.74 238.502 1390.39 236.938 1388.74 235.834C1387.08 234.73 1385.21 233.994 1383.12 233.626C1381.04 233.197 1378.95 232.982 1376.87 232.982C1374.11 232.982 1371.59 233.289 1369.32 233.902C1367.05 234.515 1365.06 235.466 1363.34 236.754C1361.69 238.042 1360.37 239.698 1359.39 241.722C1358.41 243.746 1357.82 246.138 1357.64 248.898ZM1388.55 255.89V263.434C1388.55 265.765 1388.09 267.85 1387.17 269.69C1386.31 271.53 1385.12 273.094 1383.58 274.382C1382.11 275.67 1380.36 276.651 1378.34 277.326C1376.32 278.001 1374.2 278.338 1371.99 278.338C1370.64 278.338 1369.32 278.123 1368.04 277.694C1366.75 277.265 1365.61 276.651 1364.63 275.854C1363.65 274.995 1362.85 274.014 1362.24 272.91C1361.69 271.745 1361.41 270.426 1361.41 268.954C1361.41 266.623 1362.09 264.845 1363.44 263.618C1364.85 262.33 1366.63 261.349 1368.77 260.674C1370.92 259.999 1373.28 259.509 1375.86 259.202C1378.49 258.834 1381.04 258.435 1383.49 258.006C1384.29 257.883 1385.21 257.669 1386.25 257.362C1387.29 257.055 1388 256.565 1388.37 255.89H1388.55ZM1414.64 234.362V281.834H1420.44V256.534C1420.44 254.019 1420.86 251.719 1421.72 249.634C1422.58 247.487 1423.78 245.647 1425.31 244.114C1426.91 242.581 1428.78 241.415 1430.92 240.618C1433.07 239.759 1435.46 239.391 1438.1 239.514V233.718C1433.81 233.534 1430.1 234.485 1426.97 236.57C1423.9 238.655 1421.63 241.63 1420.16 245.494H1419.98V234.362H1414.64ZM1447.06 234.362L1466.01 281.65L1463.99 286.986C1463.5 288.09 1463.04 289.102 1462.61 290.022C1462.18 290.942 1461.66 291.709 1461.05 292.322C1460.43 292.997 1459.7 293.518 1458.84 293.886C1458.04 294.254 1457 294.438 1455.71 294.438C1455.04 294.438 1454.36 294.377 1453.69 294.254C1453.07 294.193 1452.43 294.101 1451.75 293.978V298.854C1452.25 299.038 1452.8 299.13 1453.41 299.13C1454.09 299.191 1455.01 299.253 1456.17 299.314C1458.01 299.314 1459.51 299.13 1460.68 298.762C1461.91 298.455 1462.95 297.903 1463.81 297.106C1464.73 296.37 1465.55 295.327 1466.29 293.978C1467.03 292.69 1467.82 291.034 1468.68 289.01L1489.29 234.362H1483.49L1468.87 274.842L1453.23 234.362H1447.06ZM1539.17 216.146V281.834H1545.43V250.002H1584.44V281.834H1590.69V216.146H1584.44V244.666H1545.43V216.146H1539.17ZM1645.72 254.786H1614.99C1615.24 252.639 1615.73 250.554 1616.46 248.53C1617.26 246.445 1618.3 244.635 1619.59 243.102C1620.88 241.507 1622.44 240.25 1624.28 239.33C1626.12 238.349 1628.24 237.858 1630.63 237.858C1632.96 237.858 1635.05 238.349 1636.89 239.33C1638.73 240.25 1640.29 241.507 1641.58 243.102C1642.87 244.635 1643.85 246.414 1644.52 248.438C1645.26 250.462 1645.66 252.578 1645.72 254.786ZM1614.99 259.662H1651.52C1651.64 256.35 1651.33 253.099 1650.6 249.91C1649.86 246.659 1648.63 243.807 1646.92 241.354C1645.26 238.839 1643.08 236.815 1640.38 235.282C1637.68 233.749 1634.43 232.982 1630.63 232.982C1626.89 232.982 1623.64 233.718 1620.88 235.19C1618.18 236.601 1615.97 238.502 1614.26 240.894C1612.54 243.225 1611.25 245.893 1610.39 248.898C1609.59 251.903 1609.2 254.97 1609.2 258.098C1609.2 261.471 1609.59 264.691 1610.39 267.758C1611.25 270.763 1612.54 273.431 1614.26 275.762C1615.97 278.031 1618.18 279.841 1620.88 281.19C1623.64 282.478 1626.89 283.122 1630.63 283.122C1636.64 283.122 1641.27 281.65 1644.52 278.706C1647.84 275.762 1650.1 271.591 1651.33 266.194H1645.54C1644.62 269.874 1642.96 272.818 1640.57 275.026C1638.18 277.234 1634.86 278.338 1630.63 278.338C1627.87 278.338 1625.51 277.755 1623.55 276.59C1621.58 275.425 1619.96 273.953 1618.67 272.174C1617.38 270.395 1616.43 268.402 1615.82 266.194C1615.27 263.925 1614.99 261.747 1614.99 259.662ZM1667.48 248.898H1673.28C1673.4 245.034 1674.63 242.243 1676.96 240.526C1679.29 238.747 1682.29 237.858 1685.97 237.858C1687.69 237.858 1689.29 238.011 1690.76 238.318C1692.29 238.563 1693.61 239.054 1694.71 239.79C1695.88 240.526 1696.77 241.538 1697.38 242.826C1698.06 244.053 1698.39 245.647 1698.39 247.61C1698.39 248.898 1698.21 249.941 1697.84 250.738C1697.54 251.535 1697.08 252.179 1696.46 252.67C1695.85 253.099 1695.08 253.406 1694.16 253.59C1693.24 253.774 1692.17 253.927 1690.94 254.05C1687.81 254.418 1684.72 254.817 1681.65 255.246C1678.65 255.614 1675.92 256.289 1673.46 257.27C1671.07 258.251 1669.14 259.693 1667.67 261.594C1666.19 263.434 1665.46 266.01 1665.46 269.322C1665.46 271.714 1665.86 273.799 1666.65 275.578C1667.51 277.295 1668.65 278.737 1670.06 279.902C1671.53 281.006 1673.22 281.803 1675.12 282.294C1677.08 282.846 1679.17 283.122 1681.37 283.122C1683.71 283.122 1685.7 282.907 1687.35 282.478C1689.07 282.049 1690.57 281.435 1691.86 280.638C1693.21 279.841 1694.41 278.859 1695.45 277.694C1696.55 276.467 1697.63 275.087 1698.67 273.554H1698.85C1698.85 274.781 1698.92 275.915 1699.04 276.958C1699.22 277.939 1699.56 278.798 1700.05 279.534C1700.54 280.27 1701.22 280.853 1702.07 281.282C1702.99 281.65 1704.19 281.834 1705.66 281.834C1706.46 281.834 1707.1 281.803 1707.59 281.742C1708.15 281.681 1708.76 281.589 1709.43 281.466V276.59C1708.88 276.835 1708.27 276.958 1707.59 276.958C1705.33 276.958 1704.19 275.793 1704.19 273.462V248.254C1704.19 245.065 1703.67 242.489 1702.63 240.526C1701.58 238.502 1700.23 236.938 1698.58 235.834C1696.92 234.73 1695.05 233.994 1692.97 233.626C1690.88 233.197 1688.8 232.982 1686.71 232.982C1683.95 232.982 1681.44 233.289 1679.17 233.902C1676.9 234.515 1674.9 235.466 1673.19 236.754C1671.53 238.042 1670.21 239.698 1669.23 241.722C1668.25 243.746 1667.67 246.138 1667.48 248.898ZM1698.39 255.89V263.434C1698.39 265.765 1697.93 267.85 1697.01 269.69C1696.16 271.53 1694.96 273.094 1693.43 274.382C1691.95 275.67 1690.21 276.651 1688.18 277.326C1686.16 278.001 1684.04 278.338 1681.83 278.338C1680.49 278.338 1679.17 278.123 1677.88 277.694C1676.59 277.265 1675.46 276.651 1674.47 275.854C1673.49 274.995 1672.7 274.014 1672.08 272.91C1671.53 271.745 1671.25 270.426 1671.25 268.954C1671.25 266.623 1671.93 264.845 1673.28 263.618C1674.69 262.33 1676.47 261.349 1678.61 260.674C1680.76 259.999 1683.12 259.509 1685.7 259.202C1688.34 258.834 1690.88 258.435 1693.33 258.006C1694.13 257.883 1695.05 257.669 1696.09 257.362C1697.14 257.055 1697.84 256.565 1698.21 255.89H1698.39ZM1724.57 216.146V281.834H1730.37V216.146H1724.57ZM1759.4 234.362V220.102H1753.61V234.362H1745.33V239.238H1753.61V271.714C1753.54 275.762 1754.28 278.553 1755.81 280.086C1757.35 281.558 1760.05 282.294 1763.91 282.294C1764.77 282.294 1765.63 282.263 1766.49 282.202C1767.34 282.141 1768.2 282.11 1769.06 282.11V277.234C1767.41 277.418 1765.75 277.51 1764.09 277.51C1762.01 277.387 1760.69 276.805 1760.14 275.762C1759.65 274.658 1759.4 273.155 1759.4 271.254V239.238H1769.06V234.362H1759.4ZM1786.07 216.146V281.834H1791.87V254.142C1791.93 251.811 1792.3 249.665 1792.97 247.702C1793.71 245.678 1794.69 243.961 1795.92 242.55C1797.2 241.078 1798.74 239.943 1800.52 239.146C1802.36 238.287 1804.44 237.858 1806.77 237.858C1809.1 237.858 1811.04 238.226 1812.57 238.962C1814.16 239.698 1815.42 240.71 1816.34 241.998C1817.26 243.286 1817.9 244.819 1818.27 246.598C1818.64 248.315 1818.82 250.186 1818.82 252.21V281.834H1824.62V251.29C1824.62 248.469 1824.34 245.923 1823.79 243.654C1823.24 241.385 1822.29 239.483 1820.94 237.95C1819.59 236.355 1817.78 235.129 1815.51 234.27C1813.3 233.411 1810.54 232.982 1807.23 232.982C1803.86 232.982 1800.76 233.871 1797.94 235.65C1795.12 237.367 1793.16 239.667 1792.05 242.55H1791.87V216.146H1786.07Z" fill="black"/>
<path d="M481.278 87.73V184.834H554.99V166.882H502.63V143.082H549.686V126.49H502.63V105.682H553.902V87.73H481.278ZM567.425 114.522V184.834H586.737V147.978C586.737 140.815 587.916 135.693 590.273 132.61C592.63 129.437 596.438 127.85 601.697 127.85C606.321 127.85 609.54 129.301 611.353 132.202C613.166 135.013 614.073 139.319 614.073 145.122V184.834H633.385V141.586C633.385 137.234 632.977 133.29 632.161 129.754C631.436 126.127 630.121 123.09 628.217 120.642C626.313 118.103 623.684 116.154 620.329 114.794C617.065 113.343 612.849 112.618 607.681 112.618C603.601 112.618 599.612 113.57 595.713 115.474C591.814 117.287 588.641 120.234 586.193 124.314H585.785V114.522H567.425ZM697.954 149.474C697.954 152.375 697.682 155.186 697.138 157.906C696.594 160.626 695.688 163.074 694.418 165.25C693.149 167.335 691.426 169.013 689.25 170.282C687.165 171.551 684.536 172.186 681.362 172.186C678.37 172.186 675.786 171.551 673.61 170.282C671.525 168.922 669.757 167.199 668.306 165.114C666.946 162.938 665.949 160.49 665.314 157.77C664.68 155.05 664.362 152.33 664.362 149.61C664.362 146.709 664.634 143.943 665.178 141.314C665.813 138.594 666.765 136.191 668.034 134.106C669.394 132.021 671.162 130.343 673.338 129.074C675.514 127.805 678.189 127.17 681.362 127.17C684.536 127.17 687.165 127.805 689.25 129.074C691.336 130.343 693.013 132.021 694.282 134.106C695.642 136.101 696.594 138.458 697.138 141.178C697.682 143.807 697.954 146.573 697.954 149.474ZM698.226 175.858V184.834H716.586V87.73H697.274V123.09H697.002C694.826 119.645 691.834 117.061 688.026 115.338C684.309 113.525 680.365 112.618 676.194 112.618C671.026 112.618 666.493 113.661 662.594 115.746C658.696 117.741 655.432 120.415 652.802 123.77C650.264 127.125 648.314 131.023 646.954 135.466C645.685 139.818 645.05 144.351 645.05 149.066C645.05 153.962 645.685 158.677 646.954 163.21C648.314 167.743 650.264 171.778 652.802 175.314C655.432 178.759 658.741 181.525 662.73 183.61C666.72 185.605 671.344 186.602 676.602 186.602C681.226 186.602 685.352 185.786 688.978 184.154C692.696 182.431 695.688 179.666 697.954 175.858H698.226ZM754.575 133.426V104.322H771.167C773.615 104.322 775.972 104.503 778.239 104.866C780.506 105.229 782.5 105.954 784.223 107.042C785.946 108.039 787.306 109.49 788.303 111.394C789.391 113.298 789.935 115.791 789.935 118.874C789.935 121.957 789.391 124.45 788.303 126.354C787.306 128.258 785.946 129.754 784.223 130.842C782.5 131.839 780.506 132.519 778.239 132.882C775.972 133.245 773.615 133.426 771.167 133.426H754.575ZM733.223 87.73V184.834H754.575V150.018H777.015C783.09 150.018 788.258 149.157 792.519 147.434C796.78 145.621 800.226 143.263 802.855 140.362C805.575 137.461 807.524 134.151 808.703 130.434C809.972 126.626 810.607 122.773 810.607 118.874C810.607 114.885 809.972 111.031 808.703 107.314C807.524 103.597 805.575 100.287 802.855 97.386C800.226 94.4846 796.78 92.1726 792.519 90.45C788.258 88.6366 783.09 87.73 777.015 87.73H733.223ZM821.078 136.146C821.35 131.613 822.483 127.85 824.478 124.858C826.472 121.866 829.011 119.463 832.094 117.65C835.176 115.837 838.622 114.567 842.43 113.842C846.328 113.026 850.227 112.618 854.126 112.618C857.662 112.618 861.243 112.89 864.87 113.434C868.496 113.887 871.806 114.839 874.798 116.29C877.79 117.741 880.238 119.781 882.142 122.41C884.046 124.949 884.998 128.349 884.998 132.61V169.194C884.998 172.367 885.179 175.405 885.542 178.306C885.904 181.207 886.539 183.383 887.446 184.834H867.862C867.499 183.746 867.182 182.658 866.91 181.57C866.728 180.391 866.592 179.213 866.502 178.034C863.419 181.207 859.792 183.429 855.622 184.698C851.451 185.967 847.19 186.602 842.838 186.602C839.483 186.602 836.355 186.194 833.454 185.378C830.552 184.562 828.014 183.293 825.838 181.57C823.662 179.847 821.939 177.671 820.67 175.042C819.491 172.413 818.902 169.285 818.902 165.658C818.902 161.669 819.582 158.405 820.942 155.866C822.392 153.237 824.206 151.151 826.382 149.61C828.648 148.069 831.187 146.935 833.998 146.21C836.899 145.394 839.8 144.759 842.702 144.306C845.603 143.853 848.459 143.49 851.27 143.218C854.08 142.946 856.574 142.538 858.75 141.994C860.926 141.45 862.648 140.679 863.918 139.682C865.187 138.594 865.776 137.053 865.686 135.058C865.686 132.973 865.323 131.341 864.598 130.162C863.963 128.893 863.056 127.941 861.878 127.306C860.79 126.581 859.475 126.127 857.934 125.946C856.483 125.674 854.896 125.538 853.174 125.538C849.366 125.538 846.374 126.354 844.198 127.986C842.022 129.618 840.752 132.338 840.39 136.146H821.078ZM865.686 150.426C864.87 151.151 863.827 151.741 862.558 152.194C861.379 152.557 860.064 152.874 858.614 153.146C857.254 153.418 855.803 153.645 854.262 153.826C852.72 154.007 851.179 154.234 849.638 154.506C848.187 154.778 846.736 155.141 845.286 155.594C843.926 156.047 842.702 156.682 841.614 157.498C840.616 158.223 839.8 159.175 839.166 160.354C838.531 161.533 838.214 163.029 838.214 164.842C838.214 166.565 838.531 168.015 839.166 169.194C839.8 170.373 840.662 171.325 841.75 172.05C842.838 172.685 844.107 173.138 845.558 173.41C847.008 173.682 848.504 173.818 850.046 173.818C853.854 173.818 856.8 173.183 858.886 171.914C860.971 170.645 862.512 169.149 863.51 167.426C864.507 165.613 865.096 163.799 865.278 161.986C865.55 160.173 865.686 158.722 865.686 157.634V150.426ZM899.988 114.522V184.834H919.3V147.978C919.3 140.815 920.478 135.693 922.836 132.61C925.193 129.437 929.001 127.85 934.26 127.85C938.884 127.85 942.102 129.301 943.916 132.202C945.729 135.013 946.636 139.319 946.636 145.122V184.834H965.948V141.586C965.948 137.234 965.54 133.29 964.724 129.754C963.998 126.127 962.684 123.09 960.78 120.642C958.876 118.103 956.246 116.154 952.892 114.794C949.628 113.343 945.412 112.618 940.244 112.618C936.164 112.618 932.174 113.57 928.276 115.474C924.377 117.287 921.204 120.234 918.756 124.314H918.348V114.522H899.988ZM1030.52 149.474C1030.52 152.375 1030.24 155.186 1029.7 157.906C1029.16 160.626 1028.25 163.074 1026.98 165.25C1025.71 167.335 1023.99 169.013 1021.81 170.282C1019.73 171.551 1017.1 172.186 1013.92 172.186C1010.93 172.186 1008.35 171.551 1006.17 170.282C1004.09 168.922 1002.32 167.199 1000.87 165.114C999.509 162.938 998.511 160.49 997.877 157.77C997.242 155.05 996.925 152.33 996.925 149.61C996.925 146.709 997.197 143.943 997.741 141.314C998.375 138.594 999.327 136.191 1000.6 134.106C1001.96 132.021 1003.72 130.343 1005.9 129.074C1008.08 127.805 1010.75 127.17 1013.92 127.17C1017.1 127.17 1019.73 127.805 1021.81 129.074C1023.9 130.343 1025.58 132.021 1026.84 134.106C1028.2 136.101 1029.16 138.458 1029.7 141.178C1030.24 143.807 1030.52 146.573 1030.52 149.474ZM1030.79 175.858V184.834H1049.15V87.73H1029.84V123.09H1029.56C1027.39 119.645 1024.4 117.061 1020.59 115.338C1016.87 113.525 1012.93 112.618 1008.76 112.618C1003.59 112.618 999.055 113.661 995.157 115.746C991.258 117.741 987.994 120.415 985.365 123.77C982.826 127.125 980.877 131.023 979.517 135.466C978.247 139.818 977.613 144.351 977.613 149.066C977.613 153.962 978.247 158.677 979.517 163.21C980.877 167.743 982.826 171.778 985.365 175.314C987.994 178.759 991.303 181.525 995.293 183.61C999.282 185.605 1003.91 186.602 1009.16 186.602C1013.79 186.602 1017.91 185.786 1021.54 184.154C1025.26 182.431 1028.25 179.666 1030.52 175.858H1030.79ZM1111.07 142.13H1079.66C1079.75 140.77 1080.02 139.229 1080.47 137.506C1081.02 135.783 1081.88 134.151 1083.06 132.61C1084.33 131.069 1085.96 129.799 1087.95 128.802C1090.04 127.714 1092.62 127.17 1095.71 127.17C1100.42 127.17 1103.91 128.439 1106.18 130.978C1108.53 133.517 1110.17 137.234 1111.07 142.13ZM1079.66 154.37H1130.39C1130.75 148.93 1130.29 143.717 1129.03 138.73C1127.76 133.743 1125.67 129.301 1122.77 125.402C1119.96 121.503 1116.33 118.421 1111.89 116.154C1107.45 113.797 1102.23 112.618 1096.25 112.618C1090.9 112.618 1086 113.57 1081.56 115.474C1077.21 117.378 1073.45 120.007 1070.27 123.362C1067.1 126.626 1064.65 130.525 1062.93 135.058C1061.21 139.591 1060.35 144.487 1060.35 149.746C1060.35 155.186 1061.16 160.173 1062.79 164.706C1064.52 169.239 1066.92 173.138 1070 176.402C1073.08 179.666 1076.85 182.205 1081.29 184.018C1085.73 185.741 1090.72 186.602 1096.25 186.602C1104.23 186.602 1111.03 184.789 1116.65 181.162C1122.27 177.535 1126.44 171.506 1129.16 163.074H1112.16C1111.53 165.25 1109.8 167.335 1106.99 169.33C1104.18 171.234 1100.83 172.186 1096.93 172.186C1091.49 172.186 1087.32 170.781 1084.42 167.97C1081.52 165.159 1079.93 160.626 1079.66 154.37ZM1142.38 114.522V184.834H1161.7V144.034C1161.7 140.589 1162.19 137.823 1163.19 135.738C1164.19 133.562 1165.37 131.93 1166.73 130.842C1168.18 129.663 1169.63 128.893 1171.08 128.53C1172.62 128.077 1173.84 127.85 1174.75 127.85C1177.83 127.85 1180.15 128.394 1181.69 129.482C1183.32 130.479 1184.45 131.839 1185.09 133.562C1185.81 135.285 1186.22 137.189 1186.31 139.274C1186.4 141.269 1186.45 143.309 1186.45 145.394V184.834H1205.76V145.666C1205.76 143.49 1205.9 141.359 1206.17 139.274C1206.53 137.098 1207.16 135.194 1208.07 133.562C1209.07 131.839 1210.38 130.479 1212.02 129.482C1213.74 128.394 1215.96 127.85 1218.68 127.85C1221.4 127.85 1223.53 128.303 1225.07 129.21C1226.7 130.117 1227.93 131.341 1228.74 132.882C1229.56 134.423 1230.06 136.237 1230.24 138.322C1230.42 140.407 1230.51 142.629 1230.51 144.986V184.834H1249.82V137.778C1249.82 133.245 1249.19 129.391 1247.92 126.218C1246.65 122.954 1244.88 120.325 1242.62 118.33C1240.35 116.335 1237.63 114.885 1234.46 113.978C1231.28 113.071 1227.84 112.618 1224.12 112.618C1219.22 112.618 1214.96 113.797 1211.34 116.154C1207.8 118.511 1204.99 121.231 1202.9 124.314C1201 119.962 1198.19 116.925 1194.47 115.202C1190.84 113.479 1186.81 112.618 1182.37 112.618C1177.74 112.618 1173.62 113.615 1169.99 115.61C1166.46 117.605 1163.42 120.415 1160.88 124.042H1160.61V114.522H1142.38ZM1284.95 103.642V87.73H1265.63V103.642H1284.95ZM1265.63 114.522V184.834H1284.95V114.522H1265.63ZM1348.02 139.274H1366.93C1366.66 134.741 1365.57 130.842 1363.66 127.578C1361.76 124.223 1359.27 121.458 1356.18 119.282C1353.19 117.015 1349.75 115.338 1345.85 114.25C1342.04 113.162 1338.05 112.618 1333.88 112.618C1328.17 112.618 1323.09 113.57 1318.65 115.474C1314.2 117.378 1310.44 120.053 1307.36 123.498C1304.28 126.853 1301.92 130.887 1300.29 135.602C1298.75 140.226 1297.98 145.258 1297.98 150.698C1297.98 155.957 1298.84 160.807 1300.56 165.25C1302.28 169.602 1304.68 173.365 1307.77 176.538C1310.85 179.711 1314.57 182.205 1318.92 184.018C1323.36 185.741 1328.21 186.602 1333.47 186.602C1342.81 186.602 1350.47 184.154 1356.46 179.258C1362.44 174.362 1366.07 167.245 1367.34 157.906H1348.7C1348.07 162.258 1346.48 165.749 1343.94 168.378C1341.5 170.917 1337.96 172.186 1333.34 172.186C1330.34 172.186 1327.8 171.506 1325.72 170.146C1323.63 168.786 1321.96 167.063 1320.69 164.978C1319.51 162.802 1318.65 160.399 1318.1 157.77C1317.56 155.141 1317.29 152.557 1317.29 150.018C1317.29 147.389 1317.56 144.759 1318.1 142.13C1318.65 139.41 1319.55 136.962 1320.82 134.786C1322.18 132.519 1323.91 130.706 1325.99 129.346C1328.08 127.895 1330.66 127.17 1333.74 127.17C1341.99 127.17 1346.75 131.205 1348.02 139.274ZM1393.21 161.986H1374.85C1375.03 166.701 1376.07 170.645 1377.97 173.818C1379.97 176.901 1382.46 179.394 1385.45 181.298C1388.54 183.202 1392.03 184.562 1395.93 185.378C1399.82 186.194 1403.81 186.602 1407.89 186.602C1411.88 186.602 1415.78 186.194 1419.59 185.378C1423.49 184.653 1426.93 183.338 1429.93 181.434C1432.92 179.53 1435.32 177.037 1437.13 173.954C1439.04 170.781 1439.99 166.882 1439.99 162.258C1439.99 158.994 1439.35 156.274 1438.09 154.098C1436.82 151.831 1435.14 149.973 1433.05 148.522C1430.97 146.981 1428.57 145.757 1425.85 144.85C1423.22 143.943 1420.5 143.173 1417.69 142.538C1414.97 141.903 1412.29 141.314 1409.66 140.77C1407.03 140.226 1404.67 139.637 1402.59 139.002C1400.59 138.277 1398.96 137.37 1397.69 136.282C1396.42 135.194 1395.79 133.789 1395.79 132.066C1395.79 130.615 1396.15 129.482 1396.88 128.666C1397.6 127.759 1398.46 127.079 1399.46 126.626C1400.55 126.173 1401.73 125.901 1403 125.81C1404.27 125.629 1405.45 125.538 1406.53 125.538C1409.98 125.538 1412.97 126.218 1415.51 127.578C1418.05 128.847 1419.45 131.341 1419.73 135.058H1438.09C1437.72 130.706 1436.59 127.125 1434.69 124.314C1432.87 121.413 1430.56 119.101 1427.75 117.378C1424.94 115.655 1421.72 114.431 1418.09 113.706C1414.56 112.981 1410.89 112.618 1407.08 112.618C1403.27 112.618 1399.55 112.981 1395.93 113.706C1392.3 114.341 1389.03 115.519 1386.13 117.242C1383.23 118.874 1380.87 121.141 1379.06 124.042C1377.34 126.943 1376.48 130.661 1376.48 135.194C1376.48 138.277 1377.11 140.906 1378.38 143.082C1379.65 145.167 1381.33 146.935 1383.41 148.386C1385.5 149.746 1387.86 150.879 1390.49 151.786C1393.21 152.602 1395.97 153.327 1398.78 153.962C1405.67 155.413 1411.02 156.863 1414.83 158.314C1418.73 159.765 1420.68 161.941 1420.68 164.842C1420.68 166.565 1420.27 168.015 1419.45 169.194C1418.64 170.282 1417.59 171.189 1416.33 171.914C1415.15 172.549 1413.79 173.047 1412.25 173.41C1410.79 173.682 1409.39 173.818 1408.03 173.818C1406.13 173.818 1404.27 173.591 1402.45 173.138C1400.73 172.685 1399.19 172.005 1397.83 171.098C1396.47 170.101 1395.34 168.877 1394.43 167.426C1393.61 165.885 1393.21 164.071 1393.21 161.986ZM1452.11 163.89V184.834H1473.46V163.89H1452.11ZM1491.18 87.73V184.834H1564.9V166.882H1512.54V143.082H1559.59V126.49H1512.54V105.682H1563.81V87.73H1491.18ZM1576.52 136.146C1576.79 131.613 1577.92 127.85 1579.92 124.858C1581.91 121.866 1584.45 119.463 1587.53 117.65C1590.61 115.837 1594.06 114.567 1597.87 113.842C1601.77 113.026 1605.66 112.618 1609.56 112.618C1613.1 112.618 1616.68 112.89 1620.31 113.434C1623.93 113.887 1627.24 114.839 1630.24 116.29C1633.23 117.741 1635.68 119.781 1637.58 122.41C1639.48 124.949 1640.44 128.349 1640.44 132.61V169.194C1640.44 172.367 1640.62 175.405 1640.98 178.306C1641.34 181.207 1641.98 183.383 1642.88 184.834H1623.3C1622.94 183.746 1622.62 182.658 1622.35 181.57C1622.17 180.391 1622.03 179.213 1621.94 178.034C1618.86 181.207 1615.23 183.429 1611.06 184.698C1606.89 185.967 1602.63 186.602 1598.28 186.602C1594.92 186.602 1591.79 186.194 1588.89 185.378C1585.99 184.562 1583.45 183.293 1581.28 181.57C1579.1 179.847 1577.38 177.671 1576.11 175.042C1574.93 172.413 1574.34 169.285 1574.34 165.658C1574.34 161.669 1575.02 158.405 1576.38 155.866C1577.83 153.237 1579.64 151.151 1581.82 149.61C1584.09 148.069 1586.62 146.935 1589.44 146.21C1592.34 145.394 1595.24 144.759 1598.14 144.306C1601.04 143.853 1603.9 143.49 1606.71 143.218C1609.52 142.946 1612.01 142.538 1614.19 141.994C1616.36 141.45 1618.09 140.679 1619.36 139.682C1620.62 138.594 1621.21 137.053 1621.12 135.058C1621.12 132.973 1620.76 131.341 1620.04 130.162C1619.4 128.893 1618.49 127.941 1617.32 127.306C1616.23 126.581 1614.91 126.127 1613.37 125.946C1611.92 125.674 1610.33 125.538 1608.61 125.538C1604.8 125.538 1601.81 126.354 1599.64 127.986C1597.46 129.618 1596.19 132.338 1595.83 136.146H1576.52ZM1621.12 150.426C1620.31 151.151 1619.26 151.741 1618 152.194C1616.82 152.557 1615.5 152.874 1614.05 153.146C1612.69 153.418 1611.24 153.645 1609.7 153.826C1608.16 154.007 1606.62 154.234 1605.08 154.506C1603.62 154.778 1602.17 155.141 1600.72 155.594C1599.36 156.047 1598.14 156.682 1597.05 157.498C1596.05 158.223 1595.24 159.175 1594.6 160.354C1593.97 161.533 1593.65 163.029 1593.65 164.842C1593.65 166.565 1593.97 168.015 1594.6 169.194C1595.24 170.373 1596.1 171.325 1597.19 172.05C1598.28 172.685 1599.54 173.138 1601 173.41C1602.45 173.682 1603.94 173.818 1605.48 173.818C1609.29 173.818 1612.24 173.183 1614.32 171.914C1616.41 170.645 1617.95 169.149 1618.95 167.426C1619.94 165.613 1620.53 163.799 1620.72 161.986C1620.99 160.173 1621.12 158.722 1621.12 157.634V150.426ZM1655.43 114.522V184.834H1674.74V153.146C1674.74 149.973 1675.05 147.026 1675.69 144.306C1676.32 141.586 1677.37 139.229 1678.82 137.234C1680.36 135.149 1682.35 133.517 1684.8 132.338C1687.25 131.159 1690.24 130.57 1693.78 130.57C1694.96 130.57 1696.18 130.661 1697.45 130.842C1698.72 130.933 1699.81 131.069 1700.71 131.25V113.298C1699.17 112.845 1697.77 112.618 1696.5 112.618C1694.05 112.618 1691.69 112.981 1689.43 113.706C1687.16 114.431 1685.03 115.474 1683.03 116.834C1681.04 118.103 1679.27 119.69 1677.73 121.594C1676.19 123.407 1674.96 125.402 1674.06 127.578H1673.79V114.522H1655.43ZM1732.76 114.522V93.442H1713.45V114.522H1701.76V127.442H1713.45V168.922C1713.45 172.458 1714.04 175.314 1715.22 177.49C1716.4 179.666 1717.99 181.343 1719.98 182.522C1722.07 183.701 1724.42 184.471 1727.05 184.834C1729.77 185.287 1732.63 185.514 1735.62 185.514C1737.52 185.514 1739.47 185.469 1741.47 185.378C1743.46 185.287 1745.28 185.106 1746.91 184.834V169.874C1746 170.055 1745.05 170.191 1744.05 170.282C1743.06 170.373 1742.01 170.418 1740.92 170.418C1737.66 170.418 1735.48 169.874 1734.4 168.786C1733.31 167.698 1732.76 165.522 1732.76 162.258V127.442H1746.91V114.522H1732.76ZM1756.1 87.73V184.834H1775.41V147.978C1775.41 140.815 1776.59 135.693 1778.94 132.61C1781.3 129.437 1785.11 127.85 1790.37 127.85C1794.99 127.85 1798.21 129.301 1800.02 132.202C1801.84 135.013 1802.74 139.319 1802.74 145.122V184.834H1822.06V141.586C1822.06 137.234 1821.65 133.29 1820.83 129.754C1820.11 126.127 1818.79 123.09 1816.89 120.642C1814.98 118.103 1812.36 116.154 1809 114.794C1805.74 113.343 1801.52 112.618 1796.35 112.618C1792.73 112.618 1789.01 113.57 1785.2 115.474C1781.39 117.287 1778.26 120.234 1775.82 124.314H1775.41V87.73H1756.1Z" fill="black"/>
</g>
<defs>
<clipPath id="clip0">
<rect width="1938.79" height="383.89" fill="white" transform="translate(0.106934 0.889648)"/>
</clipPath>
<clipPath id="clip1">
<rect width="371.786" height="383.89" fill="white" transform="translate(50.1069 0.889648)"/>
</clipPath>
</defs>
</svg>
