<svg width="650" height="748" viewBox="0 0 650 748" fill="none" xmlns="http://www.w3.org/2000/svg">
<path d="M152.695 493.33V604H236.705V583.54H177.03V556.415H230.66V537.505H177.03V513.79H235.465V493.33H152.695ZM267.153 493.33V604H289.938V529.91H290.248L336.283 604H360.618V493.33H337.833V567.575H337.523L291.333 493.33H267.153ZM420.326 583.54V513.79H437.686C443.679 513.79 448.691 514.668 452.721 516.425C456.854 518.078 460.161 520.507 462.641 523.71C465.121 526.913 466.877 530.788 467.911 535.335C469.047 539.778 469.616 544.79 469.616 550.37C469.616 556.467 468.841 561.633 467.291 565.87C465.741 570.107 463.674 573.568 461.091 576.255C458.507 578.838 455.562 580.698 452.256 581.835C448.949 582.972 445.539 583.54 442.026 583.54H420.326ZM395.991 493.33V604H443.731C452.204 604 459.541 602.605 465.741 599.815C472.044 596.922 477.262 592.995 481.396 588.035C485.632 583.075 488.784 577.185 490.851 570.365C492.917 563.545 493.951 556.105 493.951 548.045C493.951 538.848 492.659 530.84 490.076 524.02C487.596 517.2 484.082 511.517 479.536 506.97C475.092 502.423 469.771 499.013 463.571 496.74C457.474 494.467 450.861 493.33 443.731 493.33H395.991Z" fill="black"/>
<path d="M150.957 632.444H167.967C170.703 632.444 172.935 632.84 174.663 633.632C176.391 634.424 177.723 635.414 178.659 636.602C179.595 637.79 180.225 639.086 180.549 640.49C180.909 641.894 181.089 643.19 181.089 644.378C181.089 645.566 180.909 646.862 180.549 648.266C180.225 649.634 179.595 650.912 178.659 652.1C177.723 653.288 176.391 654.278 174.663 655.07C172.935 655.826 170.703 656.204 167.967 656.204H157.707V671H150.957V632.444ZM157.707 650.696H167.589C168.345 650.696 169.119 650.588 169.911 650.372C170.703 650.156 171.423 649.814 172.071 649.346C172.755 648.842 173.295 648.194 173.691 647.402C174.123 646.574 174.339 645.548 174.339 644.324C174.339 643.064 174.159 642.02 173.799 641.192C173.439 640.364 172.953 639.716 172.341 639.248C171.729 638.744 171.027 638.402 170.235 638.222C169.443 638.042 168.597 637.952 167.697 637.952H157.707V650.696ZM197.33 632.444H204.512L219.362 671H212.126L208.508 660.794H193.118L189.5 671H182.534L197.33 632.444ZM194.954 655.664H206.726L200.948 639.086H200.786L194.954 655.664ZM226.814 632.444H233.942L251.546 660.848H251.654V632.444H258.08V671H250.952L233.402 642.65H233.24V671H226.814V632.444ZM270.105 632.444H286.089C289.041 632.444 291.597 632.948 293.757 633.956C295.917 634.964 297.681 636.35 299.049 638.114C300.417 639.842 301.425 641.876 302.073 644.216C302.757 646.556 303.099 649.058 303.099 651.722C303.099 654.386 302.757 656.888 302.073 659.228C301.425 661.568 300.417 663.62 299.049 665.384C297.681 667.112 295.917 668.48 293.757 669.488C291.597 670.496 289.041 671 286.089 671H270.105V632.444ZM276.855 665.492H283.497C286.125 665.492 288.267 665.15 289.923 664.466C291.615 663.746 292.929 662.774 293.865 661.55C294.837 660.29 295.485 658.832 295.809 657.176C296.169 655.484 296.349 653.666 296.349 651.722C296.349 649.778 296.169 647.978 295.809 646.322C295.485 644.63 294.837 643.172 293.865 641.948C292.929 640.688 291.615 639.716 289.923 639.032C288.267 638.312 286.125 637.952 283.497 637.952H276.855V665.492ZM313.125 632.444H340.881V638.276H319.875V648.374H339.315V653.882H319.875V665.168H341.259V671H313.125V632.444ZM351.081 632.444H360.585L371.223 662.63H371.331L381.699 632.444H391.095V671H384.669V641.246H384.561L373.869 671H368.307L357.615 641.246H357.507V671H351.081V632.444ZM403.227 632.444H409.977V671H403.227V632.444ZM448.335 644.702C448.047 643.586 447.651 642.56 447.147 641.624C446.643 640.688 445.995 639.878 445.203 639.194C444.411 638.51 443.475 637.988 442.395 637.628C441.351 637.232 440.127 637.034 438.723 637.034C436.671 637.034 434.889 637.448 433.377 638.276C431.901 639.104 430.695 640.22 429.759 641.624C428.823 642.992 428.121 644.558 427.653 646.322C427.221 648.086 427.005 649.886 427.005 651.722C427.005 653.558 427.221 655.358 427.653 657.122C428.121 658.886 428.823 660.47 429.759 661.874C430.695 663.242 431.901 664.34 433.377 665.168C434.889 665.996 436.671 666.41 438.723 666.41C440.235 666.41 441.567 666.158 442.719 665.654C443.871 665.114 444.861 664.394 445.689 663.494C446.517 662.558 447.165 661.478 447.633 660.254C448.101 659.03 448.407 657.716 448.551 656.312H455.139C454.995 658.616 454.491 660.722 453.627 662.63C452.799 664.538 451.665 666.194 450.225 667.598C448.785 668.966 447.093 670.028 445.149 670.784C443.205 671.54 441.063 671.918 438.723 671.918C435.843 671.918 433.251 671.396 430.947 670.352C428.679 669.272 426.753 667.814 425.169 665.978C423.585 664.142 422.361 662 421.497 659.552C420.669 657.104 420.255 654.494 420.255 651.722C420.255 648.986 420.669 646.394 421.497 643.946C422.361 641.498 423.585 639.356 425.169 637.52C426.753 635.684 428.679 634.226 430.947 633.146C433.251 632.066 435.843 631.526 438.723 631.526C440.883 631.526 442.917 631.832 444.825 632.444C446.733 633.02 448.407 633.884 449.847 635.036C451.323 636.152 452.511 637.52 453.411 639.14C454.311 640.76 454.869 642.614 455.085 644.702H448.335ZM469.755 658.148C469.755 659.624 470.007 660.884 470.511 661.928C471.015 662.972 471.717 663.836 472.617 664.52C473.517 665.168 474.543 665.654 475.695 665.978C476.883 666.266 478.161 666.41 479.529 666.41C481.005 666.41 482.265 666.248 483.309 665.924C484.353 665.564 485.199 665.114 485.847 664.574C486.495 664.034 486.963 663.422 487.251 662.738C487.539 662.018 487.683 661.298 487.683 660.578C487.683 659.102 487.341 658.022 486.657 657.338C486.009 656.618 485.289 656.114 484.497 655.826C483.129 655.322 481.527 654.854 479.691 654.422C477.891 653.954 475.659 653.36 472.995 652.64C471.339 652.208 469.953 651.65 468.837 650.966C467.757 650.246 466.893 649.454 466.245 648.59C465.597 647.726 465.129 646.808 464.841 645.836C464.589 644.864 464.463 643.874 464.463 642.866C464.463 640.922 464.859 639.248 465.651 637.844C466.479 636.404 467.559 635.216 468.891 634.28C470.223 633.344 471.735 632.66 473.427 632.228C475.119 631.76 476.829 631.526 478.557 631.526C480.573 631.526 482.463 631.796 484.227 632.336C486.027 632.84 487.593 633.614 488.925 634.658C490.293 635.702 491.373 636.998 492.165 638.546C492.957 640.058 493.353 641.822 493.353 643.838H486.603C486.423 641.354 485.577 639.608 484.065 638.6C482.553 637.556 480.627 637.034 478.287 637.034C477.495 637.034 476.685 637.124 475.857 637.304C475.029 637.448 474.273 637.718 473.589 638.114C472.905 638.474 472.329 638.978 471.861 639.626C471.429 640.274 471.213 641.084 471.213 642.056C471.213 643.424 471.627 644.504 472.455 645.296C473.319 646.052 474.435 646.628 475.803 647.024C475.947 647.06 476.505 647.222 477.477 647.51C478.485 647.762 479.601 648.05 480.825 648.374C482.049 648.698 483.237 649.022 484.389 649.346C485.577 649.634 486.423 649.85 486.927 649.994C488.187 650.39 489.285 650.93 490.221 651.614C491.157 652.298 491.931 653.09 492.543 653.99C493.191 654.854 493.659 655.79 493.947 656.798C494.271 657.806 494.433 658.814 494.433 659.822C494.433 661.982 493.983 663.836 493.083 665.384C492.219 666.896 491.067 668.138 489.627 669.11C488.187 670.082 486.549 670.784 484.713 671.216C482.877 671.684 481.005 671.918 479.097 671.918C476.901 671.918 474.831 671.648 472.887 671.108C470.943 670.568 469.251 669.74 467.811 668.624C466.371 667.508 465.219 666.086 464.355 664.358C463.491 662.594 463.041 660.524 463.005 658.148H469.755Z" fill="black"/>
<g clip-path="url(#clip0)">
<path d="M195.101 84.7393C175.968 97.2379 159.666 113.606 147.245 132.79" stroke="black" stroke-width="4" stroke-miterlimit="10" stroke-linecap="square"/>
<path d="M195.102 84.74C208.367 76.067 222.834 69.387 238.039 64.9131" stroke="black" stroke-width="4" stroke-miterlimit="10" stroke-linecap="square"/>
<path d="M238.417 158.705C235.994 168.171 234.086 177.762 232.702 187.435" stroke="black" stroke-width="4" stroke-linecap="round" stroke-linejoin="round"/>
<path d="M238.417 158.705C242.226 143.91 247.085 129.405 252.957 115.301" stroke="black" stroke-width="4" stroke-linecap="round" stroke-linejoin="round"/>
<path d="M227.505 94.333C234.149 95.8967 240.983 97.2545 247.961 98.334" stroke="black" stroke-width="4" stroke-linecap="round" stroke-linejoin="round"/>
<path d="M195.102 84.7393C205.718 88.531 216.535 91.7337 227.505 94.3327" stroke="black" stroke-width="4" stroke-linecap="round" stroke-linejoin="round"/>
<path d="M185.819 151.064C201.495 154.097 219.307 156.874 238.417 158.705" stroke="black" stroke-width="4" stroke-linecap="round" stroke-linejoin="round"/>
<path d="M238.417 158.705C247.476 159.573 256.825 160.23 266.374 160.597" stroke="black" stroke-width="4" stroke-linecap="round" stroke-linejoin="round"/>
<path d="M171.073 148.026C175.736 149.05 180.652 150.065 185.82 151.07" stroke="black" stroke-width="4" stroke-linecap="round" stroke-linejoin="round"/>
<path d="M227.505 94.3326C232.438 89.83 237.608 85.593 242.991 81.6396" stroke="black" stroke-width="4" stroke-linecap="round" stroke-linejoin="round"/>
<path d="M183.672 156.079C184.369 154.379 185.085 152.71 185.82 151.07" stroke="black" stroke-width="4" stroke-linecap="round" stroke-linejoin="round"/>
<path d="M227.504 94.333C212.029 108.462 196.582 127.131 185.842 151.093" stroke="black" stroke-width="4" stroke-linecap="round" stroke-linejoin="round"/>
<path d="M247.938 98.334L252.958 115.295" stroke="black" stroke-width="4" stroke-miterlimit="10" stroke-linecap="square"/>
<path d="M242.991 81.6396L247.938 98.3336" stroke="black" stroke-width="4" stroke-miterlimit="10" stroke-linecap="square"/>
<path d="M238.038 64.9131L242.991 81.6405" stroke="black" stroke-width="4" stroke-miterlimit="10" stroke-linecap="square"/>
<path d="M252.957 115.295L284.147 220.334L147.262 132.79" stroke="black" stroke-width="4" stroke-miterlimit="10" stroke-linecap="square"/>
<path d="M231.088 216.472C229.865 225.097 229.122 233.784 228.862 242.492" stroke="black" stroke-width="4" stroke-miterlimit="10" stroke-linecap="round"/>
<path d="M140.696 169.929C148.487 172.082 158.219 174.564 169.443 177.029" stroke="black" stroke-width="4" stroke-miterlimit="10" stroke-linecap="round"/>
<path d="M182.058 185.087C175.577 201.026 171.634 217.881 170.372 235.041" stroke="black" stroke-width="4" stroke-miterlimit="10" stroke-linecap="round"/>
<path d="M311.937 84.8506C302.74 97.8564 294.704 111.645 287.92 126.057" stroke="black" stroke-width="4" stroke-linecap="square" stroke-linejoin="round"/>
<path d="M287.921 126.058C285.656 130.871 283.363 136.024 281.109 141.466" stroke="black" stroke-width="4" stroke-miterlimit="10" stroke-linecap="round"/>
<path d="M311.765 127.343C303.799 127.335 295.84 126.906 287.92 126.058" stroke="black" stroke-width="4" stroke-miterlimit="10" stroke-linecap="round"/>
<path d="M276.084 124.505C279.983 125.11 283.928 125.627 287.92 126.057" stroke="black" stroke-width="4" stroke-miterlimit="10" stroke-linecap="round"/>
<path d="M311.764 187.101C305.958 187.101 300.208 186.99 294.514 186.768" stroke="black" stroke-width="4" stroke-miterlimit="10" stroke-linecap="round"/>
<path d="M311.726 84.667C307.352 86.4644 290.53 93.5705 271.143 107.805" stroke="black" stroke-width="4" stroke-linecap="round" stroke-linejoin="round"/>
<path d="M328.348 436.922C328.348 436.922 354.379 422.921 381.39 396.896" stroke="black" stroke-width="4" stroke-miterlimit="10" stroke-linecap="round"/>
<path d="M470.04 193.901C457.179 171.231 439.086 151.962 417.271 137.698" stroke="black" stroke-width="4" stroke-linecap="square" stroke-linejoin="round"/>
<path d="M420.326 408.453C393.25 427.047 361.165 436.977 328.319 436.927V111.3H329.432C360.641 111.466 391.139 120.64 417.259 137.721" stroke="black" stroke-width="4" stroke-miterlimit="10" stroke-linecap="square"/>
<path d="M475.488 343.847C463.114 369.867 444.084 392.154 420.325 408.452" stroke="black" stroke-width="4" stroke-linecap="square" stroke-linejoin="round"/>
<path d="M491.137 273.232C491.033 245.412 483.768 218.088 470.041 193.891" stroke="black" stroke-width="4" stroke-linecap="square" stroke-linejoin="round"/>
<path d="M491.136 273.231C491.136 273.521 491.136 273.788 491.136 274.1C491.172 298.223 485.826 322.051 475.488 343.847" stroke="black" stroke-width="4" stroke-linecap="square" stroke-linejoin="round"/>
<path d="M382.013 273.231C382.013 273.086 382.013 272.947 382.013 272.803C382.013 251.39 378.797 230.706 373.95 211.675" stroke="black" stroke-width="4" stroke-linecap="square" stroke-linejoin="round"/>
<path d="M328.325 111.3C337.615 124.421 345.738 138.33 352.604 152.868" stroke="black" stroke-width="4" stroke-linecap="round" stroke-linejoin="round"/>
<path d="M353.232 392.099C340.673 419.366 328.336 436.916 328.336 436.916" stroke="black" stroke-width="4" stroke-linecap="round" stroke-linejoin="round"/>
<path d="M375.052 329.646C379.248 311.889 381.974 292.841 382.013 273.242" stroke="black" stroke-width="4" stroke-linecap="square" stroke-linejoin="round"/>
<path d="M373.955 211.686C368.707 191.453 361.558 171.761 352.604 152.873" stroke="black" stroke-width="4" stroke-linecap="square" stroke-linejoin="round"/>
<path d="M353.232 392.099C361.212 374.781 369.442 353.369 375.051 329.646" stroke="black" stroke-width="4" stroke-linecap="square" stroke-linejoin="round"/>
<path d="M352.604 152.873C344.691 153.714 336.739 154.139 328.782 154.147H328.348" stroke="black" stroke-width="4" stroke-linecap="square" stroke-linejoin="round"/>
<path d="M384.89 147.314C374.259 149.844 363.48 151.702 352.615 152.879" stroke="black" stroke-width="4" stroke-linecap="square" stroke-linejoin="round"/>
<path d="M417.26 137.721C406.651 141.512 395.841 144.714 384.879 147.314" stroke="black" stroke-width="4" stroke-linecap="round" stroke-linejoin="round"/>
<path d="M328.319 390.607C336.645 390.653 344.961 391.15 353.232 392.099" stroke="black" stroke-width="4" stroke-linecap="square" stroke-linejoin="round"/>
<path d="M420.326 408.453C407.605 403.761 394.593 399.899 381.373 396.89" stroke="black" stroke-width="4" stroke-linecap="round" stroke-linejoin="round"/>
<path d="M353.232 392.099C362.698 393.188 372.097 394.79 381.39 396.895" stroke="black" stroke-width="4" stroke-linecap="square" stroke-linejoin="round"/>
<path d="M426.552 204.052C410.871 207.079 393.064 209.856 373.955 211.686" stroke="black" stroke-width="4" stroke-linecap="square" stroke-linejoin="round"/>
<path d="M373.955 211.687C359.487 213.072 344.323 213.912 328.753 213.912H328.319" stroke="black" stroke-width="4" stroke-linecap="square" stroke-linejoin="round"/>
<path d="M470.041 193.901C459 196.951 444.12 200.657 426.553 204.051" stroke="black" stroke-width="4" stroke-linecap="round" stroke-linejoin="round"/>
<path d="M475.488 343.847C464.247 341.476 447.364 338.243 426.78 335.294" stroke="black" stroke-width="4" stroke-linecap="round" stroke-linejoin="round"/>
<path d="M328.319 327.815C344.412 327.849 360.127 328.539 375.063 329.646" stroke="black" stroke-width="4" stroke-linecap="square" stroke-linejoin="round"/>
<path d="M426.781 335.295C411.339 333.069 393.821 331.043 375.029 329.646" stroke="black" stroke-width="4" stroke-linecap="square" stroke-linejoin="round"/>
<path d="M426.781 335.294C415.223 360.101 398.117 380.796 381.39 396.895" stroke="black" stroke-width="4" stroke-linecap="square" stroke-linejoin="round"/>
<path d="M440.915 273.231C440.915 296.047 435.383 316.814 426.78 335.283" stroke="black" stroke-width="4" stroke-linecap="square" stroke-linejoin="round"/>
<path d="M384.89 147.314C359.944 124.549 333.84 113.553 328.331 111.3" stroke="black" stroke-width="4" stroke-linecap="round" stroke-linejoin="round"/>
<path d="M440.915 273.231C440.915 246.426 435.289 223.494 426.553 204.04" stroke="black" stroke-width="4" stroke-linecap="square" stroke-linejoin="round"/>
<path d="M384.89 147.314C400.365 161.449 415.813 180.118 426.552 204.074" stroke="black" stroke-width="4" stroke-linecap="square" stroke-linejoin="round"/>
<path d="M382.013 273.242H328.319" stroke="black" stroke-width="4" stroke-linecap="square" stroke-linejoin="round"/>
<path d="M382.013 273.242H440.915" stroke="black" stroke-width="4" stroke-linecap="square" stroke-linejoin="round"/>
<path d="M490.914 273.242H440.915" stroke="black" stroke-width="4" stroke-linecap="round" stroke-linejoin="round"/>
<path d="M132.838 277.605C132.872 270.746 133.336 263.895 134.229 257.094L295.71 277.588L184.389 397.323C169.452 383.344 157.273 366.684 148.486 348.21" stroke="black" stroke-width="4" stroke-miterlimit="10" stroke-linecap="square"/>
<path d="M132.838 277.605C132.838 277.895 132.838 278.162 132.838 278.474C132.804 302.593 138.15 326.417 148.486 348.21" stroke="black" stroke-width="4" stroke-miterlimit="10" stroke-linecap="round"/>
<path d="M242.056 270.8C241.995 272.92 241.956 275.04 241.956 277.171V277.605" stroke="black" stroke-width="4" stroke-miterlimit="10" stroke-linecap="round"/>
<path d="M241.973 277.605C242.1 294.927 244.063 312.187 247.827 329.095" stroke="black" stroke-width="4" stroke-miterlimit="10" stroke-linecap="round"/>
<path d="M148.486 348.209C159.727 345.839 176.616 342.6 197.199 339.656" stroke="black" stroke-width="4" stroke-miterlimit="10" stroke-linecap="round"/>
<path d="M197.193 339.657C210.938 337.693 226.336 335.857 242.796 334.493" stroke="black" stroke-width="4" stroke-miterlimit="10" stroke-linecap="round"/>
<path d="M212.852 366.718C206.868 358.164 201.629 349.112 197.193 339.662" stroke="black" stroke-width="4" stroke-miterlimit="10" stroke-linecap="round"/>
<path d="M183.06 277.605C183.06 300.421 188.591 321.188 197.194 339.657" stroke="black" stroke-width="4" stroke-miterlimit="10" stroke-linecap="round"/>
<path d="M183.06 277.605C183.06 272.738 183.245 267.995 183.616 263.376" stroke="black" stroke-width="4" stroke-miterlimit="10" stroke-linecap="round"/>
<path d="M241.956 277.605H295.633" stroke="black" stroke-width="4" stroke-miterlimit="10" stroke-linecap="round"/>
<path d="M183.06 277.605H241.956" stroke="black" stroke-width="4" stroke-miterlimit="10" stroke-linecap="round"/>
<path d="M132.838 277.605H183.059" stroke="black" stroke-width="4" stroke-miterlimit="10" stroke-linecap="round"/>
<path d="M222.201 418.765C215.403 414.096 208.966 408.921 202.947 403.284L314.196 283.565L314.268 447.233" stroke="black" stroke-width="4" stroke-miterlimit="10" stroke-linecap="square"/>
<path d="M222.201 418.765C249.276 437.359 281.362 447.289 314.207 447.239" stroke="black" stroke-width="4" stroke-miterlimit="10" stroke-linecap="round"/>
<path d="M289.272 402.404C301.837 429.671 314.174 447.222 314.174 447.222" stroke="black" stroke-width="4" stroke-miterlimit="10" stroke-linecap="round"/>
<path d="M267.475 339.952C267.091 338.327 266.724 336.685 266.362 335.038" stroke="black" stroke-width="4" stroke-miterlimit="10" stroke-linecap="round"/>
<path d="M267.476 339.952C273.085 363.674 281.315 385.082 289.272 402.404" stroke="black" stroke-width="4" stroke-miterlimit="10" stroke-linecap="round"/>
<path d="M314.208 400.913C305.875 400.955 297.551 401.453 289.272 402.404" stroke="black" stroke-width="4" stroke-miterlimit="10" stroke-linecap="round"/>
<path d="M222.201 418.765C234.922 414.073 247.933 410.21 261.154 407.201" stroke="black" stroke-width="4" stroke-miterlimit="10" stroke-linecap="round"/>
<path d="M261.138 407.201C270.423 405.096 279.815 403.495 289.273 402.404" stroke="black" stroke-width="4" stroke-miterlimit="10" stroke-linecap="round"/>
<path d="M314.208 338.115C298.115 338.154 282.4 338.844 267.465 339.952" stroke="black" stroke-width="4" stroke-miterlimit="10" stroke-linecap="round"/>
<path d="M261.349 340.436C263.374 340.269 265.415 340.108 267.47 339.952" stroke="black" stroke-width="4" stroke-miterlimit="10" stroke-linecap="round"/>
<path d="M231.399 372.655C240.159 385.113 250.117 396.684 261.131 407.201" stroke="black" stroke-width="4" stroke-miterlimit="10" stroke-linecap="round"/>
<path d="M314.208 447.238C314.208 447.238 288.171 433.215 261.138 407.173" stroke="black" stroke-width="4" stroke-miterlimit="10" stroke-linecap="round"/>
<path d="M311.158 84.4834H312.199V246.471L266.19 91.0831C280.772 86.7986 295.883 84.5771 311.081 84.4834H311.158Z" stroke="black" stroke-width="4" stroke-miterlimit="10" stroke-linecap="square"/>
<path d="M140.689 170.006C142.258 167.246 143.905 164.536 145.63 161.876L282.471 249.38L121.007 228.847C123.707 208.146 130.391 188.165 140.689 170.006" stroke="black" stroke-width="4" stroke-miterlimit="10"/>
</g>
<defs>
<clipPath id="clip0">
<rect width="371.786" height="383.89" fill="white" transform="translate(120.106 64)"/>
</clipPath>
</defs>
</svg>
