<svg width="1939" height="384" viewBox="0 0 1939 384" fill="none" xmlns="http://www.w3.org/2000/svg">
<g clip-path="url(#clip0)">
<g clip-path="url(#clip1)">
<path d="M125.102 20.7397C105.969 33.2384 89.6664 49.6069 77.2456 68.7906" stroke="black" stroke-width="4" stroke-miterlimit="10" stroke-linecap="square"/>
<path d="M125.102 20.7395C138.368 12.0666 152.834 5.38648 168.039 0.912598" stroke="black" stroke-width="4" stroke-miterlimit="10" stroke-linecap="square"/>
<path d="M168.417 94.7051C165.994 104.171 164.086 113.762 162.702 123.435" stroke="black" stroke-width="4" stroke-linecap="round" stroke-linejoin="round"/>
<path d="M168.417 94.7052C172.226 79.9099 177.085 65.405 182.957 51.3008" stroke="black" stroke-width="4" stroke-linecap="round" stroke-linejoin="round"/>
<path d="M157.505 30.333C164.149 31.8967 170.983 33.2545 177.961 34.334" stroke="black" stroke-width="4" stroke-linecap="round" stroke-linejoin="round"/>
<path d="M125.102 20.7397C135.718 24.5315 146.536 27.7342 157.505 30.3332" stroke="black" stroke-width="4" stroke-linecap="round" stroke-linejoin="round"/>
<path d="M115.82 87.0645C131.495 90.0972 149.308 92.874 168.417 94.7047" stroke="black" stroke-width="4" stroke-linecap="round" stroke-linejoin="round"/>
<path d="M168.417 94.7051C177.476 95.5732 186.825 96.2298 196.374 96.5971" stroke="black" stroke-width="4" stroke-linecap="round" stroke-linejoin="round"/>
<path d="M101.074 84.0264C105.737 85.0503 110.652 86.0649 115.82 87.0702" stroke="black" stroke-width="4" stroke-linecap="round" stroke-linejoin="round"/>
<path d="M157.505 30.3331C162.438 25.8305 167.608 21.5935 172.991 17.6401" stroke="black" stroke-width="4" stroke-linecap="round" stroke-linejoin="round"/>
<path d="M113.672 92.0785C114.37 90.3794 115.086 88.71 115.82 87.0703" stroke="black" stroke-width="4" stroke-linecap="round" stroke-linejoin="round"/>
<path d="M157.505 30.333C142.03 44.4617 126.582 63.1312 115.842 87.0926" stroke="black" stroke-width="4" stroke-linecap="round" stroke-linejoin="round"/>
<path d="M177.938 34.334L182.958 51.2951" stroke="black" stroke-width="4" stroke-miterlimit="10" stroke-linecap="square"/>
<path d="M172.991 17.6401L177.938 34.3341" stroke="black" stroke-width="4" stroke-miterlimit="10" stroke-linecap="square"/>
<path d="M168.039 0.912598L172.992 17.64" stroke="black" stroke-width="4" stroke-miterlimit="10" stroke-linecap="square"/>
<path d="M182.957 51.2949L214.147 156.334L77.2622 68.7902" stroke="black" stroke-width="4" stroke-miterlimit="10" stroke-linecap="square"/>
<path d="M161.089 152.472C159.866 161.097 159.122 169.784 158.863 178.492" stroke="black" stroke-width="4" stroke-miterlimit="10" stroke-linecap="round"/>
<path d="M70.6963 105.929C78.4868 108.083 88.2194 110.565 99.4434 113.03" stroke="black" stroke-width="4" stroke-miterlimit="10" stroke-linecap="round"/>
<path d="M112.058 121.087C105.577 137.026 101.634 153.881 100.373 171.041" stroke="black" stroke-width="4" stroke-miterlimit="10" stroke-linecap="round"/>
<path d="M241.938 20.8511C232.741 33.8569 224.704 47.6453 217.92 62.0574" stroke="black" stroke-width="4" stroke-linecap="square" stroke-linejoin="round"/>
<path d="M217.921 62.0571C215.656 66.8706 213.363 72.0235 211.109 77.4657" stroke="black" stroke-width="4" stroke-miterlimit="10" stroke-linecap="round"/>
<path d="M241.765 63.3426C233.8 63.3347 225.84 62.9056 217.92 62.0571" stroke="black" stroke-width="4" stroke-miterlimit="10" stroke-linecap="round"/>
<path d="M206.084 60.5049C209.983 61.1096 213.929 61.6271 217.921 62.0574" stroke="black" stroke-width="4" stroke-miterlimit="10" stroke-linecap="round"/>
<path d="M241.765 123.101C235.959 123.101 230.209 122.99 224.515 122.768" stroke="black" stroke-width="4" stroke-miterlimit="10" stroke-linecap="round"/>
<path d="M241.726 20.6675C237.352 22.4649 220.53 29.5709 201.143 43.8054" stroke="black" stroke-width="4" stroke-linecap="round" stroke-linejoin="round"/>
<path d="M258.348 372.922C258.348 372.922 284.38 358.921 311.391 332.895" stroke="black" stroke-width="4" stroke-miterlimit="10" stroke-linecap="round"/>
<path d="M400.041 129.902C387.179 107.231 369.087 87.962 347.271 73.6987" stroke="black" stroke-width="4" stroke-linecap="square" stroke-linejoin="round"/>
<path d="M350.326 344.453C323.251 363.047 291.165 372.977 258.32 372.927V47.2998H259.433C290.642 47.4659 321.139 56.6404 347.26 73.7208" stroke="black" stroke-width="4" stroke-miterlimit="10" stroke-linecap="square"/>
<path d="M405.489 279.847C393.115 305.867 374.085 328.155 350.326 344.453" stroke="black" stroke-width="4" stroke-linecap="square" stroke-linejoin="round"/>
<path d="M421.137 209.232C421.033 181.412 413.768 154.088 400.041 129.891" stroke="black" stroke-width="4" stroke-linecap="square" stroke-linejoin="round"/>
<path d="M421.137 209.231C421.137 209.521 421.137 209.788 421.137 210.1C421.172 234.223 415.826 258.051 405.489 279.847" stroke="black" stroke-width="4" stroke-linecap="square" stroke-linejoin="round"/>
<path d="M312.013 209.232C312.013 209.087 312.013 208.948 312.013 208.803C312.013 187.39 308.797 166.706 303.95 147.675" stroke="black" stroke-width="4" stroke-linecap="square" stroke-linejoin="round"/>
<path d="M258.326 47.2998C267.615 60.4214 275.739 74.3305 282.604 88.8679" stroke="black" stroke-width="4" stroke-linecap="round" stroke-linejoin="round"/>
<path d="M283.233 328.098C270.674 355.365 258.337 372.916 258.337 372.916" stroke="black" stroke-width="4" stroke-linecap="round" stroke-linejoin="round"/>
<path d="M305.052 265.646C309.248 247.889 311.975 228.841 312.014 209.243" stroke="black" stroke-width="4" stroke-linecap="square" stroke-linejoin="round"/>
<path d="M303.956 147.686C298.708 127.453 291.559 107.761 282.604 88.873" stroke="black" stroke-width="4" stroke-linecap="square" stroke-linejoin="round"/>
<path d="M283.233 328.098C291.213 310.781 299.443 289.368 305.052 265.646" stroke="black" stroke-width="4" stroke-linecap="square" stroke-linejoin="round"/>
<path d="M282.605 88.873C274.691 89.7139 266.74 90.1392 258.782 90.1474H258.348" stroke="black" stroke-width="4" stroke-linecap="square" stroke-linejoin="round"/>
<path d="M314.89 83.314C304.259 85.8434 293.48 87.7019 282.615 88.8786" stroke="black" stroke-width="4" stroke-linecap="square" stroke-linejoin="round"/>
<path d="M347.26 73.7207C336.651 77.5117 325.841 80.7144 314.879 83.3142" stroke="black" stroke-width="4" stroke-linecap="round" stroke-linejoin="round"/>
<path d="M258.32 326.607C266.645 326.652 274.962 327.15 283.233 328.098" stroke="black" stroke-width="4" stroke-linecap="square" stroke-linejoin="round"/>
<path d="M350.326 344.453C337.605 339.761 324.594 335.898 311.374 332.889" stroke="black" stroke-width="4" stroke-linecap="round" stroke-linejoin="round"/>
<path d="M283.233 328.098C292.698 329.188 302.098 330.789 311.39 332.895" stroke="black" stroke-width="4" stroke-linecap="square" stroke-linejoin="round"/>
<path d="M356.553 140.052C340.872 143.079 323.065 145.856 303.956 147.686" stroke="black" stroke-width="4" stroke-linecap="square" stroke-linejoin="round"/>
<path d="M303.956 147.687C289.488 149.072 274.324 149.912 258.754 149.912H258.32" stroke="black" stroke-width="4" stroke-linecap="square" stroke-linejoin="round"/>
<path d="M400.041 129.901C389.001 132.951 374.121 136.657 356.553 140.051" stroke="black" stroke-width="4" stroke-linecap="round" stroke-linejoin="round"/>
<path d="M405.489 279.847C394.248 277.476 377.365 274.243 356.781 271.294" stroke="black" stroke-width="4" stroke-linecap="round" stroke-linejoin="round"/>
<path d="M258.32 263.815C274.413 263.849 290.127 264.539 305.063 265.646" stroke="black" stroke-width="4" stroke-linecap="square" stroke-linejoin="round"/>
<path d="M356.781 271.294C341.339 269.068 323.822 267.043 305.03 265.646" stroke="black" stroke-width="4" stroke-linecap="square" stroke-linejoin="round"/>
<path d="M356.781 271.294C345.223 296.101 328.118 316.796 311.39 332.895" stroke="black" stroke-width="4" stroke-linecap="square" stroke-linejoin="round"/>
<path d="M370.916 209.231C370.916 232.047 365.384 252.814 356.781 271.283" stroke="black" stroke-width="4" stroke-linecap="square" stroke-linejoin="round"/>
<path d="M314.89 83.3143C289.944 60.5493 263.84 49.5535 258.331 47.2998" stroke="black" stroke-width="4" stroke-linecap="round" stroke-linejoin="round"/>
<path d="M370.916 209.232C370.916 182.427 365.29 159.495 356.553 140.041" stroke="black" stroke-width="4" stroke-linecap="square" stroke-linejoin="round"/>
<path d="M314.891 83.314C330.366 97.4482 345.813 116.118 356.553 140.074" stroke="black" stroke-width="4" stroke-linecap="square" stroke-linejoin="round"/>
<path d="M312.013 209.243H258.32" stroke="black" stroke-width="4" stroke-linecap="square" stroke-linejoin="round"/>
<path d="M312.014 209.243H370.916" stroke="black" stroke-width="4" stroke-linecap="square" stroke-linejoin="round"/>
<path d="M420.914 209.243H370.916" stroke="black" stroke-width="4" stroke-linecap="round" stroke-linejoin="round"/>
<path d="M62.8389 213.605C62.8728 206.746 63.3374 199.895 64.23 193.094L225.711 213.588L114.39 333.323C99.4531 319.344 87.2743 302.684 78.4867 284.21" stroke="black" stroke-width="4" stroke-miterlimit="10" stroke-linecap="square"/>
<path d="M62.839 213.605C62.839 213.894 62.839 214.161 62.839 214.473C62.805 238.593 68.1507 262.417 78.4869 284.209" stroke="black" stroke-width="4" stroke-miterlimit="10" stroke-linecap="round"/>
<path d="M172.057 206.8C171.995 208.92 171.957 211.04 171.957 213.171V213.605" stroke="black" stroke-width="4" stroke-miterlimit="10" stroke-linecap="round"/>
<path d="M171.973 213.605C172.101 230.927 174.063 248.186 177.827 265.095" stroke="black" stroke-width="4" stroke-miterlimit="10" stroke-linecap="round"/>
<path d="M78.4868 284.21C89.7274 281.839 106.616 278.6 127.2 275.657" stroke="black" stroke-width="4" stroke-miterlimit="10" stroke-linecap="round"/>
<path d="M127.194 275.657C140.939 273.692 156.336 271.856 172.797 270.493" stroke="black" stroke-width="4" stroke-miterlimit="10" stroke-linecap="round"/>
<path d="M142.853 302.718C136.869 294.164 131.63 285.113 127.194 275.663" stroke="black" stroke-width="4" stroke-miterlimit="10" stroke-linecap="round"/>
<path d="M113.06 213.605C113.06 236.42 118.591 257.187 127.194 275.657" stroke="black" stroke-width="4" stroke-miterlimit="10" stroke-linecap="round"/>
<path d="M113.06 213.605C113.06 208.738 113.246 203.995 113.617 199.376" stroke="black" stroke-width="4" stroke-miterlimit="10" stroke-linecap="round"/>
<path d="M171.957 213.605H225.633" stroke="black" stroke-width="4" stroke-miterlimit="10" stroke-linecap="round"/>
<path d="M113.06 213.605H171.956" stroke="black" stroke-width="4" stroke-miterlimit="10" stroke-linecap="round"/>
<path d="M62.8389 213.605H113.06" stroke="black" stroke-width="4" stroke-miterlimit="10" stroke-linecap="round"/>
<path d="M152.202 354.764C145.404 350.096 138.967 344.921 132.948 339.283L244.197 219.565L244.269 383.233" stroke="black" stroke-width="4" stroke-miterlimit="10" stroke-linecap="square"/>
<path d="M152.202 354.764C179.277 373.358 211.363 383.288 244.208 383.239" stroke="black" stroke-width="4" stroke-miterlimit="10" stroke-linecap="round"/>
<path d="M219.273 338.404C231.838 365.671 244.175 383.222 244.175 383.222" stroke="black" stroke-width="4" stroke-miterlimit="10" stroke-linecap="round"/>
<path d="M197.476 275.952C197.092 274.327 196.725 272.685 196.363 271.038" stroke="black" stroke-width="4" stroke-miterlimit="10" stroke-linecap="round"/>
<path d="M197.476 275.952C203.085 299.674 211.315 321.081 219.273 338.404" stroke="black" stroke-width="4" stroke-miterlimit="10" stroke-linecap="round"/>
<path d="M244.208 336.913C235.875 336.954 227.551 337.452 219.273 338.404" stroke="black" stroke-width="4" stroke-miterlimit="10" stroke-linecap="round"/>
<path d="M152.202 354.764C164.923 350.072 177.934 346.21 191.155 343.201" stroke="black" stroke-width="4" stroke-miterlimit="10" stroke-linecap="round"/>
<path d="M191.138 343.201C200.423 341.096 209.815 339.495 219.273 338.404" stroke="black" stroke-width="4" stroke-miterlimit="10" stroke-linecap="round"/>
<path d="M244.208 274.115C228.115 274.154 212.4 274.844 197.465 275.952" stroke="black" stroke-width="4" stroke-miterlimit="10" stroke-linecap="round"/>
<path d="M191.349 276.436C193.375 276.269 195.415 276.107 197.47 275.952" stroke="black" stroke-width="4" stroke-miterlimit="10" stroke-linecap="round"/>
<path d="M161.4 308.655C170.159 321.113 180.117 332.684 191.132 343.201" stroke="black" stroke-width="4" stroke-miterlimit="10" stroke-linecap="round"/>
<path d="M244.208 383.238C244.208 383.238 218.171 369.215 191.138 343.173" stroke="black" stroke-width="4" stroke-miterlimit="10" stroke-linecap="round"/>
<path d="M241.158 20.4834H242.199V182.471L196.19 27.0831C210.772 22.7986 225.883 20.5771 241.081 20.4834H241.158Z" stroke="black" stroke-width="4" stroke-miterlimit="10" stroke-linecap="square"/>
<path d="M70.6896 106.006C72.2588 103.246 73.9059 100.536 75.631 97.876L212.472 185.38L51.0073 164.847C53.7072 144.146 60.391 124.165 70.6896 106.006" stroke="black" stroke-width="4" stroke-miterlimit="10"/>
</g>
<path d="M479.978 215.257V280.945H486.234V215.257H479.978ZM497.796 233.473V280.945H503.592V253.253C503.653 250.922 504.021 248.775 504.696 246.813C505.432 244.789 506.413 243.071 507.64 241.661C508.928 240.189 510.461 239.054 512.24 238.257C514.08 237.398 516.165 236.969 518.496 236.969C520.827 236.969 522.759 237.337 524.292 238.073C525.887 238.809 527.144 239.821 528.064 241.109C528.984 242.397 529.628 243.93 529.996 245.709C530.364 247.426 530.548 249.297 530.548 251.321V280.945H536.344V250.401C536.344 247.579 536.068 245.034 535.516 242.765C534.964 240.495 534.013 238.594 532.664 237.061C531.315 235.466 529.505 234.239 527.236 233.381C525.028 232.522 522.268 232.093 518.956 232.093C515.583 232.093 512.485 232.982 509.664 234.761C506.843 236.478 504.88 238.778 503.776 241.661H503.592V233.473H497.796ZM541.046 233.473L559.354 280.945H565.518L583.274 233.473H577.294L562.574 275.149H562.39L547.486 233.473H541.046ZM622.18 253.897H591.452C591.697 251.75 592.188 249.665 592.924 247.641C593.721 245.555 594.764 243.746 596.052 242.213C597.34 240.618 598.904 239.361 600.744 238.441C602.584 237.459 604.7 236.969 607.092 236.969C609.423 236.969 611.508 237.459 613.348 238.441C615.188 239.361 616.752 240.618 618.04 242.213C619.328 243.746 620.309 245.525 620.984 247.549C621.72 249.573 622.119 251.689 622.18 253.897ZM591.452 258.773H627.976C628.099 255.461 627.792 252.21 627.056 249.021C626.32 245.77 625.093 242.918 623.376 240.465C621.72 237.95 619.543 235.926 616.844 234.393C614.145 232.859 610.895 232.093 607.092 232.093C603.351 232.093 600.1 232.829 597.34 234.301C594.641 235.711 592.433 237.613 590.716 240.005C588.999 242.335 587.711 245.003 586.852 248.009C586.055 251.014 585.656 254.081 585.656 257.209C585.656 260.582 586.055 263.802 586.852 266.869C587.711 269.874 588.999 272.542 590.716 274.873C592.433 277.142 594.641 278.951 597.34 280.301C600.1 281.589 603.351 282.233 607.092 282.233C613.103 282.233 617.733 280.761 620.984 277.817C624.296 274.873 626.565 270.702 627.792 265.305H621.996C621.076 268.985 619.42 271.929 617.028 274.137C614.636 276.345 611.324 277.449 607.092 277.449C604.332 277.449 601.971 276.866 600.008 275.701C598.045 274.535 596.42 273.063 595.132 271.285C593.844 269.506 592.893 267.513 592.28 265.305C591.728 263.035 591.452 260.858 591.452 258.773ZM663.263 247.365H669.059C668.936 244.789 668.415 242.55 667.495 240.649C666.575 238.747 665.318 237.153 663.723 235.865C662.19 234.577 660.38 233.626 658.295 233.013C656.271 232.399 654.063 232.093 651.671 232.093C649.586 232.093 647.47 232.338 645.323 232.829C643.238 233.319 641.336 234.086 639.619 235.129C637.902 236.171 636.491 237.551 635.387 239.269C634.344 240.986 633.823 243.041 633.823 245.433C633.823 247.457 634.16 249.174 634.835 250.585C635.51 251.934 636.43 253.099 637.595 254.081C638.822 255.001 640.232 255.798 641.827 256.473C643.422 257.086 645.17 257.638 647.071 258.129L654.523 259.785C655.811 260.091 657.068 260.459 658.295 260.889C659.583 261.318 660.718 261.87 661.699 262.545C662.68 263.158 663.447 263.955 663.999 264.937C664.612 265.857 664.919 267.022 664.919 268.433C664.919 270.089 664.49 271.499 663.631 272.665C662.834 273.769 661.791 274.689 660.503 275.425C659.215 276.161 657.804 276.682 656.271 276.989C654.799 277.295 653.358 277.449 651.947 277.449C648.083 277.449 644.832 276.467 642.195 274.505C639.619 272.481 638.208 269.506 637.963 265.581H632.167C632.658 271.407 634.62 275.639 638.055 278.277C641.551 280.914 646.09 282.233 651.671 282.233C653.879 282.233 656.118 281.987 658.387 281.497C660.656 281.006 662.68 280.209 664.459 279.105C666.299 277.939 667.802 276.467 668.967 274.689C670.132 272.849 670.715 270.641 670.715 268.065C670.715 265.979 670.316 264.17 669.519 262.637C668.722 261.103 667.679 259.815 666.391 258.773C665.164 257.73 663.723 256.902 662.067 256.289C660.472 255.614 658.847 255.154 657.191 254.909L649.463 253.161C648.482 252.915 647.408 252.609 646.243 252.241C645.078 251.811 644.004 251.29 643.023 250.677C642.042 250.063 641.214 249.327 640.539 248.469C639.926 247.549 639.619 246.445 639.619 245.157C639.619 243.623 639.956 242.335 640.631 241.293C641.306 240.25 642.195 239.422 643.299 238.809C644.403 238.134 645.599 237.674 646.887 237.429C648.236 237.122 649.555 236.969 650.843 236.969C652.499 236.969 654.063 237.183 655.535 237.613C657.007 237.981 658.295 238.594 659.399 239.453C660.564 240.311 661.484 241.415 662.159 242.765C662.834 244.053 663.202 245.586 663.263 247.365ZM687.408 233.473V219.213H681.612V233.473H673.332V238.349H681.612V270.825C681.551 274.873 682.287 277.663 683.82 279.197C685.353 280.669 688.052 281.405 691.916 281.405C692.775 281.405 693.633 281.374 694.492 281.313C695.351 281.251 696.209 281.221 697.068 281.221V276.345C695.412 276.529 693.756 276.621 692.1 276.621C690.015 276.498 688.696 275.915 688.144 274.873C687.653 273.769 687.408 272.266 687.408 270.365V238.349H697.068V233.473H687.408ZM704.603 215.257V224.549H710.399V215.257H704.603ZM704.603 233.473V280.945H710.399V233.473H704.603ZM720.479 233.473V280.945H726.275V253.253C726.337 250.922 726.705 248.775 727.379 246.813C728.115 244.789 729.097 243.071 730.323 241.661C731.611 240.189 733.145 239.054 734.923 238.257C736.763 237.398 738.849 236.969 741.179 236.969C743.51 236.969 745.442 237.337 746.975 238.073C748.57 238.809 749.827 239.821 750.747 241.109C751.667 242.397 752.311 243.93 752.679 245.709C753.047 247.426 753.231 249.297 753.231 251.321V280.945H759.027V250.401C759.027 247.579 758.751 245.034 758.199 242.765C757.647 240.495 756.697 238.594 755.347 237.061C753.998 235.466 752.189 234.239 749.919 233.381C747.711 232.522 744.951 232.093 741.639 232.093C738.266 232.093 735.169 232.982 732.347 234.761C729.526 236.478 727.563 238.778 726.459 241.661H726.275V233.473H720.479ZM809.177 277.081V233.473H803.381V241.661H803.197C802.645 240.373 801.848 239.146 800.805 237.981C799.824 236.815 798.689 235.803 797.401 234.945C796.113 234.025 794.672 233.319 793.077 232.829C791.544 232.338 789.888 232.093 788.109 232.093C784.675 232.093 781.608 232.737 778.909 234.025C776.272 235.251 774.033 236.969 772.193 239.177C770.415 241.323 769.035 243.869 768.053 246.813C767.133 249.695 766.673 252.762 766.673 256.013C766.673 259.386 767.072 262.575 767.869 265.581C768.667 268.525 769.924 271.101 771.641 273.309C773.42 275.517 775.659 277.265 778.357 278.553C781.056 279.779 784.307 280.393 788.109 280.393C791.605 280.393 794.641 279.503 797.217 277.725C799.855 275.946 801.848 273.585 803.197 270.641H803.381V277.081C803.381 282.846 802.185 287.262 799.793 290.329C797.401 293.395 793.507 294.929 788.109 294.929C786.515 294.929 784.951 294.745 783.417 294.377C781.884 294.07 780.473 293.549 779.185 292.813C777.959 292.077 776.885 291.095 775.965 289.869C775.107 288.703 774.524 287.231 774.217 285.453H768.421C768.605 287.967 769.28 290.114 770.445 291.893C771.672 293.733 773.175 295.235 774.953 296.401C776.793 297.566 778.848 298.425 781.117 298.977C783.387 299.529 785.717 299.805 788.109 299.805C791.973 299.805 795.224 299.283 797.861 298.241C800.56 297.198 802.737 295.695 804.393 293.733C806.049 291.77 807.245 289.378 807.981 286.557C808.779 283.735 809.177 280.577 809.177 277.081ZM788.109 275.517C785.411 275.517 783.08 274.995 781.117 273.953C779.155 272.849 777.529 271.438 776.241 269.721C774.953 267.942 774.003 265.918 773.389 263.649C772.776 261.379 772.469 259.049 772.469 256.657C772.469 254.203 772.745 251.811 773.297 249.481C773.911 247.089 774.861 244.973 776.149 243.133C777.437 241.293 779.063 239.821 781.025 238.717C782.988 237.551 785.349 236.969 788.109 236.969C790.869 236.969 793.2 237.551 795.101 238.717C797.064 239.882 798.659 241.415 799.885 243.317C801.112 245.218 802.001 247.334 802.553 249.665C803.105 251.995 803.381 254.326 803.381 256.657C803.381 259.049 803.044 261.379 802.369 263.649C801.756 265.918 800.805 267.942 799.517 269.721C798.229 271.438 796.635 272.849 794.733 273.953C792.832 274.995 790.624 275.517 788.109 275.517ZM844.044 215.257V224.549H849.84V215.257H844.044ZM844.044 233.473V280.945H849.84V233.473H844.044ZM859.92 233.473V280.945H865.716V253.253C865.778 250.922 866.146 248.775 866.82 246.813C867.556 244.789 868.538 243.071 869.764 241.661C871.052 240.189 872.586 239.054 874.364 238.257C876.204 237.398 878.29 236.969 880.62 236.969C882.951 236.969 884.883 237.337 886.416 238.073C888.011 238.809 889.268 239.821 890.188 241.109C891.108 242.397 891.752 243.93 892.12 245.709C892.488 247.426 892.672 249.297 892.672 251.321V280.945H898.468V250.401C898.468 247.579 898.192 245.034 897.64 242.765C897.088 240.495 896.138 238.594 894.788 237.061C893.439 235.466 891.63 234.239 889.36 233.381C887.152 232.522 884.392 232.093 881.08 232.093C877.707 232.093 874.61 232.982 871.788 234.761C868.967 236.478 867.004 238.778 865.9 241.661H865.716V233.473H859.92ZM940.552 247.457V220.593H962.08C966.435 220.593 969.961 221.697 972.66 223.905C975.359 226.113 976.708 229.486 976.708 234.025C976.708 238.563 975.359 241.937 972.66 244.145C969.961 246.353 966.435 247.457 962.08 247.457H940.552ZM934.296 215.257V280.945H940.552V252.793H963.46C966.404 252.793 969.072 252.394 971.464 251.597C973.856 250.738 975.911 249.511 977.628 247.917C979.345 246.261 980.664 244.267 981.584 241.937C982.504 239.606 982.964 236.969 982.964 234.025C982.964 231.081 982.504 228.443 981.584 226.113C980.664 223.782 979.345 221.819 977.628 220.225C975.911 218.569 973.856 217.342 971.464 216.545C969.072 215.686 966.404 215.257 963.46 215.257H934.296ZM990.313 215.257V280.945H996.109V215.257H990.313ZM1005.73 248.009H1011.53C1011.65 244.145 1012.87 241.354 1015.21 239.637C1017.54 237.858 1020.54 236.969 1024.22 236.969C1025.94 236.969 1027.53 237.122 1029.01 237.429C1030.54 237.674 1031.86 238.165 1032.96 238.901C1034.13 239.637 1035.02 240.649 1035.63 241.937C1036.3 243.163 1036.64 244.758 1036.64 246.721C1036.64 248.009 1036.46 249.051 1036.09 249.849C1035.78 250.646 1035.32 251.29 1034.71 251.781C1034.1 252.21 1033.33 252.517 1032.41 252.701C1031.49 252.885 1030.42 253.038 1029.19 253.161C1026.06 253.529 1022.96 253.927 1019.9 254.357C1016.89 254.725 1014.16 255.399 1011.71 256.381C1009.32 257.362 1007.39 258.803 1005.91 260.705C1004.44 262.545 1003.71 265.121 1003.71 268.433C1003.71 270.825 1004.1 272.91 1004.9 274.689C1005.76 276.406 1006.89 277.847 1008.31 279.013C1009.78 280.117 1011.46 280.914 1013.37 281.405C1015.33 281.957 1017.41 282.233 1019.62 282.233C1021.95 282.233 1023.95 282.018 1025.6 281.589C1027.32 281.159 1028.82 280.546 1030.11 279.749C1031.46 278.951 1032.65 277.97 1033.7 276.805C1034.8 275.578 1035.87 274.198 1036.92 272.665H1037.1C1037.1 273.891 1037.16 275.026 1037.29 276.069C1037.47 277.05 1037.81 277.909 1038.3 278.645C1038.79 279.381 1039.46 279.963 1040.32 280.393C1041.24 280.761 1042.44 280.945 1043.91 280.945C1044.71 280.945 1045.35 280.914 1045.84 280.853C1046.39 280.791 1047.01 280.699 1047.68 280.577V275.701C1047.13 275.946 1046.52 276.069 1045.84 276.069C1043.57 276.069 1042.44 274.903 1042.44 272.573V247.365C1042.44 244.175 1041.92 241.599 1040.87 239.637C1039.83 237.613 1038.48 236.049 1036.83 234.945C1035.17 233.841 1033.3 233.105 1031.21 232.737C1029.13 232.307 1027.04 232.093 1024.96 232.093C1022.2 232.093 1019.68 232.399 1017.41 233.013C1015.14 233.626 1013.15 234.577 1011.43 235.865C1009.78 237.153 1008.46 238.809 1007.48 240.833C1006.5 242.857 1005.91 245.249 1005.73 248.009ZM1036.64 255.001V262.545C1036.64 264.875 1036.18 266.961 1035.26 268.801C1034.4 270.641 1033.21 272.205 1031.67 273.493C1030.2 274.781 1028.45 275.762 1026.43 276.437C1024.41 277.111 1022.29 277.449 1020.08 277.449C1018.73 277.449 1017.41 277.234 1016.13 276.805C1014.84 276.375 1013.7 275.762 1012.72 274.965C1011.74 274.106 1010.94 273.125 1010.33 272.021C1009.78 270.855 1009.5 269.537 1009.5 268.065C1009.5 265.734 1010.18 263.955 1011.53 262.729C1012.94 261.441 1014.71 260.459 1016.86 259.785C1019.01 259.11 1021.37 258.619 1023.95 258.313C1026.58 257.945 1029.13 257.546 1031.58 257.117C1032.38 256.994 1033.3 256.779 1034.34 256.473C1035.38 256.166 1036.09 255.675 1036.46 255.001H1036.64ZM1052.98 233.473V280.945H1058.77V253.253C1058.83 250.922 1059.2 248.775 1059.88 246.813C1060.61 244.789 1061.59 243.071 1062.82 241.661C1064.11 240.189 1065.64 239.054 1067.42 238.257C1069.26 237.398 1071.35 236.969 1073.68 236.969C1076.01 236.969 1077.94 237.337 1079.47 238.073C1081.07 238.809 1082.32 239.821 1083.24 241.109C1084.16 242.397 1084.81 243.93 1085.18 245.709C1085.54 247.426 1085.73 249.297 1085.73 251.321V280.945H1091.52V250.401C1091.52 247.579 1091.25 245.034 1090.7 242.765C1090.14 240.495 1089.19 238.594 1087.84 237.061C1086.5 235.466 1084.69 234.239 1082.42 233.381C1080.21 232.522 1077.45 232.093 1074.14 232.093C1070.76 232.093 1067.67 232.982 1064.84 234.761C1062.02 236.478 1060.06 238.778 1058.96 241.661H1058.77V233.473H1052.98ZM1135.69 253.897H1104.97C1105.21 251.75 1105.7 249.665 1106.44 247.641C1107.24 245.555 1108.28 243.746 1109.57 242.213C1110.85 240.618 1112.42 239.361 1114.26 238.441C1116.1 237.459 1118.21 236.969 1120.61 236.969C1122.94 236.969 1125.02 237.459 1126.86 238.441C1128.7 239.361 1130.27 240.618 1131.55 242.213C1132.84 243.746 1133.82 245.525 1134.5 247.549C1135.23 249.573 1135.63 251.689 1135.69 253.897ZM1104.97 258.773H1141.49C1141.61 255.461 1141.31 252.21 1140.57 249.021C1139.83 245.77 1138.61 242.918 1136.89 240.465C1135.23 237.95 1133.06 235.926 1130.36 234.393C1127.66 232.859 1124.41 232.093 1120.61 232.093C1116.87 232.093 1113.61 232.829 1110.85 234.301C1108.16 235.711 1105.95 237.613 1104.23 240.005C1102.51 242.335 1101.23 245.003 1100.37 248.009C1099.57 251.014 1099.17 254.081 1099.17 257.209C1099.17 260.582 1099.57 263.802 1100.37 266.869C1101.23 269.874 1102.51 272.542 1104.23 274.873C1105.95 277.142 1108.16 278.951 1110.85 280.301C1113.61 281.589 1116.87 282.233 1120.61 282.233C1126.62 282.233 1131.25 280.761 1134.5 277.817C1137.81 274.873 1140.08 270.702 1141.31 265.305H1135.51C1134.59 268.985 1132.93 271.929 1130.54 274.137C1128.15 276.345 1124.84 277.449 1120.61 277.449C1117.85 277.449 1115.49 276.866 1113.52 275.701C1111.56 274.535 1109.93 273.063 1108.65 271.285C1107.36 269.506 1106.41 267.513 1105.79 265.305C1105.24 263.035 1104.97 260.858 1104.97 258.773ZM1157.55 233.473V219.213H1151.75V233.473H1143.47V238.349H1151.75V270.825C1151.69 274.873 1152.43 277.663 1153.96 279.197C1155.49 280.669 1158.19 281.405 1162.06 281.405C1162.92 281.405 1163.77 281.374 1164.63 281.313C1165.49 281.251 1166.35 281.221 1167.21 281.221V276.345C1165.55 276.529 1163.9 276.621 1162.24 276.621C1160.16 276.498 1158.84 275.915 1158.29 274.873C1157.79 273.769 1157.55 272.266 1157.55 270.365V238.349H1167.21V233.473H1157.55ZM1174.1 248.009H1179.9C1180.02 244.145 1181.25 241.354 1183.58 239.637C1185.91 237.858 1188.91 236.969 1192.59 236.969C1194.31 236.969 1195.9 237.122 1197.38 237.429C1198.91 237.674 1200.23 238.165 1201.33 238.901C1202.5 239.637 1203.39 240.649 1204 241.937C1204.67 243.163 1205.01 244.758 1205.01 246.721C1205.01 248.009 1204.83 249.051 1204.46 249.849C1204.15 250.646 1203.69 251.29 1203.08 251.781C1202.47 252.21 1201.7 252.517 1200.78 252.701C1199.86 252.885 1198.79 253.038 1197.56 253.161C1194.43 253.529 1191.33 253.927 1188.27 254.357C1185.26 254.725 1182.53 255.399 1180.08 256.381C1177.69 257.362 1175.76 258.803 1174.28 260.705C1172.81 262.545 1172.08 265.121 1172.08 268.433C1172.08 270.825 1172.47 272.91 1173.27 274.689C1174.13 276.406 1175.27 277.847 1176.68 279.013C1178.15 280.117 1179.83 280.914 1181.74 281.405C1183.7 281.957 1185.78 282.233 1187.99 282.233C1190.32 282.233 1192.32 282.018 1193.97 281.589C1195.69 281.159 1197.19 280.546 1198.48 279.749C1199.83 278.951 1201.03 277.97 1202.07 276.805C1203.17 275.578 1204.25 274.198 1205.29 272.665H1205.47C1205.47 273.891 1205.53 275.026 1205.66 276.069C1205.84 277.05 1206.18 277.909 1206.67 278.645C1207.16 279.381 1207.83 279.963 1208.69 280.393C1209.61 280.761 1210.81 280.945 1212.28 280.945C1213.08 280.945 1213.72 280.914 1214.21 280.853C1214.76 280.791 1215.38 280.699 1216.05 280.577V275.701C1215.5 275.946 1214.89 276.069 1214.21 276.069C1211.94 276.069 1210.81 274.903 1210.81 272.573V247.365C1210.81 244.175 1210.29 241.599 1209.24 239.637C1208.2 237.613 1206.85 236.049 1205.2 234.945C1203.54 233.841 1201.67 233.105 1199.58 232.737C1197.5 232.307 1195.41 232.093 1193.33 232.093C1190.57 232.093 1188.05 232.399 1185.78 233.013C1183.51 233.626 1181.52 234.577 1179.8 235.865C1178.15 237.153 1176.83 238.809 1175.85 240.833C1174.87 242.857 1174.28 245.249 1174.1 248.009ZM1205.01 255.001V262.545C1205.01 264.875 1204.55 266.961 1203.63 268.801C1202.77 270.641 1201.58 272.205 1200.04 273.493C1198.57 274.781 1196.82 275.762 1194.8 276.437C1192.78 277.111 1190.66 277.449 1188.45 277.449C1187.1 277.449 1185.78 277.234 1184.5 276.805C1183.21 276.375 1182.07 275.762 1181.09 274.965C1180.11 274.106 1179.31 273.125 1178.7 272.021C1178.15 270.855 1177.87 269.537 1177.87 268.065C1177.87 265.734 1178.55 263.955 1179.9 262.729C1181.31 261.441 1183.09 260.459 1185.23 259.785C1187.38 259.11 1189.74 258.619 1192.32 258.313C1194.95 257.945 1197.5 257.546 1199.95 257.117C1200.75 256.994 1201.67 256.779 1202.71 256.473C1203.75 256.166 1204.46 255.675 1204.83 255.001H1205.01ZM1221.44 233.473V280.945H1227.24V255.645C1227.24 253.13 1227.66 250.83 1228.52 248.745C1229.38 246.598 1230.58 244.758 1232.11 243.225C1233.71 241.691 1235.58 240.526 1237.72 239.729C1239.87 238.87 1242.26 238.502 1244.9 238.625V232.829C1240.61 232.645 1236.9 233.595 1233.77 235.681C1230.7 237.766 1228.43 240.741 1226.96 244.605H1226.78V233.473H1221.44ZM1244.2 233.473L1263.15 280.761L1261.13 286.097C1260.64 287.201 1260.18 288.213 1259.75 289.133C1259.32 290.053 1258.8 290.819 1258.19 291.433C1257.57 292.107 1256.84 292.629 1255.98 292.997C1255.18 293.365 1254.14 293.549 1252.85 293.549C1252.18 293.549 1251.5 293.487 1250.83 293.365C1250.21 293.303 1249.57 293.211 1248.89 293.089V297.965C1249.39 298.149 1249.94 298.241 1250.55 298.241C1251.23 298.302 1252.15 298.363 1253.31 298.425C1255.15 298.425 1256.65 298.241 1257.82 297.873C1259.05 297.566 1260.09 297.014 1260.95 296.217C1261.87 295.481 1262.69 294.438 1263.43 293.089C1264.17 291.801 1264.96 290.145 1265.82 288.121L1286.43 233.473H1280.63L1266.01 273.953L1250.37 233.473H1244.2ZM1316.99 215.257V280.945H1323.25V249.113H1362.26V280.945H1368.51V215.257H1362.26V243.777H1323.25V215.257H1316.99ZM1413.88 253.897H1383.15C1383.4 251.75 1383.89 249.665 1384.62 247.641C1385.42 245.555 1386.46 243.746 1387.75 242.213C1389.04 240.618 1390.6 239.361 1392.44 238.441C1394.28 237.459 1396.4 236.969 1398.79 236.969C1401.12 236.969 1403.21 237.459 1405.05 238.441C1406.89 239.361 1408.45 240.618 1409.74 242.213C1411.03 243.746 1412.01 245.525 1412.68 247.549C1413.42 249.573 1413.82 251.689 1413.88 253.897ZM1383.15 258.773H1419.68C1419.8 255.461 1419.49 252.21 1418.76 249.021C1418.02 245.77 1416.79 242.918 1415.08 240.465C1413.42 237.95 1411.24 235.926 1408.54 234.393C1405.84 232.859 1402.59 232.093 1398.79 232.093C1395.05 232.093 1391.8 232.829 1389.04 234.301C1386.34 235.711 1384.13 237.613 1382.42 240.005C1380.7 242.335 1379.41 245.003 1378.55 248.009C1377.75 251.014 1377.36 254.081 1377.36 257.209C1377.36 260.582 1377.75 263.802 1378.55 266.869C1379.41 269.874 1380.7 272.542 1382.42 274.873C1384.13 277.142 1386.34 278.951 1389.04 280.301C1391.8 281.589 1395.05 282.233 1398.79 282.233C1404.8 282.233 1409.43 280.761 1412.68 277.817C1416 274.873 1418.26 270.702 1419.49 265.305H1413.7C1412.78 268.985 1411.12 271.929 1408.73 274.137C1406.34 276.345 1403.02 277.449 1398.79 277.449C1396.03 277.449 1393.67 276.866 1391.71 275.701C1389.74 274.535 1388.12 273.063 1386.83 271.285C1385.54 269.506 1384.59 267.513 1383.98 265.305C1383.43 263.035 1383.15 260.858 1383.15 258.773ZM1425.98 248.009H1431.78C1431.9 244.145 1433.13 241.354 1435.46 239.637C1437.79 237.858 1440.79 236.969 1444.47 236.969C1446.19 236.969 1447.79 237.122 1449.26 237.429C1450.79 237.674 1452.11 238.165 1453.21 238.901C1454.38 239.637 1455.27 240.649 1455.88 241.937C1456.56 243.163 1456.89 244.758 1456.89 246.721C1456.89 248.009 1456.71 249.051 1456.34 249.849C1456.04 250.646 1455.58 251.29 1454.96 251.781C1454.35 252.21 1453.58 252.517 1452.66 252.701C1451.74 252.885 1450.67 253.038 1449.44 253.161C1446.31 253.529 1443.22 253.927 1440.15 254.357C1437.15 254.725 1434.42 255.399 1431.96 256.381C1429.57 257.362 1427.64 258.803 1426.17 260.705C1424.69 262.545 1423.96 265.121 1423.96 268.433C1423.96 270.825 1424.36 272.91 1425.15 274.689C1426.01 276.406 1427.15 277.847 1428.56 279.013C1430.03 280.117 1431.72 280.914 1433.62 281.405C1435.58 281.957 1437.67 282.233 1439.87 282.233C1442.21 282.233 1444.2 282.018 1445.85 281.589C1447.57 281.159 1449.07 280.546 1450.36 279.749C1451.71 278.951 1452.91 277.97 1453.95 276.805C1455.05 275.578 1456.13 274.198 1457.17 272.665H1457.35C1457.35 273.891 1457.42 275.026 1457.54 276.069C1457.72 277.05 1458.06 277.909 1458.55 278.645C1459.04 279.381 1459.72 279.963 1460.57 280.393C1461.49 280.761 1462.69 280.945 1464.16 280.945C1464.96 280.945 1465.6 280.914 1466.09 280.853C1466.65 280.791 1467.26 280.699 1467.93 280.577V275.701C1467.38 275.946 1466.77 276.069 1466.09 276.069C1463.83 276.069 1462.69 274.903 1462.69 272.573V247.365C1462.69 244.175 1462.17 241.599 1461.13 239.637C1460.08 237.613 1458.73 236.049 1457.08 234.945C1455.42 233.841 1453.55 233.105 1451.47 232.737C1449.38 232.307 1447.3 232.093 1445.21 232.093C1442.45 232.093 1439.94 232.399 1437.67 233.013C1435.4 233.626 1433.4 234.577 1431.69 235.865C1430.03 237.153 1428.71 238.809 1427.73 240.833C1426.75 242.857 1426.17 245.249 1425.98 248.009ZM1456.89 255.001V262.545C1456.89 264.875 1456.43 266.961 1455.51 268.801C1454.66 270.641 1453.46 272.205 1451.93 273.493C1450.45 274.781 1448.71 275.762 1446.68 276.437C1444.66 277.111 1442.54 277.449 1440.33 277.449C1438.99 277.449 1437.67 277.234 1436.38 276.805C1435.09 276.375 1433.96 275.762 1432.97 274.965C1431.99 274.106 1431.2 273.125 1430.58 272.021C1430.03 270.855 1429.75 269.537 1429.75 268.065C1429.75 265.734 1430.43 263.955 1431.78 262.729C1433.19 261.441 1434.97 260.459 1437.11 259.785C1439.26 259.11 1441.62 258.619 1444.2 258.313C1446.84 257.945 1449.38 257.546 1451.83 257.117C1452.63 256.994 1453.55 256.779 1454.59 256.473C1455.64 256.166 1456.34 255.675 1456.71 255.001H1456.89ZM1473.41 215.257V280.945H1479.21V215.257H1473.41ZM1498.58 233.473V219.213H1492.79V233.473H1484.51V238.349H1492.79V270.825C1492.72 274.873 1493.46 277.663 1494.99 279.197C1496.53 280.669 1499.23 281.405 1503.09 281.405C1503.95 281.405 1504.81 281.374 1505.67 281.313C1506.52 281.251 1507.38 281.221 1508.24 281.221V276.345C1506.59 276.529 1504.93 276.621 1503.27 276.621C1501.19 276.498 1499.87 275.915 1499.32 274.873C1498.83 273.769 1498.58 272.266 1498.58 270.365V238.349H1508.24V233.473H1498.58ZM1515.59 215.257V280.945H1521.39V253.253C1521.45 250.922 1521.82 248.775 1522.49 246.813C1523.23 244.789 1524.21 243.071 1525.44 241.661C1526.72 240.189 1528.26 239.054 1530.04 238.257C1531.88 237.398 1533.96 236.969 1536.29 236.969C1538.62 236.969 1540.56 237.337 1542.09 238.073C1543.68 238.809 1544.94 239.821 1545.86 241.109C1546.78 242.397 1547.42 243.93 1547.79 245.709C1548.16 247.426 1548.34 249.297 1548.34 251.321V280.945H1554.14V250.401C1554.14 247.579 1553.86 245.034 1553.31 242.765C1552.76 240.495 1551.81 238.594 1550.46 237.061C1549.11 235.466 1547.3 234.239 1545.03 233.381C1542.82 232.522 1540.06 232.093 1536.75 232.093C1533.38 232.093 1530.28 232.982 1527.46 234.761C1524.64 236.478 1522.68 238.778 1521.57 241.661H1521.39V215.257H1515.59Z" fill="black"/>
<path d="M481.278 86.8408V183.945H554.99V165.993H502.63V142.193H549.686V125.601H502.63V104.793H553.902V86.8408H481.278ZM567.425 113.633V183.945H586.737V147.089C586.737 139.926 587.916 134.803 590.273 131.721C592.63 128.547 596.438 126.961 601.697 126.961C606.321 126.961 609.54 128.411 611.353 131.313C613.166 134.123 614.073 138.43 614.073 144.233V183.945H633.385V140.697C633.385 136.345 632.977 132.401 632.161 128.865C631.436 125.238 630.121 122.201 628.217 119.753C626.313 117.214 623.684 115.265 620.329 113.905C617.065 112.454 612.849 111.729 607.681 111.729C603.601 111.729 599.612 112.681 595.713 114.585C591.814 116.398 588.641 119.345 586.193 123.425H585.785V113.633H567.425ZM697.954 148.585C697.954 151.486 697.682 154.297 697.138 157.017C696.594 159.737 695.688 162.185 694.418 164.361C693.149 166.446 691.426 168.123 689.25 169.393C687.165 170.662 684.536 171.297 681.362 171.297C678.37 171.297 675.786 170.662 673.61 169.393C671.525 168.033 669.757 166.31 668.306 164.225C666.946 162.049 665.949 159.601 665.314 156.881C664.68 154.161 664.362 151.441 664.362 148.721C664.362 145.819 664.634 143.054 665.178 140.425C665.813 137.705 666.765 135.302 668.034 133.217C669.394 131.131 671.162 129.454 673.338 128.185C675.514 126.915 678.189 126.281 681.362 126.281C684.536 126.281 687.165 126.915 689.25 128.185C691.336 129.454 693.013 131.131 694.282 133.217C695.642 135.211 696.594 137.569 697.138 140.289C697.682 142.918 697.954 145.683 697.954 148.585ZM698.226 174.969V183.945H716.586V86.8408H697.274V122.201H697.002C694.826 118.755 691.834 116.171 688.026 114.449C684.309 112.635 680.365 111.729 676.194 111.729C671.026 111.729 666.493 112.771 662.594 114.857C658.696 116.851 655.432 119.526 652.802 122.881C650.264 126.235 648.314 130.134 646.954 134.577C645.685 138.929 645.05 143.462 645.05 148.177C645.05 153.073 645.685 157.787 646.954 162.321C648.314 166.854 650.264 170.889 652.802 174.425C655.432 177.87 658.741 180.635 662.73 182.721C666.72 184.715 671.344 185.713 676.602 185.713C681.226 185.713 685.352 184.897 688.978 183.265C692.696 181.542 695.688 178.777 697.954 174.969H698.226ZM754.575 132.537V103.433H771.167C773.615 103.433 775.972 103.614 778.239 103.977C780.506 104.339 782.5 105.065 784.223 106.153C785.946 107.15 787.306 108.601 788.303 110.505C789.391 112.409 789.935 114.902 789.935 117.985C789.935 121.067 789.391 123.561 788.303 125.465C787.306 127.369 785.946 128.865 784.223 129.953C782.5 130.95 780.506 131.63 778.239 131.993C775.972 132.355 773.615 132.537 771.167 132.537H754.575ZM733.223 86.8408V183.945H754.575V149.129H777.015C783.09 149.129 788.258 148.267 792.519 146.545C796.78 144.731 800.226 142.374 802.855 139.473C805.575 136.571 807.524 133.262 808.703 129.545C809.972 125.737 810.607 121.883 810.607 117.985C810.607 113.995 809.972 110.142 808.703 106.425C807.524 102.707 805.575 99.3982 802.855 96.4968C800.226 93.5955 796.78 91.2835 792.519 89.5608C788.258 87.7475 783.09 86.8408 777.015 86.8408H733.223ZM821.078 135.257C821.35 130.723 822.483 126.961 824.478 123.969C826.472 120.977 829.011 118.574 832.094 116.761C835.176 114.947 838.622 113.678 842.43 112.953C846.328 112.137 850.227 111.729 854.126 111.729C857.662 111.729 861.243 112.001 864.87 112.545C868.496 112.998 871.806 113.95 874.798 115.401C877.79 116.851 880.238 118.891 882.142 121.521C884.046 124.059 884.998 127.459 884.998 131.721V168.305C884.998 171.478 885.179 174.515 885.542 177.417C885.904 180.318 886.539 182.494 887.446 183.945H867.862C867.499 182.857 867.182 181.769 866.91 180.681C866.728 179.502 866.592 178.323 866.502 177.145C863.419 180.318 859.792 182.539 855.622 183.809C851.451 185.078 847.19 185.713 842.838 185.713C839.483 185.713 836.355 185.305 833.454 184.489C830.552 183.673 828.014 182.403 825.838 180.681C823.662 178.958 821.939 176.782 820.67 174.153C819.491 171.523 818.902 168.395 818.902 164.769C818.902 160.779 819.582 157.515 820.942 154.977C822.392 152.347 824.206 150.262 826.382 148.721C828.648 147.179 831.187 146.046 833.998 145.321C836.899 144.505 839.8 143.87 842.702 143.417C845.603 142.963 848.459 142.601 851.27 142.329C854.08 142.057 856.574 141.649 858.75 141.105C860.926 140.561 862.648 139.79 863.918 138.793C865.187 137.705 865.776 136.163 865.686 134.169C865.686 132.083 865.323 130.451 864.598 129.273C863.963 128.003 863.056 127.051 861.878 126.417C860.79 125.691 859.475 125.238 857.934 125.057C856.483 124.785 854.896 124.649 853.174 124.649C849.366 124.649 846.374 125.465 844.198 127.097C842.022 128.729 840.752 131.449 840.39 135.257H821.078ZM865.686 149.537C864.87 150.262 863.827 150.851 862.558 151.305C861.379 151.667 860.064 151.985 858.614 152.257C857.254 152.529 855.803 152.755 854.262 152.937C852.72 153.118 851.179 153.345 849.638 153.617C848.187 153.889 846.736 154.251 845.286 154.705C843.926 155.158 842.702 155.793 841.614 156.609C840.616 157.334 839.8 158.286 839.166 159.465C838.531 160.643 838.214 162.139 838.214 163.953C838.214 165.675 838.531 167.126 839.166 168.305C839.8 169.483 840.662 170.435 841.75 171.161C842.838 171.795 844.107 172.249 845.558 172.521C847.008 172.793 848.504 172.929 850.046 172.929C853.854 172.929 856.8 172.294 858.886 171.025C860.971 169.755 862.512 168.259 863.51 166.537C864.507 164.723 865.096 162.91 865.278 161.097C865.55 159.283 865.686 157.833 865.686 156.745V149.537ZM899.988 113.633V183.945H919.3V147.089C919.3 139.926 920.478 134.803 922.836 131.721C925.193 128.547 929.001 126.961 934.26 126.961C938.884 126.961 942.102 128.411 943.916 131.313C945.729 134.123 946.636 138.43 946.636 144.233V183.945H965.948V140.697C965.948 136.345 965.54 132.401 964.724 128.865C963.998 125.238 962.684 122.201 960.78 119.753C958.876 117.214 956.246 115.265 952.892 113.905C949.628 112.454 945.412 111.729 940.244 111.729C936.164 111.729 932.174 112.681 928.276 114.585C924.377 116.398 921.204 119.345 918.756 123.425H918.348V113.633H899.988ZM1030.52 148.585C1030.52 151.486 1030.24 154.297 1029.7 157.017C1029.16 159.737 1028.25 162.185 1026.98 164.361C1025.71 166.446 1023.99 168.123 1021.81 169.393C1019.73 170.662 1017.1 171.297 1013.92 171.297C1010.93 171.297 1008.35 170.662 1006.17 169.393C1004.09 168.033 1002.32 166.31 1000.87 164.225C999.509 162.049 998.511 159.601 997.877 156.881C997.242 154.161 996.925 151.441 996.925 148.721C996.925 145.819 997.197 143.054 997.741 140.425C998.375 137.705 999.327 135.302 1000.6 133.217C1001.96 131.131 1003.72 129.454 1005.9 128.185C1008.08 126.915 1010.75 126.281 1013.92 126.281C1017.1 126.281 1019.73 126.915 1021.81 128.185C1023.9 129.454 1025.58 131.131 1026.84 133.217C1028.2 135.211 1029.16 137.569 1029.7 140.289C1030.24 142.918 1030.52 145.683 1030.52 148.585ZM1030.79 174.969V183.945H1049.15V86.8408H1029.84V122.201H1029.56C1027.39 118.755 1024.4 116.171 1020.59 114.449C1016.87 112.635 1012.93 111.729 1008.76 111.729C1003.59 111.729 999.055 112.771 995.157 114.857C991.258 116.851 987.994 119.526 985.365 122.881C982.826 126.235 980.877 130.134 979.517 134.577C978.247 138.929 977.613 143.462 977.613 148.177C977.613 153.073 978.247 157.787 979.517 162.321C980.877 166.854 982.826 170.889 985.365 174.425C987.994 177.87 991.303 180.635 995.293 182.721C999.282 184.715 1003.91 185.713 1009.16 185.713C1013.79 185.713 1017.91 184.897 1021.54 183.265C1025.26 181.542 1028.25 178.777 1030.52 174.969H1030.79ZM1111.07 141.241H1079.66C1079.75 139.881 1080.02 138.339 1080.47 136.617C1081.02 134.894 1081.88 133.262 1083.06 131.721C1084.33 130.179 1085.96 128.91 1087.95 127.913C1090.04 126.825 1092.62 126.281 1095.71 126.281C1100.42 126.281 1103.91 127.55 1106.18 130.089C1108.53 132.627 1110.17 136.345 1111.07 141.241ZM1079.66 153.481H1130.39C1130.75 148.041 1130.29 142.827 1129.03 137.841C1127.76 132.854 1125.67 128.411 1122.77 124.513C1119.96 120.614 1116.33 117.531 1111.89 115.265C1107.45 112.907 1102.23 111.729 1096.25 111.729C1090.9 111.729 1086 112.681 1081.56 114.585C1077.21 116.489 1073.45 119.118 1070.27 122.473C1067.1 125.737 1064.65 129.635 1062.93 134.169C1061.21 138.702 1060.35 143.598 1060.35 148.857C1060.35 154.297 1061.16 159.283 1062.79 163.817C1064.52 168.35 1066.92 172.249 1070 175.513C1073.08 178.777 1076.85 181.315 1081.29 183.129C1085.73 184.851 1090.72 185.713 1096.25 185.713C1104.23 185.713 1111.03 183.899 1116.65 180.273C1122.27 176.646 1126.44 170.617 1129.16 162.185H1112.16C1111.53 164.361 1109.8 166.446 1106.99 168.441C1104.18 170.345 1100.83 171.297 1096.93 171.297C1091.49 171.297 1087.32 169.891 1084.42 167.081C1081.52 164.27 1079.93 159.737 1079.66 153.481ZM1142.38 113.633V183.945H1161.7V143.145C1161.7 139.699 1162.19 136.934 1163.19 134.849C1164.19 132.673 1165.37 131.041 1166.73 129.953C1168.18 128.774 1169.63 128.003 1171.08 127.641C1172.62 127.187 1173.84 126.961 1174.75 126.961C1177.83 126.961 1180.15 127.505 1181.69 128.593C1183.32 129.59 1184.45 130.95 1185.09 132.673C1185.81 134.395 1186.22 136.299 1186.31 138.385C1186.4 140.379 1186.45 142.419 1186.45 144.505V183.945H1205.76V144.777C1205.76 142.601 1205.9 140.47 1206.17 138.385C1206.53 136.209 1207.16 134.305 1208.07 132.673C1209.07 130.95 1210.38 129.59 1212.02 128.593C1213.74 127.505 1215.96 126.961 1218.68 126.961C1221.4 126.961 1223.53 127.414 1225.07 128.321C1226.7 129.227 1227.93 130.451 1228.74 131.993C1229.56 133.534 1230.06 135.347 1230.24 137.433C1230.42 139.518 1230.51 141.739 1230.51 144.097V183.945H1249.82V136.889C1249.82 132.355 1249.19 128.502 1247.92 125.329C1246.65 122.065 1244.88 119.435 1242.62 117.441C1240.35 115.446 1237.63 113.995 1234.46 113.089C1231.28 112.182 1227.84 111.729 1224.12 111.729C1219.22 111.729 1214.96 112.907 1211.34 115.265C1207.8 117.622 1204.99 120.342 1202.9 123.425C1201 119.073 1198.19 116.035 1194.47 114.313C1190.84 112.59 1186.81 111.729 1182.37 111.729C1177.74 111.729 1173.62 112.726 1169.99 114.721C1166.46 116.715 1163.42 119.526 1160.88 123.153H1160.61V113.633H1142.38ZM1284.95 102.753V86.8408H1265.63V102.753H1284.95ZM1265.63 113.633V183.945H1284.95V113.633H1265.63ZM1348.02 138.385H1366.93C1366.66 133.851 1365.57 129.953 1363.66 126.689C1361.76 123.334 1359.27 120.569 1356.18 118.393C1353.19 116.126 1349.75 114.449 1345.85 113.361C1342.04 112.273 1338.05 111.729 1333.88 111.729C1328.17 111.729 1323.09 112.681 1318.65 114.585C1314.2 116.489 1310.44 119.163 1307.36 122.609C1304.28 125.963 1301.92 129.998 1300.29 134.713C1298.75 139.337 1297.98 144.369 1297.98 149.809C1297.98 155.067 1298.84 159.918 1300.56 164.361C1302.28 168.713 1304.68 172.475 1307.77 175.649C1310.85 178.822 1314.57 181.315 1318.92 183.129C1323.36 184.851 1328.21 185.713 1333.47 185.713C1342.81 185.713 1350.47 183.265 1356.46 178.369C1362.44 173.473 1366.07 166.355 1367.34 157.017H1348.7C1348.07 161.369 1346.48 164.859 1343.94 167.489C1341.5 170.027 1337.96 171.297 1333.34 171.297C1330.34 171.297 1327.8 170.617 1325.72 169.257C1323.63 167.897 1321.96 166.174 1320.69 164.089C1319.51 161.913 1318.65 159.51 1318.1 156.881C1317.56 154.251 1317.29 151.667 1317.29 149.129C1317.29 146.499 1317.56 143.87 1318.1 141.241C1318.65 138.521 1319.55 136.073 1320.82 133.897C1322.18 131.63 1323.91 129.817 1325.99 128.457C1328.08 127.006 1330.66 126.281 1333.74 126.281C1341.99 126.281 1346.75 130.315 1348.02 138.385ZM1393.21 161.097H1374.85C1375.03 165.811 1376.07 169.755 1377.97 172.929C1379.97 176.011 1382.46 178.505 1385.45 180.409C1388.54 182.313 1392.03 183.673 1395.93 184.489C1399.82 185.305 1403.81 185.713 1407.89 185.713C1411.88 185.713 1415.78 185.305 1419.59 184.489C1423.49 183.763 1426.93 182.449 1429.93 180.545C1432.92 178.641 1435.32 176.147 1437.13 173.065C1439.04 169.891 1439.99 165.993 1439.99 161.369C1439.99 158.105 1439.35 155.385 1438.09 153.209C1436.82 150.942 1435.14 149.083 1433.05 147.633C1430.97 146.091 1428.57 144.867 1425.85 143.961C1423.22 143.054 1420.5 142.283 1417.69 141.649C1414.97 141.014 1412.29 140.425 1409.66 139.881C1407.03 139.337 1404.67 138.747 1402.59 138.113C1400.59 137.387 1398.96 136.481 1397.69 135.393C1396.42 134.305 1395.79 132.899 1395.79 131.177C1395.79 129.726 1396.15 128.593 1396.88 127.777C1397.6 126.87 1398.46 126.19 1399.46 125.737C1400.55 125.283 1401.73 125.011 1403 124.921C1404.27 124.739 1405.45 124.649 1406.53 124.649C1409.98 124.649 1412.97 125.329 1415.51 126.689C1418.05 127.958 1419.45 130.451 1419.73 134.169H1438.09C1437.72 129.817 1436.59 126.235 1434.69 123.425C1432.87 120.523 1430.56 118.211 1427.75 116.489C1424.94 114.766 1421.72 113.542 1418.09 112.817C1414.56 112.091 1410.89 111.729 1407.08 111.729C1403.27 111.729 1399.55 112.091 1395.93 112.817C1392.3 113.451 1389.03 114.63 1386.13 116.353C1383.23 117.985 1380.87 120.251 1379.06 123.153C1377.34 126.054 1376.48 129.771 1376.48 134.305C1376.48 137.387 1377.11 140.017 1378.38 142.193C1379.65 144.278 1381.33 146.046 1383.41 147.497C1385.5 148.857 1387.86 149.99 1390.49 150.897C1393.21 151.713 1395.97 152.438 1398.78 153.073C1405.67 154.523 1411.02 155.974 1414.83 157.425C1418.73 158.875 1420.68 161.051 1420.68 163.953C1420.68 165.675 1420.27 167.126 1419.45 168.305C1418.64 169.393 1417.59 170.299 1416.33 171.025C1415.15 171.659 1413.79 172.158 1412.25 172.521C1410.79 172.793 1409.39 172.929 1408.03 172.929C1406.13 172.929 1404.27 172.702 1402.45 172.249C1400.73 171.795 1399.19 171.115 1397.83 170.209C1396.47 169.211 1395.34 167.987 1394.43 166.537C1393.61 164.995 1393.21 163.182 1393.21 161.097Z" fill="black"/>
</g>
<defs>
<clipPath id="clip0">
<rect width="1938.79" height="383.89" fill="white" transform="translate(0.106934)"/>
</clipPath>
<clipPath id="clip1">
<rect width="371.786" height="383.89" fill="white" transform="translate(50.1069)"/>
</clipPath>
</defs>
</svg>
