<svg width="1498" height="384" viewBox="0 0 1498 384" fill="none" xmlns="http://www.w3.org/2000/svg">
<g clip-path="url(#clip0)">
<path d="M124.995 20.7397C105.862 33.2384 89.5595 49.6069 77.1387 68.7906" stroke="black" stroke-width="4" stroke-miterlimit="10" stroke-linecap="square"/>
<path d="M124.995 20.7395C138.261 12.0666 152.727 5.38648 167.932 0.912598" stroke="black" stroke-width="4" stroke-miterlimit="10" stroke-linecap="square"/>
<path d="M168.311 94.7051C165.888 104.171 163.98 113.762 162.596 123.435" stroke="black" stroke-width="4" stroke-linecap="round" stroke-linejoin="round"/>
<path d="M168.311 94.7052C172.12 79.9099 176.979 65.405 182.851 51.3008" stroke="black" stroke-width="4" stroke-linecap="round" stroke-linejoin="round"/>
<path d="M157.398 30.333C164.043 31.8967 170.876 33.2545 177.854 34.334" stroke="black" stroke-width="4" stroke-linecap="round" stroke-linejoin="round"/>
<path d="M124.995 20.7397C135.611 24.5315 146.429 27.7342 157.398 30.3332" stroke="black" stroke-width="4" stroke-linecap="round" stroke-linejoin="round"/>
<path d="M115.713 87.0645C131.389 90.0972 149.201 92.874 168.31 94.7047" stroke="black" stroke-width="4" stroke-linecap="round" stroke-linejoin="round"/>
<path d="M168.311 94.7051C177.37 95.5732 186.718 96.2298 196.267 96.5971" stroke="black" stroke-width="4" stroke-linecap="round" stroke-linejoin="round"/>
<path d="M100.967 84.0264C105.63 85.0503 110.545 86.0649 115.713 87.0702" stroke="black" stroke-width="4" stroke-linecap="round" stroke-linejoin="round"/>
<path d="M157.398 30.3331C162.332 25.8305 167.501 21.5935 172.885 17.6401" stroke="black" stroke-width="4" stroke-linecap="round" stroke-linejoin="round"/>
<path d="M113.565 92.0785C114.263 90.3794 114.979 88.71 115.713 87.0703" stroke="black" stroke-width="4" stroke-linecap="round" stroke-linejoin="round"/>
<path d="M157.398 30.333C141.923 44.4617 126.475 63.1312 115.735 87.0926" stroke="black" stroke-width="4" stroke-linecap="round" stroke-linejoin="round"/>
<path d="M177.832 34.334L182.851 51.2951" stroke="black" stroke-width="4" stroke-miterlimit="10" stroke-linecap="square"/>
<path d="M172.885 17.6401L177.832 34.3341" stroke="black" stroke-width="4" stroke-miterlimit="10" stroke-linecap="square"/>
<path d="M167.932 0.912598L172.884 17.64" stroke="black" stroke-width="4" stroke-miterlimit="10" stroke-linecap="square"/>
<path d="M182.851 51.2949L214.041 156.334L77.1553 68.7902" stroke="black" stroke-width="4" stroke-miterlimit="10" stroke-linecap="square"/>
<path d="M160.982 152.472C159.759 161.097 159.015 169.784 158.756 178.492" stroke="black" stroke-width="4" stroke-miterlimit="10" stroke-linecap="round"/>
<path d="M70.5898 105.929C78.3804 108.083 88.113 110.565 99.3369 113.03" stroke="black" stroke-width="4" stroke-miterlimit="10" stroke-linecap="round"/>
<path d="M111.951 121.087C105.47 137.026 101.527 153.881 100.266 171.041" stroke="black" stroke-width="4" stroke-miterlimit="10" stroke-linecap="round"/>
<path d="M241.831 20.8511C232.634 33.8569 224.597 47.6453 217.813 62.0574" stroke="black" stroke-width="4" stroke-linecap="square" stroke-linejoin="round"/>
<path d="M217.814 62.0571C215.549 66.8706 213.257 72.0235 211.003 77.4657" stroke="black" stroke-width="4" stroke-miterlimit="10" stroke-linecap="round"/>
<path d="M241.658 63.3426C233.693 63.3347 225.733 62.9056 217.813 62.0571" stroke="black" stroke-width="4" stroke-miterlimit="10" stroke-linecap="round"/>
<path d="M205.978 60.5049C209.877 61.1096 213.822 61.6271 217.814 62.0574" stroke="black" stroke-width="4" stroke-miterlimit="10" stroke-linecap="round"/>
<path d="M241.658 123.101C235.852 123.101 230.102 122.99 224.407 122.768" stroke="black" stroke-width="4" stroke-miterlimit="10" stroke-linecap="round"/>
<path d="M241.619 20.6675C237.245 22.4649 220.423 29.5709 201.036 43.8054" stroke="black" stroke-width="4" stroke-linecap="round" stroke-linejoin="round"/>
<path d="M258.241 372.922C258.241 372.922 284.273 358.921 311.284 332.895" stroke="black" stroke-width="4" stroke-miterlimit="10" stroke-linecap="round"/>
<path d="M399.934 129.902C387.072 107.231 368.98 87.962 347.164 73.6987" stroke="black" stroke-width="4" stroke-linecap="square" stroke-linejoin="round"/>
<path d="M350.219 344.453C323.144 363.047 291.058 372.977 258.213 372.927V47.2998H259.326C290.535 47.4659 321.032 56.6404 347.153 73.7208" stroke="black" stroke-width="4" stroke-miterlimit="10" stroke-linecap="square"/>
<path d="M405.381 279.847C393.008 305.867 373.978 328.155 350.219 344.453" stroke="black" stroke-width="4" stroke-linecap="square" stroke-linejoin="round"/>
<path d="M421.03 209.232C420.927 181.412 413.662 154.088 399.935 129.891" stroke="black" stroke-width="4" stroke-linecap="square" stroke-linejoin="round"/>
<path d="M421.03 209.231C421.03 209.521 421.03 209.788 421.03 210.1C421.065 234.223 415.719 258.051 405.382 279.847" stroke="black" stroke-width="4" stroke-linecap="square" stroke-linejoin="round"/>
<path d="M311.907 209.232C311.907 209.087 311.907 208.948 311.907 208.803C311.907 187.39 308.691 166.706 303.844 147.675" stroke="black" stroke-width="4" stroke-linecap="square" stroke-linejoin="round"/>
<path d="M258.219 47.2998C267.508 60.4214 275.632 74.3305 282.497 88.8679" stroke="black" stroke-width="4" stroke-linecap="round" stroke-linejoin="round"/>
<path d="M283.126 328.098C270.566 355.365 258.229 372.916 258.229 372.916" stroke="black" stroke-width="4" stroke-linecap="round" stroke-linejoin="round"/>
<path d="M304.945 265.646C309.141 247.889 311.868 228.841 311.907 209.243" stroke="black" stroke-width="4" stroke-linecap="square" stroke-linejoin="round"/>
<path d="M303.849 147.686C298.601 127.453 291.452 107.761 282.497 88.873" stroke="black" stroke-width="4" stroke-linecap="square" stroke-linejoin="round"/>
<path d="M283.126 328.098C291.106 310.781 299.336 289.368 304.945 265.646" stroke="black" stroke-width="4" stroke-linecap="square" stroke-linejoin="round"/>
<path d="M282.498 88.873C274.585 89.7139 266.633 90.1392 258.675 90.1474H258.241" stroke="black" stroke-width="4" stroke-linecap="square" stroke-linejoin="round"/>
<path d="M314.784 83.314C304.153 85.8434 293.373 87.7019 282.509 88.8786" stroke="black" stroke-width="4" stroke-linecap="square" stroke-linejoin="round"/>
<path d="M347.153 73.7207C336.544 77.5117 325.734 80.7144 314.772 83.3142" stroke="black" stroke-width="4" stroke-linecap="round" stroke-linejoin="round"/>
<path d="M258.213 326.607C266.538 326.652 274.855 327.15 283.126 328.098" stroke="black" stroke-width="4" stroke-linecap="square" stroke-linejoin="round"/>
<path d="M350.219 344.453C337.498 339.761 324.487 335.898 311.267 332.889" stroke="black" stroke-width="4" stroke-linecap="round" stroke-linejoin="round"/>
<path d="M283.126 328.098C292.591 329.188 301.991 330.789 311.283 332.895" stroke="black" stroke-width="4" stroke-linecap="square" stroke-linejoin="round"/>
<path d="M356.446 140.052C340.765 143.079 322.958 145.856 303.849 147.686" stroke="black" stroke-width="4" stroke-linecap="square" stroke-linejoin="round"/>
<path d="M303.849 147.687C289.381 149.072 274.217 149.912 258.647 149.912H258.213" stroke="black" stroke-width="4" stroke-linecap="square" stroke-linejoin="round"/>
<path d="M399.934 129.901C388.894 132.951 374.014 136.657 356.446 140.051" stroke="black" stroke-width="4" stroke-linecap="round" stroke-linejoin="round"/>
<path d="M405.381 279.847C394.141 277.476 377.258 274.243 356.674 271.294" stroke="black" stroke-width="4" stroke-linecap="round" stroke-linejoin="round"/>
<path d="M258.213 263.815C274.306 263.849 290.021 264.539 304.956 265.646" stroke="black" stroke-width="4" stroke-linecap="square" stroke-linejoin="round"/>
<path d="M356.674 271.294C341.232 269.068 323.715 267.043 304.923 265.646" stroke="black" stroke-width="4" stroke-linecap="square" stroke-linejoin="round"/>
<path d="M356.674 271.294C345.116 296.101 328.011 316.796 311.283 332.895" stroke="black" stroke-width="4" stroke-linecap="square" stroke-linejoin="round"/>
<path d="M370.808 209.231C370.808 232.047 365.277 252.814 356.674 271.283" stroke="black" stroke-width="4" stroke-linecap="square" stroke-linejoin="round"/>
<path d="M314.784 83.3143C289.837 60.5493 263.734 49.5535 258.225 47.2998" stroke="black" stroke-width="4" stroke-linecap="round" stroke-linejoin="round"/>
<path d="M370.809 209.232C370.809 182.427 365.183 159.495 356.446 140.041" stroke="black" stroke-width="4" stroke-linecap="square" stroke-linejoin="round"/>
<path d="M314.783 83.314C330.259 97.4482 345.706 116.118 356.446 140.074" stroke="black" stroke-width="4" stroke-linecap="square" stroke-linejoin="round"/>
<path d="M311.906 209.243H258.213" stroke="black" stroke-width="4" stroke-linecap="square" stroke-linejoin="round"/>
<path d="M311.906 209.243H370.808" stroke="black" stroke-width="4" stroke-linecap="square" stroke-linejoin="round"/>
<path d="M420.807 209.243H370.809" stroke="black" stroke-width="4" stroke-linecap="round" stroke-linejoin="round"/>
<path d="M62.7314 213.605C62.7654 206.746 63.23 199.895 64.1226 193.094L225.604 213.588L114.283 333.323C99.3456 319.344 87.1668 302.684 78.3793 284.21" stroke="black" stroke-width="4" stroke-miterlimit="10" stroke-linecap="square"/>
<path d="M62.7316 213.605C62.7316 213.894 62.7316 214.161 62.7316 214.473C62.6976 238.593 68.0433 262.417 78.3795 284.209" stroke="black" stroke-width="4" stroke-miterlimit="10" stroke-linecap="round"/>
<path d="M171.95 206.8C171.889 208.92 171.85 211.04 171.85 213.171V213.605" stroke="black" stroke-width="4" stroke-miterlimit="10" stroke-linecap="round"/>
<path d="M171.866 213.605C171.994 230.927 173.956 248.186 177.72 265.095" stroke="black" stroke-width="4" stroke-miterlimit="10" stroke-linecap="round"/>
<path d="M78.3799 284.21C89.6205 281.839 106.509 278.6 127.093 275.657" stroke="black" stroke-width="4" stroke-miterlimit="10" stroke-linecap="round"/>
<path d="M127.087 275.657C140.832 273.692 156.229 271.856 172.689 270.493" stroke="black" stroke-width="4" stroke-miterlimit="10" stroke-linecap="round"/>
<path d="M142.746 302.718C136.761 294.164 131.523 285.113 127.087 275.663" stroke="black" stroke-width="4" stroke-miterlimit="10" stroke-linecap="round"/>
<path d="M112.953 213.605C112.953 236.42 118.484 257.187 127.087 275.657" stroke="black" stroke-width="4" stroke-miterlimit="10" stroke-linecap="round"/>
<path d="M112.953 213.605C112.953 208.738 113.139 203.995 113.51 199.376" stroke="black" stroke-width="4" stroke-miterlimit="10" stroke-linecap="round"/>
<path d="M171.85 213.605H225.526" stroke="black" stroke-width="4" stroke-miterlimit="10" stroke-linecap="round"/>
<path d="M112.953 213.605H171.85" stroke="black" stroke-width="4" stroke-miterlimit="10" stroke-linecap="round"/>
<path d="M62.7314 213.605H112.953" stroke="black" stroke-width="4" stroke-miterlimit="10" stroke-linecap="round"/>
<path d="M152.095 354.764C145.296 350.096 138.86 344.921 132.841 339.283L244.09 219.565L244.162 383.233" stroke="black" stroke-width="4" stroke-miterlimit="10" stroke-linecap="square"/>
<path d="M152.095 354.764C179.17 373.358 211.256 383.288 244.101 383.239" stroke="black" stroke-width="4" stroke-miterlimit="10" stroke-linecap="round"/>
<path d="M219.166 338.404C231.731 365.671 244.068 383.222 244.068 383.222" stroke="black" stroke-width="4" stroke-miterlimit="10" stroke-linecap="round"/>
<path d="M197.369 275.952C196.985 274.327 196.618 272.685 196.256 271.038" stroke="black" stroke-width="4" stroke-miterlimit="10" stroke-linecap="round"/>
<path d="M197.369 275.952C202.978 299.674 211.208 321.081 219.166 338.404" stroke="black" stroke-width="4" stroke-miterlimit="10" stroke-linecap="round"/>
<path d="M244.101 336.913C235.769 336.954 227.444 337.452 219.166 338.404" stroke="black" stroke-width="4" stroke-miterlimit="10" stroke-linecap="round"/>
<path d="M152.095 354.764C164.816 350.072 177.827 346.21 191.047 343.201" stroke="black" stroke-width="4" stroke-miterlimit="10" stroke-linecap="round"/>
<path d="M191.031 343.201C200.316 341.096 209.708 339.495 219.166 338.404" stroke="black" stroke-width="4" stroke-miterlimit="10" stroke-linecap="round"/>
<path d="M244.102 274.115C228.009 274.154 212.294 274.844 197.358 275.952" stroke="black" stroke-width="4" stroke-miterlimit="10" stroke-linecap="round"/>
<path d="M191.242 276.436C193.268 276.269 195.308 276.107 197.363 275.952" stroke="black" stroke-width="4" stroke-miterlimit="10" stroke-linecap="round"/>
<path d="M161.293 308.655C170.052 321.113 180.01 332.684 191.025 343.201" stroke="black" stroke-width="4" stroke-miterlimit="10" stroke-linecap="round"/>
<path d="M244.101 383.238C244.101 383.238 218.064 369.215 191.031 343.173" stroke="black" stroke-width="4" stroke-miterlimit="10" stroke-linecap="round"/>
<path d="M241.052 20.4834H242.093V182.471L196.084 27.0831C210.666 22.7986 225.776 20.5771 240.974 20.4834H241.052Z" stroke="black" stroke-width="4" stroke-miterlimit="10" stroke-linecap="square"/>
<path d="M70.5826 106.006C72.1519 103.246 73.799 100.536 75.524 97.876L212.365 185.38L50.9004 164.847C53.6003 144.146 60.2841 124.165 70.5826 106.006" stroke="black" stroke-width="4" stroke-miterlimit="10"/>
</g>
<path d="M481.17 81.3408V178.445H554.882V160.493H502.522V136.693H549.578V120.101H502.522V99.2928H553.794V81.3408H481.17ZM567.318 108.133V178.445H586.63V141.589C586.63 134.426 587.808 129.303 590.166 126.221C592.523 123.047 596.331 121.461 601.59 121.461C606.214 121.461 609.432 122.911 611.246 125.813C613.059 128.623 613.966 132.93 613.966 138.733V178.445H633.278V135.197C633.278 130.845 632.87 126.901 632.054 123.365C631.328 119.738 630.014 116.701 628.11 114.253C626.206 111.714 623.576 109.765 620.222 108.405C616.958 106.954 612.742 106.229 607.574 106.229C603.494 106.229 599.504 107.181 595.606 109.085C591.707 110.898 588.534 113.845 586.086 117.925H585.678V108.133H567.318ZM697.847 143.085C697.847 145.986 697.575 148.797 697.031 151.517C696.487 154.237 695.58 156.685 694.311 158.861C693.041 160.946 691.319 162.623 689.143 163.893C687.057 165.162 684.428 165.797 681.255 165.797C678.263 165.797 675.679 165.162 673.503 163.893C671.417 162.533 669.649 160.81 668.199 158.725C666.839 156.549 665.841 154.101 665.207 151.381C664.572 148.661 664.255 145.941 664.255 143.221C664.255 140.319 664.527 137.554 665.071 134.925C665.705 132.205 666.657 129.802 667.927 127.717C669.287 125.631 671.055 123.954 673.231 122.685C675.407 121.415 678.081 120.781 681.255 120.781C684.428 120.781 687.057 121.415 689.143 122.685C691.228 123.954 692.905 125.631 694.175 127.717C695.535 129.711 696.487 132.069 697.031 134.789C697.575 137.418 697.847 140.183 697.847 143.085ZM698.119 169.469V178.445H716.479V81.3408H697.167V116.701H696.895C694.719 113.255 691.727 110.671 687.919 108.949C684.201 107.135 680.257 106.229 676.087 106.229C670.919 106.229 666.385 107.271 662.487 109.357C658.588 111.351 655.324 114.026 652.695 117.381C650.156 120.735 648.207 124.634 646.847 129.077C645.577 133.429 644.943 137.962 644.943 142.677C644.943 147.573 645.577 152.287 646.847 156.821C648.207 161.354 650.156 165.389 652.695 168.925C655.324 172.37 658.633 175.135 662.623 177.221C666.612 179.215 671.236 180.213 676.495 180.213C681.119 180.213 685.244 179.397 688.871 177.765C692.588 176.042 695.58 173.277 697.847 169.469H698.119ZM754.467 127.037V97.9328H771.059C773.507 97.9328 775.865 98.1142 778.131 98.4768C780.398 98.8395 782.393 99.5648 784.115 100.653C785.838 101.65 787.198 103.101 788.195 105.005C789.283 106.909 789.827 109.402 789.827 112.485C789.827 115.567 789.283 118.061 788.195 119.965C787.198 121.869 785.838 123.365 784.115 124.453C782.393 125.45 780.398 126.13 778.131 126.493C775.865 126.855 773.507 127.037 771.059 127.037H754.467ZM733.115 81.3408V178.445H754.467V143.629H776.907C782.982 143.629 788.15 142.767 792.411 141.045C796.673 139.231 800.118 136.874 802.747 133.973C805.467 131.071 807.417 127.762 808.595 124.045C809.865 120.237 810.499 116.383 810.499 112.485C810.499 108.495 809.865 104.642 808.595 100.925C807.417 97.2075 805.467 93.8982 802.747 90.9968C800.118 88.0955 796.673 85.7835 792.411 84.0608C788.15 82.2475 782.982 81.3408 776.907 81.3408H733.115ZM820.97 129.757C821.242 125.223 822.376 121.461 824.37 118.469C826.365 115.477 828.904 113.074 831.986 111.261C835.069 109.447 838.514 108.178 842.322 107.453C846.221 106.637 850.12 106.229 854.018 106.229C857.554 106.229 861.136 106.501 864.762 107.045C868.389 107.498 871.698 108.45 874.69 109.901C877.682 111.351 880.13 113.391 882.034 116.021C883.938 118.559 884.89 121.959 884.89 126.221V162.805C884.89 165.978 885.072 169.015 885.434 171.917C885.797 174.818 886.432 176.994 887.338 178.445H867.754C867.392 177.357 867.074 176.269 866.802 175.181C866.621 174.002 866.485 172.823 866.394 171.645C863.312 174.818 859.685 177.039 855.514 178.309C851.344 179.578 847.082 180.213 842.73 180.213C839.376 180.213 836.248 179.805 833.346 178.989C830.445 178.173 827.906 176.903 825.73 175.181C823.554 173.458 821.832 171.282 820.562 168.653C819.384 166.023 818.794 162.895 818.794 159.269C818.794 155.279 819.474 152.015 820.834 149.477C822.285 146.847 824.098 144.762 826.274 143.221C828.541 141.679 831.08 140.546 833.89 139.821C836.792 139.005 839.693 138.37 842.594 137.917C845.496 137.463 848.352 137.101 851.162 136.829C853.973 136.557 856.466 136.149 858.642 135.605C860.818 135.061 862.541 134.29 863.81 133.293C865.08 132.205 865.669 130.663 865.578 128.669C865.578 126.583 865.216 124.951 864.49 123.773C863.856 122.503 862.949 121.551 861.77 120.917C860.682 120.191 859.368 119.738 857.826 119.557C856.376 119.285 854.789 119.149 853.066 119.149C849.258 119.149 846.266 119.965 844.09 121.597C841.914 123.229 840.645 125.949 840.282 129.757H820.97ZM865.578 144.037C864.762 144.762 863.72 145.351 862.45 145.805C861.272 146.167 859.957 146.485 858.506 146.757C857.146 147.029 855.696 147.255 854.154 147.437C852.613 147.618 851.072 147.845 849.53 148.117C848.08 148.389 846.629 148.751 845.178 149.205C843.818 149.658 842.594 150.293 841.506 151.109C840.509 151.834 839.693 152.786 839.058 153.965C838.424 155.143 838.106 156.639 838.106 158.453C838.106 160.175 838.424 161.626 839.058 162.805C839.693 163.983 840.554 164.935 841.642 165.661C842.73 166.295 844 166.749 845.45 167.021C846.901 167.293 848.397 167.429 849.938 167.429C853.746 167.429 856.693 166.794 858.778 165.525C860.864 164.255 862.405 162.759 863.402 161.037C864.4 159.223 864.989 157.41 865.17 155.597C865.442 153.783 865.578 152.333 865.578 151.245V144.037ZM899.88 108.133V178.445H919.192V141.589C919.192 134.426 920.371 129.303 922.728 126.221C925.085 123.047 928.893 121.461 934.152 121.461C938.776 121.461 941.995 122.911 943.808 125.813C945.621 128.623 946.528 132.93 946.528 138.733V178.445H965.84V135.197C965.84 130.845 965.432 126.901 964.616 123.365C963.891 119.738 962.576 116.701 960.672 114.253C958.768 111.714 956.139 109.765 952.784 108.405C949.52 106.954 945.304 106.229 940.136 106.229C936.056 106.229 932.067 107.181 928.168 109.085C924.269 110.898 921.096 113.845 918.648 117.925H918.24V108.133H899.88ZM1030.41 143.085C1030.41 145.986 1030.14 148.797 1029.59 151.517C1029.05 154.237 1028.14 156.685 1026.87 158.861C1025.6 160.946 1023.88 162.623 1021.71 163.893C1019.62 165.162 1016.99 165.797 1013.82 165.797C1010.83 165.797 1008.24 165.162 1006.07 163.893C1003.98 162.533 1002.21 160.81 1000.76 158.725C999.401 156.549 998.404 154.101 997.769 151.381C997.135 148.661 996.817 145.941 996.817 143.221C996.817 140.319 997.089 137.554 997.633 134.925C998.268 132.205 999.22 129.802 1000.49 127.717C1001.85 125.631 1003.62 123.954 1005.79 122.685C1007.97 121.415 1010.64 120.781 1013.82 120.781C1016.99 120.781 1019.62 121.415 1021.71 122.685C1023.79 123.954 1025.47 125.631 1026.74 127.717C1028.1 129.711 1029.05 132.069 1029.59 134.789C1030.14 137.418 1030.41 140.183 1030.41 143.085ZM1030.68 169.469V178.445H1049.04V81.3408H1029.73V116.701H1029.46C1027.28 113.255 1024.29 110.671 1020.48 108.949C1016.76 107.135 1012.82 106.229 1008.65 106.229C1003.48 106.229 998.948 107.271 995.049 109.357C991.151 111.351 987.887 114.026 985.257 117.381C982.719 120.735 980.769 124.634 979.409 129.077C978.14 133.429 977.505 137.962 977.505 142.677C977.505 147.573 978.14 152.287 979.409 156.821C980.769 161.354 982.719 165.389 985.257 168.925C987.887 172.37 991.196 175.135 995.185 177.221C999.175 179.215 1003.8 180.213 1009.06 180.213C1013.68 180.213 1017.81 179.397 1021.43 177.765C1025.15 176.042 1028.14 173.277 1030.41 169.469H1030.68ZM1110.97 135.741H1079.55C1079.64 134.381 1079.91 132.839 1080.37 131.117C1080.91 129.394 1081.77 127.762 1082.95 126.221C1084.22 124.679 1085.85 123.41 1087.85 122.413C1089.93 121.325 1092.52 120.781 1095.6 120.781C1100.31 120.781 1103.8 122.05 1106.07 124.589C1108.43 127.127 1110.06 130.845 1110.97 135.741ZM1079.55 147.981H1130.28C1130.64 142.541 1130.19 137.327 1128.92 132.341C1127.65 127.354 1125.56 122.911 1122.66 119.013C1119.85 115.114 1116.22 112.031 1111.78 109.765C1107.34 107.407 1102.13 106.229 1096.14 106.229C1090.79 106.229 1085.9 107.181 1081.45 109.085C1077.1 110.989 1073.34 113.618 1070.17 116.973C1066.99 120.237 1064.54 124.135 1062.82 128.669C1061.1 133.202 1060.24 138.098 1060.24 143.357C1060.24 148.797 1061.05 153.783 1062.69 158.317C1064.41 162.85 1066.81 166.749 1069.89 170.013C1072.98 173.277 1076.74 175.815 1081.18 177.629C1085.62 179.351 1090.61 180.213 1096.14 180.213C1104.12 180.213 1110.92 178.399 1116.54 174.773C1122.16 171.146 1126.33 165.117 1129.05 156.685H1112.05C1111.42 158.861 1109.7 160.946 1106.89 162.941C1104.08 164.845 1100.72 165.797 1096.82 165.797C1091.38 165.797 1087.21 164.391 1084.31 161.581C1081.41 158.77 1079.82 154.237 1079.55 147.981ZM1142.28 108.133V178.445H1161.59V137.645C1161.59 134.199 1162.09 131.434 1163.08 129.349C1164.08 127.173 1165.26 125.541 1166.62 124.453C1168.07 123.274 1169.52 122.503 1170.97 122.141C1172.51 121.687 1173.74 121.461 1174.64 121.461C1177.73 121.461 1180.04 122.005 1181.58 123.093C1183.21 124.09 1184.35 125.45 1184.98 127.173C1185.71 128.895 1186.11 130.799 1186.2 132.885C1186.29 134.879 1186.34 136.919 1186.34 139.005V178.445H1205.65V139.277C1205.65 137.101 1205.79 134.97 1206.06 132.885C1206.42 130.709 1207.06 128.805 1207.96 127.173C1208.96 125.45 1210.28 124.09 1211.91 123.093C1213.63 122.005 1215.85 121.461 1218.57 121.461C1221.29 121.461 1223.42 121.914 1224.96 122.821C1226.6 123.727 1227.82 124.951 1228.64 126.493C1229.45 128.034 1229.95 129.847 1230.13 131.933C1230.31 134.018 1230.4 136.239 1230.4 138.597V178.445H1249.72V131.389C1249.72 126.855 1249.08 123.002 1247.81 119.829C1246.54 116.565 1244.77 113.935 1242.51 111.941C1240.24 109.946 1237.52 108.495 1234.35 107.589C1231.17 106.682 1227.73 106.229 1224.01 106.229C1219.12 106.229 1214.85 107.407 1211.23 109.765C1207.69 112.122 1204.88 114.842 1202.8 117.925C1200.89 113.573 1198.08 110.535 1194.36 108.813C1190.74 107.09 1186.7 106.229 1182.26 106.229C1177.64 106.229 1173.51 107.226 1169.88 109.221C1166.35 111.215 1163.31 114.026 1160.77 117.653H1160.5V108.133H1142.28ZM1284.84 97.2528V81.3408H1265.53V97.2528H1284.84ZM1265.53 108.133V178.445H1284.84V108.133H1265.53ZM1347.92 132.885H1366.82C1366.55 128.351 1365.46 124.453 1363.56 121.189C1361.65 117.834 1359.16 115.069 1356.08 112.893C1353.08 110.626 1349.64 108.949 1345.74 107.861C1341.93 106.773 1337.94 106.229 1333.77 106.229C1328.06 106.229 1322.98 107.181 1318.54 109.085C1314.1 110.989 1310.33 113.663 1307.25 117.109C1304.17 120.463 1301.81 124.498 1300.18 129.213C1298.64 133.837 1297.87 138.869 1297.87 144.309C1297.87 149.567 1298.73 154.418 1300.45 158.861C1302.17 163.213 1304.58 166.975 1307.66 170.149C1310.74 173.322 1314.46 175.815 1318.81 177.629C1323.25 179.351 1328.11 180.213 1333.36 180.213C1342.7 180.213 1350.36 177.765 1356.35 172.869C1362.33 167.973 1365.96 160.855 1367.23 151.517H1348.6C1347.96 155.869 1346.37 159.359 1343.84 161.989C1341.39 164.527 1337.85 165.797 1333.23 165.797C1330.24 165.797 1327.7 165.117 1325.61 163.757C1323.53 162.397 1321.85 160.674 1320.58 158.589C1319.4 156.413 1318.54 154.01 1318 151.381C1317.45 148.751 1317.18 146.167 1317.18 143.629C1317.18 140.999 1317.45 138.37 1318 135.741C1318.54 133.021 1319.45 130.573 1320.72 128.397C1322.08 126.13 1323.8 124.317 1325.88 122.957C1327.97 121.506 1330.55 120.781 1333.64 120.781C1341.89 120.781 1346.65 124.815 1347.92 132.885ZM1393.1 155.597H1374.74C1374.92 160.311 1375.96 164.255 1377.87 167.429C1379.86 170.511 1382.35 173.005 1385.35 174.909C1388.43 176.813 1391.92 178.173 1395.82 178.989C1399.72 179.805 1403.71 180.213 1407.79 180.213C1411.78 180.213 1415.67 179.805 1419.48 178.989C1423.38 178.263 1426.83 176.949 1429.82 175.045C1432.81 173.141 1435.21 170.647 1437.03 167.565C1438.93 164.391 1439.88 160.493 1439.88 155.869C1439.88 152.605 1439.25 149.885 1437.98 147.709C1436.71 145.442 1435.03 143.583 1432.95 142.133C1430.86 140.591 1428.46 139.367 1425.74 138.461C1423.11 137.554 1420.39 136.783 1417.58 136.149C1414.86 135.514 1412.18 134.925 1409.55 134.381C1406.92 133.837 1404.57 133.247 1402.48 132.613C1400.49 131.887 1398.86 130.981 1397.59 129.893C1396.32 128.805 1395.68 127.399 1395.68 125.677C1395.68 124.226 1396.04 123.093 1396.77 122.277C1397.5 121.37 1398.36 120.69 1399.35 120.237C1400.44 119.783 1401.62 119.511 1402.89 119.421C1404.16 119.239 1405.34 119.149 1406.43 119.149C1409.87 119.149 1412.86 119.829 1415.4 121.189C1417.94 122.458 1419.35 124.951 1419.62 128.669H1437.98C1437.62 124.317 1436.48 120.735 1434.58 117.925C1432.76 115.023 1430.45 112.711 1427.64 110.989C1424.83 109.266 1421.61 108.042 1417.99 107.317C1414.45 106.591 1410.78 106.229 1406.97 106.229C1403.16 106.229 1399.44 106.591 1395.82 107.317C1392.19 107.951 1388.93 109.13 1386.03 110.853C1383.12 112.485 1380.77 114.751 1378.95 117.653C1377.23 120.554 1376.37 124.271 1376.37 128.805C1376.37 131.887 1377 134.517 1378.27 136.693C1379.54 138.778 1381.22 140.546 1383.31 141.997C1385.39 143.357 1387.75 144.49 1390.38 145.397C1393.1 146.213 1395.86 146.938 1398.67 147.573C1405.56 149.023 1410.91 150.474 1414.72 151.925C1418.62 153.375 1420.57 155.551 1420.57 158.453C1420.57 160.175 1420.16 161.626 1419.35 162.805C1418.53 163.893 1417.49 164.799 1416.22 165.525C1415.04 166.159 1413.68 166.658 1412.14 167.021C1410.69 167.293 1409.28 167.429 1407.92 167.429C1406.02 167.429 1404.16 167.202 1402.35 166.749C1400.62 166.295 1399.08 165.615 1397.72 164.709C1396.36 163.711 1395.23 162.487 1394.32 161.037C1393.51 159.495 1393.1 157.682 1393.1 155.597Z" fill="black"/>
<path d="M487.702 293.685L500.858 260.013L513.554 293.685H487.702ZM497.638 253.757L471.234 319.445H477.858L485.77 299.021H515.67L523.674 319.445H530.39L504.63 253.757H497.638ZM546.939 253.757V319.445H589.995V314.109H553.195V253.757H546.939ZM606.933 253.757V319.445H649.989V314.109H613.189V253.757H606.933ZM667.387 253.757V319.445H673.643V253.757H667.387ZM707.194 293.685L720.35 260.013L733.046 293.685H707.194ZM717.13 253.757L690.726 319.445H697.35L705.262 299.021H735.162L743.166 319.445H749.882L724.122 253.757H717.13ZM766.339 253.757V319.445H772.595V263.877H772.779L811.051 319.445H818.043V253.757H811.787V309.325H811.603L773.331 253.757H766.339ZM889.813 273.629H896.069C895.639 270.194 894.597 267.158 892.941 264.521C891.346 261.883 889.322 259.675 886.869 257.897C884.477 256.057 881.778 254.677 878.773 253.757C875.829 252.837 872.793 252.377 869.665 252.377C864.513 252.377 859.974 253.327 856.049 255.229C852.185 257.069 848.965 259.583 846.389 262.773C843.813 265.901 841.881 269.519 840.593 273.629C839.305 277.738 838.661 282.062 838.661 286.601C838.661 291.139 839.305 295.463 840.593 299.573C841.881 303.682 843.813 307.301 846.389 310.429C848.965 313.557 852.185 316.071 856.049 317.973C859.974 319.813 864.513 320.733 869.665 320.733C873.529 320.733 877.025 320.119 880.153 318.893C883.342 317.666 886.102 315.918 888.433 313.649C890.763 311.379 892.665 308.619 894.137 305.369C895.609 302.118 896.559 298.469 896.989 294.421H890.733C890.426 297.365 889.721 300.125 888.617 302.701C887.513 305.215 886.071 307.423 884.293 309.325C882.514 311.226 880.398 312.729 877.945 313.833C875.491 314.937 872.731 315.489 869.665 315.489C865.31 315.489 861.569 314.661 858.441 313.005C855.313 311.349 852.737 309.171 850.713 306.473C848.75 303.713 847.278 300.615 846.297 297.181C845.377 293.685 844.917 290.158 844.917 286.601C844.917 282.982 845.377 279.455 846.297 276.021C847.278 272.586 848.75 269.519 850.713 266.821C852.737 264.061 855.313 261.853 858.441 260.197C861.569 258.541 865.31 257.713 869.665 257.713C872.057 257.713 874.326 258.081 876.473 258.817C878.681 259.491 880.674 260.503 882.453 261.853C884.293 263.202 885.826 264.889 887.053 266.913C888.341 268.875 889.261 271.114 889.813 273.629ZM917.146 253.757V319.445H962.962V314.109H923.402V288.165H960.018V282.829H923.402V259.093H962.502V253.757H917.146ZM1027.46 253.757L1049.27 311.349L1071.9 253.757H1081.1V319.445H1074.84V262.681H1074.66L1052.21 319.445H1046.32L1024.7 262.681H1024.52V319.445H1018.26V253.757H1027.46ZM1104.59 253.757V319.445H1150.4V314.109H1110.84V288.165H1147.46V282.829H1110.84V259.093H1149.94V253.757H1104.59ZM1178.72 253.757L1200.52 311.349L1223.15 253.757H1232.35V319.445H1226.1V262.681H1225.91L1203.46 319.445H1197.58L1175.96 262.681H1175.77V319.445H1169.52V253.757H1178.72ZM1262.09 282.553V259.093H1283.62C1293.5 259.093 1298.43 263.202 1298.43 271.421C1298.43 272.954 1298.13 274.395 1297.51 275.745C1296.9 277.094 1295.98 278.29 1294.75 279.333C1293.53 280.314 1291.99 281.111 1290.15 281.725C1288.31 282.277 1286.14 282.553 1283.62 282.553H1262.09ZM1255.84 253.757V319.445H1283.62C1287.18 319.445 1290.22 319.138 1292.73 318.525C1295.31 317.85 1297.45 317.022 1299.17 316.041C1300.95 314.998 1302.36 313.802 1303.4 312.453C1304.45 311.103 1305.24 309.754 1305.79 308.405C1306.35 306.994 1306.71 305.645 1306.9 304.357C1307.08 303.007 1307.17 301.811 1307.17 300.769C1307.17 296.475 1305.92 292.887 1303.4 290.005C1300.89 287.061 1297.51 285.313 1293.28 284.761V284.577C1295 284.209 1296.53 283.565 1297.88 282.645C1299.29 281.725 1300.49 280.621 1301.47 279.333C1302.51 277.983 1303.31 276.511 1303.86 274.917C1304.41 273.261 1304.69 271.574 1304.69 269.857C1304.69 266.79 1304.11 264.245 1302.94 262.221C1301.78 260.135 1300.21 258.479 1298.25 257.253C1296.35 255.965 1294.11 255.075 1291.53 254.585C1289.02 254.033 1286.38 253.757 1283.62 253.757H1255.84ZM1262.09 314.109V287.889H1283.62C1289.2 287.889 1293.47 288.962 1296.41 291.109C1299.42 293.194 1300.92 296.353 1300.92 300.585C1300.92 303.222 1300.46 305.43 1299.54 307.209C1298.62 308.926 1297.36 310.306 1295.77 311.349C1294.17 312.391 1292.33 313.127 1290.25 313.557C1288.16 313.925 1285.95 314.109 1283.62 314.109H1262.09ZM1327.78 253.757V319.445H1373.6V314.109H1334.04V288.165H1370.65V282.829H1334.04V259.093H1373.14V253.757H1327.78ZM1399.15 284.945V259.093H1422.52C1427.31 259.093 1430.86 260.258 1433.19 262.589C1435.52 264.919 1436.69 268.109 1436.69 272.157C1436.69 274.181 1436.29 275.99 1435.49 277.585C1434.76 279.118 1433.75 280.437 1432.46 281.541C1431.17 282.645 1429.67 283.503 1427.95 284.117C1426.23 284.669 1424.42 284.945 1422.52 284.945H1399.15ZM1392.9 253.757V319.445H1399.15V290.281H1422.89C1425.83 290.158 1428.13 290.649 1429.79 291.753C1431.51 292.857 1432.79 294.329 1433.65 296.169C1434.57 297.947 1435.16 300.002 1435.4 302.333C1435.71 304.602 1435.92 306.902 1436.05 309.233C1436.11 309.907 1436.17 310.705 1436.23 311.625C1436.29 312.545 1436.35 313.495 1436.41 314.477C1436.54 315.397 1436.69 316.317 1436.87 317.237C1437.12 318.095 1437.43 318.831 1437.79 319.445H1444.69C1444.02 318.647 1443.47 317.543 1443.04 316.133C1442.67 314.661 1442.39 313.127 1442.21 311.533C1442.03 309.877 1441.9 308.251 1441.84 306.657C1441.78 305.062 1441.72 303.713 1441.66 302.609C1441.53 300.646 1441.26 298.837 1440.83 297.181C1440.46 295.463 1439.82 293.961 1438.9 292.673C1438.04 291.385 1436.9 290.342 1435.49 289.545C1434.08 288.686 1432.3 288.103 1430.16 287.797V287.613C1434.39 286.754 1437.58 284.791 1439.73 281.725C1441.87 278.658 1442.95 275.039 1442.95 270.869C1442.95 267.925 1442.39 265.379 1441.29 263.233C1440.25 261.025 1438.81 259.246 1436.97 257.897C1435.19 256.486 1433.07 255.443 1430.62 254.769C1428.23 254.094 1425.68 253.757 1422.98 253.757H1392.9Z" fill="black"/>
<defs>
<clipPath id="clip0">
<rect width="371.786" height="383.89" fill="white" transform="translate(50)"/>
</clipPath>
</defs>
</svg>
